<svg width="570" height="250" viewBox="0 0 570 250" fill="none" xmlns="http://www.w3.org/2000/svg">
<path d="M44.1277 86.1862C43.0118 81.5024 45.2914 77.1344 47.6659 73.5942C50.2797 69.6967 54.6408 66.2422 59.5114 65C58.6265 69.4188 56.0476 73.2303 53.5653 76.8138C51.0997 80.3739 47.99 83.9796 44.1277 86.1862Z" fill="white"/>
<path d="M40.7293 95.1706C41.6004 91.4614 41.5811 87.4007 40.7518 83.9216C40.0226 80.8641 38.9615 76.5419 35.4692 75.0835C32.9307 79.1554 31.9102 84.7004 33.3897 88.8554C34.4594 91.8607 36.3832 95.8343 40.373 96.4493C44.034 97.2933 47.736 95.3404 50.6597 93.728C53.9107 91.9354 57.0951 89.0835 59.0299 85.6929C55.4807 83.9014 51.4388 85.3552 48.398 86.7485C45.1202 88.2504 42.109 91.4729 40.7293 95.1706Z" fill="white"/>
<path d="M29.4561 105.18C31.2565 107.926 34.0424 111.367 38.1045 111.269C41.7984 111.453 44.9898 108.933 47.5029 106.829C50.2095 104.562 52.6526 101.249 53.684 97.666C49.9059 96.5668 46.2887 98.6031 43.5913 100.524C40.7746 102.53 38.6083 106.201 38.1429 109.97C38.108 106.194 37.0858 102.294 35.438 99.1515C33.9314 96.2791 31.832 92.3963 28.0865 91.6201C26.6108 96.0896 27.0817 101.558 29.4561 105.18Z" fill="white"/>
<path d="M39.3056 126.063C35.5356 126.694 31.8582 124.385 29.4699 121.668C26.395 118.169 24.5655 113.477 24.9386 108.779C28.8116 108.877 31.7448 112.225 33.9129 114.757C36.2478 117.483 38.1609 121.07 39.0787 124.771C38.675 121.083 39.9132 117.101 42.2115 114.64C44.43 112.265 47.5377 109.676 51.4043 110.092C51.321 113.831 49.4465 117.394 47.5132 120.062C45.7111 122.549 42.9349 125.624 39.3056 126.063Z" fill="white"/>
<path d="M32.3419 138.488C35.8141 140.749 40.0252 142.986 44.4509 141.293C48.0817 140.008 50.3901 136.354 51.8099 132.999C53.3139 129.445 54.3184 125.346 53.623 121.456C49.6332 121.81 46.3249 124.665 44.5677 128.149C42.7307 131.792 42.3784 136.128 43.7895 139.947C41.7045 136.018 38.6554 132.839 35.4254 129.901C32.4892 127.231 28.2599 124.418 24 124.947C24.8105 130.214 28.0243 135.677 32.3419 138.488Z" fill="white"/>
<path d="M53.3943 155.53C56.8111 153.488 58.1862 149.19 58.7482 145.507C59.354 141.535 59.328 137.155 57.6784 133.387C53.7144 134.494 50.9933 138.062 50.0949 141.97C49.1456 146.098 49.9466 150.499 52.2557 154.014C49.1863 150.493 45.1049 147.585 41.1936 145.546C37.4155 143.577 32.7804 141.202 28.2432 142.636C30.4311 147.976 35.1114 152.947 40.2986 155.004C44.3157 156.596 49.2027 158.171 53.3943 155.53Z" fill="white"/>
<path d="M69.5932 156.913C70.0946 160.746 70.0804 165.609 67.1039 168.56C63.3844 172.367 57.628 171.632 53.1882 170.795C47.2276 169.669 40.518 165.604 36.9219 160.191C41.3138 157.773 46.6853 159.32 51.0334 160.572L51.2817 160.643C56.1353 162.04 61.3075 164.289 65.6331 167.362C62.1811 164.243 59.666 159.664 59.5428 155.05C59.4321 150.922 61.2236 146.507 65.0786 144.54C67.77 148.072 69.0303 152.607 69.5932 156.913Z" fill="white"/>
<path d="M86.8678 179.415C89.0598 175.242 86.888 170.345 85.1574 166.726C83.1114 162.447 80.3159 158.086 76.3152 154.954C72.4737 158.265 72.839 163.002 73.9811 167.119C75.3392 172.014 80.0475 176.187 84.923 178.565C79.2765 176.459 73.1098 175.195 67.2427 174.822L66.6484 174.784C61.935 174.477 55.7989 174.077 52.043 177.526C57.7218 182.354 65.788 185.139 72.8973 184.995C77.6615 184.898 84.1981 184.334 86.8678 179.415Z" fill="white"/>
<path d="M107.087 70.6055V99.5H101.853V70.6055H107.087ZM128.863 83.5572L124.207 84.0651C124.075 83.5948 123.845 83.1528 123.516 82.7389C123.196 82.3251 122.763 81.9911 122.218 81.7372C121.672 81.4832 121.004 81.3563 120.214 81.3563C119.152 81.3563 118.258 81.5867 117.534 82.0476C116.819 82.5085 116.466 83.1057 116.476 83.8394C116.466 84.4696 116.697 84.9822 117.167 85.3772C117.647 85.7723 118.437 86.0968 119.537 86.3507L123.234 87.1408C125.284 87.5829 126.808 88.2836 127.805 89.243C128.811 90.2024 129.319 91.4581 129.329 93.01C129.319 94.3739 128.919 95.5778 128.129 96.6218C127.349 97.6565 126.262 98.4654 124.87 99.0485C123.478 99.6317 121.879 99.9233 120.073 99.9233C117.421 99.9233 115.286 99.3683 113.668 98.2584C112.05 97.1392 111.086 95.5825 110.776 93.5885L115.756 93.1088C115.982 94.087 116.461 94.8253 117.195 95.3238C117.929 95.8223 118.883 96.0716 120.059 96.0716C121.273 96.0716 122.246 95.8223 122.98 95.3238C123.723 94.8253 124.094 94.2093 124.094 93.4756C124.094 92.8548 123.854 92.3422 123.375 91.9378C122.904 91.5333 122.171 91.2229 121.174 91.0066L117.477 90.2306C115.399 89.7979 113.861 89.069 112.864 88.0438C111.867 87.0091 111.373 85.7017 111.382 84.1216C111.373 82.7859 111.735 81.629 112.469 80.6508C113.212 79.6632 114.242 78.9013 115.559 78.3652C116.885 77.8197 118.413 77.5469 120.144 77.5469C122.683 77.5469 124.682 78.0878 126.14 79.1694C127.607 80.2511 128.515 81.7137 128.863 83.5572ZM132.745 99.5V77.8291H137.698V81.4409H137.923C138.318 80.1899 138.996 79.2258 139.955 78.5486C140.924 77.862 142.029 77.5187 143.27 77.5187C143.553 77.5187 143.868 77.5328 144.216 77.561C144.573 77.5798 144.869 77.6128 145.105 77.6598V82.358C144.888 82.2827 144.545 82.2169 144.075 82.1605C143.614 82.0946 143.167 82.0617 142.734 82.0617C141.803 82.0617 140.966 82.2639 140.223 82.6684C139.489 83.0634 138.911 83.6136 138.488 84.3191C138.064 85.0245 137.853 85.8381 137.853 86.7599V99.5H132.745ZM153.551 99.9374C152.178 99.9374 150.941 99.6928 149.841 99.2037C148.75 98.7052 147.884 97.9716 147.245 97.0028C146.614 96.034 146.299 94.8394 146.299 93.4192C146.299 92.1964 146.525 91.1853 146.977 90.3858C147.428 89.5863 148.044 88.9467 148.825 88.467C149.605 87.9873 150.485 87.6252 151.463 87.3807C152.451 87.1267 153.471 86.9433 154.525 86.8304C155.794 86.6987 156.824 86.5812 157.614 86.4777C158.405 86.3648 158.978 86.1955 159.336 85.9698C159.703 85.7346 159.886 85.3725 159.886 84.8834V84.7988C159.886 83.7359 159.571 82.9129 158.941 82.3298C158.311 81.7466 157.403 81.455 156.218 81.455C154.967 81.455 153.974 81.7278 153.241 82.2733C152.517 82.8189 152.027 83.4632 151.774 84.2062L147.005 83.529C147.381 82.2122 148.002 81.1117 148.867 80.2276C149.732 79.334 150.791 78.6662 152.042 78.2241C153.293 77.7727 154.675 77.5469 156.19 77.5469C157.234 77.5469 158.273 77.6692 159.308 77.9137C160.342 78.1583 161.287 78.5627 162.143 79.1271C162.999 79.682 163.686 80.4392 164.203 81.3986C164.73 82.358 164.993 83.5572 164.993 84.9963V99.5H160.084V96.5231H159.914C159.604 97.125 159.166 97.6894 158.602 98.2161C158.047 98.7334 157.346 99.152 156.5 99.4718C155.663 99.7822 154.68 99.9374 153.551 99.9374ZM154.877 96.1845C155.903 96.1845 156.791 95.9822 157.544 95.5778C158.296 95.1639 158.875 94.6184 159.279 93.9412C159.693 93.264 159.9 92.5256 159.9 91.7261V89.1725C159.74 89.3041 159.467 89.4264 159.082 89.5393C158.706 89.6522 158.282 89.7509 157.812 89.8356C157.342 89.9202 156.876 89.9955 156.415 90.0613C155.954 90.1271 155.555 90.1836 155.216 90.2306C154.454 90.3341 153.772 90.5034 153.17 90.7385C152.568 90.9737 152.093 91.3029 151.745 91.7261C151.397 92.14 151.223 92.6761 151.223 93.3345C151.223 94.2751 151.567 94.9852 152.253 95.4649C152.94 95.9446 153.815 96.1845 154.877 96.1845ZM178.928 99.9233C176.755 99.9233 174.879 99.4718 173.299 98.5688C171.728 97.6565 170.519 96.3679 169.673 94.7031C168.826 93.0288 168.403 91.0583 168.403 88.7915C168.403 86.5624 168.826 84.606 169.673 82.9223C170.529 81.2293 171.723 79.9125 173.256 78.9719C174.79 78.0219 176.591 77.5469 178.66 77.5469C179.996 77.5469 181.256 77.7633 182.441 78.1959C183.636 78.6192 184.689 79.2776 185.602 80.1711C186.523 81.0647 187.248 82.2028 187.774 83.5854C188.301 84.9587 188.564 86.5953 188.564 88.4952V90.0613H170.802V86.6188H183.669C183.659 85.6406 183.448 84.7706 183.034 84.0087C182.62 83.2374 182.041 82.6307 181.298 82.1887C180.565 81.7466 179.709 81.5256 178.731 81.5256C177.687 81.5256 176.77 81.7795 175.979 82.2874C175.189 82.7859 174.573 83.4443 174.131 84.2626C173.699 85.0715 173.478 85.9604 173.468 86.9292V89.9343C173.468 91.1947 173.699 92.2764 174.159 93.1793C174.62 94.0729 175.265 94.7595 176.092 95.2392C176.92 95.7095 177.889 95.9446 178.999 95.9446C179.742 95.9446 180.414 95.8412 181.016 95.6342C181.618 95.4179 182.14 95.1028 182.582 94.6889C183.024 94.2751 183.358 93.7625 183.584 93.1511L188.353 93.6872C188.052 94.9476 187.478 96.0481 186.632 96.9887C185.794 97.9198 184.722 98.6441 183.415 99.1614C182.107 99.6693 180.612 99.9233 178.928 99.9233ZM197.198 70.6055V99.5H192.091V70.6055H197.198ZM201.655 99.5V77.8291H206.763V99.5H201.655ZM204.223 74.7534C203.414 74.7534 202.718 74.4853 202.135 73.9492C201.552 73.4037 201.26 72.75 201.26 71.9881C201.26 71.2168 201.552 70.5631 202.135 70.027C202.718 69.4815 203.414 69.2087 204.223 69.2087C205.041 69.2087 205.737 69.4815 206.311 70.027C206.894 70.5631 207.186 71.2168 207.186 71.9881C207.186 72.75 206.894 73.4037 206.311 73.9492C205.737 74.4853 205.041 74.7534 204.223 74.7534ZM230.297 99.5H220.506V70.6055H230.495C233.364 70.6055 235.828 71.1839 237.888 72.3408C239.957 73.4883 241.547 75.139 242.657 77.293C243.766 79.4469 244.321 82.0241 244.321 85.0245C244.321 88.0344 243.762 90.6209 242.642 92.7843C241.533 94.9476 239.929 96.6077 237.831 97.7646C235.743 98.9215 233.232 99.5 230.297 99.5ZM225.74 94.9711H230.043C232.056 94.9711 233.735 94.6043 235.08 93.8706C236.425 93.1276 237.436 92.0224 238.114 90.5551C238.791 89.0784 239.129 87.2349 239.129 85.0245C239.129 82.8142 238.791 80.98 238.114 79.5221C237.436 78.0548 236.435 76.9591 235.108 76.2348C233.792 75.5012 232.155 75.1343 230.199 75.1343H225.74V94.9711ZM257.727 99.9233C255.611 99.9233 253.777 99.4577 252.225 98.5265C250.673 97.5953 249.469 96.2926 248.613 94.6184C247.766 92.9442 247.343 90.9878 247.343 88.7492C247.343 86.5106 247.766 84.5495 248.613 82.8659C249.469 81.1822 250.673 79.8748 252.225 78.9437C253.777 78.0125 255.611 77.5469 257.727 77.5469C259.843 77.5469 261.678 78.0125 263.23 78.9437C264.782 79.8748 265.981 81.1822 266.827 82.8659C267.683 84.5495 268.111 86.5106 268.111 88.7492C268.111 90.9878 267.683 92.9442 266.827 94.6184C265.981 96.2926 264.782 97.5953 263.23 98.5265C261.678 99.4577 259.843 99.9233 257.727 99.9233ZM257.755 95.8317C258.903 95.8317 259.862 95.5167 260.634 94.8865C261.405 94.2469 261.979 93.3909 262.355 92.3187C262.74 91.2464 262.933 90.0519 262.933 88.7351C262.933 87.4089 262.74 86.2096 262.355 85.1374C261.979 84.0557 261.405 83.1951 260.634 82.5555C259.862 81.9159 258.903 81.5961 257.755 81.5961C256.58 81.5961 255.601 81.9159 254.821 82.5555C254.05 83.1951 253.471 84.0557 253.085 85.1374C252.709 86.2096 252.521 87.4089 252.521 88.7351C252.521 90.0519 252.709 91.2464 253.085 92.3187C253.471 93.3909 254.05 94.2469 254.821 94.8865C255.601 95.5167 256.58 95.8317 257.755 95.8317ZM281.104 99.9233C278.941 99.9233 277.083 99.4483 275.531 98.4983C273.989 97.5483 272.799 96.2362 271.962 94.562C271.134 92.8783 270.72 90.9407 270.72 88.7492C270.72 86.5482 271.144 84.606 271.99 82.9223C272.837 81.2293 274.031 79.9125 275.574 78.9719C277.126 78.0219 278.96 77.5469 281.076 77.5469C282.835 77.5469 284.392 77.8714 285.746 78.5204C287.11 79.16 288.196 80.0677 289.005 81.2434C289.814 82.4097 290.275 83.7735 290.388 85.3349H285.506C285.309 84.2909 284.838 83.4208 284.095 82.7248C283.362 82.0194 282.379 81.6666 281.147 81.6666C280.103 81.6666 279.185 81.9488 278.395 82.5132C277.605 83.0681 276.989 83.8676 276.547 84.9116C276.114 85.9557 275.898 87.2066 275.898 88.6645C275.898 90.1413 276.114 91.411 276.547 92.4739C276.98 93.5273 277.586 94.3409 278.367 94.9147C279.157 95.479 280.084 95.7612 281.147 95.7612C281.899 95.7612 282.572 95.6201 283.164 95.3379C283.766 95.0464 284.269 94.6278 284.674 94.0823C285.078 93.5367 285.356 92.8736 285.506 92.093H290.388C290.265 93.6261 289.814 94.9852 289.033 96.1704C288.253 97.3461 287.19 98.2678 285.845 98.9357C284.5 99.5941 282.92 99.9233 281.104 99.9233ZM307.599 90.3858V77.8291H312.707V99.5H307.755V95.6483H307.529C307.04 96.8617 306.235 97.854 305.116 98.6253C304.006 99.3965 302.638 99.7822 301.011 99.7822C299.59 99.7822 298.335 99.4671 297.244 98.8369C296.162 98.1973 295.315 97.2708 294.704 96.0575C294.093 94.8347 293.787 93.358 293.787 91.6274V77.8291H298.894V90.8373C298.894 92.2105 299.271 93.3016 300.023 94.1105C300.775 94.9194 301.763 95.3238 302.986 95.3238C303.738 95.3238 304.467 95.1404 305.173 94.7736C305.878 94.4068 306.457 93.8612 306.908 93.137C307.369 92.4033 307.599 91.4863 307.599 90.3858ZM317.164 99.5V77.8291H322.046V81.5115H322.3C322.751 80.2699 323.499 79.3011 324.543 78.6051C325.587 77.8996 326.833 77.5469 328.282 77.5469C329.749 77.5469 330.986 77.9043 331.992 78.6192C333.008 79.3246 333.723 80.2887 334.137 81.5115H334.362C334.842 80.3075 335.651 79.3481 336.789 78.6333C337.937 77.909 339.296 77.5469 340.867 77.5469C342.861 77.5469 344.488 78.1771 345.748 79.4375C347.009 80.6979 347.639 82.5367 347.639 84.954V99.5H342.517V85.7441C342.517 84.399 342.16 83.4161 341.445 82.7953C340.73 82.1652 339.855 81.8501 338.821 81.8501C337.589 81.8501 336.625 82.2357 335.929 83.007C335.242 83.7688 334.899 84.7611 334.899 85.9839V99.5H329.89V85.5324C329.89 84.4131 329.551 83.5196 328.874 82.8518C328.206 82.184 327.332 81.8501 326.25 81.8501C325.516 81.8501 324.849 82.0382 324.247 82.4144C323.645 82.7812 323.165 83.3033 322.807 83.9805C322.45 84.6483 322.271 85.429 322.271 86.3225V99.5H317.164ZM361.619 99.9233C359.447 99.9233 357.57 99.4718 355.99 98.5688C354.419 97.6565 353.211 96.3679 352.364 94.7031C351.518 93.0288 351.094 91.0583 351.094 88.7915C351.094 86.5624 351.518 84.606 352.364 82.9223C353.22 81.2293 354.415 79.9125 355.948 78.9719C357.481 78.0219 359.282 77.5469 361.351 77.5469C362.687 77.5469 363.947 77.7633 365.132 78.1959C366.327 78.6192 367.38 79.2776 368.293 80.1711C369.215 81.0647 369.939 82.2028 370.466 83.5854C370.992 84.9587 371.256 86.5953 371.256 88.4952V90.0613H353.493V86.6188H366.36C366.351 85.6406 366.139 84.7706 365.725 84.0087C365.311 83.2374 364.733 82.6307 363.99 82.1887C363.256 81.7466 362.4 81.5256 361.422 81.5256C360.378 81.5256 359.461 81.7795 358.671 82.2874C357.881 82.7859 357.265 83.4443 356.822 84.2626C356.39 85.0715 356.169 85.9604 356.159 86.9292V89.9343C356.159 91.1947 356.39 92.2764 356.851 93.1793C357.312 94.0729 357.956 94.7595 358.784 95.2392C359.611 95.7095 360.58 95.9446 361.69 95.9446C362.433 95.9446 363.106 95.8412 363.708 95.6342C364.309 95.4179 364.832 95.1028 365.274 94.6889C365.716 94.2751 366.05 93.7625 366.275 93.1511L371.044 93.6872C370.743 94.9476 370.169 96.0481 369.323 96.9887C368.486 97.9198 367.413 98.6441 366.106 99.1614C364.799 99.6693 363.303 99.9233 361.619 99.9233ZM379.889 86.8022V99.5H374.782V77.8291H379.663V81.5115H379.917C380.416 80.2981 381.211 79.334 382.302 78.6192C383.402 77.9043 384.761 77.5469 386.379 77.5469C387.875 77.5469 389.177 77.8667 390.287 78.5063C391.407 79.1459 392.272 80.0724 392.883 81.2857C393.504 82.4991 393.81 83.9711 393.8 85.7017V99.5H388.693V86.4918C388.693 85.0433 388.317 83.9099 387.564 83.0916C386.821 82.2733 385.791 81.8642 384.474 81.8642C383.581 81.8642 382.786 82.0617 382.09 82.4567C381.403 82.8424 380.863 83.402 380.468 84.1357C380.082 84.8693 379.889 85.7582 379.889 86.8022ZM409.019 77.8291V81.7795H396.561V77.8291H409.019ZM399.637 72.6371H404.744V92.9818C404.744 93.6684 404.848 94.1951 405.055 94.562C405.271 94.9194 405.553 95.1639 405.901 95.2956C406.249 95.4273 406.635 95.4931 407.058 95.4931C407.378 95.4931 407.669 95.4696 407.933 95.4226C408.205 95.3756 408.412 95.3332 408.553 95.2956L409.414 99.2884C409.141 99.3824 408.751 99.4859 408.243 99.5988C407.745 99.7116 407.133 99.7775 406.409 99.7963C405.13 99.8339 403.978 99.6411 402.952 99.2178C401.927 98.7852 401.113 98.1174 400.512 97.2144C399.919 96.3114 399.627 95.1827 399.637 93.8283V72.6371ZM418.732 99.9374C417.359 99.9374 416.122 99.6928 415.021 99.2037C413.93 98.7052 413.065 97.9716 412.425 97.0028C411.795 96.034 411.48 94.8394 411.48 93.4192C411.48 92.1964 411.706 91.1853 412.157 90.3858C412.609 89.5863 413.225 88.9467 414.005 88.467C414.786 87.9873 415.666 87.6252 416.644 87.3807C417.631 87.1267 418.652 86.9433 419.705 86.8304C420.975 86.6987 422.005 86.5812 422.795 86.4777C423.585 86.3648 424.159 86.1955 424.516 85.9698C424.883 85.7346 425.067 85.3725 425.067 84.8834V84.7988C425.067 83.7359 424.752 82.9129 424.121 82.3298C423.491 81.7466 422.584 81.455 421.398 81.455C420.147 81.455 419.155 81.7278 418.421 82.2733C417.697 82.8189 417.208 83.4632 416.954 84.2062L412.185 83.529C412.562 82.2122 413.182 81.1117 414.048 80.2276C414.913 79.334 415.971 78.6662 417.222 78.2241C418.473 77.7727 419.856 77.5469 421.37 77.5469C422.414 77.5469 423.454 77.6692 424.488 77.9137C425.523 78.1583 426.468 78.5627 427.324 79.1271C428.18 79.682 428.867 80.4392 429.384 81.3986C429.911 82.358 430.174 83.5572 430.174 84.9963V99.5H425.264V96.5231H425.095C424.785 97.125 424.347 97.6894 423.783 98.2161C423.228 98.7334 422.527 99.152 421.681 99.4718C420.843 99.7822 419.861 99.9374 418.732 99.9374ZM420.058 96.1845C421.083 96.1845 421.972 95.9822 422.725 95.5778C423.477 95.1639 424.056 94.6184 424.46 93.9412C424.874 93.264 425.081 92.5256 425.081 91.7261V89.1725C424.921 89.3041 424.648 89.4264 424.262 89.5393C423.886 89.6522 423.463 89.7509 422.993 89.8356C422.522 89.9202 422.057 89.9955 421.596 90.0613C421.135 90.1271 420.735 90.1836 420.397 90.2306C419.635 90.3341 418.953 90.5034 418.351 90.7385C417.749 90.9737 417.274 91.3029 416.926 91.7261C416.578 92.14 416.404 92.6761 416.404 93.3345C416.404 94.2751 416.747 94.9852 417.434 95.4649C418.121 95.9446 418.995 96.1845 420.058 96.1845ZM434.515 99.5V77.8291H439.467V81.4409H439.693C440.088 80.1899 440.765 79.2258 441.724 78.5486C442.693 77.862 443.798 77.5187 445.04 77.5187C445.322 77.5187 445.637 77.5328 445.985 77.561C446.343 77.5798 446.639 77.6128 446.874 77.6598V82.358C446.658 82.2827 446.315 82.2169 445.844 82.1605C445.383 82.0946 444.937 82.0617 444.504 82.0617C443.573 82.0617 442.736 82.2639 441.993 82.6684C441.259 83.0634 440.68 83.6136 440.257 84.3191C439.834 85.0245 439.622 85.8381 439.622 86.7599V99.5H434.515ZM453.307 107.627C452.611 107.627 451.966 107.57 451.374 107.457C450.791 107.354 450.325 107.232 449.977 107.09L451.162 103.112C451.905 103.328 452.568 103.432 453.152 103.422C453.735 103.413 454.247 103.229 454.689 102.872C455.141 102.524 455.522 101.941 455.832 101.122L456.27 99.9515L448.411 77.8291H453.829L458.823 94.1951H459.049L464.058 77.8291H469.489L460.813 102.124C460.408 103.272 459.872 104.255 459.204 105.073C458.536 105.901 457.718 106.531 456.749 106.963C455.79 107.406 454.642 107.627 453.307 107.627ZM174.875 147.5V118.605H193.386V122.993H180.11V130.838H192.116V135.225H180.11V147.5H174.875ZM197.134 147.5V125.829H202.242V147.5H197.134ZM199.702 122.753C198.893 122.753 198.197 122.485 197.614 121.949C197.031 121.404 196.739 120.75 196.739 119.988C196.739 119.217 197.031 118.563 197.614 118.027C198.197 117.481 198.893 117.209 199.702 117.209C200.52 117.209 201.217 117.481 201.79 118.027C202.373 118.563 202.665 119.217 202.665 119.988C202.665 120.75 202.373 121.404 201.79 121.949C201.217 122.485 200.52 122.753 199.702 122.753ZM211.806 118.605V147.5H206.699V118.605H211.806ZM216.264 147.5V125.829H221.145V129.511H221.399C221.851 128.27 222.599 127.301 223.643 126.605C224.687 125.9 225.933 125.547 227.381 125.547C228.849 125.547 230.086 125.904 231.092 126.619C232.108 127.325 232.823 128.289 233.237 129.511H233.462C233.942 128.308 234.751 127.348 235.889 126.633C237.036 125.909 238.396 125.547 239.966 125.547C241.96 125.547 243.588 126.177 244.848 127.437C246.108 128.698 246.739 130.537 246.739 132.954V147.5H241.617V133.744C241.617 132.399 241.26 131.416 240.545 130.795C239.83 130.165 238.955 129.85 237.921 129.85C236.688 129.85 235.724 130.236 235.028 131.007C234.342 131.769 233.998 132.761 233.998 133.984V147.5H228.99V133.532C228.99 132.413 228.651 131.52 227.974 130.852C227.306 130.184 226.431 129.85 225.35 129.85C224.616 129.85 223.948 130.038 223.346 130.414C222.744 130.781 222.265 131.303 221.907 131.98C221.55 132.648 221.371 133.429 221.371 134.323V147.5H216.264ZM264.122 147.5H258.535L268.707 118.605H275.169L285.355 147.5H279.768L272.051 124.531H271.825L264.122 147.5ZM264.305 136.171H279.543V140.375H264.305V136.171ZM289.897 147.5L283.774 125.829H288.98L292.79 141.066H292.987L296.881 125.829H302.031L305.925 140.982H306.137L309.889 125.829H315.11L308.972 147.5H303.653L299.59 132.855H299.294L295.231 147.5H289.897ZM324.117 147.937C322.744 147.937 321.507 147.693 320.406 147.204C319.315 146.705 318.45 145.972 317.81 145.003C317.18 144.034 316.865 142.839 316.865 141.419C316.865 140.196 317.091 139.185 317.542 138.386C317.994 137.586 318.61 136.947 319.391 136.467C320.171 135.987 321.051 135.625 322.029 135.381C323.017 135.127 324.037 134.943 325.091 134.83C326.36 134.699 327.39 134.581 328.18 134.478C328.97 134.365 329.544 134.196 329.902 133.97C330.268 133.735 330.452 133.373 330.452 132.883V132.799C330.452 131.736 330.137 130.913 329.507 130.33C328.876 129.747 327.969 129.455 326.784 129.455C325.533 129.455 324.54 129.728 323.807 130.273C323.082 130.819 322.593 131.463 322.339 132.206L317.571 131.529C317.947 130.212 318.568 129.112 319.433 128.228C320.298 127.334 321.356 126.666 322.607 126.224C323.858 125.773 325.241 125.547 326.755 125.547C327.799 125.547 328.839 125.669 329.873 125.914C330.908 126.158 331.853 126.563 332.709 127.127C333.565 127.682 334.252 128.439 334.769 129.399C335.296 130.358 335.559 131.557 335.559 132.996V147.5H330.649V144.523H330.48C330.17 145.125 329.732 145.689 329.168 146.216C328.613 146.733 327.912 147.152 327.066 147.472C326.229 147.782 325.246 147.937 324.117 147.937ZM325.443 144.184C326.468 144.184 327.357 143.982 328.11 143.578C328.862 143.164 329.441 142.618 329.845 141.941C330.259 141.264 330.466 140.526 330.466 139.726V137.172C330.306 137.304 330.033 137.426 329.648 137.539C329.271 137.652 328.848 137.751 328.378 137.836C327.908 137.92 327.442 137.995 326.981 138.061C326.52 138.127 326.12 138.184 325.782 138.231C325.02 138.334 324.338 138.503 323.736 138.739C323.134 138.974 322.659 139.303 322.311 139.726C321.963 140.14 321.789 140.676 321.789 141.335C321.789 142.275 322.132 142.985 322.819 143.465C323.506 143.945 324.38 144.184 325.443 144.184ZM339.9 147.5V125.829H344.852V129.441H345.078C345.473 128.19 346.15 127.226 347.11 126.549C348.078 125.862 349.184 125.519 350.425 125.519C350.707 125.519 351.022 125.533 351.37 125.561C351.728 125.58 352.024 125.613 352.259 125.66V130.358C352.043 130.283 351.7 130.217 351.229 130.16C350.768 130.095 350.322 130.062 349.889 130.062C348.958 130.062 348.121 130.264 347.378 130.668C346.644 131.063 346.066 131.614 345.642 132.319C345.219 133.025 345.007 133.838 345.007 134.76V147.5H339.9ZM362.007 147.881C360.305 147.881 358.781 147.444 357.436 146.569C356.091 145.694 355.028 144.424 354.248 142.759C353.467 141.095 353.077 139.072 353.077 136.693C353.077 134.285 353.472 132.253 354.262 130.598C355.061 128.933 356.138 127.677 357.493 126.831C358.847 125.975 360.357 125.547 362.022 125.547C363.291 125.547 364.335 125.763 365.154 126.196C365.972 126.619 366.621 127.132 367.101 127.734C367.58 128.326 367.952 128.886 368.215 129.413H368.427V118.605H373.548V147.5H368.526V144.086H368.215C367.952 144.612 367.571 145.172 367.072 145.765C366.574 146.348 365.916 146.846 365.097 147.26C364.279 147.674 363.249 147.881 362.007 147.881ZM363.432 143.691C364.514 143.691 365.436 143.399 366.198 142.816C366.96 142.223 367.538 141.4 367.933 140.347C368.328 139.293 368.526 138.066 368.526 136.665C368.526 135.263 368.328 134.045 367.933 133.01C367.547 131.976 366.974 131.172 366.212 130.598C365.459 130.024 364.533 129.737 363.432 129.737C362.294 129.737 361.344 130.033 360.582 130.626C359.821 131.219 359.247 132.037 358.861 133.081C358.476 134.125 358.283 135.32 358.283 136.665C358.283 138.019 358.476 139.228 358.861 140.29C359.256 141.344 359.835 142.176 360.597 142.788C361.368 143.39 362.313 143.691 363.432 143.691ZM395.324 131.557L390.668 132.065C390.536 131.595 390.306 131.153 389.977 130.739C389.657 130.325 389.224 129.991 388.679 129.737C388.133 129.483 387.466 129.356 386.675 129.356C385.613 129.356 384.719 129.587 383.995 130.048C383.28 130.508 382.927 131.106 382.937 131.839C382.927 132.47 383.158 132.982 383.628 133.377C384.108 133.772 384.898 134.097 385.998 134.351L389.695 135.141C391.745 135.583 393.269 136.284 394.266 137.243C395.272 138.202 395.78 139.458 395.79 141.01C395.78 142.374 395.38 143.578 394.59 144.622C393.81 145.656 392.723 146.465 391.331 147.049C389.939 147.632 388.34 147.923 386.534 147.923C383.882 147.923 381.747 147.368 380.129 146.258C378.511 145.139 377.547 143.582 377.237 141.588L382.217 141.109C382.443 142.087 382.923 142.825 383.656 143.324C384.39 143.822 385.345 144.072 386.52 144.072C387.734 144.072 388.707 143.822 389.441 143.324C390.184 142.825 390.555 142.209 390.555 141.476C390.555 140.855 390.315 140.342 389.836 139.938C389.365 139.533 388.632 139.223 387.635 139.007L383.938 138.231C381.86 137.798 380.322 137.069 379.325 136.044C378.328 135.009 377.834 133.702 377.843 132.122C377.834 130.786 378.196 129.629 378.93 128.651C379.673 127.663 380.703 126.901 382.02 126.365C383.346 125.82 384.874 125.547 386.605 125.547C389.144 125.547 391.143 126.088 392.601 127.169C394.068 128.251 394.976 129.714 395.324 131.557Z" fill="white"/>
<path d="M260.333 181.5V180.105L265.57 174.372C266.185 173.7 266.691 173.117 267.089 172.621C267.487 172.12 267.781 171.65 267.972 171.211C268.169 170.767 268.267 170.302 268.267 169.816C268.267 169.258 268.132 168.775 267.864 168.367C267.6 167.959 267.239 167.644 266.779 167.422C266.319 167.2 265.803 167.089 265.229 167.089C264.62 167.089 264.088 167.215 263.633 167.468C263.184 167.716 262.835 168.065 262.587 168.514C262.345 168.964 262.223 169.491 262.223 170.095H260.395C260.395 169.165 260.609 168.349 261.038 167.647C261.467 166.944 262.05 166.397 262.789 166.004C263.533 165.612 264.367 165.415 265.291 165.415C266.221 165.415 267.045 165.612 267.763 166.004C268.481 166.397 269.044 166.926 269.452 167.592C269.86 168.259 270.064 169 270.064 169.816C270.064 170.4 269.958 170.971 269.747 171.528C269.54 172.081 269.178 172.698 268.662 173.38C268.15 174.057 267.44 174.883 266.531 175.86L262.967 179.671V179.795H270.343V181.5H260.333ZM278.282 181.717C277.115 181.717 276.121 181.399 275.299 180.764C274.478 180.123 273.85 179.196 273.417 177.982C272.983 176.763 272.766 175.291 272.766 173.566C272.766 171.851 272.983 170.387 273.417 169.173C273.856 167.954 274.486 167.024 275.307 166.384C276.134 165.738 277.125 165.415 278.282 165.415C279.439 165.415 280.428 165.738 281.25 166.384C282.076 167.024 282.706 167.954 283.14 169.173C283.579 170.387 283.799 171.851 283.799 173.566C283.799 175.291 283.582 176.763 283.148 177.982C282.714 179.196 282.087 180.123 281.265 180.764C280.444 181.399 279.45 181.717 278.282 181.717ZM278.282 180.012C279.439 180.012 280.338 179.455 280.979 178.339C281.619 177.223 281.939 175.632 281.939 173.566C281.939 172.192 281.792 171.022 281.498 170.056C281.208 169.09 280.79 168.354 280.243 167.848C279.7 167.342 279.047 167.089 278.282 167.089C277.136 167.089 276.239 167.654 275.594 168.786C274.948 169.912 274.625 171.505 274.625 173.566C274.625 174.94 274.77 176.107 275.059 177.068C275.348 178.029 275.764 178.76 276.307 179.261C276.854 179.762 277.513 180.012 278.282 180.012ZM286.307 181.5V180.105L291.544 174.372C292.159 173.7 292.665 173.117 293.063 172.621C293.461 172.12 293.755 171.65 293.946 171.211C294.142 170.767 294.241 170.302 294.241 169.816C294.241 169.258 294.106 168.775 293.838 168.367C293.574 167.959 293.213 167.644 292.753 167.422C292.293 167.2 291.777 167.089 291.203 167.089C290.594 167.089 290.062 167.215 289.607 167.468C289.158 167.716 288.809 168.065 288.561 168.514C288.319 168.964 288.197 169.491 288.197 170.095H286.369C286.369 169.165 286.583 168.349 287.012 167.647C287.44 166.944 288.024 166.397 288.763 166.004C289.507 165.612 290.341 165.415 291.265 165.415C292.195 165.415 293.019 165.612 293.737 166.004C294.455 166.397 295.018 166.926 295.426 167.592C295.834 168.259 296.038 169 296.038 169.816C296.038 170.4 295.932 170.971 295.72 171.528C295.514 172.081 295.152 172.698 294.636 173.38C294.124 174.057 293.414 174.883 292.505 175.86L288.941 179.671V179.795H296.317V181.5H286.307ZM304.039 181.717C303.13 181.717 302.311 181.536 301.583 181.175C300.855 180.813 300.271 180.317 299.832 179.687C299.393 179.057 299.153 178.339 299.112 177.533H300.971C301.043 178.251 301.369 178.845 301.947 179.315C302.531 179.78 303.228 180.012 304.039 180.012C304.69 180.012 305.269 179.86 305.775 179.555C306.286 179.251 306.686 178.832 306.976 178.3C307.27 177.763 307.417 177.156 307.417 176.479C307.417 175.787 307.265 175.17 306.96 174.628C306.661 174.08 306.247 173.649 305.721 173.334C305.194 173.019 304.592 172.858 303.915 172.853C303.43 172.848 302.931 172.923 302.42 173.078C301.909 173.228 301.488 173.421 301.157 173.659L299.359 173.442L300.32 165.632H308.564V167.337H301.932L301.374 172.017H301.467C301.792 171.758 302.2 171.544 302.691 171.373C303.182 171.203 303.693 171.118 304.225 171.118C305.196 171.118 306.061 171.35 306.821 171.815C307.585 172.275 308.184 172.905 308.618 173.706C309.057 174.506 309.277 175.42 309.277 176.448C309.277 177.461 309.05 178.365 308.595 179.16C308.146 179.95 307.526 180.575 306.735 181.035C305.945 181.49 305.046 181.717 304.039 181.717Z" fill="white"/>
<path d="M521.838 73.6038C524.208 77.1463 526.484 81.5164 525.365 86.1997C521.504 83.9897 518.398 80.3814 515.935 76.8193C513.455 73.2333 510.88 69.42 509.998 65C514.868 66.2457 519.228 69.7037 521.838 73.6038Z" fill="white"/>
<path d="M528.756 95.1908C527.38 91.4902 524.37 88.2635 521.094 86.7585C518.052 85.3629 514.012 83.9064 510.462 85.6948C512.394 89.0871 515.575 91.9415 518.824 93.7369C521.745 95.3511 525.445 97.3068 529.107 96.4662C533.098 95.8549 535.027 91.8818 536.1 88.8763C537.585 84.723 536.57 79.1764 534.035 75.1016C530.54 76.5581 529.474 80.8794 528.744 83.9369C527.911 87.4172 527.888 91.4796 528.756 95.1908Z" fill="white"/>
<path d="M525.887 100.538C528.701 102.545 530.861 106.215 531.325 109.982C531.365 106.207 532.392 102.31 534.041 99.1713C535.55 96.2995 537.655 92.4182 541.4 91.6445C542.871 96.1159 542.395 101.585 540.016 105.204C538.217 107.946 535.431 111.38 531.377 111.288C527.677 111.477 524.482 108.95 521.968 106.841C519.263 104.573 516.823 101.257 515.797 97.6733C519.574 96.5764 523.19 98.6157 525.887 100.538Z" fill="white"/>
<path d="M530.374 124.805C530.786 121.113 529.552 117.122 527.251 114.657C525.036 112.279 521.93 109.688 518.063 110.101C518.141 113.841 520.013 117.405 521.945 120.075C523.744 122.562 526.515 125.638 530.143 126.081C533.915 126.72 537.597 124.411 539.99 121.694C543.067 118.199 544.901 113.507 544.535 108.808C540.659 108.904 537.724 112.249 535.553 114.779C533.211 117.508 531.293 121.099 530.374 124.805Z" fill="white"/>
<path d="M524.882 128.165C526.716 131.811 527.065 136.148 525.65 139.966C527.737 136.037 530.791 132.86 534.024 129.924C536.962 127.256 541.195 124.446 545.454 124.978C544.641 130.245 541.42 135.707 537.1 138.514C533.628 140.769 529.421 143.002 525.001 141.316C521.364 140.033 519.055 136.371 517.636 133.01C516.134 129.454 515.133 125.355 515.834 121.465C519.822 121.822 523.129 124.679 524.882 128.165Z" fill="white"/>
<path d="M517.175 154.019C519.482 150.506 520.287 146.11 519.344 141.983C518.45 138.074 515.731 134.504 511.766 133.394C510.113 137.16 510.085 141.541 510.684 145.514C511.244 149.19 512.611 153.479 516.007 155.53C520.203 158.191 525.102 156.617 529.125 155.025C534.315 152.972 539.001 148.004 541.193 142.665C536.657 141.227 532.02 143.599 528.24 145.566C524.33 147.601 520.246 150.503 517.175 154.019Z" fill="white"/>
<path d="M499.827 156.913C499.322 160.746 499.331 165.609 502.307 168.563C506.021 172.373 511.779 171.642 516.22 170.808C522.183 169.687 528.896 165.625 532.498 160.215C528.109 157.794 522.734 159.336 518.386 160.585L518.135 160.657C513.282 162.049 508.109 164.294 503.78 167.362C507.235 164.245 509.752 159.671 509.879 155.057C509.994 150.93 508.207 146.513 504.354 144.542C501.658 148.073 500.395 152.608 499.827 156.913Z" fill="white"/>
<path d="M496.497 184.994C491.733 184.893 485.196 184.325 482.531 179.403L482.494 179.336C480.366 175.176 482.529 170.313 484.253 166.715C486.303 162.437 489.103 158.078 493.106 154.949C496.947 158.263 496.575 163 495.43 167.116C494.066 172.011 489.354 176.181 484.475 178.555C490.124 176.453 496.292 175.194 502.16 174.825L502.757 174.787C507.472 174.484 513.608 174.089 517.36 177.541C511.676 182.364 503.608 185.144 496.497 184.994Z" fill="white"/>
</svg>
