<svg width="516" height="250" viewBox="0 0 516 250" fill="none" xmlns="http://www.w3.org/2000/svg">
<path d="M44.1277 86.1862C43.0118 81.5024 45.2914 77.1344 47.6659 73.5942C50.2797 69.6967 54.6408 66.2422 59.5114 65C58.6265 69.4188 56.0476 73.2303 53.5653 76.8138C51.0997 80.3739 47.99 83.9796 44.1277 86.1862Z" fill="white"/>
<path d="M40.7293 95.1706C41.6004 91.4614 41.5811 87.4007 40.7518 83.9216C40.0226 80.8641 38.9615 76.5419 35.4692 75.0835C32.9307 79.1554 31.9102 84.7004 33.3897 88.8554C34.4594 91.8607 36.3832 95.8343 40.373 96.4493C44.034 97.2933 47.736 95.3404 50.6597 93.728C53.9107 91.9354 57.0951 89.0835 59.0299 85.6929C55.4807 83.9014 51.4388 85.3552 48.398 86.7485C45.1202 88.2504 42.109 91.4729 40.7293 95.1706Z" fill="white"/>
<path d="M29.4561 105.18C31.2565 107.926 34.0424 111.367 38.1045 111.269C41.7984 111.453 44.9898 108.933 47.5029 106.829C50.2095 104.562 52.6526 101.249 53.684 97.666C49.9059 96.5668 46.2887 98.6031 43.5913 100.524C40.7746 102.53 38.6083 106.201 38.1429 109.97C38.108 106.194 37.0858 102.294 35.438 99.1515C33.9314 96.2791 31.832 92.3963 28.0865 91.6201C26.6108 96.0896 27.0817 101.558 29.4561 105.18Z" fill="white"/>
<path d="M39.3056 126.063C35.5356 126.694 31.8582 124.385 29.4699 121.668C26.395 118.169 24.5655 113.477 24.9386 108.779C28.8116 108.877 31.7448 112.225 33.9129 114.757C36.2478 117.483 38.1609 121.07 39.0787 124.771C38.675 121.083 39.9132 117.101 42.2115 114.64C44.43 112.265 47.5377 109.676 51.4043 110.092C51.321 113.831 49.4465 117.394 47.5132 120.062C45.7111 122.549 42.9349 125.624 39.3056 126.063Z" fill="white"/>
<path d="M32.3419 138.488C35.8141 140.749 40.0252 142.986 44.4509 141.293C48.0817 140.008 50.3901 136.354 51.8099 132.999C53.3139 129.445 54.3184 125.346 53.623 121.456C49.6332 121.81 46.3249 124.665 44.5677 128.149C42.7307 131.792 42.3784 136.128 43.7895 139.947C41.7045 136.018 38.6554 132.839 35.4254 129.901C32.4892 127.231 28.2599 124.418 24 124.947C24.8105 130.214 28.0243 135.677 32.3419 138.488Z" fill="white"/>
<path d="M53.3943 155.53C56.8111 153.488 58.1862 149.19 58.7482 145.507C59.354 141.535 59.328 137.155 57.6784 133.387C53.7144 134.494 50.9933 138.062 50.0949 141.97C49.1456 146.098 49.9466 150.499 52.2557 154.014C49.1863 150.493 45.1049 147.585 41.1936 145.546C37.4155 143.577 32.7804 141.202 28.2432 142.636C30.4311 147.976 35.1114 152.947 40.2986 155.004C44.3157 156.596 49.2027 158.171 53.3943 155.53Z" fill="white"/>
<path d="M69.5932 156.913C70.0946 160.746 70.0804 165.609 67.1039 168.56C63.3844 172.367 57.628 171.632 53.1882 170.795C47.2276 169.669 40.518 165.604 36.9219 160.191C41.3138 157.773 46.6853 159.32 51.0334 160.572L51.2817 160.643C56.1353 162.04 61.3075 164.289 65.6331 167.362C62.1811 164.243 59.666 159.664 59.5428 155.05C59.4321 150.922 61.2236 146.507 65.0786 144.54C67.77 148.072 69.0303 152.607 69.5932 156.913Z" fill="white"/>
<path d="M86.8678 179.415C89.0598 175.242 86.888 170.345 85.1574 166.726C83.1114 162.447 80.3159 158.086 76.3152 154.954C72.4737 158.265 72.839 163.002 73.9811 167.119C75.3392 172.014 80.0475 176.187 84.923 178.565C79.2765 176.459 73.1098 175.195 67.2427 174.822L66.6484 174.784C61.935 174.477 55.7989 174.077 52.043 177.526C57.7218 182.354 65.788 185.139 72.8973 184.995C77.6615 184.898 84.1981 184.334 86.8678 179.415Z" fill="white"/>
<path d="M117.407 54.5486C117.275 53.3165 116.72 52.3571 115.742 51.6705C114.773 50.9838 113.513 50.6405 111.961 50.6405C110.87 50.6405 109.934 50.8051 109.153 51.1343C108.373 51.4635 107.775 51.9103 107.362 52.4747C106.948 53.039 106.736 53.6833 106.727 54.4075C106.727 55.0095 106.863 55.5315 107.136 55.9736C107.418 56.4157 107.799 56.7919 108.279 57.1023C108.758 57.4033 109.29 57.6572 109.873 57.8642C110.456 58.0711 111.044 58.2451 111.637 58.3862L114.345 59.0634C115.436 59.3174 116.485 59.6607 117.492 60.0933C118.507 60.526 119.415 61.0715 120.215 61.7299C121.024 62.3883 121.663 63.1831 122.133 64.1143C122.604 65.0455 122.839 66.1365 122.839 67.3875C122.839 69.0806 122.406 70.5714 121.541 71.86C120.676 73.1392 119.425 74.1409 117.788 74.8651C116.161 75.5799 114.19 75.9374 111.876 75.9374C109.628 75.9374 107.677 75.5894 106.021 74.8933C104.375 74.1973 103.087 73.1815 102.156 71.8459C101.234 70.5102 100.735 68.883 100.66 66.9643H105.81C105.885 67.9707 106.195 68.8078 106.741 69.4756C107.286 70.1434 107.997 70.6419 108.871 70.9711C109.755 71.3003 110.743 71.4649 111.834 71.4649C112.972 71.4649 113.969 71.2956 114.825 70.957C115.69 70.609 116.368 70.1293 116.857 69.5179C117.346 68.8971 117.595 68.1729 117.605 67.3452C117.595 66.5927 117.374 65.9719 116.941 65.4828C116.509 64.9843 115.902 64.5705 115.121 64.2413C114.35 63.9027 113.447 63.6017 112.413 63.3383L109.125 62.4918C106.746 61.8804 104.864 60.954 103.482 59.7124C102.109 58.4614 101.422 56.8013 101.422 54.732C101.422 53.0296 101.883 51.5388 102.805 50.2596C103.736 48.9804 105.001 47.9881 106.6 47.2827C108.199 46.5678 110.009 46.2104 112.032 46.2104C114.082 46.2104 115.879 46.5678 117.421 47.2827C118.973 47.9881 120.191 48.971 121.075 50.2314C121.959 51.4823 122.416 52.9214 122.444 54.5486H117.407ZM129.956 75.5H124.369L134.541 46.6055H141.003L151.189 75.5H145.602L137.885 52.5311H137.659L129.956 75.5ZM130.139 64.1707H145.376V68.3751H130.139V64.1707ZM177.945 46.6055V75.5H173.289L159.675 55.8184H159.435V75.5H154.2V46.6055H158.885L172.485 66.3012H172.739V46.6055H177.945ZM191.914 75.5V46.6055H210.425V50.9933H197.149V58.8377H209.155V63.2255H197.149V75.5H191.914ZM214.399 75.5V46.6055H225.235C227.454 46.6055 229.317 46.9911 230.822 47.7624C232.336 48.5336 233.479 49.6153 234.25 51.0074C235.031 52.39 235.421 54.0031 235.421 55.8466C235.421 57.6996 235.026 59.308 234.236 60.6718C233.455 62.0262 232.303 63.075 230.779 63.818C229.256 64.5517 227.384 64.9185 225.164 64.9185H217.447V60.573H224.459C225.757 60.573 226.819 60.3943 227.647 60.0369C228.475 59.6701 229.086 59.1387 229.481 58.4426C229.886 57.7372 230.088 56.8719 230.088 55.8466C230.088 54.8214 229.886 53.9467 229.481 53.2224C229.077 52.4888 228.461 51.9338 227.633 51.5576C226.805 51.172 225.738 50.9791 224.43 50.9791H219.633V75.5H214.399ZM229.326 62.4072L236.479 75.5H230.638L223.612 62.4072H229.326ZM243.155 75.5H237.568L247.74 46.6055H254.202L264.389 75.5H258.802L251.084 52.5311H250.858L243.155 75.5ZM243.339 64.1707H258.576V68.3751H243.339V64.1707ZM291.145 46.6055V75.5H286.489L272.874 55.8184H272.634V75.5H267.4V46.6055H272.084L285.685 66.3012H285.939V46.6055H291.145ZM320.786 56.3545H315.509C315.359 55.4892 315.081 54.7226 314.677 54.0548C314.273 53.3776 313.769 52.8039 313.167 52.3336C312.565 51.8633 311.879 51.5106 311.108 51.2754C310.346 51.0309 309.523 50.9086 308.639 50.9086C307.068 50.9086 305.676 51.3036 304.462 52.0937C303.249 52.8744 302.299 54.0219 301.612 55.5362C300.926 57.0412 300.582 58.88 300.582 61.0527C300.582 63.2631 300.926 65.1254 301.612 66.6398C302.308 68.1447 303.258 69.2828 304.462 70.0541C305.676 70.8159 307.063 71.1969 308.624 71.1969C309.49 71.1969 310.299 71.084 311.051 70.8582C311.813 70.6231 312.495 70.2798 313.097 69.8283C313.708 69.3768 314.221 68.8219 314.635 68.1635C315.058 67.5051 315.35 66.7526 315.509 65.9061L320.786 65.9343C320.589 67.3076 320.161 68.5962 319.502 69.8001C318.853 71.004 318.002 72.0669 316.949 72.9887C315.895 73.901 314.663 74.6159 313.252 75.1332C311.841 75.6411 310.275 75.895 308.554 75.895C306.014 75.895 303.748 75.3072 301.753 74.1315C299.759 72.9557 298.189 71.258 297.041 69.0382C295.894 66.8185 295.32 64.1566 295.32 61.0527C295.32 57.9394 295.898 55.2776 297.055 53.0672C298.212 50.8475 299.788 49.1497 301.782 47.974C303.776 46.7983 306.033 46.2104 308.554 46.2104C310.162 46.2104 311.658 46.4361 313.04 46.8876C314.423 47.3391 315.655 48.0022 316.737 48.8769C317.819 49.7423 318.707 50.8051 319.403 52.0655C320.109 53.3165 320.57 54.7462 320.786 56.3545ZM330.019 46.6055V75.5H324.785V46.6055H330.019ZM350.596 54.5486C350.464 53.3165 349.909 52.3571 348.931 51.6705C347.962 50.9838 346.702 50.6405 345.15 50.6405C344.059 50.6405 343.123 50.8051 342.342 51.1343C341.561 51.4635 340.964 51.9103 340.55 52.4747C340.137 53.039 339.925 53.6833 339.915 54.4075C339.915 55.0095 340.052 55.5315 340.325 55.9736C340.607 56.4157 340.988 56.7919 341.467 57.1023C341.947 57.4033 342.479 57.6572 343.062 57.8642C343.645 58.0711 344.233 58.2451 344.825 58.3862L347.534 59.0634C348.625 59.3174 349.674 59.6607 350.68 60.0933C351.696 60.526 352.604 61.0715 353.403 61.7299C354.212 62.3883 354.852 63.1831 355.322 64.1143C355.792 65.0455 356.028 66.1365 356.028 67.3875C356.028 69.0806 355.595 70.5714 354.73 71.86C353.864 73.1392 352.613 74.1409 350.977 74.8651C349.349 75.5799 347.379 75.9374 345.065 75.9374C342.817 75.9374 340.865 75.5894 339.21 74.8933C337.564 74.1973 336.275 73.1815 335.344 71.8459C334.422 70.5102 333.924 68.883 333.849 66.9643H338.998C339.074 67.9707 339.384 68.8078 339.93 69.4756C340.475 70.1434 341.185 70.6419 342.06 70.9711C342.944 71.3003 343.932 71.4649 345.023 71.4649C346.161 71.4649 347.158 71.2956 348.014 70.957C348.879 70.609 349.556 70.1293 350.045 69.5179C350.535 68.8971 350.784 68.1729 350.793 67.3452C350.784 66.5927 350.563 65.9719 350.13 65.4828C349.697 64.9843 349.091 64.5705 348.31 64.2413C347.539 63.9027 346.636 63.6017 345.601 63.3383L342.314 62.4918C339.934 61.8804 338.053 60.954 336.67 59.7124C335.297 58.4614 334.611 56.8013 334.611 54.732C334.611 53.0296 335.071 51.5388 335.993 50.2596C336.924 48.9804 338.19 47.9881 339.788 47.2827C341.387 46.5678 343.198 46.2104 345.22 46.2104C347.271 46.2104 349.067 46.5678 350.61 47.2827C352.162 47.9881 353.38 48.971 354.264 50.2314C355.148 51.4823 355.604 52.9214 355.633 54.5486H350.596ZM384.632 56.3545H379.355C379.205 55.4892 378.927 54.7226 378.523 54.0548C378.118 53.3776 377.615 52.8039 377.013 52.3336C376.411 51.8633 375.725 51.5106 374.953 51.2754C374.191 51.0309 373.368 50.9086 372.484 50.9086C370.914 50.9086 369.521 51.3036 368.308 52.0937C367.095 52.8744 366.145 54.0219 365.458 55.5362C364.772 57.0412 364.428 58.88 364.428 61.0527C364.428 63.2631 364.772 65.1254 365.458 66.6398C366.154 68.1447 367.104 69.2828 368.308 70.0541C369.521 70.8159 370.909 71.1969 372.47 71.1969C373.336 71.1969 374.144 71.084 374.897 70.8582C375.659 70.6231 376.341 70.2798 376.943 69.8283C377.554 69.3768 378.067 68.8219 378.481 68.1635C378.904 67.5051 379.195 66.7526 379.355 65.9061L384.632 65.9343C384.434 67.3076 384.006 68.5962 383.348 69.8001C382.699 71.004 381.848 72.0669 380.794 72.9887C379.741 73.901 378.509 74.6159 377.098 75.1332C375.687 75.6411 374.121 75.895 372.4 75.895C369.86 75.895 367.593 75.3072 365.599 74.1315C363.605 72.9557 362.035 71.258 360.887 69.0382C359.739 66.8185 359.166 64.1566 359.166 61.0527C359.166 57.9394 359.744 55.2776 360.901 53.0672C362.058 50.8475 363.633 49.1497 365.628 47.974C367.622 46.7983 369.879 46.2104 372.4 46.2104C374.008 46.2104 375.504 46.4361 376.886 46.8876C378.269 47.3391 379.501 48.0022 380.583 48.8769C381.664 49.7423 382.553 50.8051 383.249 52.0655C383.955 53.3165 384.416 54.7462 384.632 56.3545ZM414.45 61.0527C414.45 64.166 413.866 66.8326 412.7 69.0523C411.543 71.2627 409.963 72.9557 407.96 74.1315C405.966 75.3072 403.703 75.895 401.173 75.895C398.643 75.895 396.376 75.3072 394.373 74.1315C392.379 72.9463 390.799 71.2486 389.632 69.0382C388.476 66.8185 387.897 64.1566 387.897 61.0527C387.897 57.9394 388.476 55.2776 389.632 53.0672C390.799 50.8475 392.379 49.1497 394.373 47.974C396.376 46.7983 398.643 46.2104 401.173 46.2104C403.703 46.2104 405.966 46.7983 407.96 47.974C409.963 49.1497 411.543 50.8475 412.7 53.0672C413.866 55.2776 414.45 57.9394 414.45 61.0527ZM409.187 61.0527C409.187 58.8612 408.844 57.0129 408.157 55.508C407.48 53.9937 406.539 52.8509 405.335 52.0796C404.131 51.2989 402.744 50.9086 401.173 50.9086C399.603 50.9086 398.215 51.2989 397.011 52.0796C395.807 52.8509 394.862 53.9937 394.175 55.508C393.498 57.0129 393.16 58.8612 393.16 61.0527C393.16 63.2443 393.498 65.0972 394.175 66.6115C394.862 68.1165 395.807 69.2593 397.011 70.0399C398.215 70.8112 399.603 71.1969 401.173 71.1969C402.744 71.1969 404.131 70.8112 405.335 70.0399C406.539 69.2593 407.48 68.1165 408.157 66.6115C408.844 65.0972 409.187 63.2443 409.187 61.0527ZM148.315 94.6055H153.507V114.922C153.497 116.784 153.102 118.388 152.321 119.733C151.541 121.069 150.45 122.099 149.048 122.823C147.656 123.538 146.034 123.895 144.181 123.895C142.488 123.895 140.964 123.594 139.61 122.992C138.265 122.381 137.197 121.478 136.407 120.283C135.617 119.089 135.222 117.603 135.222 115.825H140.428C140.437 116.606 140.607 117.278 140.936 117.842C141.274 118.407 141.74 118.839 142.333 119.14C142.925 119.441 143.607 119.592 144.378 119.592C145.215 119.592 145.926 119.418 146.509 119.07C147.092 118.712 147.534 118.186 147.835 117.49C148.145 116.794 148.305 115.938 148.315 114.922V94.6055ZM158.391 123.5V94.6055H177.183V98.9933H163.625V106.838H176.21V111.225H163.625V119.112H177.296V123.5H158.391ZM187.81 123.5L179.655 94.6055H185.284L190.49 115.839H190.759L196.317 94.6055H201.439L207.012 115.853H207.266L212.472 94.6055H218.101L209.946 123.5H204.783L198.998 103.226H198.772L192.974 123.5H187.81ZM226.17 94.6055V123.5H220.936V94.6055H226.17ZM246.747 102.549C246.615 101.316 246.06 100.357 245.082 99.6705C244.113 98.9838 242.853 98.6405 241.301 98.6405C240.21 98.6405 239.274 98.8051 238.493 99.1343C237.713 99.4635 237.115 99.9103 236.701 100.475C236.288 101.039 236.076 101.683 236.067 102.408C236.067 103.01 236.203 103.532 236.476 103.974C236.758 104.416 237.139 104.792 237.618 105.102C238.098 105.403 238.63 105.657 239.213 105.864C239.796 106.071 240.384 106.245 240.976 106.386L243.685 107.063C244.776 107.317 245.825 107.661 246.831 108.093C247.847 108.526 248.755 109.072 249.554 109.73C250.363 110.388 251.003 111.183 251.473 112.114C251.943 113.045 252.179 114.137 252.179 115.388C252.179 117.081 251.746 118.571 250.881 119.86C250.015 121.139 248.764 122.141 247.128 122.865C245.501 123.58 243.53 123.937 241.216 123.937C238.968 123.937 237.016 123.589 235.361 122.893C233.715 122.197 232.426 121.181 231.495 119.846C230.574 118.51 230.075 116.883 230 114.964H235.149C235.225 115.971 235.535 116.808 236.081 117.476C236.626 118.143 237.336 118.642 238.211 118.971C239.095 119.3 240.083 119.465 241.174 119.465C242.312 119.465 243.309 119.296 244.165 118.957C245.03 118.609 245.707 118.129 246.197 117.518C246.686 116.897 246.935 116.173 246.944 115.345C246.935 114.593 246.714 113.972 246.281 113.483C245.849 112.984 245.242 112.57 244.461 112.241C243.69 111.903 242.787 111.602 241.752 111.338L238.465 110.492C236.085 109.88 234.204 108.954 232.822 107.712C231.448 106.461 230.762 104.801 230.762 102.732C230.762 101.03 231.223 99.5388 232.144 98.2596C233.075 96.9804 234.341 95.9881 235.94 95.2827C237.539 94.5678 239.349 94.2104 241.371 94.2104C243.422 94.2104 245.218 94.5678 246.761 95.2827C248.313 95.9881 249.531 96.971 250.415 98.2314C251.299 99.4823 251.755 100.921 251.784 102.549H246.747ZM256.05 123.5V94.6055H261.285V106.838H274.674V94.6055H279.922V123.5H274.674V111.225H261.285V123.5H256.05ZM293.881 123.5V94.6055H312.391V98.9933H299.115V106.838H311.122V111.225H299.115V123.5H293.881ZM321.6 94.6055V123.5H316.366V94.6055H321.6ZM326.473 123.5V94.6055H331.708V119.112H344.434V123.5H326.473ZM348.182 94.6055H354.587L363.166 115.543H363.504L372.082 94.6055H378.488V123.5H373.465V103.649H373.197L365.211 123.415H361.458L353.473 103.607H353.205V123.5H348.182V94.6055ZM140.31 172.5V143.605H158.82V147.993H145.544V155.838H157.55V160.225H145.544V172.5H140.31ZM162.794 172.5V143.605H181.587V147.993H168.029V155.838H180.614V160.225H168.029V168.112H181.7V172.5H162.794ZM201.836 151.549C201.704 150.316 201.149 149.357 200.171 148.67C199.202 147.984 197.942 147.641 196.39 147.641C195.299 147.641 194.363 147.805 193.582 148.134C192.801 148.464 192.204 148.91 191.79 149.475C191.376 150.039 191.165 150.683 191.155 151.408C191.155 152.01 191.292 152.532 191.564 152.974C191.847 153.416 192.228 153.792 192.707 154.102C193.187 154.403 193.718 154.657 194.302 154.864C194.885 155.071 195.473 155.245 196.065 155.386L198.774 156.063C199.865 156.317 200.914 156.661 201.92 157.093C202.936 157.526 203.844 158.072 204.643 158.73C205.452 159.388 206.092 160.183 206.562 161.114C207.032 162.045 207.267 163.137 207.267 164.388C207.267 166.081 206.835 167.571 205.969 168.86C205.104 170.139 203.853 171.141 202.217 171.865C200.589 172.58 198.619 172.937 196.305 172.937C194.057 172.937 192.105 172.589 190.45 171.893C188.804 171.197 187.515 170.181 186.584 168.846C185.662 167.51 185.164 165.883 185.089 163.964H190.238C190.314 164.971 190.624 165.808 191.169 166.476C191.715 167.143 192.425 167.642 193.3 167.971C194.184 168.3 195.172 168.465 196.263 168.465C197.401 168.465 198.398 168.296 199.254 167.957C200.119 167.609 200.796 167.129 201.285 166.518C201.774 165.897 202.024 165.173 202.033 164.345C202.024 163.593 201.803 162.972 201.37 162.483C200.937 161.984 200.331 161.57 199.55 161.241C198.779 160.903 197.876 160.602 196.841 160.338L193.554 159.492C191.174 158.88 189.293 157.954 187.91 156.712C186.537 155.461 185.85 153.801 185.85 151.732C185.85 150.03 186.311 148.539 187.233 147.26C188.164 145.98 189.429 144.988 191.028 144.283C192.627 143.568 194.438 143.21 196.46 143.21C198.511 143.21 200.307 143.568 201.85 144.283C203.402 144.988 204.62 145.971 205.504 147.231C206.388 148.482 206.844 149.921 206.872 151.549H201.836ZM209.869 147.993V143.605H232.923V147.993H223.992V172.5H218.8V147.993H209.869ZM241.807 143.605V172.5H236.573V143.605H241.807ZM250.546 143.605L258.066 166.349H258.363L265.868 143.605H271.625L261.438 172.5H254.976L244.804 143.605H250.546ZM274.971 172.5H269.384L279.556 143.605H286.018L296.205 172.5H290.617L282.9 149.531H282.674L274.971 172.5ZM275.154 161.171H290.392V165.375H275.154V161.171ZM299.216 172.5V143.605H304.45V168.112H317.176V172.5H299.216ZM329.181 167.139V162.977L341.441 143.605H344.912V149.531H342.795L334.542 162.61V162.836H351.656V167.139H329.181ZM342.965 172.5V165.869L343.021 164.007V143.605H347.959V172.5H342.965ZM365.414 172.895C363.533 172.895 361.849 172.542 360.363 171.837C358.877 171.122 357.697 170.144 356.822 168.902C355.957 167.661 355.496 166.24 355.439 164.641H360.518C360.612 165.827 361.125 166.795 362.056 167.548C362.987 168.291 364.107 168.662 365.414 168.662C366.439 168.662 367.352 168.427 368.151 167.957C368.951 167.487 369.581 166.833 370.042 165.996C370.503 165.159 370.728 164.204 370.719 163.132C370.728 162.041 370.498 161.072 370.028 160.225C369.557 159.379 368.913 158.716 368.095 158.236C367.276 157.747 366.336 157.502 365.273 157.502C364.408 157.493 363.556 157.653 362.719 157.982C361.882 158.311 361.219 158.744 360.73 159.28L356.004 158.504L357.513 143.605H374.274V147.979H361.845L361.012 155.64H361.182C361.718 155.01 362.475 154.488 363.453 154.074C364.431 153.651 365.503 153.439 366.67 153.439C368.419 153.439 369.981 153.853 371.354 154.681C372.727 155.499 373.809 156.628 374.599 158.067C375.389 159.506 375.784 161.152 375.784 163.005C375.784 164.914 375.342 166.617 374.458 168.112C373.583 169.598 372.365 170.769 370.804 171.625C369.252 172.472 367.455 172.895 365.414 172.895Z" fill="white"/>
<path d="M164.838 197.566C164.838 199.24 164.536 200.686 163.932 201.905C163.327 203.124 162.498 204.064 161.444 204.725C160.391 205.386 159.187 205.717 157.834 205.717C156.481 205.717 155.277 205.386 154.223 204.725C153.17 204.064 152.341 203.124 151.736 201.905C151.132 200.686 150.83 199.24 150.83 197.566C150.83 195.893 151.132 194.446 151.736 193.227C152.341 192.008 153.17 191.068 154.223 190.407C155.277 189.746 156.481 189.415 157.834 189.415C159.187 189.415 160.391 189.746 161.444 190.407C162.498 191.068 163.327 192.008 163.932 193.227C164.536 194.446 164.838 195.893 164.838 197.566ZM162.979 197.566C162.979 196.192 162.749 195.033 162.289 194.087C161.834 193.142 161.217 192.427 160.437 191.941C159.662 191.456 158.795 191.213 157.834 191.213C156.873 191.213 156.003 191.456 155.223 191.941C154.448 192.427 153.831 193.142 153.371 194.087C152.917 195.033 152.689 196.192 152.689 197.566C152.689 198.94 152.917 200.1 153.371 201.045C153.831 201.99 154.448 202.706 155.223 203.191C156.003 203.677 156.873 203.919 157.834 203.919C158.795 203.919 159.662 203.677 160.437 203.191C161.217 202.706 161.834 201.99 162.289 201.045C162.749 200.1 162.979 198.94 162.979 197.566ZM167.633 205.5V189.632H177.147V191.337H169.554V196.698H176.434V198.403H169.554V205.5H167.633ZM180.002 205.5V189.632H189.516V191.337H181.923V196.698H188.803V198.403H181.923V205.5H180.002ZM194.292 189.632V205.5H192.371V189.632H194.292ZM210.477 194.591H208.556C208.442 194.038 208.243 193.553 207.959 193.134C207.68 192.716 207.339 192.365 206.936 192.081C206.539 191.791 206.097 191.574 205.611 191.43C205.126 191.285 204.62 191.213 204.093 191.213C203.132 191.213 202.262 191.456 201.482 191.941C200.707 192.427 200.09 193.142 199.63 194.087C199.175 195.033 198.948 196.192 198.948 197.566C198.948 198.94 199.175 200.1 199.63 201.045C200.09 201.99 200.707 202.706 201.482 203.191C202.262 203.677 203.132 203.919 204.093 203.919C204.62 203.919 205.126 203.847 205.611 203.702C206.097 203.558 206.539 203.343 206.936 203.059C207.339 202.77 207.68 202.416 207.959 201.998C208.243 201.574 208.442 201.089 208.556 200.541H210.477C210.332 201.352 210.069 202.078 209.687 202.718C209.305 203.359 208.829 203.904 208.261 204.353C207.693 204.798 207.055 205.136 206.347 205.368C205.645 205.601 204.893 205.717 204.093 205.717C202.739 205.717 201.536 205.386 200.482 204.725C199.428 204.064 198.599 203.124 197.995 201.905C197.391 200.686 197.089 199.24 197.089 197.566C197.089 195.893 197.391 194.446 197.995 193.227C198.599 192.008 199.428 191.068 200.482 190.407C201.536 189.746 202.739 189.415 204.093 189.415C204.893 189.415 205.645 189.532 206.347 189.764C207.055 189.996 207.693 190.337 208.261 190.787C208.829 191.231 209.305 191.773 209.687 192.414C210.069 193.049 210.332 193.775 210.477 194.591ZM215.067 189.632V205.5H213.146V189.632H215.067ZM219.134 205.5H217.12L222.946 189.632H224.93L230.756 205.5H228.742L224 192.143H223.876L219.134 205.5ZM219.878 199.302H227.998V201.006H219.878V199.302ZM232.791 205.5V189.632H234.713V203.795H242.089V205.5H232.791ZM259.005 193.599C258.912 192.814 258.535 192.205 257.874 191.771C257.213 191.337 256.402 191.12 255.441 191.12C254.739 191.12 254.124 191.233 253.597 191.461C253.076 191.688 252.668 192.001 252.373 192.398C252.084 192.796 251.939 193.248 251.939 193.754C251.939 194.178 252.04 194.542 252.242 194.847C252.448 195.146 252.712 195.397 253.032 195.598C253.352 195.794 253.688 195.957 254.039 196.086C254.39 196.21 254.713 196.311 255.008 196.388L256.619 196.822C257.032 196.931 257.492 197.081 257.998 197.272C258.51 197.463 258.998 197.724 259.463 198.054C259.933 198.38 260.32 198.798 260.625 199.309C260.93 199.821 261.082 200.448 261.082 201.192C261.082 202.05 260.857 202.824 260.408 203.517C259.964 204.209 259.313 204.759 258.455 205.167C257.603 205.575 256.567 205.779 255.348 205.779C254.212 205.779 253.228 205.596 252.396 205.229C251.57 204.862 250.919 204.351 250.444 203.695C249.974 203.039 249.708 202.277 249.646 201.409H251.629C251.681 202.008 251.883 202.504 252.234 202.897C252.59 203.284 253.04 203.573 253.582 203.764C254.129 203.95 254.718 204.043 255.348 204.043C256.082 204.043 256.74 203.925 257.324 203.687C257.908 203.444 258.37 203.108 258.711 202.68C259.052 202.246 259.222 201.74 259.222 201.161C259.222 200.634 259.075 200.206 258.781 199.875C258.486 199.544 258.099 199.276 257.619 199.069C257.138 198.863 256.619 198.682 256.061 198.527L254.109 197.969C252.869 197.613 251.888 197.104 251.165 196.443C250.441 195.782 250.08 194.916 250.08 193.847C250.08 192.959 250.32 192.184 250.8 191.523C251.286 190.856 251.937 190.34 252.753 189.973C253.574 189.601 254.491 189.415 255.503 189.415C256.526 189.415 257.435 189.599 258.231 189.965C259.026 190.327 259.656 190.823 260.121 191.453C260.591 192.083 260.839 192.799 260.865 193.599H259.005ZM263.805 205.5V189.632H273.381V191.337H265.726V196.698H272.885V198.403H265.726V203.795H273.505V205.5H263.805ZM276.408 205.5V189.632H278.33V203.795H285.706V205.5H276.408ZM288.245 205.5V189.632H297.821V191.337H290.166V196.698H297.325V198.403H290.166V203.795H297.945V205.5H288.245ZM313.617 194.591H311.695C311.581 194.038 311.383 193.553 311.098 193.134C310.82 192.716 310.479 192.365 310.076 192.081C309.678 191.791 309.236 191.574 308.751 191.43C308.265 191.285 307.759 191.213 307.232 191.213C306.271 191.213 305.401 191.456 304.621 191.941C303.846 192.427 303.229 193.142 302.769 194.087C302.315 195.033 302.088 196.192 302.088 197.566C302.088 198.94 302.315 200.1 302.769 201.045C303.229 201.99 303.846 202.706 304.621 203.191C305.401 203.677 306.271 203.919 307.232 203.919C307.759 203.919 308.265 203.847 308.751 203.702C309.236 203.558 309.678 203.343 310.076 203.059C310.479 202.77 310.82 202.416 311.098 201.998C311.383 201.574 311.581 201.089 311.695 200.541H313.617C313.472 201.352 313.208 202.078 312.826 202.718C312.444 203.359 311.969 203.904 311.401 204.353C310.832 204.798 310.195 205.136 309.487 205.368C308.784 205.601 308.033 205.717 307.232 205.717C305.879 205.717 304.675 205.386 303.622 204.725C302.568 204.064 301.739 203.124 301.135 201.905C300.53 200.686 300.228 199.24 300.228 197.566C300.228 195.893 300.53 194.446 301.135 193.227C301.739 192.008 302.568 191.068 303.622 190.407C304.675 189.746 305.879 189.415 307.232 189.415C308.033 189.415 308.784 189.532 309.487 189.764C310.195 189.996 310.832 190.337 311.401 190.787C311.969 191.231 312.444 191.773 312.826 192.414C313.208 193.049 313.472 193.775 313.617 194.591ZM315.417 191.337V189.632H327.318V191.337H322.329V205.5H320.407V191.337H315.417ZM331.769 189.632V205.5H329.847V189.632H331.769ZM348.574 197.566C348.574 199.24 348.271 200.686 347.667 201.905C347.063 203.124 346.234 204.064 345.18 204.725C344.126 205.386 342.923 205.717 341.569 205.717C340.216 205.717 339.013 205.386 337.959 204.725C336.905 204.064 336.076 203.124 335.472 201.905C334.867 200.686 334.565 199.24 334.565 197.566C334.565 195.893 334.867 194.446 335.472 193.227C336.076 192.008 336.905 191.068 337.959 190.407C339.013 189.746 340.216 189.415 341.569 189.415C342.923 189.415 344.126 189.746 345.18 190.407C346.234 191.068 347.063 192.008 347.667 193.227C348.271 194.446 348.574 195.893 348.574 197.566ZM346.714 197.566C346.714 196.192 346.484 195.033 346.025 194.087C345.57 193.142 344.953 192.427 344.173 191.941C343.398 191.456 342.53 191.213 341.569 191.213C340.609 191.213 339.738 191.456 338.958 191.941C338.184 192.427 337.566 193.142 337.107 194.087C336.652 195.033 336.425 196.192 336.425 197.566C336.425 198.94 336.652 200.1 337.107 201.045C337.566 201.99 338.184 202.706 338.958 203.191C339.738 203.677 340.609 203.919 341.569 203.919C342.53 203.919 343.398 203.677 344.173 203.191C344.953 202.706 345.57 201.99 346.025 201.045C346.484 200.1 346.714 198.94 346.714 197.566ZM363.951 189.632V205.5H362.091L353.445 193.041H353.29V205.5H351.368V189.632H353.228L361.905 202.122H362.06V189.632H363.951Z" fill="white"/>
<path d="M467.838 73.6038C470.208 77.1463 472.484 81.5164 471.365 86.1997C467.504 83.9897 464.398 80.3814 461.935 76.8193C459.455 73.2333 456.88 69.42 455.998 65C460.868 66.2457 465.228 69.7037 467.838 73.6038Z" fill="white"/>
<path d="M474.756 95.1908C473.38 91.4902 470.37 88.2635 467.094 86.7585C464.052 85.3629 460.012 83.9064 456.462 85.6948C458.394 89.0871 461.575 91.9415 464.824 93.7369C467.745 95.3511 471.445 97.3068 475.107 96.4662C479.098 95.8549 481.027 91.8818 482.1 88.8763C483.585 84.723 482.57 79.1764 480.035 75.1016C476.54 76.5581 475.474 80.8794 474.744 83.9369C473.911 87.4172 473.888 91.4796 474.756 95.1908Z" fill="white"/>
<path d="M471.887 100.538C474.701 102.545 476.861 106.215 477.325 109.982C477.365 106.207 478.392 102.31 480.041 99.1713C481.55 96.2995 483.655 92.4182 487.4 91.6445C488.871 96.1159 488.395 101.585 486.016 105.204C484.217 107.946 481.431 111.38 477.377 111.288C473.677 111.477 470.482 108.95 467.968 106.841C465.263 104.573 462.823 101.257 461.797 97.6733C465.574 96.5764 469.19 98.6157 471.887 100.538Z" fill="white"/>
<path d="M476.374 124.805C476.786 121.113 475.552 117.122 473.251 114.657C471.036 112.279 467.93 109.688 464.063 110.101C464.141 113.841 466.013 117.405 467.945 120.075C469.744 122.562 472.515 125.638 476.143 126.081C479.915 126.72 483.597 124.411 485.99 121.694C489.067 118.199 490.901 113.507 490.535 108.808C486.659 108.904 483.724 112.249 481.553 114.779C479.211 117.508 477.293 121.099 476.374 124.805Z" fill="white"/>
<path d="M470.882 128.165C472.716 131.811 473.065 136.148 471.65 139.966C473.737 136.037 476.791 132.86 480.024 129.924C482.962 127.256 487.195 124.446 491.454 124.978C490.641 130.245 487.42 135.707 483.1 138.514C479.628 140.769 475.421 143.002 471.001 141.316C467.364 140.033 465.055 136.371 463.636 133.01C462.134 129.454 461.133 125.355 461.834 121.465C465.822 121.822 469.129 124.679 470.882 128.165Z" fill="white"/>
<path d="M463.175 154.019C465.482 150.506 466.287 146.11 465.344 141.983C464.45 138.074 461.731 134.504 457.766 133.394C456.113 137.16 456.085 141.541 456.684 145.514C457.244 149.19 458.611 153.479 462.007 155.53C466.203 158.191 471.102 156.617 475.125 155.025C480.315 152.972 485.001 148.004 487.193 142.665C482.657 141.227 478.02 143.599 474.24 145.566C470.33 147.601 466.246 150.503 463.175 154.019Z" fill="white"/>
<path d="M445.827 156.913C445.322 160.746 445.331 165.609 448.307 168.563C452.021 172.373 457.779 171.642 462.22 170.808C468.183 169.687 474.896 165.625 478.498 160.215C474.109 157.794 468.734 159.336 464.386 160.585L464.135 160.657C459.282 162.049 454.109 164.294 449.78 167.362C453.235 164.245 455.752 159.671 455.879 155.057C455.994 150.93 454.207 146.513 450.354 144.542C447.658 148.073 446.395 152.608 445.827 156.913Z" fill="white"/>
<path d="M442.497 184.994C437.733 184.893 431.196 184.325 428.531 179.403L428.494 179.336C426.366 175.176 428.529 170.313 430.253 166.715C432.303 162.437 435.103 158.078 439.106 154.949C442.947 158.263 442.575 163 441.43 167.116C440.066 172.011 435.354 176.181 430.475 178.555C436.124 176.453 442.292 175.194 448.16 174.825L448.757 174.787C453.472 174.484 459.608 174.089 463.36 177.541C457.676 182.364 449.608 185.144 442.497 184.994Z" fill="white"/>
</svg>
