<svg width="403" height="250" viewBox="0 0 403 250" fill="none" xmlns="http://www.w3.org/2000/svg">
<path d="M44.1277 86.1862C43.0118 81.5024 45.2914 77.1344 47.6659 73.5942C50.2797 69.6967 54.6408 66.2422 59.5114 65C58.6265 69.4188 56.0476 73.2303 53.5653 76.8138C51.0997 80.3739 47.99 83.9796 44.1277 86.1862Z" fill="white"/>
<path d="M40.7293 95.1706C41.6004 91.4614 41.5811 87.4007 40.7518 83.9216C40.0226 80.8641 38.9615 76.5419 35.4692 75.0835C32.9307 79.1554 31.9102 84.7004 33.3897 88.8554C34.4594 91.8607 36.3832 95.8343 40.373 96.4493C44.034 97.2933 47.736 95.3404 50.6597 93.728C53.9107 91.9354 57.0951 89.0835 59.0299 85.6929C55.4807 83.9014 51.4388 85.3552 48.398 86.7485C45.1202 88.2504 42.109 91.4729 40.7293 95.1706Z" fill="white"/>
<path d="M29.4561 105.18C31.2565 107.926 34.0424 111.367 38.1045 111.269C41.7984 111.453 44.9898 108.933 47.5029 106.829C50.2095 104.562 52.6526 101.249 53.684 97.666C49.9059 96.5668 46.2887 98.6031 43.5913 100.524C40.7746 102.53 38.6083 106.201 38.1429 109.97C38.108 106.194 37.0858 102.294 35.438 99.1515C33.9314 96.2791 31.832 92.3963 28.0865 91.6201C26.6108 96.0896 27.0817 101.558 29.4561 105.18Z" fill="white"/>
<path d="M39.3056 126.063C35.5356 126.694 31.8582 124.385 29.4699 121.668C26.395 118.169 24.5655 113.477 24.9386 108.779C28.8116 108.877 31.7448 112.225 33.9129 114.757C36.2478 117.483 38.1609 121.07 39.0787 124.771C38.675 121.083 39.9132 117.101 42.2115 114.64C44.43 112.265 47.5377 109.676 51.4043 110.092C51.321 113.831 49.4465 117.394 47.5132 120.062C45.7111 122.549 42.9349 125.624 39.3056 126.063Z" fill="white"/>
<path d="M32.3419 138.488C35.8141 140.749 40.0252 142.986 44.4509 141.293C48.0817 140.008 50.3901 136.354 51.8099 132.999C53.3139 129.445 54.3184 125.346 53.623 121.456C49.6332 121.81 46.3249 124.665 44.5677 128.149C42.7307 131.792 42.3784 136.128 43.7895 139.947C41.7045 136.018 38.6554 132.839 35.4254 129.901C32.4892 127.231 28.2599 124.418 24 124.947C24.8105 130.214 28.0243 135.677 32.3419 138.488Z" fill="white"/>
<path d="M53.3943 155.53C56.8111 153.488 58.1862 149.19 58.7482 145.507C59.354 141.535 59.328 137.155 57.6784 133.387C53.7144 134.494 50.9933 138.062 50.0949 141.97C49.1456 146.098 49.9466 150.499 52.2557 154.014C49.1863 150.493 45.1049 147.585 41.1936 145.546C37.4155 143.577 32.7804 141.202 28.2432 142.636C30.4311 147.976 35.1114 152.947 40.2986 155.004C44.3157 156.596 49.2027 158.171 53.3943 155.53Z" fill="white"/>
<path d="M69.5932 156.913C70.0946 160.746 70.0804 165.609 67.1039 168.56C63.3844 172.367 57.628 171.632 53.1882 170.795C47.2276 169.669 40.518 165.604 36.9219 160.191C41.3138 157.773 46.6853 159.32 51.0334 160.572L51.2817 160.643C56.1353 162.04 61.3075 164.289 65.6331 167.362C62.1811 164.243 59.666 159.664 59.5428 155.05C59.4321 150.922 61.2236 146.507 65.0786 144.54C67.77 148.072 69.0303 152.607 69.5932 156.913Z" fill="white"/>
<path d="M86.8678 179.415C89.0598 175.242 86.888 170.345 85.1574 166.726C83.1114 162.447 80.3159 158.086 76.3152 154.954C72.4737 158.265 72.839 163.002 73.9811 167.119C75.3392 172.014 80.0475 176.187 84.923 178.565C79.2765 176.459 73.1098 175.195 67.2427 174.822L66.6484 174.784C61.935 174.477 55.7989 174.077 52.043 177.526C57.7218 182.354 65.788 185.139 72.8973 184.995C77.6615 184.898 84.1981 184.334 86.8678 179.415Z" fill="white"/>
<path d="M112.665 74.1322V90H110.743V74.1322H112.665ZM124.263 80.7645L122.62 81.2293C122.517 80.9556 122.364 80.6896 122.163 80.4313C121.967 80.1679 121.698 79.9509 121.357 79.7805C121.016 79.61 120.58 79.5248 120.048 79.5248C119.32 79.5248 118.713 79.6927 118.227 80.0284C117.747 80.359 117.507 80.78 117.507 81.2913C117.507 81.7459 117.672 82.1049 118.002 82.3683C118.333 82.6317 118.849 82.8512 119.552 83.0269L121.319 83.4607C122.383 83.719 123.175 84.1142 123.697 84.6462C124.219 85.173 124.48 85.8523 124.48 86.6839C124.48 87.3657 124.283 87.9752 123.891 88.5124C123.503 89.0496 122.961 89.4731 122.264 89.7831C121.566 90.093 120.755 90.2479 119.831 90.2479C118.617 90.2479 117.612 89.9845 116.817 89.4576C116.021 88.9308 115.518 88.1612 115.306 87.1488L117.042 86.7149C117.207 87.3554 117.519 87.8357 117.979 88.156C118.444 88.4762 119.051 88.6364 119.8 88.6364C120.652 88.6364 121.329 88.4556 121.83 88.094C122.336 87.7273 122.589 87.2882 122.589 86.7769C122.589 86.3636 122.445 86.0176 122.155 85.7386C121.866 85.4545 121.422 85.2428 120.823 85.1033L118.839 84.6384C117.749 84.3802 116.949 83.9799 116.437 83.4375C115.931 82.89 115.678 82.2056 115.678 81.3843C115.678 80.7128 115.867 80.1188 116.244 79.6023C116.626 79.0857 117.145 78.6803 117.801 78.3858C118.462 78.0914 119.211 77.9442 120.048 77.9442C121.226 77.9442 122.15 78.2025 122.822 78.719C123.498 79.2355 123.979 79.9174 124.263 80.7645ZM126.796 90V78.0992H128.562V79.8967H128.686C128.903 79.3079 129.296 78.8301 129.864 78.4633C130.432 78.0966 131.073 77.9132 131.785 77.9132C131.92 77.9132 132.088 77.9158 132.289 77.921C132.49 77.9261 132.643 77.9339 132.746 77.9442V79.8037C132.684 79.7882 132.542 79.765 132.32 79.734C132.103 79.6978 131.873 79.6798 131.63 79.6798C131.052 79.6798 130.535 79.8011 130.081 80.0439C129.631 80.2815 129.275 80.6121 129.012 81.0356C128.753 81.454 128.624 81.9318 128.624 82.469V90H126.796ZM137.979 90.2789C137.225 90.2789 136.541 90.1369 135.926 89.8528C135.311 89.5635 134.823 89.1477 134.462 88.6054C134.1 88.0579 133.919 87.3967 133.919 86.6219C133.919 85.9401 134.054 85.3874 134.322 84.9638C134.591 84.5351 134.95 84.1994 135.399 83.9566C135.849 83.7138 136.345 83.5331 136.887 83.4143C137.434 83.2903 137.985 83.1921 138.537 83.1198C139.26 83.0269 139.847 82.9571 140.296 82.9106C140.751 82.859 141.081 82.7738 141.288 82.655C141.499 82.5362 141.605 82.3295 141.605 82.0351V81.9731C141.605 81.2087 141.396 80.6147 140.978 80.1911C140.565 79.7676 139.937 79.5558 139.095 79.5558C138.222 79.5558 137.538 79.7469 137.042 80.1291C136.546 80.5114 136.197 80.9194 135.996 81.3533L134.26 80.7335C134.57 80.0103 134.983 79.4473 135.5 79.0444C136.022 78.6364 136.59 78.3523 137.205 78.1921C137.824 78.0269 138.434 77.9442 139.033 77.9442C139.415 77.9442 139.854 77.9907 140.35 78.0837C140.851 78.1715 141.334 78.3549 141.799 78.6338C142.269 78.9127 142.659 79.3337 142.969 79.8967C143.279 80.4597 143.434 81.2138 143.434 82.1591V90H141.605V88.3884H141.512C141.388 88.6467 141.182 88.923 140.893 89.2175C140.603 89.5119 140.219 89.7624 139.738 89.969C139.258 90.1756 138.671 90.2789 137.979 90.2789ZM138.258 88.6364C138.981 88.6364 139.591 88.4943 140.087 88.2102C140.588 87.9261 140.965 87.5594 141.218 87.11C141.476 86.6606 141.605 86.188 141.605 85.6921V84.0186C141.528 84.1116 141.357 84.1968 141.094 84.2743C140.836 84.3466 140.536 84.4112 140.195 84.468C139.86 84.5196 139.532 84.5661 139.211 84.6074C138.896 84.6436 138.641 84.6746 138.444 84.7004C137.969 84.7624 137.525 84.8631 137.112 85.0026C136.704 85.1369 136.373 85.3409 136.12 85.6147C135.872 85.8833 135.748 86.25 135.748 86.7149C135.748 87.3502 135.983 87.8306 136.453 88.156C136.928 88.4762 137.53 88.6364 138.258 88.6364ZM151.325 90.2479C150.178 90.2479 149.189 89.9948 148.357 89.4886C147.531 88.9773 146.893 88.2645 146.443 87.3502C145.999 86.4308 145.777 85.3616 145.777 84.1426C145.777 82.9236 145.999 81.8492 146.443 80.9194C146.893 79.9845 147.518 79.2562 148.318 78.7345C149.124 78.2076 150.064 77.9442 151.139 77.9442C151.759 77.9442 152.371 78.0475 152.975 78.2541C153.579 78.4607 154.129 78.7965 154.625 79.2614C155.121 79.7211 155.516 80.3306 155.811 81.0899C156.105 81.8492 156.252 82.7841 156.252 83.8946V84.6694H147.079V83.0888H154.393C154.393 82.4174 154.259 81.8182 153.99 81.2913C153.726 80.7645 153.349 80.3487 152.859 80.0439C152.373 79.7392 151.8 79.5868 151.139 79.5868C150.41 79.5868 149.78 79.7676 149.248 80.1291C148.721 80.4855 148.316 80.9504 148.032 81.5238C147.748 82.0971 147.606 82.7118 147.606 83.3678V84.4215C147.606 85.3202 147.761 86.0821 148.07 86.7071C148.386 87.327 148.822 87.7996 149.38 88.125C149.938 88.4452 150.586 88.6054 151.325 88.6054C151.805 88.6054 152.239 88.5382 152.626 88.4039C153.019 88.2645 153.357 88.0579 153.641 87.7841C153.925 87.5052 154.145 87.1591 154.3 86.7459L156.066 87.2417C155.88 87.8409 155.568 88.3678 155.129 88.8223C154.69 89.2717 154.147 89.6229 153.502 89.876C152.856 90.124 152.13 90.2479 151.325 90.2479ZM160.426 74.1322V90H158.597V74.1322H160.426ZM163.339 90V78.0992H165.167V90H163.339ZM164.268 76.1157C163.912 76.1157 163.605 75.9943 163.346 75.7515C163.093 75.5088 162.967 75.2169 162.967 74.876C162.967 74.5351 163.093 74.2433 163.346 74.0005C163.605 73.7577 163.912 73.6364 164.268 73.6364C164.625 73.6364 164.93 73.7577 165.183 74.0005C165.441 74.2433 165.57 74.5351 165.57 74.876C165.57 75.2169 165.441 75.5088 165.183 75.7515C164.93 75.9943 164.625 76.1157 164.268 76.1157ZM186.796 79.0909H184.875C184.761 78.5382 184.562 78.0527 184.278 77.6343C183.999 77.2159 183.658 76.8647 183.256 76.5806C182.858 76.2913 182.416 76.0744 181.931 75.9298C181.445 75.7851 180.939 75.7128 180.412 75.7128C179.451 75.7128 178.581 75.9556 177.801 76.4411C177.026 76.9267 176.409 77.642 175.949 78.5873C175.495 79.5325 175.267 80.6921 175.267 82.0661C175.267 83.4401 175.495 84.5997 175.949 85.5449C176.409 86.4902 177.026 87.2056 177.801 87.6911C178.581 88.1767 179.451 88.4194 180.412 88.4194C180.939 88.4194 181.445 88.3471 181.931 88.2025C182.416 88.0579 182.858 87.8435 183.256 87.5594C183.658 87.2701 183.999 86.9163 184.278 86.4979C184.562 86.0744 184.761 85.5888 184.875 85.0413H186.796C186.652 85.8523 186.388 86.578 186.006 87.2185C185.624 87.859 185.149 88.4039 184.58 88.8533C184.012 89.2975 183.374 89.6358 182.667 89.8683C181.964 90.1007 181.213 90.2169 180.412 90.2169C179.059 90.2169 177.855 89.8864 176.802 89.2252C175.748 88.564 174.919 87.624 174.314 86.405C173.71 85.186 173.408 83.7397 173.408 82.0661C173.408 80.3926 173.71 78.9463 174.314 77.7273C174.919 76.5083 175.748 75.5682 176.802 74.907C177.855 74.2459 179.059 73.9153 180.412 73.9153C181.213 73.9153 181.964 74.0315 182.667 74.2639C183.374 74.4964 184.012 74.8373 184.58 75.2867C185.149 75.7309 185.624 76.2732 186.006 76.9137C186.388 77.5491 186.652 78.2748 186.796 79.0909ZM194.052 90.2479C192.977 90.2479 192.035 89.9923 191.224 89.4809C190.418 88.9695 189.788 88.2541 189.333 87.3347C188.884 86.4153 188.659 85.3409 188.659 84.1116C188.659 82.8719 188.884 81.7898 189.333 80.8652C189.788 79.9406 190.418 79.2226 191.224 78.7113C192.035 78.1999 192.977 77.9442 194.052 77.9442C195.126 77.9442 196.066 78.1999 196.872 78.7113C197.683 79.2226 198.313 79.9406 198.763 80.8652C199.217 81.7898 199.444 82.8719 199.444 84.1116C199.444 85.3409 199.217 86.4153 198.763 87.3347C198.313 88.2541 197.683 88.9695 196.872 89.4809C196.066 89.9923 195.126 90.2479 194.052 90.2479ZM194.052 88.6054C194.868 88.6054 195.539 88.3962 196.066 87.9778C196.593 87.5594 196.983 87.0093 197.236 86.3275C197.489 85.6457 197.616 84.907 197.616 84.1116C197.616 83.3161 197.489 82.5749 197.236 81.8879C196.983 81.2009 196.593 80.6457 196.066 80.2221C195.539 79.7986 194.868 79.5868 194.052 79.5868C193.236 79.5868 192.564 79.7986 192.037 80.2221C191.51 80.6457 191.12 81.2009 190.867 81.8879C190.614 82.5749 190.488 83.3161 190.488 84.1116C190.488 84.907 190.614 85.6457 190.867 86.3275C191.12 87.0093 191.51 87.5594 192.037 87.9778C192.564 88.3962 193.236 88.6054 194.052 88.6054ZM201.799 90V78.0992H203.566V79.9587H203.721C203.969 79.3233 204.369 78.8301 204.922 78.4788C205.474 78.1224 206.138 77.9442 206.913 77.9442C207.698 77.9442 208.351 78.1224 208.873 78.4788C209.4 78.8301 209.811 79.3233 210.105 79.9587H210.229C210.534 79.344 210.991 78.8559 211.6 78.4943C212.21 78.1276 212.941 77.9442 213.793 77.9442C214.857 77.9442 215.727 78.2774 216.404 78.9437C217.081 79.6049 217.419 80.6353 217.419 82.0351V90H215.59V82.0351C215.59 81.157 215.35 80.5294 214.87 80.1524C214.39 79.7753 213.824 79.5868 213.173 79.5868C212.336 79.5868 211.688 79.8399 211.228 80.3461C210.769 80.8471 210.539 81.4824 210.539 82.2521V90H208.679V81.8492C208.679 81.1725 208.46 80.6276 208.021 80.2144C207.582 79.796 207.016 79.5868 206.324 79.5868C205.849 79.5868 205.405 79.7133 204.991 79.9664C204.583 80.2195 204.253 80.5708 204 81.0201C203.752 81.4644 203.628 81.9783 203.628 82.562V90H201.799ZM220.326 94.4628V78.0992H222.092V79.9897H222.309C222.444 79.7831 222.63 79.5196 222.867 79.1994C223.11 78.874 223.456 78.5847 223.905 78.3316C224.36 78.0733 224.975 77.9442 225.749 77.9442C226.751 77.9442 227.635 78.1947 228.399 78.6958C229.164 79.1968 229.76 79.907 230.189 80.8264C230.618 81.7459 230.832 82.8306 230.832 84.0806C230.832 85.3409 230.618 86.4334 230.189 87.358C229.76 88.2774 229.166 88.9902 228.407 89.4964C227.648 89.9974 226.772 90.2479 225.78 90.2479C225.016 90.2479 224.404 90.1214 223.944 89.8683C223.484 89.61 223.131 89.3182 222.883 88.9928C222.635 88.6622 222.444 88.3884 222.309 88.1715H222.154V94.4628H220.326ZM222.123 84.0496C222.123 84.9483 222.255 85.7412 222.519 86.4282C222.782 87.11 223.167 87.6446 223.673 88.032C224.179 88.4143 224.799 88.6054 225.532 88.6054C226.297 88.6054 226.935 88.4039 227.446 88.001C227.963 87.593 228.35 87.0455 228.608 86.3585C228.872 85.6663 229.004 84.8967 229.004 84.0496C229.004 83.2128 228.874 82.4587 228.616 81.7872C228.363 81.1105 227.978 80.5759 227.462 80.1834C226.95 79.7856 226.307 79.5868 225.532 79.5868C224.789 79.5868 224.164 79.7753 223.657 80.1524C223.151 80.5243 222.769 81.046 222.511 81.7175C222.253 82.3838 222.123 83.1612 222.123 84.0496ZM238.175 90.2479C237.028 90.2479 236.039 89.9948 235.207 89.4886C234.381 88.9773 233.743 88.2645 233.293 87.3502C232.849 86.4308 232.627 85.3616 232.627 84.1426C232.627 82.9236 232.849 81.8492 233.293 80.9194C233.743 79.9845 234.368 79.2562 235.168 78.7345C235.974 78.2076 236.914 77.9442 237.989 77.9442C238.609 77.9442 239.221 78.0475 239.825 78.2541C240.429 78.4607 240.979 78.7965 241.475 79.2614C241.971 79.7211 242.366 80.3306 242.661 81.0899C242.955 81.8492 243.102 82.7841 243.102 83.8946V84.6694H233.929V83.0888H241.243C241.243 82.4174 241.109 81.8182 240.84 81.2913C240.576 80.7645 240.199 80.3487 239.709 80.0439C239.223 79.7392 238.65 79.5868 237.989 79.5868C237.26 79.5868 236.63 79.7676 236.098 80.1291C235.571 80.4855 235.166 80.9504 234.882 81.5238C234.598 82.0971 234.456 82.7118 234.456 83.3678V84.4215C234.456 85.3202 234.611 86.0821 234.92 86.7071C235.236 87.327 235.672 87.7996 236.23 88.125C236.788 88.4452 237.436 88.6054 238.175 88.6054C238.655 88.6054 239.089 88.5382 239.476 88.4039C239.869 88.2645 240.207 88.0579 240.491 87.7841C240.775 87.5052 240.995 87.1591 241.15 86.7459L242.916 87.2417C242.73 87.8409 242.418 88.3678 241.979 88.8223C241.54 89.2717 240.997 89.6229 240.352 89.876C239.706 90.124 238.98 90.2479 238.175 90.2479ZM250.623 78.0992V79.6488H244.456V78.0992H250.623ZM246.253 75.2479H248.082V86.5909C248.082 87.1074 248.157 87.4948 248.306 87.7531C248.461 88.0062 248.658 88.1767 248.895 88.2645C249.138 88.3471 249.394 88.3884 249.662 88.3884C249.864 88.3884 250.029 88.3781 250.158 88.3574C250.287 88.3316 250.391 88.311 250.468 88.2955L250.84 89.938C250.716 89.9845 250.543 90.031 250.321 90.0775C250.099 90.1291 249.817 90.155 249.476 90.155C248.96 90.155 248.454 90.0439 247.958 89.8218C247.467 89.5997 247.059 89.2614 246.734 88.8068C246.413 88.3523 246.253 87.7789 246.253 87.0868V75.2479ZM252.937 90V78.0992H254.766V90H252.937ZM253.867 76.1157C253.511 76.1157 253.203 75.9943 252.945 75.7515C252.692 75.5088 252.565 75.2169 252.565 74.876C252.565 74.5351 252.692 74.2433 252.945 74.0005C253.203 73.7577 253.511 73.6364 253.867 73.6364C254.223 73.6364 254.528 73.7577 254.781 74.0005C255.039 74.2433 255.169 74.5351 255.169 74.876C255.169 75.2169 255.039 75.5088 254.781 75.7515C254.528 75.9943 254.223 76.1157 253.867 76.1157ZM262.854 78.0992V79.6488H256.687V78.0992H262.854ZM258.484 75.2479H260.313V86.5909C260.313 87.1074 260.388 87.4948 260.537 87.7531C260.692 88.0062 260.889 88.1767 261.126 88.2645C261.369 88.3471 261.625 88.3884 261.893 88.3884C262.095 88.3884 262.26 88.3781 262.389 88.3574C262.518 88.3316 262.622 88.311 262.699 88.2955L263.071 89.938C262.947 89.9845 262.774 90.031 262.552 90.0775C262.33 90.1291 262.048 90.155 261.707 90.155C261.191 90.155 260.685 90.0439 260.189 89.8218C259.698 89.5997 259.29 89.2614 258.965 88.8068C258.644 88.3523 258.484 87.7789 258.484 87.0868V75.2479ZM265.168 90V78.0992H266.997V90H265.168ZM266.098 76.1157C265.742 76.1157 265.434 75.9943 265.176 75.7515C264.923 75.5088 264.796 75.2169 264.796 74.876C264.796 74.5351 264.923 74.2433 265.176 74.0005C265.434 73.7577 265.742 73.6364 266.098 73.6364C266.454 73.6364 266.759 73.7577 267.012 74.0005C267.27 74.2433 267.4 74.5351 267.4 74.876C267.4 75.2169 267.27 75.5088 267.012 75.7515C266.759 75.9943 266.454 76.1157 266.098 76.1157ZM274.744 90.2479C273.67 90.2479 272.727 89.9923 271.916 89.4809C271.11 88.9695 270.48 88.2541 270.026 87.3347C269.576 86.4153 269.352 85.3409 269.352 84.1116C269.352 82.8719 269.576 81.7898 270.026 80.8652C270.48 79.9406 271.11 79.2226 271.916 78.7113C272.727 78.1999 273.67 77.9442 274.744 77.9442C275.818 77.9442 276.759 78.1999 277.564 78.7113C278.375 79.2226 279.005 79.9406 279.455 80.8652C279.909 81.7898 280.137 82.8719 280.137 84.1116C280.137 85.3409 279.909 86.4153 279.455 87.3347C279.005 88.2541 278.375 88.9695 277.564 89.4809C276.759 89.9923 275.818 90.2479 274.744 90.2479ZM274.744 88.6054C275.56 88.6054 276.232 88.3962 276.759 87.9778C277.285 87.5594 277.675 87.0093 277.929 86.3275C278.182 85.6457 278.308 84.907 278.308 84.1116C278.308 83.3161 278.182 82.5749 277.929 81.8879C277.675 81.2009 277.285 80.6457 276.759 80.2221C276.232 79.7986 275.56 79.5868 274.744 79.5868C273.928 79.5868 273.257 79.7986 272.73 80.2221C272.203 80.6457 271.813 81.2009 271.56 81.8879C271.307 82.5749 271.18 83.3161 271.18 84.1116C271.18 84.907 271.307 85.6457 271.56 86.3275C271.813 87.0093 272.203 87.5594 272.73 87.9778C273.257 88.3962 273.928 88.6054 274.744 88.6054ZM284.32 82.8409V90H282.491V78.0992H284.258V79.9587H284.413C284.692 79.3543 285.115 78.8688 285.684 78.5021C286.252 78.1302 286.985 77.9442 287.884 77.9442C288.69 77.9442 289.395 78.1095 289.999 78.4401C290.604 78.7655 291.074 79.2614 291.409 79.9277C291.745 80.5888 291.913 81.4256 291.913 82.438V90H290.084V82.562C290.084 81.6271 289.842 80.8988 289.356 80.3771C288.871 79.8502 288.204 79.5868 287.357 79.5868C286.774 79.5868 286.252 79.7133 285.792 79.9664C285.338 80.2195 284.979 80.5888 284.715 81.0744C284.452 81.5599 284.32 82.1488 284.32 82.8409Z" fill="white"/>
<path d="M113.415 141H102.145V107.742H113.642C116.944 107.742 119.78 108.408 122.151 109.739C124.533 111.06 126.363 112.96 127.64 115.439C128.918 117.918 129.557 120.885 129.557 124.338C129.557 127.803 128.912 130.78 127.624 133.27C126.347 135.76 124.501 137.671 122.086 139.003C119.683 140.334 116.792 141 113.415 141ZM108.169 135.787H113.122C115.439 135.787 117.372 135.365 118.92 134.521C120.468 133.665 121.632 132.393 122.411 130.704C123.191 129.005 123.581 126.883 123.581 124.338C123.581 121.794 123.191 119.683 122.411 118.005C121.632 116.316 120.479 115.055 118.952 114.221C117.437 113.377 115.553 112.955 113.301 112.955H108.169V135.787ZM164.084 124.371C164.084 127.954 163.413 131.024 162.071 133.579C160.739 136.123 158.92 138.072 156.614 139.425C154.319 140.778 151.715 141.455 148.803 141.455C145.891 141.455 143.282 140.778 140.976 139.425C138.681 138.061 136.862 136.107 135.519 133.562C134.188 131.007 133.522 127.944 133.522 124.371C133.522 120.787 134.188 117.724 135.519 115.179C136.862 112.624 138.681 110.67 140.976 109.317C143.282 107.964 145.891 107.287 148.803 107.287C151.715 107.287 154.319 107.964 156.614 109.317C158.92 110.67 160.739 112.624 162.071 115.179C163.413 117.724 164.084 120.787 164.084 124.371ZM158.027 124.371C158.027 121.848 157.632 119.721 156.842 117.989C156.062 116.246 154.979 114.93 153.594 114.043C152.208 113.144 150.611 112.695 148.803 112.695C146.995 112.695 145.398 113.144 144.013 114.043C142.627 114.93 141.539 116.246 140.748 117.989C139.969 119.721 139.579 121.848 139.579 124.371C139.579 126.893 139.969 129.026 140.748 130.769C141.539 132.501 142.627 133.817 144.013 134.715C145.398 135.603 146.995 136.047 148.803 136.047C150.611 136.047 152.208 135.603 153.594 134.715C154.979 133.817 156.062 132.501 156.842 130.769C157.632 129.026 158.027 126.893 158.027 124.371ZM197.333 118.963H191.26C191.087 117.967 190.767 117.085 190.302 116.316C189.836 115.537 189.257 114.876 188.564 114.335C187.871 113.794 187.081 113.388 186.193 113.117C185.316 112.836 184.369 112.695 183.351 112.695C181.543 112.695 179.941 113.15 178.544 114.059C177.148 114.957 176.054 116.278 175.264 118.021C174.474 119.754 174.079 121.87 174.079 124.371C174.079 126.915 174.474 129.059 175.264 130.802C176.065 132.534 177.159 133.844 178.544 134.732C179.941 135.609 181.538 136.047 183.335 136.047C184.331 136.047 185.262 135.917 186.128 135.657C187.005 135.387 187.79 134.991 188.483 134.472C189.187 133.952 189.777 133.313 190.253 132.556C190.74 131.798 191.076 130.932 191.26 129.957L197.333 129.99C197.106 131.57 196.613 133.054 195.856 134.439C195.108 135.825 194.129 137.048 192.916 138.109C191.704 139.16 190.285 139.982 188.661 140.578C187.038 141.162 185.235 141.455 183.254 141.455C180.331 141.455 177.722 140.778 175.426 139.425C173.131 138.072 171.323 136.117 170.002 133.562C168.682 131.007 168.021 127.944 168.021 124.371C168.021 120.787 168.687 117.724 170.019 115.179C171.35 112.624 173.164 110.67 175.459 109.317C177.754 107.964 180.352 107.287 183.254 107.287C185.105 107.287 186.826 107.547 188.418 108.067C190.009 108.586 191.428 109.35 192.673 110.356C193.918 111.352 194.941 112.576 195.742 114.026C196.554 115.466 197.084 117.112 197.333 118.963ZM205.805 141H199.374L211.083 107.742H218.52L230.245 141H223.814L214.932 114.562H214.672L205.805 141ZM206.016 127.96H223.555V132.799H206.016V127.96ZM234.365 107.742L243.02 133.92H243.361L252.001 107.742H258.626L246.902 141H239.464L227.755 107.742H234.365ZM268.117 107.742V141H262.092V107.742H268.117ZM278.176 107.742L286.832 133.92H287.173L295.812 107.742H302.438L290.713 141H283.275L271.567 107.742H278.176Z" fill="white"/>
<path d="M176.833 175V173.605L182.07 167.872C182.685 167.2 183.191 166.617 183.589 166.121C183.987 165.62 184.281 165.15 184.472 164.711C184.669 164.267 184.767 163.802 184.767 163.316C184.767 162.758 184.632 162.275 184.364 161.867C184.1 161.459 183.739 161.144 183.279 160.922C182.819 160.7 182.303 160.589 181.729 160.589C181.12 160.589 180.588 160.715 180.133 160.968C179.684 161.216 179.335 161.565 179.087 162.014C178.845 162.464 178.723 162.991 178.723 163.595H176.895C176.895 162.665 177.109 161.849 177.538 161.147C177.967 160.444 178.55 159.897 179.289 159.504C180.033 159.112 180.867 158.915 181.791 158.915C182.721 158.915 183.545 159.112 184.263 159.504C184.981 159.897 185.544 160.426 185.952 161.092C186.36 161.759 186.564 162.5 186.564 163.316C186.564 163.9 186.458 164.471 186.247 165.028C186.04 165.581 185.678 166.198 185.162 166.88C184.65 167.557 183.94 168.383 183.031 169.36L179.467 173.171V173.295H186.843V175H176.833ZM194.782 175.217C193.615 175.217 192.621 174.899 191.799 174.264C190.978 173.623 190.35 172.696 189.917 171.482C189.483 170.263 189.266 168.791 189.266 167.066C189.266 165.351 189.483 163.887 189.917 162.673C190.356 161.454 190.986 160.524 191.807 159.884C192.634 159.238 193.625 158.915 194.782 158.915C195.939 158.915 196.928 159.238 197.75 159.884C198.576 160.524 199.206 161.454 199.64 162.673C200.079 163.887 200.299 165.351 200.299 167.066C200.299 168.791 200.082 170.263 199.648 171.482C199.214 172.696 198.587 173.623 197.765 174.264C196.944 174.899 195.95 175.217 194.782 175.217ZM194.782 173.512C195.939 173.512 196.838 172.955 197.479 171.839C198.119 170.723 198.439 169.132 198.439 167.066C198.439 165.692 198.292 164.522 197.998 163.556C197.708 162.59 197.29 161.854 196.743 161.348C196.2 160.842 195.547 160.589 194.782 160.589C193.636 160.589 192.739 161.154 192.094 162.286C191.448 163.412 191.125 165.005 191.125 167.066C191.125 168.44 191.27 169.607 191.559 170.568C191.848 171.529 192.264 172.26 192.807 172.761C193.354 173.262 194.013 173.512 194.782 173.512ZM202.807 175V173.605L208.044 167.872C208.659 167.2 209.165 166.617 209.563 166.121C209.961 165.62 210.255 165.15 210.446 164.711C210.642 164.267 210.741 163.802 210.741 163.316C210.741 162.758 210.606 162.275 210.338 161.867C210.074 161.459 209.713 161.144 209.253 160.922C208.793 160.7 208.277 160.589 207.703 160.589C207.094 160.589 206.562 160.715 206.107 160.968C205.658 161.216 205.309 161.565 205.061 162.014C204.819 162.464 204.697 162.991 204.697 163.595H202.869C202.869 162.665 203.083 161.849 203.512 161.147C203.94 160.444 204.524 159.897 205.263 159.504C206.007 159.112 206.841 158.915 207.765 158.915C208.695 158.915 209.519 159.112 210.237 159.504C210.955 159.897 211.518 160.426 211.926 161.092C212.334 161.759 212.538 162.5 212.538 163.316C212.538 163.9 212.432 164.471 212.22 165.028C212.014 165.581 211.652 166.198 211.136 166.88C210.624 167.557 209.914 168.383 209.005 169.36L205.441 173.171V173.295H212.817V175H202.807ZM220.539 175.217C219.63 175.217 218.811 175.036 218.083 174.675C217.355 174.313 216.771 173.817 216.332 173.187C215.893 172.557 215.653 171.839 215.612 171.033H217.471C217.543 171.751 217.869 172.345 218.447 172.815C219.031 173.28 219.728 173.512 220.539 173.512C221.19 173.512 221.769 173.36 222.275 173.055C222.786 172.751 223.186 172.332 223.476 171.8C223.77 171.263 223.917 170.656 223.917 169.979C223.917 169.287 223.765 168.67 223.46 168.128C223.161 167.58 222.747 167.149 222.221 166.834C221.694 166.519 221.092 166.358 220.415 166.353C219.93 166.348 219.431 166.423 218.92 166.578C218.409 166.728 217.988 166.921 217.657 167.159L215.859 166.942L216.82 159.132H225.064V160.837H218.432L217.874 165.517H217.967C218.292 165.258 218.7 165.044 219.191 164.873C219.682 164.703 220.193 164.618 220.725 164.618C221.696 164.618 222.561 164.85 223.321 165.315C224.085 165.775 224.684 166.405 225.118 167.206C225.557 168.006 225.777 168.92 225.777 169.948C225.777 170.961 225.55 171.865 225.095 172.66C224.646 173.45 224.026 174.075 223.235 174.535C222.445 174.99 221.546 175.217 220.539 175.217Z" fill="white"/>
<path d="M354.838 73.6038C357.208 77.1463 359.484 81.5164 358.365 86.1997C354.504 83.9897 351.398 80.3814 348.935 76.8193C346.455 73.2333 343.88 69.42 342.998 65C347.868 66.2457 352.228 69.7037 354.838 73.6038Z" fill="white"/>
<path d="M361.756 95.1908C360.38 91.4902 357.37 88.2635 354.094 86.7585C351.052 85.3629 347.012 83.9064 343.462 85.6948C345.394 89.0871 348.575 91.9415 351.824 93.7369C354.745 95.3511 358.445 97.3068 362.107 96.4662C366.098 95.8549 368.027 91.8818 369.1 88.8763C370.585 84.723 369.57 79.1764 367.035 75.1016C363.54 76.5581 362.474 80.8794 361.744 83.9369C360.911 87.4172 360.888 91.4796 361.756 95.1908Z" fill="white"/>
<path d="M358.887 100.538C361.701 102.545 363.861 106.215 364.325 109.982C364.365 106.207 365.392 102.31 367.041 99.1713C368.55 96.2995 370.655 92.4182 374.4 91.6445C375.871 96.1159 375.395 101.585 373.016 105.204C371.217 107.946 368.431 111.38 364.377 111.288C360.677 111.477 357.482 108.95 354.968 106.841C352.263 104.573 349.823 101.257 348.797 97.6733C352.574 96.5764 356.19 98.6157 358.887 100.538Z" fill="white"/>
<path d="M363.374 124.805C363.786 121.113 362.552 117.122 360.251 114.657C358.036 112.279 354.93 109.688 351.063 110.101C351.141 113.841 353.013 117.405 354.945 120.075C356.744 122.562 359.515 125.638 363.143 126.081C366.915 126.72 370.597 124.411 372.99 121.694C376.067 118.199 377.901 113.507 377.535 108.808C373.659 108.904 370.724 112.249 368.553 114.779C366.211 117.508 364.293 121.099 363.374 124.805Z" fill="white"/>
<path d="M357.882 128.165C359.716 131.811 360.065 136.148 358.65 139.966C360.737 136.037 363.791 132.86 367.024 129.924C369.962 127.256 374.195 124.446 378.454 124.978C377.641 130.245 374.42 135.707 370.1 138.514C366.628 140.769 362.421 143.002 358.001 141.316C354.364 140.033 352.055 136.371 350.636 133.01C349.134 129.454 348.133 125.355 348.834 121.465C352.822 121.822 356.129 124.679 357.882 128.165Z" fill="white"/>
<path d="M350.175 154.019C352.482 150.506 353.287 146.11 352.344 141.983C351.45 138.074 348.731 134.504 344.766 133.394C343.113 137.16 343.085 141.541 343.684 145.514C344.244 149.19 345.611 153.479 349.007 155.53C353.203 158.191 358.102 156.617 362.125 155.025C367.315 152.972 372.001 148.004 374.193 142.665C369.657 141.227 365.02 143.599 361.24 145.566C357.33 147.601 353.246 150.503 350.175 154.019Z" fill="white"/>
<path d="M332.827 156.913C332.322 160.746 332.331 165.609 335.307 168.563C339.021 172.373 344.779 171.642 349.22 170.808C355.183 169.687 361.896 165.625 365.498 160.215C361.109 157.794 355.734 159.336 351.386 160.585L351.135 160.657C346.282 162.049 341.109 164.294 336.78 167.362C340.235 164.245 342.752 159.671 342.879 155.057C342.994 150.93 341.207 146.513 337.354 144.542C334.658 148.073 333.395 152.608 332.827 156.913Z" fill="white"/>
<path d="M329.497 184.994C324.733 184.893 318.196 184.325 315.531 179.403L315.494 179.336C313.366 175.176 315.529 170.313 317.253 166.715C319.303 162.437 322.103 158.078 326.106 154.949C329.947 158.263 329.575 163 328.43 167.116C327.066 172.011 322.354 176.181 317.475 178.555C323.124 176.453 329.292 175.194 335.16 174.825L335.757 174.787C340.472 174.484 346.608 174.089 350.36 177.541C344.676 182.364 336.608 185.144 329.497 184.994Z" fill="white"/>
</svg>
