<svg width="539" height="250" viewBox="0 0 539 250" fill="none" xmlns="http://www.w3.org/2000/svg">
<path d="M45.0379 86.1862C43.922 81.5024 46.2016 77.1344 48.5761 73.5942C51.1898 69.6967 55.551 66.2422 60.4216 65C59.5367 69.4188 56.9578 73.2303 54.4755 76.8138C52.0099 80.3739 48.9002 83.9796 45.0379 86.1862Z" fill="white"/>
<path d="M41.6395 95.1708C42.5106 91.4616 42.4912 87.401 41.662 83.9219C40.9328 80.8643 39.8717 76.5422 36.3793 75.0837C33.8408 79.1556 32.8204 84.7007 34.2999 88.8556C35.3696 91.861 37.2934 95.8345 41.2831 96.4496C44.9441 97.2935 48.6461 95.3406 51.5699 93.7282C54.8209 91.9357 58.0053 89.0837 59.94 85.6931C56.3909 83.9017 52.349 85.3555 49.3081 86.7487C46.0303 88.2507 43.0192 91.4732 41.6395 95.1708Z" fill="white"/>
<path d="M30.3673 105.18C32.1677 107.926 34.9536 111.367 39.0157 111.269C42.7096 111.453 45.9009 108.933 48.414 106.829C51.1207 104.562 53.5638 101.249 54.5951 97.666C50.8171 96.5668 47.1999 98.6031 44.5025 100.524C41.6857 102.53 39.5194 106.201 39.054 109.97C39.0191 106.194 37.997 102.294 36.3491 99.1515C34.8426 96.2791 32.7432 92.3963 28.9977 91.6201C27.522 96.0896 27.9928 101.558 30.3673 105.18Z" fill="white"/>
<path d="M40.2158 126.062C36.4458 126.694 32.7683 124.384 30.38 121.667C27.3052 118.169 25.4757 113.476 25.8488 108.779C29.7217 108.877 32.655 112.225 34.823 114.756C37.158 117.483 39.0711 121.07 39.9889 124.771C39.5852 121.083 40.8233 117.101 43.1217 114.64C45.3401 112.265 48.4478 109.676 52.3144 110.091C52.2311 113.831 50.3566 117.394 48.4233 120.062C46.6212 122.548 43.8451 125.624 40.2158 126.062Z" fill="white"/>
<path d="M33.2521 138.488C36.7242 140.749 40.9354 142.986 45.3611 141.293C48.9918 140.008 51.3003 136.354 52.7201 132.999C54.224 129.445 55.2286 125.346 54.5331 121.456C50.5434 121.81 47.235 124.665 45.4779 128.149C43.6409 131.792 43.2885 136.128 44.6996 139.947C42.6147 136.018 39.5655 132.839 36.3355 129.901C33.3994 127.231 29.1701 124.418 24.9102 124.947C25.7207 130.214 28.9345 135.677 33.2521 138.488Z" fill="white"/>
<path d="M54.3054 155.53C57.7222 153.488 59.0973 149.19 59.6593 145.507C60.2651 141.535 60.2391 137.155 58.5896 133.387C54.6255 134.494 51.9045 138.062 51.006 141.97C50.0568 146.098 50.8578 150.499 53.1668 154.014C50.0974 150.493 46.016 147.585 42.1047 145.546C38.3266 143.577 33.6916 141.201 29.1543 142.636C31.3422 147.976 36.0225 152.947 41.2097 155.004C45.2268 156.596 50.1139 158.17 54.3054 155.53Z" fill="white"/>
<path d="M70.5033 156.913C71.0047 160.747 70.9906 165.609 68.0141 168.56C64.2945 172.367 58.5381 171.633 54.0983 170.795C48.1378 169.67 41.4282 165.604 37.832 160.191C42.224 157.773 47.5954 159.32 51.9436 160.572L52.1918 160.643C57.0454 162.04 62.2176 164.289 66.5433 167.362C63.0913 164.243 60.5761 159.664 60.453 155.05C60.3423 150.923 62.1337 146.507 65.9888 144.54C68.6802 148.072 69.9405 152.607 70.5033 156.913Z" fill="white"/>
<path d="M87.778 179.415C89.9699 175.243 87.7982 170.345 86.0676 166.726C84.0215 162.447 81.2261 158.086 77.2254 154.954C73.3839 158.265 73.7492 163.002 74.8913 167.119C76.2494 172.014 80.9576 176.187 85.8331 178.565C80.1866 176.459 74.02 175.195 68.1529 174.822L67.5586 174.784C62.8451 174.477 56.709 174.077 52.9531 177.526C58.6319 182.354 66.6982 185.139 73.8074 184.995C78.5716 184.898 85.1083 184.334 87.778 179.415Z" fill="white"/>
<path d="M94.0472 77.5V53.6983H98.3589V63.7745H109.388V53.6983H113.711V77.5H109.388V67.3889H98.3589V77.5H94.0472ZM139.014 65.5992C139.014 68.1637 138.534 70.3603 137.573 72.1888C136.62 74.0096 135.319 75.4042 133.668 76.3727C132.026 77.3412 130.162 77.8254 128.078 77.8254C125.994 77.8254 124.127 77.3412 122.476 76.3727C120.834 75.3964 119.532 73.9979 118.572 72.1772C117.619 70.3487 117.142 68.156 117.142 65.5992C117.142 63.0346 117.619 60.8419 118.572 59.0212C119.532 57.1927 120.834 55.7942 122.476 54.8257C124.127 53.8572 125.994 53.3729 128.078 53.3729C130.162 53.3729 132.026 53.8572 133.668 54.8257C135.319 55.7942 136.62 57.1927 137.573 59.0212C138.534 60.8419 139.014 63.0346 139.014 65.5992ZM134.679 65.5992C134.679 63.7939 134.397 62.2714 133.831 61.0318C133.273 59.7843 132.498 58.843 131.507 58.2076C130.515 57.5646 129.372 57.243 128.078 57.243C126.784 57.243 125.642 57.5646 124.65 58.2076C123.658 58.843 122.879 59.7843 122.314 61.0318C121.756 62.2714 121.477 63.7939 121.477 65.5992C121.477 67.4044 121.756 68.9308 122.314 70.1782C122.879 71.4179 123.658 72.3592 124.65 73.0023C125.642 73.6377 126.784 73.9553 128.078 73.9553C129.372 73.9553 130.515 73.6377 131.507 73.0023C132.498 72.3592 133.273 71.4179 133.831 70.1782C134.397 68.9308 134.679 67.4044 134.679 65.5992ZM161.996 53.6983V77.5H158.161L146.946 61.2874H146.748V77.5H142.436V53.6983H146.295L157.498 69.9225H157.707V53.6983H161.996ZM187.308 65.5992C187.308 68.1637 186.827 70.3603 185.867 72.1888C184.914 74.0096 183.612 75.4042 181.962 76.3727C180.319 77.3412 178.456 77.8254 176.371 77.8254C174.287 77.8254 172.42 77.3412 170.77 76.3727C169.127 75.3964 167.825 73.9979 166.865 72.1772C165.912 70.3487 165.435 68.156 165.435 65.5992C165.435 63.0346 165.912 60.8419 166.865 59.0212C167.825 57.1927 169.127 55.7942 170.77 54.8257C172.42 53.8572 174.287 53.3729 176.371 53.3729C178.456 53.3729 180.319 53.8572 181.962 54.8257C183.612 55.7942 184.914 57.1927 185.867 59.0212C186.827 60.8419 187.308 63.0346 187.308 65.5992ZM182.973 65.5992C182.973 63.7939 182.69 62.2714 182.124 61.0318C181.566 59.7843 180.792 58.843 179.8 58.2076C178.808 57.5646 177.665 57.243 176.371 57.243C175.078 57.243 173.935 57.5646 172.943 58.2076C171.951 58.843 171.173 59.7843 170.607 61.0318C170.049 62.2714 169.77 63.7939 169.77 65.5992C169.77 67.4044 170.049 68.9308 170.607 70.1782C171.173 71.4179 171.951 72.3592 172.943 73.0023C173.935 73.6377 175.078 73.9553 176.371 73.9553C177.665 73.9553 178.808 73.6377 179.8 73.0023C180.792 72.3592 181.566 71.4179 182.124 70.1782C182.69 68.9308 182.973 67.4044 182.973 65.5992ZM190.729 77.5V53.6983H199.655C201.484 53.6983 203.018 54.016 204.257 54.6513C205.505 55.2867 206.446 56.1777 207.081 57.3244C207.725 58.4633 208.046 59.7921 208.046 61.3107C208.046 62.837 207.721 64.1619 207.07 65.2854C206.427 66.4011 205.478 67.265 204.222 67.8771C202.967 68.4814 201.425 68.7836 199.597 68.7836H193.24V65.204H199.016C200.085 65.204 200.961 65.0568 201.642 64.7624C202.324 64.4602 202.828 64.0225 203.153 63.4491C203.486 62.868 203.653 62.1552 203.653 61.3107C203.653 60.4662 203.486 59.7456 203.153 59.149C202.82 58.5447 202.313 58.0875 201.631 57.7776C200.949 57.46 200.07 57.3011 198.993 57.3011H195.041V77.5H190.729ZM203.025 66.7149L208.918 77.5H204.106L198.319 66.7149H203.025ZM214.417 77.5H209.815L218.194 53.6983H223.517L231.908 77.5H227.306L220.949 58.5795H220.763L214.417 77.5ZM214.568 68.1676H227.12V71.6309H214.568V68.1676ZM234.388 77.5V53.6983H243.5C245.22 53.6983 246.65 53.9695 247.788 54.5119C248.935 55.0465 249.791 55.7787 250.357 56.7084C250.93 57.6382 251.217 58.6919 251.217 59.8696C251.217 60.8381 251.031 61.6671 250.659 62.3567C250.287 63.0385 249.787 63.5925 249.16 64.0186C248.532 64.4447 247.831 64.7508 247.056 64.9367V65.1692C247.901 65.2156 248.71 65.4752 249.485 65.9478C250.268 66.4127 250.907 67.0713 251.403 67.9236C251.899 68.7758 252.147 69.8063 252.147 71.015C252.147 72.2469 251.848 73.3549 251.252 74.3388C250.655 75.3151 249.756 76.086 248.556 76.6516C247.355 77.2172 245.844 77.5 244.023 77.5H234.388ZM238.7 73.8972H243.337C244.902 73.8972 246.03 73.5989 246.719 73.0023C247.417 72.398 247.765 71.6232 247.765 70.6779C247.765 69.9729 247.591 69.3376 247.242 68.772C246.894 68.1986 246.398 67.7492 245.755 67.4238C245.112 67.0906 244.345 66.9241 243.453 66.9241H238.7V73.8972ZM238.7 63.821H242.965C243.709 63.821 244.379 63.6854 244.976 63.4143C245.573 63.1353 246.041 62.7441 246.382 62.2404C246.731 61.7291 246.905 61.1247 246.905 60.4274C246.905 59.5054 246.58 58.7461 245.929 58.1495C245.286 57.5529 244.329 57.2546 243.058 57.2546H238.7V63.821ZM255.243 77.5V53.6983H259.555V73.8856H270.038V77.5H255.243ZM273.125 77.5V53.6983H288.606V57.3128H277.437V63.7745H287.804V67.3889H277.437V73.8856H288.699V77.5H273.125ZM299.814 53.6983H305.09L312.156 70.9452H312.435L319.501 53.6983H324.777V77.5H320.64V61.148H320.419L313.841 77.4303H310.75L304.172 61.1131H303.951V77.5H299.814V53.6983ZM328.818 77.5V53.6983H344.298V57.3128H333.13V63.7745H343.497V67.3889H333.13V73.8856H344.391V77.5H328.818ZM367.602 53.6983V77.5H363.767L352.552 61.2874H352.355V77.5H348.043V53.6983H351.901L363.105 69.9225H363.314V53.6983H367.602ZM370.6 57.3128V53.6983H389.59V57.3128H382.234V77.5H377.957V57.3128H370.6ZM396.908 53.6983V77.5H392.597V53.6983H396.908ZM422.191 65.5992C422.191 68.1637 421.711 70.3603 420.75 72.1888C419.797 74.0096 418.495 75.4042 416.845 76.3727C415.202 77.3412 413.339 77.8254 411.255 77.8254C409.171 77.8254 407.303 77.3412 405.653 76.3727C404.01 75.3964 402.709 73.9979 401.748 72.1772C400.795 70.3487 400.319 68.156 400.319 65.5992C400.319 63.0346 400.795 60.8419 401.748 59.0212C402.709 57.1927 404.01 55.7942 405.653 54.8257C407.303 53.8572 409.171 53.3729 411.255 53.3729C413.339 53.3729 415.202 53.8572 416.845 54.8257C418.495 55.7942 419.797 57.1927 420.75 59.0212C421.711 60.8419 422.191 63.0346 422.191 65.5992ZM417.856 65.5992C417.856 63.7939 417.573 62.2714 417.008 61.0318C416.45 59.7843 415.675 58.843 414.683 58.2076C413.692 57.5646 412.549 57.243 411.255 57.243C409.961 57.243 408.818 57.5646 407.826 58.2076C406.835 58.843 406.056 59.7843 405.49 61.0318C404.932 62.2714 404.654 63.7939 404.654 65.5992C404.654 67.4044 404.932 68.9308 405.49 70.1782C406.056 71.4179 406.835 72.3592 407.826 73.0023C408.818 73.6377 409.961 73.9553 411.255 73.9553C412.549 73.9553 413.692 73.6377 414.683 73.0023C415.675 72.3592 416.45 71.4179 417.008 70.1782C417.573 68.9308 417.856 67.4044 417.856 65.5992ZM445.173 53.6983V77.5H441.337L430.122 61.2874H429.925V77.5H425.613V53.6983H429.471L440.675 69.9225H440.884V53.6983H445.173ZM215.904 110.5H211.302L219.681 86.6983H225.004L233.395 110.5H228.792L222.435 91.5795H222.249L215.904 110.5ZM216.055 101.168H228.607V104.631H216.055V101.168ZM238.647 110.5L231.93 86.6983H236.567L240.855 104.189H241.076L245.655 86.6983H249.874L254.464 104.201H254.674L258.962 86.6983H263.599L256.882 110.5H252.628L247.863 93.7993H247.677L242.901 110.5H238.647ZM266.754 110.5H262.152L270.531 86.6983H275.854L284.245 110.5H279.642L273.285 91.5795H273.099L266.754 110.5ZM266.905 101.168H279.457V104.631H266.905V101.168ZM286.725 110.5V86.6983H295.651C297.479 86.6983 299.013 87.016 300.253 87.6513C301.501 88.2867 302.442 89.1777 303.077 90.3244C303.72 91.4633 304.042 92.7921 304.042 94.3107C304.042 95.837 303.716 97.1619 303.066 98.2854C302.423 99.4011 301.473 100.265 300.218 100.877C298.963 101.481 297.421 101.784 295.593 101.784H289.236V98.204H295.012C296.081 98.204 296.956 98.0568 297.638 97.7624C298.32 97.4602 298.824 97.0225 299.149 96.4491C299.482 95.868 299.649 95.1552 299.649 94.3107C299.649 93.4662 299.482 92.7456 299.149 92.149C298.816 91.5447 298.308 91.0875 297.627 90.7776C296.945 90.46 296.065 90.3011 294.988 90.3011H291.037V110.5H286.725ZM299.021 99.7149L304.913 110.5H300.102L294.314 99.7149H299.021ZM315.422 110.5H307.356V86.6983H315.584C317.948 86.6983 319.978 87.1748 321.674 88.1278C323.379 89.0731 324.688 90.4328 325.603 92.2071C326.517 93.9814 326.974 96.1043 326.974 98.5759C326.974 101.055 326.513 103.186 325.591 104.968C324.677 106.75 323.356 108.118 321.628 109.071C319.908 110.024 317.839 110.5 315.422 110.5ZM311.668 106.769H315.213C316.871 106.769 318.254 106.467 319.362 105.863C320.47 105.251 321.302 104.34 321.86 103.132C322.418 101.915 322.697 100.397 322.697 98.5759C322.697 96.7552 322.418 95.2443 321.86 94.0434C321.302 92.8347 320.477 91.9321 319.385 91.3355C318.3 90.7311 316.952 90.429 315.34 90.429H311.668V106.769Z" fill="white"/>
<path d="M165.543 123.337V121.632H177.444V123.337H172.454V137.5H170.533V123.337H165.543ZM182.989 137.748C181.842 137.748 180.853 137.495 180.022 136.989C179.195 136.477 178.557 135.764 178.108 134.85C177.664 133.931 177.442 132.862 177.442 131.643C177.442 130.424 177.664 129.349 178.108 128.419C178.557 127.485 179.182 126.756 179.983 126.235C180.789 125.708 181.729 125.444 182.803 125.444C183.423 125.444 184.035 125.548 184.639 125.754C185.244 125.961 185.794 126.296 186.29 126.761C186.786 127.221 187.181 127.831 187.475 128.59C187.77 129.349 187.917 130.284 187.917 131.395V132.169H178.743V130.589H186.057C186.057 129.917 185.923 129.318 185.654 128.791C185.391 128.264 185.014 127.849 184.523 127.544C184.038 127.239 183.464 127.087 182.803 127.087C182.075 127.087 181.445 127.268 180.913 127.629C180.386 127.986 179.98 128.45 179.696 129.024C179.412 129.597 179.27 130.212 179.27 130.868V131.921C179.27 132.82 179.425 133.582 179.735 134.207C180.05 134.827 180.486 135.3 181.044 135.625C181.602 135.945 182.25 136.105 182.989 136.105C183.469 136.105 183.903 136.038 184.291 135.904C184.683 135.764 185.022 135.558 185.306 135.284C185.59 135.005 185.809 134.659 185.964 134.246L187.731 134.742C187.545 135.341 187.232 135.868 186.793 136.322C186.354 136.772 185.812 137.123 185.166 137.376C184.521 137.624 183.795 137.748 182.989 137.748ZM192.09 121.632V137.5H190.262V121.632H192.09ZM201.602 137.5H199.587L205.414 121.632H207.397L213.224 137.5H211.209L206.468 124.143H206.344L201.602 137.5ZM202.346 131.302H210.465V133.006H202.346V131.302ZM223.251 125.599L218.85 137.5H216.991L212.59 125.599H214.573L217.858 135.083H217.982L221.267 125.599H223.251ZM225.228 137.5V125.599H227.057V137.5H225.228ZM226.158 123.616C225.801 123.616 225.494 123.494 225.236 123.252C224.983 123.009 224.856 122.717 224.856 122.376C224.856 122.035 224.983 121.743 225.236 121.501C225.494 121.258 225.801 121.136 226.158 121.136C226.514 121.136 226.819 121.258 227.072 121.501C227.33 121.743 227.459 122.035 227.459 122.376C227.459 122.717 227.33 123.009 227.072 123.252C226.819 123.494 226.514 123.616 226.158 123.616ZM239.701 125.599L235.3 137.5H233.44L229.04 125.599H231.023L234.308 135.083H234.432L237.717 125.599H239.701ZM249.547 121.632V137.5H247.626V121.632H249.547ZM254.544 130.341V137.5H252.716V125.599H254.482V127.459H254.637C254.916 126.854 255.34 126.369 255.908 126.002C256.476 125.63 257.209 125.444 258.108 125.444C258.914 125.444 259.619 125.61 260.223 125.94C260.828 126.265 261.298 126.761 261.633 127.428C261.969 128.089 262.137 128.926 262.137 129.938V137.5H260.309V130.062C260.309 129.127 260.066 128.399 259.58 127.877C259.095 127.35 258.428 127.087 257.581 127.087C256.998 127.087 256.476 127.213 256.016 127.466C255.562 127.72 255.203 128.089 254.939 128.574C254.676 129.06 254.544 129.649 254.544 130.341ZM270.218 125.599V127.149H264.05V125.599H270.218ZM265.848 122.748H267.676V134.091C267.676 134.607 267.751 134.995 267.901 135.253C268.056 135.506 268.252 135.677 268.49 135.764C268.733 135.847 268.988 135.888 269.257 135.888C269.458 135.888 269.624 135.878 269.753 135.857C269.882 135.832 269.985 135.811 270.063 135.795L270.435 137.438C270.311 137.485 270.138 137.531 269.915 137.577C269.693 137.629 269.412 137.655 269.071 137.655C268.554 137.655 268.048 137.544 267.552 137.322C267.062 137.1 266.654 136.761 266.328 136.307C266.008 135.852 265.848 135.279 265.848 134.587V122.748ZM277.394 137.748C276.247 137.748 275.258 137.495 274.426 136.989C273.6 136.477 272.962 135.764 272.512 134.85C272.068 133.931 271.846 132.862 271.846 131.643C271.846 130.424 272.068 129.349 272.512 128.419C272.962 127.485 273.587 126.756 274.387 126.235C275.193 125.708 276.133 125.444 277.208 125.444C277.827 125.444 278.44 125.548 279.044 125.754C279.648 125.961 280.198 126.296 280.694 126.761C281.19 127.221 281.585 127.831 281.88 128.59C282.174 129.349 282.321 130.284 282.321 131.395V132.169H273.148V130.589H280.462C280.462 129.917 280.327 129.318 280.059 128.791C279.795 128.264 279.418 127.849 278.928 127.544C278.442 127.239 277.869 127.087 277.208 127.087C276.479 127.087 275.849 127.268 275.317 127.629C274.79 127.986 274.385 128.45 274.101 129.024C273.817 129.597 273.675 130.212 273.675 130.868V131.921C273.675 132.82 273.83 133.582 274.139 134.207C274.455 134.827 274.891 135.3 275.449 135.625C276.007 135.945 276.655 136.105 277.394 136.105C277.874 136.105 278.308 136.038 278.695 135.904C279.088 135.764 279.426 135.558 279.71 135.284C279.994 135.005 280.214 134.659 280.369 134.246L282.135 134.742C281.949 135.341 281.637 135.868 281.198 136.322C280.759 136.772 280.216 137.123 279.571 137.376C278.925 137.624 278.199 137.748 277.394 137.748ZM284.666 137.5V125.599H286.433V127.397H286.557C286.774 126.808 287.166 126.33 287.735 125.963C288.303 125.597 288.943 125.413 289.656 125.413C289.79 125.413 289.958 125.416 290.16 125.421C290.361 125.426 290.514 125.434 290.617 125.444V127.304C290.555 127.288 290.413 127.265 290.191 127.234C289.974 127.198 289.744 127.18 289.501 127.18C288.923 127.18 288.406 127.301 287.952 127.544C287.502 127.782 287.146 128.112 286.882 128.536C286.624 128.954 286.495 129.432 286.495 129.969V137.5H284.666ZM294.176 130.341V137.5H292.348V125.599H294.114V127.459H294.269C294.548 126.854 294.972 126.369 295.54 126.002C296.108 125.63 296.842 125.444 297.741 125.444C298.546 125.444 299.251 125.61 299.856 125.94C300.46 126.265 300.93 126.761 301.266 127.428C301.602 128.089 301.769 128.926 301.769 129.938V137.5H299.941V130.062C299.941 129.127 299.698 128.399 299.213 127.877C298.727 127.35 298.061 127.087 297.214 127.087C296.63 127.087 296.108 127.213 295.649 127.466C295.194 127.72 294.835 128.089 294.572 128.574C294.308 129.06 294.176 129.649 294.176 130.341ZM308.176 137.779C307.422 137.779 306.738 137.637 306.123 137.353C305.509 137.064 305.02 136.648 304.659 136.105C304.297 135.558 304.117 134.897 304.117 134.122C304.117 133.44 304.251 132.887 304.519 132.464C304.788 132.035 305.147 131.699 305.596 131.457C306.046 131.214 306.542 131.033 307.084 130.914C307.632 130.79 308.182 130.692 308.734 130.62C309.457 130.527 310.044 130.457 310.493 130.411C310.948 130.359 311.278 130.274 311.485 130.155C311.697 130.036 311.802 129.83 311.802 129.535V129.473C311.802 128.709 311.593 128.115 311.175 127.691C310.762 127.268 310.134 127.056 309.292 127.056C308.419 127.056 307.735 127.247 307.239 127.629C306.743 128.011 306.394 128.419 306.193 128.853L304.457 128.233C304.767 127.51 305.181 126.947 305.697 126.544C306.219 126.136 306.787 125.852 307.402 125.692C308.021 125.527 308.631 125.444 309.23 125.444C309.612 125.444 310.051 125.491 310.547 125.584C311.048 125.671 311.531 125.855 311.996 126.134C312.466 126.413 312.856 126.834 313.166 127.397C313.476 127.96 313.631 128.714 313.631 129.659V137.5H311.802V135.888H311.71C311.586 136.147 311.379 136.423 311.09 136.717C310.8 137.012 310.416 137.262 309.935 137.469C309.455 137.676 308.869 137.779 308.176 137.779ZM308.455 136.136C309.179 136.136 309.788 135.994 310.284 135.71C310.785 135.426 311.162 135.059 311.415 134.61C311.673 134.161 311.802 133.688 311.802 133.192V131.519C311.725 131.612 311.555 131.697 311.291 131.774C311.033 131.847 310.733 131.911 310.392 131.968C310.057 132.02 309.729 132.066 309.408 132.107C309.093 132.144 308.838 132.175 308.641 132.2C308.166 132.262 307.722 132.363 307.309 132.503C306.901 132.637 306.57 132.841 306.317 133.115C306.069 133.383 305.945 133.75 305.945 134.215C305.945 134.85 306.18 135.331 306.65 135.656C307.125 135.976 307.727 136.136 308.455 136.136ZM321.708 125.599V127.149H315.54V125.599H321.708ZM317.338 122.748H319.166V134.091C319.166 134.607 319.241 134.995 319.391 135.253C319.546 135.506 319.742 135.677 319.98 135.764C320.223 135.847 320.478 135.888 320.747 135.888C320.948 135.888 321.114 135.878 321.243 135.857C321.372 135.832 321.475 135.811 321.553 135.795L321.925 137.438C321.801 137.485 321.628 137.531 321.405 137.577C321.183 137.629 320.902 137.655 320.561 137.655C320.044 137.655 319.538 137.544 319.042 137.322C318.552 137.1 318.144 136.761 317.818 136.307C317.498 135.852 317.338 135.279 317.338 134.587V122.748ZM324.022 137.5V125.599H325.85V137.5H324.022ZM324.952 123.616C324.595 123.616 324.288 123.494 324.03 123.252C323.776 123.009 323.65 122.717 323.65 122.376C323.65 122.035 323.776 121.743 324.03 121.501C324.288 121.258 324.595 121.136 324.952 121.136C325.308 121.136 325.613 121.258 325.866 121.501C326.124 121.743 326.253 122.035 326.253 122.376C326.253 122.717 326.124 123.009 325.866 123.252C325.613 123.494 325.308 123.616 324.952 123.616ZM333.598 137.748C332.523 137.748 331.581 137.492 330.77 136.981C329.964 136.47 329.334 135.754 328.879 134.835C328.43 133.915 328.205 132.841 328.205 131.612C328.205 130.372 328.43 129.29 328.879 128.365C329.334 127.441 329.964 126.723 330.77 126.211C331.581 125.7 332.523 125.444 333.598 125.444C334.672 125.444 335.612 125.7 336.418 126.211C337.229 126.723 337.859 127.441 338.308 128.365C338.763 129.29 338.99 130.372 338.99 131.612C338.99 132.841 338.763 133.915 338.308 134.835C337.859 135.754 337.229 136.47 336.418 136.981C335.612 137.492 334.672 137.748 333.598 137.748ZM333.598 136.105C334.414 136.105 335.085 135.896 335.612 135.478C336.139 135.059 336.529 134.509 336.782 133.827C337.035 133.146 337.162 132.407 337.162 131.612C337.162 130.816 337.035 130.075 336.782 129.388C336.529 128.701 336.139 128.146 335.612 127.722C335.085 127.299 334.414 127.087 333.598 127.087C332.782 127.087 332.11 127.299 331.583 127.722C331.056 128.146 330.666 128.701 330.413 129.388C330.16 130.075 330.034 130.816 330.034 131.612C330.034 132.407 330.16 133.146 330.413 133.827C330.666 134.509 331.056 135.059 331.583 135.478C332.11 135.896 332.782 136.105 333.598 136.105ZM343.174 130.341V137.5H341.345V125.599H343.112V127.459H343.267C343.546 126.854 343.969 126.369 344.537 126.002C345.105 125.63 345.839 125.444 346.738 125.444C347.543 125.444 348.249 125.61 348.853 125.94C349.457 126.265 349.927 126.761 350.263 127.428C350.599 128.089 350.767 128.926 350.767 129.938V137.5H348.938V130.062C348.938 129.127 348.695 128.399 348.21 127.877C347.724 127.35 347.058 127.087 346.211 127.087C345.627 127.087 345.105 127.213 344.646 127.466C344.191 127.72 343.832 128.089 343.569 128.574C343.305 129.06 343.174 129.649 343.174 130.341ZM357.174 137.779C356.419 137.779 355.735 137.637 355.12 137.353C354.506 137.064 354.018 136.648 353.656 136.105C353.294 135.558 353.114 134.897 353.114 134.122C353.114 133.44 353.248 132.887 353.517 132.464C353.785 132.035 354.144 131.699 354.594 131.457C355.043 131.214 355.539 131.033 356.081 130.914C356.629 130.79 357.179 130.692 357.731 130.62C358.455 130.527 359.041 130.457 359.49 130.411C359.945 130.359 360.275 130.274 360.482 130.155C360.694 130.036 360.8 129.83 360.8 129.535V129.473C360.8 128.709 360.59 128.115 360.172 127.691C359.759 127.268 359.131 127.056 358.289 127.056C357.416 127.056 356.732 127.247 356.236 127.629C355.74 128.011 355.392 128.419 355.19 128.853L353.455 128.233C353.765 127.51 354.178 126.947 354.694 126.544C355.216 126.136 355.784 125.852 356.399 125.692C357.019 125.527 357.628 125.444 358.227 125.444C358.61 125.444 359.049 125.491 359.544 125.584C360.046 125.671 360.528 125.855 360.993 126.134C361.463 126.413 361.853 126.834 362.163 127.397C362.473 127.96 362.628 128.714 362.628 129.659V137.5H360.8V135.888H360.707C360.583 136.147 360.376 136.423 360.087 136.717C359.798 137.012 359.413 137.262 358.932 137.469C358.452 137.676 357.866 137.779 357.174 137.779ZM357.453 136.136C358.176 136.136 358.785 135.994 359.281 135.71C359.782 135.426 360.159 135.059 360.412 134.61C360.671 134.161 360.8 133.688 360.8 133.192V131.519C360.722 131.612 360.552 131.697 360.288 131.774C360.03 131.847 359.73 131.911 359.39 131.968C359.054 132.02 358.726 132.066 358.406 132.107C358.09 132.144 357.835 132.175 357.638 132.2C357.163 132.262 356.719 132.363 356.306 132.503C355.898 132.637 355.567 132.841 355.314 133.115C355.066 133.383 354.942 133.75 354.942 134.215C354.942 134.85 355.177 135.331 355.647 135.656C356.122 135.976 356.724 136.136 357.453 136.136ZM367.358 121.632V137.5H365.529V121.632H367.358ZM177.454 150.599C177.361 149.814 176.984 149.205 176.323 148.771C175.662 148.337 174.851 148.12 173.89 148.12C173.188 148.12 172.573 148.233 172.046 148.461C171.524 148.688 171.116 149.001 170.822 149.398C170.533 149.796 170.388 150.248 170.388 150.754C170.388 151.178 170.489 151.542 170.69 151.847C170.897 152.146 171.16 152.397 171.48 152.598C171.801 152.794 172.136 152.957 172.488 153.086C172.839 153.21 173.162 153.311 173.456 153.388L175.068 153.822C175.481 153.931 175.941 154.081 176.447 154.272C176.958 154.463 177.446 154.724 177.911 155.054C178.381 155.38 178.769 155.798 179.073 156.309C179.378 156.821 179.531 157.448 179.531 158.192C179.531 159.05 179.306 159.824 178.856 160.517C178.412 161.209 177.761 161.759 176.904 162.167C176.052 162.575 175.016 162.779 173.797 162.779C172.661 162.779 171.677 162.596 170.845 162.229C170.019 161.862 169.368 161.351 168.893 160.695C168.423 160.039 168.157 159.277 168.095 158.409H170.078C170.13 159.008 170.331 159.504 170.682 159.897C171.039 160.284 171.488 160.573 172.031 160.764C172.578 160.95 173.167 161.043 173.797 161.043C174.531 161.043 175.189 160.925 175.773 160.687C176.356 160.444 176.819 160.108 177.16 159.68C177.501 159.246 177.671 158.74 177.671 158.161C177.671 157.634 177.524 157.206 177.229 156.875C176.935 156.544 176.548 156.276 176.067 156.069C175.587 155.863 175.068 155.682 174.51 155.527L172.557 154.969C171.318 154.613 170.336 154.104 169.613 153.443C168.89 152.782 168.528 151.916 168.528 150.847C168.528 149.959 168.769 149.184 169.249 148.523C169.735 147.856 170.385 147.34 171.202 146.973C172.023 146.601 172.94 146.415 173.952 146.415C174.975 146.415 175.884 146.599 176.679 146.965C177.475 147.327 178.105 147.823 178.57 148.453C179.04 149.083 179.288 149.799 179.314 150.599H177.454ZM187.181 150.599V152.149H181.014V150.599H187.181ZM182.811 147.748H184.64V159.091C184.64 159.607 184.715 159.995 184.864 160.253C185.019 160.506 185.216 160.677 185.453 160.764C185.696 160.847 185.952 160.888 186.22 160.888C186.422 160.888 186.587 160.878 186.716 160.857C186.845 160.832 186.949 160.811 187.026 160.795L187.398 162.438C187.274 162.485 187.101 162.531 186.879 162.577C186.657 162.629 186.375 162.655 186.034 162.655C185.518 162.655 185.012 162.544 184.516 162.322C184.025 162.1 183.617 161.761 183.292 161.307C182.971 160.852 182.811 160.279 182.811 159.587V147.748ZM196.995 157.634V150.599H198.824V162.5H196.995V160.486H196.871C196.592 161.09 196.158 161.604 195.57 162.027C194.981 162.446 194.237 162.655 193.338 162.655C192.594 162.655 191.933 162.492 191.355 162.167C190.776 161.836 190.322 161.34 189.991 160.679C189.661 160.013 189.495 159.174 189.495 158.161V150.599H191.324V158.037C191.324 158.905 191.567 159.597 192.052 160.114C192.543 160.63 193.168 160.888 193.927 160.888C194.382 160.888 194.844 160.772 195.314 160.54C195.789 160.307 196.187 159.951 196.507 159.471C196.833 158.99 196.995 158.378 196.995 157.634ZM206.23 162.748C205.239 162.748 204.363 162.497 203.604 161.996C202.844 161.49 202.25 160.777 201.822 159.858C201.393 158.933 201.179 157.841 201.179 156.581C201.179 155.331 201.393 154.246 201.822 153.326C202.25 152.407 202.847 151.697 203.611 151.196C204.376 150.695 205.259 150.444 206.261 150.444C207.036 150.444 207.648 150.573 208.097 150.832C208.552 151.085 208.898 151.374 209.136 151.699C209.378 152.02 209.567 152.283 209.701 152.49H209.856V146.632H211.685V162.5H209.918V160.671H209.701C209.567 160.888 209.376 161.162 209.128 161.493C208.88 161.818 208.526 162.11 208.067 162.368C207.607 162.621 206.995 162.748 206.23 162.748ZM206.478 161.105C207.212 161.105 207.831 160.914 208.338 160.532C208.844 160.145 209.229 159.61 209.492 158.928C209.756 158.241 209.887 157.448 209.887 156.55C209.887 155.661 209.758 154.884 209.5 154.217C209.242 153.546 208.859 153.024 208.353 152.652C207.847 152.275 207.222 152.087 206.478 152.087C205.703 152.087 205.058 152.286 204.541 152.683C204.03 153.076 203.645 153.611 203.387 154.287C203.134 154.959 203.007 155.713 203.007 156.55C203.007 157.397 203.136 158.166 203.395 158.858C203.658 159.545 204.045 160.093 204.557 160.501C205.073 160.904 205.714 161.105 206.478 161.105ZM219.841 162.748C218.694 162.748 217.705 162.495 216.873 161.989C216.047 161.477 215.409 160.764 214.96 159.85C214.515 158.931 214.293 157.862 214.293 156.643C214.293 155.424 214.515 154.349 214.96 153.419C215.409 152.485 216.034 151.756 216.835 151.235C217.64 150.708 218.581 150.444 219.655 150.444C220.275 150.444 220.887 150.548 221.491 150.754C222.096 150.961 222.646 151.296 223.142 151.761C223.637 152.221 224.033 152.831 224.327 153.59C224.621 154.349 224.769 155.284 224.769 156.395V157.169H215.595V155.589H222.909C222.909 154.917 222.775 154.318 222.506 153.791C222.243 153.264 221.866 152.849 221.375 152.544C220.889 152.239 220.316 152.087 219.655 152.087C218.927 152.087 218.296 152.268 217.764 152.629C217.238 152.986 216.832 153.45 216.548 154.024C216.264 154.597 216.122 155.212 216.122 155.868V156.921C216.122 157.82 216.277 158.582 216.587 159.207C216.902 159.827 217.338 160.3 217.896 160.625C218.454 160.945 219.102 161.105 219.841 161.105C220.321 161.105 220.755 161.038 221.143 160.904C221.535 160.764 221.873 160.558 222.158 160.284C222.442 160.005 222.661 159.659 222.816 159.246L224.583 159.742C224.397 160.341 224.084 160.868 223.645 161.322C223.206 161.772 222.664 162.123 222.018 162.376C221.372 162.624 220.647 162.748 219.841 162.748ZM228.942 155.341V162.5H227.114V150.599H228.88V152.459H229.035C229.314 151.854 229.738 151.369 230.306 151.002C230.874 150.63 231.608 150.444 232.506 150.444C233.312 150.444 234.017 150.61 234.621 150.94C235.226 151.265 235.696 151.761 236.032 152.428C236.367 153.089 236.535 153.926 236.535 154.938V162.5H234.707V155.062C234.707 154.127 234.464 153.399 233.978 152.877C233.493 152.35 232.827 152.087 231.979 152.087C231.396 152.087 230.874 152.213 230.414 152.466C229.96 152.72 229.601 153.089 229.337 153.574C229.074 154.06 228.942 154.649 228.942 155.341ZM244.616 150.599V152.149H238.448V150.599H244.616ZM240.246 147.748H242.074V159.091C242.074 159.607 242.149 159.995 242.299 160.253C242.454 160.506 242.65 160.677 242.888 160.764C243.131 160.847 243.386 160.888 243.655 160.888C243.856 160.888 244.022 160.878 244.151 160.857C244.28 160.832 244.383 160.811 244.461 160.795L244.833 162.438C244.709 162.485 244.536 162.531 244.314 162.577C244.091 162.629 243.81 162.655 243.469 162.655C242.953 162.655 242.446 162.544 241.95 162.322C241.46 162.1 241.052 161.761 240.726 161.307C240.406 160.852 240.246 160.279 240.246 159.587V147.748ZM252.878 162.5V146.632H262.392V148.337H254.799V153.698H261.68V155.403H254.799V162.5H252.878ZM264.999 162.5V150.599H266.827V162.5H264.999ZM265.929 148.616C265.572 148.616 265.265 148.494 265.007 148.252C264.754 148.009 264.627 147.717 264.627 147.376C264.627 147.035 264.754 146.743 265.007 146.501C265.265 146.258 265.572 146.136 265.929 146.136C266.285 146.136 266.59 146.258 266.843 146.501C267.101 146.743 267.23 147.035 267.23 147.376C267.23 147.717 267.101 148.009 266.843 148.252C266.59 148.494 266.285 148.616 265.929 148.616ZM271.569 146.632V162.5H269.74V146.632H271.569ZM274.481 162.5V150.599H276.248V152.459H276.403C276.651 151.823 277.051 151.33 277.604 150.979C278.156 150.622 278.82 150.444 279.595 150.444C280.38 150.444 281.033 150.622 281.555 150.979C282.082 151.33 282.493 151.823 282.787 152.459H282.911C283.216 151.844 283.673 151.356 284.282 150.994C284.892 150.628 285.623 150.444 286.475 150.444C287.539 150.444 288.41 150.777 289.086 151.444C289.763 152.105 290.101 153.135 290.101 154.535V162.5H288.273V154.535C288.273 153.657 288.032 153.029 287.552 152.652C287.072 152.275 286.506 152.087 285.855 152.087C285.019 152.087 284.37 152.34 283.911 152.846C283.451 153.347 283.221 153.982 283.221 154.752V162.5H281.361V154.349C281.361 153.673 281.142 153.128 280.703 152.714C280.264 152.296 279.698 152.087 279.006 152.087C278.531 152.087 278.087 152.213 277.673 152.466C277.265 152.72 276.935 153.071 276.682 153.52C276.434 153.964 276.31 154.478 276.31 155.062V162.5H274.481ZM298.956 162.5V146.632H308.47V148.337H300.877V153.698H307.758V155.403H300.877V162.5H298.956ZM315.193 162.748C314.046 162.748 313.057 162.495 312.226 161.989C311.399 161.477 310.761 160.764 310.312 159.85C309.868 158.931 309.646 157.862 309.646 156.643C309.646 155.424 309.868 154.349 310.312 153.419C310.761 152.485 311.386 151.756 312.187 151.235C312.993 150.708 313.933 150.444 315.007 150.444C315.627 150.444 316.239 150.548 316.843 150.754C317.448 150.961 317.998 151.296 318.494 151.761C318.99 152.221 319.385 152.831 319.679 153.59C319.974 154.349 320.121 155.284 320.121 156.395V157.169H310.947V155.589H318.261C318.261 154.917 318.127 154.318 317.858 153.791C317.595 153.264 317.218 152.849 316.727 152.544C316.242 152.239 315.668 152.087 315.007 152.087C314.279 152.087 313.649 152.268 313.117 152.629C312.59 152.986 312.184 153.45 311.9 154.024C311.616 154.597 311.474 155.212 311.474 155.868V156.921C311.474 157.82 311.629 158.582 311.939 159.207C312.254 159.827 312.691 160.3 313.248 160.625C313.806 160.945 314.455 161.105 315.193 161.105C315.674 161.105 316.107 161.038 316.495 160.904C316.887 160.764 317.226 160.558 317.51 160.284C317.794 160.005 318.013 159.659 318.168 159.246L319.935 159.742C319.749 160.341 319.436 160.868 318.997 161.322C318.558 161.772 318.016 162.123 317.37 162.376C316.725 162.624 315.999 162.748 315.193 162.748ZM330.896 153.264L329.253 153.729C329.15 153.456 328.997 153.19 328.796 152.931C328.6 152.668 328.331 152.451 327.99 152.28C327.649 152.11 327.213 152.025 326.681 152.025C325.953 152.025 325.346 152.193 324.86 152.528C324.38 152.859 324.14 153.28 324.14 153.791C324.14 154.246 324.305 154.605 324.635 154.868C324.966 155.132 325.483 155.351 326.185 155.527L327.952 155.961C329.016 156.219 329.808 156.614 330.33 157.146C330.852 157.673 331.113 158.352 331.113 159.184C331.113 159.866 330.916 160.475 330.524 161.012C330.136 161.55 329.594 161.973 328.897 162.283C328.199 162.593 327.389 162.748 326.464 162.748C325.25 162.748 324.245 162.485 323.45 161.958C322.655 161.431 322.151 160.661 321.939 159.649L323.675 159.215C323.84 159.855 324.152 160.336 324.612 160.656C325.077 160.976 325.684 161.136 326.433 161.136C327.285 161.136 327.962 160.956 328.463 160.594C328.969 160.227 329.222 159.788 329.222 159.277C329.222 158.864 329.078 158.518 328.788 158.239C328.499 157.955 328.055 157.743 327.456 157.603L325.472 157.138C324.382 156.88 323.582 156.48 323.07 155.937C322.564 155.39 322.311 154.706 322.311 153.884C322.311 153.213 322.5 152.619 322.877 152.102C323.259 151.586 323.778 151.18 324.434 150.886C325.095 150.591 325.844 150.444 326.681 150.444C327.859 150.444 328.783 150.702 329.455 151.219C330.131 151.736 330.612 152.417 330.896 153.264ZM338.604 150.599V152.149H332.437V150.599H338.604ZM334.235 147.748H336.063V159.091C336.063 159.607 336.138 159.995 336.288 160.253C336.443 160.506 336.639 160.677 336.877 160.764C337.119 160.847 337.375 160.888 337.644 160.888C337.845 160.888 338.01 160.878 338.14 160.857C338.269 160.832 338.372 160.811 338.449 160.795L338.821 162.438C338.697 162.485 338.524 162.531 338.302 162.577C338.08 162.629 337.799 162.655 337.458 162.655C336.941 162.655 336.435 162.544 335.939 162.322C335.448 162.1 335.04 161.761 334.715 161.307C334.395 160.852 334.235 160.279 334.235 159.587V147.748ZM340.919 162.5V150.599H342.747V162.5H340.919ZM341.848 148.616C341.492 148.616 341.185 148.494 340.926 148.252C340.673 148.009 340.547 147.717 340.547 147.376C340.547 147.035 340.673 146.743 340.926 146.501C341.185 146.258 341.492 146.136 341.848 146.136C342.205 146.136 342.509 146.258 342.763 146.501C343.021 146.743 343.15 147.035 343.15 147.376C343.15 147.717 343.021 148.009 342.763 148.252C342.509 148.494 342.205 148.616 341.848 148.616ZM355.391 150.599L350.99 162.5H349.131L344.73 150.599H346.713L349.999 160.083H350.123L353.408 150.599H355.391ZM360.508 162.779C359.754 162.779 359.07 162.637 358.455 162.353C357.84 162.064 357.352 161.648 356.991 161.105C356.629 160.558 356.448 159.897 356.448 159.122C356.448 158.44 356.582 157.887 356.851 157.464C357.12 157.035 357.479 156.699 357.928 156.457C358.377 156.214 358.873 156.033 359.416 155.914C359.963 155.79 360.513 155.692 361.066 155.62C361.789 155.527 362.375 155.457 362.825 155.411C363.279 155.359 363.61 155.274 363.816 155.155C364.028 155.036 364.134 154.83 364.134 154.535V154.473C364.134 153.709 363.925 153.115 363.507 152.691C363.093 152.268 362.466 152.056 361.624 152.056C360.751 152.056 360.066 152.247 359.571 152.629C359.075 153.011 358.726 153.419 358.525 153.853L356.789 153.233C357.099 152.51 357.512 151.947 358.029 151.544C358.55 151.136 359.119 150.852 359.733 150.692C360.353 150.527 360.963 150.444 361.562 150.444C361.944 150.444 362.383 150.491 362.879 150.584C363.38 150.671 363.863 150.855 364.328 151.134C364.798 151.413 365.188 151.834 365.498 152.397C365.808 152.96 365.963 153.714 365.963 154.659V162.5H364.134V160.888H364.041C363.917 161.147 363.711 161.423 363.421 161.717C363.132 162.012 362.747 162.262 362.267 162.469C361.787 162.676 361.2 162.779 360.508 162.779ZM360.787 161.136C361.51 161.136 362.12 160.994 362.616 160.71C363.117 160.426 363.494 160.059 363.747 159.61C364.005 159.161 364.134 158.688 364.134 158.192V156.519C364.057 156.612 363.886 156.697 363.623 156.774C363.365 156.847 363.065 156.911 362.724 156.968C362.388 157.02 362.06 157.066 361.74 157.107C361.425 157.144 361.169 157.175 360.973 157.2C360.498 157.262 360.054 157.363 359.64 157.503C359.232 157.637 358.902 157.841 358.649 158.115C358.401 158.383 358.277 158.75 358.277 159.215C358.277 159.85 358.512 160.331 358.982 160.656C359.457 160.976 360.059 161.136 360.787 161.136ZM370.692 146.632V162.5H368.864V146.632H370.692Z" fill="white"/>
<path d="M247.182 192.5V191.105L252.419 185.372C253.034 184.7 253.54 184.117 253.938 183.621C254.336 183.12 254.63 182.65 254.821 182.211C255.018 181.767 255.116 181.302 255.116 180.816C255.116 180.258 254.981 179.775 254.713 179.367C254.449 178.959 254.088 178.644 253.628 178.422C253.168 178.2 252.652 178.089 252.079 178.089C251.469 178.089 250.937 178.215 250.482 178.468C250.033 178.716 249.684 179.065 249.437 179.514C249.194 179.964 249.072 180.491 249.072 181.095H247.244C247.244 180.165 247.458 179.349 247.887 178.647C248.316 177.944 248.899 177.397 249.638 177.004C250.382 176.612 251.216 176.415 252.141 176.415C253.07 176.415 253.894 176.612 254.612 177.004C255.33 177.397 255.893 177.926 256.301 178.592C256.709 179.259 256.913 180 256.913 180.816C256.913 181.4 256.807 181.971 256.596 182.528C256.389 183.081 256.027 183.698 255.511 184.38C255 185.057 254.289 185.883 253.38 186.86L249.816 190.671V190.795H257.192V192.5H247.182ZM265.131 192.717C263.964 192.717 262.97 192.399 262.148 191.764C261.327 191.123 260.7 190.196 260.266 188.982C259.832 187.763 259.615 186.291 259.615 184.566C259.615 182.851 259.832 181.387 260.266 180.173C260.705 178.954 261.335 178.024 262.156 177.384C262.983 176.738 263.974 176.415 265.131 176.415C266.288 176.415 267.278 176.738 268.099 177.384C268.925 178.024 269.555 178.954 269.989 180.173C270.428 181.387 270.648 182.851 270.648 184.566C270.648 186.291 270.431 187.763 269.997 188.982C269.563 190.196 268.936 191.123 268.114 191.764C267.293 192.399 266.299 192.717 265.131 192.717ZM265.131 191.012C266.288 191.012 267.187 190.455 267.828 189.339C268.468 188.223 268.788 186.632 268.788 184.566C268.788 183.192 268.641 182.022 268.347 181.056C268.057 180.09 267.639 179.354 267.092 178.848C266.549 178.342 265.896 178.089 265.131 178.089C263.985 178.089 263.088 178.654 262.443 179.786C261.797 180.912 261.474 182.505 261.474 184.566C261.474 185.94 261.619 187.107 261.908 188.068C262.197 189.029 262.613 189.76 263.156 190.261C263.703 190.762 264.362 191.012 265.131 191.012ZM278.734 176.632V192.5H276.813V178.647H276.72L272.846 181.219V179.267L276.813 176.632H278.734ZM283.357 192.5L290.454 178.461V178.337H282.273V176.632H292.438V178.43L285.372 192.5H283.357Z" fill="white"/>
<path d="M490.748 73.6038C493.119 77.1463 495.394 81.5164 494.275 86.1997C490.414 83.9897 487.308 80.3814 484.846 76.8193C482.366 73.2333 479.791 69.42 478.908 65C483.779 66.2457 488.139 69.7037 490.748 73.6038Z" fill="white"/>
<path d="M497.667 95.1908C496.291 91.4902 493.281 88.2635 490.005 86.7585C486.963 85.3629 482.923 83.9064 479.373 85.6948C481.305 89.0871 484.486 91.9415 487.736 93.7369C490.657 95.3511 494.356 97.3068 498.018 96.4662C502.009 95.8549 503.938 91.8818 505.011 88.8763C506.496 84.723 505.481 79.1764 502.947 75.1016C499.452 76.5581 498.385 80.8794 497.655 83.9369C496.822 87.4172 496.799 91.4796 497.667 95.1908Z" fill="white"/>
<path d="M494.797 100.539C497.611 102.546 499.771 106.215 500.235 109.982C500.276 106.207 501.302 102.311 502.952 99.1715C504.46 96.2997 506.565 92.4184 510.311 91.6447C511.781 96.116 511.305 101.585 508.926 105.205C507.127 107.947 504.342 111.38 500.287 111.288C496.587 111.477 493.392 108.95 490.878 106.841C488.173 104.573 485.734 101.257 484.707 97.6735C488.485 96.5765 492.101 98.6158 494.797 100.539Z" fill="white"/>
<path d="M499.283 124.804C499.695 121.113 498.461 117.122 496.16 114.656C493.945 112.279 490.84 109.688 486.973 110.101C487.051 113.84 488.922 117.405 490.854 120.075C492.653 122.562 495.425 125.638 499.052 126.081C502.824 126.72 506.506 124.411 508.9 121.694C511.976 118.198 513.81 113.507 513.444 108.808C509.569 108.904 506.633 112.249 504.462 114.779C502.12 117.508 500.203 121.099 499.283 124.804Z" fill="white"/>
<path d="M493.793 128.166C495.627 131.811 495.976 136.148 494.56 139.966C496.647 136.037 499.701 132.86 502.934 129.924C505.872 127.256 510.105 124.446 514.364 124.978C513.551 130.245 510.33 135.707 506.01 138.514C502.539 140.769 498.331 143.002 493.911 141.316C490.275 140.033 487.965 136.371 486.546 133.01C485.044 129.455 484.043 125.355 484.744 121.465C488.732 121.822 492.039 124.68 493.793 128.166Z" fill="white"/>
<path d="M486.085 154.019C488.391 150.507 489.196 146.11 488.253 141.983C487.359 138.074 484.64 134.504 480.675 133.394C479.023 137.16 478.994 141.541 479.594 145.514C480.153 149.19 481.52 153.48 484.917 155.53C489.112 158.191 494.012 156.617 498.034 155.025C503.225 152.972 507.911 148.004 510.102 142.665C505.566 141.227 500.929 143.599 497.149 145.566C493.239 147.601 489.156 150.503 486.085 154.019Z" fill="white"/>
<path d="M468.738 156.913C468.233 160.746 468.242 165.609 471.218 168.562C474.932 172.373 480.69 171.642 485.131 170.807C491.095 169.687 497.808 165.625 501.409 160.215C497.02 157.794 491.645 159.336 487.297 160.585L487.046 160.656C482.193 162.049 477.02 164.293 472.691 167.362C476.146 164.245 478.663 159.67 478.79 155.057C478.906 150.93 477.118 146.512 473.265 144.542C470.569 148.072 469.306 152.607 468.738 156.913Z" fill="white"/>
<path d="M465.407 184.994C460.643 184.894 454.106 184.325 451.442 179.404L451.404 179.336C449.276 175.176 451.439 170.314 453.163 166.715C455.213 162.437 458.013 158.078 462.016 154.949C465.857 158.263 465.485 163 464.34 167.116C462.976 172.011 458.264 176.181 453.385 178.555C459.034 176.454 465.202 175.194 471.07 174.825L471.667 174.787C476.382 174.484 482.518 174.089 486.27 177.541C480.586 182.364 472.518 185.144 465.407 184.994Z" fill="white"/>
</svg>
