<svg width="538" height="250" viewBox="0 0 538 250" fill="none" xmlns="http://www.w3.org/2000/svg">
<path d="M44.5828 86.1862C43.4669 81.5024 45.7465 77.1344 48.121 73.5942C50.7348 69.6967 55.0959 66.2422 59.9665 65C59.0816 69.4188 56.5027 73.2303 54.0204 76.8138C51.5548 80.3739 48.4451 83.9796 44.5828 86.1862Z" fill="white"/>
<path d="M41.1844 95.1708C42.0555 91.4616 42.0362 87.401 41.2069 83.9219C40.4777 80.8643 39.4166 76.5422 35.9243 75.0837C33.3857 79.1556 32.3653 84.7007 33.8448 88.8556C34.9145 91.861 36.8383 95.8345 40.828 96.4496C44.4891 97.2935 48.191 95.3406 51.1148 93.7282C54.3658 91.9357 57.5502 89.0837 59.4849 85.6931C55.9358 83.9017 51.8939 85.3555 48.8531 86.7487C45.5752 88.2507 42.5641 91.4732 41.1844 95.1708Z" fill="white"/>
<path d="M29.9122 105.18C31.7126 107.926 34.4985 111.367 38.5606 111.269C42.2545 111.453 45.4458 108.933 47.959 106.829C50.6656 104.562 53.1087 101.249 54.1401 97.666C50.362 96.5668 46.7448 98.6031 44.0474 100.524C41.2306 102.53 39.0643 106.201 38.5989 109.97C38.5641 106.194 37.5419 102.294 35.8941 99.1515C34.3875 96.2791 32.2881 92.3963 28.5426 91.6201C27.0669 96.0896 27.5377 101.558 29.9122 105.18Z" fill="white"/>
<path d="M39.7607 126.062C35.9907 126.694 32.3132 124.384 29.9249 121.667C26.8501 118.169 25.0206 113.476 25.3937 108.779C29.2667 108.877 32.1999 112.225 34.3679 114.756C36.7029 117.483 38.616 121.07 39.5338 124.771C39.1301 121.083 40.3682 117.101 42.6666 114.64C44.8851 112.265 47.9928 109.676 51.8594 110.091C51.776 113.831 49.9016 117.394 47.9683 120.062C46.1661 122.548 43.39 125.624 39.7607 126.062Z" fill="white"/>
<path d="M32.797 138.488C36.2691 140.749 40.4803 142.986 44.906 141.293C48.5368 140.008 50.8452 136.354 52.265 132.999C53.769 129.445 54.7735 125.346 54.078 121.456C50.0883 121.81 46.7799 124.665 45.0228 128.149C43.1858 131.792 42.8334 136.128 44.2446 139.947C42.1596 136.018 39.1104 132.839 35.8805 129.901C32.9443 127.231 28.715 124.418 24.4551 124.947C25.2656 130.214 28.4794 135.677 32.797 138.488Z" fill="white"/>
<path d="M53.8504 155.53C57.2672 153.488 58.6422 149.19 59.2042 145.507C59.81 141.535 59.7841 137.155 58.1345 133.387C54.1704 134.494 51.4494 138.062 50.5509 141.97C49.6017 146.098 50.4027 150.499 52.7117 154.014C49.6424 150.493 45.5609 147.585 41.6496 145.546C37.8715 143.577 33.2365 141.201 28.6992 142.636C30.8871 147.976 35.5674 152.947 40.7546 155.004C44.7717 156.596 49.6588 158.17 53.8504 155.53Z" fill="white"/>
<path d="M70.0482 156.913C70.5497 160.747 70.5355 165.609 67.559 168.56C63.8395 172.367 58.0831 171.633 53.6432 170.795C47.6827 169.67 40.9731 165.604 37.377 160.191C41.7689 157.773 47.1404 159.32 51.4885 160.572L51.7368 160.643C56.5904 162.04 61.7626 164.289 66.0882 167.362C62.6362 164.243 60.121 159.664 59.9979 155.05C59.8872 150.923 61.6786 146.507 65.5337 144.54C68.2251 148.072 69.4854 152.607 70.0482 156.913Z" fill="white"/>
<path d="M87.3229 179.415C89.5148 175.243 87.3431 170.345 85.6125 166.726C83.5664 162.447 80.771 158.086 76.7703 154.954C72.9288 158.265 73.2941 163.002 74.4362 167.119C75.7943 172.014 80.5026 176.187 85.3781 178.565C79.7315 176.459 73.5649 175.195 67.6978 174.822L67.1035 174.784C62.3901 174.477 56.2539 174.077 52.498 177.526C58.1769 182.354 66.2431 185.139 73.3524 184.995C78.1166 184.898 84.6532 184.334 87.3229 179.415Z" fill="white"/>
<path d="M196.206 63.3182H206.66V104.227C206.641 107.977 205.846 111.206 204.274 113.915C202.702 116.604 200.505 118.678 197.683 120.136C194.88 121.576 191.613 122.295 187.882 122.295C184.473 122.295 181.405 121.689 178.677 120.477C175.969 119.246 173.819 117.428 172.228 115.023C170.637 112.617 169.842 109.625 169.842 106.045H180.325C180.344 107.617 180.685 108.972 181.348 110.108C182.03 111.244 182.967 112.116 184.16 112.722C185.353 113.328 186.727 113.631 188.28 113.631C189.965 113.631 191.395 113.28 192.569 112.58C193.744 111.86 194.634 110.799 195.24 109.398C195.865 107.996 196.187 106.273 196.206 104.227V63.3182ZM216.495 121.5V63.3182H253.768V72.1534H227.035V87.9489H251.211V96.7841H227.035V121.5H216.495ZM261.77 121.5V63.3182H299.043V72.1534H272.31V87.9489H296.486V96.7841H272.31V121.5H261.77ZM318.749 92.8636C315.965 92.8636 313.484 92.428 311.306 91.5568C309.128 90.6667 307.405 89.4356 306.136 87.8636C304.886 86.2917 304.232 84.4735 304.176 82.4091H312.187C312.263 83.6212 312.916 84.5777 314.147 85.2784C315.397 85.9792 316.931 86.3295 318.749 86.3295C320.624 86.3295 322.187 85.9413 323.437 85.1648C324.706 84.3883 325.34 83.3277 325.34 81.983C325.34 80.6761 324.687 79.6061 323.38 78.7727C322.073 77.9394 320.293 77.5227 318.039 77.5227H314.431V71.6989H318.039C319.914 71.6989 321.448 71.3106 322.641 70.5341C323.835 69.7386 324.431 68.7064 324.431 67.4375C324.431 66.2064 323.91 65.2026 322.869 64.4261C321.846 63.6496 320.511 63.2614 318.863 63.2614C317.121 63.2614 315.634 63.6401 314.403 64.3977C313.191 65.1553 312.556 66.1402 312.499 67.3523H304.971C305.009 65.3258 305.643 63.5455 306.874 62.0114C308.124 60.4583 309.791 59.2462 311.874 58.375C313.958 57.5038 316.297 57.0682 318.891 57.0682C321.524 57.0682 323.825 57.5038 325.795 58.375C327.784 59.2462 329.327 60.4299 330.426 61.9261C331.524 63.4223 332.073 65.0985 332.073 66.9545C332.073 69 331.363 70.6477 329.943 71.8977C328.541 73.1477 326.846 73.9242 324.857 74.2273V74.5114C327.623 74.8144 329.753 75.6856 331.249 77.125C332.765 78.5455 333.522 80.3447 333.522 82.5227C333.522 84.5303 332.888 86.3106 331.619 87.8636C330.35 89.4167 328.598 90.6383 326.363 91.5284C324.147 92.4186 321.609 92.8636 318.749 92.8636ZM337.37 86.4148V80.2216L353.591 57.5227H358.932V66.017H355.75L345.381 79.8523V80.108H368.364V86.4148H337.37ZM355.978 92.4091V84.5114L356.063 81.7841V57.5227H363.506V92.4091H355.978Z" fill="white"/>
<path d="M136.522 148.632H138.444V159.975C138.444 160.988 138.258 161.848 137.886 162.555C137.514 163.263 136.99 163.8 136.313 164.167C135.637 164.534 134.839 164.717 133.919 164.717C133.051 164.717 132.279 164.559 131.602 164.244C130.926 163.924 130.394 163.47 130.006 162.881C129.619 162.292 129.425 161.592 129.425 160.781H131.316C131.316 161.23 131.427 161.623 131.649 161.959C131.876 162.289 132.186 162.548 132.579 162.733C132.971 162.919 133.418 163.012 133.919 163.012C134.472 163.012 134.942 162.896 135.329 162.664C135.717 162.431 136.011 162.09 136.213 161.641C136.419 161.186 136.522 160.631 136.522 159.975V148.632ZM141.858 164.5V148.632H151.435V150.337H143.78V155.698H150.939V157.403H143.78V162.795H151.559V164.5H141.858ZM154.462 164.5V148.632H159.823C161.063 148.632 162.08 148.844 162.876 149.268C163.671 149.686 164.26 150.262 164.642 150.995C165.025 151.729 165.216 152.563 165.216 153.498C165.216 154.433 165.025 155.262 164.642 155.985C164.26 156.708 163.674 157.276 162.884 157.69C162.093 158.098 161.084 158.302 159.854 158.302H155.515V156.566H159.792C160.639 156.566 161.321 156.442 161.838 156.194C162.359 155.946 162.736 155.595 162.969 155.14C163.207 154.681 163.325 154.133 163.325 153.498C163.325 152.863 163.207 152.307 162.969 151.832C162.731 151.357 162.352 150.99 161.83 150.732C161.308 150.468 160.619 150.337 159.761 150.337H156.383V164.5H154.462ZM161.931 157.372L165.836 164.5H163.604L159.761 157.372H161.931ZM178.395 148.632H180.316V159.138C180.316 160.223 180.06 161.192 179.549 162.044C179.043 162.891 178.327 163.56 177.403 164.051C176.478 164.536 175.393 164.779 174.149 164.779C172.904 164.779 171.819 164.536 170.895 164.051C169.97 163.56 169.252 162.891 168.741 162.044C168.234 161.192 167.981 160.223 167.981 159.138V148.632H169.903V158.983C169.903 159.758 170.073 160.448 170.414 161.052C170.755 161.651 171.241 162.124 171.871 162.47C172.506 162.811 173.265 162.981 174.149 162.981C175.032 162.981 175.791 162.811 176.427 162.47C177.062 162.124 177.547 161.651 177.883 161.052C178.224 160.448 178.395 159.758 178.395 158.983V148.632ZM192.394 152.599C192.302 151.814 191.924 151.205 191.263 150.771C190.602 150.337 189.791 150.12 188.83 150.12C188.128 150.12 187.513 150.233 186.986 150.461C186.465 150.688 186.057 151.001 185.762 151.398C185.473 151.796 185.328 152.248 185.328 152.754C185.328 153.178 185.429 153.542 185.631 153.847C185.837 154.146 186.101 154.397 186.421 154.598C186.741 154.794 187.077 154.957 187.428 155.086C187.779 155.21 188.102 155.311 188.397 155.388L190.008 155.822C190.421 155.931 190.881 156.081 191.387 156.272C191.899 156.463 192.387 156.724 192.852 157.054C193.322 157.38 193.709 157.798 194.014 158.309C194.319 158.821 194.471 159.448 194.471 160.192C194.471 161.05 194.246 161.824 193.797 162.517C193.353 163.209 192.702 163.759 191.844 164.167C190.992 164.575 189.956 164.779 188.737 164.779C187.601 164.779 186.617 164.596 185.786 164.229C184.959 163.862 184.308 163.351 183.833 162.695C183.363 162.039 183.097 161.277 183.035 160.409H185.018C185.07 161.008 185.272 161.504 185.623 161.897C185.979 162.284 186.429 162.573 186.971 162.764C187.518 162.95 188.107 163.043 188.737 163.043C189.471 163.043 190.13 162.925 190.713 162.687C191.297 162.444 191.759 162.108 192.1 161.68C192.441 161.246 192.611 160.74 192.611 160.161C192.611 159.634 192.464 159.206 192.17 158.875C191.875 158.544 191.488 158.276 191.008 158.069C190.527 157.863 190.008 157.682 189.45 157.527L187.498 156.969C186.258 156.613 185.277 156.104 184.554 155.443C183.83 154.782 183.469 153.916 183.469 152.847C183.469 151.959 183.709 151.184 184.189 150.523C184.675 149.856 185.326 149.34 186.142 148.973C186.963 148.601 187.88 148.415 188.892 148.415C189.915 148.415 190.824 148.599 191.62 148.965C192.415 149.327 193.045 149.823 193.51 150.453C193.98 151.083 194.228 151.799 194.254 152.599H192.394ZM197.845 164.5H195.83L201.657 148.632H203.64L209.467 164.5H207.452L202.71 151.143H202.586L197.845 164.5ZM198.588 158.302H206.708V160.006H198.588V158.302ZM211.502 164.5V148.632H213.423V162.795H220.799V164.5H211.502ZM223.338 164.5V148.632H232.915V150.337H225.26V155.698H232.419V157.403H225.26V162.795H233.039V164.5H223.338ZM235.942 148.632H238.235L243.627 161.804H243.813L249.206 148.632H251.499V164.5H249.702V152.444H249.547L244.588 164.5H242.853L237.894 152.444H237.739V164.5H235.942V148.632ZM260.616 164.5V148.632H270.13V150.337H262.537V155.698H269.417V157.403H262.537V164.5H260.616ZM274.906 148.632V164.5H272.985V148.632H274.906ZM278.322 164.5V148.632H280.244V162.795H287.62V164.5H278.322ZM290.159 148.632H292.452L297.845 161.804H298.031L303.423 148.632H305.717V164.5H303.919V152.444H303.764L298.806 164.5H297.07L292.111 152.444H291.956V164.5H290.159V148.632ZM314.833 164.5V148.632H324.347V150.337H316.754V155.698H323.635V157.403H316.754V164.5H314.833ZM327.202 164.5V148.632H336.778V150.337H329.124V155.698H336.283V157.403H329.124V162.795H336.902V164.5H327.202ZM348.483 152.599C348.39 151.814 348.013 151.205 347.352 150.771C346.691 150.337 345.88 150.12 344.919 150.12C344.217 150.12 343.602 150.233 343.075 150.461C342.553 150.688 342.145 151.001 341.851 151.398C341.562 151.796 341.417 152.248 341.417 152.754C341.417 153.178 341.518 153.542 341.719 153.847C341.926 154.146 342.189 154.397 342.509 154.598C342.83 154.794 343.165 154.957 343.517 155.086C343.868 155.21 344.191 155.311 344.485 155.388L346.097 155.822C346.51 155.931 346.97 156.081 347.476 156.272C347.987 156.463 348.475 156.724 348.94 157.054C349.41 157.38 349.798 157.798 350.102 158.309C350.407 158.821 350.56 159.448 350.56 160.192C350.56 161.05 350.335 161.824 349.886 162.517C349.441 163.209 348.79 163.759 347.933 164.167C347.081 164.575 346.045 164.779 344.826 164.779C343.69 164.779 342.706 164.596 341.874 164.229C341.048 163.862 340.397 163.351 339.922 162.695C339.452 162.039 339.186 161.277 339.124 160.409H341.107C341.159 161.008 341.36 161.504 341.711 161.897C342.068 162.284 342.517 162.573 343.06 162.764C343.607 162.95 344.196 163.043 344.826 163.043C345.56 163.043 346.218 162.925 346.802 162.687C347.386 162.444 347.848 162.108 348.189 161.68C348.53 161.246 348.7 160.74 348.7 160.161C348.7 159.634 348.553 159.206 348.258 158.875C347.964 158.544 347.577 158.276 347.096 158.069C346.616 157.863 346.097 157.682 345.539 157.527L343.586 156.969C342.347 156.613 341.365 156.104 340.642 155.443C339.919 154.782 339.558 153.916 339.558 152.847C339.558 151.959 339.798 151.184 340.278 150.523C340.764 149.856 341.414 149.34 342.231 148.973C343.052 148.601 343.969 148.415 344.981 148.415C346.004 148.415 346.913 148.599 347.708 148.965C348.504 149.327 349.134 149.823 349.599 150.453C350.069 151.083 350.317 151.799 350.343 152.599H348.483ZM352.415 150.337V148.632H364.315V150.337H359.326V164.5H357.404V150.337H352.415ZM368.766 148.632V164.5H366.845V148.632H368.766ZM372.833 148.632L377.544 161.99H377.73L382.441 148.632H384.455L378.629 164.5H376.645L370.819 148.632H372.833ZM385.778 164.5H383.763L389.59 148.632H391.573L397.399 164.5H395.385L390.643 151.143H390.519L385.778 164.5ZM386.521 158.302H394.641V160.006H386.521V158.302ZM399.435 164.5V148.632H401.356V162.795H408.732V164.5H399.435Z" fill="white"/>
<path d="M201.148 189.566C201.148 191.24 200.845 192.686 200.241 193.905C199.637 195.124 198.808 196.064 197.754 196.725C196.7 197.386 195.497 197.717 194.143 197.717C192.79 197.717 191.587 197.386 190.533 196.725C189.479 196.064 188.65 195.124 188.046 193.905C187.441 192.686 187.139 191.24 187.139 189.566C187.139 187.893 187.441 186.446 188.046 185.227C188.65 184.008 189.479 183.068 190.533 182.407C191.587 181.746 192.79 181.415 194.143 181.415C195.497 181.415 196.7 181.746 197.754 182.407C198.808 183.068 199.637 184.008 200.241 185.227C200.845 186.446 201.148 187.893 201.148 189.566ZM199.288 189.566C199.288 188.192 199.058 187.033 198.598 186.087C198.144 185.142 197.527 184.427 196.747 183.941C195.972 183.456 195.104 183.213 194.143 183.213C193.183 183.213 192.312 183.456 191.532 183.941C190.758 184.427 190.14 185.142 189.681 186.087C189.226 187.033 188.999 188.192 188.999 189.566C188.999 190.94 189.226 192.1 189.681 193.045C190.14 193.99 190.758 194.706 191.532 195.191C192.312 195.677 193.183 195.919 194.143 195.919C195.104 195.919 195.972 195.677 196.747 195.191C197.527 194.706 198.144 193.99 198.598 193.045C199.058 192.1 199.288 190.94 199.288 189.566ZM208.994 185.599V187.149H202.578V185.599H208.994ZM204.5 197.5V183.957C204.5 183.275 204.66 182.707 204.98 182.252C205.301 181.798 205.716 181.457 206.228 181.229C206.739 181.002 207.279 180.888 207.847 180.888C208.296 180.888 208.663 180.925 208.947 180.997C209.231 181.069 209.443 181.136 209.583 181.198L209.056 182.779C208.963 182.748 208.834 182.709 208.668 182.663C208.508 182.616 208.296 182.593 208.033 182.593C207.429 182.593 206.992 182.745 206.724 183.05C206.46 183.355 206.328 183.802 206.328 184.39V197.5H204.5ZM216.42 185.599V187.149H210.004V185.599H216.42ZM211.926 197.5V183.957C211.926 183.275 212.086 182.707 212.406 182.252C212.726 181.798 213.142 181.457 213.654 181.229C214.165 181.002 214.705 180.888 215.273 180.888C215.722 180.888 216.089 180.925 216.373 180.997C216.657 181.069 216.869 181.136 217.008 181.198L216.482 182.779C216.389 182.748 216.259 182.709 216.094 182.663C215.934 182.616 215.722 182.593 215.459 182.593C214.855 182.593 214.418 182.745 214.149 183.05C213.886 183.355 213.754 183.802 213.754 184.39V197.5H211.926ZM218.546 197.5V185.599H220.374V197.5H218.546ZM219.476 183.616C219.119 183.616 218.812 183.494 218.554 183.252C218.3 183.009 218.174 182.717 218.174 182.376C218.174 182.035 218.3 181.743 218.554 181.501C218.812 181.258 219.119 181.136 219.476 181.136C219.832 181.136 220.137 181.258 220.39 181.501C220.648 181.743 220.777 182.035 220.777 182.376C220.777 182.717 220.648 183.009 220.39 183.252C220.137 183.494 219.832 183.616 219.476 183.616ZM228.122 197.748C227.006 197.748 226.045 197.485 225.24 196.958C224.434 196.431 223.814 195.705 223.38 194.78C222.946 193.856 222.729 192.8 222.729 191.612C222.729 190.403 222.951 189.336 223.396 188.412C223.845 187.482 224.47 186.756 225.271 186.235C226.076 185.708 227.016 185.444 228.091 185.444C228.928 185.444 229.682 185.599 230.353 185.909C231.025 186.219 231.575 186.653 232.003 187.211C232.432 187.769 232.698 188.419 232.802 189.163H230.973C230.834 188.621 230.524 188.14 230.043 187.722C229.568 187.299 228.928 187.087 228.122 187.087C227.409 187.087 226.784 187.273 226.247 187.645C225.715 188.011 225.299 188.53 224.999 189.202C224.705 189.868 224.558 190.651 224.558 191.55C224.558 192.469 224.702 193.27 224.992 193.951C225.286 194.633 225.699 195.163 226.231 195.54C226.768 195.917 227.399 196.105 228.122 196.105C228.597 196.105 229.028 196.023 229.416 195.857C229.803 195.692 230.131 195.455 230.4 195.145C230.668 194.835 230.859 194.463 230.973 194.029H232.802C232.698 194.731 232.443 195.364 232.034 195.927C231.632 196.485 231.097 196.929 230.431 197.26C229.769 197.585 229 197.748 228.122 197.748ZM235.038 197.5V185.599H236.867V197.5H235.038ZM235.968 183.616C235.612 183.616 235.304 183.494 235.046 183.252C234.793 183.009 234.666 182.717 234.666 182.376C234.666 182.035 234.793 181.743 235.046 181.501C235.304 181.258 235.612 181.136 235.968 181.136C236.324 181.136 236.629 181.258 236.882 181.501C237.14 181.743 237.27 182.035 237.27 182.376C237.27 182.717 237.14 183.009 236.882 183.252C236.629 183.494 236.324 183.616 235.968 183.616ZM243.281 197.779C242.527 197.779 241.843 197.637 241.228 197.353C240.614 197.064 240.125 196.648 239.764 196.105C239.402 195.558 239.222 194.897 239.222 194.122C239.222 193.44 239.356 192.887 239.624 192.464C239.893 192.035 240.252 191.699 240.701 191.457C241.151 191.214 241.647 191.033 242.189 190.914C242.737 190.79 243.287 190.692 243.839 190.62C244.562 190.527 245.149 190.457 245.598 190.411C246.053 190.359 246.383 190.274 246.59 190.155C246.802 190.036 246.907 189.83 246.907 189.535V189.473C246.907 188.709 246.698 188.115 246.28 187.691C245.867 187.268 245.239 187.056 244.397 187.056C243.524 187.056 242.84 187.247 242.344 187.629C241.848 188.011 241.499 188.419 241.298 188.853L239.562 188.233C239.872 187.51 240.286 186.947 240.802 186.544C241.324 186.136 241.892 185.852 242.507 185.692C243.126 185.527 243.736 185.444 244.335 185.444C244.717 185.444 245.156 185.491 245.652 185.584C246.153 185.671 246.636 185.855 247.101 186.134C247.571 186.413 247.961 186.834 248.271 187.397C248.581 187.96 248.736 188.714 248.736 189.659V197.5H246.907V195.888H246.814C246.691 196.147 246.484 196.423 246.195 196.717C245.905 197.012 245.521 197.262 245.04 197.469C244.56 197.676 243.974 197.779 243.281 197.779ZM243.56 196.136C244.284 196.136 244.893 195.994 245.389 195.71C245.89 195.426 246.267 195.059 246.52 194.61C246.778 194.161 246.907 193.688 246.907 193.192V191.519C246.83 191.612 246.66 191.697 246.396 191.774C246.138 191.847 245.838 191.911 245.497 191.968C245.162 192.02 244.834 192.066 244.513 192.107C244.198 192.144 243.943 192.175 243.746 192.2C243.271 192.262 242.827 192.363 242.414 192.503C242.006 192.637 241.675 192.841 241.422 193.115C241.174 193.383 241.05 193.75 241.05 194.215C241.05 194.85 241.285 195.331 241.755 195.656C242.23 195.976 242.832 196.136 243.56 196.136ZM253.466 181.632V197.5H251.637V181.632H253.466ZM271.004 185.599C270.911 184.814 270.534 184.205 269.873 183.771C269.212 183.337 268.401 183.12 267.44 183.12C266.737 183.12 266.123 183.233 265.596 183.461C265.074 183.688 264.666 184.001 264.372 184.398C264.082 184.796 263.938 185.248 263.938 185.754C263.938 186.178 264.038 186.542 264.24 186.847C264.447 187.146 264.71 187.397 265.03 187.598C265.35 187.794 265.686 187.957 266.037 188.086C266.389 188.21 266.712 188.311 267.006 188.388L268.617 188.822C269.031 188.931 269.49 189.081 269.997 189.272C270.508 189.463 270.996 189.724 271.461 190.054C271.931 190.38 272.318 190.798 272.623 191.309C272.928 191.821 273.08 192.448 273.08 193.192C273.08 194.05 272.856 194.824 272.406 195.517C271.962 196.209 271.311 196.759 270.454 197.167C269.601 197.575 268.566 197.779 267.347 197.779C266.21 197.779 265.226 197.596 264.395 197.229C263.568 196.862 262.918 196.351 262.442 195.695C261.972 195.039 261.706 194.277 261.644 193.409H263.628C263.679 194.008 263.881 194.504 264.232 194.897C264.589 195.284 265.038 195.573 265.58 195.764C266.128 195.95 266.717 196.043 267.347 196.043C268.08 196.043 268.739 195.925 269.323 195.687C269.906 195.444 270.369 195.108 270.709 194.68C271.05 194.246 271.221 193.74 271.221 193.161C271.221 192.634 271.074 192.206 270.779 191.875C270.485 191.544 270.097 191.276 269.617 191.069C269.137 190.863 268.617 190.682 268.06 190.527L266.107 189.969C264.867 189.613 263.886 189.104 263.163 188.443C262.44 187.782 262.078 186.916 262.078 185.847C262.078 184.959 262.318 184.184 262.799 183.523C263.284 182.856 263.935 182.34 264.751 181.973C265.573 181.601 266.489 181.415 267.502 181.415C268.525 181.415 269.434 181.599 270.229 181.965C271.025 182.327 271.655 182.823 272.12 183.453C272.59 184.083 272.838 184.799 272.863 185.599H271.004ZM280.545 197.748C279.398 197.748 278.409 197.495 277.577 196.989C276.751 196.477 276.113 195.764 275.664 194.85C275.219 193.931 274.997 192.862 274.997 191.643C274.997 190.424 275.219 189.349 275.664 188.419C276.113 187.485 276.738 186.756 277.539 186.235C278.344 185.708 279.285 185.444 280.359 185.444C280.979 185.444 281.591 185.548 282.195 185.754C282.8 185.961 283.35 186.296 283.846 186.761C284.341 187.221 284.737 187.831 285.031 188.59C285.325 189.349 285.473 190.284 285.473 191.395V192.169H276.299V190.589H283.613C283.613 189.917 283.479 189.318 283.21 188.791C282.947 188.264 282.57 187.849 282.079 187.544C281.593 187.239 281.02 187.087 280.359 187.087C279.631 187.087 279 187.268 278.468 187.629C277.942 187.986 277.536 188.45 277.252 189.024C276.968 189.597 276.826 190.212 276.826 190.868V191.921C276.826 192.82 276.981 193.582 277.291 194.207C277.606 194.827 278.042 195.3 278.6 195.625C279.158 195.945 279.806 196.105 280.545 196.105C281.025 196.105 281.459 196.038 281.847 195.904C282.239 195.764 282.577 195.558 282.862 195.284C283.146 195.005 283.365 194.659 283.52 194.246L285.287 194.742C285.101 195.341 284.788 195.868 284.349 196.322C283.91 196.772 283.368 197.123 282.722 197.376C282.076 197.624 281.351 197.748 280.545 197.748ZM289.646 181.632V197.5H287.818V181.632H289.646ZM297.549 197.748C296.402 197.748 295.413 197.495 294.581 196.989C293.755 196.477 293.117 195.764 292.667 194.85C292.223 193.931 292.001 192.862 292.001 191.643C292.001 190.424 292.223 189.349 292.667 188.419C293.117 187.485 293.742 186.756 294.542 186.235C295.348 185.708 296.288 185.444 297.363 185.444C297.982 185.444 298.595 185.548 299.199 185.754C299.803 185.961 300.353 186.296 300.849 186.761C301.345 187.221 301.74 187.831 302.035 188.59C302.329 189.349 302.476 190.284 302.476 191.395V192.169H293.303V190.589H300.617C300.617 189.917 300.482 189.318 300.214 188.791C299.95 188.264 299.573 187.849 299.083 187.544C298.597 187.239 298.024 187.087 297.363 187.087C296.634 187.087 296.004 187.268 295.472 187.629C294.945 187.986 294.54 188.45 294.256 189.024C293.972 189.597 293.83 190.212 293.83 190.868V191.921C293.83 192.82 293.985 193.582 294.294 194.207C294.61 194.827 295.046 195.3 295.604 195.625C296.162 195.945 296.81 196.105 297.549 196.105C298.029 196.105 298.463 196.038 298.85 195.904C299.243 195.764 299.581 195.558 299.865 195.284C300.149 195.005 300.369 194.659 300.524 194.246L302.29 194.742C302.104 195.341 301.792 195.868 301.353 196.322C300.914 196.772 300.371 197.123 299.726 197.376C299.08 197.624 298.354 197.748 297.549 197.748ZM309.656 197.748C308.54 197.748 307.58 197.485 306.774 196.958C305.968 196.431 305.348 195.705 304.914 194.78C304.481 193.856 304.264 192.8 304.264 191.612C304.264 190.403 304.486 189.336 304.93 188.412C305.379 187.482 306.004 186.756 306.805 186.235C307.611 185.708 308.551 185.444 309.625 185.444C310.462 185.444 311.216 185.599 311.888 185.909C312.559 186.219 313.109 186.653 313.538 187.211C313.967 187.769 314.233 188.419 314.336 189.163H312.507C312.368 188.621 312.058 188.14 311.578 187.722C311.102 187.299 310.462 187.087 309.656 187.087C308.943 187.087 308.318 187.273 307.781 187.645C307.249 188.011 306.833 188.53 306.534 189.202C306.239 189.868 306.092 190.651 306.092 191.55C306.092 192.469 306.237 193.27 306.526 193.951C306.82 194.633 307.234 195.163 307.766 195.54C308.303 195.917 308.933 196.105 309.656 196.105C310.131 196.105 310.563 196.023 310.95 195.857C311.337 195.692 311.665 195.455 311.934 195.145C312.203 194.835 312.394 194.463 312.507 194.029H314.336C314.233 194.731 313.977 195.364 313.569 195.927C313.166 196.485 312.631 196.929 311.965 197.26C311.304 197.585 310.534 197.748 309.656 197.748ZM321.748 185.599V187.149H315.581V185.599H321.748ZM317.378 182.748H319.207V194.091C319.207 194.607 319.282 194.995 319.432 195.253C319.587 195.506 319.783 195.677 320.02 195.764C320.263 195.847 320.519 195.888 320.787 195.888C320.989 195.888 321.154 195.878 321.283 195.857C321.412 195.832 321.516 195.811 321.593 195.795L321.965 197.438C321.841 197.485 321.668 197.531 321.446 197.577C321.224 197.629 320.942 197.655 320.601 197.655C320.085 197.655 319.579 197.544 319.083 197.322C318.592 197.1 318.184 196.761 317.859 196.307C317.538 195.852 317.378 195.279 317.378 194.587V182.748ZM324.062 197.5V185.599H325.891V197.5H324.062ZM324.992 183.616C324.636 183.616 324.328 183.494 324.07 183.252C323.817 183.009 323.69 182.717 323.69 182.376C323.69 182.035 323.817 181.743 324.07 181.501C324.328 181.258 324.636 181.136 324.992 181.136C325.348 181.136 325.653 181.258 325.906 181.501C326.165 181.743 326.294 182.035 326.294 182.376C326.294 182.717 326.165 183.009 325.906 183.252C325.653 183.494 325.348 183.616 324.992 183.616ZM333.638 197.748C332.564 197.748 331.621 197.492 330.81 196.981C330.004 196.47 329.374 195.754 328.92 194.835C328.47 193.915 328.246 192.841 328.246 191.612C328.246 190.372 328.47 189.29 328.92 188.365C329.374 187.441 330.004 186.723 330.81 186.211C331.621 185.7 332.564 185.444 333.638 185.444C334.713 185.444 335.653 185.7 336.458 186.211C337.269 186.723 337.9 187.441 338.349 188.365C338.804 189.29 339.031 190.372 339.031 191.612C339.031 192.841 338.804 193.915 338.349 194.835C337.9 195.754 337.269 196.47 336.458 196.981C335.653 197.492 334.713 197.748 333.638 197.748ZM333.638 196.105C334.454 196.105 335.126 195.896 335.653 195.478C336.18 195.059 336.57 194.509 336.823 193.827C337.076 193.146 337.202 192.407 337.202 191.612C337.202 190.816 337.076 190.075 336.823 189.388C336.57 188.701 336.18 188.146 335.653 187.722C335.126 187.299 334.454 187.087 333.638 187.087C332.822 187.087 332.151 187.299 331.624 187.722C331.097 188.146 330.707 188.701 330.454 189.388C330.201 190.075 330.074 190.816 330.074 191.612C330.074 192.407 330.201 193.146 330.454 193.827C330.707 194.509 331.097 195.059 331.624 195.478C332.151 195.896 332.822 196.105 333.638 196.105ZM343.214 190.341V197.5H341.386V185.599H343.152V187.459H343.307C343.586 186.854 344.01 186.369 344.578 186.002C345.146 185.63 345.879 185.444 346.778 185.444C347.584 185.444 348.289 185.61 348.893 185.94C349.498 186.265 349.968 186.761 350.303 187.428C350.639 188.089 350.807 188.926 350.807 189.938V197.5H348.979V190.062C348.979 189.127 348.736 188.399 348.25 187.877C347.765 187.35 347.098 187.087 346.251 187.087C345.668 187.087 345.146 187.213 344.686 187.466C344.232 187.72 343.873 188.089 343.609 188.574C343.346 189.06 343.214 189.649 343.214 190.341Z" fill="white"/>
<path d="M490.293 73.6038C492.664 77.1463 494.939 81.5164 493.82 86.1997C489.959 83.9897 486.853 80.3814 484.39 76.8193C481.911 73.2333 479.336 69.42 478.453 65C483.324 66.2457 487.684 69.7037 490.293 73.6038Z" fill="white"/>
<path d="M497.212 95.1908C495.836 91.4902 492.826 88.2635 489.55 86.7585C486.508 85.3629 482.468 83.9064 478.918 85.6948C480.85 89.0871 484.031 91.9415 487.28 93.7369C490.202 95.3511 493.901 97.3068 497.563 96.4662C501.554 95.8549 503.483 91.8818 504.556 88.8763C506.041 84.723 505.026 79.1764 502.491 75.1016C498.997 76.5581 497.93 80.8794 497.2 83.9369C496.367 87.4172 496.344 91.4796 497.212 95.1908Z" fill="white"/>
<path d="M494.342 100.539C497.156 102.546 499.316 106.215 499.78 109.982C499.821 106.207 500.847 102.311 502.497 99.1715C504.005 96.2997 506.11 92.4184 509.855 91.6447C511.326 96.116 510.85 101.585 508.471 105.205C506.672 107.947 503.886 111.38 499.832 111.288C496.132 111.477 492.937 108.95 490.423 106.841C487.718 104.573 485.279 101.257 484.252 97.6735C488.029 96.5765 491.645 98.6158 494.342 100.539Z" fill="white"/>
<path d="M498.828 124.804C499.24 121.113 498.006 117.122 495.705 114.656C493.49 112.279 490.384 109.688 486.518 110.101C486.595 113.84 488.467 117.405 490.399 120.075C492.198 122.562 494.969 125.638 498.597 126.081C502.369 126.72 506.051 124.411 508.445 121.694C511.521 118.198 513.355 113.507 512.989 108.808C509.114 108.904 506.178 112.249 504.007 114.779C501.665 117.508 499.748 121.099 498.828 124.804Z" fill="white"/>
<path d="M493.338 128.166C495.172 131.811 495.52 136.148 494.105 139.966C496.192 136.037 499.246 132.86 502.479 129.924C505.417 127.256 509.65 124.446 513.909 124.978C513.096 130.245 509.875 135.707 505.555 138.514C502.084 140.769 497.876 143.002 493.456 141.316C489.82 140.033 487.51 136.371 486.091 133.01C484.589 129.455 483.588 125.355 484.289 121.465C488.277 121.822 491.584 124.68 493.338 128.166Z" fill="white"/>
<path d="M485.629 154.019C487.936 150.507 488.741 146.11 487.798 141.983C486.904 138.074 484.185 134.504 480.22 133.394C478.567 137.16 478.539 141.541 479.138 145.514C479.698 149.19 481.065 153.48 484.462 155.53C488.657 158.191 493.556 156.617 497.579 155.025C502.77 152.972 507.455 148.004 509.647 142.665C505.111 141.227 500.474 143.599 496.694 145.566C492.784 147.601 488.7 150.503 485.629 154.019Z" fill="white"/>
<path d="M468.283 156.913C467.778 160.746 467.787 165.609 470.763 168.562C474.477 172.373 480.235 171.642 484.676 170.807C490.639 169.687 497.353 165.625 500.954 160.215C496.565 157.794 491.19 159.336 486.842 160.585L486.591 160.656C481.738 162.049 476.565 164.293 472.236 167.362C475.691 164.245 478.208 159.67 478.335 155.057C478.45 150.93 476.663 146.512 472.81 144.542C470.114 148.072 468.851 152.607 468.283 156.913Z" fill="white"/>
<path d="M464.952 184.994C460.188 184.894 453.651 184.325 450.987 179.404L450.949 179.336C448.821 175.176 450.984 170.314 452.708 166.715C454.758 162.437 457.558 158.078 461.561 154.949C465.402 158.263 465.03 163 463.885 167.116C462.521 172.011 457.809 176.181 452.93 178.555C458.579 176.454 464.747 175.194 470.615 174.825L471.212 174.787C475.927 174.484 482.063 174.089 485.815 177.541C480.131 182.364 472.063 185.144 464.952 184.994Z" fill="white"/>
</svg>
