<svg width="538" height="250" viewBox="0 0 538 250" fill="none" xmlns="http://www.w3.org/2000/svg">
<path d="M44.5828 86.1862C43.4669 81.5024 45.7465 77.1344 48.121 73.5942C50.7348 69.6967 55.0959 66.2422 59.9665 65C59.0816 69.4188 56.5027 73.2303 54.0204 76.8138C51.5548 80.3739 48.4451 83.9796 44.5828 86.1862Z" fill="white"/>
<path d="M41.1844 95.1708C42.0555 91.4616 42.0362 87.401 41.2069 83.9219C40.4777 80.8643 39.4166 76.5422 35.9243 75.0837C33.3857 79.1556 32.3653 84.7007 33.8448 88.8556C34.9145 91.861 36.8383 95.8345 40.828 96.4496C44.4891 97.2935 48.191 95.3406 51.1148 93.7282C54.3658 91.9357 57.5502 89.0837 59.4849 85.6931C55.9358 83.9017 51.8939 85.3555 48.8531 86.7487C45.5752 88.2507 42.5641 91.4732 41.1844 95.1708Z" fill="white"/>
<path d="M29.9122 105.18C31.7126 107.927 34.4985 111.367 38.5606 111.269C42.2545 111.453 45.4458 108.933 47.959 106.829C50.6656 104.562 53.1087 101.249 54.1401 97.666C50.362 96.5669 46.7448 98.6031 44.0474 100.524C41.2306 102.53 39.0643 106.201 38.5989 109.97C38.5641 106.194 37.5419 102.294 35.8941 99.1515C34.3875 96.2791 32.2881 92.3964 28.5426 91.6201C27.0669 96.0897 27.5377 101.558 29.9122 105.18Z" fill="white"/>
<path d="M39.7607 126.062C35.9907 126.694 32.3132 124.384 29.9249 121.667C26.8501 118.169 25.0206 113.476 25.3937 108.779C29.2667 108.877 32.1999 112.225 34.3679 114.756C36.7029 117.483 38.616 121.07 39.5338 124.771C39.1301 121.083 40.3682 117.101 42.6666 114.64C44.8851 112.265 47.9928 109.676 51.8594 110.091C51.776 113.831 49.9016 117.394 47.9683 120.062C46.1661 122.548 43.39 125.624 39.7607 126.062Z" fill="white"/>
<path d="M32.797 138.488C36.2691 140.749 40.4803 142.986 44.906 141.293C48.5368 140.008 50.8452 136.354 52.265 132.999C53.769 129.445 54.7735 125.346 54.078 121.456C50.0883 121.81 46.7799 124.665 45.0228 128.149C43.1858 131.792 42.8334 136.128 44.2446 139.947C42.1596 136.018 39.1104 132.839 35.8805 129.901C32.9443 127.231 28.715 124.418 24.4551 124.947C25.2656 130.214 28.4794 135.677 32.797 138.488Z" fill="white"/>
<path d="M53.8504 155.53C57.2672 153.488 58.6422 149.19 59.2042 145.507C59.81 141.535 59.7841 137.155 58.1345 133.387C54.1704 134.494 51.4494 138.062 50.5509 141.97C49.6017 146.098 50.4027 150.499 52.7117 154.014C49.6424 150.493 45.5609 147.585 41.6496 145.546C37.8715 143.577 33.2365 141.201 28.6992 142.636C30.8871 147.976 35.5674 152.947 40.7546 155.004C44.7717 156.596 49.6588 158.17 53.8504 155.53Z" fill="white"/>
<path d="M70.0482 156.913C70.5497 160.747 70.5355 165.609 67.559 168.56C63.8395 172.367 58.0831 171.633 53.6432 170.795C47.6827 169.67 40.9731 165.604 37.377 160.191C41.7689 157.773 47.1404 159.32 51.4885 160.572L51.7368 160.643C56.5904 162.04 61.7626 164.289 66.0882 167.362C62.6362 164.243 60.121 159.664 59.9979 155.05C59.8872 150.923 61.6786 146.507 65.5337 144.54C68.2251 148.072 69.4854 152.607 70.0482 156.913Z" fill="white"/>
<path d="M87.3229 179.415C89.5148 175.243 87.3431 170.345 85.6125 166.726C83.5664 162.447 80.771 158.086 76.7703 154.954C72.9288 158.265 73.2941 163.002 74.4362 167.119C75.7943 172.014 80.5026 176.187 85.3781 178.565C79.7315 176.459 73.5649 175.195 67.6978 174.822L67.1035 174.784C62.3901 174.477 56.2539 174.077 52.498 177.526C58.1769 182.354 66.2431 185.139 73.3524 184.995C78.1166 184.898 84.6532 184.334 87.3229 179.415Z" fill="white"/>
<path d="M128.147 92.0992C128.147 94.6637 127.667 96.8603 126.706 98.6888C125.753 100.51 124.452 101.904 122.801 102.873C121.159 103.841 119.295 104.325 117.211 104.325C115.127 104.325 113.26 103.841 111.609 102.873C109.967 101.896 108.665 100.498 107.704 98.6772C106.751 96.8487 106.275 94.656 106.275 92.0992C106.275 89.5346 106.751 87.3419 107.704 85.5212C108.665 83.6927 109.967 82.2942 111.609 81.3257C113.26 80.3572 115.127 79.8729 117.211 79.8729C119.295 79.8729 121.159 80.3572 122.801 81.3257C124.452 82.2942 125.753 83.6927 126.706 85.5212C127.667 87.3419 128.147 89.5346 128.147 92.0992ZM123.812 92.0992C123.812 90.2939 123.53 88.7714 122.964 87.5318C122.406 86.2843 121.631 85.343 120.64 84.7076C119.648 84.0646 118.505 83.743 117.211 83.743C115.917 83.743 114.774 84.0646 113.783 84.7076C112.791 85.343 112.012 86.2843 111.447 87.5318C110.889 88.7714 110.61 90.2939 110.61 92.0992C110.61 93.9044 110.889 95.4308 111.447 96.6782C112.012 97.9179 112.791 98.8592 113.783 99.5023C114.774 100.138 115.917 100.455 117.211 100.455C118.505 100.455 119.648 100.138 120.64 99.5023C121.631 98.8592 122.406 97.9179 122.964 96.6782C123.53 95.4308 123.812 93.9044 123.812 92.0992ZM131.569 104V80.1983H146.817V83.8128H135.881V90.2745H145.771V93.8889H135.881V104H131.569ZM150.091 104V80.1983H165.339V83.8128H154.403V90.2745H164.293V93.8889H154.403V104H150.091ZM172.924 80.1983V104H168.612V80.1983H172.924ZM197.312 88.2291H192.965C192.841 87.5163 192.613 86.8848 192.28 86.3347C191.946 85.7769 191.532 85.3042 191.036 84.9168C190.54 84.5294 189.975 84.2389 189.339 84.0452C188.712 83.8437 188.034 83.743 187.305 83.743C186.011 83.743 184.865 84.0684 183.865 84.7193C182.866 85.3623 182.083 86.3076 181.518 87.555C180.952 88.7947 180.669 90.3094 180.669 92.0992C180.669 93.9199 180.952 95.454 181.518 96.7014C182.091 97.9411 182.874 98.8786 183.865 99.5139C184.865 100.142 186.008 100.455 187.294 100.455C188.007 100.455 188.673 100.362 189.293 100.176C189.92 99.9827 190.482 99.6999 190.978 99.328C191.482 98.9561 191.904 98.499 192.245 97.9566C192.593 97.4143 192.834 96.7944 192.965 96.0971L197.312 96.1204C197.149 97.2515 196.797 98.313 196.254 99.3048C195.72 100.296 195.018 101.172 194.151 101.931C193.283 102.683 192.268 103.272 191.106 103.698C189.944 104.116 188.654 104.325 187.236 104.325C185.144 104.325 183.276 103.841 181.634 102.873C179.991 101.904 178.697 100.506 177.752 98.6772C176.807 96.8487 176.334 94.656 176.334 92.0992C176.334 89.5346 176.811 87.3419 177.764 85.5212C178.717 83.6927 180.015 82.2942 181.657 81.3257C183.3 80.3572 185.159 79.8729 187.236 79.8729C188.561 79.8729 189.792 80.0589 190.931 80.4308C192.07 80.8027 193.085 81.3489 193.976 82.0695C194.867 82.7823 195.6 83.6578 196.173 84.696C196.754 85.7265 197.134 86.9042 197.312 88.2291ZM204.918 80.1983V104H200.606V80.1983H204.918ZM211.989 104H207.386L215.766 80.1983H221.089L229.48 104H224.877L218.52 85.0795H218.334L211.989 104ZM212.14 94.6676H224.691V98.1309H212.14V94.6676ZM231.96 104V80.1983H236.272V100.386H246.755V104H231.96ZM270.241 86.7415C270.133 85.7265 269.675 84.9362 268.87 84.3706C268.072 83.805 267.033 83.5222 265.755 83.5222C264.856 83.5222 264.085 83.6578 263.442 83.929C262.799 84.2002 262.307 84.5682 261.966 85.0331C261.625 85.4979 261.451 86.0287 261.443 86.6253C261.443 87.1211 261.556 87.5511 261.78 87.9153C262.013 88.2794 262.327 88.5894 262.722 88.845C263.117 89.093 263.555 89.3022 264.035 89.4726C264.515 89.6431 265 89.7864 265.488 89.9026L267.719 90.4605C268.618 90.6697 269.482 90.9525 270.311 91.3089C271.148 91.6653 271.895 92.1147 272.554 92.657C273.22 93.1994 273.747 93.8541 274.134 94.6211C274.522 95.3882 274.715 96.2869 274.715 97.3174C274.715 98.712 274.359 99.9401 273.646 101.002C272.933 102.055 271.903 102.88 270.555 103.477C269.214 104.066 267.591 104.36 265.685 104.36C263.833 104.36 262.226 104.074 260.862 103.5C259.506 102.927 258.445 102.09 257.678 100.99C256.918 99.8897 256.508 98.5493 256.446 96.9687H260.688C260.75 97.7978 261.005 98.4873 261.455 99.0374C261.904 99.5876 262.489 99.9982 263.21 100.269C263.938 100.541 264.752 100.676 265.65 100.676C266.588 100.676 267.409 100.537 268.114 100.258C268.827 99.9711 269.385 99.5759 269.788 99.0723C270.191 98.5609 270.396 97.9644 270.404 97.2825C270.396 96.6627 270.214 96.1513 269.858 95.7484C269.501 95.3378 269.001 94.9969 268.358 94.7257C267.723 94.4468 266.979 94.1989 266.127 93.9819L263.419 93.2846C261.459 92.781 259.909 92.0178 258.77 90.9951C257.639 89.9646 257.073 88.5971 257.073 86.8926C257.073 85.4902 257.453 84.2621 258.212 83.2084C258.979 82.1547 260.022 81.3373 261.339 80.7562C262.656 80.1674 264.147 79.8729 265.813 79.8729C267.502 79.8729 268.982 80.1674 270.253 80.7562C271.531 81.3373 272.534 82.1469 273.263 83.1852C273.991 84.2156 274.367 85.4011 274.39 86.7415H270.241ZM277.905 104V80.1983H293.385V83.8128H282.217V90.2745H292.583V93.8889H282.217V100.386H293.478V104H277.905ZM297.13 104V80.1983H301.441V100.386H311.924V104H297.13ZM315.012 104V80.1983H330.492V83.8128H319.324V90.2745H329.69V93.8889H319.324V100.386H330.585V104H315.012ZM354.61 88.2291H350.263C350.139 87.5163 349.911 86.8848 349.578 86.3347C349.244 85.7769 348.83 85.3042 348.334 84.9168C347.838 84.5294 347.273 84.2389 346.637 84.0452C346.01 83.8437 345.332 83.743 344.603 83.743C343.31 83.743 342.163 84.0684 341.163 84.7193C340.164 85.3623 339.381 86.3076 338.816 87.555C338.25 88.7947 337.967 90.3094 337.967 92.0992C337.967 93.9199 338.25 95.454 338.816 96.7014C339.389 97.9411 340.172 98.8786 341.163 99.5139C342.163 100.142 343.306 100.455 344.592 100.455C345.305 100.455 345.971 100.362 346.591 100.176C347.218 99.9827 347.78 99.6999 348.276 99.328C348.78 98.9561 349.202 98.499 349.543 97.9566C349.891 97.4143 350.132 96.7944 350.263 96.0971L354.61 96.1204C354.447 97.2515 354.095 98.313 353.552 99.3048C353.018 100.296 352.316 101.172 351.449 101.931C350.581 102.683 349.566 103.272 348.404 103.698C347.242 104.116 345.952 104.325 344.534 104.325C342.442 104.325 340.575 103.841 338.932 102.873C337.289 101.904 335.995 100.506 335.05 98.6772C334.105 96.8487 333.632 94.656 333.632 92.0992C333.632 89.5346 334.109 87.3419 335.062 85.5212C336.015 83.6927 337.313 82.2942 338.955 81.3257C340.598 80.3572 342.457 79.8729 344.534 79.8729C345.859 79.8729 347.091 80.0589 348.229 80.4308C349.368 80.8027 350.383 81.3489 351.274 82.0695C352.165 82.7823 352.898 83.6578 353.471 84.696C354.052 85.7265 354.432 86.9042 354.61 88.2291ZM356.858 83.8128V80.1983H375.848V83.8128H368.491V104H364.215V83.8128H356.858ZM383.166 80.1983V104H378.854V80.1983H383.166ZM408.449 92.0992C408.449 94.6637 407.968 96.8603 407.008 98.6888C406.055 100.51 404.753 101.904 403.103 102.873C401.46 103.841 399.597 104.325 397.513 104.325C395.428 104.325 393.561 103.841 391.911 102.873C390.268 101.896 388.967 100.498 388.006 98.6772C387.053 96.8487 386.576 94.656 386.576 92.0992C386.576 89.5346 387.053 87.3419 388.006 85.5212C388.967 83.6927 390.268 82.2942 391.911 81.3257C393.561 80.3572 395.428 79.8729 397.513 79.8729C399.597 79.8729 401.46 80.3572 403.103 81.3257C404.753 82.2942 406.055 83.6927 407.008 85.5212C407.968 87.3419 408.449 89.5346 408.449 92.0992ZM404.114 92.0992C404.114 90.2939 403.831 88.7714 403.265 87.5318C402.708 86.2843 401.933 85.343 400.941 84.7076C399.949 84.0646 398.807 83.743 397.513 83.743C396.219 83.743 395.076 84.0646 394.084 84.7076C393.092 85.343 392.314 86.2843 391.748 87.5318C391.19 88.7714 390.911 90.2939 390.911 92.0992C390.911 93.9044 391.19 95.4308 391.748 96.6782C392.314 97.9179 393.092 98.8592 394.084 99.5023C395.076 100.138 396.219 100.455 397.513 100.455C398.807 100.455 399.949 100.138 400.941 99.5023C401.933 98.8592 402.708 97.9179 403.265 96.6782C403.831 95.4308 404.114 93.9044 404.114 92.0992ZM431.43 80.1983V104H427.595L416.38 87.7874H416.182V104H411.871V80.1983H415.729L426.933 96.4225H427.142V80.1983H431.43Z" fill="white"/>
<path d="M158.228 117.132L162.939 130.49H163.125L167.835 117.132H169.85L164.023 133H162.04L156.214 117.132H158.228ZM181.986 122.091C181.816 121.569 181.591 121.102 181.312 120.689C181.039 120.27 180.711 119.914 180.328 119.619C179.951 119.325 179.523 119.1 179.042 118.945C178.562 118.79 178.035 118.713 177.462 118.713C176.522 118.713 175.667 118.956 174.897 119.441C174.128 119.927 173.515 120.642 173.061 121.587C172.606 122.533 172.379 123.692 172.379 125.066C172.379 126.44 172.609 127.6 173.069 128.545C173.528 129.49 174.151 130.206 174.936 130.691C175.721 131.177 176.604 131.419 177.586 131.419C178.495 131.419 179.295 131.226 179.988 130.838C180.685 130.446 181.227 129.893 181.615 129.18C182.007 128.462 182.203 127.618 182.203 126.647L182.792 126.771H178.02V125.066H184.063V126.771C184.063 128.077 183.784 129.214 183.226 130.18C182.673 131.146 181.909 131.895 180.933 132.427C179.962 132.954 178.846 133.217 177.586 133.217C176.181 133.217 174.946 132.886 173.882 132.225C172.823 131.564 171.997 130.624 171.403 129.405C170.814 128.186 170.52 126.74 170.52 125.066C170.52 123.811 170.687 122.682 171.023 121.68C171.364 120.673 171.844 119.816 172.464 119.108C173.084 118.4 173.818 117.858 174.665 117.481C175.512 117.104 176.444 116.915 177.462 116.915C178.298 116.915 179.078 117.042 179.802 117.295C180.53 117.543 181.178 117.897 181.746 118.356C182.32 118.811 182.797 119.356 183.18 119.991C183.562 120.621 183.825 121.321 183.97 122.091H181.986ZM188.839 117.132V133H186.918V117.132H188.839ZM192.255 133V117.132H194.177V125.004H194.363L201.491 117.132H204.001L197.338 124.291L204.001 133H201.677L196.16 125.624L194.177 127.855V133H192.255ZM220.43 121.099C220.337 120.314 219.96 119.705 219.298 119.271C218.637 118.837 217.826 118.62 216.866 118.62C216.163 118.62 215.548 118.733 215.022 118.961C214.5 119.188 214.092 119.501 213.797 119.898C213.508 120.296 213.363 120.748 213.363 121.254C213.363 121.678 213.464 122.042 213.666 122.347C213.872 122.646 214.136 122.897 214.456 123.098C214.776 123.294 215.112 123.457 215.463 123.586C215.814 123.71 216.137 123.811 216.432 123.888L218.043 124.322C218.456 124.431 218.916 124.581 219.422 124.772C219.934 124.963 220.422 125.224 220.887 125.554C221.357 125.88 221.744 126.298 222.049 126.809C222.354 127.321 222.506 127.948 222.506 128.692C222.506 129.55 222.281 130.324 221.832 131.017C221.388 131.709 220.737 132.259 219.879 132.667C219.027 133.075 217.992 133.279 216.773 133.279C215.636 133.279 214.652 133.096 213.821 132.729C212.994 132.362 212.343 131.851 211.868 131.195C211.398 130.539 211.132 129.777 211.07 128.909H213.054C213.105 129.508 213.307 130.004 213.658 130.397C214.014 130.784 214.464 131.073 215.006 131.264C215.554 131.45 216.142 131.543 216.773 131.543C217.506 131.543 218.165 131.425 218.748 131.187C219.332 130.944 219.794 130.608 220.135 130.18C220.476 129.746 220.647 129.24 220.647 128.661C220.647 128.134 220.499 127.706 220.205 127.375C219.91 127.044 219.523 126.776 219.043 126.569C218.562 126.363 218.043 126.182 217.485 126.027L215.533 125.469C214.293 125.113 213.312 124.604 212.589 123.943C211.866 123.282 211.504 122.416 211.504 121.347C211.504 120.459 211.744 119.684 212.225 119.023C212.71 118.356 213.361 117.84 214.177 117.473C214.998 117.101 215.915 116.915 216.928 116.915C217.95 116.915 218.859 117.099 219.655 117.465C220.45 117.827 221.08 118.323 221.545 118.953C222.015 119.583 222.263 120.299 222.289 121.099H220.43ZM230.157 121.099V122.649H223.989V121.099H230.157ZM225.787 118.248H227.615V129.591C227.615 130.107 227.69 130.495 227.84 130.753C227.995 131.006 228.191 131.177 228.429 131.264C228.672 131.347 228.927 131.388 229.196 131.388C229.397 131.388 229.563 131.378 229.692 131.357C229.821 131.332 229.924 131.311 230.002 131.295L230.373 132.938C230.25 132.985 230.076 133.031 229.854 133.077C229.632 133.129 229.351 133.155 229.01 133.155C228.493 133.155 227.987 133.044 227.491 132.822C227.001 132.6 226.593 132.261 226.267 131.807C225.947 131.352 225.787 130.779 225.787 130.087V118.248ZM239.971 128.134V121.099H241.799V133H239.971V130.986H239.847C239.568 131.59 239.134 132.104 238.545 132.527C237.956 132.946 237.212 133.155 236.314 133.155C235.57 133.155 234.909 132.992 234.33 132.667C233.752 132.336 233.297 131.84 232.967 131.179C232.636 130.513 232.471 129.674 232.471 128.661V121.099H234.299V128.537C234.299 129.405 234.542 130.097 235.028 130.614C235.518 131.13 236.143 131.388 236.903 131.388C237.357 131.388 237.819 131.272 238.289 131.04C238.765 130.807 239.162 130.451 239.483 129.971C239.808 129.49 239.971 128.878 239.971 128.134ZM249.206 133.248C248.214 133.248 247.338 132.997 246.579 132.496C245.82 131.99 245.226 131.277 244.797 130.358C244.368 129.433 244.154 128.341 244.154 127.081C244.154 125.831 244.368 124.746 244.797 123.826C245.226 122.907 245.822 122.197 246.587 121.696C247.351 121.195 248.235 120.944 249.237 120.944C250.012 120.944 250.624 121.073 251.073 121.332C251.528 121.585 251.874 121.874 252.111 122.199C252.354 122.52 252.542 122.783 252.677 122.99H252.832V117.132H254.66V133H252.894V131.171H252.677C252.542 131.388 252.351 131.662 252.103 131.993C251.856 132.318 251.502 132.61 251.042 132.868C250.582 133.121 249.97 133.248 249.206 133.248ZM249.454 131.605C250.187 131.605 250.807 131.414 251.313 131.032C251.819 130.645 252.204 130.11 252.468 129.428C252.731 128.741 252.863 127.948 252.863 127.05C252.863 126.161 252.734 125.384 252.475 124.717C252.217 124.046 251.835 123.524 251.329 123.152C250.822 122.775 250.197 122.587 249.454 122.587C248.679 122.587 248.033 122.786 247.517 123.183C247.005 123.576 246.62 124.111 246.362 124.787C246.109 125.459 245.983 126.213 245.983 127.05C245.983 127.897 246.112 128.666 246.37 129.358C246.633 130.045 247.021 130.593 247.532 131.001C248.049 131.404 248.689 131.605 249.454 131.605ZM262.816 133.248C261.67 133.248 260.68 132.995 259.849 132.489C259.022 131.977 258.385 131.264 257.935 130.35C257.491 129.431 257.269 128.362 257.269 127.143C257.269 125.924 257.491 124.849 257.935 123.919C258.385 122.985 259.01 122.256 259.81 121.735C260.616 121.208 261.556 120.944 262.63 120.944C263.25 120.944 263.862 121.048 264.467 121.254C265.071 121.461 265.621 121.796 266.117 122.261C266.613 122.721 267.008 123.331 267.302 124.09C267.597 124.849 267.744 125.784 267.744 126.895V127.669H258.57V126.089H265.885C265.885 125.417 265.75 124.818 265.482 124.291C265.218 123.764 264.841 123.349 264.35 123.044C263.865 122.739 263.292 122.587 262.63 122.587C261.902 122.587 261.272 122.768 260.74 123.129C260.213 123.486 259.808 123.95 259.523 124.524C259.239 125.097 259.097 125.712 259.097 126.368V127.421C259.097 128.32 259.252 129.082 259.562 129.707C259.877 130.327 260.314 130.8 260.872 131.125C261.429 131.445 262.078 131.605 262.816 131.605C263.297 131.605 263.731 131.538 264.118 131.404C264.511 131.264 264.849 131.058 265.133 130.784C265.417 130.505 265.637 130.159 265.792 129.746L267.558 130.242C267.372 130.841 267.06 131.368 266.621 131.822C266.182 132.272 265.639 132.623 264.994 132.876C264.348 133.124 263.622 133.248 262.816 133.248ZM271.918 125.841V133H270.089V121.099H271.856V122.959H272.011C272.29 122.354 272.713 121.869 273.281 121.502C273.85 121.13 274.583 120.944 275.482 120.944C276.288 120.944 276.993 121.11 277.597 121.44C278.201 121.765 278.671 122.261 279.007 122.928C279.343 123.589 279.511 124.426 279.511 125.438V133H277.682V125.562C277.682 124.627 277.439 123.899 276.954 123.377C276.468 122.85 275.802 122.587 274.955 122.587C274.371 122.587 273.85 122.713 273.39 122.966C272.935 123.22 272.576 123.589 272.313 124.074C272.049 124.56 271.918 125.149 271.918 125.841ZM287.591 121.099V122.649H281.424V121.099H287.591ZM283.221 118.248H285.05V129.591C285.05 130.107 285.125 130.495 285.275 130.753C285.43 131.006 285.626 131.177 285.863 131.264C286.106 131.347 286.362 131.388 286.63 131.388C286.832 131.388 286.997 131.378 287.126 131.357C287.255 131.332 287.359 131.311 287.436 131.295L287.808 132.938C287.684 132.985 287.511 133.031 287.289 133.077C287.067 133.129 286.785 133.155 286.445 133.155C285.928 133.155 285.422 133.044 284.926 132.822C284.435 132.6 284.027 132.261 283.702 131.807C283.381 131.352 283.221 130.779 283.221 130.087V118.248ZM295.853 133V117.132H305.368V118.837H297.775V124.198H304.655V125.903H297.775V133H295.853ZM307.974 133V121.099H309.803V133H307.974ZM308.904 119.116C308.548 119.116 308.24 118.994 307.982 118.752C307.729 118.509 307.602 118.217 307.602 117.876C307.602 117.535 307.729 117.243 307.982 117.001C308.24 116.758 308.548 116.636 308.904 116.636C309.261 116.636 309.565 116.758 309.818 117.001C310.077 117.243 310.206 117.535 310.206 117.876C310.206 118.217 310.077 118.509 309.818 118.752C309.565 118.994 309.261 119.116 308.904 119.116ZM314.544 117.132V133H312.716V117.132H314.544ZM317.457 133V121.099H319.223V122.959H319.378C319.626 122.323 320.027 121.83 320.579 121.479C321.132 121.122 321.796 120.944 322.57 120.944C323.356 120.944 324.009 121.122 324.531 121.479C325.058 121.83 325.468 122.323 325.763 122.959H325.887C326.191 122.344 326.648 121.856 327.258 121.494C327.867 121.128 328.598 120.944 329.451 120.944C330.515 120.944 331.385 121.277 332.062 121.944C332.738 122.605 333.077 123.635 333.077 125.035V133H331.248V125.035C331.248 124.157 331.008 123.529 330.528 123.152C330.047 122.775 329.482 122.587 328.831 122.587C327.994 122.587 327.346 122.84 326.886 123.346C326.426 123.847 326.196 124.482 326.196 125.252V133H324.337V124.849C324.337 124.173 324.117 123.628 323.678 123.214C323.239 122.796 322.674 122.587 321.982 122.587C321.506 122.587 321.062 122.713 320.649 122.966C320.241 123.22 319.91 123.571 319.657 124.02C319.409 124.464 319.285 124.978 319.285 125.562V133H317.457ZM341.931 133V117.132H351.446V118.837H343.853V124.198H350.733V125.903H343.853V133H341.931ZM358.169 133.248C357.022 133.248 356.033 132.995 355.201 132.489C354.375 131.977 353.737 131.264 353.287 130.35C352.843 129.431 352.621 128.362 352.621 127.143C352.621 125.924 352.843 124.849 353.287 123.919C353.737 122.985 354.362 122.256 355.162 121.735C355.968 121.208 356.908 120.944 357.983 120.944C358.603 120.944 359.215 121.048 359.819 121.254C360.423 121.461 360.973 121.796 361.469 122.261C361.965 122.721 362.36 123.331 362.655 124.09C362.949 124.849 363.096 125.784 363.096 126.895V127.669H353.923V126.089H361.237C361.237 125.417 361.103 124.818 360.834 124.291C360.57 123.764 360.193 123.349 359.703 123.044C359.217 122.739 358.644 122.587 357.983 122.587C357.254 122.587 356.624 122.768 356.092 123.129C355.565 123.486 355.16 123.95 354.876 124.524C354.592 125.097 354.45 125.712 354.45 126.368V127.421C354.45 128.32 354.605 129.082 354.914 129.707C355.23 130.327 355.666 130.8 356.224 131.125C356.782 131.445 357.43 131.605 358.169 131.605C358.649 131.605 359.083 131.538 359.47 131.404C359.863 131.264 360.201 131.058 360.485 130.784C360.769 130.505 360.989 130.159 361.144 129.746L362.91 130.242C362.724 130.841 362.412 131.368 361.973 131.822C361.534 132.272 360.991 132.623 360.346 132.876C359.7 133.124 358.974 133.248 358.169 133.248ZM373.871 123.764L372.229 124.229C372.125 123.956 371.973 123.69 371.771 123.431C371.575 123.168 371.307 122.951 370.966 122.78C370.625 122.61 370.188 122.525 369.656 122.525C368.928 122.525 368.321 122.693 367.836 123.028C367.355 123.359 367.115 123.78 367.115 124.291C367.115 124.746 367.28 125.105 367.611 125.368C367.941 125.632 368.458 125.851 369.16 126.027L370.927 126.461C371.991 126.719 372.784 127.114 373.306 127.646C373.827 128.173 374.088 128.852 374.088 129.684C374.088 130.366 373.892 130.975 373.499 131.512C373.112 132.05 372.57 132.473 371.872 132.783C371.175 133.093 370.364 133.248 369.439 133.248C368.226 133.248 367.221 132.985 366.425 132.458C365.63 131.931 365.126 131.161 364.915 130.149L366.65 129.715C366.815 130.355 367.128 130.836 367.588 131.156C368.052 131.476 368.659 131.636 369.408 131.636C370.261 131.636 370.937 131.456 371.438 131.094C371.945 130.727 372.198 130.288 372.198 129.777C372.198 129.364 372.053 129.018 371.764 128.739C371.474 128.455 371.03 128.243 370.431 128.103L368.448 127.638C367.358 127.38 366.557 126.98 366.046 126.437C365.54 125.89 365.286 125.206 365.286 124.384C365.286 123.713 365.475 123.119 365.852 122.602C366.234 122.086 366.753 121.68 367.409 121.386C368.071 121.091 368.82 120.944 369.656 120.944C370.834 120.944 371.759 121.202 372.43 121.719C373.107 122.236 373.587 122.917 373.871 123.764ZM381.58 121.099V122.649H375.413V121.099H381.58ZM377.21 118.248H379.039V129.591C379.039 130.107 379.113 130.495 379.263 130.753C379.418 131.006 379.614 131.177 379.852 131.264C380.095 131.347 380.351 131.388 380.619 131.388C380.821 131.388 380.986 131.378 381.115 131.357C381.244 131.332 381.347 131.311 381.425 131.295L381.797 132.938C381.673 132.985 381.5 133.031 381.278 133.077C381.056 133.129 380.774 133.155 380.433 133.155C379.917 133.155 379.41 133.044 378.915 132.822C378.424 132.6 378.016 132.261 377.69 131.807C377.37 131.352 377.21 130.779 377.21 130.087V118.248Z" fill="white"/>
<path d="M246.727 166V164.605L251.964 158.872C252.579 158.2 253.085 157.617 253.483 157.121C253.881 156.62 254.175 156.15 254.366 155.711C254.563 155.267 254.661 154.802 254.661 154.316C254.661 153.758 254.526 153.275 254.258 152.867C253.994 152.459 253.633 152.144 253.173 151.922C252.713 151.7 252.197 151.589 251.623 151.589C251.014 151.589 250.482 151.715 250.027 151.968C249.578 152.216 249.229 152.565 248.981 153.014C248.739 153.464 248.617 153.991 248.617 154.595H246.789C246.789 153.665 247.003 152.849 247.432 152.147C247.861 151.444 248.444 150.897 249.183 150.504C249.927 150.112 250.761 149.915 251.685 149.915C252.615 149.915 253.439 150.112 254.157 150.504C254.875 150.897 255.438 151.426 255.846 152.092C256.254 152.759 256.458 153.5 256.458 154.316C256.458 154.9 256.352 155.471 256.141 156.028C255.934 156.581 255.572 157.198 255.056 157.88C254.544 158.557 253.834 159.383 252.925 160.36L249.361 164.171V164.295H256.737V166H246.727ZM264.676 166.217C263.509 166.217 262.515 165.899 261.693 165.264C260.872 164.623 260.244 163.696 259.811 162.482C259.377 161.263 259.16 159.791 259.16 158.066C259.16 156.351 259.377 154.887 259.811 153.673C260.25 152.454 260.88 151.524 261.701 150.884C262.528 150.238 263.519 149.915 264.676 149.915C265.833 149.915 266.822 150.238 267.644 150.884C268.47 151.524 269.1 152.454 269.534 153.673C269.973 154.887 270.193 156.351 270.193 158.066C270.193 159.791 269.976 161.263 269.542 162.482C269.108 163.696 268.481 164.623 267.659 165.264C266.838 165.899 265.844 166.217 264.676 166.217ZM264.676 164.512C265.833 164.512 266.732 163.955 267.373 162.839C268.013 161.723 268.333 160.132 268.333 158.066C268.333 156.692 268.186 155.522 267.892 154.556C267.602 153.59 267.184 152.854 266.637 152.348C266.094 151.842 265.441 151.589 264.676 151.589C263.53 151.589 262.633 152.154 261.988 153.286C261.342 154.412 261.019 156.005 261.019 158.066C261.019 159.44 261.164 160.607 261.453 161.568C261.742 162.529 262.158 163.26 262.701 163.761C263.248 164.262 263.907 164.512 264.676 164.512ZM278.279 150.132V166H276.358V152.147H276.265L272.391 154.719V152.767L276.358 150.132H278.279ZM282.902 166L289.999 151.961V151.837H281.817V150.132H291.983V151.93L284.917 166H282.902Z" fill="white"/>
<path d="M490.293 73.6038C492.664 77.1463 494.939 81.5164 493.82 86.1997C489.959 83.9897 486.853 80.3814 484.39 76.8193C481.911 73.2333 479.336 69.42 478.453 65C483.324 66.2457 487.684 69.7037 490.293 73.6038Z" fill="white"/>
<path d="M497.212 95.1908C495.836 91.4902 492.826 88.2635 489.55 86.7585C486.508 85.3629 482.468 83.9064 478.918 85.6948C480.85 89.0871 484.031 91.9415 487.28 93.7369C490.202 95.3511 493.901 97.3068 497.563 96.4662C501.554 95.8549 503.483 91.8818 504.556 88.8763C506.041 84.723 505.026 79.1764 502.491 75.1016C498.997 76.5581 497.93 80.8794 497.2 83.9369C496.367 87.4172 496.344 91.4796 497.212 95.1908Z" fill="white"/>
<path d="M494.342 100.539C497.156 102.546 499.316 106.215 499.78 109.982C499.821 106.207 500.847 102.311 502.497 99.1715C504.005 96.2997 506.11 92.4184 509.855 91.6447C511.326 96.116 510.85 101.585 508.471 105.205C506.672 107.947 503.886 111.38 499.832 111.288C496.132 111.477 492.937 108.95 490.423 106.841C487.718 104.573 485.279 101.257 484.252 97.6735C488.029 96.5765 491.645 98.6158 494.342 100.539Z" fill="white"/>
<path d="M498.828 124.804C499.24 121.113 498.006 117.122 495.705 114.656C493.49 112.279 490.384 109.688 486.518 110.101C486.595 113.84 488.467 117.405 490.399 120.075C492.198 122.562 494.969 125.638 498.597 126.081C502.369 126.72 506.051 124.411 508.445 121.694C511.521 118.198 513.355 113.507 512.989 108.808C509.114 108.904 506.178 112.249 504.007 114.779C501.665 117.508 499.748 121.099 498.828 124.804Z" fill="white"/>
<path d="M493.338 128.166C495.172 131.811 495.52 136.148 494.105 139.966C496.192 136.037 499.246 132.86 502.479 129.924C505.417 127.256 509.65 124.446 513.909 124.978C513.096 130.245 509.875 135.707 505.555 138.514C502.084 140.769 497.876 143.002 493.456 141.316C489.82 140.033 487.51 136.371 486.091 133.01C484.589 129.455 483.588 125.355 484.289 121.465C488.277 121.822 491.584 124.68 493.338 128.166Z" fill="white"/>
<path d="M485.629 154.019C487.936 150.507 488.741 146.11 487.798 141.983C486.904 138.074 484.185 134.504 480.22 133.394C478.567 137.16 478.539 141.541 479.138 145.514C479.698 149.19 481.065 153.48 484.462 155.53C488.657 158.191 493.556 156.617 497.579 155.025C502.77 152.972 507.455 148.004 509.647 142.665C505.111 141.227 500.474 143.599 496.694 145.566C492.784 147.601 488.7 150.503 485.629 154.019Z" fill="white"/>
<path d="M468.283 156.913C467.778 160.746 467.787 165.609 470.763 168.563C474.477 172.373 480.235 171.642 484.676 170.807C490.639 169.687 497.353 165.625 500.954 160.215C496.565 157.794 491.19 159.336 486.842 160.585L486.591 160.657C481.738 162.049 476.565 164.293 472.236 167.362C475.691 164.245 478.208 159.67 478.335 155.057C478.45 150.93 476.663 146.512 472.81 144.542C470.114 148.072 468.851 152.608 468.283 156.913Z" fill="white"/>
<path d="M464.952 184.994C460.188 184.894 453.651 184.325 450.987 179.404L450.949 179.336C448.821 175.176 450.984 170.314 452.708 166.715C454.758 162.437 457.558 158.078 461.561 154.949C465.402 158.263 465.03 163 463.885 167.116C462.521 172.011 457.809 176.181 452.93 178.555C458.579 176.454 464.747 175.194 470.615 174.825L471.212 174.787C475.927 174.484 482.063 174.089 485.815 177.541C480.131 182.364 472.063 185.144 464.952 184.994Z" fill="white"/>
</svg>
