<svg width="538" height="250" viewBox="0 0 538 250" fill="none" xmlns="http://www.w3.org/2000/svg">
<path d="M44.1277 86.1862C43.0118 81.5024 45.2914 77.1344 47.6659 73.5942C50.2797 69.6967 54.6408 66.2422 59.5114 65C58.6265 69.4188 56.0476 73.2303 53.5653 76.8138C51.0997 80.3739 47.99 83.9796 44.1277 86.1862Z" fill="white"/>
<path d="M40.7293 95.1708C41.6004 91.4616 41.5811 87.401 40.7518 83.9219C40.0226 80.8643 38.9615 76.5422 35.4692 75.0837C32.9307 79.1556 31.9102 84.7007 33.3897 88.8556C34.4594 91.861 36.3832 95.8345 40.373 96.4496C44.034 97.2935 47.736 95.3406 50.6597 93.7282C53.9107 91.9357 57.0951 89.0837 59.0299 85.6931C55.4807 83.9017 51.4388 85.3555 48.398 86.7487C45.1202 88.2507 42.109 91.4732 40.7293 95.1708Z" fill="white"/>
<path d="M29.4571 105.18C31.2575 107.927 34.0434 111.367 38.1055 111.269C41.7994 111.453 44.9907 108.933 47.5039 106.829C50.2105 104.562 52.6536 101.249 53.685 97.666C49.9069 96.5669 46.2897 98.6031 43.5923 100.524C40.7755 102.53 38.6092 106.201 38.1439 109.97C38.109 106.194 37.0868 102.294 35.439 99.1515C33.9324 96.2791 31.833 92.3964 28.0875 91.6201C26.6118 96.0897 27.0827 101.558 29.4571 105.18Z" fill="white"/>
<path d="M39.3056 126.062C35.5356 126.694 31.8582 124.384 29.4699 121.667C26.395 118.169 24.5655 113.476 24.9386 108.779C28.8116 108.877 31.7448 112.225 33.9129 114.756C36.2478 117.483 38.1609 121.07 39.0787 124.771C38.675 121.083 39.9132 117.101 42.2115 114.64C44.43 112.265 47.5377 109.676 51.4043 110.091C51.321 113.831 49.4465 117.394 47.5132 120.062C45.7111 122.548 42.9349 125.624 39.3056 126.062Z" fill="white"/>
<path d="M32.3419 138.488C35.8141 140.749 40.0252 142.986 44.4509 141.293C48.0817 140.008 50.3901 136.354 51.8099 132.999C53.3139 129.445 54.3184 125.346 53.623 121.456C49.6332 121.81 46.3249 124.665 44.5677 128.149C42.7307 131.792 42.3784 136.128 43.7895 139.947C41.7045 136.018 38.6554 132.839 35.4254 129.901C32.4892 127.231 28.2599 124.418 24 124.947C24.8105 130.214 28.0243 135.677 32.3419 138.488Z" fill="white"/>
<path d="M53.3953 155.53C56.8121 153.488 58.1872 149.19 58.7491 145.507C59.3549 141.535 59.329 137.155 57.6794 133.387C53.7153 134.494 50.9943 138.062 50.0958 141.97C49.1466 146.098 49.9476 150.499 52.2566 154.014C49.1873 150.493 45.1059 147.585 41.1946 145.546C37.4165 143.577 32.7814 141.201 28.2441 142.636C30.432 147.976 35.1123 152.947 40.2995 155.004C44.3167 156.596 49.2037 158.17 53.3953 155.53Z" fill="white"/>
<path d="M69.5932 156.913C70.0946 160.747 70.0804 165.609 67.1039 168.56C63.3844 172.367 57.628 171.633 53.1882 170.795C47.2276 169.67 40.518 165.604 36.9219 160.191C41.3138 157.773 46.6853 159.32 51.0334 160.572L51.2817 160.643C56.1353 162.04 61.3075 164.289 65.6331 167.362C62.1811 164.243 59.666 159.664 59.5428 155.05C59.4321 150.923 61.2236 146.507 65.0786 144.54C67.77 148.072 69.0303 152.607 69.5932 156.913Z" fill="white"/>
<path d="M86.8678 179.415C89.0598 175.243 86.888 170.345 85.1574 166.726C83.1114 162.447 80.3159 158.086 76.3152 154.954C72.4737 158.265 72.839 163.002 73.9811 167.119C75.3392 172.014 80.0475 176.187 84.923 178.565C79.2765 176.459 73.1098 175.195 67.2427 174.822L66.6484 174.784C61.935 174.477 55.7989 174.077 52.043 177.526C57.7218 182.354 65.788 185.139 72.8973 184.995C77.6615 184.898 84.1981 184.334 86.8678 179.415Z" fill="white"/>
<path d="M200.692 68.0661C200.692 69.7397 200.39 71.186 199.786 72.405C199.182 73.624 198.353 74.564 197.299 75.2252C196.245 75.8864 195.042 76.2169 193.688 76.2169C192.335 76.2169 191.132 75.8864 190.078 75.2252C189.024 74.564 188.195 73.624 187.591 72.405C186.986 71.186 186.684 69.7397 186.684 68.0661C186.684 66.3926 186.986 64.9463 187.591 63.7273C188.195 62.5083 189.024 61.5682 190.078 60.907C191.132 60.2459 192.335 59.9153 193.688 59.9153C195.042 59.9153 196.245 60.2459 197.299 60.907C198.353 61.5682 199.182 62.5083 199.786 63.7273C200.39 64.9463 200.692 66.3926 200.692 68.0661ZM198.833 68.0661C198.833 66.6921 198.603 65.5325 198.143 64.5873C197.689 63.642 197.072 62.9267 196.292 62.4411C195.517 61.9556 194.649 61.7128 193.688 61.7128C192.728 61.7128 191.857 61.9556 191.077 62.4411C190.302 62.9267 189.685 63.642 189.226 64.5873C188.771 65.5325 188.544 66.6921 188.544 68.0661C188.544 69.4401 188.771 70.5997 189.226 71.5449C189.685 72.4902 190.302 73.2056 191.077 73.6911C191.857 74.1767 192.728 74.4194 193.688 74.4194C194.649 74.4194 195.517 74.1767 196.292 73.6911C197.072 73.2056 197.689 72.4902 198.143 71.5449C198.603 70.5997 198.833 69.4401 198.833 68.0661ZM208.539 64.0992V65.6488H202.123V64.0992H208.539ZM204.045 76V62.4566C204.045 61.7748 204.205 61.2066 204.525 60.7521C204.845 60.2975 205.261 59.9566 205.773 59.7293C206.284 59.5021 206.824 59.3884 207.392 59.3884C207.841 59.3884 208.208 59.4246 208.492 59.4969C208.776 59.5692 208.988 59.6364 209.127 59.6983L208.601 61.2789C208.508 61.2479 208.379 61.2092 208.213 61.1627C208.053 61.1162 207.841 61.093 207.578 61.093C206.974 61.093 206.537 61.2454 206.269 61.5501C206.005 61.8549 205.873 62.3017 205.873 62.8905V76H204.045ZM215.965 64.0992V65.6488H209.549V64.0992H215.965ZM211.471 76V62.4566C211.471 61.7748 211.631 61.2066 211.951 60.7521C212.271 60.2975 212.687 59.9566 213.198 59.7293C213.71 59.5021 214.25 59.3884 214.818 59.3884C215.267 59.3884 215.634 59.4246 215.918 59.4969C216.202 59.5692 216.414 59.6364 216.553 59.6983L216.026 61.2789C215.934 61.2479 215.804 61.2092 215.639 61.1627C215.479 61.1162 215.267 61.093 215.004 61.093C214.399 61.093 213.963 61.2454 213.694 61.5501C213.431 61.8549 213.299 62.3017 213.299 62.8905V76H211.471ZM218.091 76V64.0992H219.919V76H218.091ZM219.021 62.1157C218.664 62.1157 218.357 61.9943 218.099 61.7515C217.845 61.5088 217.719 61.2169 217.719 60.876C217.719 60.5351 217.845 60.2433 218.099 60.0005C218.357 59.7577 218.664 59.6364 219.021 59.6364C219.377 59.6364 219.682 59.7577 219.935 60.0005C220.193 60.2433 220.322 60.5351 220.322 60.876C220.322 61.2169 220.193 61.5088 219.935 61.7515C219.682 61.9943 219.377 62.1157 219.021 62.1157ZM227.667 76.2479C226.551 76.2479 225.59 75.9845 224.784 75.4576C223.979 74.9308 223.359 74.2051 222.925 73.2805C222.491 72.3559 222.274 71.2996 222.274 70.1116C222.274 68.9029 222.496 67.8363 222.94 66.9117C223.39 65.9819 224.015 65.2562 224.815 64.7345C225.621 64.2076 226.561 63.9442 227.636 63.9442C228.472 63.9442 229.227 64.0992 229.898 64.4091C230.57 64.719 231.12 65.1529 231.548 65.7107C231.977 66.2686 232.243 66.9194 232.346 67.6632H230.518C230.378 67.1209 230.069 66.6405 229.588 66.2221C229.113 65.7986 228.472 65.5868 227.667 65.5868C226.954 65.5868 226.329 65.7727 225.792 66.1446C225.26 66.5114 224.844 67.0305 224.544 67.702C224.25 68.3683 224.103 69.1508 224.103 70.0496C224.103 70.969 224.247 71.7696 224.537 72.4514C224.831 73.1333 225.244 73.6627 225.776 74.0398C226.313 74.4168 226.944 74.6054 227.667 74.6054C228.142 74.6054 228.573 74.5227 228.961 74.3574C229.348 74.1921 229.676 73.9545 229.945 73.6446C230.213 73.3347 230.404 72.9628 230.518 72.5289H232.346C232.243 73.2314 231.987 73.8642 231.579 74.4272C231.176 74.985 230.642 75.4292 229.976 75.7598C229.314 76.0852 228.545 76.2479 227.667 76.2479ZM234.583 76V64.0992H236.412V76H234.583ZM235.513 62.1157C235.156 62.1157 234.849 61.9943 234.591 61.7515C234.338 61.5088 234.211 61.2169 234.211 60.876C234.211 60.5351 234.338 60.2433 234.591 60.0005C234.849 59.7577 235.156 59.6364 235.513 59.6364C235.869 59.6364 236.174 59.7577 236.427 60.0005C236.685 60.2433 236.815 60.5351 236.815 60.876C236.815 61.2169 236.685 61.5088 236.427 61.7515C236.174 61.9943 235.869 62.1157 235.513 62.1157ZM242.826 76.2789C242.072 76.2789 241.388 76.1369 240.773 75.8528C240.158 75.5635 239.67 75.1477 239.309 74.6054C238.947 74.0579 238.766 73.3967 238.766 72.6219C238.766 71.9401 238.901 71.3874 239.169 70.9638C239.438 70.5351 239.797 70.1994 240.246 69.9566C240.696 69.7138 241.192 69.5331 241.734 69.4143C242.281 69.2903 242.832 69.1921 243.384 69.1198C244.107 69.0269 244.694 68.9571 245.143 68.9106C245.598 68.859 245.928 68.7738 246.135 68.655C246.347 68.5362 246.452 68.3295 246.452 68.0351V67.9731C246.452 67.2087 246.243 66.6147 245.825 66.1911C245.412 65.7676 244.784 65.5558 243.942 65.5558C243.069 65.5558 242.385 65.7469 241.889 66.1291C241.393 66.5114 241.044 66.9194 240.843 67.3533L239.107 66.7335C239.417 66.0103 239.83 65.4473 240.347 65.0444C240.869 64.6364 241.437 64.3523 242.052 64.1921C242.671 64.0269 243.281 63.9442 243.88 63.9442C244.262 63.9442 244.701 63.9907 245.197 64.0837C245.698 64.1715 246.181 64.3549 246.646 64.6338C247.116 64.9127 247.506 65.3337 247.816 65.8967C248.126 66.4597 248.281 67.2138 248.281 68.1591V76H246.452V74.3884H246.359C246.235 74.6467 246.029 74.923 245.74 75.2175C245.45 75.5119 245.066 75.7624 244.585 75.969C244.105 76.1756 243.519 76.2789 242.826 76.2789ZM243.105 74.6364C243.828 74.6364 244.438 74.4943 244.934 74.2102C245.435 73.9261 245.812 73.5594 246.065 73.11C246.323 72.6606 246.452 72.188 246.452 71.6921V70.0186C246.375 70.1116 246.204 70.1968 245.941 70.2743C245.683 70.3466 245.383 70.4112 245.042 70.468C244.707 70.5196 244.379 70.5661 244.058 70.6074C243.743 70.6436 243.488 70.6746 243.291 70.7004C242.816 70.7624 242.372 70.8631 241.959 71.0026C241.551 71.1369 241.22 71.3409 240.967 71.6147C240.719 71.8833 240.595 72.25 240.595 72.7149C240.595 73.3502 240.83 73.8306 241.3 74.156C241.775 74.4762 242.377 74.6364 243.105 74.6364ZM253.01 60.1322V76H251.182V60.1322H253.01ZM270.549 64.0992C270.456 63.314 270.079 62.7045 269.418 62.2707C268.756 61.8368 267.945 61.6198 266.985 61.6198C266.282 61.6198 265.668 61.7335 265.141 61.9607C264.619 62.188 264.211 62.5005 263.917 62.8982C263.627 63.296 263.483 63.7479 263.483 64.2541C263.483 64.6777 263.583 65.0418 263.785 65.3466C263.991 65.6462 264.255 65.8967 264.575 66.0981C264.895 66.2944 265.231 66.4571 265.582 66.5863C265.934 66.7102 266.256 66.811 266.551 66.8884L268.162 67.3223C268.576 67.4308 269.035 67.5806 269.542 67.7717C270.053 67.9628 270.541 68.2237 271.006 68.5542C271.476 68.8796 271.863 69.298 272.168 69.8094C272.473 70.3208 272.625 70.9483 272.625 71.6921C272.625 72.5496 272.401 73.3244 271.951 74.0165C271.507 74.7087 270.856 75.2588 269.999 75.6668C269.146 76.0749 268.111 76.2789 266.892 76.2789C265.755 76.2789 264.771 76.0956 263.94 75.7288C263.113 75.3621 262.463 74.8507 261.987 74.1947C261.517 73.5387 261.251 72.7769 261.189 71.9091H263.173C263.224 72.5083 263.426 73.0041 263.777 73.3967C264.133 73.7841 264.583 74.0733 265.125 74.2645C265.673 74.4504 266.262 74.5434 266.892 74.5434C267.625 74.5434 268.284 74.4246 268.867 74.187C269.451 73.9442 269.913 73.6085 270.254 73.1798C270.595 72.7459 270.766 72.2397 270.766 71.6612C270.766 71.1343 270.619 70.7056 270.324 70.375C270.03 70.0444 269.642 69.7758 269.162 69.5692C268.682 69.3626 268.162 69.1818 267.605 69.0269L265.652 68.469C264.412 68.1126 263.431 67.6038 262.708 66.9427C261.985 66.2815 261.623 65.4163 261.623 64.3471C261.623 63.4587 261.863 62.6839 262.344 62.0227C262.829 61.3564 263.48 60.8399 264.296 60.4731C265.117 60.1012 266.034 59.9153 267.047 59.9153C268.069 59.9153 268.979 60.0987 269.774 60.4654C270.569 60.827 271.2 61.3228 271.664 61.953C272.135 62.5832 272.382 63.2986 272.408 64.0992H270.549ZM280.09 76.2479C278.943 76.2479 277.954 75.9948 277.122 75.4886C276.296 74.9773 275.658 74.2645 275.209 73.3502C274.764 72.4308 274.542 71.3616 274.542 70.1426C274.542 68.9236 274.764 67.8492 275.209 66.9194C275.658 65.9845 276.283 65.2562 277.084 64.7345C277.889 64.2076 278.829 63.9442 279.904 63.9442C280.524 63.9442 281.136 64.0475 281.74 64.2541C282.344 64.4607 282.895 64.7965 283.39 65.2614C283.886 65.7211 284.281 66.3306 284.576 67.0899C284.87 67.8492 285.018 68.7841 285.018 69.8946V70.6694H275.844V69.0888H283.158C283.158 68.4174 283.024 67.8182 282.755 67.2913C282.492 66.7645 282.115 66.3487 281.624 66.0439C281.138 65.7392 280.565 65.5868 279.904 65.5868C279.176 65.5868 278.545 65.7676 278.013 66.1291C277.487 66.4855 277.081 66.9504 276.797 67.5238C276.513 68.0971 276.371 68.7118 276.371 69.3678V70.4215C276.371 71.3202 276.526 72.0821 276.836 72.7071C277.151 73.327 277.587 73.7996 278.145 74.125C278.703 74.4452 279.351 74.6054 280.09 74.6054C280.57 74.6054 281.004 74.5382 281.391 74.4039C281.784 74.2645 282.122 74.0579 282.406 73.7841C282.691 73.5052 282.91 73.1591 283.065 72.7459L284.832 73.2417C284.646 73.8409 284.333 74.3678 283.894 74.8223C283.455 75.2717 282.913 75.6229 282.267 75.876C281.621 76.124 280.896 76.2479 280.09 76.2479ZM289.191 60.1322V76H287.363V60.1322H289.191ZM297.094 76.2479C295.947 76.2479 294.958 75.9948 294.126 75.4886C293.3 74.9773 292.662 74.2645 292.212 73.3502C291.768 72.4308 291.546 71.3616 291.546 70.1426C291.546 68.9236 291.768 67.8492 292.212 66.9194C292.662 65.9845 293.287 65.2562 294.087 64.7345C294.893 64.2076 295.833 63.9442 296.908 63.9442C297.527 63.9442 298.139 64.0475 298.744 64.2541C299.348 64.4607 299.898 64.7965 300.394 65.2614C300.89 65.7211 301.285 66.3306 301.58 67.0899C301.874 67.8492 302.021 68.7841 302.021 69.8946V70.6694H292.848V69.0888H300.162C300.162 68.4174 300.027 67.8182 299.759 67.2913C299.495 66.7645 299.118 66.3487 298.628 66.0439C298.142 65.7392 297.569 65.5868 296.908 65.5868C296.179 65.5868 295.549 65.7676 295.017 66.1291C294.49 66.4855 294.085 66.9504 293.801 67.5238C293.517 68.0971 293.375 68.7118 293.375 69.3678V70.4215C293.375 71.3202 293.529 72.0821 293.839 72.7071C294.154 73.327 294.591 73.7996 295.149 74.125C295.707 74.4452 296.355 74.6054 297.094 74.6054C297.574 74.6054 298.008 74.5382 298.395 74.4039C298.788 74.2645 299.126 74.0579 299.41 73.7841C299.694 73.5052 299.914 73.1591 300.069 72.7459L301.835 73.2417C301.649 73.8409 301.337 74.3678 300.898 74.8223C300.459 75.2717 299.916 75.6229 299.271 75.876C298.625 76.124 297.899 76.2479 297.094 76.2479ZM309.201 76.2479C308.085 76.2479 307.125 75.9845 306.319 75.4576C305.513 74.9308 304.893 74.2051 304.459 73.2805C304.025 72.3559 303.808 71.2996 303.808 70.1116C303.808 68.9029 304.031 67.8363 304.475 66.9117C304.924 65.9819 305.549 65.2562 306.35 64.7345C307.156 64.2076 308.096 63.9442 309.17 63.9442C310.007 63.9442 310.761 64.0992 311.432 64.4091C312.104 64.719 312.654 65.1529 313.083 65.7107C313.511 66.2686 313.777 66.9194 313.881 67.6632H312.052C311.913 67.1209 311.603 66.6405 311.123 66.2221C310.647 65.7986 310.007 65.5868 309.201 65.5868C308.488 65.5868 307.863 65.7727 307.326 66.1446C306.794 66.5114 306.378 67.0305 306.079 67.702C305.784 68.3683 305.637 69.1508 305.637 70.0496C305.637 70.969 305.782 71.7696 306.071 72.4514C306.365 73.1333 306.779 73.6627 307.311 74.0398C307.848 74.4168 308.478 74.6054 309.201 74.6054C309.676 74.6054 310.108 74.5227 310.495 74.3574C310.882 74.1921 311.21 73.9545 311.479 73.6446C311.748 73.3347 311.939 72.9628 312.052 72.5289H313.881C313.777 73.2314 313.522 73.8642 313.114 74.4272C312.711 74.985 312.176 75.4292 311.51 75.7598C310.849 76.0852 310.079 76.2479 309.201 76.2479ZM321.293 64.0992V65.6488H315.126V64.0992H321.293ZM316.923 61.2479H318.752V72.5909C318.752 73.1074 318.827 73.4948 318.976 73.7531C319.131 74.0062 319.328 74.1767 319.565 74.2645C319.808 74.3471 320.064 74.3884 320.332 74.3884C320.534 74.3884 320.699 74.3781 320.828 74.3574C320.957 74.3316 321.061 74.311 321.138 74.2955L321.51 75.938C321.386 75.9845 321.213 76.031 320.991 76.0775C320.769 76.1291 320.487 76.155 320.146 76.155C319.63 76.155 319.124 76.0439 318.628 75.8218C318.137 75.5997 317.729 75.2614 317.404 74.8068C317.083 74.3523 316.923 73.7789 316.923 73.0868V61.2479ZM323.607 76V64.0992H325.436V76H323.607ZM324.537 62.1157C324.181 62.1157 323.873 61.9943 323.615 61.7515C323.362 61.5088 323.235 61.2169 323.235 60.876C323.235 60.5351 323.362 60.2433 323.615 60.0005C323.873 59.7577 324.181 59.6364 324.537 59.6364C324.893 59.6364 325.198 59.7577 325.451 60.0005C325.71 60.2433 325.839 60.5351 325.839 60.876C325.839 61.2169 325.71 61.5088 325.451 61.7515C325.198 61.9943 324.893 62.1157 324.537 62.1157ZM333.183 76.2479C332.109 76.2479 331.166 75.9923 330.355 75.4809C329.549 74.9695 328.919 74.2541 328.465 73.3347C328.015 72.4153 327.791 71.3409 327.791 70.1116C327.791 68.8719 328.015 67.7898 328.465 66.8652C328.919 65.9406 329.549 65.2226 330.355 64.7113C331.166 64.1999 332.109 63.9442 333.183 63.9442C334.258 63.9442 335.198 64.1999 336.003 64.7113C336.814 65.2226 337.445 65.9406 337.894 66.8652C338.348 67.7898 338.576 68.8719 338.576 70.1116C338.576 71.3409 338.348 72.4153 337.894 73.3347C337.445 74.2541 336.814 74.9695 336.003 75.4809C335.198 75.9923 334.258 76.2479 333.183 76.2479ZM333.183 74.6054C333.999 74.6054 334.671 74.3962 335.198 73.9778C335.724 73.5594 336.114 73.0093 336.368 72.3275C336.621 71.6457 336.747 70.907 336.747 70.1116C336.747 69.3161 336.621 68.5749 336.368 67.8879C336.114 67.2009 335.724 66.6457 335.198 66.2221C334.671 65.7986 333.999 65.5868 333.183 65.5868C332.367 65.5868 331.696 65.7986 331.169 66.2221C330.642 66.6457 330.252 67.2009 329.999 67.8879C329.746 68.5749 329.619 69.3161 329.619 70.1116C329.619 70.907 329.746 71.6457 329.999 72.3275C330.252 73.0093 330.642 73.5594 331.169 73.9778C331.696 74.3962 332.367 74.6054 333.183 74.6054ZM342.759 68.8409V76H340.931V64.0992H342.697V65.9587H342.852C343.131 65.3543 343.555 64.8688 344.123 64.5021C344.691 64.1302 345.424 63.9442 346.323 63.9442C347.129 63.9442 347.834 64.1095 348.438 64.4401C349.043 64.7655 349.513 65.2614 349.848 65.9277C350.184 66.5888 350.352 67.4256 350.352 68.438V76H348.524V68.562C348.524 67.6271 348.281 66.8988 347.795 66.3771C347.31 65.8502 346.643 65.5868 345.796 65.5868C345.213 65.5868 344.691 65.7133 344.231 65.9664C343.777 66.2195 343.418 66.5888 343.154 67.0744C342.891 67.5599 342.759 68.1488 342.759 68.8409Z" fill="white"/>
<path d="M138.91 119V89.9091H157.547V94.3267H144.18V102.224H156.268V106.642H144.18V119H138.91ZM166.818 89.9091V119H161.548V89.9091H166.818ZM171.724 119V89.9091H176.994V114.582H189.807V119H171.724ZM193.581 89.9091H200.03L208.666 110.989H209.007L217.643 89.9091H224.092V119H219.035V99.0142H218.765L210.726 118.915H206.947L198.907 98.9716H198.637V119H193.581V89.9091ZM253.962 97.9062C253.83 96.6657 253.271 95.6998 252.286 95.0085C251.311 94.3172 250.042 93.9716 248.479 93.9716C247.381 93.9716 246.439 94.1373 245.653 94.4688C244.867 94.8002 244.265 95.25 243.849 95.8182C243.432 96.3864 243.219 97.035 243.209 97.7642C243.209 98.3703 243.347 98.8958 243.621 99.3409C243.905 99.786 244.289 100.165 244.772 100.477C245.255 100.78 245.79 101.036 246.377 101.244C246.964 101.453 247.556 101.628 248.153 101.77L250.88 102.452C251.978 102.707 253.034 103.053 254.047 103.489C255.07 103.924 255.984 104.473 256.789 105.136C257.603 105.799 258.247 106.599 258.721 107.537C259.194 108.474 259.431 109.573 259.431 110.832C259.431 112.537 258.995 114.038 258.124 115.335C257.253 116.623 255.993 117.632 254.346 118.361C252.707 119.08 250.724 119.44 248.394 119.44C246.131 119.44 244.166 119.09 242.499 118.389C240.842 117.688 239.545 116.666 238.607 115.321C237.679 113.976 237.177 112.338 237.101 110.406H242.286C242.362 111.42 242.674 112.262 243.224 112.935C243.773 113.607 244.488 114.109 245.368 114.44C246.259 114.772 247.253 114.938 248.351 114.938C249.497 114.938 250.501 114.767 251.363 114.426C252.234 114.076 252.916 113.593 253.408 112.977C253.901 112.352 254.152 111.623 254.161 110.79C254.152 110.032 253.929 109.407 253.493 108.915C253.058 108.413 252.447 107.996 251.661 107.665C250.885 107.324 249.975 107.021 248.934 106.756L245.624 105.903C243.228 105.288 241.334 104.355 239.942 103.105C238.56 101.846 237.868 100.174 237.868 98.0909C237.868 96.3769 238.332 94.8759 239.26 93.5881C240.198 92.3002 241.472 91.3011 243.081 90.5909C244.691 89.8712 246.514 89.5114 248.55 89.5114C250.615 89.5114 252.423 89.8712 253.976 90.5909C255.539 91.3011 256.765 92.2907 257.655 93.5597C258.546 94.8191 259.005 96.268 259.033 97.9062H253.962ZM288.23 99.7244H282.917C282.766 98.8532 282.486 98.0814 282.079 97.4091C281.672 96.7273 281.165 96.1496 280.559 95.6761C279.953 95.2027 279.262 94.8475 278.485 94.6108C277.718 94.3646 276.89 94.2415 276 94.2415C274.418 94.2415 273.017 94.6392 271.795 95.4347C270.573 96.2206 269.617 97.3759 268.926 98.9006C268.234 100.416 267.889 102.267 267.889 104.455C267.889 106.68 268.234 108.555 268.926 110.08C269.626 111.595 270.583 112.741 271.795 113.517C273.017 114.284 274.413 114.668 275.985 114.668C276.857 114.668 277.671 114.554 278.429 114.327C279.196 114.09 279.882 113.744 280.488 113.29C281.104 112.835 281.62 112.277 282.036 111.614C282.463 110.951 282.756 110.193 282.917 109.341L288.23 109.369C288.031 110.752 287.6 112.049 286.937 113.261C286.284 114.473 285.427 115.544 284.366 116.472C283.305 117.39 282.065 118.11 280.644 118.631C279.224 119.142 277.647 119.398 275.914 119.398C273.357 119.398 271.075 118.806 269.068 117.622C267.06 116.438 265.479 114.729 264.323 112.494C263.168 110.259 262.59 107.58 262.59 104.455C262.59 101.32 263.173 98.6402 264.338 96.4148C265.502 94.1799 267.089 92.4706 269.096 91.2869C271.104 90.1032 273.376 89.5114 275.914 89.5114C277.534 89.5114 279.039 89.7386 280.431 90.1932C281.823 90.6477 283.064 91.3153 284.153 92.196C285.242 93.0672 286.137 94.1373 286.838 95.4062C287.548 96.6657 288.012 98.1051 288.23 99.7244ZM292.256 119V89.9091H297.526V102.224H311.006V89.9091H316.29V119H311.006V106.642H297.526V119H292.256ZM347.216 104.455C347.216 107.589 346.628 110.274 345.454 112.509C344.289 114.734 342.699 116.438 340.682 117.622C338.674 118.806 336.396 119.398 333.849 119.398C331.302 119.398 329.02 118.806 327.003 117.622C324.995 116.429 323.404 114.72 322.23 112.494C321.065 110.259 320.483 107.58 320.483 104.455C320.483 101.32 321.065 98.6402 322.23 96.4148C323.404 94.1799 324.995 92.4706 327.003 91.2869C329.02 90.1032 331.302 89.5114 333.849 89.5114C336.396 89.5114 338.674 90.1032 340.682 91.2869C342.699 92.4706 344.289 94.1799 345.454 96.4148C346.628 98.6402 347.216 101.32 347.216 104.455ZM341.917 104.455C341.917 102.248 341.572 100.387 340.88 98.8722C340.199 97.3475 339.252 96.197 338.039 95.4205C336.827 94.6345 335.431 94.2415 333.849 94.2415C332.268 94.2415 330.871 94.6345 329.659 95.4205C328.447 96.197 327.495 97.3475 326.804 98.8722C326.122 100.387 325.781 102.248 325.781 104.455C325.781 106.661 326.122 108.527 326.804 110.051C327.495 111.566 328.447 112.717 329.659 113.503C330.871 114.279 332.268 114.668 333.849 114.668C335.431 114.668 336.827 114.279 338.039 113.503C339.252 112.717 340.199 111.566 340.88 110.051C341.572 108.527 341.917 106.661 341.917 104.455ZM377.392 104.455C377.392 107.589 376.805 110.274 375.631 112.509C374.466 114.734 372.875 116.438 370.858 117.622C368.85 118.806 366.573 119.398 364.026 119.398C361.478 119.398 359.196 118.806 357.179 117.622C355.172 116.429 353.581 114.72 352.406 112.494C351.242 110.259 350.659 107.58 350.659 104.455C350.659 101.32 351.242 98.6402 352.406 96.4148C353.581 94.1799 355.172 92.4706 357.179 91.2869C359.196 90.1032 361.478 89.5114 364.026 89.5114C366.573 89.5114 368.85 90.1032 370.858 91.2869C372.875 92.4706 374.466 94.1799 375.631 96.4148C376.805 98.6402 377.392 101.32 377.392 104.455ZM372.094 104.455C372.094 102.248 371.748 100.387 371.057 98.8722C370.375 97.3475 369.428 96.197 368.216 95.4205C367.004 94.6345 365.607 94.2415 364.026 94.2415C362.444 94.2415 361.047 94.6345 359.835 95.4205C358.623 96.197 357.672 97.3475 356.98 98.8722C356.298 100.387 355.957 102.248 355.957 104.455C355.957 106.661 356.298 108.527 356.98 110.051C357.672 111.566 358.623 112.717 359.835 113.503C361.047 114.279 362.444 114.668 364.026 114.668C365.607 114.668 367.004 114.279 368.216 113.503C369.428 112.717 370.375 111.566 371.057 110.051C371.748 108.527 372.094 106.661 372.094 104.455ZM381.574 119V89.9091H386.844V114.582H399.657V119H381.574ZM137.699 159V129.909H156.336V134.327H142.969V142.224H155.057V146.642H142.969V159H137.699ZM160.337 159V129.909H179.257V134.327H165.607V142.224H178.277V146.642H165.607V154.582H179.371V159H160.337ZM199.643 137.906C199.511 136.666 198.952 135.7 197.967 135.009C196.992 134.317 195.723 133.972 194.16 133.972C193.062 133.972 192.12 134.137 191.334 134.469C190.548 134.8 189.946 135.25 189.53 135.818C189.113 136.386 188.9 137.035 188.891 137.764C188.891 138.37 189.028 138.896 189.303 139.341C189.587 139.786 189.97 140.165 190.453 140.477C190.936 140.78 191.471 141.036 192.058 141.244C192.645 141.453 193.237 141.628 193.834 141.77L196.561 142.452C197.66 142.707 198.715 143.053 199.729 143.489C200.751 143.924 201.665 144.473 202.47 145.136C203.285 145.799 203.928 146.599 204.402 147.537C204.875 148.474 205.112 149.573 205.112 150.832C205.112 152.537 204.677 154.038 203.805 155.335C202.934 156.623 201.675 157.632 200.027 158.361C198.389 159.08 196.405 159.44 194.075 159.44C191.812 159.44 189.847 159.09 188.18 158.389C186.523 157.688 185.226 156.666 184.288 155.321C183.36 153.976 182.858 152.338 182.783 150.406H187.967C188.043 151.42 188.356 152.262 188.905 152.935C189.454 153.607 190.169 154.109 191.05 154.44C191.94 154.772 192.934 154.938 194.033 154.938C195.178 154.938 196.182 154.767 197.044 154.426C197.915 154.076 198.597 153.593 199.089 152.977C199.582 152.352 199.833 151.623 199.842 150.79C199.833 150.032 199.61 149.407 199.175 148.915C198.739 148.413 198.128 147.996 197.342 147.665C196.566 147.324 195.657 147.021 194.615 146.756L191.305 145.903C188.91 145.288 187.016 144.355 185.624 143.105C184.241 141.846 183.55 140.174 183.55 138.091C183.55 136.377 184.014 134.876 184.942 133.588C185.879 132.3 187.153 131.301 188.763 130.591C190.373 129.871 192.196 129.511 194.232 129.511C196.296 129.511 198.105 129.871 199.658 130.591C201.22 131.301 202.446 132.291 203.337 133.56C204.227 134.819 204.686 136.268 204.714 137.906H199.643ZM207.732 134.327V129.909H230.942V134.327H221.951V159H216.723V134.327H207.732ZM243.738 129.909H250.187L258.824 150.989H259.165L267.801 129.909H274.25V159H269.193V139.014H268.923L260.883 158.915H257.105L249.065 138.972H248.795V159H243.738V129.909ZM297.527 129.909H302.796V148.915C302.796 150.998 302.304 152.83 301.319 154.412C300.344 155.993 298.971 157.229 297.2 158.119C295.429 159 293.36 159.44 290.992 159.44C288.616 159.44 286.542 159 284.771 158.119C283 157.229 281.627 155.993 280.652 154.412C279.676 152.83 279.188 150.998 279.188 148.915V129.909H284.458V148.474C284.458 149.687 284.723 150.766 285.254 151.713C285.794 152.66 286.551 153.403 287.527 153.943C288.502 154.473 289.657 154.739 290.992 154.739C292.328 154.739 293.483 154.473 294.458 153.943C295.443 153.403 296.201 152.66 296.731 151.713C297.261 150.766 297.527 149.687 297.527 148.474V129.909ZM331.631 129.909V159H326.943L313.236 139.185H312.994V159H307.724V129.909H312.44L326.133 149.739H326.389V129.909H331.631ZM341.843 129.909V159H336.573V129.909H341.843ZM371.65 139.724H366.337C366.186 138.853 365.907 138.081 365.499 137.409C365.092 136.727 364.586 136.15 363.98 135.676C363.373 135.203 362.682 134.848 361.906 134.611C361.139 134.365 360.31 134.241 359.42 134.241C357.838 134.241 356.437 134.639 355.215 135.435C353.994 136.221 353.037 137.376 352.346 138.901C351.655 140.416 351.309 142.267 351.309 144.455C351.309 146.68 351.655 148.555 352.346 150.08C353.047 151.595 354.003 152.741 355.215 153.517C356.437 154.284 357.834 154.668 359.406 154.668C360.277 154.668 361.091 154.554 361.849 154.327C362.616 154.09 363.302 153.744 363.908 153.29C364.524 152.835 365.04 152.277 365.457 151.614C365.883 150.951 366.176 150.193 366.337 149.341L371.65 149.369C371.451 150.752 371.02 152.049 370.357 153.261C369.704 154.473 368.847 155.544 367.786 156.472C366.726 157.39 365.485 158.11 364.065 158.631C362.644 159.142 361.068 159.398 359.335 159.398C356.778 159.398 354.496 158.806 352.488 157.622C350.48 156.438 348.899 154.729 347.744 152.494C346.588 150.259 346.011 147.58 346.011 144.455C346.011 141.32 346.593 138.64 347.758 136.415C348.923 134.18 350.509 132.471 352.516 131.287C354.524 130.103 356.797 129.511 359.335 129.511C360.954 129.511 362.46 129.739 363.852 130.193C365.244 130.648 366.484 131.315 367.573 132.196C368.662 133.067 369.557 134.137 370.258 135.406C370.968 136.666 371.432 138.105 371.65 139.724ZM375.676 159V129.909H380.946V142.224H394.426V129.909H399.71V159H394.426V146.642H380.946V159H375.676Z" fill="white"/>
<path d="M246.272 189V187.605L251.509 181.872C252.124 181.2 252.63 180.617 253.028 180.121C253.426 179.62 253.72 179.15 253.911 178.711C254.107 178.267 254.206 177.802 254.206 177.316C254.206 176.758 254.071 176.275 253.803 175.867C253.539 175.459 253.178 175.144 252.718 174.922C252.258 174.7 251.742 174.589 251.168 174.589C250.559 174.589 250.027 174.715 249.572 174.968C249.123 175.216 248.774 175.565 248.526 176.014C248.284 176.464 248.162 176.991 248.162 177.595H246.334C246.334 176.665 246.548 175.849 246.977 175.147C247.405 174.444 247.989 173.897 248.728 173.504C249.472 173.112 250.306 172.915 251.23 172.915C252.16 172.915 252.984 173.112 253.702 173.504C254.42 173.897 254.983 174.426 255.391 175.092C255.799 175.759 256.003 176.5 256.003 177.316C256.003 177.9 255.897 178.471 255.685 179.028C255.479 179.581 255.117 180.198 254.601 180.88C254.089 181.557 253.379 182.383 252.47 183.36L248.906 187.171V187.295H256.282V189H246.272ZM264.221 189.217C263.054 189.217 262.06 188.899 261.238 188.264C260.417 187.623 259.789 186.696 259.355 185.482C258.922 184.263 258.705 182.791 258.705 181.066C258.705 179.351 258.922 177.887 259.355 176.673C259.795 175.454 260.425 174.524 261.246 173.884C262.072 173.238 263.064 172.915 264.221 172.915C265.378 172.915 266.367 173.238 267.189 173.884C268.015 174.524 268.645 175.454 269.079 176.673C269.518 177.887 269.738 179.351 269.738 181.066C269.738 182.791 269.521 184.263 269.087 185.482C268.653 186.696 268.025 187.623 267.204 188.264C266.383 188.899 265.389 189.217 264.221 189.217ZM264.221 187.512C265.378 187.512 266.277 186.955 266.917 185.839C267.558 184.723 267.878 183.132 267.878 181.066C267.878 179.692 267.731 178.522 267.437 177.556C267.147 176.59 266.729 175.854 266.181 175.348C265.639 174.842 264.986 174.589 264.221 174.589C263.075 174.589 262.178 175.154 261.533 176.286C260.887 177.412 260.564 179.005 260.564 181.066C260.564 182.44 260.709 183.607 260.998 184.568C261.287 185.529 261.703 186.26 262.245 186.761C262.793 187.262 263.452 187.512 264.221 187.512ZM277.824 173.132V189H275.903V175.147H275.81L271.936 177.719V175.767L275.903 173.132H277.824ZM282.447 189L289.544 174.961V174.837H281.362V173.132H291.528V174.93L284.462 189H282.447Z" fill="white"/>
<path d="M489.838 73.6038C492.208 77.1463 494.484 81.5164 493.365 86.1997C489.504 83.9897 486.398 80.3814 483.935 76.8193C481.455 73.2333 478.88 69.42 477.998 65C482.868 66.2457 487.228 69.7037 489.838 73.6038Z" fill="white"/>
<path d="M496.756 95.1908C495.381 91.4902 492.371 88.2635 489.095 86.7585C486.053 85.3629 482.013 83.9064 478.463 85.6948C480.395 89.0871 483.576 91.9415 486.825 93.7369C489.746 95.3511 493.446 97.3068 497.108 96.4662C501.099 95.8549 503.028 91.8818 504.101 88.8763C505.586 84.723 504.571 79.1764 502.036 75.1016C498.541 76.5581 497.475 80.8794 496.745 83.9369C495.912 87.4172 495.889 91.4796 496.756 95.1908Z" fill="white"/>
<path d="M493.887 100.539C496.701 102.546 498.861 106.215 499.325 109.982C499.365 106.207 500.392 102.311 502.041 99.1715C503.55 96.2997 505.655 92.4184 509.4 91.6447C510.871 96.116 510.395 101.585 508.016 105.205C506.217 107.947 503.431 111.38 499.377 111.288C495.677 111.477 492.482 108.95 489.968 106.841C487.263 104.573 484.823 101.257 483.797 97.6735C487.574 96.5765 491.19 98.6158 493.887 100.539Z" fill="white"/>
<path d="M498.373 124.804C498.785 121.113 497.551 117.122 495.25 114.656C493.035 112.279 489.929 109.688 486.062 110.101C486.14 113.84 488.012 117.405 489.944 120.075C491.743 122.562 494.514 125.638 498.142 126.081C501.914 126.72 505.596 124.411 507.989 121.694C511.066 118.198 512.9 113.507 512.534 108.808C508.658 108.904 505.723 112.249 503.552 114.779C501.21 117.508 499.292 121.099 498.373 124.804Z" fill="white"/>
<path d="M492.882 128.166C494.716 131.811 495.065 136.148 493.65 139.966C495.737 136.037 498.791 132.86 502.024 129.924C504.962 127.256 509.195 124.446 513.454 124.978C512.641 130.245 509.42 135.707 505.1 138.514C501.628 140.769 497.421 143.002 493.001 141.316C489.364 140.033 487.055 136.371 485.636 133.01C484.134 129.455 483.133 125.355 483.834 121.465C487.822 121.822 491.129 124.68 492.882 128.166Z" fill="white"/>
<path d="M485.174 154.019C487.481 150.507 488.286 146.11 487.343 141.983C486.449 138.074 483.73 134.504 479.765 133.394C478.112 137.16 478.084 141.541 478.683 145.514C479.243 149.19 480.61 153.48 484.007 155.53C488.202 158.191 493.101 156.617 497.124 155.025C502.315 152.972 507 148.004 509.192 142.665C504.656 141.227 500.019 143.599 496.239 145.566C492.329 147.601 488.245 150.503 485.174 154.019Z" fill="white"/>
<path d="M467.828 156.913C467.323 160.746 467.332 165.609 470.308 168.563C474.022 172.373 479.78 171.642 484.221 170.807C490.184 169.687 496.897 165.625 500.499 160.215C496.11 157.794 490.735 159.336 486.387 160.585L486.136 160.657C481.283 162.049 476.11 164.293 471.781 167.362C475.236 164.245 477.753 159.67 477.88 155.057C477.995 150.93 476.208 146.512 472.355 144.542C469.659 148.072 468.396 152.608 467.828 156.913Z" fill="white"/>
<path d="M464.497 184.994C459.733 184.894 453.196 184.325 450.531 179.404L450.494 179.336C448.366 175.176 450.529 170.314 452.253 166.715C454.303 162.437 457.103 158.078 461.106 154.949C464.947 158.263 464.575 163 463.43 167.116C462.066 172.011 457.354 176.181 452.475 178.555C458.124 176.454 464.292 175.194 470.16 174.825L470.757 174.787C475.472 174.484 481.608 174.089 485.36 177.541C479.676 182.364 471.608 185.144 464.497 184.994Z" fill="white"/>
</svg>
