<svg width="538" height="250" viewBox="0 0 538 250" fill="none" xmlns="http://www.w3.org/2000/svg">
<path d="M44.1277 86.1862C43.0118 81.5024 45.2914 77.1344 47.6659 73.5942C50.2797 69.6967 54.6408 66.2422 59.5114 65C58.6265 69.4188 56.0476 73.2303 53.5653 76.8138C51.0997 80.3739 47.99 83.9796 44.1277 86.1862Z" fill="white"/>
<path d="M40.7293 95.1708C41.6004 91.4616 41.5811 87.401 40.7518 83.9219C40.0226 80.8643 38.9615 76.5422 35.4692 75.0837C32.9307 79.1556 31.9102 84.7007 33.3897 88.8556C34.4594 91.861 36.3832 95.8345 40.373 96.4496C44.034 97.2935 47.736 95.3406 50.6597 93.7282C53.9107 91.9357 57.0951 89.0837 59.0299 85.6931C55.4807 83.9017 51.4388 85.3555 48.398 86.7487C45.1202 88.2507 42.109 91.4732 40.7293 95.1708Z" fill="white"/>
<path d="M29.4571 105.18C31.2575 107.926 34.0434 111.367 38.1055 111.269C41.7994 111.453 44.9907 108.933 47.5039 106.829C50.2105 104.562 52.6536 101.249 53.685 97.666C49.9069 96.5668 46.2897 98.6031 43.5923 100.524C40.7755 102.53 38.6092 106.201 38.1439 109.97C38.109 106.194 37.0868 102.294 35.439 99.1515C33.9324 96.2791 31.833 92.3963 28.0875 91.6201C26.6118 96.0896 27.0827 101.558 29.4571 105.18Z" fill="white"/>
<path d="M39.3056 126.062C35.5356 126.694 31.8582 124.384 29.4699 121.667C26.395 118.169 24.5655 113.476 24.9386 108.779C28.8116 108.877 31.7448 112.225 33.9129 114.756C36.2478 117.483 38.1609 121.07 39.0787 124.771C38.675 121.083 39.9132 117.101 42.2115 114.64C44.43 112.265 47.5377 109.676 51.4043 110.091C51.321 113.831 49.4465 117.394 47.5132 120.062C45.7111 122.548 42.9349 125.624 39.3056 126.062Z" fill="white"/>
<path d="M32.3419 138.488C35.8141 140.749 40.0252 142.986 44.4509 141.293C48.0817 140.008 50.3901 136.354 51.8099 132.999C53.3139 129.445 54.3184 125.346 53.623 121.456C49.6332 121.81 46.3249 124.665 44.5677 128.149C42.7307 131.792 42.3784 136.128 43.7895 139.947C41.7045 136.018 38.6554 132.839 35.4254 129.901C32.4892 127.231 28.2599 124.418 24 124.947C24.8105 130.214 28.0243 135.677 32.3419 138.488Z" fill="white"/>
<path d="M53.3953 155.53C56.8121 153.488 58.1872 149.19 58.7491 145.507C59.3549 141.535 59.329 137.155 57.6794 133.387C53.7153 134.494 50.9943 138.062 50.0958 141.97C49.1466 146.098 49.9476 150.499 52.2566 154.014C49.1873 150.493 45.1059 147.585 41.1946 145.546C37.4165 143.577 32.7814 141.201 28.2441 142.636C30.432 147.976 35.1123 152.947 40.2995 155.004C44.3167 156.596 49.2037 158.17 53.3953 155.53Z" fill="white"/>
<path d="M69.5932 156.913C70.0946 160.747 70.0804 165.609 67.1039 168.56C63.3844 172.367 57.628 171.633 53.1882 170.795C47.2276 169.67 40.518 165.604 36.9219 160.191C41.3138 157.773 46.6853 159.32 51.0334 160.572L51.2817 160.643C56.1353 162.04 61.3075 164.289 65.6331 167.362C62.1811 164.243 59.666 159.664 59.5428 155.05C59.4321 150.923 61.2236 146.507 65.0786 144.54C67.77 148.072 69.0303 152.607 69.5932 156.913Z" fill="white"/>
<path d="M86.8678 179.415C89.0598 175.243 86.888 170.345 85.1574 166.726C83.1114 162.447 80.3159 158.086 76.3152 154.954C72.4737 158.265 72.839 163.002 73.9811 167.119C75.3392 172.014 80.0475 176.187 84.923 178.565C79.2765 176.459 73.1098 175.195 67.2427 174.822L66.6484 174.784C61.935 174.477 55.7989 174.077 52.043 177.526C57.7218 182.354 65.788 185.139 72.8973 184.995C77.6615 184.898 84.1981 184.334 86.8678 179.415Z" fill="white"/>
<path d="M101.279 70V46.1983H110.391C112.111 46.1983 113.54 46.4695 114.679 47.0119C115.826 47.5465 116.682 48.2787 117.248 49.2084C117.821 50.1382 118.108 51.1919 118.108 52.3696C118.108 53.3381 117.922 54.1671 117.55 54.8567C117.178 55.5385 116.678 56.0925 116.051 56.5186C115.423 56.9447 114.722 57.2508 113.947 57.4367V57.6692C114.792 57.7156 115.601 57.9752 116.376 58.4478C117.159 58.9127 117.798 59.5713 118.294 60.4236C118.79 61.2758 119.038 62.3063 119.038 63.515C119.038 64.7469 118.739 65.8549 118.143 66.8388C117.546 67.8151 116.647 68.586 115.446 69.1516C114.245 69.7172 112.735 70 110.914 70H101.279ZM105.591 66.3972H110.228C111.793 66.3972 112.921 66.0989 113.61 65.5023C114.307 64.898 114.656 64.1232 114.656 63.1779C114.656 62.4729 114.482 61.8376 114.133 61.272C113.784 60.6986 113.289 60.2492 112.645 59.9238C112.002 59.5906 111.235 59.4241 110.344 59.4241H105.591V66.3972ZM105.591 56.321H109.856C110.6 56.321 111.27 56.1854 111.867 55.9143C112.463 55.6353 112.932 55.2441 113.273 54.7404C113.622 54.2291 113.796 53.6247 113.796 52.9274C113.796 52.0054 113.471 51.2461 112.82 50.6495C112.177 50.0529 111.22 49.7546 109.949 49.7546H105.591V56.321ZM122.134 70V46.1983H137.614V49.8128H126.446V56.2745H136.812V59.8889H126.446V66.3856H137.707V70H122.134ZM154.294 52.7415C154.185 51.7265 153.728 50.9362 152.922 50.3706C152.124 49.805 151.086 49.5222 149.808 49.5222C148.909 49.5222 148.138 49.6578 147.495 49.929C146.852 50.2002 146.36 50.5682 146.019 51.0331C145.678 51.4979 145.504 52.0287 145.496 52.6253C145.496 53.1211 145.608 53.5511 145.833 53.9153C146.066 54.2794 146.379 54.5894 146.774 54.845C147.17 55.093 147.607 55.3022 148.088 55.4726C148.568 55.6431 149.052 55.7864 149.54 55.9026L151.772 56.4605C152.671 56.6697 153.535 56.9525 154.364 57.3089C155.2 57.6653 155.948 58.1147 156.607 58.657C157.273 59.1994 157.8 59.8541 158.187 60.6211C158.575 61.3882 158.768 62.2869 158.768 63.3174C158.768 64.712 158.412 65.9401 157.699 67.0015C156.986 68.0553 155.956 68.8804 154.608 69.477C153.267 70.0659 151.644 70.3603 149.738 70.3603C147.886 70.3603 146.279 70.0736 144.915 69.5003C143.559 68.9269 142.498 68.0901 141.731 66.9899C140.971 65.8897 140.561 64.5493 140.499 62.9687H144.741C144.803 63.7978 145.058 64.4873 145.508 65.0374C145.957 65.5876 146.542 65.9982 147.263 66.2694C147.991 66.5405 148.804 66.6761 149.703 66.6761C150.641 66.6761 151.462 66.5367 152.167 66.2577C152.88 65.9711 153.438 65.5759 153.841 65.0723C154.243 64.5609 154.449 63.9644 154.457 63.2825C154.449 62.6627 154.267 62.1513 153.91 61.7484C153.554 61.3378 153.054 60.9969 152.411 60.7257C151.776 60.4468 151.032 60.1989 150.18 59.9819L147.472 59.2846C145.512 58.781 143.962 58.0178 142.823 56.9951C141.692 55.9646 141.126 54.5971 141.126 52.8926C141.126 51.4902 141.506 50.2621 142.265 49.2084C143.032 48.1547 144.074 47.3373 145.391 46.7562C146.709 46.1674 148.2 45.8729 149.866 45.8729C151.555 45.8729 153.035 46.1674 154.305 46.7562C155.584 47.3373 156.587 48.1469 157.316 49.1852C158.044 50.2156 158.42 51.4011 158.443 52.7415H154.294ZM160.912 49.8128V46.1983H179.902V49.8128H172.545V70H168.268V49.8128H160.912ZM198.437 70H190.372V46.1983H198.6C200.963 46.1983 202.993 46.6748 204.69 47.6278C206.394 48.5731 207.704 49.9328 208.618 51.7071C209.532 53.4814 209.989 55.6043 209.989 58.0759C209.989 60.5553 209.528 62.6859 208.606 64.468C207.692 66.25 206.371 67.6175 204.643 68.5705C202.923 69.5235 200.855 70 198.437 70ZM194.683 66.2694H198.228C199.886 66.2694 201.269 65.9672 202.377 65.3629C203.485 64.7508 204.318 63.8404 204.876 62.6317C205.434 61.4153 205.713 59.8967 205.713 58.0759C205.713 56.2552 205.434 54.7443 204.876 53.5434C204.318 52.3347 203.493 51.4321 202.4 50.8355C201.316 50.2311 199.967 49.929 198.356 49.929H194.683V66.2694ZM234.7 58.0992C234.7 60.6637 234.219 62.8603 233.258 64.6888C232.306 66.5096 231.004 67.9042 229.354 68.8727C227.711 69.8412 225.848 70.3254 223.763 70.3254C221.679 70.3254 219.812 69.8412 218.162 68.8727C216.519 67.8964 215.217 66.4979 214.257 64.6772C213.304 62.8487 212.827 60.656 212.827 58.0992C212.827 55.5346 213.304 53.3419 214.257 51.5212C215.217 49.6927 216.519 48.2942 218.162 47.3257C219.812 46.3572 221.679 45.8729 223.763 45.8729C225.848 45.8729 227.711 46.3572 229.354 47.3257C231.004 48.2942 232.306 49.6927 233.258 51.5212C234.219 53.3419 234.7 55.5346 234.7 58.0992ZM230.365 58.0992C230.365 56.2939 230.082 54.7714 229.516 53.5318C228.958 52.2843 228.184 51.343 227.192 50.7076C226.2 50.0646 225.057 49.743 223.763 49.743C222.469 49.743 221.327 50.0646 220.335 50.7076C219.343 51.343 218.565 52.2843 217.999 53.5318C217.441 54.7714 217.162 56.2939 217.162 58.0992C217.162 59.9044 217.441 61.4308 217.999 62.6782C218.565 63.9179 219.343 64.8592 220.335 65.5023C221.327 66.1377 222.469 66.4553 223.763 66.4553C225.057 66.4553 226.2 66.1377 227.192 65.5023C228.184 64.8592 228.958 63.9179 229.516 62.6782C230.082 61.4308 230.365 59.9044 230.365 58.0992ZM258.495 54.2291H254.148C254.024 53.5163 253.796 52.8848 253.462 52.3347C253.129 51.7769 252.715 51.3042 252.219 50.9168C251.723 50.5294 251.157 50.2389 250.522 50.0452C249.894 49.8437 249.217 49.743 248.488 49.743C247.194 49.743 246.048 50.0684 245.048 50.7193C244.049 51.3623 243.266 52.3076 242.7 53.555C242.135 54.7947 241.852 56.3094 241.852 58.0992C241.852 59.9199 242.135 61.454 242.7 62.7014C243.274 63.9411 244.056 64.8786 245.048 65.5139C246.048 66.1415 247.19 66.4553 248.477 66.4553C249.189 66.4553 249.856 66.3623 250.476 66.1764C251.103 65.9827 251.665 65.6999 252.161 65.328C252.664 64.9561 253.087 64.499 253.428 63.9566C253.776 63.4143 254.016 62.7944 254.148 62.0971L258.495 62.1204C258.332 63.2515 257.979 64.313 257.437 65.3048C256.902 66.2965 256.201 67.172 255.333 67.9313C254.466 68.6829 253.451 69.2717 252.289 69.6978C251.126 70.1162 249.836 70.3254 248.418 70.3254C246.327 70.3254 244.459 69.8412 242.817 68.8727C241.174 67.9042 239.88 66.5057 238.935 64.6772C237.99 62.8487 237.517 60.656 237.517 58.0992C237.517 55.5346 237.994 53.3419 238.947 51.5212C239.9 49.6927 241.197 48.2942 242.84 47.3257C244.483 46.3572 246.342 45.8729 248.418 45.8729C249.743 45.8729 250.975 46.0589 252.114 46.4308C253.253 46.8027 254.268 47.3489 255.159 48.0695C256.05 48.7823 256.782 49.6578 257.356 50.696C257.937 51.7265 258.316 52.9042 258.495 54.2291ZM276.793 46.1983H281.104V61.7484C281.104 63.453 280.701 64.9522 279.896 66.2461C279.098 67.54 277.974 68.5511 276.525 69.2794C275.076 70 273.383 70.3603 271.446 70.3603C269.502 70.3603 267.805 70 266.356 69.2794C264.907 68.5511 263.784 67.54 262.986 66.2461C262.188 64.9522 261.789 63.453 261.789 61.7484V46.1983H266.1V61.3882C266.1 62.3799 266.317 63.2632 266.751 64.038C267.193 64.8128 267.813 65.421 268.611 65.8626C269.409 66.2965 270.354 66.5134 271.446 66.5134C272.539 66.5134 273.484 66.2965 274.282 65.8626C275.088 65.421 275.708 64.8128 276.142 64.038C276.576 63.2632 276.793 62.3799 276.793 61.3882V46.1983ZM285.136 46.1983H290.413L297.479 63.4452H297.758L304.824 46.1983H310.1V70H305.963V53.648H305.742L299.164 69.9303H296.072L289.494 53.6131H289.274V70H285.136V46.1983ZM314.141 70V46.1983H329.621V49.8128H318.453V56.2745H328.819V59.8889H318.453V66.3856H329.714V70H314.141ZM352.925 46.1983V70H349.09L337.875 53.7874H337.677V70H333.365V46.1983H337.224L348.427 62.4225H348.637V46.1983H352.925ZM355.923 49.8128V46.1983H374.913V49.8128H367.556V70H363.279V49.8128H355.923ZM378.099 70H373.497L381.877 46.1983H387.199L395.59 70H390.988L384.631 51.0795H384.445L378.099 70ZM378.251 60.6676H390.802V64.1309H378.251V60.6676ZM398.071 70V46.1983H406.997C408.825 46.1983 410.359 46.516 411.599 47.1513C412.846 47.7867 413.788 48.6777 414.423 49.8244C415.066 50.9633 415.388 52.2921 415.388 53.8107C415.388 55.337 415.062 56.6619 414.411 57.7854C413.768 58.9011 412.819 59.765 411.564 60.3771C410.309 60.9814 408.767 61.2836 406.938 61.2836H400.581V57.704H406.357C407.427 57.704 408.302 57.5568 408.984 57.2624C409.666 56.9602 410.169 56.5225 410.495 55.9491C410.828 55.368 410.994 54.6552 410.994 53.8107C410.994 52.9662 410.828 52.2456 410.495 51.649C410.162 51.0447 409.654 50.5875 408.972 50.2776C408.29 49.96 407.411 49.8011 406.334 49.8011H402.383V70H398.071ZM410.367 59.2149L416.259 70H411.448L405.66 59.2149H410.367ZM416.148 46.1983H421.018L426.84 56.7278H427.073L432.895 46.1983H437.765L429.106 61.1209V70H424.806V61.1209L416.148 46.1983Z" fill="white"/>
<path d="M165.811 99V97.6054L174.365 84.8368H165.718V83.1322H176.658V84.5269L168.104 97.2955H176.751V99H165.811ZM181.118 83.1322V99H179.29V83.1322H181.118ZM184.031 99V87.0992H185.859V99H184.031ZM184.124 85.4876L186.014 81.8926H188.153L185.736 85.4876H184.124ZM190.601 91.8409V99H188.772V87.0992H190.539V88.9587H190.694C190.973 88.3543 191.396 87.8688 191.964 87.5021C192.533 87.1302 193.266 86.9442 194.165 86.9442C194.971 86.9442 195.676 87.1095 196.28 87.4401C196.884 87.7655 197.354 88.2614 197.69 88.9277C198.026 89.5888 198.194 90.4256 198.194 91.438V99H196.365V91.562C196.365 90.6271 196.122 89.8988 195.637 89.3771C195.151 88.8502 194.485 88.5868 193.638 88.5868C193.054 88.5868 192.533 88.7133 192.073 88.9664C191.618 89.2195 191.259 89.5888 190.996 90.0744C190.732 90.5599 190.601 91.1488 190.601 91.8409ZM211.943 99H207.047V83.1322H212.16C213.699 83.1322 215.017 83.4499 216.112 84.0852C217.207 84.7154 218.046 85.6219 218.63 86.8048C219.213 87.9824 219.505 89.3926 219.505 91.0351C219.505 92.688 219.211 94.1111 218.622 95.3042C218.033 96.4923 217.176 97.4065 216.05 98.047C214.924 98.6823 213.555 99 211.943 99ZM208.968 97.2955H211.819C213.131 97.2955 214.219 97.0424 215.081 96.5362C215.944 96.03 216.587 95.3094 217.01 94.3745C217.434 93.4396 217.646 92.3264 217.646 91.0351C217.646 89.7541 217.437 88.6513 217.018 87.7268C216.6 86.797 215.975 86.0842 215.143 85.5883C214.312 85.0873 213.276 84.8368 212.036 84.8368H208.968V97.2955ZM226.879 99.2479C225.804 99.2479 224.862 98.9923 224.051 98.4809C223.245 97.9695 222.615 97.2541 222.16 96.3347C221.711 95.4153 221.486 94.3409 221.486 93.1116C221.486 91.8719 221.711 90.7898 222.16 89.8652C222.615 88.9406 223.245 88.2226 224.051 87.7113C224.862 87.1999 225.804 86.9442 226.879 86.9442C227.953 86.9442 228.893 87.1999 229.699 87.7113C230.51 88.2226 231.14 88.9406 231.589 89.8652C232.044 90.7898 232.271 91.8719 232.271 93.1116C232.271 94.3409 232.044 95.4153 231.589 96.3347C231.14 97.2541 230.51 97.9695 229.699 98.4809C228.893 98.9923 227.953 99.2479 226.879 99.2479ZM226.879 97.6054C227.695 97.6054 228.366 97.3962 228.893 96.9778C229.42 96.5594 229.81 96.0093 230.063 95.3275C230.316 94.6457 230.443 93.907 230.443 93.1116C230.443 92.3161 230.316 91.5749 230.063 90.8879C229.81 90.2009 229.42 89.6457 228.893 89.2221C228.366 88.7986 227.695 88.5868 226.879 88.5868C226.063 88.5868 225.391 88.7986 224.864 89.2221C224.337 89.6457 223.947 90.2009 223.694 90.8879C223.441 91.5749 223.315 92.3161 223.315 93.1116C223.315 93.907 223.441 94.6457 223.694 95.3275C223.947 96.0093 224.337 96.5594 224.864 96.9778C225.391 97.3962 226.063 97.6054 226.879 97.6054ZM239.43 103.711C238.547 103.711 237.787 103.597 237.152 103.37C236.517 103.148 235.987 102.853 235.564 102.487C235.145 102.125 234.812 101.738 234.564 101.324L236.021 100.302C236.186 100.519 236.395 100.767 236.648 101.045C236.901 101.33 237.248 101.575 237.687 101.782C238.131 101.993 238.712 102.099 239.43 102.099C240.391 102.099 241.183 101.867 241.808 101.402C242.433 100.937 242.746 100.209 242.746 99.2169V96.7996H242.591C242.457 97.0165 242.266 97.2851 242.018 97.6054C241.775 97.9205 241.424 98.202 240.964 98.4499C240.509 98.6927 239.895 98.814 239.12 98.814C238.159 98.814 237.297 98.5868 236.532 98.1322C235.773 97.6777 235.171 97.0165 234.727 96.1488C234.288 95.281 234.068 94.2273 234.068 92.9876C234.068 91.7686 234.283 90.7071 234.711 89.8032C235.14 88.8941 235.737 88.1916 236.501 87.6958C237.266 87.1947 238.149 86.9442 239.151 86.9442C239.926 86.9442 240.54 87.0733 240.995 87.3316C241.455 87.5847 241.806 87.874 242.049 88.1994C242.297 88.5196 242.488 88.7831 242.622 88.9897H242.808V87.0992H244.574V99.3409C244.574 100.364 244.342 101.195 243.877 101.836C243.417 102.481 242.798 102.954 242.018 103.254C241.243 103.558 240.38 103.711 239.43 103.711ZM239.368 97.1715C240.101 97.1715 240.721 97.0036 241.227 96.6679C241.734 96.3321 242.118 95.8492 242.382 95.219C242.645 94.5888 242.777 93.8347 242.777 92.9566C242.777 92.0992 242.648 91.3425 242.39 90.6865C242.131 90.0305 241.749 89.5165 241.243 89.1446C240.737 88.7727 240.112 88.5868 239.368 88.5868C238.593 88.5868 237.947 88.7831 237.431 89.1756C236.92 89.5682 236.535 90.095 236.276 90.7562C236.023 91.4174 235.897 92.1508 235.897 92.9566C235.897 93.7831 236.026 94.5139 236.284 95.1493C236.548 95.7794 236.935 96.2753 237.446 96.6369C237.963 96.9933 238.603 97.1715 239.368 97.1715ZM266.202 88.0909H264.28C264.167 87.5382 263.968 87.0527 263.684 86.6343C263.405 86.2159 263.064 85.8647 262.661 85.5806C262.263 85.2913 261.822 85.0744 261.336 84.9298C260.851 84.7851 260.344 84.7128 259.817 84.7128C258.857 84.7128 257.986 84.9556 257.206 85.4411C256.432 85.9267 255.814 86.642 255.355 87.5873C254.9 88.5325 254.673 89.6921 254.673 91.0661C254.673 92.4401 254.9 93.5997 255.355 94.5449C255.814 95.4902 256.432 96.2056 257.206 96.6911C257.986 97.1767 258.857 97.4194 259.817 97.4194C260.344 97.4194 260.851 97.3471 261.336 97.2025C261.822 97.0579 262.263 96.8435 262.661 96.5594C263.064 96.2701 263.405 95.9163 263.684 95.4979C263.968 95.0744 264.167 94.5888 264.28 94.0413H266.202C266.057 94.8523 265.794 95.578 265.411 96.2185C265.029 96.859 264.554 97.4039 263.986 97.8533C263.418 98.2975 262.78 98.6358 262.072 98.8683C261.37 99.1007 260.618 99.2169 259.817 99.2169C258.464 99.2169 257.261 98.8864 256.207 98.2252C255.153 97.564 254.324 96.624 253.72 95.405C253.116 94.186 252.813 92.7397 252.813 91.0661C252.813 89.3926 253.116 87.9463 253.72 86.7273C254.324 85.5083 255.153 84.5682 256.207 83.907C257.261 83.2459 258.464 82.9153 259.817 82.9153C260.618 82.9153 261.37 83.0315 262.072 83.2639C262.78 83.4964 263.418 83.8373 263.986 84.2867C264.554 84.7309 265.029 85.2732 265.411 85.9137C265.794 86.5491 266.057 87.2748 266.202 88.0909ZM273.457 99.2479C272.383 99.2479 271.44 98.9923 270.629 98.4809C269.823 97.9695 269.193 97.2541 268.739 96.3347C268.289 95.4153 268.065 94.3409 268.065 93.1116C268.065 91.8719 268.289 90.7898 268.739 89.8652C269.193 88.9406 269.823 88.2226 270.629 87.7113C271.44 87.1999 272.383 86.9442 273.457 86.9442C274.532 86.9442 275.472 87.1999 276.277 87.7113C277.088 88.2226 277.719 88.9406 278.168 89.8652C278.622 90.7898 278.85 91.8719 278.85 93.1116C278.85 94.3409 278.622 95.4153 278.168 96.3347C277.719 97.2541 277.088 97.9695 276.277 98.4809C275.472 98.9923 274.532 99.2479 273.457 99.2479ZM273.457 97.6054C274.273 97.6054 274.945 97.3962 275.472 96.9778C275.998 96.5594 276.388 96.0093 276.642 95.3275C276.895 94.6457 277.021 93.907 277.021 93.1116C277.021 92.3161 276.895 91.5749 276.642 90.8879C276.388 90.2009 275.998 89.6457 275.472 89.2221C274.945 88.7986 274.273 88.5868 273.457 88.5868C272.641 88.5868 271.97 88.7986 271.443 89.2221C270.916 89.6457 270.526 90.2009 270.273 90.8879C270.02 91.5749 269.893 92.3161 269.893 93.1116C269.893 93.907 270.02 94.6457 270.273 95.3275C270.526 96.0093 270.916 96.5594 271.443 96.9778C271.97 97.3962 272.641 97.6054 273.457 97.6054ZM281.205 99V87.0992H282.971V88.9587H283.126C283.374 88.3233 283.774 87.8301 284.327 87.4788C284.88 87.1224 285.543 86.9442 286.318 86.9442C287.103 86.9442 287.757 87.1224 288.278 87.4788C288.805 87.8301 289.216 88.3233 289.51 88.9587H289.634C289.939 88.344 290.396 87.8559 291.006 87.4943C291.615 87.1276 292.346 86.9442 293.198 86.9442C294.262 86.9442 295.133 87.2774 295.809 87.9437C296.486 88.6049 296.824 89.6353 296.824 91.0351V99H294.996V91.0351C294.996 90.157 294.756 89.5294 294.275 89.1524C293.795 88.7753 293.229 88.5868 292.579 88.5868C291.742 88.5868 291.094 88.8399 290.634 89.3461C290.174 89.8471 289.944 90.4824 289.944 91.2521V99H288.085V90.8492C288.085 90.1725 287.865 89.6276 287.426 89.2144C286.987 88.796 286.422 88.5868 285.729 88.5868C285.254 88.5868 284.81 88.7133 284.397 88.9664C283.989 89.2195 283.658 89.5708 283.405 90.0201C283.157 90.4644 283.033 90.9783 283.033 91.562V99H281.205ZM299.731 103.463V87.0992H301.498V88.9897H301.715C301.849 88.7831 302.035 88.5196 302.273 88.1994C302.515 87.874 302.861 87.5847 303.311 87.3316C303.765 87.0733 304.38 86.9442 305.155 86.9442C306.157 86.9442 307.04 87.1947 307.805 87.6958C308.569 88.1968 309.166 88.907 309.594 89.8264C310.023 90.7459 310.237 91.8306 310.237 93.0806C310.237 94.3409 310.023 95.4334 309.594 96.358C309.166 97.2774 308.572 97.9902 307.812 98.4964C307.053 98.9974 306.178 99.2479 305.186 99.2479C304.421 99.2479 303.809 99.1214 303.35 98.8683C302.89 98.61 302.536 98.3182 302.288 97.9928C302.04 97.6622 301.849 97.3884 301.715 97.1715H301.56V103.463H299.731ZM301.529 93.0496C301.529 93.9483 301.66 94.7412 301.924 95.4282C302.187 96.11 302.572 96.6446 303.078 97.032C303.585 97.4143 304.204 97.6054 304.938 97.6054C305.702 97.6054 306.34 97.4039 306.852 97.001C307.368 96.593 307.756 96.0455 308.014 95.3585C308.277 94.6663 308.409 93.8967 308.409 93.0496C308.409 92.2128 308.28 91.4587 308.022 90.7872C307.768 90.1105 307.384 89.5759 306.867 89.1834C306.356 88.7856 305.713 88.5868 304.938 88.5868C304.194 88.5868 303.569 88.7753 303.063 89.1524C302.557 89.5243 302.174 90.046 301.916 90.7175C301.658 91.3838 301.529 92.1612 301.529 93.0496ZM317.58 99.2479C316.433 99.2479 315.444 98.9948 314.613 98.4886C313.786 97.9773 313.148 97.2645 312.699 96.3502C312.255 95.4308 312.032 94.3616 312.032 93.1426C312.032 91.9236 312.255 90.8492 312.699 89.9194C313.148 88.9845 313.773 88.2562 314.574 87.7345C315.38 87.2076 316.32 86.9442 317.394 86.9442C318.014 86.9442 318.626 87.0475 319.23 87.2541C319.835 87.4607 320.385 87.7965 320.881 88.2614C321.377 88.7211 321.772 89.3306 322.066 90.0899C322.36 90.8492 322.508 91.7841 322.508 92.8946V93.6694H313.334V92.0888H320.648C320.648 91.4174 320.514 90.8182 320.245 90.2913C319.982 89.7645 319.605 89.3487 319.114 89.0439C318.629 88.7392 318.055 88.5868 317.394 88.5868C316.666 88.5868 316.036 88.7676 315.504 89.1291C314.977 89.4855 314.571 89.9504 314.287 90.5238C314.003 91.0971 313.861 91.7118 313.861 92.3678V93.4215C313.861 94.3202 314.016 95.0821 314.326 95.7071C314.641 96.327 315.077 96.7996 315.635 97.125C316.193 97.4452 316.841 97.6054 317.58 97.6054C318.06 97.6054 318.494 97.5382 318.882 97.4039C319.274 97.2645 319.613 97.0579 319.897 96.7841C320.181 96.5052 320.4 96.1591 320.555 95.7459L322.322 96.2417C322.136 96.8409 321.823 97.3678 321.384 97.8223C320.945 98.2717 320.403 98.6229 319.757 98.876C319.112 99.124 318.386 99.2479 317.58 99.2479ZM330.028 87.0992V88.6488H323.861V87.0992H330.028ZM325.659 84.2479H327.487V95.5909C327.487 96.1074 327.562 96.4948 327.712 96.7531C327.867 97.0062 328.063 97.1767 328.301 97.2645C328.543 97.3471 328.799 97.3884 329.068 97.3884C329.269 97.3884 329.434 97.3781 329.564 97.3574C329.693 97.3316 329.796 97.311 329.874 97.2955L330.245 98.938C330.121 98.9845 329.948 99.031 329.726 99.0775C329.504 99.1291 329.223 99.155 328.882 99.155C328.365 99.155 327.859 99.0439 327.363 98.8218C326.872 98.5997 326.464 98.2614 326.139 97.8068C325.819 97.3523 325.659 96.7789 325.659 96.0868V84.2479ZM332.343 99V87.0992H334.171V99H332.343ZM333.272 85.1157C332.916 85.1157 332.609 84.9943 332.35 84.7515C332.097 84.5088 331.971 84.2169 331.971 83.876C331.971 83.5351 332.097 83.2433 332.35 83.0005C332.609 82.7577 332.916 82.6364 333.272 82.6364C333.629 82.6364 333.934 82.7577 334.187 83.0005C334.445 83.2433 334.574 83.5351 334.574 83.876C334.574 84.2169 334.445 84.5088 334.187 84.7515C333.934 84.9943 333.629 85.1157 333.272 85.1157ZM342.259 87.0992V88.6488H336.092V87.0992H342.259ZM337.89 84.2479H339.718V95.5909C339.718 96.1074 339.793 96.4948 339.943 96.7531C340.098 97.0062 340.294 97.1767 340.532 97.2645C340.774 97.3471 341.03 97.3884 341.299 97.3884C341.5 97.3884 341.665 97.3781 341.795 97.3574C341.924 97.3316 342.027 97.311 342.104 97.2955L342.476 98.938C342.352 98.9845 342.179 99.031 341.957 99.0775C341.735 99.1291 341.454 99.155 341.113 99.155C340.596 99.155 340.09 99.0439 339.594 98.8218C339.103 98.5997 338.695 98.2614 338.37 97.8068C338.05 97.3523 337.89 96.7789 337.89 96.0868V84.2479ZM344.574 99V87.0992H346.402V99H344.574ZM345.503 85.1157C345.147 85.1157 344.84 84.9943 344.581 84.7515C344.328 84.5088 344.202 84.2169 344.202 83.876C344.202 83.5351 344.328 83.2433 344.581 83.0005C344.84 82.7577 345.147 82.6364 345.503 82.6364C345.86 82.6364 346.165 82.7577 346.418 83.0005C346.676 83.2433 346.805 83.5351 346.805 83.876C346.805 84.2169 346.676 84.5088 346.418 84.7515C346.165 84.9943 345.86 85.1157 345.503 85.1157ZM354.15 99.2479C353.075 99.2479 352.132 98.9923 351.322 98.4809C350.516 97.9695 349.886 97.2541 349.431 96.3347C348.982 95.4153 348.757 94.3409 348.757 93.1116C348.757 91.8719 348.982 90.7898 349.431 89.8652C349.886 88.9406 350.516 88.2226 351.322 87.7113C352.132 87.1999 353.075 86.9442 354.15 86.9442C355.224 86.9442 356.164 87.1999 356.97 87.7113C357.781 88.2226 358.411 88.9406 358.86 89.8652C359.315 90.7898 359.542 91.8719 359.542 93.1116C359.542 94.3409 359.315 95.4153 358.86 96.3347C358.411 97.2541 357.781 97.9695 356.97 98.4809C356.164 98.9923 355.224 99.2479 354.15 99.2479ZM354.15 97.6054C354.966 97.6054 355.637 97.3962 356.164 96.9778C356.691 96.5594 357.081 96.0093 357.334 95.3275C357.587 94.6457 357.714 93.907 357.714 93.1116C357.714 92.3161 357.587 91.5749 357.334 90.8879C357.081 90.2009 356.691 89.6457 356.164 89.2221C355.637 88.7986 354.966 88.5868 354.15 88.5868C353.333 88.5868 352.662 88.7986 352.135 89.2221C351.608 89.6457 351.218 90.2009 350.965 90.8879C350.712 91.5749 350.585 92.3161 350.585 93.1116C350.585 93.907 350.712 94.6457 350.965 95.3275C351.218 96.0093 351.608 96.5594 352.135 96.9778C352.662 97.3962 353.333 97.6054 354.15 97.6054ZM363.725 91.8409V99H361.897V87.0992H363.663V88.9587H363.818C364.097 88.3543 364.521 87.8688 365.089 87.5021C365.657 87.1302 366.391 86.9442 367.289 86.9442C368.095 86.9442 368.8 87.1095 369.405 87.4401C370.009 87.7655 370.479 88.2614 370.815 88.9277C371.15 89.5888 371.318 90.4256 371.318 91.438V99H369.49V91.562C369.49 90.6271 369.247 89.8988 368.762 89.3771C368.276 88.8502 367.61 88.5868 366.763 88.5868C366.179 88.5868 365.657 88.7133 365.198 88.9664C364.743 89.2195 364.384 89.5888 364.121 90.0744C363.857 90.5599 363.725 91.1488 363.725 91.8409Z" fill="white"/>
<path d="M142.721 137V134.315L154.924 116.813H142.651V113.198H160.27V115.883L148.079 133.386H160.34V137H142.721ZM167.879 113.198V137H163.671V113.198H167.879ZM171.55 137V119.149H175.757V137H171.55ZM172.05 116.801L174.653 111.49H178.767L175.2 116.801H172.05ZM183.636 126.54V137H179.429V119.149H183.45V122.182H183.659C184.07 121.183 184.725 120.388 185.624 119.8C186.53 119.211 187.65 118.916 188.982 118.916C190.214 118.916 191.287 119.18 192.202 119.707C193.124 120.233 193.836 120.997 194.34 121.996C194.851 122.996 195.103 124.208 195.095 125.634V137H190.888V126.285C190.888 125.091 190.578 124.158 189.959 123.484C189.346 122.81 188.498 122.473 187.413 122.473C186.677 122.473 186.023 122.635 185.449 122.961C184.884 123.278 184.438 123.739 184.113 124.344C183.795 124.948 183.636 125.68 183.636 126.54ZM210.679 113.198V137H206.367V113.198H210.679ZM218.714 126.54V137H214.507V119.149H218.529V122.182H218.738C219.148 121.183 219.803 120.388 220.702 119.8C221.608 119.211 222.728 118.916 224.061 118.916C225.292 118.916 226.366 119.18 227.28 119.707C228.202 120.233 228.915 120.997 229.418 121.996C229.93 122.996 230.181 124.208 230.174 125.634V137H225.967V126.285C225.967 125.091 225.657 124.158 225.037 123.484C224.425 122.81 223.576 122.473 222.492 122.473C221.756 122.473 221.101 122.635 220.528 122.961C219.962 123.278 219.516 123.739 219.191 124.344C218.873 124.948 218.714 125.68 218.714 126.54ZM242.71 119.149V122.403H232.448V119.149H242.71ZM234.981 114.872H239.189V131.631C239.189 132.196 239.274 132.63 239.444 132.932C239.622 133.227 239.855 133.428 240.142 133.537C240.428 133.645 240.746 133.699 241.095 133.699C241.358 133.699 241.598 133.68 241.815 133.641C242.04 133.603 242.21 133.568 242.326 133.537L243.035 136.826C242.811 136.903 242.489 136.988 242.071 137.081C241.66 137.174 241.157 137.229 240.56 137.244C239.506 137.275 238.557 137.116 237.713 136.768C236.868 136.411 236.198 135.861 235.702 135.117C235.214 134.373 234.974 133.444 234.981 132.328V114.872ZM253.285 137.349C251.495 137.349 249.95 136.977 248.648 136.233C247.354 135.481 246.358 134.42 245.661 133.049C244.964 131.669 244.615 130.046 244.615 128.179C244.615 126.343 244.964 124.731 245.661 123.344C246.366 121.95 247.35 120.865 248.613 120.09C249.876 119.308 251.36 118.916 253.064 118.916C254.165 118.916 255.203 119.095 256.179 119.451C257.163 119.8 258.031 120.342 258.782 121.078C259.542 121.814 260.138 122.752 260.572 123.89C261.006 125.022 261.223 126.37 261.223 127.935V129.225H246.591V126.389H257.19C257.182 125.583 257.008 124.867 256.667 124.239C256.326 123.604 255.85 123.104 255.238 122.74C254.633 122.376 253.928 122.194 253.122 122.194C252.262 122.194 251.507 122.403 250.856 122.821C250.205 123.232 249.698 123.774 249.334 124.448C248.977 125.115 248.795 125.847 248.787 126.645V129.12C248.787 130.159 248.977 131.05 249.357 131.793C249.737 132.529 250.267 133.095 250.949 133.49C251.631 133.878 252.429 134.071 253.343 134.071C253.955 134.071 254.509 133.986 255.005 133.816C255.501 133.637 255.931 133.378 256.295 133.037C256.659 132.696 256.934 132.274 257.12 131.77L261.049 132.212C260.801 133.25 260.328 134.157 259.631 134.931C258.941 135.698 258.058 136.295 256.981 136.721C255.904 137.139 254.672 137.349 253.285 137.349ZM264.128 137V119.149H268.207V122.124H268.393C268.718 121.093 269.276 120.299 270.066 119.741C270.864 119.176 271.775 118.893 272.797 118.893C273.03 118.893 273.289 118.905 273.576 118.928C273.871 118.943 274.115 118.971 274.308 119.009V122.879C274.13 122.817 273.847 122.763 273.46 122.717C273.08 122.662 272.712 122.635 272.356 122.635C271.589 122.635 270.899 122.802 270.287 123.135C269.683 123.46 269.206 123.914 268.858 124.495C268.509 125.076 268.335 125.746 268.335 126.505V137H264.128ZM280.656 126.54V137H276.449V119.149H280.47V122.182H280.679C281.09 121.183 281.745 120.388 282.643 119.8C283.55 119.211 284.669 118.916 286.002 118.916C287.234 118.916 288.307 119.18 289.221 119.707C290.143 120.233 290.856 120.997 291.36 121.996C291.871 122.996 292.123 124.208 292.115 125.634V137H287.908V126.285C287.908 125.091 287.598 124.158 286.978 123.484C286.366 122.81 285.518 122.473 284.433 122.473C283.697 122.473 283.042 122.635 282.469 122.961C281.903 123.278 281.458 123.739 281.132 124.344C280.815 124.948 280.656 125.68 280.656 126.54ZM300.874 137.36C299.743 137.36 298.724 137.159 297.818 136.756C296.919 136.345 296.206 135.741 295.679 134.943C295.16 134.145 294.901 133.161 294.901 131.991C294.901 130.984 295.087 130.151 295.459 129.492C295.83 128.834 296.338 128.307 296.981 127.912C297.624 127.517 298.349 127.218 299.154 127.017C299.968 126.808 300.809 126.657 301.676 126.564C302.722 126.455 303.571 126.358 304.221 126.273C304.872 126.18 305.345 126.041 305.639 125.855C305.942 125.661 306.093 125.363 306.093 124.96V124.89C306.093 124.014 305.833 123.337 305.314 122.856C304.795 122.376 304.047 122.136 303.071 122.136C302.04 122.136 301.223 122.36 300.619 122.81C300.022 123.259 299.619 123.79 299.41 124.402L295.482 123.844C295.792 122.759 296.303 121.853 297.016 121.124C297.729 120.388 298.6 119.838 299.631 119.474C300.661 119.102 301.8 118.916 303.048 118.916C303.908 118.916 304.764 119.017 305.616 119.218C306.468 119.42 307.247 119.753 307.952 120.218C308.657 120.675 309.223 121.299 309.649 122.089C310.083 122.879 310.3 123.867 310.3 125.053V137H306.255V134.548H306.116C305.86 135.044 305.5 135.509 305.035 135.942C304.578 136.369 304.001 136.713 303.303 136.977C302.614 137.232 301.804 137.36 300.874 137.36ZM301.967 134.269C302.811 134.269 303.544 134.102 304.163 133.769C304.783 133.428 305.26 132.979 305.593 132.421C305.934 131.863 306.104 131.255 306.104 130.596V128.493C305.973 128.601 305.748 128.702 305.43 128.795C305.12 128.888 304.772 128.969 304.384 129.039C303.997 129.109 303.613 129.171 303.234 129.225C302.854 129.279 302.525 129.326 302.246 129.364C301.618 129.45 301.056 129.589 300.561 129.783C300.065 129.976 299.673 130.248 299.387 130.596C299.1 130.937 298.957 131.379 298.957 131.921C298.957 132.696 299.24 133.281 299.805 133.676C300.371 134.071 301.091 134.269 301.967 134.269ZM322.79 119.149V122.403H312.527V119.149H322.79ZM315.061 114.872H319.268V131.631C319.268 132.196 319.353 132.63 319.524 132.932C319.702 133.227 319.934 133.428 320.221 133.537C320.508 133.645 320.825 133.699 321.174 133.699C321.438 133.699 321.678 133.68 321.895 133.641C322.119 133.603 322.29 133.568 322.406 133.537L323.115 136.826C322.89 136.903 322.569 136.988 322.15 137.081C321.74 137.174 321.236 137.229 320.64 137.244C319.586 137.275 318.637 137.116 317.792 136.768C316.948 136.411 316.277 135.861 315.782 135.117C315.293 134.373 315.053 133.444 315.061 132.328V114.872ZM325.654 137V119.149H329.861V137H325.654ZM327.769 116.615C327.102 116.615 326.529 116.394 326.049 115.953C325.568 115.503 325.328 114.965 325.328 114.337C325.328 113.702 325.568 113.163 326.049 112.722C326.529 112.272 327.102 112.048 327.769 112.048C328.443 112.048 329.016 112.272 329.489 112.722C329.969 113.163 330.209 113.702 330.209 114.337C330.209 114.965 329.969 115.503 329.489 115.953C329.016 116.394 328.443 116.615 327.769 116.615ZM341.319 137.349C339.576 137.349 338.065 136.965 336.787 136.198C335.508 135.431 334.516 134.358 333.811 132.979C333.114 131.6 332.765 129.988 332.765 128.144C332.765 126.3 333.114 124.685 333.811 123.298C334.516 121.911 335.508 120.834 336.787 120.067C338.065 119.3 339.576 118.916 341.319 118.916C343.062 118.916 344.573 119.3 345.852 120.067C347.13 120.834 348.118 121.911 348.815 123.298C349.52 124.685 349.873 126.3 349.873 128.144C349.873 129.988 349.52 131.6 348.815 132.979C348.118 134.358 347.13 135.431 345.852 136.198C344.573 136.965 343.062 137.349 341.319 137.349ZM341.342 133.978C342.288 133.978 343.078 133.719 343.713 133.2C344.349 132.673 344.821 131.968 345.131 131.084C345.449 130.201 345.608 129.217 345.608 128.132C345.608 127.04 345.449 126.052 345.131 125.169C344.821 124.278 344.349 123.569 343.713 123.042C343.078 122.515 342.288 122.252 341.342 122.252C340.374 122.252 339.568 122.515 338.925 123.042C338.29 123.569 337.813 124.278 337.495 125.169C337.186 126.052 337.031 127.04 337.031 128.132C337.031 129.217 337.186 130.201 337.495 131.084C337.813 131.968 338.29 132.673 338.925 133.2C339.568 133.719 340.374 133.978 341.342 133.978ZM356.996 126.54V137H352.789V119.149H356.81V122.182H357.019C357.43 121.183 358.085 120.388 358.984 119.8C359.89 119.211 361.01 118.916 362.342 118.916C363.574 118.916 364.647 119.18 365.562 119.707C366.484 120.233 367.196 120.997 367.7 121.996C368.211 122.996 368.463 124.208 368.455 125.634V137H364.248V126.285C364.248 125.091 363.938 124.158 363.318 123.484C362.706 122.81 361.858 122.473 360.773 122.473C360.037 122.473 359.383 122.635 358.809 122.961C358.244 123.278 357.798 123.739 357.473 124.344C357.155 124.948 356.996 125.68 356.996 126.54ZM377.215 137.36C376.083 137.36 375.065 137.159 374.158 136.756C373.259 136.345 372.546 135.741 372.02 134.943C371.5 134.145 371.241 133.161 371.241 131.991C371.241 130.984 371.427 130.151 371.799 129.492C372.171 128.834 372.678 128.307 373.321 127.912C373.964 127.517 374.689 127.218 375.495 127.017C376.308 126.808 377.149 126.657 378.016 126.564C379.062 126.455 379.911 126.358 380.562 126.273C381.213 126.18 381.685 126.041 381.98 125.855C382.282 125.661 382.433 125.363 382.433 124.96V124.89C382.433 124.014 382.173 123.337 381.654 122.856C381.135 122.376 380.387 122.136 379.411 122.136C378.381 122.136 377.563 122.36 376.959 122.81C376.362 123.259 375.959 123.79 375.75 124.402L371.822 123.844C372.132 122.759 372.643 121.853 373.356 121.124C374.069 120.388 374.941 119.838 375.971 119.474C377.002 119.102 378.14 118.916 379.388 118.916C380.248 118.916 381.104 119.017 381.956 119.218C382.809 119.42 383.587 119.753 384.292 120.218C384.997 120.675 385.563 121.299 385.989 122.089C386.423 122.879 386.64 123.867 386.64 125.053V137H382.596V134.548H382.456C382.2 135.044 381.84 135.509 381.375 135.942C380.918 136.369 380.341 136.713 379.644 136.977C378.954 137.232 378.144 137.36 377.215 137.36ZM378.307 134.269C379.152 134.269 379.884 134.102 380.504 133.769C381.123 133.428 381.6 132.979 381.933 132.421C382.274 131.863 382.444 131.255 382.444 130.596V128.493C382.313 128.601 382.088 128.702 381.77 128.795C381.46 128.888 381.112 128.969 380.724 129.039C380.337 129.109 379.953 129.171 379.574 129.225C379.194 129.279 378.865 129.326 378.586 129.364C377.958 129.45 377.397 129.589 376.901 129.783C376.405 129.976 376.014 130.248 375.727 130.596C375.44 130.937 375.297 131.379 375.297 131.921C375.297 132.696 375.58 133.281 376.145 133.676C376.711 134.071 377.432 134.269 378.307 134.269ZM394.423 113.198V137H390.216V113.198H394.423ZM177.178 170V146.198H192.426V149.813H181.489V156.275H191.38V159.889H181.489V170H177.178ZM195.513 170V152.149H199.721V170H195.513ZM197.629 149.615C196.962 149.615 196.389 149.394 195.909 148.953C195.428 148.503 195.188 147.965 195.188 147.337C195.188 146.702 195.428 146.163 195.909 145.722C196.389 145.272 196.962 145.048 197.629 145.048C198.303 145.048 198.876 145.272 199.349 145.722C199.829 146.163 200.069 146.702 200.069 147.337C200.069 147.965 199.829 148.503 199.349 148.953C198.876 149.394 198.303 149.615 197.629 149.615ZM207.599 146.198V170H203.392V146.198H207.599ZM211.271 170V152.149H215.292V155.182H215.501C215.873 154.159 216.489 153.361 217.349 152.788C218.209 152.207 219.236 151.916 220.429 151.916C221.638 151.916 222.657 152.211 223.486 152.8C224.322 153.381 224.911 154.175 225.252 155.182H225.438C225.833 154.19 226.5 153.4 227.437 152.811C228.382 152.215 229.502 151.916 230.796 151.916C232.438 151.916 233.779 152.435 234.817 153.474C235.855 154.512 236.374 156.027 236.374 158.018V170H232.156V158.669C232.156 157.561 231.861 156.751 231.272 156.24C230.684 155.721 229.963 155.461 229.111 155.461C228.096 155.461 227.302 155.779 226.728 156.414C226.163 157.042 225.88 157.859 225.88 158.866V170H221.754V158.494C221.754 157.572 221.475 156.836 220.917 156.286C220.367 155.736 219.647 155.461 218.756 155.461C218.151 155.461 217.601 155.616 217.105 155.926C216.609 156.228 216.214 156.658 215.92 157.216C215.625 157.766 215.478 158.409 215.478 159.145V170H211.271ZM247.637 170V146.198H262.885V149.813H251.949V156.275H261.839V159.889H251.949V170H247.637ZM272.565 170.349C270.776 170.349 269.23 169.977 267.928 169.233C266.634 168.481 265.639 167.42 264.941 166.049C264.244 164.669 263.896 163.046 263.896 161.179C263.896 159.343 264.244 157.731 264.941 156.344C265.647 154.95 266.631 153.865 267.893 153.09C269.156 152.308 270.64 151.916 272.345 151.916C273.445 151.916 274.483 152.095 275.459 152.451C276.443 152.8 277.311 153.342 278.063 154.078C278.822 154.814 279.419 155.752 279.852 156.89C280.286 158.022 280.503 159.37 280.503 160.935V162.225H265.871V159.389H276.47C276.463 158.583 276.288 157.867 275.947 157.239C275.607 156.604 275.13 156.104 274.518 155.74C273.914 155.376 273.209 155.194 272.403 155.194C271.543 155.194 270.787 155.403 270.136 155.821C269.486 156.232 268.978 156.774 268.614 157.448C268.258 158.115 268.076 158.847 268.068 159.645V162.12C268.068 163.159 268.258 164.05 268.637 164.793C269.017 165.529 269.548 166.095 270.229 166.49C270.911 166.878 271.709 167.071 272.624 167.071C273.236 167.071 273.79 166.986 274.285 166.816C274.781 166.637 275.211 166.378 275.576 166.037C275.94 165.696 276.215 165.274 276.401 164.77L280.329 165.212C280.081 166.25 279.608 167.157 278.911 167.931C278.221 168.698 277.338 169.295 276.261 169.721C275.184 170.139 273.952 170.349 272.565 170.349ZM297.517 156.867L293.682 157.286C293.573 156.898 293.383 156.534 293.112 156.193C292.849 155.852 292.492 155.577 292.043 155.368C291.594 155.159 291.043 155.054 290.393 155.054C289.517 155.054 288.781 155.244 288.184 155.624C287.596 156.003 287.305 156.495 287.313 157.1C287.305 157.619 287.495 158.041 287.882 158.366C288.277 158.692 288.928 158.959 289.835 159.168L292.88 159.819C294.569 160.183 295.824 160.761 296.645 161.551C297.474 162.341 297.893 163.376 297.9 164.654C297.893 165.777 297.563 166.769 296.913 167.629C296.269 168.481 295.375 169.148 294.228 169.628C293.081 170.108 291.764 170.349 290.276 170.349C288.092 170.349 286.333 169.892 285 168.977C283.667 168.055 282.873 166.773 282.618 165.13L286.72 164.735C286.906 165.541 287.301 166.149 287.906 166.56C288.51 166.971 289.296 167.176 290.265 167.176C291.264 167.176 292.066 166.971 292.671 166.56C293.283 166.149 293.589 165.642 293.589 165.037C293.589 164.526 293.391 164.104 292.996 163.771C292.609 163.437 292.004 163.182 291.183 163.004L288.138 162.364C286.426 162.008 285.159 161.408 284.338 160.563C283.516 159.711 283.11 158.634 283.117 157.332C283.11 156.232 283.408 155.279 284.012 154.473C284.624 153.66 285.473 153.032 286.557 152.59C287.65 152.141 288.909 151.916 290.335 151.916C292.426 151.916 294.073 152.362 295.274 153.253C296.483 154.144 297.23 155.349 297.517 156.867ZM309.629 152.149V155.403H299.367V152.149H309.629ZM301.9 147.872H306.108V164.631C306.108 165.196 306.193 165.63 306.363 165.932C306.541 166.227 306.774 166.428 307.061 166.537C307.347 166.645 307.665 166.699 308.014 166.699C308.277 166.699 308.517 166.68 308.734 166.641C308.959 166.603 309.129 166.568 309.245 166.537L309.954 169.826C309.73 169.903 309.408 169.988 308.99 170.081C308.579 170.174 308.076 170.229 307.479 170.244C306.425 170.275 305.476 170.116 304.632 169.768C303.787 169.411 303.117 168.861 302.621 168.117C302.133 167.373 301.893 166.444 301.9 165.328V147.872ZM312.493 170V152.149H316.7V170H312.493ZM314.608 149.615C313.942 149.615 313.368 149.394 312.888 148.953C312.408 148.503 312.168 147.965 312.168 147.337C312.168 146.702 312.408 146.163 312.888 145.722C313.368 145.272 313.942 145.048 314.608 145.048C315.282 145.048 315.856 145.272 316.328 145.722C316.809 146.163 317.049 146.702 317.049 147.337C317.049 147.965 316.809 148.503 316.328 148.953C315.856 149.394 315.282 149.615 314.608 149.615ZM336.317 152.149L329.96 170H325.311L318.954 152.149H323.44L327.543 165.409H327.728L331.843 152.149H336.317ZM343.199 170.36C342.068 170.36 341.049 170.159 340.143 169.756C339.244 169.345 338.531 168.741 338.004 167.943C337.485 167.145 337.226 166.161 337.226 164.991C337.226 163.984 337.412 163.151 337.784 162.492C338.155 161.834 338.663 161.307 339.306 160.912C339.949 160.517 340.673 160.218 341.479 160.017C342.293 159.808 343.133 159.657 344.001 159.564C345.047 159.455 345.896 159.358 346.546 159.273C347.197 159.18 347.67 159.041 347.964 158.855C348.266 158.661 348.418 158.363 348.418 157.96V157.89C348.418 157.014 348.158 156.337 347.639 155.856C347.12 155.376 346.372 155.136 345.396 155.136C344.365 155.136 343.548 155.36 342.944 155.81C342.347 156.259 341.944 156.79 341.735 157.402L337.807 156.844C338.117 155.759 338.628 154.853 339.341 154.124C340.054 153.388 340.925 152.838 341.956 152.474C342.986 152.102 344.125 151.916 345.373 151.916C346.233 151.916 347.089 152.017 347.941 152.218C348.793 152.42 349.572 152.753 350.277 153.218C350.982 153.675 351.548 154.299 351.974 155.089C352.408 155.879 352.625 156.867 352.625 158.053V170H348.58V167.548H348.441C348.185 168.044 347.825 168.509 347.36 168.942C346.903 169.369 346.326 169.713 345.628 169.977C344.939 170.232 344.129 170.36 343.199 170.36ZM344.292 167.269C345.136 167.269 345.868 167.102 346.488 166.769C347.108 166.428 347.585 165.979 347.918 165.421C348.259 164.863 348.429 164.255 348.429 163.596V161.493C348.297 161.601 348.073 161.702 347.755 161.795C347.445 161.888 347.097 161.969 346.709 162.039C346.322 162.109 345.938 162.171 345.559 162.225C345.179 162.279 344.85 162.326 344.571 162.364C343.943 162.45 343.381 162.589 342.886 162.783C342.39 162.976 341.998 163.248 341.712 163.596C341.425 163.937 341.282 164.379 341.282 164.921C341.282 165.696 341.564 166.281 342.13 166.676C342.696 167.071 343.416 167.269 344.292 167.269ZM360.408 146.198V170H356.2V146.198H360.408Z" fill="white"/>
<path d="M246.272 200V198.605L251.509 192.872C252.124 192.2 252.63 191.617 253.028 191.121C253.426 190.62 253.72 190.15 253.911 189.711C254.107 189.267 254.206 188.802 254.206 188.316C254.206 187.758 254.071 187.275 253.803 186.867C253.539 186.459 253.178 186.144 252.718 185.922C252.258 185.7 251.742 185.589 251.168 185.589C250.559 185.589 250.027 185.715 249.572 185.968C249.123 186.216 248.774 186.565 248.526 187.014C248.284 187.464 248.162 187.991 248.162 188.595H246.334C246.334 187.665 246.548 186.849 246.977 186.147C247.405 185.444 247.989 184.897 248.728 184.504C249.472 184.112 250.306 183.915 251.23 183.915C252.16 183.915 252.984 184.112 253.702 184.504C254.42 184.897 254.983 185.426 255.391 186.092C255.799 186.759 256.003 187.5 256.003 188.316C256.003 188.9 255.897 189.471 255.685 190.028C255.479 190.581 255.117 191.198 254.601 191.88C254.089 192.557 253.379 193.383 252.47 194.36L248.906 198.171V198.295H256.282V200H246.272ZM264.221 200.217C263.054 200.217 262.06 199.899 261.238 199.264C260.417 198.623 259.789 197.696 259.355 196.482C258.922 195.263 258.705 193.791 258.705 192.066C258.705 190.351 258.922 188.887 259.355 187.673C259.795 186.454 260.425 185.524 261.246 184.884C262.072 184.238 263.064 183.915 264.221 183.915C265.378 183.915 266.367 184.238 267.189 184.884C268.015 185.524 268.645 186.454 269.079 187.673C269.518 188.887 269.738 190.351 269.738 192.066C269.738 193.791 269.521 195.263 269.087 196.482C268.653 197.696 268.025 198.623 267.204 199.264C266.383 199.899 265.389 200.217 264.221 200.217ZM264.221 198.512C265.378 198.512 266.277 197.955 266.917 196.839C267.558 195.723 267.878 194.132 267.878 192.066C267.878 190.692 267.731 189.522 267.437 188.556C267.147 187.59 266.729 186.854 266.181 186.348C265.639 185.842 264.986 185.589 264.221 185.589C263.075 185.589 262.178 186.154 261.533 187.286C260.887 188.412 260.564 190.005 260.564 192.066C260.564 193.44 260.709 194.607 260.998 195.568C261.287 196.529 261.703 197.26 262.245 197.761C262.793 198.262 263.452 198.512 264.221 198.512ZM277.824 184.132V200H275.903V186.147H275.81L271.936 188.719V186.767L275.903 184.132H277.824ZM282.447 200L289.544 185.961V185.837H281.362V184.132H291.528V185.93L284.462 200H282.447Z" fill="white"/>
<path d="M489.838 73.6038C492.208 77.1463 494.484 81.5164 493.365 86.1997C489.504 83.9897 486.398 80.3814 483.935 76.8193C481.455 73.2333 478.88 69.42 477.998 65C482.868 66.2457 487.228 69.7037 489.838 73.6038Z" fill="white"/>
<path d="M496.756 95.1908C495.381 91.4902 492.371 88.2635 489.095 86.7585C486.053 85.3629 482.013 83.9064 478.463 85.6948C480.395 89.0871 483.576 91.9415 486.825 93.7369C489.746 95.3511 493.446 97.3068 497.108 96.4662C501.099 95.8549 503.028 91.8818 504.101 88.8763C505.586 84.723 504.571 79.1764 502.036 75.1016C498.541 76.5581 497.475 80.8794 496.745 83.9369C495.912 87.4172 495.889 91.4796 496.756 95.1908Z" fill="white"/>
<path d="M493.887 100.539C496.701 102.546 498.861 106.215 499.325 109.982C499.365 106.207 500.392 102.311 502.041 99.1715C503.55 96.2997 505.655 92.4184 509.4 91.6447C510.871 96.116 510.395 101.585 508.016 105.205C506.217 107.947 503.431 111.38 499.377 111.288C495.677 111.477 492.482 108.95 489.968 106.841C487.263 104.573 484.823 101.257 483.797 97.6735C487.574 96.5765 491.19 98.6158 493.887 100.539Z" fill="white"/>
<path d="M498.373 124.804C498.785 121.113 497.551 117.122 495.25 114.656C493.035 112.279 489.929 109.688 486.062 110.101C486.14 113.84 488.012 117.405 489.944 120.075C491.743 122.562 494.514 125.638 498.142 126.081C501.914 126.72 505.596 124.411 507.989 121.694C511.066 118.198 512.9 113.507 512.534 108.808C508.658 108.904 505.723 112.249 503.552 114.779C501.21 117.508 499.292 121.099 498.373 124.804Z" fill="white"/>
<path d="M492.882 128.166C494.716 131.811 495.065 136.148 493.65 139.966C495.737 136.037 498.791 132.86 502.024 129.924C504.962 127.256 509.195 124.446 513.454 124.978C512.641 130.245 509.42 135.707 505.1 138.514C501.628 140.769 497.421 143.002 493.001 141.316C489.364 140.033 487.055 136.371 485.636 133.01C484.134 129.455 483.133 125.355 483.834 121.465C487.822 121.822 491.129 124.68 492.882 128.166Z" fill="white"/>
<path d="M485.174 154.019C487.481 150.507 488.286 146.11 487.343 141.983C486.449 138.074 483.73 134.504 479.765 133.394C478.112 137.16 478.084 141.541 478.683 145.514C479.243 149.19 480.61 153.48 484.007 155.53C488.202 158.191 493.101 156.617 497.124 155.025C502.315 152.972 507 148.004 509.192 142.665C504.656 141.227 500.019 143.599 496.239 145.566C492.329 147.601 488.245 150.503 485.174 154.019Z" fill="white"/>
<path d="M467.828 156.913C467.323 160.746 467.332 165.609 470.308 168.562C474.022 172.373 479.78 171.642 484.221 170.807C490.184 169.687 496.897 165.625 500.499 160.215C496.11 157.794 490.735 159.336 486.387 160.585L486.136 160.656C481.283 162.049 476.11 164.293 471.781 167.362C475.236 164.245 477.753 159.67 477.88 155.057C477.995 150.93 476.208 146.512 472.355 144.542C469.659 148.072 468.396 152.607 467.828 156.913Z" fill="white"/>
<path d="M464.497 184.994C459.733 184.894 453.196 184.325 450.531 179.404L450.494 179.336C448.366 175.176 450.529 170.314 452.253 166.715C454.303 162.437 457.103 158.078 461.106 154.949C464.947 158.263 464.575 163 463.43 167.116C462.066 172.011 457.354 176.181 452.475 178.555C458.124 176.454 464.292 175.194 470.16 174.825L470.757 174.787C475.472 174.484 481.608 174.089 485.36 177.541C479.676 182.364 471.608 185.144 464.497 184.994Z" fill="white"/>
</svg>
