<svg width="431" height="250" viewBox="0 0 431 250" fill="none" xmlns="http://www.w3.org/2000/svg">
<path d="M44.1277 86.1862C43.0118 81.5024 45.2914 77.1344 47.6659 73.5942C50.2797 69.6967 54.6408 66.2422 59.5114 65C58.6265 69.4188 56.0476 73.2303 53.5653 76.8138C51.0997 80.3739 47.99 83.9796 44.1277 86.1862Z" fill="white"/>
<path d="M40.7293 95.1708C41.6004 91.4616 41.5811 87.401 40.7518 83.9219C40.0226 80.8643 38.9615 76.5422 35.4692 75.0837C32.9307 79.1556 31.9102 84.7007 33.3897 88.8556C34.4594 91.861 36.3832 95.8345 40.373 96.4496C44.034 97.2935 47.736 95.3406 50.6597 93.7282C53.9107 91.9357 57.0951 89.0837 59.0299 85.6931C55.4807 83.9017 51.4388 85.3555 48.398 86.7487C45.1202 88.2507 42.109 91.4732 40.7293 95.1708Z" fill="white"/>
<path d="M29.4561 105.18C31.2565 107.926 34.0424 111.367 38.1045 111.269C41.7984 111.453 44.9898 108.933 47.5029 106.829C50.2095 104.562 52.6526 101.249 53.684 97.666C49.9059 96.5668 46.2887 98.6031 43.5913 100.524C40.7746 102.53 38.6083 106.201 38.1429 109.97C38.108 106.194 37.0858 102.294 35.438 99.1515C33.9314 96.2791 31.832 92.3963 28.0865 91.6201C26.6108 96.0896 27.0817 101.558 29.4561 105.18Z" fill="white"/>
<path d="M39.3056 126.062C35.5356 126.694 31.8582 124.384 29.4699 121.667C26.395 118.169 24.5655 113.476 24.9386 108.779C28.8116 108.877 31.7448 112.225 33.9129 114.756C36.2478 117.483 38.1609 121.07 39.0787 124.771C38.675 121.083 39.9132 117.101 42.2115 114.64C44.43 112.265 47.5377 109.676 51.4043 110.091C51.321 113.831 49.4465 117.394 47.5132 120.062C45.7111 122.548 42.9349 125.624 39.3056 126.062Z" fill="white"/>
<path d="M32.3419 138.488C35.8141 140.749 40.0252 142.986 44.4509 141.293C48.0817 140.008 50.3901 136.354 51.8099 132.999C53.3139 129.445 54.3184 125.346 53.623 121.456C49.6332 121.81 46.3249 124.665 44.5677 128.149C42.7307 131.792 42.3784 136.128 43.7895 139.947C41.7045 136.018 38.6554 132.839 35.4254 129.901C32.4892 127.231 28.2599 124.418 24 124.947C24.8105 130.214 28.0243 135.677 32.3419 138.488Z" fill="white"/>
<path d="M53.3943 155.53C56.8111 153.488 58.1862 149.19 58.7482 145.507C59.354 141.535 59.328 137.155 57.6784 133.387C53.7144 134.494 50.9933 138.062 50.0949 141.97C49.1456 146.098 49.9466 150.499 52.2557 154.014C49.1863 150.493 45.1049 147.585 41.1936 145.546C37.4155 143.577 32.7804 141.202 28.2432 142.636C30.4311 147.976 35.1114 152.947 40.2986 155.004C44.3157 156.596 49.2027 158.171 53.3943 155.53Z" fill="white"/>
<path d="M69.5932 156.913C70.0946 160.747 70.0804 165.609 67.1039 168.56C63.3844 172.367 57.628 171.633 53.1882 170.795C47.2276 169.67 40.518 165.604 36.9219 160.191C41.3138 157.773 46.6853 159.32 51.0334 160.572L51.2817 160.643C56.1353 162.04 61.3075 164.289 65.6331 167.362C62.1811 164.243 59.666 159.665 59.5428 155.05C59.4321 150.923 61.2236 146.507 65.0786 144.54C67.77 148.072 69.0303 152.607 69.5932 156.913Z" fill="white"/>
<path d="M86.8678 179.415C89.0598 175.242 86.888 170.345 85.1574 166.726C83.1114 162.447 80.3159 158.086 76.3152 154.954C72.4737 158.265 72.839 163.002 73.9811 167.119C75.3392 172.014 80.0475 176.187 84.923 178.565C79.2765 176.459 73.1098 175.195 67.2427 174.822L66.6484 174.784C61.935 174.477 55.7989 174.077 52.043 177.526C57.7218 182.354 65.788 185.139 72.8973 184.995C77.6615 184.898 84.1981 184.334 86.8678 179.415Z" fill="white"/>
<path d="M113.579 66.0909H111.657C111.543 65.5382 111.345 65.0527 111.061 64.6343C110.782 64.2159 110.441 63.8647 110.038 63.5806C109.64 63.2913 109.198 63.0744 108.713 62.9298C108.227 62.7851 107.721 62.7128 107.194 62.7128C106.234 62.7128 105.363 62.9556 104.583 63.4411C103.808 63.9267 103.191 64.642 102.732 65.5873C102.277 66.5325 102.05 67.6921 102.05 69.0661C102.05 70.4401 102.277 71.5997 102.732 72.5449C103.191 73.4902 103.808 74.2056 104.583 74.6911C105.363 75.1767 106.234 75.4194 107.194 75.4194C107.721 75.4194 108.227 75.3471 108.713 75.2025C109.198 75.0579 109.64 74.8435 110.038 74.5594C110.441 74.2701 110.782 73.9163 111.061 73.4979C111.345 73.0744 111.543 72.5888 111.657 72.0413H113.579C113.434 72.8523 113.171 73.578 112.788 74.2185C112.406 74.859 111.931 75.4039 111.363 75.8533C110.795 76.2975 110.157 76.6358 109.449 76.8683C108.746 77.1007 107.995 77.2169 107.194 77.2169C105.841 77.2169 104.637 76.8864 103.584 76.2252C102.53 75.564 101.701 74.624 101.097 73.405C100.492 72.186 100.19 70.7397 100.19 69.0661C100.19 67.3926 100.492 65.9463 101.097 64.7273C101.701 63.5083 102.53 62.5682 103.584 61.907C104.637 61.2459 105.841 60.9153 107.194 60.9153C107.995 60.9153 108.746 61.0315 109.449 61.2639C110.157 61.4964 110.795 61.8373 111.363 62.2867C111.931 62.7309 112.406 63.2732 112.788 63.9137C113.171 64.5491 113.434 65.2748 113.579 66.0909ZM115.999 77V65.0992H117.828V77H115.999ZM116.929 63.1157C116.573 63.1157 116.265 62.9943 116.007 62.7515C115.754 62.5088 115.627 62.2169 115.627 61.876C115.627 61.5351 115.754 61.2433 116.007 61.0005C116.265 60.7577 116.573 60.6364 116.929 60.6364C117.285 60.6364 117.59 60.7577 117.843 61.0005C118.102 61.2433 118.231 61.5351 118.231 61.876C118.231 62.2169 118.102 62.5088 117.843 62.7515C117.59 62.9943 117.285 63.1157 116.929 63.1157ZM122.569 69.8409V77H120.74V65.0992H122.507V66.9587H122.662C122.941 66.3543 123.364 65.8688 123.933 65.5021C124.501 65.1302 125.234 64.9442 126.133 64.9442C126.939 64.9442 127.644 65.1095 128.248 65.4401C128.853 65.7655 129.323 66.2614 129.658 66.9277C129.994 67.5888 130.162 68.4256 130.162 69.438V77H128.333V69.562C128.333 68.6271 128.091 67.8988 127.605 67.3771C127.12 66.8502 126.453 66.5868 125.606 66.5868C125.023 66.5868 124.501 66.7133 124.041 66.9664C123.587 67.2195 123.228 67.5888 122.964 68.0744C122.701 68.5599 122.569 69.1488 122.569 69.8409ZM138.057 77.2479C136.91 77.2479 135.921 76.9948 135.089 76.4886C134.263 75.9773 133.625 75.2645 133.175 74.3502C132.731 73.4308 132.509 72.3616 132.509 71.1426C132.509 69.9236 132.731 68.8492 133.175 67.9194C133.625 66.9845 134.25 66.2562 135.05 65.7345C135.856 65.2076 136.796 64.9442 137.871 64.9442C138.49 64.9442 139.103 65.0475 139.707 65.2541C140.311 65.4607 140.861 65.7965 141.357 66.2614C141.853 66.7211 142.248 67.3306 142.543 68.0899C142.837 68.8492 142.984 69.7841 142.984 70.8946V71.6694H133.811V70.0888H141.125C141.125 69.4174 140.99 68.8182 140.722 68.2913C140.458 67.7645 140.081 67.3487 139.591 67.0439C139.105 66.7392 138.532 66.5868 137.871 66.5868C137.142 66.5868 136.512 66.7676 135.98 67.1291C135.453 67.4855 135.048 67.9504 134.764 68.5238C134.48 69.0971 134.338 69.7118 134.338 70.3678V71.4215C134.338 72.3202 134.493 73.0821 134.802 73.7071C135.118 74.327 135.554 74.7996 136.112 75.125C136.67 75.4452 137.318 75.6054 138.057 75.6054C138.537 75.6054 138.971 75.5382 139.358 75.4039C139.751 75.2645 140.089 75.0579 140.373 74.7841C140.657 74.5052 140.877 74.1591 141.032 73.7459L142.798 74.2417C142.612 74.8409 142.3 75.3678 141.861 75.8223C141.422 76.2717 140.879 76.6229 140.234 76.876C139.588 77.124 138.862 77.2479 138.057 77.2479ZM145.329 77V65.0992H147.096V66.9587H147.251C147.499 66.3233 147.899 65.8301 148.452 65.4788C149.005 65.1224 149.668 64.9442 150.443 64.9442C151.228 64.9442 151.882 65.1224 152.403 65.4788C152.93 65.8301 153.341 66.3233 153.635 66.9587H153.759C154.064 66.344 154.521 65.8559 155.131 65.4943C155.74 65.1276 156.471 64.9442 157.323 64.9442C158.387 64.9442 159.258 65.2774 159.934 65.9437C160.611 66.6049 160.949 67.6353 160.949 69.0351V77H159.121V69.0351C159.121 68.157 158.881 67.5294 158.4 67.1524C157.92 66.7753 157.354 66.5868 156.703 66.5868C155.867 66.5868 155.218 66.8399 154.759 67.3461C154.299 67.8471 154.069 68.4824 154.069 69.2521V77H152.21V68.8492C152.21 68.1725 151.99 67.6276 151.551 67.2144C151.112 66.796 150.546 66.5868 149.854 66.5868C149.379 66.5868 148.935 66.7133 148.522 66.9664C148.114 67.2195 147.783 67.5708 147.53 68.0201C147.282 68.4644 147.158 68.9783 147.158 69.562V77H145.329ZM167.358 77.2789C166.604 77.2789 165.92 77.1369 165.305 76.8528C164.69 76.5635 164.202 76.1477 163.841 75.6054C163.479 75.0579 163.298 74.3967 163.298 73.6219C163.298 72.9401 163.433 72.3874 163.701 71.9638C163.97 71.5351 164.329 71.1994 164.778 70.9566C165.227 70.7138 165.723 70.5331 166.266 70.4143C166.813 70.2903 167.363 70.1921 167.916 70.1198C168.639 70.0269 169.225 69.9571 169.675 69.9106C170.129 69.859 170.46 69.7738 170.667 69.655C170.878 69.5362 170.984 69.3295 170.984 69.0351V68.9731C170.984 68.2087 170.775 67.6147 170.357 67.1911C169.943 66.7676 169.316 66.5558 168.474 66.5558C167.601 66.5558 166.917 66.7469 166.421 67.1291C165.925 67.5114 165.576 67.9194 165.375 68.3533L163.639 67.7335C163.949 67.0103 164.362 66.4473 164.879 66.0444C165.401 65.6364 165.969 65.3523 166.583 65.1921C167.203 65.0269 167.813 64.9442 168.412 64.9442C168.794 64.9442 169.233 64.9907 169.729 65.0837C170.23 65.1715 170.713 65.3549 171.178 65.6338C171.648 65.9127 172.038 66.3337 172.348 66.8967C172.658 67.4597 172.813 68.2138 172.813 69.1591V77H170.984V75.3884H170.891C170.767 75.6467 170.561 75.923 170.271 76.2175C169.982 76.5119 169.597 76.7624 169.117 76.969C168.637 77.1756 168.05 77.2789 167.358 77.2789ZM167.637 75.6364C168.36 75.6364 168.97 75.4943 169.466 75.2102C169.967 74.9261 170.344 74.5594 170.597 74.11C170.855 73.6606 170.984 73.188 170.984 72.6921V71.0186C170.907 71.1116 170.736 71.1968 170.473 71.2743C170.215 71.3466 169.915 71.4112 169.574 71.468C169.238 71.5196 168.91 71.5661 168.59 71.6074C168.275 71.6436 168.019 71.6746 167.823 71.7004C167.348 71.7624 166.904 71.8631 166.49 72.0026C166.082 72.1369 165.752 72.3409 165.499 72.6147C165.251 72.8833 165.127 73.25 165.127 73.7149C165.127 74.3502 165.362 74.8306 165.832 75.156C166.307 75.4762 166.909 75.6364 167.637 75.6364ZM180.889 65.0992V66.6488H174.722V65.0992H180.889ZM176.52 62.2479H178.348V73.5909C178.348 74.1074 178.423 74.4948 178.573 74.7531C178.728 75.0062 178.924 75.1767 179.162 75.2645C179.404 75.3471 179.66 75.3884 179.929 75.3884C180.13 75.3884 180.295 75.3781 180.425 75.3574C180.554 75.3316 180.657 75.311 180.734 75.2955L181.106 76.938C180.982 76.9845 180.809 77.031 180.587 77.0775C180.365 77.1291 180.084 77.155 179.743 77.155C179.226 77.155 178.72 77.0439 178.224 76.8218C177.733 76.5997 177.325 76.2614 177 75.8068C176.68 75.3523 176.52 74.7789 176.52 74.0868V62.2479ZM187.91 77.2479C186.836 77.2479 185.893 76.9923 185.082 76.4809C184.277 75.9695 183.646 75.2541 183.192 74.3347C182.743 73.4153 182.518 72.3409 182.518 71.1116C182.518 69.8719 182.743 68.7898 183.192 67.8652C183.646 66.9406 184.277 66.2226 185.082 65.7113C185.893 65.1999 186.836 64.9442 187.91 64.9442C188.985 64.9442 189.925 65.1999 190.731 65.7113C191.542 66.2226 192.172 66.9406 192.621 67.8652C193.076 68.7898 193.303 69.8719 193.303 71.1116C193.303 72.3409 193.076 73.4153 192.621 74.3347C192.172 75.2541 191.542 75.9695 190.731 76.4809C189.925 76.9923 188.985 77.2479 187.91 77.2479ZM187.91 75.6054C188.727 75.6054 189.398 75.3962 189.925 74.9778C190.452 74.5594 190.842 74.0093 191.095 73.3275C191.348 72.6457 191.474 71.907 191.474 71.1116C191.474 70.3161 191.348 69.5749 191.095 68.8879C190.842 68.2009 190.452 67.6457 189.925 67.2221C189.398 66.7986 188.727 66.5868 187.91 66.5868C187.094 66.5868 186.423 66.7986 185.896 67.2221C185.369 67.6457 184.979 68.2009 184.726 68.8879C184.473 69.5749 184.346 70.3161 184.346 71.1116C184.346 71.907 184.473 72.6457 184.726 73.3275C184.979 74.0093 185.369 74.5594 185.896 74.9778C186.423 75.3962 187.094 75.6054 187.91 75.6054ZM200.462 81.7107C199.578 81.7107 198.819 81.5971 198.184 81.3698C197.548 81.1477 197.019 80.8533 196.595 80.4866C196.177 80.125 195.844 79.7376 195.596 79.3244L197.052 78.3017C197.218 78.5186 197.427 78.7665 197.68 79.0455C197.933 79.3295 198.279 79.5749 198.718 79.7815C199.162 79.9933 199.744 80.0992 200.462 80.0992C201.422 80.0992 202.215 79.8667 202.84 79.4019C203.465 78.937 203.778 78.2087 203.778 77.2169V74.7996H203.623C203.488 75.0165 203.297 75.2851 203.049 75.6054C202.807 75.9205 202.455 76.202 201.996 76.4499C201.541 76.6927 200.926 76.814 200.152 76.814C199.191 76.814 198.328 76.5868 197.564 76.1322C196.805 75.6777 196.203 75.0165 195.759 74.1488C195.319 73.281 195.1 72.2273 195.1 70.9876C195.1 69.7686 195.314 68.7071 195.743 67.8032C196.172 66.8941 196.768 66.1916 197.533 65.6958C198.297 65.1947 199.181 64.9442 200.183 64.9442C200.957 64.9442 201.572 65.0733 202.027 65.3316C202.486 65.5847 202.838 65.874 203.08 66.1994C203.328 66.5196 203.519 66.7831 203.654 66.9897H203.84V65.0992H205.606V77.3409C205.606 78.3636 205.374 79.1952 204.909 79.8357C204.449 80.4814 203.829 80.954 203.049 81.2536C202.275 81.5584 201.412 81.7107 200.462 81.7107ZM200.4 75.1715C201.133 75.1715 201.753 75.0036 202.259 74.6679C202.765 74.3321 203.15 73.8492 203.414 73.219C203.677 72.5888 203.809 71.8347 203.809 70.9566C203.809 70.0992 203.68 69.3425 203.421 68.6865C203.163 68.0305 202.781 67.5165 202.275 67.1446C201.768 66.7727 201.143 66.5868 200.4 66.5868C199.625 66.5868 198.979 66.7831 198.463 67.1756C197.951 67.5682 197.566 68.095 197.308 68.7562C197.055 69.4174 196.928 70.1508 196.928 70.9566C196.928 71.7831 197.058 72.5139 197.316 73.1493C197.579 73.7794 197.967 74.2753 198.478 74.6369C198.995 74.9933 199.635 75.1715 200.4 75.1715ZM208.517 77V65.0992H210.283V66.8967H210.407C210.624 66.3079 211.017 65.8301 211.585 65.4633C212.153 65.0966 212.794 64.9132 213.507 64.9132C213.641 64.9132 213.809 64.9158 214.01 64.921C214.212 64.9261 214.364 64.9339 214.467 64.9442V66.8037C214.405 66.7882 214.263 66.765 214.041 66.734C213.824 66.6978 213.594 66.6798 213.352 66.6798C212.773 66.6798 212.257 66.8011 211.802 67.0439C211.353 67.2815 210.996 67.6121 210.733 68.0356C210.475 68.454 210.345 68.9318 210.345 69.469V77H208.517ZM219.701 77.2789C218.946 77.2789 218.262 77.1369 217.647 76.8528C217.033 76.5635 216.545 76.1477 216.183 75.6054C215.821 75.0579 215.641 74.3967 215.641 73.6219C215.641 72.9401 215.775 72.3874 216.043 71.9638C216.312 71.5351 216.671 71.1994 217.12 70.9566C217.57 70.7138 218.066 70.5331 218.608 70.4143C219.156 70.2903 219.706 70.1921 220.258 70.1198C220.982 70.0269 221.568 69.9571 222.017 69.9106C222.472 69.859 222.802 69.7738 223.009 69.655C223.221 69.5362 223.327 69.3295 223.327 69.0351V68.9731C223.327 68.2087 223.117 67.6147 222.699 67.1911C222.286 66.7676 221.658 66.5558 220.816 66.5558C219.943 66.5558 219.259 66.7469 218.763 67.1291C218.267 67.5114 217.918 67.9194 217.717 68.3533L215.982 67.7335C216.291 67.0103 216.705 66.4473 217.221 66.0444C217.743 65.6364 218.311 65.3523 218.926 65.1921C219.546 65.0269 220.155 64.9442 220.754 64.9442C221.136 64.9442 221.576 64.9907 222.071 65.0837C222.572 65.1715 223.055 65.3549 223.52 65.6338C223.99 65.9127 224.38 66.3337 224.69 66.8967C225 67.4597 225.155 68.2138 225.155 69.1591V77H223.327V75.3884H223.234C223.11 75.6467 222.903 75.923 222.614 76.2175C222.324 76.5119 221.94 76.7624 221.459 76.969C220.979 77.1756 220.393 77.2789 219.701 77.2789ZM219.979 75.6364C220.703 75.6364 221.312 75.4943 221.808 75.2102C222.309 74.9261 222.686 74.5594 222.939 74.11C223.197 73.6606 223.327 73.188 223.327 72.6921V71.0186C223.249 71.1116 223.079 71.1968 222.815 71.2743C222.557 71.3466 222.257 71.4112 221.916 71.468C221.581 71.5196 221.253 71.5661 220.932 71.6074C220.617 71.6436 220.362 71.6746 220.165 71.7004C219.69 71.7624 219.246 71.8631 218.833 72.0026C218.425 72.1369 218.094 72.3409 217.841 72.6147C217.593 72.8833 217.469 73.25 217.469 73.7149C217.469 74.3502 217.704 74.8306 218.174 75.156C218.649 75.4762 219.251 75.6364 219.979 75.6364ZM228.056 81.4628V65.0992H229.823V66.9897H230.04C230.174 66.7831 230.36 66.5196 230.597 66.1994C230.84 65.874 231.186 65.5847 231.636 65.3316C232.09 65.0733 232.705 64.9442 233.48 64.9442C234.482 64.9442 235.365 65.1947 236.129 65.6958C236.894 66.1968 237.491 66.907 237.919 67.8264C238.348 68.7459 238.562 69.8306 238.562 71.0806C238.562 72.3409 238.348 73.4334 237.919 74.358C237.491 75.2774 236.897 75.9902 236.137 76.4964C235.378 76.9974 234.502 77.2479 233.511 77.2479C232.746 77.2479 232.134 77.1214 231.674 76.8683C231.215 76.61 230.861 76.3182 230.613 75.9928C230.365 75.6622 230.174 75.3884 230.04 75.1715H229.885V81.4628H228.056ZM229.854 71.0496C229.854 71.9483 229.985 72.7412 230.249 73.4282C230.512 74.11 230.897 74.6446 231.403 75.032C231.909 75.4143 232.529 75.6054 233.263 75.6054C234.027 75.6054 234.665 75.4039 235.176 75.001C235.693 74.593 236.08 74.0455 236.339 73.3585C236.602 72.6663 236.734 71.8967 236.734 71.0496C236.734 70.2128 236.605 69.4587 236.346 68.7872C236.093 68.1105 235.708 67.5759 235.192 67.1834C234.681 66.7856 234.038 66.5868 233.263 66.5868C232.519 66.5868 231.894 66.7753 231.388 67.1524C230.882 67.5243 230.499 68.046 230.241 68.7175C229.983 69.3838 229.854 70.1612 229.854 71.0496ZM242.744 69.8409V77H240.915V61.1322H242.744V66.9587H242.899C243.178 66.344 243.596 65.8559 244.154 65.4943C244.717 65.1276 245.466 64.9442 246.401 64.9442C247.212 64.9442 247.922 65.1069 248.531 65.4323C249.141 65.7526 249.614 66.2459 249.949 66.9122C250.29 67.5733 250.461 68.4153 250.461 69.438V77H248.632V69.562C248.632 68.6167 248.387 67.8858 247.896 67.3693C247.411 66.8476 246.737 66.5868 245.874 66.5868C245.275 66.5868 244.738 66.7133 244.262 66.9664C243.792 67.2195 243.42 67.5888 243.147 68.0744C242.878 68.5599 242.744 69.1488 242.744 69.8409ZM254.121 81.4628C253.811 81.4628 253.535 81.437 253.292 81.3853C253.049 81.3388 252.881 81.2924 252.788 81.2459L253.253 79.6343C253.697 79.7479 254.09 79.7893 254.431 79.7583C254.772 79.7273 255.074 79.5749 255.337 79.3011C255.606 79.0325 255.851 78.5961 256.073 77.9917L256.414 77.062L252.014 65.0992H253.997L257.282 74.5826H257.406L260.691 65.0992H262.675L257.623 78.7355C257.396 79.3502 257.114 79.859 256.779 80.2619C256.443 80.6699 256.053 80.9721 255.609 81.1684C255.17 81.3647 254.674 81.4628 254.121 81.4628ZM271.251 77H269.236L275.063 61.1322H277.046L282.873 77H280.858L276.116 63.6426H275.992L271.251 77ZM271.994 70.8017H280.114V72.5062H271.994V70.8017ZM285.865 77L282.239 65.0992H284.16L286.732 74.2107H286.856L289.398 65.0992H291.35L293.86 74.1798H293.984L296.557 65.0992H298.478L294.852 77H293.055L290.451 67.8574H290.265L287.662 77H285.865ZM303.961 77.2789C303.207 77.2789 302.523 77.1369 301.908 76.8528C301.293 76.5635 300.805 76.1477 300.444 75.6054C300.082 75.0579 299.901 74.3967 299.901 73.6219C299.901 72.9401 300.036 72.3874 300.304 71.9638C300.573 71.5351 300.932 71.1994 301.381 70.9566C301.831 70.7138 302.326 70.5331 302.869 70.4143C303.416 70.2903 303.966 70.1921 304.519 70.1198C305.242 70.0269 305.829 69.9571 306.278 69.9106C306.732 69.859 307.063 69.7738 307.27 69.655C307.481 69.5362 307.587 69.3295 307.587 69.0351V68.9731C307.587 68.2087 307.378 67.6147 306.96 67.1911C306.547 66.7676 305.919 66.5558 305.077 66.5558C304.204 66.5558 303.52 66.7469 303.024 67.1291C302.528 67.5114 302.179 67.9194 301.978 68.3533L300.242 67.7335C300.552 67.0103 300.965 66.4473 301.482 66.0444C302.004 65.6364 302.572 65.3523 303.187 65.1921C303.806 65.0269 304.416 64.9442 305.015 64.9442C305.397 64.9442 305.836 64.9907 306.332 65.0837C306.833 65.1715 307.316 65.3549 307.781 65.6338C308.251 65.9127 308.641 66.3337 308.951 66.8967C309.261 67.4597 309.416 68.2138 309.416 69.1591V77H307.587V75.3884H307.494C307.37 75.6467 307.164 75.923 306.875 76.2175C306.585 76.5119 306.2 76.7624 305.72 76.969C305.24 77.1756 304.653 77.2789 303.961 77.2789ZM304.24 75.6364C304.963 75.6364 305.573 75.4943 306.069 75.2102C306.57 74.9261 306.947 74.5594 307.2 74.11C307.458 73.6606 307.587 73.188 307.587 72.6921V71.0186C307.51 71.1116 307.339 71.1968 307.076 71.2743C306.818 71.3466 306.518 71.4112 306.177 71.468C305.841 71.5196 305.513 71.5661 305.193 71.6074C304.878 71.6436 304.622 71.6746 304.426 71.7004C303.951 71.7624 303.507 71.8631 303.094 72.0026C302.685 72.1369 302.355 72.3409 302.102 72.6147C301.854 72.8833 301.73 73.25 301.73 73.7149C301.73 74.3502 301.965 74.8306 302.435 75.156C302.91 75.4762 303.512 75.6364 304.24 75.6364ZM312.317 77V65.0992H314.083V66.8967H314.207C314.424 66.3079 314.817 65.8301 315.385 65.4633C315.953 65.0966 316.594 64.9132 317.307 64.9132C317.441 64.9132 317.609 64.9158 317.81 64.921C318.012 64.9261 318.164 64.9339 318.267 64.9442V66.8037C318.205 66.7882 318.063 66.765 317.841 66.734C317.624 66.6978 317.394 66.6798 317.152 66.6798C316.573 66.6798 316.057 66.8011 315.602 67.0439C315.153 67.2815 314.796 67.6121 314.533 68.0356C314.275 68.454 314.145 68.9318 314.145 69.469V77H312.317ZM324.13 77.2479C323.138 77.2479 322.263 76.9974 321.503 76.4964C320.744 75.9902 320.15 75.2774 319.721 74.358C319.293 73.4334 319.078 72.3409 319.078 71.0806C319.078 69.8306 319.293 68.7459 319.721 67.8264C320.15 66.907 320.747 66.1968 321.511 65.6958C322.276 65.1947 323.159 64.9442 324.161 64.9442C324.936 64.9442 325.548 65.0733 325.997 65.3316C326.452 65.5847 326.798 65.874 327.036 66.1994C327.278 66.5196 327.467 66.7831 327.601 66.9897H327.756V61.1322H329.585V77H327.818V75.1715H327.601C327.467 75.3884 327.276 75.6622 327.028 75.9928C326.78 76.3182 326.426 76.61 325.966 76.8683C325.507 77.1214 324.894 77.2479 324.13 77.2479ZM324.378 75.6054C325.111 75.6054 325.731 75.4143 326.237 75.032C326.744 74.6446 327.128 74.11 327.392 73.4282C327.655 72.7412 327.787 71.9483 327.787 71.0496C327.787 70.1612 327.658 69.3838 327.4 68.7175C327.141 68.046 326.759 67.5243 326.253 67.1524C325.747 66.7753 325.122 66.5868 324.378 66.5868C323.603 66.5868 322.958 66.7856 322.441 67.1834C321.93 67.5759 321.545 68.1105 321.287 68.7872C321.033 69.4587 320.907 70.2128 320.907 71.0496C320.907 71.8967 321.036 72.6663 321.294 73.3585C321.558 74.0455 321.945 74.593 322.456 75.001C322.973 75.4039 323.614 75.6054 324.378 75.6054ZM126.665 90.1322V106H124.743V90.1322H126.665ZM138.263 96.7645L136.62 97.2293C136.517 96.9556 136.364 96.6896 136.163 96.4313C135.967 96.1679 135.698 95.9509 135.357 95.7805C135.016 95.61 134.58 95.5248 134.048 95.5248C133.32 95.5248 132.713 95.6927 132.227 96.0284C131.747 96.359 131.507 96.78 131.507 97.2913C131.507 97.7459 131.672 98.1049 132.002 98.3683C132.333 98.6317 132.849 98.8512 133.552 99.0269L135.318 99.4607C136.383 99.719 137.175 100.114 137.697 100.646C138.219 101.173 138.48 101.852 138.48 102.684C138.48 103.366 138.283 103.975 137.891 104.512C137.503 105.05 136.961 105.473 136.264 105.783C135.566 106.093 134.755 106.248 133.831 106.248C132.617 106.248 131.612 105.985 130.817 105.458C130.021 104.931 129.518 104.161 129.306 103.149L131.042 102.715C131.207 103.355 131.519 103.836 131.979 104.156C132.444 104.476 133.051 104.636 133.8 104.636C134.652 104.636 135.329 104.456 135.83 104.094C136.336 103.727 136.589 103.288 136.589 102.777C136.589 102.364 136.445 102.018 136.155 101.739C135.866 101.455 135.422 101.243 134.823 101.103L132.839 100.638C131.749 100.38 130.949 99.9799 130.437 99.4375C129.931 98.89 129.678 98.2056 129.678 97.3843C129.678 96.7128 129.867 96.1188 130.244 95.6023C130.626 95.0857 131.145 94.6803 131.801 94.3858C132.462 94.0914 133.211 93.9442 134.048 93.9442C135.226 93.9442 136.15 94.2025 136.822 94.719C137.498 95.2355 137.979 95.9174 138.263 96.7645ZM140.796 106V94.0992H142.562V95.8967H142.686C142.903 95.3079 143.296 94.8301 143.864 94.4633C144.432 94.0966 145.073 93.9132 145.785 93.9132C145.92 93.9132 146.088 93.9158 146.289 93.921C146.49 93.9261 146.643 93.9339 146.746 93.9442V95.8037C146.684 95.7882 146.542 95.765 146.32 95.734C146.103 95.6978 145.873 95.6798 145.63 95.6798C145.052 95.6798 144.535 95.8011 144.081 96.0439C143.631 96.2815 143.275 96.6121 143.012 97.0356C142.753 97.454 142.624 97.9318 142.624 98.469V106H140.796ZM151.979 106.279C151.225 106.279 150.541 106.137 149.926 105.853C149.311 105.564 148.823 105.148 148.462 104.605C148.1 104.058 147.919 103.397 147.919 102.622C147.919 101.94 148.054 101.387 148.322 100.964C148.591 100.535 148.95 100.199 149.399 99.9566C149.849 99.7138 150.345 99.5331 150.887 99.4143C151.434 99.2903 151.985 99.1921 152.537 99.1198C153.26 99.0269 153.847 98.9571 154.296 98.9106C154.751 98.859 155.081 98.7738 155.288 98.655C155.499 98.5362 155.605 98.3295 155.605 98.0351V97.9731C155.605 97.2087 155.396 96.6147 154.978 96.1911C154.565 95.7676 153.937 95.5558 153.095 95.5558C152.222 95.5558 151.538 95.7469 151.042 96.1291C150.546 96.5114 150.197 96.9194 149.996 97.3533L148.26 96.7335C148.57 96.0103 148.983 95.4473 149.5 95.0444C150.022 94.6364 150.59 94.3523 151.205 94.1921C151.824 94.0269 152.434 93.9442 153.033 93.9442C153.415 93.9442 153.854 93.9907 154.35 94.0837C154.851 94.1715 155.334 94.3549 155.799 94.6338C156.269 94.9127 156.659 95.3337 156.969 95.8967C157.279 96.4597 157.434 97.2138 157.434 98.1591V106H155.605V104.388H155.512C155.388 104.647 155.182 104.923 154.893 105.217C154.603 105.512 154.218 105.762 153.738 105.969C153.258 106.176 152.671 106.279 151.979 106.279ZM152.258 104.636C152.981 104.636 153.591 104.494 154.087 104.21C154.588 103.926 154.965 103.559 155.218 103.11C155.476 102.661 155.605 102.188 155.605 101.692V100.019C155.528 100.112 155.357 100.197 155.094 100.274C154.836 100.347 154.536 100.411 154.195 100.468C153.86 100.52 153.532 100.566 153.211 100.607C152.896 100.644 152.641 100.675 152.444 100.7C151.969 100.762 151.525 100.863 151.112 101.003C150.704 101.137 150.373 101.341 150.12 101.615C149.872 101.883 149.748 102.25 149.748 102.715C149.748 103.35 149.983 103.831 150.453 104.156C150.928 104.476 151.53 104.636 152.258 104.636ZM165.325 106.248C164.178 106.248 163.189 105.995 162.357 105.489C161.531 104.977 160.893 104.264 160.443 103.35C159.999 102.431 159.777 101.362 159.777 100.143C159.777 98.9236 159.999 97.8492 160.443 96.9194C160.893 95.9845 161.518 95.2562 162.318 94.7345C163.124 94.2076 164.064 93.9442 165.139 93.9442C165.759 93.9442 166.371 94.0475 166.975 94.2541C167.579 94.4607 168.129 94.7965 168.625 95.2614C169.121 95.7211 169.516 96.3306 169.811 97.0899C170.105 97.8492 170.252 98.7841 170.252 99.8946V100.669H161.079V99.0888H168.393C168.393 98.4174 168.259 97.8182 167.99 97.2913C167.726 96.7645 167.349 96.3487 166.859 96.0439C166.373 95.7392 165.8 95.5868 165.139 95.5868C164.41 95.5868 163.78 95.7676 163.248 96.1291C162.721 96.4855 162.316 96.9504 162.032 97.5238C161.748 98.0971 161.606 98.7118 161.606 99.3678V100.421C161.606 101.32 161.761 102.082 162.07 102.707C162.386 103.327 162.822 103.8 163.38 104.125C163.938 104.445 164.586 104.605 165.325 104.605C165.805 104.605 166.239 104.538 166.626 104.404C167.019 104.264 167.357 104.058 167.641 103.784C167.925 103.505 168.145 103.159 168.3 102.746L170.066 103.242C169.88 103.841 169.568 104.368 169.129 104.822C168.69 105.272 168.147 105.623 167.502 105.876C166.856 106.124 166.13 106.248 165.325 106.248ZM174.426 90.1322V106H172.597V90.1322H174.426ZM177.339 106V94.0992H179.167V106H177.339ZM178.268 92.1157C177.912 92.1157 177.605 91.9943 177.346 91.7515C177.093 91.5088 176.967 91.2169 176.967 90.876C176.967 90.5351 177.093 90.2433 177.346 90.0005C177.605 89.7577 177.912 89.6364 178.268 89.6364C178.625 89.6364 178.93 89.7577 179.183 90.0005C179.441 90.2433 179.57 90.5351 179.57 90.876C179.57 91.2169 179.441 91.5088 179.183 91.7515C178.93 91.9943 178.625 92.1157 178.268 92.1157ZM200.796 95.0909H198.875C198.761 94.5382 198.562 94.0527 198.278 93.6343C197.999 93.2159 197.658 92.8647 197.256 92.5806C196.858 92.2913 196.416 92.0744 195.931 91.9298C195.445 91.7851 194.939 91.7128 194.412 91.7128C193.451 91.7128 192.581 91.9556 191.801 92.4411C191.026 92.9267 190.409 93.642 189.949 94.5873C189.495 95.5325 189.267 96.6921 189.267 98.0661C189.267 99.4401 189.495 100.6 189.949 101.545C190.409 102.49 191.026 103.206 191.801 103.691C192.581 104.177 193.451 104.419 194.412 104.419C194.939 104.419 195.445 104.347 195.931 104.202C196.416 104.058 196.858 103.843 197.256 103.559C197.658 103.27 197.999 102.916 198.278 102.498C198.562 102.074 198.761 101.589 198.875 101.041H200.796C200.652 101.852 200.388 102.578 200.006 103.218C199.624 103.859 199.149 104.404 198.58 104.853C198.012 105.298 197.374 105.636 196.667 105.868C195.964 106.101 195.213 106.217 194.412 106.217C193.059 106.217 191.855 105.886 190.802 105.225C189.748 104.564 188.919 103.624 188.314 102.405C187.71 101.186 187.408 99.7397 187.408 98.0661C187.408 96.3926 187.71 94.9463 188.314 93.7273C188.919 92.5083 189.748 91.5682 190.802 90.907C191.855 90.2459 193.059 89.9153 194.412 89.9153C195.213 89.9153 195.964 90.0315 196.667 90.2639C197.374 90.4964 198.012 90.8373 198.58 91.2867C199.149 91.7309 199.624 92.2732 200.006 92.9137C200.388 93.5491 200.652 94.2748 200.796 95.0909ZM208.052 106.248C206.977 106.248 206.035 105.992 205.224 105.481C204.418 104.97 203.788 104.254 203.333 103.335C202.884 102.415 202.659 101.341 202.659 100.112C202.659 98.8719 202.884 97.7898 203.333 96.8652C203.788 95.9406 204.418 95.2226 205.224 94.7113C206.035 94.1999 206.977 93.9442 208.052 93.9442C209.126 93.9442 210.066 94.1999 210.872 94.7113C211.683 95.2226 212.313 95.9406 212.763 96.8652C213.217 97.7898 213.444 98.8719 213.444 100.112C213.444 101.341 213.217 102.415 212.763 103.335C212.313 104.254 211.683 104.97 210.872 105.481C210.066 105.992 209.126 106.248 208.052 106.248ZM208.052 104.605C208.868 104.605 209.539 104.396 210.066 103.978C210.593 103.559 210.983 103.009 211.236 102.327C211.489 101.646 211.616 100.907 211.616 100.112C211.616 99.3161 211.489 98.5749 211.236 97.8879C210.983 97.2009 210.593 96.6457 210.066 96.2221C209.539 95.7986 208.868 95.5868 208.052 95.5868C207.236 95.5868 206.564 95.7986 206.037 96.2221C205.51 96.6457 205.12 97.2009 204.867 97.8879C204.614 98.5749 204.488 99.3161 204.488 100.112C204.488 100.907 204.614 101.646 204.867 102.327C205.12 103.009 205.51 103.559 206.037 103.978C206.564 104.396 207.236 104.605 208.052 104.605ZM215.799 106V94.0992H217.566V95.9587H217.721C217.969 95.3233 218.369 94.8301 218.922 94.4788C219.474 94.1224 220.138 93.9442 220.913 93.9442C221.698 93.9442 222.351 94.1224 222.873 94.4788C223.4 94.8301 223.811 95.3233 224.105 95.9587H224.229C224.534 95.344 224.991 94.8559 225.6 94.4943C226.21 94.1276 226.941 93.9442 227.793 93.9442C228.857 93.9442 229.727 94.2774 230.404 94.9437C231.081 95.6049 231.419 96.6353 231.419 98.0351V106H229.59V98.0351C229.59 97.157 229.35 96.5294 228.87 96.1524C228.39 95.7753 227.824 95.5868 227.173 95.5868C226.336 95.5868 225.688 95.8399 225.228 96.3461C224.769 96.8471 224.539 97.4824 224.539 98.2521V106H222.679V97.8492C222.679 97.1725 222.46 96.6276 222.021 96.2144C221.582 95.796 221.016 95.5868 220.324 95.5868C219.849 95.5868 219.405 95.7133 218.991 95.9664C218.583 96.2195 218.253 96.5708 218 97.0201C217.752 97.4644 217.628 97.9783 217.628 98.562V106H215.799ZM234.326 110.463V94.0992H236.092V95.9897H236.309C236.444 95.7831 236.63 95.5196 236.867 95.1994C237.11 94.874 237.456 94.5847 237.905 94.3316C238.36 94.0733 238.975 93.9442 239.749 93.9442C240.751 93.9442 241.635 94.1947 242.399 94.6958C243.164 95.1968 243.76 95.907 244.189 96.8264C244.618 97.7459 244.832 98.8306 244.832 100.081C244.832 101.341 244.618 102.433 244.189 103.358C243.76 104.277 243.166 104.99 242.407 105.496C241.648 105.997 240.772 106.248 239.78 106.248C239.016 106.248 238.404 106.121 237.944 105.868C237.484 105.61 237.131 105.318 236.883 104.993C236.635 104.662 236.444 104.388 236.309 104.171H236.154V110.463H234.326ZM236.123 100.05C236.123 100.948 236.255 101.741 236.519 102.428C236.782 103.11 237.167 103.645 237.673 104.032C238.179 104.414 238.799 104.605 239.532 104.605C240.297 104.605 240.935 104.404 241.446 104.001C241.963 103.593 242.35 103.045 242.608 102.358C242.872 101.666 243.004 100.897 243.004 100.05C243.004 99.2128 242.874 98.4587 242.616 97.7872C242.363 97.1105 241.978 96.5759 241.462 96.1834C240.95 95.7856 240.307 95.5868 239.532 95.5868C238.789 95.5868 238.164 95.7753 237.657 96.1524C237.151 96.5243 236.769 97.046 236.511 97.7175C236.253 98.3838 236.123 99.1612 236.123 100.05ZM252.175 106.248C251.028 106.248 250.039 105.995 249.207 105.489C248.381 104.977 247.743 104.264 247.293 103.35C246.849 102.431 246.627 101.362 246.627 100.143C246.627 98.9236 246.849 97.8492 247.293 96.9194C247.743 95.9845 248.368 95.2562 249.168 94.7345C249.974 94.2076 250.914 93.9442 251.989 93.9442C252.609 93.9442 253.221 94.0475 253.825 94.2541C254.429 94.4607 254.979 94.7965 255.475 95.2614C255.971 95.7211 256.366 96.3306 256.661 97.0899C256.955 97.8492 257.102 98.7841 257.102 99.8946V100.669H247.929V99.0888H255.243C255.243 98.4174 255.109 97.8182 254.84 97.2913C254.576 96.7645 254.199 96.3487 253.709 96.0439C253.223 95.7392 252.65 95.5868 251.989 95.5868C251.26 95.5868 250.63 95.7676 250.098 96.1291C249.571 96.4855 249.166 96.9504 248.882 97.5238C248.598 98.0971 248.456 98.7118 248.456 99.3678V100.421C248.456 101.32 248.611 102.082 248.92 102.707C249.236 103.327 249.672 103.8 250.23 104.125C250.788 104.445 251.436 104.605 252.175 104.605C252.655 104.605 253.089 104.538 253.476 104.404C253.869 104.264 254.207 104.058 254.491 103.784C254.775 103.505 254.995 103.159 255.15 102.746L256.916 103.242C256.73 103.841 256.418 104.368 255.979 104.822C255.54 105.272 254.997 105.623 254.352 105.876C253.706 106.124 252.98 106.248 252.175 106.248ZM264.623 94.0992V95.6488H258.456V94.0992H264.623ZM260.253 91.2479H262.082V102.591C262.082 103.107 262.157 103.495 262.306 103.753C262.461 104.006 262.658 104.177 262.895 104.264C263.138 104.347 263.394 104.388 263.662 104.388C263.864 104.388 264.029 104.378 264.158 104.357C264.287 104.332 264.391 104.311 264.468 104.295L264.84 105.938C264.716 105.985 264.543 106.031 264.321 106.077C264.099 106.129 263.817 106.155 263.476 106.155C262.96 106.155 262.454 106.044 261.958 105.822C261.467 105.6 261.059 105.261 260.734 104.807C260.413 104.352 260.253 103.779 260.253 103.087V91.2479ZM266.937 106V94.0992H268.766V106H266.937ZM267.867 92.1157C267.511 92.1157 267.203 91.9943 266.945 91.7515C266.692 91.5088 266.565 91.2169 266.565 90.876C266.565 90.5351 266.692 90.2433 266.945 90.0005C267.203 89.7577 267.511 89.6364 267.867 89.6364C268.223 89.6364 268.528 89.7577 268.781 90.0005C269.039 90.2433 269.169 90.5351 269.169 90.876C269.169 91.2169 269.039 91.5088 268.781 91.7515C268.528 91.9943 268.223 92.1157 267.867 92.1157ZM276.854 94.0992V95.6488H270.687V94.0992H276.854ZM272.484 91.2479H274.313V102.591C274.313 103.107 274.388 103.495 274.537 103.753C274.692 104.006 274.889 104.177 275.126 104.264C275.369 104.347 275.625 104.388 275.893 104.388C276.095 104.388 276.26 104.378 276.389 104.357C276.518 104.332 276.622 104.311 276.699 104.295L277.071 105.938C276.947 105.985 276.774 106.031 276.552 106.077C276.33 106.129 276.048 106.155 275.707 106.155C275.191 106.155 274.685 106.044 274.189 105.822C273.698 105.6 273.29 105.261 272.965 104.807C272.644 104.352 272.484 103.779 272.484 103.087V91.2479ZM279.168 106V94.0992H280.997V106H279.168ZM280.098 92.1157C279.742 92.1157 279.434 91.9943 279.176 91.7515C278.923 91.5088 278.796 91.2169 278.796 90.876C278.796 90.5351 278.923 90.2433 279.176 90.0005C279.434 89.7577 279.742 89.6364 280.098 89.6364C280.454 89.6364 280.759 89.7577 281.012 90.0005C281.27 90.2433 281.4 90.5351 281.4 90.876C281.4 91.2169 281.27 91.5088 281.012 91.7515C280.759 91.9943 280.454 92.1157 280.098 92.1157ZM288.744 106.248C287.67 106.248 286.727 105.992 285.916 105.481C285.11 104.97 284.48 104.254 284.026 103.335C283.576 102.415 283.352 101.341 283.352 100.112C283.352 98.8719 283.576 97.7898 284.026 96.8652C284.48 95.9406 285.11 95.2226 285.916 94.7113C286.727 94.1999 287.67 93.9442 288.744 93.9442C289.818 93.9442 290.759 94.1999 291.564 94.7113C292.375 95.2226 293.005 95.9406 293.455 96.8652C293.909 97.7898 294.137 98.8719 294.137 100.112C294.137 101.341 293.909 102.415 293.455 103.335C293.005 104.254 292.375 104.97 291.564 105.481C290.759 105.992 289.818 106.248 288.744 106.248ZM288.744 104.605C289.56 104.605 290.232 104.396 290.759 103.978C291.285 103.559 291.675 103.009 291.929 102.327C292.182 101.646 292.308 100.907 292.308 100.112C292.308 99.3161 292.182 98.5749 291.929 97.8879C291.675 97.2009 291.285 96.6457 290.759 96.2221C290.232 95.7986 289.56 95.5868 288.744 95.5868C287.928 95.5868 287.257 95.7986 286.73 96.2221C286.203 96.6457 285.813 97.2009 285.56 97.8879C285.307 98.5749 285.18 99.3161 285.18 100.112C285.18 100.907 285.307 101.646 285.56 102.327C285.813 103.009 286.203 103.559 286.73 103.978C287.257 104.396 287.928 104.605 288.744 104.605ZM298.32 98.8409V106H296.491V94.0992H298.258V95.9587H298.413C298.692 95.3543 299.115 94.8688 299.684 94.5021C300.252 94.1302 300.985 93.9442 301.884 93.9442C302.69 93.9442 303.395 94.1095 303.999 94.4401C304.604 94.7655 305.074 95.2614 305.409 95.9277C305.745 96.5888 305.913 97.4256 305.913 98.438V106H304.084V98.562C304.084 97.6271 303.842 96.8988 303.356 96.3771C302.871 95.8502 302.204 95.5868 301.357 95.5868C300.774 95.5868 300.252 95.7133 299.792 95.9664C299.338 96.2195 298.979 96.5888 298.715 97.0744C298.452 97.5599 298.32 98.1488 298.32 98.8409Z" fill="white"/>
<path d="M138.933 152H129.141V123.105H139.13C141.999 123.105 144.463 123.684 146.523 124.841C148.592 125.988 150.182 127.639 151.292 129.793C152.402 131.947 152.957 134.524 152.957 137.525C152.957 140.534 152.397 143.121 151.278 145.284C150.168 147.448 148.564 149.108 146.467 150.265C144.379 151.422 141.867 152 138.933 152ZM134.376 147.471H138.679C140.692 147.471 142.371 147.104 143.716 146.371C145.061 145.628 146.072 144.522 146.749 143.055C147.426 141.578 147.765 139.735 147.765 137.525C147.765 135.314 147.426 133.48 146.749 132.022C146.072 130.555 145.07 129.459 143.744 128.735C142.427 128.001 140.79 127.634 138.834 127.634H134.376V147.471ZM182.954 137.553C182.954 140.666 182.371 143.333 181.205 145.552C180.048 147.763 178.468 149.456 176.464 150.631C174.47 151.807 172.208 152.395 169.678 152.395C167.148 152.395 164.881 151.807 162.878 150.631C160.884 149.446 159.303 147.749 158.137 145.538C156.98 143.318 156.402 140.657 156.402 137.553C156.402 134.439 156.98 131.778 158.137 129.567C159.303 127.347 160.884 125.65 162.878 124.474C164.881 123.298 167.148 122.71 169.678 122.71C172.208 122.71 174.47 123.298 176.464 124.474C178.468 125.65 180.048 127.347 181.205 129.567C182.371 131.778 182.954 134.439 182.954 137.553ZM177.692 137.553C177.692 135.361 177.348 133.513 176.662 132.008C175.985 130.494 175.044 129.351 173.84 128.58C172.636 127.799 171.249 127.409 169.678 127.409C168.107 127.409 166.72 127.799 165.516 128.58C164.312 129.351 163.367 130.494 162.68 132.008C162.003 133.513 161.664 135.361 161.664 137.553C161.664 139.744 162.003 141.597 162.68 143.112C163.367 144.616 164.312 145.759 165.516 146.54C166.72 147.311 168.107 147.697 169.678 147.697C171.249 147.697 172.636 147.311 173.84 146.54C175.044 145.759 175.985 144.616 176.662 143.112C177.348 141.597 177.692 139.744 177.692 137.553ZM211.841 132.855H206.564C206.414 131.989 206.136 131.223 205.732 130.555C205.327 129.878 204.824 129.304 204.222 128.834C203.62 128.363 202.933 128.011 202.162 127.775C201.4 127.531 200.577 127.409 199.693 127.409C198.122 127.409 196.73 127.804 195.517 128.594C194.304 129.374 193.354 130.522 192.667 132.036C191.98 133.541 191.637 135.38 191.637 137.553C191.637 139.763 191.98 141.625 192.667 143.14C193.363 144.645 194.313 145.783 195.517 146.554C196.73 147.316 198.118 147.697 199.679 147.697C200.544 147.697 201.353 147.584 202.106 147.358C202.868 147.123 203.55 146.78 204.152 146.328C204.763 145.877 205.276 145.322 205.689 144.663C206.113 144.005 206.404 143.253 206.564 142.406L211.841 142.434C211.643 143.808 211.215 145.096 210.557 146.3C209.908 147.504 209.057 148.567 208.003 149.489C206.95 150.401 205.718 151.116 204.307 151.633C202.896 152.141 201.33 152.395 199.609 152.395C197.069 152.395 194.802 151.807 192.808 150.631C190.814 149.456 189.243 147.758 188.096 145.538C186.948 143.318 186.375 140.657 186.375 137.553C186.375 134.439 186.953 131.778 188.11 129.567C189.267 127.347 190.842 125.65 192.836 124.474C194.83 123.298 197.088 122.71 199.609 122.71C201.217 122.71 202.712 122.936 204.095 123.388C205.478 123.839 206.71 124.502 207.792 125.377C208.873 126.242 209.762 127.305 210.458 128.566C211.164 129.816 211.624 131.246 211.841 132.855ZM219.201 152H213.614L223.786 123.105H230.248L240.435 152H234.847L227.13 129.031H226.904L219.201 152ZM219.384 140.671H234.622V144.875H219.384V140.671ZM244.014 123.105L251.534 145.849H251.83L259.336 123.105H265.092L254.905 152H248.444L238.271 123.105H244.014ZM273.337 123.105V152H268.103V123.105H273.337ZM282.077 123.105L289.597 145.849H289.893L297.399 123.105H303.155L292.969 152H286.507L276.335 123.105H282.077Z" fill="white"/>
<path d="M180.947 165.019V191.114H179.397V165.019H180.947ZM190.652 186V184.605L195.889 178.872C196.504 178.2 197.01 177.617 197.408 177.121C197.806 176.62 198.1 176.15 198.291 175.711C198.487 175.267 198.586 174.802 198.586 174.316C198.586 173.758 198.451 173.275 198.183 172.867C197.919 172.459 197.558 172.144 197.098 171.922C196.638 171.7 196.122 171.589 195.548 171.589C194.939 171.589 194.407 171.715 193.952 171.968C193.503 172.216 193.154 172.565 192.906 173.014C192.664 173.464 192.542 173.991 192.542 174.595H190.714C190.714 173.665 190.928 172.849 191.357 172.147C191.785 171.444 192.369 170.897 193.108 170.504C193.852 170.112 194.686 169.915 195.61 169.915C196.54 169.915 197.364 170.112 198.082 170.504C198.8 170.897 199.363 171.426 199.771 172.092C200.179 172.759 200.383 173.5 200.383 174.316C200.383 174.9 200.277 175.471 200.065 176.028C199.859 176.581 199.497 177.198 198.981 177.88C198.469 178.557 197.759 179.383 196.85 180.36L193.286 184.171V184.295H200.662V186H190.652ZM208.601 186.217C207.434 186.217 206.439 185.899 205.618 185.264C204.797 184.623 204.169 183.696 203.735 182.482C203.302 181.263 203.085 179.791 203.085 178.066C203.085 176.351 203.302 174.887 203.735 173.673C204.175 172.454 204.805 171.524 205.626 170.884C206.452 170.238 207.444 169.915 208.601 169.915C209.758 169.915 210.747 170.238 211.569 170.884C212.395 171.524 213.025 172.454 213.459 173.673C213.898 174.887 214.118 176.351 214.118 178.066C214.118 179.791 213.901 181.263 213.467 182.482C213.033 183.696 212.405 184.623 211.584 185.264C210.763 185.899 209.769 186.217 208.601 186.217ZM208.601 184.512C209.758 184.512 210.657 183.955 211.297 182.839C211.938 181.723 212.258 180.132 212.258 178.066C212.258 176.692 212.111 175.522 211.817 174.556C211.527 173.59 211.109 172.854 210.561 172.348C210.019 171.842 209.366 171.589 208.601 171.589C207.454 171.589 206.558 172.154 205.913 173.286C205.267 174.412 204.944 176.005 204.944 178.066C204.944 179.44 205.089 180.607 205.378 181.568C205.667 182.529 206.083 183.26 206.625 183.761C207.173 184.262 207.832 184.512 208.601 184.512ZM216.626 186V184.605L221.863 178.872C222.478 178.2 222.984 177.617 223.382 177.121C223.779 176.62 224.074 176.15 224.265 175.711C224.461 175.267 224.559 174.802 224.559 174.316C224.559 173.758 224.425 173.275 224.157 172.867C223.893 172.459 223.532 172.144 223.072 171.922C222.612 171.7 222.096 171.589 221.522 171.589C220.913 171.589 220.381 171.715 219.926 171.968C219.477 172.216 219.128 172.565 218.88 173.014C218.637 173.464 218.516 173.991 218.516 174.595H216.688C216.688 173.665 216.902 172.849 217.331 172.147C217.759 171.444 218.343 170.897 219.082 170.504C219.825 170.112 220.66 169.915 221.584 169.915C222.514 169.915 223.338 170.112 224.056 170.504C224.774 170.897 225.337 171.426 225.745 172.092C226.153 172.759 226.357 173.5 226.357 174.316C226.357 174.9 226.251 175.471 226.039 176.028C225.833 176.581 225.471 177.198 224.955 177.88C224.443 178.557 223.733 179.383 222.824 180.36L219.26 184.171V184.295H226.636V186H216.626ZM234.575 186.217C233.408 186.217 232.413 185.899 231.592 185.264C230.771 184.623 230.143 183.696 229.709 182.482C229.275 181.263 229.059 179.791 229.059 178.066C229.059 176.351 229.275 174.887 229.709 173.673C230.148 172.454 230.779 171.524 231.6 170.884C232.426 170.238 233.418 169.915 234.575 169.915C235.732 169.915 236.721 170.238 237.542 170.884C238.369 171.524 238.999 172.454 239.433 173.673C239.872 174.887 240.092 176.351 240.092 178.066C240.092 179.791 239.875 181.263 239.441 182.482C239.007 183.696 238.379 184.623 237.558 185.264C236.737 185.899 235.742 186.217 234.575 186.217ZM234.575 184.512C235.732 184.512 236.631 183.955 237.271 182.839C237.912 181.723 238.232 180.132 238.232 178.066C238.232 176.692 238.085 175.522 237.79 174.556C237.501 173.59 237.083 172.854 236.535 172.348C235.993 171.842 235.34 171.589 234.575 171.589C233.428 171.589 232.532 172.154 231.887 173.286C231.241 174.412 230.918 176.005 230.918 178.066C230.918 179.44 231.063 180.607 231.352 181.568C231.641 182.529 232.057 183.26 232.599 183.761C233.147 184.262 233.805 184.512 234.575 184.512ZM250.996 165.019V191.114H249.446V165.019H250.996Z" fill="white"/>
<path d="M382.838 73.6038C385.208 77.1463 387.484 81.5164 386.365 86.1997C382.504 83.9897 379.398 80.3814 376.935 76.8193C374.455 73.2333 371.88 69.42 370.998 65C375.868 66.2457 380.228 69.7037 382.838 73.6038Z" fill="white"/>
<path d="M389.756 95.1908C388.38 91.4902 385.37 88.2635 382.094 86.7585C379.052 85.3629 375.012 83.9064 371.462 85.6948C373.394 89.0871 376.575 91.9415 379.824 93.7369C382.745 95.3511 386.445 97.3068 390.107 96.4662C394.098 95.8549 396.027 91.8818 397.1 88.8763C398.585 84.723 397.57 79.1764 395.035 75.1016C391.54 76.5581 390.474 80.8794 389.744 83.9369C388.911 87.4172 388.888 91.4796 389.756 95.1908Z" fill="white"/>
<path d="M386.887 100.539C389.701 102.546 391.861 106.215 392.325 109.982C392.365 106.208 393.392 102.311 395.041 99.1716C396.55 96.2998 398.655 92.4184 402.4 91.6448C403.871 96.1161 403.395 101.585 401.016 105.205C399.217 107.947 396.431 111.38 392.377 111.288C388.677 111.477 385.482 108.95 382.968 106.841C380.263 104.573 377.823 101.257 376.797 97.6735C380.574 96.5766 384.19 98.6159 386.887 100.539Z" fill="white"/>
<path d="M391.374 124.804C391.786 121.113 390.552 117.122 388.251 114.656C386.036 112.279 382.93 109.688 379.063 110.101C379.141 113.84 381.013 117.405 382.945 120.075C384.744 122.562 387.515 125.638 391.143 126.081C394.915 126.72 398.597 124.411 400.99 121.694C404.067 118.198 405.901 113.507 405.535 108.808C401.659 108.904 398.724 112.249 396.553 114.779C394.211 117.508 392.293 121.099 391.374 124.804Z" fill="white"/>
<path d="M385.882 128.165C387.716 131.811 388.065 136.148 386.65 139.966C388.737 136.037 391.791 132.86 395.024 129.924C397.962 127.256 402.195 124.446 406.454 124.978C405.641 130.245 402.42 135.707 398.1 138.514C394.628 140.769 390.421 143.002 386.001 141.316C382.364 140.033 380.055 136.371 378.636 133.01C377.134 129.454 376.133 125.355 376.834 121.465C380.822 121.822 384.129 124.679 385.882 128.165Z" fill="white"/>
<path d="M378.175 154.019C380.482 150.507 381.287 146.11 380.344 141.983C379.45 138.074 376.731 134.504 372.766 133.394C371.113 137.16 371.085 141.541 371.684 145.514C372.244 149.19 373.611 153.48 377.007 155.53C381.203 158.191 386.102 156.617 390.125 155.025C395.315 152.972 400.001 148.004 402.193 142.665C397.657 141.227 393.02 143.599 389.24 145.566C385.33 147.601 381.246 150.503 378.175 154.019Z" fill="white"/>
<path d="M360.827 156.913C360.322 160.746 360.331 165.609 363.307 168.562C367.021 172.373 372.779 171.642 377.22 170.807C383.183 169.687 389.896 165.625 393.498 160.215C389.109 157.794 383.734 159.336 379.386 160.585L379.135 160.656C374.282 162.049 369.109 164.293 364.78 167.362C368.235 164.245 370.752 159.67 370.879 155.057C370.994 150.93 369.207 146.512 365.354 144.542C362.658 148.072 361.395 152.607 360.827 156.913Z" fill="white"/>
<path d="M357.497 184.994C352.733 184.894 346.196 184.325 343.531 179.404L343.494 179.336C341.366 175.176 343.529 170.314 345.253 166.715C347.303 162.437 350.103 158.078 354.106 154.949C357.947 158.263 357.575 163 356.43 167.116C355.066 172.011 350.354 176.181 345.475 178.555C351.124 176.454 357.292 175.194 363.16 174.825L363.757 174.787C368.472 174.484 374.608 174.089 378.36 177.541C372.676 182.364 364.608 185.144 357.497 184.994Z" fill="white"/>
</svg>
