<svg width="477" height="250" viewBox="0 0 477 250" fill="none" xmlns="http://www.w3.org/2000/svg">
<path d="M44.1277 86.1862C43.0118 81.5024 45.2914 77.1344 47.6659 73.5942C50.2797 69.6967 54.6408 66.2422 59.5114 65C58.6265 69.4188 56.0476 73.2303 53.5653 76.8138C51.0997 80.3739 47.99 83.9796 44.1277 86.1862Z" fill="white"/>
<path d="M40.7293 95.1708C41.6004 91.4616 41.5811 87.401 40.7518 83.9219C40.0226 80.8643 38.9615 76.5422 35.4692 75.0837C32.9307 79.1556 31.9102 84.7007 33.3897 88.8556C34.4594 91.861 36.3832 95.8345 40.373 96.4496C44.034 97.2935 47.736 95.3406 50.6597 93.7282C53.9107 91.9357 57.0951 89.0837 59.0299 85.6931C55.4807 83.9017 51.4388 85.3555 48.398 86.7487C45.1202 88.2507 42.109 91.4732 40.7293 95.1708Z" fill="white"/>
<path d="M29.4561 105.18C31.2565 107.926 34.0424 111.367 38.1045 111.269C41.7984 111.453 44.9898 108.933 47.5029 106.829C50.2095 104.562 52.6526 101.249 53.684 97.666C49.9059 96.5668 46.2887 98.6031 43.5913 100.524C40.7746 102.53 38.6083 106.201 38.1429 109.97C38.108 106.194 37.0858 102.294 35.438 99.1515C33.9314 96.2791 31.832 92.3963 28.0865 91.6201C26.6108 96.0896 27.0817 101.558 29.4561 105.18Z" fill="white"/>
<path d="M39.3056 126.062C35.5356 126.694 31.8582 124.384 29.4699 121.667C26.395 118.169 24.5655 113.476 24.9386 108.779C28.8116 108.877 31.7448 112.225 33.9129 114.756C36.2478 117.483 38.1609 121.07 39.0787 124.771C38.675 121.083 39.9132 117.101 42.2115 114.64C44.43 112.265 47.5377 109.676 51.4043 110.091C51.321 113.831 49.4465 117.394 47.5132 120.062C45.7111 122.548 42.9349 125.624 39.3056 126.062Z" fill="white"/>
<path d="M32.3419 138.488C35.8141 140.749 40.0252 142.986 44.4509 141.293C48.0817 140.008 50.3901 136.354 51.8099 132.999C53.3139 129.445 54.3184 125.346 53.623 121.456C49.6332 121.81 46.3249 124.665 44.5677 128.149C42.7307 131.792 42.3784 136.128 43.7895 139.947C41.7045 136.018 38.6554 132.839 35.4254 129.901C32.4892 127.231 28.2599 124.418 24 124.947C24.8105 130.214 28.0243 135.677 32.3419 138.488Z" fill="white"/>
<path d="M53.3943 155.53C56.8111 153.488 58.1862 149.19 58.7482 145.507C59.354 141.535 59.328 137.155 57.6784 133.387C53.7144 134.494 50.9933 138.062 50.0949 141.97C49.1456 146.098 49.9466 150.499 52.2557 154.014C49.1863 150.493 45.1049 147.585 41.1936 145.546C37.4155 143.577 32.7804 141.202 28.2432 142.636C30.4311 147.976 35.1114 152.947 40.2986 155.004C44.3157 156.596 49.2027 158.171 53.3943 155.53Z" fill="white"/>
<path d="M69.5932 156.913C70.0946 160.747 70.0804 165.609 67.1039 168.56C63.3844 172.367 57.628 171.633 53.1882 170.795C47.2276 169.67 40.518 165.604 36.9219 160.191C41.3138 157.773 46.6853 159.32 51.0334 160.572L51.2817 160.643C56.1353 162.04 61.3075 164.289 65.6331 167.362C62.1811 164.243 59.666 159.665 59.5428 155.05C59.4321 150.923 61.2236 146.507 65.0786 144.54C67.77 148.072 69.0303 152.607 69.5932 156.913Z" fill="white"/>
<path d="M86.8678 179.415C89.0598 175.242 86.888 170.345 85.1574 166.726C83.1114 162.447 80.3159 158.086 76.3152 154.954C72.4737 158.265 72.839 163.002 73.9811 167.119C75.3392 172.014 80.0475 176.187 84.923 178.565C79.2765 176.459 73.1098 175.195 67.2427 174.822L66.6484 174.784C61.935 174.477 55.7989 174.077 52.043 177.526C57.7218 182.354 65.788 185.139 72.8973 184.995C77.6615 184.898 84.1981 184.334 86.8678 179.415Z" fill="white"/>
<path d="M164.997 46.6322V48.3368H157.342V62.5H155.42V46.6322H164.997ZM166.17 62.5V60.7335H166.635C167.296 60.7335 167.81 60.5217 168.177 60.0981C168.544 59.6746 168.807 58.9902 168.967 58.0449C169.132 57.0997 169.243 55.8471 169.3 54.2872L169.579 46.6322H179.249V62.5H177.327V48.3368H171.408L171.16 54.6591C171.098 56.3223 170.945 57.7376 170.703 58.905C170.46 60.0723 170.034 60.9633 169.424 61.578C168.815 62.1927 167.926 62.5 166.759 62.5H166.17ZM183.302 62.5H181.288L187.114 46.6322H189.098L194.924 62.5H192.91L188.168 49.1426H188.044L183.302 62.5ZM184.046 56.3017H192.166V58.0062H184.046V56.3017ZM196.959 62.5V46.6322H202.507C203.612 46.6322 204.524 46.8233 205.242 47.2056C205.96 47.5826 206.494 48.0914 206.846 48.7319C207.197 49.3673 207.373 50.0723 207.373 50.8471C207.373 51.5289 207.251 52.0919 207.008 52.5362C206.771 52.9804 206.456 53.3316 206.063 53.5899C205.676 53.8481 205.255 54.0393 204.8 54.1632V54.3182C205.286 54.3492 205.774 54.5196 206.265 54.8295C206.755 55.1395 207.166 55.5837 207.497 56.1622C207.827 56.7407 207.992 57.4483 207.992 58.2851C207.992 59.0806 207.812 59.796 207.45 60.4313C207.088 61.0666 206.518 61.5702 205.738 61.9421C204.958 62.314 203.943 62.5 202.693 62.5H196.959ZM198.881 60.7955H202.693C203.948 60.7955 204.839 60.5527 205.366 60.0671C205.898 59.5764 206.164 58.9824 206.164 58.2851C206.164 57.7479 206.027 57.2521 205.753 56.7975C205.479 56.3378 205.089 55.9711 204.583 55.6973C204.077 55.4184 203.478 55.2789 202.786 55.2789H198.881V60.7955ZM198.881 53.6054H202.445C203.023 53.6054 203.545 53.4917 204.01 53.2645C204.48 53.0372 204.852 52.7169 205.126 52.3037C205.405 51.8905 205.544 51.405 205.544 50.8471C205.544 50.1498 205.301 49.5584 204.816 49.0728C204.33 48.5821 203.561 48.3368 202.507 48.3368H198.881V53.6054ZM210.713 62.5V46.6322H212.635V53.6983H221.096V46.6322H223.017V62.5H221.096V55.4029H212.635V62.5H210.713ZM227.853 53.2955H232.378C233.514 53.2955 234.472 53.4814 235.252 53.8533C236.038 54.2252 236.632 54.7495 237.034 55.4261C237.442 56.1028 237.647 56.9008 237.647 57.8202C237.647 58.7397 237.442 59.5506 237.034 60.2531C236.632 60.9556 236.038 61.5057 235.252 61.9034C234.472 62.3011 233.514 62.5 232.378 62.5H226.427V46.6322H228.349V60.8264H232.378C233.101 60.8264 233.713 60.6818 234.214 60.3926C234.72 60.0981 235.103 59.7211 235.361 59.2614C235.624 58.7965 235.756 58.3058 235.756 57.7893C235.756 57.03 235.464 56.3765 234.88 55.829C234.297 55.2763 233.463 55 232.378 55H227.853V53.2955ZM241.118 46.6322V62.5H239.196V46.6322H241.118ZM244.528 46.6322H246.419V59.1219H246.574L255.251 46.6322H257.111V62.5H255.189V50.0413H255.034L246.388 62.5H244.528V46.6322ZM252.338 42.6653H254.043C254.043 43.5021 253.753 44.1865 253.175 44.7185C252.596 45.2505 251.811 45.5165 250.819 45.5165C249.843 45.5165 249.066 45.2505 248.487 44.7185C247.914 44.1865 247.627 43.5021 247.627 42.6653H249.332C249.332 43.0682 249.443 43.422 249.665 43.7268C249.892 44.0315 250.277 44.1839 250.819 44.1839C251.362 44.1839 251.749 44.0315 251.982 43.7268C252.219 43.422 252.338 43.0682 252.338 42.6653ZM278.089 46.6322V62.5H276.168V48.3368H268.172V62.5H266.25V46.6322H278.089ZM281.529 62.5V46.6322H286.89C288.135 46.6322 289.153 46.8569 289.943 47.3063C290.738 47.7505 291.327 48.3523 291.709 49.1116C292.092 49.8709 292.283 50.718 292.283 51.6529C292.283 52.5878 292.092 53.4375 291.709 54.202C291.332 54.9664 290.749 55.5759 289.958 56.0305C289.168 56.4799 288.156 56.7045 286.921 56.7045H283.078V55H286.859C287.711 55 288.396 54.8528 288.912 54.5584C289.429 54.2639 289.803 53.8662 290.036 53.3652C290.273 52.859 290.392 52.2882 290.392 51.6529C290.392 51.0176 290.273 50.4494 290.036 49.9483C289.803 49.4473 289.426 49.0548 288.905 48.7707C288.383 48.4814 287.691 48.3368 286.828 48.3368H283.45V62.5H281.529ZM294.942 46.6322H296.832V59.1219H296.987L305.665 46.6322H307.524V62.5H305.603V50.0413H305.448L296.801 62.5H294.942V46.6322ZM316.016 62.7169C314.993 62.7169 314.081 62.5413 313.281 62.1901C312.485 61.8388 311.852 61.3507 311.382 60.7257C310.917 60.0956 310.664 59.3647 310.623 58.5331H312.575C312.617 59.0444 312.792 59.4861 313.102 59.858C313.412 60.2247 313.818 60.5088 314.319 60.7102C314.82 60.9117 315.375 61.0124 315.985 61.0124C316.666 61.0124 317.271 60.8936 317.798 60.656C318.324 60.4184 318.738 60.0878 319.037 59.6643C319.337 59.2407 319.487 58.75 319.487 58.1921C319.487 57.6085 319.342 57.0945 319.053 56.6503C318.763 56.2009 318.34 55.8497 317.782 55.5966C317.224 55.3435 316.542 55.2169 315.737 55.2169H314.466V53.5124H315.737C316.367 53.5124 316.919 53.3988 317.395 53.1715C317.875 52.9442 318.25 52.624 318.518 52.2107C318.792 51.7975 318.929 51.312 318.929 50.7541C318.929 50.2169 318.81 49.7495 318.572 49.3518C318.335 48.954 317.999 48.6441 317.565 48.422C317.136 48.1999 316.63 48.0888 316.047 48.0888C315.499 48.0888 314.982 48.1896 314.497 48.391C314.017 48.5873 313.624 48.874 313.319 49.251C313.014 49.6229 312.849 50.0723 312.823 50.5992H310.964C310.995 49.7676 311.245 49.0393 311.715 48.4143C312.185 47.7841 312.8 47.2934 313.559 46.9421C314.324 46.5909 315.163 46.4153 316.078 46.4153C317.059 46.4153 317.901 46.6142 318.603 47.0119C319.306 47.4044 319.846 47.9236 320.223 48.5692C320.6 49.2149 320.788 49.9122 320.788 50.6612C320.788 51.5548 320.553 52.3166 320.083 52.9468C319.618 53.577 318.986 54.0134 318.185 54.2562V54.3802C319.187 54.5455 319.97 54.9716 320.533 55.6586C321.096 56.3404 321.377 57.1849 321.377 58.1921C321.377 59.0548 321.142 59.8295 320.672 60.5165C320.207 61.1983 319.572 61.7355 318.766 62.1281C317.96 62.5207 317.043 62.7169 316.016 62.7169ZM141.587 91.5V75.6322H143.508V82.6983H151.969V75.6322H153.89V91.5H151.969V84.4029H143.508V91.5H141.587ZM157.952 91.5H155.937L161.764 75.6322H163.747L169.574 91.5H167.559L162.817 78.1426H162.693L157.952 91.5ZM158.696 85.3017H166.815V87.0062H158.696V85.3017ZM185.09 89.6715L184.873 95.25H182.89V91.5H181.774V89.6715H185.09ZM171.609 91.5V75.6322H173.437V89.7335H181.619V75.6322H183.448V91.5H171.609ZM187.557 75.6322H189.448V88.1219H189.603L198.281 75.6322H200.14V91.5H198.219V79.0413H198.064L189.417 91.5H187.557V75.6322ZM216.937 83.5661C216.937 85.2397 216.635 86.686 216.031 87.905C215.426 89.124 214.597 90.064 213.543 90.7252C212.49 91.3864 211.286 91.7169 209.933 91.7169C208.58 91.7169 207.376 91.3864 206.322 90.7252C205.269 90.064 204.44 89.124 203.835 87.905C203.231 86.686 202.929 85.2397 202.929 83.5661C202.929 81.8926 203.231 80.4463 203.835 79.2273C204.44 78.0083 205.269 77.0682 206.322 76.407C207.376 75.7459 208.58 75.4153 209.933 75.4153C211.286 75.4153 212.49 75.7459 213.543 76.407C214.597 77.0682 215.426 78.0083 216.031 79.2273C216.635 80.4463 216.937 81.8926 216.937 83.5661ZM215.078 83.5661C215.078 82.1921 214.848 81.0325 214.388 80.0873C213.933 79.142 213.316 78.4267 212.536 77.9411C211.761 77.4556 210.894 77.2128 209.933 77.2128C208.972 77.2128 208.102 77.4556 207.322 77.9411C206.547 78.4267 205.93 79.142 205.47 80.0873C205.016 81.0325 204.788 82.1921 204.788 83.5661C204.788 84.9401 205.016 86.0997 205.47 87.0449C205.93 87.9902 206.547 88.7056 207.322 89.1911C208.102 89.6767 208.972 89.9194 209.933 89.9194C210.894 89.9194 211.761 89.6767 212.536 89.1911C213.316 88.7056 213.933 87.9902 214.388 87.0449C214.848 86.0997 215.078 84.9401 215.078 83.5661ZM219.732 91.5V75.6322H221.653V82.6983H230.114V75.6322H232.035V91.5H230.114V84.4029H221.653V91.5H219.732ZM236.097 91.5H234.082L239.909 75.6322H241.892L247.719 91.5H245.704L240.962 78.1426H240.838L236.097 91.5ZM236.84 85.3017H244.96V87.0062H236.84V85.3017ZM248.39 91.5V89.7335H248.855C249.516 89.7335 250.03 89.5217 250.397 89.0981C250.764 88.6746 251.027 87.9902 251.187 87.0449C251.352 86.0997 251.463 84.8471 251.52 83.2872L251.799 75.6322H261.469V91.5H259.547V77.3368H253.628L253.38 83.6591C253.318 85.3223 253.165 86.7376 252.923 87.905C252.68 89.0723 252.254 89.9633 251.644 90.578C251.035 91.1927 250.146 91.5 248.979 91.5H248.39ZM266.297 82.2955H270.822C271.958 82.2955 272.916 82.4814 273.696 82.8533C274.481 83.2252 275.075 83.7495 275.478 84.4261C275.886 85.1028 276.09 85.9008 276.09 86.8202C276.09 87.7397 275.886 88.5506 275.478 89.2531C275.075 89.9556 274.481 90.5057 273.696 90.9034C272.916 91.3011 271.958 91.5 270.822 91.5H264.871V75.6322H266.793V89.8264H270.822C271.545 89.8264 272.157 89.6818 272.658 89.3926C273.164 89.0981 273.546 88.7211 273.805 88.2614C274.068 87.7965 274.2 87.3058 274.2 86.7893C274.2 86.03 273.908 85.3765 273.324 84.829C272.741 84.2763 271.907 84 270.822 84H266.297V82.2955ZM278.689 91.5V75.6322H280.611V82.6983H289.072V75.6322H290.993V91.5H289.072V84.4029H280.611V91.5H278.689ZM307.792 83.5661C307.792 85.2397 307.49 86.686 306.885 87.905C306.281 89.124 305.452 90.064 304.398 90.7252C303.345 91.3864 302.141 91.7169 300.788 91.7169C299.434 91.7169 298.231 91.3864 297.177 90.7252C296.124 90.064 295.294 89.124 294.69 87.905C294.086 86.686 293.784 85.2397 293.784 83.5661C293.784 81.8926 294.086 80.4463 294.69 79.2273C295.294 78.0083 296.124 77.0682 297.177 76.407C298.231 75.7459 299.434 75.4153 300.788 75.4153C302.141 75.4153 303.345 75.7459 304.398 76.407C305.452 77.0682 306.281 78.0083 306.885 79.2273C307.49 80.4463 307.792 81.8926 307.792 83.5661ZM305.932 83.5661C305.932 82.1921 305.703 81.0325 305.243 80.0873C304.788 79.142 304.171 78.4267 303.391 77.9411C302.616 77.4556 301.749 77.2128 300.788 77.2128C299.827 77.2128 298.957 77.4556 298.177 77.9411C297.402 78.4267 296.785 79.142 296.325 80.0873C295.87 81.0325 295.643 82.1921 295.643 83.5661C295.643 84.9401 295.87 86.0997 296.325 87.0449C296.785 87.9902 297.402 88.7056 298.177 89.1911C298.957 89.6767 299.827 89.9194 300.788 89.9194C301.749 89.9194 302.616 89.6767 303.391 89.1911C304.171 88.7056 304.788 87.9902 305.243 87.0449C305.703 86.0997 305.932 84.9401 305.932 83.5661ZM320.163 75.6322V77.3368H312.508V91.5H310.586V75.6322H320.163ZM335.428 83.5661C335.428 85.2397 335.126 86.686 334.521 87.905C333.917 89.124 333.088 90.064 332.034 90.7252C330.98 91.3864 329.777 91.7169 328.424 91.7169C327.07 91.7169 325.867 91.3864 324.813 90.7252C323.759 90.064 322.93 89.124 322.326 87.905C321.722 86.686 321.419 85.2397 321.419 83.5661C321.419 81.8926 321.722 80.4463 322.326 79.2273C322.93 78.0083 323.759 77.0682 324.813 76.407C325.867 75.7459 327.07 75.4153 328.424 75.4153C329.777 75.4153 330.98 75.7459 332.034 76.407C333.088 77.0682 333.917 78.0083 334.521 79.2273C335.126 80.4463 335.428 81.8926 335.428 83.5661ZM333.568 83.5661C333.568 82.1921 333.338 81.0325 332.879 80.0873C332.424 79.142 331.807 78.4267 331.027 77.9411C330.252 77.4556 329.384 77.2128 328.424 77.2128C327.463 77.2128 326.592 77.4556 325.813 77.9411C325.038 78.4267 324.42 79.142 323.961 80.0873C323.506 81.0325 323.279 82.1921 323.279 83.5661C323.279 84.9401 323.506 86.0997 323.961 87.0449C324.42 87.9902 325.038 88.7056 325.813 89.1911C326.592 89.6767 327.463 89.9194 328.424 89.9194C329.384 89.9194 330.252 89.6767 331.027 89.1911C331.807 88.7056 332.424 87.9902 332.879 87.0449C333.338 86.0997 333.568 84.9401 333.568 83.5661ZM191.82 120.5L186.366 113.217H184.413V120.5H182.492V104.632H184.413V111.512H185.25L191.603 104.632H193.897L187.481 111.605L194.113 120.5H191.82ZM208.803 112.566C208.803 114.24 208.501 115.686 207.896 116.905C207.292 118.124 206.463 119.064 205.409 119.725C204.356 120.386 203.152 120.717 201.799 120.717C200.446 120.717 199.242 120.386 198.188 119.725C197.135 119.064 196.306 118.124 195.701 116.905C195.097 115.686 194.795 114.24 194.795 112.566C194.795 110.893 195.097 109.446 195.701 108.227C196.306 107.008 197.135 106.068 198.188 105.407C199.242 104.746 200.446 104.415 201.799 104.415C203.152 104.415 204.356 104.746 205.409 105.407C206.463 106.068 207.292 107.008 207.896 108.227C208.501 109.446 208.803 110.893 208.803 112.566ZM206.943 112.566C206.943 111.192 206.714 110.033 206.254 109.087C205.799 108.142 205.182 107.427 204.402 106.941C203.627 106.456 202.76 106.213 201.799 106.213C200.838 106.213 199.968 106.456 199.188 106.941C198.413 107.427 197.796 108.142 197.336 109.087C196.882 110.033 196.654 111.192 196.654 112.566C196.654 113.94 196.882 115.1 197.336 116.045C197.796 116.99 198.413 117.706 199.188 118.191C199.968 118.677 200.838 118.919 201.799 118.919C202.76 118.919 203.627 118.677 204.402 118.191C205.182 117.706 205.799 116.99 206.254 116.045C206.714 115.1 206.943 113.94 206.943 112.566ZM211.598 120.5V104.632H213.519V111.698H221.98V104.632H223.901V120.5H221.98V113.403H213.519V120.5H211.598ZM236.64 120.5L231.186 113.217H229.233V120.5H227.312V104.632H229.233V111.512H230.07L236.423 104.632H238.717L232.301 111.605L238.934 120.5H236.64ZM241.817 120.717V118.919H242.809C243.191 118.919 243.511 118.845 243.77 118.695C244.033 118.545 244.25 118.351 244.421 118.114C244.596 117.876 244.741 117.628 244.854 117.37L245.102 116.781L239.617 104.632H241.693L246.063 114.488L250.061 104.632H252.107L246.621 117.928C246.404 118.424 246.156 118.883 245.877 119.307C245.603 119.73 245.229 120.071 244.754 120.33C244.284 120.588 243.646 120.717 242.84 120.717H241.817ZM254.159 120.5V104.632H259.521C260.766 104.632 261.783 104.857 262.573 105.306C263.369 105.751 263.958 106.352 264.34 107.112C264.722 107.871 264.913 108.718 264.913 109.653C264.913 110.588 264.722 111.437 264.34 112.202C263.963 112.966 263.379 113.576 262.589 114.03C261.799 114.48 260.786 114.705 259.552 114.705H255.709V113H259.49C260.342 113 261.026 112.853 261.543 112.558C262.059 112.264 262.434 111.866 262.666 111.365C262.904 110.859 263.023 110.288 263.023 109.653C263.023 109.018 262.904 108.449 262.666 107.948C262.434 107.447 262.057 107.055 261.535 106.771C261.013 106.481 260.321 106.337 259.459 106.337H256.081V120.5H254.159ZM280.341 109.591H278.419C278.306 109.038 278.107 108.553 277.823 108.134C277.544 107.716 277.203 107.365 276.8 107.081C276.402 106.791 275.961 106.574 275.475 106.43C274.99 106.285 274.483 106.213 273.957 106.213C272.996 106.213 272.125 106.456 271.345 106.941C270.571 107.427 269.953 108.142 269.494 109.087C269.039 110.033 268.812 111.192 268.812 112.566C268.812 113.94 269.039 115.1 269.494 116.045C269.953 116.99 270.571 117.706 271.345 118.191C272.125 118.677 272.996 118.919 273.957 118.919C274.483 118.919 274.99 118.847 275.475 118.702C275.961 118.558 276.402 118.343 276.8 118.059C277.203 117.77 277.544 117.416 277.823 116.998C278.107 116.574 278.306 116.089 278.419 115.541H280.341C280.196 116.352 279.933 117.078 279.551 117.718C279.168 118.359 278.693 118.904 278.125 119.353C277.557 119.798 276.919 120.136 276.211 120.368C275.509 120.601 274.757 120.717 273.957 120.717C272.603 120.717 271.4 120.386 270.346 119.725C269.292 119.064 268.463 118.124 267.859 116.905C267.255 115.686 266.952 114.24 266.952 112.566C266.952 110.893 267.255 109.446 267.859 108.227C268.463 107.008 269.292 106.068 270.346 105.407C271.4 104.746 272.603 104.415 273.957 104.415C274.757 104.415 275.509 104.532 276.211 104.764C276.919 104.996 277.557 105.337 278.125 105.787C278.693 106.231 279.168 106.773 279.551 107.414C279.933 108.049 280.196 108.775 280.341 109.591ZM283.66 120.5H281.646L287.472 104.632H289.456L295.282 120.5H293.268L288.526 107.143H288.402L283.66 120.5ZM284.404 114.302H292.524V116.006H284.404V114.302Z" fill="white"/>
<path d="M112.903 140.822H118.744C121.001 140.822 123.005 141.307 124.754 142.275C126.504 143.244 127.877 144.608 128.874 146.367C129.871 148.116 130.37 150.167 130.37 152.518C130.37 154.813 129.871 156.821 128.874 158.543C127.877 160.264 126.504 161.604 124.754 162.564C123.005 163.514 121.001 163.989 118.744 163.989H112.903C110.636 163.989 108.623 163.518 106.865 162.578C105.115 161.628 103.742 160.292 102.745 158.571C101.748 156.85 101.249 154.837 101.249 152.532C101.249 150.181 101.752 148.131 102.759 146.381C103.765 144.622 105.143 143.258 106.893 142.29C108.652 141.311 110.655 140.822 112.903 140.822ZM112.903 145.252C111.53 145.252 110.34 145.535 109.334 146.099C108.337 146.654 107.565 147.472 107.02 148.554C106.474 149.635 106.201 150.962 106.201 152.532C106.201 154.037 106.474 155.312 107.02 156.356C107.575 157.4 108.355 158.195 109.362 158.74C110.368 159.286 111.549 159.559 112.903 159.559H118.758C120.122 159.559 121.298 159.286 122.285 158.74C123.282 158.185 124.049 157.386 124.585 156.342C125.131 155.288 125.403 154.014 125.403 152.518C125.403 150.966 125.131 149.65 124.585 148.568C124.049 147.486 123.282 146.663 122.285 146.099C121.298 145.535 120.122 145.252 118.758 145.252H112.903ZM118.349 137.098V167.685H113.312V137.098H118.349ZM132.679 166.5V162.155L133.497 162.112C134.607 162.046 135.486 161.647 136.135 160.913C136.794 160.179 137.278 158.999 137.589 157.372C137.908 155.744 138.12 153.562 138.224 150.825L138.703 137.605H157.637V166.5H152.516V141.909H143.585L143.133 152.448C143.002 155.608 142.654 158.228 142.089 160.306C141.534 162.385 140.622 163.937 139.352 164.962C138.092 165.987 136.338 166.5 134.09 166.5H132.679ZM166.26 166.5H160.673L170.845 137.605H177.307L187.494 166.5H181.907L174.189 143.531H173.963L166.26 166.5ZM166.443 155.171H181.681V159.375H166.443V155.171ZM208.744 150.233V154.536H196.483V150.233H208.744ZM188.441 157.174H193.704C193.873 158.961 194.442 160.316 195.411 161.237C196.389 162.159 197.875 162.62 199.869 162.62C201.412 162.62 202.663 162.234 203.622 161.463C204.582 160.683 205.282 159.601 205.725 158.218C206.167 156.836 206.388 155.227 206.388 153.393V150.769C206.388 148.841 206.138 147.19 205.64 145.817C205.141 144.443 204.398 143.395 203.411 142.67C202.423 141.937 201.2 141.57 199.742 141.57C198.36 141.57 197.245 141.791 196.399 142.233C195.552 142.675 194.917 143.315 194.494 144.152C194.071 144.98 193.798 145.972 193.676 147.129H188.413C188.601 145.248 189.137 143.559 190.022 142.064C190.906 140.568 192.152 139.388 193.76 138.523C195.369 137.648 197.363 137.21 199.742 137.21C202.16 137.21 204.253 137.765 206.021 138.875C207.798 139.985 209.172 141.556 210.141 143.588C211.119 145.619 211.608 148.008 211.608 150.755V153.435C211.608 156.182 211.128 158.566 210.169 160.588C209.219 162.601 207.869 164.158 206.12 165.258C204.37 166.35 202.287 166.895 199.869 166.895C197.527 166.895 195.533 166.481 193.887 165.653C192.241 164.816 190.962 163.669 190.05 162.211C189.137 160.744 188.601 159.065 188.441 157.174ZM215.783 166.5V137.605H226.618C228.838 137.605 230.701 138.019 232.205 138.847C233.72 139.675 234.863 140.813 235.634 142.261C236.415 143.7 236.805 145.337 236.805 147.171C236.805 149.024 236.415 150.67 235.634 152.109C234.853 153.548 233.701 154.682 232.177 155.509C230.654 156.328 228.777 156.737 226.548 156.737H219.367V152.434H225.842C227.14 152.434 228.203 152.208 229.031 151.756C229.859 151.305 230.47 150.684 230.865 149.894C231.27 149.104 231.472 148.196 231.472 147.171C231.472 146.146 231.27 145.243 230.865 144.462C230.47 143.682 229.854 143.075 229.017 142.642C228.189 142.2 227.122 141.979 225.814 141.979H221.017V166.5H215.783ZM239.287 141.993V137.605H262.341V141.993H253.41V166.5H248.218V141.993H239.287ZM265.99 137.605H271.182V157.301H271.45L285.037 137.605H289.735V166.5H284.501V146.818H284.261L270.632 166.5H265.99V137.605ZM298.355 166.5H292.767L302.94 137.605H309.402L319.588 166.5H314.001L306.284 143.531H306.058L298.355 166.5ZM298.538 155.171H313.775V159.375H298.538V155.171ZM322.599 166.5V137.605H327.834V149.838H341.223V137.605H346.471V166.5H341.223V154.225H327.834V166.5H322.599ZM355.08 166.5H349.493L359.665 137.605H366.127L376.313 166.5H370.726L363.009 143.531H362.783L355.08 166.5ZM355.263 155.171H370.501V159.375H355.263V155.171Z" fill="white"/>
<path d="M215.399 200.5V199.105L220.636 193.372C221.251 192.7 221.757 192.117 222.155 191.621C222.553 191.12 222.847 190.65 223.038 190.211C223.235 189.767 223.333 189.302 223.333 188.816C223.333 188.258 223.198 187.775 222.93 187.367C222.666 186.959 222.305 186.644 221.845 186.422C221.385 186.2 220.869 186.089 220.296 186.089C219.686 186.089 219.154 186.215 218.699 186.468C218.25 186.716 217.901 187.065 217.653 187.514C217.411 187.964 217.289 188.491 217.289 189.095H215.461C215.461 188.165 215.675 187.349 216.104 186.647C216.533 185.944 217.116 185.397 217.855 185.004C218.599 184.612 219.433 184.415 220.358 184.415C221.287 184.415 222.111 184.612 222.829 185.004C223.547 185.397 224.11 185.926 224.518 186.592C224.926 187.259 225.13 188 225.13 188.816C225.13 189.4 225.024 189.971 224.813 190.528C224.606 191.081 224.244 191.698 223.728 192.38C223.217 193.057 222.506 193.883 221.597 194.86L218.033 198.671V198.795H225.409V200.5H215.399ZM233.348 200.717C232.181 200.717 231.187 200.399 230.365 199.764C229.544 199.123 228.917 198.196 228.483 196.982C228.049 195.763 227.832 194.291 227.832 192.566C227.832 190.851 228.049 189.387 228.483 188.173C228.922 186.954 229.552 186.024 230.373 185.384C231.2 184.738 232.191 184.415 233.348 184.415C234.505 184.415 235.495 184.738 236.316 185.384C237.142 186.024 237.772 186.954 238.206 188.173C238.645 189.387 238.865 190.851 238.865 192.566C238.865 194.291 238.648 195.763 238.214 196.982C237.78 198.196 237.153 199.123 236.331 199.764C235.51 200.399 234.516 200.717 233.348 200.717ZM233.348 199.012C234.505 199.012 235.404 198.455 236.045 197.339C236.685 196.223 237.005 194.632 237.005 192.566C237.005 191.192 236.858 190.022 236.564 189.056C236.274 188.09 235.856 187.354 235.309 186.848C234.766 186.342 234.113 186.089 233.348 186.089C232.202 186.089 231.305 186.654 230.66 187.786C230.014 188.912 229.691 190.505 229.691 192.566C229.691 193.94 229.836 195.107 230.125 196.068C230.414 197.029 230.83 197.76 231.373 198.261C231.92 198.762 232.579 199.012 233.348 199.012ZM241.373 200.5V199.105L246.61 193.372C247.225 192.7 247.731 192.117 248.129 191.621C248.527 191.12 248.821 190.65 249.012 190.211C249.208 189.767 249.307 189.302 249.307 188.816C249.307 188.258 249.172 187.775 248.904 187.367C248.64 186.959 248.279 186.644 247.819 186.422C247.359 186.2 246.843 186.089 246.269 186.089C245.66 186.089 245.128 186.215 244.673 186.468C244.224 186.716 243.875 187.065 243.627 187.514C243.385 187.964 243.263 188.491 243.263 189.095H241.435C241.435 188.165 241.649 187.349 242.078 186.647C242.506 185.944 243.09 185.397 243.829 185.004C244.573 184.612 245.407 184.415 246.331 184.415C247.261 184.415 248.085 184.612 248.803 185.004C249.521 185.397 250.084 185.926 250.492 186.592C250.9 187.259 251.104 188 251.104 188.816C251.104 189.4 250.998 189.971 250.786 190.528C250.58 191.081 250.218 191.698 249.702 192.38C249.19 193.057 248.48 193.883 247.571 194.86L244.007 198.671V198.795H251.383V200.5H241.373ZM259.725 184.632V200.5H257.804V186.647H257.711L253.837 189.219V187.267L257.804 184.632H259.725Z" fill="white"/>
<path d="M428.838 73.6038C431.208 77.1463 433.484 81.5164 432.365 86.1997C428.504 83.9897 425.398 80.3814 422.935 76.8193C420.455 73.2333 417.88 69.42 416.998 65C421.868 66.2457 426.228 69.7037 428.838 73.6038Z" fill="white"/>
<path d="M435.756 95.1908C434.38 91.4902 431.37 88.2635 428.094 86.7585C425.052 85.3629 421.012 83.9064 417.462 85.6948C419.394 89.0871 422.575 91.9415 425.824 93.7369C428.745 95.3511 432.445 97.3068 436.107 96.4662C440.098 95.8549 442.027 91.8818 443.1 88.8763C444.585 84.723 443.57 79.1764 441.035 75.1016C437.54 76.5581 436.474 80.8794 435.744 83.9369C434.911 87.4172 434.888 91.4796 435.756 95.1908Z" fill="white"/>
<path d="M432.887 100.539C435.701 102.546 437.861 106.215 438.325 109.982C438.365 106.208 439.392 102.311 441.041 99.1716C442.55 96.2998 444.655 92.4184 448.4 91.6448C449.871 96.1161 449.395 101.585 447.016 105.205C445.217 107.947 442.431 111.38 438.377 111.288C434.677 111.477 431.482 108.95 428.968 106.841C426.263 104.573 423.823 101.257 422.797 97.6735C426.574 96.5766 430.19 98.6159 432.887 100.539Z" fill="white"/>
<path d="M437.374 124.804C437.786 121.113 436.552 117.122 434.251 114.656C432.036 112.279 428.93 109.688 425.063 110.101C425.141 113.84 427.013 117.405 428.945 120.075C430.744 122.562 433.515 125.638 437.143 126.081C440.915 126.72 444.597 124.411 446.99 121.694C450.067 118.198 451.901 113.507 451.535 108.808C447.659 108.904 444.724 112.249 442.553 114.779C440.211 117.508 438.293 121.099 437.374 124.804Z" fill="white"/>
<path d="M431.882 128.165C433.716 131.811 434.065 136.148 432.65 139.966C434.737 136.037 437.791 132.86 441.024 129.924C443.962 127.256 448.195 124.446 452.454 124.978C451.641 130.245 448.42 135.707 444.1 138.514C440.628 140.769 436.421 143.002 432.001 141.316C428.364 140.033 426.055 136.371 424.636 133.01C423.134 129.454 422.133 125.355 422.834 121.465C426.822 121.822 430.129 124.679 431.882 128.165Z" fill="white"/>
<path d="M424.175 154.019C426.482 150.507 427.287 146.11 426.344 141.983C425.45 138.074 422.731 134.504 418.766 133.394C417.113 137.16 417.085 141.541 417.684 145.514C418.244 149.19 419.611 153.48 423.007 155.53C427.203 158.191 432.102 156.617 436.125 155.025C441.315 152.972 446.001 148.004 448.193 142.665C443.657 141.227 439.02 143.599 435.24 145.566C431.33 147.601 427.246 150.503 424.175 154.019Z" fill="white"/>
<path d="M406.827 156.913C406.322 160.746 406.331 165.609 409.307 168.562C413.021 172.373 418.779 171.642 423.22 170.807C429.183 169.687 435.896 165.625 439.498 160.215C435.109 157.794 429.734 159.336 425.386 160.585L425.135 160.656C420.282 162.049 415.109 164.293 410.78 167.362C414.235 164.245 416.752 159.67 416.879 155.057C416.994 150.93 415.207 146.512 411.354 144.542C408.658 148.072 407.395 152.607 406.827 156.913Z" fill="white"/>
<path d="M403.497 184.994C398.733 184.894 392.196 184.325 389.531 179.404L389.494 179.336C387.366 175.176 389.529 170.314 391.253 166.715C393.303 162.437 396.103 158.078 400.106 154.949C403.947 158.263 403.575 163 402.43 167.116C401.066 172.011 396.354 176.181 391.475 178.555C397.124 176.454 403.292 175.194 409.16 174.825L409.757 174.787C414.472 174.484 420.608 174.089 424.36 177.541C418.676 182.364 410.608 185.144 403.497 184.994Z" fill="white"/>
</svg>
