<svg width="502" height="250" viewBox="0 0 502 250" fill="none" xmlns="http://www.w3.org/2000/svg">
<path d="M44.1277 86.1862C43.0118 81.5024 45.2914 77.1344 47.6659 73.5942C50.2797 69.6967 54.6408 66.2422 59.5114 65C58.6265 69.4188 56.0476 73.2303 53.5653 76.8138C51.0997 80.3739 47.99 83.9796 44.1277 86.1862Z" fill="white"/>
<path d="M40.7293 95.1708C41.6004 91.4616 41.5811 87.401 40.7518 83.9219C40.0226 80.8643 38.9615 76.5422 35.4692 75.0837C32.9307 79.1556 31.9102 84.7007 33.3897 88.8556C34.4594 91.861 36.3832 95.8345 40.373 96.4496C44.034 97.2935 47.736 95.3406 50.6597 93.7282C53.9107 91.9357 57.0951 89.0837 59.0299 85.6931C55.4807 83.9017 51.4388 85.3555 48.398 86.7487C45.1202 88.2507 42.109 91.4732 40.7293 95.1708Z" fill="white"/>
<path d="M29.4561 105.18C31.2565 107.926 34.0424 111.367 38.1045 111.269C41.7984 111.453 44.9898 108.933 47.5029 106.829C50.2095 104.562 52.6526 101.249 53.684 97.666C49.9059 96.5668 46.2887 98.6031 43.5913 100.524C40.7746 102.53 38.6083 106.201 38.1429 109.97C38.108 106.194 37.0858 102.294 35.438 99.1515C33.9314 96.2791 31.832 92.3963 28.0865 91.6201C26.6108 96.0896 27.0817 101.558 29.4561 105.18Z" fill="white"/>
<path d="M39.3056 126.062C35.5356 126.694 31.8582 124.384 29.4699 121.667C26.395 118.169 24.5655 113.476 24.9386 108.779C28.8116 108.877 31.7448 112.225 33.9129 114.756C36.2478 117.483 38.1609 121.07 39.0787 124.771C38.675 121.083 39.9132 117.101 42.2115 114.64C44.43 112.265 47.5377 109.676 51.4043 110.091C51.321 113.831 49.4465 117.394 47.5132 120.062C45.7111 122.548 42.9349 125.624 39.3056 126.062Z" fill="white"/>
<path d="M32.3419 138.488C35.8141 140.749 40.0252 142.986 44.4509 141.293C48.0817 140.008 50.3901 136.354 51.8099 132.999C53.3139 129.445 54.3184 125.346 53.623 121.456C49.6332 121.81 46.3249 124.665 44.5677 128.149C42.7307 131.792 42.3784 136.128 43.7895 139.947C41.7045 136.018 38.6554 132.839 35.4254 129.901C32.4892 127.231 28.2599 124.418 24 124.947C24.8105 130.214 28.0243 135.677 32.3419 138.488Z" fill="white"/>
<path d="M53.3943 155.53C56.8111 153.488 58.1862 149.19 58.7482 145.507C59.354 141.535 59.328 137.155 57.6784 133.387C53.7144 134.494 50.9933 138.062 50.0949 141.97C49.1456 146.098 49.9466 150.499 52.2557 154.014C49.1863 150.493 45.1049 147.585 41.1936 145.546C37.4155 143.577 32.7804 141.202 28.2432 142.636C30.4311 147.976 35.1114 152.947 40.2986 155.004C44.3157 156.596 49.2027 158.171 53.3943 155.53Z" fill="white"/>
<path d="M69.5932 156.913C70.0946 160.747 70.0804 165.609 67.1039 168.56C63.3844 172.367 57.628 171.633 53.1882 170.795C47.2276 169.67 40.518 165.604 36.9219 160.191C41.3138 157.773 46.6853 159.32 51.0334 160.572L51.2817 160.643C56.1353 162.04 61.3075 164.289 65.6331 167.362C62.1811 164.243 59.666 159.665 59.5428 155.05C59.4321 150.923 61.2236 146.507 65.0786 144.54C67.77 148.072 69.0303 152.607 69.5932 156.913Z" fill="white"/>
<path d="M86.8678 179.415C89.0598 175.242 86.888 170.345 85.1574 166.726C83.1114 162.447 80.3159 158.086 76.3152 154.954C72.4737 158.265 72.839 163.002 73.9811 167.119C75.3392 172.014 80.0475 176.187 84.923 178.565C79.2765 176.459 73.1098 175.195 67.2427 174.822L66.6484 174.784C61.935 174.477 55.7989 174.077 52.043 177.526C57.7218 182.354 65.788 185.139 72.8973 184.995C77.6615 184.898 84.1981 184.334 86.8678 179.415Z" fill="white"/>
<path d="M211.907 73.5V49.6983H221.019C222.739 49.6983 224.168 49.9695 225.307 50.5119C226.454 51.0465 227.31 51.7787 227.876 52.7084C228.449 53.6382 228.736 54.6919 228.736 55.8696C228.736 56.8381 228.55 57.6671 228.178 58.3567C227.806 59.0385 227.306 59.5925 226.678 60.0186C226.051 60.4447 225.35 60.7508 224.575 60.9367V61.1692C225.419 61.2156 226.229 61.4752 227.004 61.9478C227.786 62.4127 228.426 63.0713 228.921 63.9236C229.417 64.7758 229.665 65.8063 229.665 67.015C229.665 68.2469 229.367 69.3549 228.77 70.3388C228.174 71.3151 227.275 72.086 226.074 72.6516C224.873 73.2172 223.362 73.5 221.542 73.5H211.907ZM216.219 69.8972H220.856C222.421 69.8972 223.548 69.5989 224.238 69.0023C224.935 68.398 225.284 67.6232 225.284 66.6779C225.284 65.9729 225.11 65.3376 224.761 64.772C224.412 64.1986 223.916 63.7492 223.273 63.4238C222.63 63.0906 221.863 62.9241 220.972 62.9241H216.219V69.8972ZM216.219 59.821H220.484C221.228 59.821 221.898 59.6854 222.495 59.4143C223.091 59.1353 223.56 58.7441 223.901 58.2404C224.249 57.7291 224.424 57.1247 224.424 56.4274C224.424 55.5054 224.098 54.7461 223.448 54.1495C222.804 53.5529 221.848 53.2546 220.577 53.2546H216.219V59.821ZM232.762 73.5V49.6983H248.242V53.3128H237.073V59.7745H247.44V63.3889H237.073V69.8856H248.335V73.5H232.762ZM264.922 56.2415C264.813 55.2265 264.356 54.4362 263.55 53.8706C262.752 53.305 261.714 53.0222 260.436 53.0222C259.537 53.0222 258.766 53.1578 258.123 53.429C257.48 53.7002 256.988 54.0682 256.647 54.5331C256.306 54.9979 256.132 55.5287 256.124 56.1253C256.124 56.6211 256.236 57.0511 256.461 57.4153C256.693 57.7794 257.007 58.0894 257.402 58.345C257.797 58.593 258.235 58.8022 258.716 58.9726C259.196 59.1431 259.68 59.2864 260.168 59.4026L262.4 59.9605C263.298 60.1697 264.162 60.4525 264.991 60.8089C265.828 61.1653 266.576 61.6147 267.234 62.157C267.901 62.6994 268.428 63.3541 268.815 64.1211C269.202 64.8882 269.396 65.7869 269.396 66.8174C269.396 68.212 269.04 69.4401 268.327 70.5015C267.614 71.5553 266.584 72.3804 265.235 72.977C263.895 73.5659 262.272 73.8603 260.366 73.8603C258.514 73.8603 256.906 73.5736 255.543 73.0003C254.187 72.4269 253.125 71.5901 252.358 70.4899C251.599 69.3897 251.188 68.0493 251.126 66.4687H255.368C255.43 67.2978 255.686 67.9873 256.135 68.5374C256.585 69.0876 257.17 69.4982 257.89 69.7694C258.619 70.0405 259.432 70.1761 260.331 70.1761C261.268 70.1761 262.09 70.0367 262.795 69.7577C263.508 69.4711 264.065 69.0759 264.468 68.5723C264.871 68.0609 265.077 67.4644 265.084 66.7825C265.077 66.1627 264.894 65.6513 264.538 65.2484C264.182 64.8378 263.682 64.4969 263.039 64.2257C262.404 63.9468 261.66 63.6989 260.807 63.4819L258.1 62.7846C256.139 62.281 254.59 61.5178 253.451 60.4951C252.32 59.4646 251.754 58.0971 251.754 56.3926C251.754 54.9902 252.134 53.7621 252.893 52.7084C253.66 51.6547 254.702 50.8373 256.019 50.2562C257.336 49.6674 258.828 49.3729 260.494 49.3729C262.183 49.3729 263.663 49.6674 264.933 50.2562C266.212 50.8373 267.215 51.6469 267.943 52.6852C268.672 53.7156 269.047 54.9011 269.071 56.2415H264.922ZM271.539 53.3128V49.6983H290.53V53.3128H283.173V73.5H278.896V53.3128H271.539ZM121.711 90.7291H117.364C117.24 90.0163 117.011 89.3848 116.678 88.8347C116.345 88.2769 115.931 87.8042 115.435 87.4168C114.939 87.0294 114.373 86.7389 113.738 86.5452C113.11 86.3437 112.432 86.243 111.704 86.243C110.41 86.243 109.264 86.5684 108.264 87.2193C107.265 87.8623 106.482 88.8076 105.916 90.055C105.351 91.2947 105.068 92.8094 105.068 94.5992C105.068 96.4199 105.351 97.954 105.916 99.2014C106.49 100.441 107.272 101.379 108.264 102.014C109.264 102.642 110.406 102.955 111.693 102.955C112.405 102.955 113.072 102.862 113.691 102.676C114.319 102.483 114.881 102.2 115.377 101.828C115.88 101.456 116.303 100.999 116.643 100.457C116.992 99.9143 117.232 99.2944 117.364 98.5971L121.711 98.6204C121.548 99.7515 121.195 100.813 120.653 101.805C120.118 102.796 119.417 103.672 118.549 104.431C117.682 105.183 116.667 105.772 115.505 106.198C114.342 106.616 113.052 106.825 111.634 106.825C109.542 106.825 107.675 106.341 106.033 105.373C104.39 104.404 103.096 103.006 102.151 101.177C101.206 99.3487 100.733 97.156 100.733 94.5992C100.733 92.0346 101.21 89.8419 102.163 88.0212C103.116 86.1927 104.413 84.7942 106.056 83.8257C107.698 82.8572 109.558 82.3729 111.634 82.3729C112.959 82.3729 114.191 82.5589 115.33 82.9308C116.469 83.3027 117.484 83.8489 118.375 84.5695C119.266 85.2823 119.998 86.1578 120.572 87.196C121.153 88.2265 121.532 89.4042 121.711 90.7291ZM129.316 82.6983V106.5H125.005V82.6983H129.316ZM152.891 82.6983V106.5H149.055L137.84 90.2874H137.643V106.5H133.331V82.6983H137.189L148.393 98.9225H148.602V82.6983H152.891ZM156.934 106.5V82.6983H172.415V86.3128H161.246V92.7745H171.613V96.3889H161.246V102.886H172.508V106.5H156.934ZM176.159 82.6983H181.435L188.501 99.9452H188.78L195.846 82.6983H201.123V106.5H196.985V90.148H196.765L190.187 106.43H187.095L180.517 90.1131H180.296V106.5H176.159V82.6983ZM208.22 106.5H203.618L211.997 82.6983H217.32L225.711 106.5H221.109L214.751 87.5795H214.566L208.22 106.5ZM208.371 97.1676H220.923V100.631H208.371V97.1676ZM224.269 86.3128V82.6983H243.259V86.3128H235.903V106.5H231.626V86.3128H224.269ZM266.479 94.5992C266.479 97.1637 265.999 99.3603 265.038 101.189C264.085 103.01 262.783 104.404 261.133 105.373C259.49 106.341 257.627 106.825 255.543 106.825C253.459 106.825 251.591 106.341 249.941 105.373C248.298 104.396 246.997 102.998 246.036 101.177C245.083 99.3487 244.607 97.156 244.607 94.5992C244.607 92.0346 245.083 89.8419 246.036 88.0212C246.997 86.1927 248.298 84.7942 249.941 83.8257C251.591 82.8572 253.459 82.3729 255.543 82.3729C257.627 82.3729 259.49 82.8572 261.133 83.8257C262.783 84.7942 264.085 86.1927 265.038 88.0212C265.999 89.8419 266.479 92.0346 266.479 94.5992ZM262.144 94.5992C262.144 92.7939 261.861 91.2714 261.296 90.0318C260.738 88.7843 259.963 87.843 258.971 87.2076C257.979 86.5646 256.837 86.243 255.543 86.243C254.249 86.243 253.106 86.5646 252.114 87.2076C251.123 87.843 250.344 88.7843 249.778 90.0318C249.22 91.2714 248.941 92.7939 248.941 94.5992C248.941 96.4044 249.22 97.9308 249.778 99.1782C250.344 100.418 251.123 101.359 252.114 102.002C253.106 102.638 254.249 102.955 255.543 102.955C256.837 102.955 257.979 102.638 258.971 102.002C259.963 101.359 260.738 100.418 261.296 99.1782C261.861 97.9308 262.144 96.4044 262.144 94.5992ZM285.846 90.2991C285.652 89.6715 285.385 89.1098 285.044 88.6139C284.711 88.1103 284.308 87.6803 283.835 87.3239C283.371 86.9675 282.836 86.7002 282.232 86.5219C281.627 86.336 280.969 86.243 280.256 86.243C278.977 86.243 277.839 86.5646 276.839 87.2076C275.84 87.8507 275.053 88.796 274.48 90.0434C273.914 91.2831 273.631 92.7939 273.631 94.5759C273.631 96.3734 273.914 97.8959 274.48 99.1433C275.045 100.391 275.832 101.34 276.839 101.991C277.846 102.634 279.016 102.955 280.349 102.955C281.558 102.955 282.604 102.723 283.487 102.258C284.378 101.793 285.063 101.135 285.544 100.282C286.024 99.4223 286.264 98.415 286.264 97.2606L287.241 97.4117H280.779V94.0413H290.437V96.9003C290.437 98.938 290.003 100.701 289.135 102.188C288.267 103.676 287.074 104.823 285.555 105.628C284.037 106.426 282.294 106.825 280.326 106.825C278.133 106.825 276.208 106.333 274.55 105.349C272.899 104.358 271.609 102.951 270.679 101.131C269.757 99.3022 269.296 97.1327 269.296 94.6224C269.296 92.7009 269.568 90.9848 270.11 89.4739C270.66 87.9631 271.427 86.6808 272.411 85.6271C273.395 84.5656 274.55 83.7598 275.874 83.2097C277.199 82.6519 278.64 82.3729 280.198 82.3729C281.515 82.3729 282.743 82.5666 283.882 82.954C285.021 83.3337 286.032 83.876 286.915 84.5811C287.806 85.2862 288.538 86.1229 289.112 87.0914C289.685 88.0599 290.061 89.1291 290.239 90.2991H285.846ZM293.951 106.5V82.6983H302.877C304.706 82.6983 306.24 83.016 307.479 83.6513C308.727 84.2867 309.668 85.1777 310.304 86.3244C310.947 87.4633 311.268 88.7921 311.268 90.3107C311.268 91.837 310.943 93.1619 310.292 94.2854C309.649 95.4011 308.7 96.265 307.445 96.8771C306.189 97.4814 304.648 97.7836 302.819 97.7836H296.462V94.204H302.238C303.307 94.204 304.183 94.0568 304.864 93.7624C305.546 93.4602 306.05 93.0225 306.375 92.4491C306.708 91.868 306.875 91.1552 306.875 90.3107C306.875 89.4662 306.708 88.7456 306.375 88.149C306.042 87.5447 305.535 87.0875 304.853 86.7776C304.171 86.46 303.292 86.3011 302.215 86.3011H298.263V106.5H293.951ZM306.247 95.7149L312.14 106.5H307.328L301.541 95.7149H306.247ZM317.639 106.5H313.037L321.416 82.6983H326.739L335.13 106.5H330.528L324.171 87.5795H323.985L317.639 106.5ZM317.79 97.1676H330.342V100.631H317.79V97.1676ZM337.61 106.5V82.6983H346.536C348.365 82.6983 349.899 83.0393 351.138 83.7211C352.386 84.4029 353.327 85.3404 353.962 86.5336C354.606 87.719 354.927 89.0671 354.927 90.578C354.927 92.1043 354.606 93.4602 353.962 94.6457C353.319 95.8311 352.37 96.7647 351.115 97.4465C349.86 98.1206 348.314 98.4576 346.478 98.4576H340.562V94.913H345.897C346.966 94.913 347.842 94.727 348.523 94.3551C349.205 93.9832 349.709 93.4718 350.034 92.821C350.367 92.1702 350.534 91.4225 350.534 90.578C350.534 89.7335 350.367 88.9897 350.034 88.3466C349.709 87.7035 349.201 87.2038 348.512 86.8474C347.83 86.4832 346.951 86.3011 345.874 86.3011H341.922V106.5H337.61ZM358.018 106.5V82.6983H362.329V92.7745H373.359V82.6983H377.682V106.5H373.359V96.3889H362.329V106.5H358.018ZM380.09 82.6983H384.959L390.782 93.2278H391.014L396.837 82.6983H401.706L393.048 97.6209V106.5H388.748V97.6209L380.09 82.6983Z" fill="white"/>
<path d="M131.643 120.632V136.5H129.721V120.632H131.643ZM143.737 124.599C143.644 123.814 143.267 123.205 142.605 122.771C141.944 122.337 141.133 122.12 140.173 122.12C139.47 122.12 138.855 122.233 138.329 122.461C137.807 122.688 137.399 123.001 137.104 123.398C136.815 123.796 136.67 124.248 136.67 124.754C136.67 125.178 136.771 125.542 136.973 125.847C137.179 126.146 137.443 126.397 137.763 126.598C138.083 126.794 138.419 126.957 138.77 127.086C139.121 127.21 139.444 127.311 139.739 127.388L141.35 127.822C141.763 127.931 142.223 128.081 142.729 128.272C143.241 128.463 143.729 128.724 144.194 129.054C144.664 129.38 145.051 129.798 145.356 130.309C145.661 130.821 145.813 131.448 145.813 132.192C145.813 133.05 145.588 133.824 145.139 134.517C144.695 135.209 144.044 135.759 143.186 136.167C142.334 136.575 141.299 136.779 140.08 136.779C138.943 136.779 137.959 136.596 137.128 136.229C136.301 135.862 135.65 135.351 135.175 134.695C134.705 134.039 134.439 133.277 134.377 132.409H136.361C136.412 133.008 136.614 133.504 136.965 133.897C137.321 134.284 137.771 134.573 138.313 134.764C138.861 134.95 139.449 135.043 140.08 135.043C140.813 135.043 141.472 134.925 142.055 134.687C142.639 134.444 143.101 134.108 143.442 133.68C143.783 133.246 143.954 132.74 143.954 132.161C143.954 131.634 143.806 131.206 143.512 130.875C143.217 130.544 142.83 130.276 142.35 130.069C141.869 129.863 141.35 129.682 140.792 129.527L138.84 128.969C137.6 128.613 136.619 128.104 135.896 127.443C135.173 126.782 134.811 125.916 134.811 124.847C134.811 123.959 135.051 123.184 135.532 122.523C136.017 121.856 136.668 121.34 137.484 120.973C138.305 120.601 139.222 120.415 140.234 120.415C141.257 120.415 142.166 120.599 142.962 120.965C143.757 121.327 144.387 121.823 144.852 122.453C145.322 123.083 145.57 123.799 145.596 124.599H143.737ZM148.536 136.5V120.632H153.897C155.137 120.632 156.155 120.844 156.95 121.268C157.746 121.686 158.334 122.262 158.717 122.995C159.099 123.729 159.29 124.563 159.29 125.498C159.29 126.433 159.099 127.262 158.717 127.985C158.334 128.708 157.748 129.276 156.958 129.69C156.168 130.098 155.158 130.302 153.928 130.302H149.59V128.566H153.866C154.714 128.566 155.395 128.442 155.912 128.194C156.434 127.946 156.811 127.595 157.043 127.14C157.281 126.681 157.4 126.133 157.4 125.498C157.4 124.863 157.281 124.307 157.043 123.832C156.805 123.357 156.426 122.99 155.904 122.732C155.382 122.468 154.693 122.337 153.835 122.337H150.457V136.5H148.536ZM156.005 129.372L159.91 136.5H157.678L153.835 129.372H156.005ZM162.706 136.5H160.692L166.518 120.632H168.502L174.328 136.5H172.314L167.572 123.143H167.448L162.706 136.5ZM163.45 130.302H171.57V132.006H163.45V130.302ZM176.363 136.5V120.632H185.94V122.337H178.285V127.698H185.444V129.403H178.285V134.795H186.064V136.5H176.363ZM188.967 136.5V120.632H190.888V134.795H198.264V136.5H188.967ZM202.725 120.632V136.5H200.803V120.632H202.725ZM216.738 136.5H211.841V120.632H216.955C218.494 120.632 219.811 120.95 220.906 121.585C222.001 122.215 222.84 123.122 223.424 124.305C224.008 125.482 224.3 126.893 224.3 128.535C224.3 130.188 224.005 131.611 223.416 132.804C222.828 133.992 221.97 134.907 220.844 135.547C219.718 136.182 218.349 136.5 216.738 136.5ZM213.762 134.795H216.614C217.926 134.795 219.013 134.542 219.876 134.036C220.738 133.53 221.381 132.809 221.805 131.874C222.228 130.94 222.44 129.826 222.44 128.535C222.44 127.254 222.231 126.151 221.813 125.227C221.394 124.297 220.769 123.584 219.938 123.088C219.106 122.587 218.07 122.337 216.831 122.337H213.762V134.795ZM240.475 128.566C240.475 130.24 240.173 131.686 239.568 132.905C238.964 134.124 238.135 135.064 237.081 135.725C236.028 136.386 234.824 136.717 233.471 136.717C232.117 136.717 230.914 136.386 229.86 135.725C228.806 135.064 227.977 134.124 227.373 132.905C226.769 131.686 226.467 130.24 226.467 128.566C226.467 126.893 226.769 125.446 227.373 124.227C227.977 123.008 228.806 122.068 229.86 121.407C230.914 120.746 232.117 120.415 233.471 120.415C234.824 120.415 236.028 120.746 237.081 121.407C238.135 122.068 238.964 123.008 239.568 124.227C240.173 125.446 240.475 126.893 240.475 128.566ZM238.615 128.566C238.615 127.192 238.386 126.033 237.926 125.087C237.471 124.142 236.854 123.427 236.074 122.941C235.299 122.456 234.431 122.213 233.471 122.213C232.51 122.213 231.64 122.456 230.86 122.941C230.085 123.427 229.468 124.142 229.008 125.087C228.553 126.033 228.326 127.192 228.326 128.566C228.326 129.94 228.553 131.1 229.008 132.045C229.468 132.99 230.085 133.706 230.86 134.191C231.64 134.677 232.51 134.919 233.471 134.919C234.431 134.919 235.299 134.677 236.074 134.191C236.854 133.706 237.471 132.99 237.926 132.045C238.386 131.1 238.615 129.94 238.615 128.566ZM256.038 125.591H254.116C254.003 125.038 253.804 124.553 253.52 124.134C253.241 123.716 252.9 123.365 252.497 123.081C252.099 122.791 251.658 122.574 251.172 122.43C250.687 122.285 250.181 122.213 249.654 122.213C248.693 122.213 247.823 122.456 247.043 122.941C246.268 123.427 245.651 124.142 245.191 125.087C244.736 126.033 244.509 127.192 244.509 128.566C244.509 129.94 244.736 131.1 245.191 132.045C245.651 132.99 246.268 133.706 247.043 134.191C247.823 134.677 248.693 134.919 249.654 134.919C250.181 134.919 250.687 134.847 251.172 134.702C251.658 134.558 252.099 134.343 252.497 134.059C252.9 133.77 253.241 133.416 253.52 132.998C253.804 132.574 254.003 132.089 254.116 131.541H256.038C255.893 132.352 255.63 133.078 255.248 133.718C254.865 134.359 254.39 134.904 253.822 135.353C253.254 135.798 252.616 136.136 251.908 136.368C251.206 136.601 250.454 136.717 249.654 136.717C248.3 136.717 247.097 136.386 246.043 135.725C244.989 135.064 244.16 134.124 243.556 132.905C242.952 131.686 242.65 130.24 242.65 128.566C242.65 126.893 242.952 125.446 243.556 124.227C244.16 123.008 244.989 122.068 246.043 121.407C247.097 120.746 248.3 120.415 249.654 120.415C250.454 120.415 251.206 120.532 251.908 120.764C252.616 120.996 253.254 121.337 253.822 121.787C254.39 122.231 254.865 122.773 255.248 123.414C255.63 124.049 255.893 124.775 256.038 125.591ZM269.12 120.632H271.041V131.138C271.041 132.223 270.786 133.192 270.274 134.044C269.768 134.891 269.053 135.56 268.128 136.051C267.203 136.536 266.119 136.779 264.874 136.779C263.629 136.779 262.544 136.536 261.62 136.051C260.695 135.56 259.977 134.891 259.466 134.044C258.96 133.192 258.707 132.223 258.707 131.138V120.632H260.628V130.983C260.628 131.758 260.799 132.448 261.139 133.052C261.48 133.651 261.966 134.124 262.596 134.47C263.231 134.811 263.991 134.981 264.874 134.981C265.757 134.981 266.517 134.811 267.152 134.47C267.787 134.124 268.273 133.651 268.608 133.052C268.949 132.448 269.12 131.758 269.12 130.983V120.632ZM274.442 120.632H276.736L282.128 133.804H282.314L287.707 120.632H290V136.5H288.202V124.444H288.047L283.089 136.5H281.353L276.395 124.444H276.24V136.5H274.442V120.632ZM293.416 136.5V120.632H302.993V122.337H295.338V127.698H302.497V129.403H295.338V134.795H303.117V136.5H293.416ZM318.602 120.632V136.5H316.743L308.096 124.041H307.941V136.5H306.02V120.632H307.879L316.557 133.122H316.712V120.632H318.602ZM321.143 122.337V120.632H333.044V122.337H328.054V136.5H326.133V122.337H321.143ZM334.37 136.5H332.356L338.182 120.632H340.166L345.992 136.5H343.978L339.236 123.143H339.112L334.37 136.5ZM335.114 130.302H343.234V132.006H335.114V130.302ZM348.027 136.5V120.632H353.389C354.629 120.632 355.646 120.844 356.442 121.268C357.237 121.686 357.826 122.262 358.208 122.995C358.59 123.729 358.781 124.563 358.781 125.498C358.781 126.433 358.59 127.262 358.208 127.985C357.826 128.708 357.24 129.276 356.449 129.69C355.659 130.098 354.649 130.302 353.42 130.302H349.081V128.566H353.358C354.205 128.566 354.887 128.442 355.403 128.194C355.925 127.946 356.302 127.595 356.535 127.14C356.772 126.681 356.891 126.133 356.891 125.498C356.891 124.863 356.772 124.307 356.535 123.832C356.297 123.357 355.917 122.99 355.396 122.732C354.874 122.468 354.184 122.337 353.327 122.337H349.949V136.5H348.027ZM355.496 129.372L359.401 136.5H357.17L353.327 129.372H355.496ZM359.651 120.632H361.851L366.252 128.039H366.438L370.839 120.632H373.039L367.306 129.961V136.5H365.384V129.961L359.651 120.632ZM191.881 154.591H189.959C189.845 154.038 189.647 153.553 189.363 153.134C189.084 152.716 188.743 152.365 188.34 152.081C187.942 151.791 187.5 151.574 187.015 151.43C186.529 151.285 186.023 151.213 185.496 151.213C184.536 151.213 183.665 151.456 182.885 151.941C182.11 152.427 181.493 153.142 181.033 154.087C180.579 155.033 180.352 156.192 180.352 157.566C180.352 158.94 180.579 160.1 181.033 161.045C181.493 161.99 182.11 162.706 182.885 163.191C183.665 163.677 184.536 163.919 185.496 163.919C186.023 163.919 186.529 163.847 187.015 163.702C187.5 163.558 187.942 163.343 188.34 163.059C188.743 162.77 189.084 162.416 189.363 161.998C189.647 161.574 189.845 161.089 189.959 160.541H191.881C191.736 161.352 191.473 162.078 191.09 162.718C190.708 163.359 190.233 163.904 189.665 164.353C189.097 164.798 188.459 165.136 187.751 165.368C187.048 165.601 186.297 165.717 185.496 165.717C184.143 165.717 182.939 165.386 181.886 164.725C180.832 164.064 180.003 163.124 179.399 161.905C178.794 160.686 178.492 159.24 178.492 157.566C178.492 155.893 178.794 154.446 179.399 153.227C180.003 152.008 180.832 151.068 181.886 150.407C182.939 149.746 184.143 149.415 185.496 149.415C186.297 149.415 187.048 149.532 187.751 149.764C188.459 149.996 189.097 150.337 189.665 150.787C190.233 151.231 190.708 151.773 191.09 152.414C191.473 153.049 191.736 153.775 191.881 154.591ZM207.938 157.566C207.938 159.24 207.635 160.686 207.031 161.905C206.427 163.124 205.598 164.064 204.544 164.725C203.49 165.386 202.287 165.717 200.934 165.717C199.58 165.717 198.377 165.386 197.323 164.725C196.269 164.064 195.44 163.124 194.836 161.905C194.232 160.686 193.929 159.24 193.929 157.566C193.929 155.893 194.232 154.446 194.836 153.227C195.44 152.008 196.269 151.068 197.323 150.407C198.377 149.746 199.58 149.415 200.934 149.415C202.287 149.415 203.49 149.746 204.544 150.407C205.598 151.068 206.427 152.008 207.031 153.227C207.635 154.446 207.938 155.893 207.938 157.566ZM206.078 157.566C206.078 156.192 205.848 155.033 205.389 154.087C204.934 153.142 204.317 152.427 203.537 151.941C202.762 151.456 201.894 151.213 200.934 151.213C199.973 151.213 199.102 151.456 198.322 151.941C197.548 152.427 196.93 153.142 196.471 154.087C196.016 155.033 195.789 156.192 195.789 157.566C195.789 158.94 196.016 160.1 196.471 161.045C196.93 161.99 197.548 162.706 198.322 163.191C199.102 163.677 199.973 163.919 200.934 163.919C201.894 163.919 202.762 163.677 203.537 163.191C204.317 162.706 204.934 161.99 205.389 161.045C205.848 160.1 206.078 158.94 206.078 157.566ZM210.732 149.632H213.026L218.418 162.804H218.604L223.997 149.632H226.29V165.5H224.493V153.444H224.338L219.379 165.5H217.643L212.685 153.444H212.53V165.5H210.732V149.632ZM229.706 165.5V149.632H235.068C236.313 149.632 237.33 149.857 238.121 150.306C238.916 150.751 239.505 151.352 239.887 152.112C240.269 152.871 240.46 153.718 240.46 154.653C240.46 155.588 240.269 156.437 239.887 157.202C239.51 157.966 238.926 158.576 238.136 159.03C237.346 159.48 236.333 159.705 235.099 159.705H231.256V158H235.037C235.889 158 236.574 157.853 237.09 157.558C237.607 157.264 237.981 156.866 238.214 156.365C238.451 155.859 238.57 155.288 238.57 154.653C238.57 154.018 238.451 153.449 238.214 152.948C237.981 152.447 237.604 152.055 237.082 151.771C236.561 151.481 235.869 151.337 235.006 151.337H231.628V165.5H229.706ZM243.119 165.5V149.632H252.696V151.337H245.041V156.698H252.2V158.403H245.041V163.795H252.82V165.5H243.119ZM254.855 151.337V149.632H266.756V151.337H261.766V165.5H259.845V151.337H254.855ZM271.207 149.632V165.5H269.285V149.632H271.207ZM273.755 151.337V149.632H285.656V151.337H280.666V165.5H278.745V151.337H273.755ZM290.107 149.632V165.5H288.185V149.632H290.107ZM306.911 157.566C306.911 159.24 306.609 160.686 306.005 161.905C305.4 163.124 304.571 164.064 303.518 164.725C302.464 165.386 301.26 165.717 299.907 165.717C298.554 165.717 297.35 165.386 296.297 164.725C295.243 164.064 294.414 163.124 293.809 161.905C293.205 160.686 292.903 159.24 292.903 157.566C292.903 155.893 293.205 154.446 293.809 153.227C294.414 152.008 295.243 151.068 296.297 150.407C297.35 149.746 298.554 149.415 299.907 149.415C301.26 149.415 302.464 149.746 303.518 150.407C304.571 151.068 305.4 152.008 306.005 153.227C306.609 154.446 306.911 155.893 306.911 157.566ZM305.052 157.566C305.052 156.192 304.822 155.033 304.362 154.087C303.908 153.142 303.29 152.427 302.51 151.941C301.736 151.456 300.868 151.213 299.907 151.213C298.946 151.213 298.076 151.456 297.296 151.941C296.521 152.427 295.904 153.142 295.444 154.087C294.99 155.033 294.762 156.192 294.762 157.566C294.762 158.94 294.99 160.1 295.444 161.045C295.904 161.99 296.521 162.706 297.296 163.191C298.076 163.677 298.946 163.919 299.907 163.919C300.868 163.919 301.736 163.677 302.51 163.191C303.29 162.706 303.908 161.99 304.362 161.045C304.822 160.1 305.052 158.94 305.052 157.566ZM322.288 149.632V165.5H320.429L311.782 153.041H311.627V165.5H309.706V149.632H311.565L320.243 162.122H320.398V149.632H322.288Z" fill="white"/>
<path d="M226.152 196.5V195.105L231.389 189.372C232.004 188.7 232.51 188.117 232.908 187.621C233.306 187.12 233.6 186.65 233.791 186.211C233.987 185.767 234.086 185.302 234.086 184.816C234.086 184.258 233.951 183.775 233.683 183.367C233.419 182.959 233.058 182.644 232.598 182.422C232.138 182.2 231.622 182.089 231.048 182.089C230.439 182.089 229.907 182.215 229.452 182.468C229.003 182.716 228.654 183.065 228.406 183.514C228.164 183.964 228.042 184.491 228.042 185.095H226.214C226.214 184.165 226.428 183.349 226.857 182.647C227.285 181.944 227.869 181.397 228.608 181.004C229.352 180.612 230.186 180.415 231.11 180.415C232.04 180.415 232.864 180.612 233.582 181.004C234.3 181.397 234.863 181.926 235.271 182.592C235.679 183.259 235.883 184 235.883 184.816C235.883 185.4 235.777 185.971 235.565 186.528C235.359 187.081 234.997 187.698 234.481 188.38C233.969 189.057 233.259 189.883 232.35 190.86L228.786 194.671V194.795H236.162V196.5H226.152ZM244.101 196.717C242.934 196.717 241.939 196.399 241.118 195.764C240.297 195.123 239.669 194.196 239.235 192.982C238.802 191.763 238.585 190.291 238.585 188.566C238.585 186.851 238.802 185.387 239.235 184.173C239.675 182.954 240.305 182.024 241.126 181.384C241.952 180.738 242.944 180.415 244.101 180.415C245.258 180.415 246.247 180.738 247.069 181.384C247.895 182.024 248.525 182.954 248.959 184.173C249.398 185.387 249.618 186.851 249.618 188.566C249.618 190.291 249.401 191.763 248.967 192.982C248.533 194.196 247.905 195.123 247.084 195.764C246.263 196.399 245.269 196.717 244.101 196.717ZM244.101 195.012C245.258 195.012 246.157 194.455 246.797 193.339C247.438 192.223 247.758 190.632 247.758 188.566C247.758 187.192 247.611 186.022 247.317 185.056C247.027 184.09 246.609 183.354 246.061 182.848C245.519 182.342 244.866 182.089 244.101 182.089C242.954 182.089 242.058 182.654 241.413 183.786C240.767 184.912 240.444 186.505 240.444 188.566C240.444 189.94 240.589 191.107 240.878 192.068C241.167 193.029 241.583 193.76 242.125 194.261C242.673 194.762 243.332 195.012 244.101 195.012ZM252.126 196.5V195.105L257.363 189.372C257.978 188.7 258.484 188.117 258.882 187.621C259.279 187.12 259.574 186.65 259.765 186.211C259.961 185.767 260.059 185.302 260.059 184.816C260.059 184.258 259.925 183.775 259.657 183.367C259.393 182.959 259.032 182.644 258.572 182.422C258.112 182.2 257.596 182.089 257.022 182.089C256.413 182.089 255.881 182.215 255.426 182.468C254.977 182.716 254.628 183.065 254.38 183.514C254.137 183.964 254.016 184.491 254.016 185.095H252.188C252.188 184.165 252.402 183.349 252.831 182.647C253.259 181.944 253.843 181.397 254.582 181.004C255.325 180.612 256.16 180.415 257.084 180.415C258.014 180.415 258.838 180.612 259.556 181.004C260.274 181.397 260.837 181.926 261.245 182.592C261.653 183.259 261.857 184 261.857 184.816C261.857 185.4 261.751 185.971 261.539 186.528C261.333 187.081 260.971 187.698 260.455 188.38C259.943 189.057 259.233 189.883 258.324 190.86L254.76 194.671V194.795H262.136V196.5H252.126ZM270.075 196.717C268.908 196.717 267.913 196.399 267.092 195.764C266.271 195.123 265.643 194.196 265.209 192.982C264.775 191.763 264.559 190.291 264.559 188.566C264.559 186.851 264.775 185.387 265.209 184.173C265.648 182.954 266.279 182.024 267.1 181.384C267.926 180.738 268.918 180.415 270.075 180.415C271.232 180.415 272.221 180.738 273.042 181.384C273.869 182.024 274.499 182.954 274.933 184.173C275.372 185.387 275.592 186.851 275.592 188.566C275.592 190.291 275.375 191.763 274.941 192.982C274.507 194.196 273.879 195.123 273.058 195.764C272.237 196.399 271.242 196.717 270.075 196.717ZM270.075 195.012C271.232 195.012 272.131 194.455 272.771 193.339C273.412 192.223 273.732 190.632 273.732 188.566C273.732 187.192 273.585 186.022 273.29 185.056C273.001 184.09 272.583 183.354 272.035 182.848C271.493 182.342 270.839 182.089 270.075 182.089C268.928 182.089 268.032 182.654 267.387 183.786C266.741 184.912 266.418 186.505 266.418 188.566C266.418 189.94 266.563 191.107 266.852 192.068C267.141 193.029 267.557 193.76 268.099 194.261C268.647 194.762 269.305 195.012 270.075 195.012Z" fill="white"/>
<path d="M453.838 73.6038C456.208 77.1463 458.484 81.5164 457.365 86.1997C453.504 83.9897 450.398 80.3814 447.935 76.8193C445.455 73.2333 442.88 69.42 441.998 65C446.868 66.2457 451.228 69.7037 453.838 73.6038Z" fill="white"/>
<path d="M460.756 95.1908C459.38 91.4902 456.37 88.2635 453.094 86.7585C450.052 85.3629 446.012 83.9064 442.462 85.6948C444.394 89.0871 447.575 91.9415 450.824 93.7369C453.745 95.3511 457.445 97.3068 461.107 96.4662C465.098 95.8549 467.027 91.8818 468.1 88.8763C469.585 84.723 468.57 79.1764 466.035 75.1016C462.54 76.5581 461.474 80.8794 460.744 83.9369C459.911 87.4172 459.888 91.4796 460.756 95.1908Z" fill="white"/>
<path d="M457.887 100.539C460.701 102.546 462.861 106.215 463.325 109.982C463.365 106.208 464.392 102.311 466.041 99.1716C467.55 96.2998 469.655 92.4184 473.4 91.6448C474.871 96.1161 474.395 101.585 472.016 105.205C470.217 107.947 467.431 111.38 463.377 111.288C459.677 111.477 456.482 108.95 453.968 106.841C451.263 104.573 448.823 101.257 447.797 97.6735C451.574 96.5766 455.19 98.6159 457.887 100.539Z" fill="white"/>
<path d="M462.374 124.804C462.786 121.113 461.552 117.122 459.251 114.656C457.036 112.279 453.93 109.688 450.063 110.101C450.141 113.84 452.013 117.405 453.945 120.075C455.744 122.562 458.515 125.638 462.143 126.081C465.915 126.72 469.597 124.411 471.99 121.694C475.067 118.198 476.901 113.507 476.535 108.808C472.659 108.904 469.724 112.249 467.553 114.779C465.211 117.508 463.293 121.099 462.374 124.804Z" fill="white"/>
<path d="M456.882 128.165C458.716 131.811 459.065 136.148 457.65 139.966C459.737 136.037 462.791 132.86 466.024 129.924C468.962 127.256 473.195 124.446 477.454 124.978C476.641 130.245 473.42 135.707 469.1 138.514C465.628 140.769 461.421 143.002 457.001 141.316C453.364 140.033 451.055 136.371 449.636 133.01C448.134 129.454 447.133 125.355 447.834 121.465C451.822 121.822 455.129 124.679 456.882 128.165Z" fill="white"/>
<path d="M449.175 154.019C451.482 150.507 452.287 146.11 451.344 141.983C450.45 138.074 447.731 134.504 443.766 133.394C442.113 137.16 442.085 141.541 442.684 145.514C443.244 149.19 444.611 153.48 448.007 155.53C452.203 158.191 457.102 156.617 461.125 155.025C466.315 152.972 471.001 148.004 473.193 142.665C468.657 141.227 464.02 143.599 460.24 145.566C456.33 147.601 452.246 150.503 449.175 154.019Z" fill="white"/>
<path d="M431.827 156.913C431.322 160.746 431.331 165.609 434.307 168.562C438.021 172.373 443.779 171.642 448.22 170.807C454.183 169.687 460.896 165.625 464.498 160.215C460.109 157.794 454.734 159.336 450.386 160.585L450.135 160.656C445.282 162.049 440.109 164.293 435.78 167.362C439.235 164.245 441.752 159.67 441.879 155.057C441.994 150.93 440.207 146.512 436.354 144.542C433.658 148.072 432.395 152.607 431.827 156.913Z" fill="white"/>
<path d="M428.497 184.994C423.733 184.894 417.196 184.325 414.531 179.404L414.494 179.336C412.366 175.176 414.529 170.314 416.253 166.715C418.303 162.437 421.103 158.078 425.106 154.949C428.947 158.263 428.575 163 427.43 167.116C426.066 172.011 421.354 176.181 416.475 178.555C422.124 176.454 428.292 175.194 434.16 174.825L434.757 174.787C439.472 174.484 445.608 174.089 449.36 177.541C443.676 182.364 435.608 185.144 428.497 184.994Z" fill="white"/>
</svg>
