<svg width="396" height="250" viewBox="0 0 396 250" fill="none" xmlns="http://www.w3.org/2000/svg">
<path d="M44.1277 86.1862C43.0118 81.5024 45.2914 77.1344 47.6659 73.5942C50.2797 69.6967 54.6408 66.2422 59.5114 65C58.6265 69.4188 56.0476 73.2303 53.5653 76.8138C51.0997 80.3739 47.99 83.9796 44.1277 86.1862Z" fill="white"/>
<path d="M40.7293 95.1708C41.6004 91.4616 41.5811 87.401 40.7518 83.9219C40.0226 80.8643 38.9615 76.5422 35.4692 75.0837C32.9307 79.1556 31.9102 84.7007 33.3897 88.8556C34.4594 91.861 36.3832 95.8345 40.373 96.4496C44.034 97.2935 47.736 95.3406 50.6597 93.7282C53.9107 91.9357 57.0951 89.0837 59.0299 85.6931C55.4807 83.9017 51.4388 85.3555 48.398 86.7487C45.1202 88.2507 42.109 91.4732 40.7293 95.1708Z" fill="white"/>
<path d="M29.4561 105.18C31.2565 107.926 34.0424 111.367 38.1045 111.269C41.7984 111.453 44.9898 108.933 47.5029 106.829C50.2095 104.562 52.6526 101.249 53.684 97.666C49.9059 96.5668 46.2887 98.6031 43.5913 100.524C40.7746 102.53 38.6083 106.201 38.1429 109.97C38.108 106.194 37.0858 102.294 35.438 99.1515C33.9314 96.2791 31.832 92.3963 28.0865 91.6201C26.6108 96.0896 27.0817 101.558 29.4561 105.18Z" fill="white"/>
<path d="M39.3056 126.062C35.5356 126.694 31.8582 124.384 29.4699 121.667C26.395 118.169 24.5655 113.476 24.9386 108.779C28.8116 108.877 31.7448 112.225 33.9129 114.756C36.2478 117.483 38.1609 121.07 39.0787 124.771C38.675 121.083 39.9132 117.101 42.2115 114.64C44.43 112.265 47.5377 109.676 51.4043 110.091C51.321 113.831 49.4465 117.394 47.5132 120.062C45.7111 122.548 42.9349 125.624 39.3056 126.062Z" fill="white"/>
<path d="M32.3419 138.488C35.8141 140.749 40.0252 142.986 44.4509 141.293C48.0817 140.008 50.3901 136.354 51.8099 132.999C53.3139 129.445 54.3184 125.346 53.623 121.456C49.6332 121.81 46.3249 124.665 44.5677 128.149C42.7307 131.792 42.3784 136.128 43.7895 139.947C41.7045 136.018 38.6554 132.839 35.4254 129.901C32.4892 127.231 28.2599 124.418 24 124.947C24.8105 130.214 28.0243 135.677 32.3419 138.488Z" fill="white"/>
<path d="M53.3943 155.53C56.8111 153.488 58.1862 149.19 58.7482 145.507C59.354 141.535 59.328 137.155 57.6784 133.387C53.7144 134.494 50.9933 138.062 50.0949 141.97C49.1456 146.098 49.9466 150.499 52.2557 154.014C49.1863 150.493 45.1049 147.585 41.1936 145.546C37.4155 143.577 32.7804 141.202 28.2432 142.636C30.4311 147.976 35.1114 152.947 40.2986 155.004C44.3157 156.596 49.2027 158.171 53.3943 155.53Z" fill="white"/>
<path d="M69.5932 156.913C70.0946 160.747 70.0804 165.609 67.1039 168.56C63.3844 172.367 57.628 171.633 53.1882 170.795C47.2276 169.67 40.518 165.604 36.9219 160.191C41.3138 157.773 46.6853 159.32 51.0334 160.572L51.2817 160.643C56.1353 162.04 61.3075 164.289 65.6331 167.362C62.1811 164.243 59.666 159.665 59.5428 155.05C59.4321 150.923 61.2236 146.507 65.0786 144.54C67.77 148.072 69.0303 152.607 69.5932 156.913Z" fill="white"/>
<path d="M86.8678 179.415C89.0598 175.242 86.888 170.345 85.1574 166.726C83.1114 162.447 80.3159 158.086 76.3152 154.954C72.4737 158.265 72.839 163.002 73.9811 167.119C75.3392 172.014 80.0475 176.187 84.923 178.565C79.2765 176.459 73.1098 175.195 67.2427 174.822L66.6484 174.784C61.935 174.477 55.7989 174.077 52.043 177.526C57.7218 182.354 65.788 185.139 72.8973 184.995C77.6615 184.898 84.1981 184.334 86.8678 179.415Z" fill="white"/>
<path d="M100.798 77V61.1322H106.345C107.451 61.1322 108.362 61.3233 109.08 61.7056C109.798 62.0826 110.333 62.5914 110.684 63.2319C111.035 63.8673 111.211 64.5723 111.211 65.3471C111.211 66.0289 111.09 66.5919 110.847 67.0362C110.609 67.4804 110.294 67.8316 109.902 68.0899C109.514 68.3481 109.093 68.5393 108.639 68.6632V68.8182C109.124 68.8492 109.612 69.0196 110.103 69.3295C110.594 69.6395 111.004 70.0837 111.335 70.6622C111.666 71.2407 111.831 71.9483 111.831 72.7851C111.831 73.5806 111.65 74.296 111.289 74.9313C110.927 75.5666 110.356 76.0702 109.576 76.4421C108.796 76.814 107.781 77 106.531 77H100.798ZM102.719 75.2955H106.531C107.786 75.2955 108.677 75.0527 109.204 74.5671C109.736 74.0764 110.002 73.4824 110.002 72.7851C110.002 72.2479 109.865 71.7521 109.592 71.2975C109.318 70.8378 108.928 70.4711 108.422 70.1973C107.916 69.9184 107.316 69.7789 106.624 69.7789H102.719V75.2955ZM102.719 68.1054H106.283C106.862 68.1054 107.384 67.9917 107.848 67.7645C108.318 67.5372 108.69 67.2169 108.964 66.8037C109.243 66.3905 109.383 65.905 109.383 65.3471C109.383 64.6498 109.14 64.0584 108.654 63.5728C108.169 63.0821 107.399 62.8368 106.345 62.8368H102.719V68.1054ZM119.294 77.2479C118.147 77.2479 117.158 76.9948 116.326 76.4886C115.5 75.9773 114.862 75.2645 114.412 74.3502C113.968 73.4308 113.746 72.3616 113.746 71.1426C113.746 69.9236 113.968 68.8492 114.412 67.9194C114.862 66.9845 115.487 66.2562 116.287 65.7345C117.093 65.2076 118.033 64.9442 119.108 64.9442C119.727 64.9442 120.339 65.0475 120.944 65.2541C121.548 65.4607 122.098 65.7965 122.594 66.2614C123.09 66.7211 123.485 67.3306 123.78 68.0899C124.074 68.8492 124.221 69.7841 124.221 70.8946V71.6694H115.048V70.0888H122.362C122.362 69.4174 122.227 68.8182 121.959 68.2913C121.695 67.7645 121.318 67.3487 120.828 67.0439C120.342 66.7392 119.769 66.5868 119.108 66.5868C118.379 66.5868 117.749 66.7676 117.217 67.1291C116.69 67.4855 116.285 67.9504 116.001 68.5238C115.717 69.0971 115.575 69.7118 115.575 70.3678V71.4215C115.575 72.3202 115.729 73.0821 116.039 73.7071C116.354 74.327 116.791 74.7996 117.349 75.125C117.907 75.4452 118.555 75.6054 119.294 75.6054C119.774 75.6054 120.208 75.5382 120.595 75.4039C120.988 75.2645 121.326 75.0579 121.61 74.7841C121.894 74.5052 122.114 74.1591 122.269 73.7459L124.035 74.2417C123.849 74.8409 123.537 75.3678 123.098 75.8223C122.659 76.2717 122.116 76.6229 121.471 76.876C120.825 77.124 120.099 77.2479 119.294 77.2479ZM134.996 67.7645L133.354 68.2293C133.25 67.9556 133.098 67.6896 132.896 67.4313C132.7 67.1679 132.432 66.9509 132.091 66.7805C131.75 66.61 131.313 66.5248 130.781 66.5248C130.053 66.5248 129.446 66.6927 128.96 67.0284C128.48 67.359 128.24 67.78 128.24 68.2913C128.24 68.7459 128.405 69.1049 128.736 69.3683C129.066 69.6317 129.583 69.8512 130.285 70.0269L132.052 70.4607C133.116 70.719 133.909 71.1142 134.43 71.6462C134.952 72.173 135.213 72.8523 135.213 73.6839C135.213 74.3657 135.017 74.9752 134.624 75.5124C134.237 76.0496 133.694 76.4731 132.997 76.7831C132.3 77.093 131.489 77.2479 130.564 77.2479C129.35 77.2479 128.346 76.9845 127.55 76.4576C126.755 75.9308 126.251 75.1612 126.039 74.1488L127.775 73.7149C127.94 74.3554 128.253 74.8357 128.713 75.156C129.177 75.4762 129.784 75.6364 130.533 75.6364C131.386 75.6364 132.062 75.4556 132.563 75.094C133.069 74.7273 133.323 74.2882 133.323 73.7769C133.323 73.3636 133.178 73.0176 132.889 72.7386C132.599 72.4545 132.155 72.2428 131.556 72.1033L129.573 71.6384C128.483 71.3802 127.682 70.9799 127.171 70.4375C126.664 69.89 126.411 69.2056 126.411 68.3843C126.411 67.7128 126.6 67.1188 126.977 66.6023C127.359 66.0857 127.878 65.6803 128.534 65.3858C129.195 65.0914 129.944 64.9442 130.781 64.9442C131.959 64.9442 132.883 65.2025 133.555 65.719C134.232 66.2355 134.712 66.9174 134.996 67.7645ZM142.705 65.0992V66.6488H136.537V65.0992H142.705ZM138.335 62.2479H140.163V73.5909C140.163 74.1074 140.238 74.4948 140.388 74.7531C140.543 75.0062 140.739 75.1767 140.977 75.2645C141.22 75.3471 141.475 75.3884 141.744 75.3884C141.945 75.3884 142.111 75.3781 142.24 75.3574C142.369 75.3316 142.472 75.311 142.55 75.2955L142.922 76.938C142.798 76.9845 142.625 77.031 142.403 77.0775C142.18 77.1291 141.899 77.155 141.558 77.155C141.042 77.155 140.535 77.0439 140.039 76.8218C139.549 76.5997 139.141 76.2614 138.815 75.8068C138.495 75.3523 138.335 74.7789 138.335 74.0868V62.2479ZM155.864 77H150.967V61.1322H156.08C157.62 61.1322 158.937 61.4499 160.032 62.0852C161.127 62.7154 161.966 63.6219 162.55 64.8048C163.134 65.9824 163.426 67.3926 163.426 69.0351C163.426 70.688 163.131 72.1111 162.542 73.3042C161.953 74.4923 161.096 75.4065 159.97 76.047C158.844 76.6823 157.475 77 155.864 77ZM152.888 75.2955H155.74C157.052 75.2955 158.139 75.0424 159.001 74.5362C159.864 74.03 160.507 73.3094 160.931 72.3745C161.354 71.4396 161.566 70.3264 161.566 69.0351C161.566 67.7541 161.357 66.6513 160.938 65.7268C160.52 64.797 159.895 64.0842 159.063 63.5883C158.232 63.0873 157.196 62.8368 155.957 62.8368H152.888V75.2955ZM165.964 77V65.0992H167.793V77H165.964ZM166.894 63.1157C166.538 63.1157 166.23 62.9943 165.972 62.7515C165.719 62.5088 165.592 62.2169 165.592 61.876C165.592 61.5351 165.719 61.2433 165.972 61.0005C166.23 60.7577 166.538 60.6364 166.894 60.6364C167.251 60.6364 167.555 60.7577 167.808 61.0005C168.067 61.2433 168.196 61.5351 168.196 61.876C168.196 62.2169 168.067 62.5088 167.808 62.7515C167.555 62.9943 167.251 63.1157 166.894 63.1157ZM170.706 77V65.0992H172.472V66.8967H172.596C172.813 66.3079 173.206 65.8301 173.774 65.4633C174.342 65.0966 174.982 64.9132 175.695 64.9132C175.83 64.9132 175.997 64.9158 176.199 64.921C176.4 64.9261 176.553 64.9339 176.656 64.9442V66.8037C176.594 66.7882 176.452 66.765 176.23 66.734C176.013 66.6978 175.783 66.6798 175.54 66.6798C174.962 66.6798 174.445 66.8011 173.991 67.0439C173.541 67.2815 173.185 67.6121 172.921 68.0356C172.663 68.454 172.534 68.9318 172.534 69.469V77H170.706ZM183.015 77.2479C181.868 77.2479 180.879 76.9948 180.047 76.4886C179.221 75.9773 178.583 75.2645 178.133 74.3502C177.689 73.4308 177.467 72.3616 177.467 71.1426C177.467 69.9236 177.689 68.8492 178.133 67.9194C178.583 66.9845 179.208 66.2562 180.008 65.7345C180.814 65.2076 181.754 64.9442 182.829 64.9442C183.448 64.9442 184.061 65.0475 184.665 65.2541C185.269 65.4607 185.819 65.7965 186.315 66.2614C186.811 66.7211 187.206 67.3306 187.501 68.0899C187.795 68.8492 187.942 69.7841 187.942 70.8946V71.6694H178.769V70.0888H186.083C186.083 69.4174 185.948 68.8182 185.68 68.2913C185.416 67.7645 185.039 67.3487 184.549 67.0439C184.063 66.7392 183.49 66.5868 182.829 66.5868C182.1 66.5868 181.47 66.7676 180.938 67.1291C180.411 67.4855 180.006 67.9504 179.722 68.5238C179.438 69.0971 179.296 69.7118 179.296 70.3678V71.4215C179.296 72.3202 179.45 73.0821 179.76 73.7071C180.075 74.327 180.512 74.7996 181.07 75.125C181.628 75.4452 182.276 75.6054 183.015 75.6054C183.495 75.6054 183.929 75.5382 184.316 75.4039C184.709 75.2645 185.047 75.0579 185.331 74.7841C185.615 74.5052 185.835 74.1591 185.99 73.7459L187.756 74.2417C187.57 74.8409 187.258 75.3678 186.819 75.8223C186.38 76.2717 185.837 76.6229 185.192 76.876C184.546 77.124 183.82 77.2479 183.015 77.2479ZM195.122 77.2479C194.006 77.2479 193.046 76.9845 192.24 76.4576C191.434 75.9308 190.814 75.2051 190.38 74.2805C189.946 73.3559 189.73 72.2996 189.73 71.1116C189.73 69.9029 189.952 68.8363 190.396 67.9117C190.845 66.9819 191.47 66.2562 192.271 65.7345C193.077 65.2076 194.017 64.9442 195.091 64.9442C195.928 64.9442 196.682 65.0992 197.353 65.4091C198.025 65.719 198.575 66.1529 199.004 66.7107C199.433 67.2686 199.699 67.9194 199.802 68.6632H197.973C197.834 68.1209 197.524 67.6405 197.044 67.2221C196.568 66.7986 195.928 66.5868 195.122 66.5868C194.409 66.5868 193.784 66.7727 193.247 67.1446C192.715 67.5114 192.299 68.0305 192 68.702C191.705 69.3683 191.558 70.1508 191.558 71.0496C191.558 71.969 191.703 72.7696 191.992 73.4514C192.286 74.1333 192.7 74.6627 193.232 75.0398C193.769 75.4168 194.399 75.6054 195.122 75.6054C195.597 75.6054 196.029 75.5227 196.416 75.3574C196.803 75.1921 197.131 74.9545 197.4 74.6446C197.669 74.3347 197.86 73.9628 197.973 73.5289H199.802C199.699 74.2314 199.443 74.8642 199.035 75.4272C198.632 75.985 198.097 76.4292 197.431 76.7598C196.77 77.0852 196 77.2479 195.122 77.2479ZM207.214 65.0992V66.6488H201.047V65.0992H207.214ZM202.844 62.2479H204.673V73.5909C204.673 74.1074 204.748 74.4948 204.897 74.7531C205.052 75.0062 205.249 75.1767 205.486 75.2645C205.729 75.3471 205.985 75.3884 206.253 75.3884C206.455 75.3884 206.62 75.3781 206.749 75.3574C206.878 75.3316 206.982 75.311 207.059 75.2955L207.431 76.938C207.307 76.9845 207.134 77.031 206.912 77.0775C206.69 77.1291 206.408 77.155 206.067 77.155C205.551 77.155 205.045 77.0439 204.549 76.8218C204.058 76.5997 203.65 76.2614 203.325 75.8068C203.004 75.3523 202.844 74.7789 202.844 74.0868V62.2479ZM214.235 77.2479C213.161 77.2479 212.218 76.9923 211.407 76.4809C210.601 75.9695 209.971 75.2541 209.517 74.3347C209.067 73.4153 208.843 72.3409 208.843 71.1116C208.843 69.8719 209.067 68.7898 209.517 67.8652C209.971 66.9406 210.601 66.2226 211.407 65.7113C212.218 65.1999 213.161 64.9442 214.235 64.9442C215.31 64.9442 216.25 65.1999 217.055 65.7113C217.866 66.2226 218.497 66.9406 218.946 67.8652C219.4 68.7898 219.628 69.8719 219.628 71.1116C219.628 72.3409 219.4 73.4153 218.946 74.3347C218.497 75.2541 217.866 75.9695 217.055 76.4809C216.25 76.9923 215.31 77.2479 214.235 77.2479ZM214.235 75.6054C215.051 75.6054 215.723 75.3962 216.25 74.9778C216.776 74.5594 217.166 74.0093 217.42 73.3275C217.673 72.6457 217.799 71.907 217.799 71.1116C217.799 70.3161 217.673 69.5749 217.42 68.8879C217.166 68.2009 216.776 67.6457 216.25 67.2221C215.723 66.7986 215.051 66.5868 214.235 66.5868C213.419 66.5868 212.748 66.7986 212.221 67.2221C211.694 67.6457 211.304 68.2009 211.051 68.8879C210.798 69.5749 210.671 70.3161 210.671 71.1116C210.671 71.907 210.798 72.6457 211.051 73.3275C211.304 74.0093 211.694 74.5594 212.221 74.9778C212.748 75.3962 213.419 75.6054 214.235 75.6054ZM221.983 77V65.0992H223.749V66.8967H223.873C224.09 66.3079 224.483 65.8301 225.051 65.4633C225.619 65.0966 226.259 64.9132 226.972 64.9132C227.107 64.9132 227.274 64.9158 227.476 64.921C227.677 64.9261 227.83 64.9339 227.933 64.9442V66.8037C227.871 66.7882 227.729 66.765 227.507 66.734C227.29 66.6978 227.06 66.6798 226.817 66.6798C226.239 66.6798 225.722 66.8011 225.268 67.0439C224.818 67.2815 224.462 67.6121 224.198 68.0356C223.94 68.454 223.811 68.9318 223.811 69.469V77H221.983ZM236.263 77H234.248L240.075 61.1322H242.058L247.885 77H245.87L241.129 63.6426H241.005L236.263 77ZM237.007 70.8017H245.126V72.5062H237.007V70.8017ZM250.877 77L247.251 65.0992H249.172L251.745 74.2107H251.869L254.41 65.0992H256.362L258.873 74.1798H258.997L261.569 65.0992H263.49L259.864 77H258.067L255.464 67.8574H255.278L252.674 77H250.877ZM268.974 77.2789C268.219 77.2789 267.535 77.1369 266.92 76.8528C266.306 76.5635 265.818 76.1477 265.456 75.6054C265.094 75.0579 264.914 74.3967 264.914 73.6219C264.914 72.9401 265.048 72.3874 265.316 71.9638C265.585 71.5351 265.944 71.1994 266.393 70.9566C266.843 70.7138 267.339 70.5331 267.881 70.4143C268.429 70.2903 268.979 70.1921 269.531 70.1198C270.255 70.0269 270.841 69.9571 271.29 69.9106C271.745 69.859 272.075 69.7738 272.282 69.655C272.494 69.5362 272.6 69.3295 272.6 69.0351V68.9731C272.6 68.2087 272.39 67.6147 271.972 67.1911C271.559 66.7676 270.931 66.5558 270.089 66.5558C269.216 66.5558 268.532 66.7469 268.036 67.1291C267.54 67.5114 267.191 67.9194 266.99 68.3533L265.255 67.7335C265.564 67.0103 265.978 66.4473 266.494 66.0444C267.016 65.6364 267.584 65.3523 268.199 65.1921C268.819 65.0269 269.428 64.9442 270.027 64.9442C270.409 64.9442 270.849 64.9907 271.344 65.0837C271.845 65.1715 272.328 65.3549 272.793 65.6338C273.263 65.9127 273.653 66.3337 273.963 66.8967C274.273 67.4597 274.428 68.2138 274.428 69.1591V77H272.6V75.3884H272.507C272.383 75.6467 272.176 75.923 271.887 76.2175C271.597 76.5119 271.213 76.7624 270.732 76.969C270.252 77.1756 269.666 77.2789 268.974 77.2789ZM269.252 75.6364C269.976 75.6364 270.585 75.4943 271.081 75.2102C271.582 74.9261 271.959 74.5594 272.212 74.11C272.47 73.6606 272.6 73.188 272.6 72.6921V71.0186C272.522 71.1116 272.352 71.1968 272.088 71.2743C271.83 71.3466 271.53 71.4112 271.189 71.468C270.854 71.5196 270.526 71.5661 270.205 71.6074C269.89 71.6436 269.635 71.6746 269.438 71.7004C268.963 71.7624 268.519 71.8631 268.106 72.0026C267.698 72.1369 267.367 72.3409 267.114 72.6147C266.866 72.8833 266.742 73.25 266.742 73.7149C266.742 74.3502 266.977 74.8306 267.447 75.156C267.922 75.4762 268.524 75.6364 269.252 75.6364ZM277.329 77V65.0992H279.096V66.8967H279.22C279.437 66.3079 279.829 65.8301 280.397 65.4633C280.965 65.0966 281.606 64.9132 282.319 64.9132C282.453 64.9132 282.621 64.9158 282.822 64.921C283.024 64.9261 283.176 64.9339 283.28 64.9442V66.8037C283.218 66.7882 283.076 66.765 282.853 66.734C282.636 66.6978 282.407 66.6798 282.164 66.6798C281.585 66.6798 281.069 66.8011 280.614 67.0439C280.165 67.2815 279.808 67.6121 279.545 68.0356C279.287 68.454 279.158 68.9318 279.158 69.469V77H277.329ZM289.142 77.2479C288.151 77.2479 287.275 76.9974 286.516 76.4964C285.756 75.9902 285.162 75.2774 284.734 74.358C284.305 73.4334 284.091 72.3409 284.091 71.0806C284.091 69.8306 284.305 68.7459 284.734 67.8264C285.162 66.907 285.759 66.1968 286.523 65.6958C287.288 65.1947 288.171 64.9442 289.173 64.9442C289.948 64.9442 290.56 65.0733 291.01 65.3316C291.464 65.5847 291.81 65.874 292.048 66.1994C292.29 66.5196 292.479 66.7831 292.613 66.9897H292.768V61.1322H294.597V77H292.83V75.1715H292.613C292.479 75.3884 292.288 75.6622 292.04 75.9928C291.792 76.3182 291.438 76.61 290.979 76.8683C290.519 77.1214 289.907 77.2479 289.142 77.2479ZM289.39 75.6054C290.124 75.6054 290.743 75.4143 291.25 75.032C291.756 74.6446 292.141 74.11 292.404 73.4282C292.668 72.7412 292.799 71.9483 292.799 71.0496C292.799 70.1612 292.67 69.3838 292.412 68.7175C292.154 68.046 291.771 67.5243 291.265 67.1524C290.759 66.7753 290.134 66.5868 289.39 66.5868C288.615 66.5868 287.97 66.7856 287.453 67.1834C286.942 67.5759 286.557 68.1105 286.299 68.7872C286.046 69.4587 285.919 70.2128 285.919 71.0496C285.919 71.8967 286.048 72.6663 286.307 73.3585C286.57 74.0455 286.957 74.593 287.469 75.001C287.985 75.4039 288.626 75.6054 289.39 75.6054ZM109.165 90.1322V106H107.243V90.1322H109.165ZM120.763 96.7645L119.12 97.2293C119.017 96.9556 118.864 96.6896 118.663 96.4313C118.467 96.1679 118.198 95.9509 117.857 95.7805C117.516 95.61 117.08 95.5248 116.548 95.5248C115.82 95.5248 115.213 95.6927 114.727 96.0284C114.247 96.359 114.007 96.78 114.007 97.2913C114.007 97.7459 114.172 98.1049 114.502 98.3683C114.833 98.6317 115.349 98.8512 116.052 99.0269L117.818 99.4607C118.883 99.719 119.675 100.114 120.197 100.646C120.719 101.173 120.98 101.852 120.98 102.684C120.98 103.366 120.783 103.975 120.391 104.512C120.003 105.05 119.461 105.473 118.764 105.783C118.066 106.093 117.255 106.248 116.331 106.248C115.117 106.248 114.112 105.985 113.317 105.458C112.521 104.931 112.018 104.161 111.806 103.149L113.542 102.715C113.707 103.355 114.019 103.836 114.479 104.156C114.944 104.476 115.551 104.636 116.3 104.636C117.152 104.636 117.829 104.456 118.33 104.094C118.836 103.727 119.089 103.288 119.089 102.777C119.089 102.364 118.945 102.018 118.655 101.739C118.366 101.455 117.922 101.243 117.323 101.103L115.339 100.638C114.249 100.38 113.449 99.9799 112.937 99.4375C112.431 98.89 112.178 98.2056 112.178 97.3843C112.178 96.7128 112.367 96.1188 112.744 95.6023C113.126 95.0857 113.645 94.6803 114.301 94.3858C114.962 94.0914 115.711 93.9442 116.548 93.9442C117.726 93.9442 118.65 94.2025 119.322 94.719C119.998 95.2355 120.479 95.9174 120.763 96.7645ZM123.296 106V94.0992H125.062V95.8967H125.186C125.403 95.3079 125.796 94.8301 126.364 94.4633C126.932 94.0966 127.573 93.9132 128.285 93.9132C128.42 93.9132 128.588 93.9158 128.789 93.921C128.99 93.9261 129.143 93.9339 129.246 93.9442V95.8037C129.184 95.7882 129.042 95.765 128.82 95.734C128.603 95.6978 128.373 95.6798 128.13 95.6798C127.552 95.6798 127.035 95.8011 126.581 96.0439C126.131 96.2815 125.775 96.6121 125.512 97.0356C125.253 97.454 125.124 97.9318 125.124 98.469V106H123.296ZM134.479 106.279C133.725 106.279 133.041 106.137 132.426 105.853C131.811 105.564 131.323 105.148 130.962 104.605C130.6 104.058 130.419 103.397 130.419 102.622C130.419 101.94 130.554 101.387 130.822 100.964C131.091 100.535 131.45 100.199 131.899 99.9566C132.349 99.7138 132.845 99.5331 133.387 99.4143C133.934 99.2903 134.485 99.1921 135.037 99.1198C135.76 99.0269 136.347 98.9571 136.796 98.9106C137.251 98.859 137.581 98.7738 137.788 98.655C137.999 98.5362 138.105 98.3295 138.105 98.0351V97.9731C138.105 97.2087 137.896 96.6147 137.478 96.1911C137.065 95.7676 136.437 95.5558 135.595 95.5558C134.722 95.5558 134.038 95.7469 133.542 96.1291C133.046 96.5114 132.697 96.9194 132.496 97.3533L130.76 96.7335C131.07 96.0103 131.483 95.4473 132 95.0444C132.522 94.6364 133.09 94.3523 133.705 94.1921C134.324 94.0269 134.934 93.9442 135.533 93.9442C135.915 93.9442 136.354 93.9907 136.85 94.0837C137.351 94.1715 137.834 94.3549 138.299 94.6338C138.769 94.9127 139.159 95.3337 139.469 95.8967C139.779 96.4597 139.934 97.2138 139.934 98.1591V106H138.105V104.388H138.012C137.888 104.647 137.682 104.923 137.393 105.217C137.103 105.512 136.719 105.762 136.238 105.969C135.758 106.176 135.171 106.279 134.479 106.279ZM134.758 104.636C135.481 104.636 136.091 104.494 136.587 104.21C137.088 103.926 137.465 103.559 137.718 103.11C137.976 102.661 138.105 102.188 138.105 101.692V100.019C138.028 100.112 137.857 100.197 137.594 100.274C137.336 100.347 137.036 100.411 136.695 100.468C136.36 100.52 136.032 100.566 135.711 100.607C135.396 100.644 135.141 100.675 134.944 100.7C134.469 100.762 134.025 100.863 133.612 101.003C133.204 101.137 132.873 101.341 132.62 101.615C132.372 101.883 132.248 102.25 132.248 102.715C132.248 103.35 132.483 103.831 132.953 104.156C133.428 104.476 134.03 104.636 134.758 104.636ZM147.825 106.248C146.678 106.248 145.689 105.995 144.857 105.489C144.031 104.977 143.393 104.264 142.943 103.35C142.499 102.431 142.277 101.362 142.277 100.143C142.277 98.9236 142.499 97.8492 142.943 96.9194C143.393 95.9845 144.018 95.2562 144.818 94.7345C145.624 94.2076 146.564 93.9442 147.639 93.9442C148.259 93.9442 148.871 94.0475 149.475 94.2541C150.079 94.4607 150.629 94.7965 151.125 95.2614C151.621 95.7211 152.016 96.3306 152.311 97.0899C152.605 97.8492 152.752 98.7841 152.752 99.8946V100.669H143.579V99.0888H150.893C150.893 98.4174 150.759 97.8182 150.49 97.2913C150.226 96.7645 149.849 96.3487 149.359 96.0439C148.873 95.7392 148.3 95.5868 147.639 95.5868C146.91 95.5868 146.28 95.7676 145.748 96.1291C145.221 96.4855 144.816 96.9504 144.532 97.5238C144.248 98.0971 144.106 98.7118 144.106 99.3678V100.421C144.106 101.32 144.261 102.082 144.57 102.707C144.886 103.327 145.322 103.8 145.88 104.125C146.438 104.445 147.086 104.605 147.825 104.605C148.305 104.605 148.739 104.538 149.126 104.404C149.519 104.264 149.857 104.058 150.141 103.784C150.425 103.505 150.645 103.159 150.8 102.746L152.566 103.242C152.38 103.841 152.068 104.368 151.629 104.822C151.19 105.272 150.647 105.623 150.002 105.876C149.356 106.124 148.63 106.248 147.825 106.248ZM156.926 90.1322V106H155.097V90.1322H156.926ZM159.839 106V94.0992H161.667V106H159.839ZM160.768 92.1157C160.412 92.1157 160.105 91.9943 159.846 91.7515C159.593 91.5088 159.467 91.2169 159.467 90.876C159.467 90.5351 159.593 90.2433 159.846 90.0005C160.105 89.7577 160.412 89.6364 160.768 89.6364C161.125 89.6364 161.43 89.7577 161.683 90.0005C161.941 90.2433 162.07 90.5351 162.07 90.876C162.07 91.2169 161.941 91.5088 161.683 91.7515C161.43 91.9943 161.125 92.1157 160.768 92.1157ZM183.296 95.0909H181.375C181.261 94.5382 181.062 94.0527 180.778 93.6343C180.499 93.2159 180.158 92.8647 179.756 92.5806C179.358 92.2913 178.916 92.0744 178.431 91.9298C177.945 91.7851 177.439 91.7128 176.912 91.7128C175.951 91.7128 175.081 91.9556 174.301 92.4411C173.526 92.9267 172.909 93.642 172.449 94.5873C171.995 95.5325 171.767 96.6921 171.767 98.0661C171.767 99.4401 171.995 100.6 172.449 101.545C172.909 102.49 173.526 103.206 174.301 103.691C175.081 104.177 175.951 104.419 176.912 104.419C177.439 104.419 177.945 104.347 178.431 104.202C178.916 104.058 179.358 103.843 179.756 103.559C180.158 103.27 180.499 102.916 180.778 102.498C181.062 102.074 181.261 101.589 181.375 101.041H183.296C183.152 101.852 182.888 102.578 182.506 103.218C182.124 103.859 181.649 104.404 181.08 104.853C180.512 105.298 179.874 105.636 179.167 105.868C178.464 106.101 177.713 106.217 176.912 106.217C175.559 106.217 174.355 105.886 173.302 105.225C172.248 104.564 171.419 103.624 170.814 102.405C170.21 101.186 169.908 99.7397 169.908 98.0661C169.908 96.3926 170.21 94.9463 170.814 93.7273C171.419 92.5083 172.248 91.5682 173.302 90.907C174.355 90.2459 175.559 89.9153 176.912 89.9153C177.713 89.9153 178.464 90.0315 179.167 90.2639C179.874 90.4964 180.512 90.8373 181.08 91.2867C181.649 91.7309 182.124 92.2732 182.506 92.9137C182.888 93.5491 183.152 94.2748 183.296 95.0909ZM190.552 106.248C189.477 106.248 188.535 105.992 187.724 105.481C186.918 104.97 186.288 104.254 185.833 103.335C185.384 102.415 185.159 101.341 185.159 100.112C185.159 98.8719 185.384 97.7898 185.833 96.8652C186.288 95.9406 186.918 95.2226 187.724 94.7113C188.535 94.1999 189.477 93.9442 190.552 93.9442C191.626 93.9442 192.566 94.1999 193.372 94.7113C194.183 95.2226 194.813 95.9406 195.263 96.8652C195.717 97.7898 195.944 98.8719 195.944 100.112C195.944 101.341 195.717 102.415 195.263 103.335C194.813 104.254 194.183 104.97 193.372 105.481C192.566 105.992 191.626 106.248 190.552 106.248ZM190.552 104.605C191.368 104.605 192.039 104.396 192.566 103.978C193.093 103.559 193.483 103.009 193.736 102.327C193.989 101.646 194.116 100.907 194.116 100.112C194.116 99.3161 193.989 98.5749 193.736 97.8879C193.483 97.2009 193.093 96.6457 192.566 96.2221C192.039 95.7986 191.368 95.5868 190.552 95.5868C189.736 95.5868 189.064 95.7986 188.537 96.2221C188.01 96.6457 187.62 97.2009 187.367 97.8879C187.114 98.5749 186.988 99.3161 186.988 100.112C186.988 100.907 187.114 101.646 187.367 102.327C187.62 103.009 188.01 103.559 188.537 103.978C189.064 104.396 189.736 104.605 190.552 104.605ZM198.299 106V94.0992H200.066V95.9587H200.221C200.469 95.3233 200.869 94.8301 201.422 94.4788C201.974 94.1224 202.638 93.9442 203.413 93.9442C204.198 93.9442 204.851 94.1224 205.373 94.4788C205.9 94.8301 206.311 95.3233 206.605 95.9587H206.729C207.034 95.344 207.491 94.8559 208.1 94.4943C208.71 94.1276 209.441 93.9442 210.293 93.9442C211.357 93.9442 212.227 94.2774 212.904 94.9437C213.581 95.6049 213.919 96.6353 213.919 98.0351V106H212.09V98.0351C212.09 97.157 211.85 96.5294 211.37 96.1524C210.89 95.7753 210.324 95.5868 209.673 95.5868C208.836 95.5868 208.188 95.8399 207.728 96.3461C207.269 96.8471 207.039 97.4824 207.039 98.2521V106H205.179V97.8492C205.179 97.1725 204.96 96.6276 204.521 96.2144C204.082 95.796 203.516 95.5868 202.824 95.5868C202.349 95.5868 201.905 95.7133 201.491 95.9664C201.083 96.2195 200.753 96.5708 200.5 97.0201C200.252 97.4644 200.128 97.9783 200.128 98.562V106H198.299ZM216.826 110.463V94.0992H218.592V95.9897H218.809C218.944 95.7831 219.13 95.5196 219.367 95.1994C219.61 94.874 219.956 94.5847 220.405 94.3316C220.86 94.0733 221.475 93.9442 222.249 93.9442C223.251 93.9442 224.135 94.1947 224.899 94.6958C225.664 95.1968 226.26 95.907 226.689 96.8264C227.118 97.7459 227.332 98.8306 227.332 100.081C227.332 101.341 227.118 102.433 226.689 103.358C226.26 104.277 225.666 104.99 224.907 105.496C224.148 105.997 223.272 106.248 222.28 106.248C221.516 106.248 220.904 106.121 220.444 105.868C219.984 105.61 219.631 105.318 219.383 104.993C219.135 104.662 218.944 104.388 218.809 104.171H218.654V110.463H216.826ZM218.623 100.05C218.623 100.948 218.755 101.741 219.019 102.428C219.282 103.11 219.667 103.645 220.173 104.032C220.679 104.414 221.299 104.605 222.032 104.605C222.797 104.605 223.435 104.404 223.946 104.001C224.463 103.593 224.85 103.045 225.108 102.358C225.372 101.666 225.504 100.897 225.504 100.05C225.504 99.2128 225.374 98.4587 225.116 97.7872C224.863 97.1105 224.478 96.5759 223.962 96.1834C223.45 95.7856 222.807 95.5868 222.032 95.5868C221.289 95.5868 220.664 95.7753 220.157 96.1524C219.651 96.5243 219.269 97.046 219.011 97.7175C218.753 98.3838 218.623 99.1612 218.623 100.05ZM234.675 106.248C233.528 106.248 232.539 105.995 231.707 105.489C230.881 104.977 230.243 104.264 229.793 103.35C229.349 102.431 229.127 101.362 229.127 100.143C229.127 98.9236 229.349 97.8492 229.793 96.9194C230.243 95.9845 230.868 95.2562 231.668 94.7345C232.474 94.2076 233.414 93.9442 234.489 93.9442C235.109 93.9442 235.721 94.0475 236.325 94.2541C236.929 94.4607 237.479 94.7965 237.975 95.2614C238.471 95.7211 238.866 96.3306 239.161 97.0899C239.455 97.8492 239.602 98.7841 239.602 99.8946V100.669H230.429V99.0888H237.743C237.743 98.4174 237.609 97.8182 237.34 97.2913C237.076 96.7645 236.699 96.3487 236.209 96.0439C235.723 95.7392 235.15 95.5868 234.489 95.5868C233.76 95.5868 233.13 95.7676 232.598 96.1291C232.071 96.4855 231.666 96.9504 231.382 97.5238C231.098 98.0971 230.956 98.7118 230.956 99.3678V100.421C230.956 101.32 231.111 102.082 231.42 102.707C231.736 103.327 232.172 103.8 232.73 104.125C233.288 104.445 233.936 104.605 234.675 104.605C235.155 104.605 235.589 104.538 235.976 104.404C236.369 104.264 236.707 104.058 236.991 103.784C237.275 103.505 237.495 103.159 237.65 102.746L239.416 103.242C239.23 103.841 238.918 104.368 238.479 104.822C238.04 105.272 237.497 105.623 236.852 105.876C236.206 106.124 235.48 106.248 234.675 106.248ZM247.123 94.0992V95.6488H240.956V94.0992H247.123ZM242.753 91.2479H244.582V102.591C244.582 103.107 244.657 103.495 244.806 103.753C244.961 104.006 245.158 104.177 245.395 104.264C245.638 104.347 245.894 104.388 246.162 104.388C246.364 104.388 246.529 104.378 246.658 104.357C246.787 104.332 246.891 104.311 246.968 104.295L247.34 105.938C247.216 105.985 247.043 106.031 246.821 106.077C246.599 106.129 246.317 106.155 245.976 106.155C245.46 106.155 244.954 106.044 244.458 105.822C243.967 105.6 243.559 105.261 243.234 104.807C242.913 104.352 242.753 103.779 242.753 103.087V91.2479ZM249.437 106V94.0992H251.266V106H249.437ZM250.367 92.1157C250.011 92.1157 249.703 91.9943 249.445 91.7515C249.192 91.5088 249.065 91.2169 249.065 90.876C249.065 90.5351 249.192 90.2433 249.445 90.0005C249.703 89.7577 250.011 89.6364 250.367 89.6364C250.723 89.6364 251.028 89.7577 251.281 90.0005C251.539 90.2433 251.669 90.5351 251.669 90.876C251.669 91.2169 251.539 91.5088 251.281 91.7515C251.028 91.9943 250.723 92.1157 250.367 92.1157ZM259.354 94.0992V95.6488H253.187V94.0992H259.354ZM254.984 91.2479H256.813V102.591C256.813 103.107 256.888 103.495 257.037 103.753C257.192 104.006 257.389 104.177 257.626 104.264C257.869 104.347 258.125 104.388 258.393 104.388C258.595 104.388 258.76 104.378 258.889 104.357C259.018 104.332 259.122 104.311 259.199 104.295L259.571 105.938C259.447 105.985 259.274 106.031 259.052 106.077C258.83 106.129 258.548 106.155 258.207 106.155C257.691 106.155 257.185 106.044 256.689 105.822C256.198 105.6 255.79 105.261 255.465 104.807C255.144 104.352 254.984 103.779 254.984 103.087V91.2479ZM261.668 106V94.0992H263.497V106H261.668ZM262.598 92.1157C262.242 92.1157 261.934 91.9943 261.676 91.7515C261.423 91.5088 261.296 91.2169 261.296 90.876C261.296 90.5351 261.423 90.2433 261.676 90.0005C261.934 89.7577 262.242 89.6364 262.598 89.6364C262.954 89.6364 263.259 89.7577 263.512 90.0005C263.77 90.2433 263.9 90.5351 263.9 90.876C263.9 91.2169 263.77 91.5088 263.512 91.7515C263.259 91.9943 262.954 92.1157 262.598 92.1157ZM271.244 106.248C270.17 106.248 269.227 105.992 268.416 105.481C267.61 104.97 266.98 104.254 266.526 103.335C266.076 102.415 265.852 101.341 265.852 100.112C265.852 98.8719 266.076 97.7898 266.526 96.8652C266.98 95.9406 267.61 95.2226 268.416 94.7113C269.227 94.1999 270.17 93.9442 271.244 93.9442C272.318 93.9442 273.259 94.1999 274.064 94.7113C274.875 95.2226 275.505 95.9406 275.955 96.8652C276.409 97.7898 276.637 98.8719 276.637 100.112C276.637 101.341 276.409 102.415 275.955 103.335C275.505 104.254 274.875 104.97 274.064 105.481C273.259 105.992 272.318 106.248 271.244 106.248ZM271.244 104.605C272.06 104.605 272.732 104.396 273.259 103.978C273.785 103.559 274.175 103.009 274.429 102.327C274.682 101.646 274.808 100.907 274.808 100.112C274.808 99.3161 274.682 98.5749 274.429 97.8879C274.175 97.2009 273.785 96.6457 273.259 96.2221C272.732 95.7986 272.06 95.5868 271.244 95.5868C270.428 95.5868 269.757 95.7986 269.23 96.2221C268.703 96.6457 268.313 97.2009 268.06 97.8879C267.807 98.5749 267.68 99.3161 267.68 100.112C267.68 100.907 267.807 101.646 268.06 102.327C268.313 103.009 268.703 103.559 269.23 103.978C269.757 104.396 270.428 104.605 271.244 104.605ZM280.82 98.8409V106H278.991V94.0992H280.758V95.9587H280.913C281.192 95.3543 281.615 94.8688 282.184 94.5021C282.752 94.1302 283.485 93.9442 284.384 93.9442C285.19 93.9442 285.895 94.1095 286.499 94.4401C287.104 94.7655 287.574 95.2614 287.909 95.9277C288.245 96.5888 288.413 97.4256 288.413 98.438V106H286.584V98.562C286.584 97.6271 286.342 96.8988 285.856 96.3771C285.371 95.8502 284.704 95.5868 283.857 95.5868C283.274 95.5868 282.752 95.7133 282.292 95.9664C281.838 96.2195 281.479 96.5888 281.215 97.0744C280.952 97.5599 280.82 98.1488 280.82 98.8409Z" fill="white"/>
<path d="M121.433 152H111.641V123.105H121.63C124.499 123.105 126.963 123.684 129.023 124.841C131.092 125.988 132.682 127.639 133.792 129.793C134.902 131.947 135.457 134.524 135.457 137.525C135.457 140.534 134.897 143.121 133.778 145.284C132.668 147.448 131.064 149.108 128.967 150.265C126.879 151.422 124.367 152 121.433 152ZM116.876 147.471H121.179C123.192 147.471 124.871 147.104 126.216 146.371C127.561 145.628 128.572 144.522 129.249 143.055C129.926 141.578 130.265 139.735 130.265 137.525C130.265 135.314 129.926 133.48 129.249 132.022C128.572 130.555 127.57 129.459 126.244 128.735C124.927 128.001 123.29 127.634 121.334 127.634H116.876V147.471ZM165.454 137.553C165.454 140.666 164.871 143.333 163.705 145.552C162.548 147.763 160.968 149.456 158.964 150.631C156.97 151.807 154.708 152.395 152.178 152.395C149.648 152.395 147.381 151.807 145.378 150.631C143.384 149.446 141.803 147.749 140.637 145.538C139.48 143.318 138.902 140.657 138.902 137.553C138.902 134.439 139.48 131.778 140.637 129.567C141.803 127.347 143.384 125.65 145.378 124.474C147.381 123.298 149.648 122.71 152.178 122.71C154.708 122.71 156.97 123.298 158.964 124.474C160.968 125.65 162.548 127.347 163.705 129.567C164.871 131.778 165.454 134.439 165.454 137.553ZM160.192 137.553C160.192 135.361 159.848 133.513 159.162 132.008C158.485 130.494 157.544 129.351 156.34 128.58C155.136 127.799 153.749 127.409 152.178 127.409C150.607 127.409 149.22 127.799 148.016 128.58C146.812 129.351 145.867 130.494 145.18 132.008C144.503 133.513 144.164 135.361 144.164 137.553C144.164 139.744 144.503 141.597 145.18 143.112C145.867 144.616 146.812 145.759 148.016 146.54C149.22 147.311 150.607 147.697 152.178 147.697C153.749 147.697 155.136 147.311 156.34 146.54C157.544 145.759 158.485 144.616 159.162 143.112C159.848 141.597 160.192 139.744 160.192 137.553ZM194.341 132.855H189.064C188.914 131.989 188.636 131.223 188.232 130.555C187.827 129.878 187.324 129.304 186.722 128.834C186.12 128.363 185.433 128.011 184.662 127.775C183.9 127.531 183.077 127.409 182.193 127.409C180.622 127.409 179.23 127.804 178.017 128.594C176.804 129.374 175.854 130.522 175.167 132.036C174.48 133.541 174.137 135.38 174.137 137.553C174.137 139.763 174.48 141.625 175.167 143.14C175.863 144.645 176.813 145.783 178.017 146.554C179.23 147.316 180.618 147.697 182.179 147.697C183.044 147.697 183.853 147.584 184.606 147.358C185.368 147.123 186.05 146.78 186.652 146.328C187.263 145.877 187.776 145.322 188.189 144.663C188.613 144.005 188.904 143.253 189.064 142.406L194.341 142.434C194.143 143.808 193.715 145.096 193.057 146.3C192.408 147.504 191.557 148.567 190.503 149.489C189.45 150.401 188.218 151.116 186.807 151.633C185.396 152.141 183.83 152.395 182.109 152.395C179.569 152.395 177.302 151.807 175.308 150.631C173.314 149.456 171.743 147.758 170.596 145.538C169.448 143.318 168.875 140.657 168.875 137.553C168.875 134.439 169.453 131.778 170.61 129.567C171.767 127.347 173.342 125.65 175.336 124.474C177.33 123.298 179.588 122.71 182.109 122.71C183.717 122.71 185.212 122.936 186.595 123.388C187.978 123.839 189.21 124.502 190.292 125.377C191.373 126.242 192.262 127.305 192.958 128.566C193.664 129.816 194.124 131.246 194.341 132.855ZM201.701 152H196.114L206.286 123.105H212.748L222.935 152H217.347L209.63 129.031H209.404L201.701 152ZM201.884 140.671H217.122V144.875H201.884V140.671ZM226.514 123.105L234.034 145.849H234.33L241.836 123.105H247.592L237.405 152H230.944L220.771 123.105H226.514ZM255.837 123.105V152H250.603V123.105H255.837ZM264.577 123.105L272.097 145.849H272.393L279.899 123.105H285.655L275.469 152H269.007L258.835 123.105H264.577Z" fill="white"/>
<path d="M163.447 165.019V191.114H161.897V165.019H163.447ZM173.152 186V184.605L178.389 178.872C179.004 178.2 179.51 177.617 179.908 177.121C180.306 176.62 180.6 176.15 180.791 175.711C180.987 175.267 181.086 174.802 181.086 174.316C181.086 173.758 180.951 173.275 180.683 172.867C180.419 172.459 180.058 172.144 179.598 171.922C179.138 171.7 178.622 171.589 178.048 171.589C177.439 171.589 176.907 171.715 176.452 171.968C176.003 172.216 175.654 172.565 175.406 173.014C175.164 173.464 175.042 173.991 175.042 174.595H173.214C173.214 173.665 173.428 172.849 173.857 172.147C174.285 171.444 174.869 170.897 175.608 170.504C176.352 170.112 177.186 169.915 178.11 169.915C179.04 169.915 179.864 170.112 180.582 170.504C181.3 170.897 181.863 171.426 182.271 172.092C182.679 172.759 182.883 173.5 182.883 174.316C182.883 174.9 182.777 175.471 182.565 176.028C182.359 176.581 181.997 177.198 181.481 177.88C180.969 178.557 180.259 179.383 179.35 180.36L175.786 184.171V184.295H183.162V186H173.152ZM191.101 186.217C189.934 186.217 188.939 185.899 188.118 185.264C187.297 184.623 186.669 183.696 186.235 182.482C185.802 181.263 185.585 179.791 185.585 178.066C185.585 176.351 185.802 174.887 186.235 173.673C186.675 172.454 187.305 171.524 188.126 170.884C188.952 170.238 189.944 169.915 191.101 169.915C192.258 169.915 193.247 170.238 194.069 170.884C194.895 171.524 195.525 172.454 195.959 173.673C196.398 174.887 196.618 176.351 196.618 178.066C196.618 179.791 196.401 181.263 195.967 182.482C195.533 183.696 194.905 184.623 194.084 185.264C193.263 185.899 192.269 186.217 191.101 186.217ZM191.101 184.512C192.258 184.512 193.157 183.955 193.797 182.839C194.438 181.723 194.758 180.132 194.758 178.066C194.758 176.692 194.611 175.522 194.317 174.556C194.027 173.59 193.609 172.854 193.061 172.348C192.519 171.842 191.866 171.589 191.101 171.589C189.954 171.589 189.058 172.154 188.413 173.286C187.767 174.412 187.444 176.005 187.444 178.066C187.444 179.44 187.589 180.607 187.878 181.568C188.167 182.529 188.583 183.26 189.125 183.761C189.673 184.262 190.332 184.512 191.101 184.512ZM199.126 186V184.605L204.363 178.872C204.978 178.2 205.484 177.617 205.882 177.121C206.279 176.62 206.574 176.15 206.765 175.711C206.961 175.267 207.059 174.802 207.059 174.316C207.059 173.758 206.925 173.275 206.657 172.867C206.393 172.459 206.032 172.144 205.572 171.922C205.112 171.7 204.596 171.589 204.022 171.589C203.413 171.589 202.881 171.715 202.426 171.968C201.977 172.216 201.628 172.565 201.38 173.014C201.137 173.464 201.016 173.991 201.016 174.595H199.188C199.188 173.665 199.402 172.849 199.831 172.147C200.259 171.444 200.843 170.897 201.582 170.504C202.325 170.112 203.16 169.915 204.084 169.915C205.014 169.915 205.838 170.112 206.556 170.504C207.274 170.897 207.837 171.426 208.245 172.092C208.653 172.759 208.857 173.5 208.857 174.316C208.857 174.9 208.751 175.471 208.539 176.028C208.333 176.581 207.971 177.198 207.455 177.88C206.943 178.557 206.233 179.383 205.324 180.36L201.76 184.171V184.295H209.136V186H199.126ZM217.075 186.217C215.908 186.217 214.913 185.899 214.092 185.264C213.271 184.623 212.643 183.696 212.209 182.482C211.775 181.263 211.559 179.791 211.559 178.066C211.559 176.351 211.775 174.887 212.209 173.673C212.648 172.454 213.279 171.524 214.1 170.884C214.926 170.238 215.918 169.915 217.075 169.915C218.232 169.915 219.221 170.238 220.042 170.884C220.869 171.524 221.499 172.454 221.933 173.673C222.372 174.887 222.592 176.351 222.592 178.066C222.592 179.791 222.375 181.263 221.941 182.482C221.507 183.696 220.879 184.623 220.058 185.264C219.237 185.899 218.242 186.217 217.075 186.217ZM217.075 184.512C218.232 184.512 219.131 183.955 219.771 182.839C220.412 181.723 220.732 180.132 220.732 178.066C220.732 176.692 220.585 175.522 220.29 174.556C220.001 173.59 219.583 172.854 219.035 172.348C218.493 171.842 217.84 171.589 217.075 171.589C215.928 171.589 215.032 172.154 214.387 173.286C213.741 174.412 213.418 176.005 213.418 178.066C213.418 179.44 213.563 180.607 213.852 181.568C214.141 182.529 214.557 183.26 215.099 183.761C215.647 184.262 216.305 184.512 217.075 184.512ZM233.496 165.019V191.114H231.946V165.019H233.496Z" fill="white"/>
<path d="M347.838 73.6038C350.208 77.1463 352.484 81.5164 351.365 86.1997C347.504 83.9897 344.398 80.3814 341.935 76.8193C339.455 73.2333 336.88 69.42 335.998 65C340.868 66.2457 345.228 69.7037 347.838 73.6038Z" fill="white"/>
<path d="M354.756 95.1908C353.38 91.4902 350.37 88.2635 347.094 86.7585C344.052 85.3629 340.012 83.9064 336.462 85.6948C338.394 89.0871 341.575 91.9415 344.824 93.7369C347.745 95.3511 351.445 97.3068 355.107 96.4662C359.098 95.8549 361.027 91.8818 362.1 88.8763C363.585 84.723 362.57 79.1764 360.035 75.1016C356.54 76.5581 355.474 80.8794 354.744 83.9369C353.911 87.4172 353.888 91.4796 354.756 95.1908Z" fill="white"/>
<path d="M351.887 100.539C354.701 102.546 356.861 106.215 357.325 109.982C357.365 106.208 358.392 102.311 360.041 99.1716C361.55 96.2998 363.655 92.4184 367.4 91.6448C368.871 96.1161 368.395 101.585 366.016 105.205C364.217 107.947 361.431 111.38 357.377 111.288C353.677 111.477 350.482 108.95 347.968 106.841C345.263 104.573 342.823 101.257 341.797 97.6735C345.574 96.5766 349.19 98.6159 351.887 100.539Z" fill="white"/>
<path d="M356.374 124.804C356.786 121.113 355.552 117.122 353.251 114.656C351.036 112.279 347.93 109.688 344.063 110.101C344.141 113.84 346.013 117.405 347.945 120.075C349.744 122.562 352.515 125.638 356.143 126.081C359.915 126.72 363.597 124.411 365.99 121.694C369.067 118.198 370.901 113.507 370.535 108.808C366.659 108.904 363.724 112.249 361.553 114.779C359.211 117.508 357.293 121.099 356.374 124.804Z" fill="white"/>
<path d="M350.882 128.165C352.716 131.811 353.065 136.148 351.65 139.966C353.737 136.037 356.791 132.86 360.024 129.924C362.962 127.256 367.195 124.446 371.454 124.978C370.641 130.245 367.42 135.707 363.1 138.514C359.628 140.769 355.421 143.002 351.001 141.316C347.364 140.033 345.055 136.371 343.636 133.01C342.134 129.454 341.133 125.355 341.834 121.465C345.822 121.822 349.129 124.679 350.882 128.165Z" fill="white"/>
<path d="M343.175 154.019C345.482 150.507 346.287 146.11 345.344 141.983C344.45 138.074 341.731 134.504 337.766 133.394C336.113 137.16 336.085 141.541 336.684 145.514C337.244 149.19 338.611 153.48 342.007 155.53C346.203 158.191 351.102 156.617 355.125 155.025C360.315 152.972 365.001 148.004 367.193 142.665C362.657 141.227 358.02 143.599 354.24 145.566C350.33 147.601 346.246 150.503 343.175 154.019Z" fill="white"/>
<path d="M325.827 156.913C325.322 160.746 325.331 165.609 328.307 168.562C332.021 172.373 337.779 171.642 342.22 170.807C348.183 169.687 354.896 165.625 358.498 160.215C354.109 157.794 348.734 159.336 344.386 160.585L344.135 160.656C339.282 162.049 334.109 164.293 329.78 167.362C333.235 164.245 335.752 159.67 335.879 155.057C335.994 150.93 334.207 146.512 330.354 144.542C327.658 148.072 326.395 152.607 325.827 156.913Z" fill="white"/>
<path d="M322.497 184.994C317.733 184.894 311.196 184.325 308.531 179.404L308.494 179.336C306.366 175.176 308.529 170.314 310.253 166.715C312.303 162.437 315.103 158.078 319.106 154.949C322.947 158.263 322.575 163 321.43 167.116C320.066 172.011 315.354 176.181 310.475 178.555C316.124 176.454 322.292 175.194 328.16 174.825L328.757 174.787C333.472 174.484 339.608 174.089 343.36 177.541C337.676 182.364 329.608 185.144 322.497 184.994Z" fill="white"/>
</svg>
