<svg width="475" height="250" viewBox="0 0 475 250" fill="none" xmlns="http://www.w3.org/2000/svg">
<path d="M44.1277 86.1862C43.0118 81.5024 45.2914 77.1344 47.6659 73.5942C50.2797 69.6967 54.6408 66.2422 59.5114 65C58.6265 69.4188 56.0476 73.2303 53.5653 76.8138C51.0997 80.3739 47.99 83.9796 44.1277 86.1862Z" fill="white"/>
<path d="M40.7293 95.1708C41.6004 91.4616 41.5811 87.401 40.7518 83.9219C40.0226 80.8643 38.9615 76.5422 35.4692 75.0837C32.9307 79.1556 31.9102 84.7007 33.3897 88.8556C34.4594 91.861 36.3832 95.8345 40.373 96.4496C44.034 97.2935 47.736 95.3406 50.6597 93.7282C53.9107 91.9357 57.0951 89.0837 59.0299 85.6931C55.4807 83.9017 51.4388 85.3555 48.398 86.7487C45.1202 88.2507 42.109 91.4732 40.7293 95.1708Z" fill="white"/>
<path d="M29.4561 105.18C31.2565 107.926 34.0424 111.367 38.1045 111.269C41.7984 111.453 44.9898 108.933 47.5029 106.829C50.2095 104.562 52.6526 101.249 53.684 97.666C49.9059 96.5668 46.2887 98.6031 43.5913 100.524C40.7746 102.53 38.6083 106.201 38.1429 109.97C38.108 106.194 37.0858 102.294 35.438 99.1515C33.9314 96.2791 31.832 92.3963 28.0865 91.6201C26.6108 96.0896 27.0817 101.558 29.4561 105.18Z" fill="white"/>
<path d="M39.3056 126.062C35.5356 126.694 31.8582 124.384 29.4699 121.667C26.395 118.169 24.5655 113.476 24.9386 108.779C28.8116 108.877 31.7448 112.225 33.9129 114.756C36.2478 117.483 38.1609 121.07 39.0787 124.771C38.675 121.083 39.9132 117.101 42.2115 114.64C44.43 112.265 47.5377 109.676 51.4043 110.091C51.321 113.831 49.4465 117.394 47.5132 120.062C45.7111 122.548 42.9349 125.624 39.3056 126.062Z" fill="white"/>
<path d="M32.3419 138.488C35.8141 140.749 40.0252 142.986 44.4509 141.293C48.0817 140.008 50.3901 136.354 51.8099 132.999C53.3139 129.445 54.3184 125.346 53.623 121.456C49.6332 121.81 46.3249 124.665 44.5677 128.149C42.7307 131.792 42.3784 136.128 43.7895 139.947C41.7045 136.018 38.6554 132.839 35.4254 129.901C32.4892 127.231 28.2599 124.418 24 124.947C24.8105 130.214 28.0243 135.677 32.3419 138.488Z" fill="white"/>
<path d="M53.3943 155.53C56.8111 153.488 58.1862 149.19 58.7482 145.507C59.354 141.535 59.328 137.155 57.6784 133.387C53.7144 134.494 50.9933 138.062 50.0949 141.97C49.1456 146.098 49.9466 150.499 52.2557 154.014C49.1863 150.493 45.1049 147.585 41.1936 145.546C37.4155 143.577 32.7804 141.202 28.2432 142.636C30.4311 147.976 35.1114 152.947 40.2986 155.004C44.3157 156.596 49.2027 158.171 53.3943 155.53Z" fill="white"/>
<path d="M69.5932 156.913C70.0946 160.747 70.0804 165.609 67.1039 168.56C63.3844 172.367 57.628 171.633 53.1882 170.795C47.2276 169.67 40.518 165.604 36.9219 160.191C41.3138 157.773 46.6853 159.32 51.0334 160.572L51.2817 160.643C56.1353 162.04 61.3075 164.289 65.6331 167.362C62.1811 164.243 59.666 159.665 59.5428 155.05C59.4321 150.923 61.2236 146.507 65.0786 144.54C67.77 148.072 69.0303 152.607 69.5932 156.913Z" fill="white"/>
<path d="M86.8678 179.415C89.0598 175.242 86.888 170.345 85.1574 166.726C83.1114 162.447 80.3159 158.086 76.3152 154.954C72.4737 158.265 72.839 163.002 73.9811 167.119C75.3392 172.014 80.0475 176.187 84.923 178.565C79.2765 176.459 73.1098 175.195 67.2427 174.822L66.6484 174.784C61.935 174.477 55.7989 174.077 52.043 177.526C57.7218 182.354 65.788 185.139 72.8973 184.995C77.6615 184.898 84.1981 184.334 86.8678 179.415Z" fill="white"/>
<path d="M160.537 61H155.935L164.314 37.1983H169.637L178.028 61H173.426L167.069 42.0795H166.883L160.537 61ZM160.688 51.6676H173.24V55.1309H160.688V51.6676ZM195.513 37.1983H199.824V52.7484C199.824 54.453 199.421 55.9522 198.616 57.2461C197.818 58.54 196.694 59.5511 195.245 60.2794C193.796 61 192.103 61.3603 190.166 61.3603C188.222 61.3603 186.525 61 185.076 60.2794C183.627 59.5511 182.504 58.54 181.706 57.2461C180.908 55.9522 180.509 54.453 180.509 52.7484V37.1983H184.82V52.3882C184.82 53.3799 185.037 54.2632 185.471 55.038C185.913 55.8128 186.533 56.421 187.331 56.8626C188.129 57.2965 189.074 57.5134 190.166 57.5134C191.259 57.5134 192.204 57.2965 193.002 56.8626C193.808 56.421 194.428 55.8128 194.862 55.038C195.296 54.2632 195.513 53.3799 195.513 52.3882V37.1983ZM211.922 61H203.856V37.1983H212.085C214.448 37.1983 216.478 37.6748 218.174 38.6278C219.879 39.5731 221.188 40.9328 222.103 42.7071C223.017 44.4814 223.474 46.6043 223.474 49.0759C223.474 51.5553 223.013 53.6859 222.091 55.468C221.177 57.25 219.856 58.6175 218.128 59.5705C216.408 60.5235 214.339 61 211.922 61ZM208.168 57.2694H211.713C213.371 57.2694 214.754 56.9672 215.862 56.3629C216.97 55.7508 217.803 54.8404 218.36 53.6317C218.918 52.4153 219.197 50.8967 219.197 49.0759C219.197 47.2552 218.918 45.7443 218.36 44.5434C217.803 43.3347 216.977 42.4321 215.885 41.8355C214.8 41.2311 213.452 40.929 211.84 40.929H208.168V57.2694ZM231.228 37.1983V61H226.916V37.1983H231.228ZM235.242 61V37.1983H250.723V40.8128H239.554V47.2745H249.921V50.8889H239.554V57.3856H250.816V61H235.242ZM274.027 37.1983V61H270.192L258.976 44.7874H258.779V61H254.467V37.1983H258.326L269.529 53.4225H269.738V37.1983H274.027ZM298.444 45.2291H294.097C293.973 44.5163 293.745 43.8848 293.411 43.3347C293.078 42.7769 292.664 42.3042 292.168 41.9168C291.672 41.5294 291.106 41.2389 290.471 41.0452C289.843 40.8437 289.166 40.743 288.437 40.743C287.143 40.743 285.997 41.0684 284.997 41.7193C283.998 42.3623 283.215 43.3076 282.649 44.555C282.084 45.7947 281.801 47.3094 281.801 49.0992C281.801 50.9199 282.084 52.454 282.649 53.7014C283.223 54.9411 284.005 55.8786 284.997 56.5139C285.997 57.1415 287.139 57.4553 288.426 57.4553C289.138 57.4553 289.805 57.3623 290.425 57.1764C291.052 56.9827 291.614 56.6999 292.11 56.328C292.613 55.9561 293.036 55.499 293.377 54.9566C293.725 54.4143 293.965 53.7944 294.097 53.0971L298.444 53.1204C298.281 54.2515 297.928 55.313 297.386 56.3048C296.851 57.2965 296.15 58.172 295.283 58.9313C294.415 59.6829 293.4 60.2717 292.238 60.6978C291.075 61.1162 289.785 61.3254 288.367 61.3254C286.276 61.3254 284.408 60.8412 282.766 59.8727C281.123 58.9042 279.829 57.5057 278.884 55.6772C277.939 53.8487 277.466 51.656 277.466 49.0992C277.466 46.5346 277.943 44.3419 278.896 42.5212C279.849 40.6927 281.146 39.2942 282.789 38.3257C284.432 37.3572 286.291 36.8729 288.367 36.8729C289.692 36.8729 290.924 37.0589 292.063 37.4308C293.202 37.8027 294.217 38.3489 295.108 39.0695C295.999 39.7823 296.731 40.6578 297.305 41.696C297.886 42.7265 298.265 43.9042 298.444 45.2291ZM301.738 61V37.1983H317.218V40.8128H306.049V47.2745H316.416V50.8889H306.049V57.3856H317.311V61H301.738ZM183.494 94H178.891L187.271 70.1983H192.594L200.985 94H196.382L190.025 75.0795H189.839L183.494 94ZM183.645 84.6676H196.196V88.1309H183.645V84.6676ZM206.237 94L199.519 70.1983H204.157L208.445 87.6893H208.666L213.245 70.1983H217.464L222.054 87.7009H222.263L226.552 70.1983H231.189L224.472 94H220.218L215.453 77.2993H215.267L210.49 94H206.237ZM234.344 94H229.741L238.121 70.1983H243.444L251.835 94H247.232L240.875 75.0795H240.689L234.344 94ZM234.495 84.6676H247.046V88.1309H234.495V84.6676ZM254.315 94V70.1983H263.241C265.069 70.1983 266.603 70.516 267.843 71.1513C269.09 71.7867 270.032 72.6777 270.667 73.8244C271.31 74.9633 271.632 76.2921 271.632 77.8107C271.632 79.337 271.306 80.6619 270.655 81.7854C270.012 82.9011 269.063 83.765 267.808 84.3771C266.553 84.9814 265.011 85.2836 263.183 85.2836H256.825V81.704H262.601C263.671 81.704 264.546 81.5568 265.228 81.2624C265.91 80.9602 266.413 80.5225 266.739 79.9491C267.072 79.368 267.239 78.6552 267.239 77.8107C267.239 76.9662 267.072 76.2456 266.739 75.649C266.406 75.0447 265.898 74.5875 265.216 74.2776C264.535 73.96 263.655 73.8011 262.578 73.8011H258.627V94H254.315ZM266.611 83.2149L272.503 94H267.692L261.904 83.2149H266.611ZM283.012 94H274.946V70.1983H283.174C285.537 70.1983 287.567 70.6748 289.264 71.6278C290.969 72.5731 292.278 73.9328 293.192 75.7071C294.107 77.4814 294.564 79.6043 294.564 82.0759C294.564 84.5553 294.103 86.6859 293.181 88.468C292.267 90.25 290.946 91.6175 289.218 92.5705C287.498 93.5235 285.429 94 283.012 94ZM279.258 90.2694H282.802C284.46 90.2694 285.843 89.9672 286.951 89.3629C288.059 88.7508 288.892 87.8404 289.45 86.6317C290.008 85.4153 290.287 83.8967 290.287 82.0759C290.287 80.2552 290.008 78.7443 289.45 77.5434C288.892 76.3347 288.067 75.4321 286.975 74.8355C285.89 74.2311 284.542 73.929 282.93 73.929H279.258V90.2694Z" fill="white"/>
<path d="M120.968 106.313H122.946L127.598 117.674H127.758L132.41 106.313H134.388V120H132.838V109.601H132.704L128.427 120H126.93L122.652 109.601H122.519V120H120.968V106.313ZM148.884 113.156C148.884 114.6 148.623 115.847 148.102 116.899C147.58 117.95 146.865 118.761 145.956 119.332C145.047 119.902 144.009 120.187 142.842 120.187C141.675 120.187 140.637 119.902 139.728 119.332C138.819 118.761 138.104 117.95 137.582 116.899C137.061 115.847 136.8 114.6 136.8 113.156C136.8 111.713 137.061 110.465 137.582 109.414C138.104 108.362 138.819 107.551 139.728 106.981C140.637 106.411 141.675 106.126 142.842 106.126C144.009 106.126 145.047 106.411 145.956 106.981C146.865 107.551 147.58 108.362 148.102 109.414C148.623 110.465 148.884 111.713 148.884 113.156ZM147.28 113.156C147.28 111.971 147.081 110.971 146.685 110.156C146.293 109.34 145.76 108.723 145.088 108.304C144.419 107.886 143.671 107.676 142.842 107.676C142.013 107.676 141.263 107.886 140.59 108.304C139.921 108.723 139.389 109.34 138.992 110.156C138.6 110.971 138.404 111.971 138.404 113.156C138.404 114.342 138.6 115.342 138.992 116.157C139.389 116.972 139.921 117.59 140.59 118.008C141.263 118.427 142.013 118.637 142.842 118.637C143.671 118.637 144.419 118.427 145.088 118.008C145.76 117.59 146.293 116.972 146.685 116.157C147.081 115.342 147.28 114.342 147.28 113.156ZM158.779 109.735C158.699 109.057 158.374 108.532 157.804 108.157C157.233 107.783 156.534 107.596 155.705 107.596C155.099 107.596 154.569 107.694 154.114 107.89C153.664 108.086 153.312 108.356 153.059 108.699C152.809 109.042 152.684 109.432 152.684 109.868C152.684 110.234 152.771 110.548 152.945 110.811C153.123 111.069 153.35 111.285 153.627 111.459C153.903 111.628 154.192 111.768 154.495 111.88C154.798 111.987 155.077 112.074 155.331 112.141L156.721 112.515C157.077 112.608 157.474 112.738 157.911 112.902C158.352 113.067 158.773 113.292 159.174 113.577C159.579 113.858 159.913 114.219 160.176 114.66C160.439 115.101 160.57 115.643 160.57 116.284C160.57 117.024 160.377 117.692 159.989 118.289C159.606 118.886 159.044 119.361 158.305 119.713C157.57 120.065 156.676 120.241 155.625 120.241C154.645 120.241 153.796 120.082 153.079 119.766C152.366 119.45 151.804 119.009 151.394 118.443C150.989 117.877 150.759 117.22 150.706 116.471H152.417C152.461 116.988 152.635 117.416 152.938 117.754C153.246 118.089 153.633 118.338 154.101 118.503C154.573 118.663 155.081 118.744 155.625 118.744C156.258 118.744 156.826 118.641 157.329 118.436C157.833 118.227 158.231 117.937 158.525 117.567C158.819 117.193 158.967 116.756 158.967 116.257C158.967 115.803 158.84 115.433 158.586 115.148C158.332 114.863 157.997 114.631 157.583 114.453C157.169 114.275 156.721 114.119 156.24 113.985L154.556 113.504C153.486 113.196 152.64 112.758 152.016 112.187C151.392 111.617 151.08 110.871 151.08 109.948C151.08 109.182 151.287 108.514 151.702 107.943C152.121 107.369 152.682 106.923 153.386 106.607C154.094 106.286 154.885 106.126 155.759 106.126C156.641 106.126 157.425 106.284 158.111 106.6C158.797 106.912 159.341 107.34 159.742 107.883C160.147 108.427 160.361 109.044 160.383 109.735H158.779ZM173.933 110.59H172.276C172.178 110.113 172.006 109.694 171.761 109.334C171.521 108.973 171.226 108.67 170.879 108.425C170.536 108.175 170.155 107.988 169.736 107.863C169.317 107.738 168.881 107.676 168.426 107.676C167.597 107.676 166.847 107.886 166.174 108.304C165.506 108.723 164.973 109.34 164.577 110.156C164.185 110.971 163.988 111.971 163.988 113.156C163.988 114.342 164.185 115.342 164.577 116.157C164.973 116.972 165.506 117.59 166.174 118.008C166.847 118.427 167.597 118.637 168.426 118.637C168.881 118.637 169.317 118.574 169.736 118.449C170.155 118.325 170.536 118.14 170.879 117.895C171.226 117.645 171.521 117.34 171.761 116.979C172.006 116.614 172.178 116.195 172.276 115.723H173.933C173.808 116.422 173.581 117.048 173.251 117.601C172.922 118.153 172.512 118.623 172.022 119.011C171.532 119.394 170.981 119.686 170.371 119.886C169.765 120.087 169.117 120.187 168.426 120.187C167.259 120.187 166.221 119.902 165.312 119.332C164.403 118.761 163.688 117.95 163.166 116.899C162.645 115.847 162.385 114.6 162.385 113.156C162.385 111.713 162.645 110.465 163.166 109.414C163.688 108.362 164.403 107.551 165.312 106.981C166.221 106.411 167.259 106.126 168.426 106.126C169.117 106.126 169.765 106.226 170.371 106.426C170.981 106.627 171.532 106.921 172.022 107.309C172.512 107.692 172.922 108.16 173.251 108.712C173.581 109.26 173.808 109.886 173.933 110.59ZM187.784 113.156C187.784 114.6 187.523 115.847 187.002 116.899C186.48 117.95 185.765 118.761 184.856 119.332C183.948 119.902 182.909 120.187 181.742 120.187C180.575 120.187 179.537 119.902 178.628 119.332C177.719 118.761 177.004 117.95 176.482 116.899C175.961 115.847 175.7 114.6 175.7 113.156C175.7 111.713 175.961 110.465 176.482 109.414C177.004 108.362 177.719 107.551 178.628 106.981C179.537 106.411 180.575 106.126 181.742 106.126C182.909 106.126 183.948 106.411 184.856 106.981C185.765 107.551 186.48 108.362 187.002 109.414C187.523 110.465 187.784 111.713 187.784 113.156ZM186.18 113.156C186.18 111.971 185.981 110.971 185.585 110.156C185.193 109.34 184.66 108.723 183.988 108.304C183.319 107.886 182.571 107.676 181.742 107.676C180.913 107.676 180.163 107.886 179.49 108.304C178.821 108.723 178.289 109.34 177.893 110.156C177.5 110.971 177.304 111.971 177.304 113.156C177.304 114.342 177.5 115.342 177.893 116.157C178.289 116.972 178.821 117.59 179.49 118.008C180.163 118.427 180.913 118.637 181.742 118.637C182.571 118.637 183.319 118.427 183.988 118.008C184.66 117.59 185.193 116.972 185.585 116.157C185.981 115.342 186.18 114.342 186.18 113.156ZM192.68 120L188.938 106.313H190.622L193.482 117.46H193.616L196.53 106.313H198.401L201.315 117.46H201.449L204.309 106.313H205.993L202.251 120H200.54L197.519 109.093H197.412L194.391 120H192.68ZM214.256 106.313V120H212.599V106.313H214.256ZM228.057 106.313V120H226.453L218.994 109.253H218.861V120H217.203V106.313H218.807L226.292 117.086H226.426V106.313H228.057ZM230.248 107.783V106.313H240.514V107.783H236.21V120H234.552V107.783H230.248ZM242.695 120V106.313H250.956V107.783H244.353V112.408H250.528V113.878H244.353V118.53H251.063V120H242.695ZM253.567 120V106.313H258.192C259.261 106.313 260.139 106.495 260.825 106.861C261.511 107.222 262.019 107.718 262.349 108.351C262.678 108.984 262.843 109.703 262.843 110.51C262.843 111.316 262.678 112.031 262.349 112.655C262.019 113.279 261.513 113.769 260.832 114.125C260.15 114.477 259.279 114.653 258.218 114.653H254.476V113.156H258.165C258.896 113.156 259.484 113.049 259.929 112.836C260.379 112.622 260.705 112.319 260.905 111.927C261.11 111.53 261.213 111.058 261.213 110.51C261.213 109.962 261.11 109.483 260.905 109.073C260.7 108.663 260.373 108.347 259.923 108.124C259.473 107.897 258.878 107.783 258.138 107.783H255.224V120H253.567ZM260.01 113.851L263.378 120H261.453L258.138 113.851H260.01ZM276.082 106.313V120H274.478L267.02 109.253H266.886V120H265.229V106.313H266.833L274.318 117.086H274.452V106.313H276.082ZM279.584 120H277.846L282.872 106.313H284.583L289.609 120H287.871L283.781 108.478H283.674L279.584 120ZM280.225 114.653H287.229V116.124H280.225V114.653ZM289.017 107.783V106.313H299.282V107.783H294.978V120H293.321V107.783H289.017ZM303.121 106.313V120H301.464V106.313H303.121ZM317.617 113.156C317.617 114.6 317.356 115.847 316.835 116.899C316.313 117.95 315.598 118.761 314.689 119.332C313.781 119.902 312.742 120.187 311.575 120.187C310.408 120.187 309.37 119.902 308.461 119.332C307.552 118.761 306.837 117.95 306.315 116.899C305.794 115.847 305.533 114.6 305.533 113.156C305.533 111.713 305.794 110.465 306.315 109.414C306.837 108.362 307.552 107.551 308.461 106.981C309.37 106.411 310.408 106.126 311.575 106.126C312.742 106.126 313.781 106.411 314.689 106.981C315.598 107.551 316.313 108.362 316.835 109.414C317.356 110.465 317.617 111.713 317.617 113.156ZM316.013 113.156C316.013 111.971 315.814 110.971 315.418 110.156C315.026 109.34 314.493 108.723 313.821 108.304C313.152 107.886 312.404 107.676 311.575 107.676C310.746 107.676 309.996 107.886 309.323 108.304C308.654 108.723 308.122 109.34 307.726 110.156C307.333 110.971 307.137 111.971 307.137 113.156C307.137 114.342 307.333 115.342 307.726 116.157C308.122 116.972 308.654 117.59 309.323 118.008C309.996 118.427 310.746 118.637 311.575 118.637C312.404 118.637 313.152 118.427 313.821 118.008C314.493 117.59 315.026 116.972 315.418 116.157C315.814 115.342 316.013 114.342 316.013 113.156ZM330.881 106.313V120H329.277L321.818 109.253H321.685V120H320.027V106.313H321.631L329.116 117.086H329.25V106.313H330.881ZM334.382 120H332.645L337.671 106.313H339.381L344.407 120H342.67L338.579 108.478H338.472L334.382 120ZM335.024 114.653H342.028V116.124H335.024V114.653ZM346.163 120V106.313H347.82V118.53H354.183V120H346.163ZM105.052 145H100.829V131.313H105.24C106.567 131.313 107.703 131.587 108.648 132.135C109.593 132.678 110.317 133.46 110.82 134.481C111.324 135.496 111.575 136.713 111.575 138.13C111.575 139.555 111.321 140.783 110.813 141.812C110.305 142.837 109.566 143.625 108.595 144.178C107.623 144.726 106.443 145 105.052 145ZM102.486 143.53H104.945C106.077 143.53 107.015 143.311 107.759 142.875C108.503 142.438 109.058 141.817 109.423 141.01C109.789 140.204 109.971 139.244 109.971 138.13C109.971 137.025 109.791 136.073 109.43 135.276C109.069 134.474 108.53 133.859 107.813 133.431C107.095 132.999 106.202 132.783 105.133 132.783H102.486V143.53ZM125.528 138.156C125.528 139.6 125.267 140.847 124.746 141.899C124.224 142.95 123.509 143.761 122.6 144.332C121.692 144.902 120.653 145.187 119.486 145.187C118.319 145.187 117.281 144.902 116.372 144.332C115.463 143.761 114.748 142.95 114.226 141.899C113.705 140.847 113.444 139.6 113.444 138.156C113.444 136.713 113.705 135.465 114.226 134.414C114.748 133.362 115.463 132.551 116.372 131.981C117.281 131.411 118.319 131.126 119.486 131.126C120.653 131.126 121.692 131.411 122.6 131.981C123.509 132.551 124.224 133.362 124.746 134.414C125.267 135.465 125.528 136.713 125.528 138.156ZM123.924 138.156C123.924 136.971 123.725 135.971 123.329 135.156C122.937 134.34 122.404 133.723 121.732 133.304C121.063 132.886 120.315 132.676 119.486 132.676C118.657 132.676 117.907 132.886 117.234 133.304C116.566 133.723 116.033 134.34 115.637 135.156C115.244 135.971 115.048 136.971 115.048 138.156C115.048 139.342 115.244 140.342 115.637 141.157C116.033 141.972 116.566 142.59 117.234 143.008C117.907 143.427 118.657 143.637 119.486 143.637C120.315 143.637 121.063 143.427 121.732 143.008C122.404 142.59 122.937 141.972 123.329 141.157C123.725 140.342 123.924 139.342 123.924 138.156ZM138.952 135.59H137.295C137.197 135.113 137.025 134.694 136.78 134.334C136.54 133.973 136.246 133.67 135.898 133.425C135.555 133.175 135.174 132.988 134.755 132.863C134.336 132.738 133.9 132.676 133.445 132.676C132.617 132.676 131.866 132.886 131.193 133.304C130.525 133.723 129.992 134.34 129.596 135.156C129.204 135.971 129.008 136.971 129.008 138.156C129.008 139.342 129.204 140.342 129.596 141.157C129.992 141.972 130.525 142.59 131.193 143.008C131.866 143.427 132.617 143.637 133.445 143.637C133.9 143.637 134.336 143.574 134.755 143.449C135.174 143.325 135.555 143.14 135.898 142.895C136.246 142.645 136.54 142.34 136.78 141.979C137.025 141.614 137.197 141.195 137.295 140.723H138.952C138.827 141.422 138.6 142.048 138.271 142.601C137.941 143.153 137.531 143.623 137.041 144.011C136.551 144.394 136 144.686 135.39 144.886C134.784 145.087 134.136 145.187 133.445 145.187C132.278 145.187 131.24 144.902 130.331 144.332C129.422 143.761 128.707 142.95 128.186 141.899C127.664 140.847 127.404 139.6 127.404 138.156C127.404 136.713 127.664 135.465 128.186 134.414C128.707 133.362 129.422 132.551 130.331 131.981C131.24 131.411 132.278 131.126 133.445 131.126C134.136 131.126 134.784 131.226 135.39 131.426C136 131.627 136.551 131.921 137.041 132.309C137.531 132.692 137.941 133.16 138.271 133.712C138.6 134.26 138.827 134.886 138.952 135.59ZM150.236 131.313H151.894V140.375C151.894 141.311 151.673 142.146 151.232 142.881C150.796 143.612 150.178 144.189 149.381 144.612C148.583 145.031 147.648 145.241 146.574 145.241C145.5 145.241 144.565 145.031 143.767 144.612C142.969 144.189 142.35 143.612 141.909 142.881C141.472 142.146 141.254 141.311 141.254 140.375V131.313H142.912V140.242C142.912 140.91 143.059 141.505 143.353 142.026C143.647 142.543 144.066 142.95 144.609 143.249C145.157 143.543 145.812 143.69 146.574 143.69C147.336 143.69 147.991 143.543 148.539 143.249C149.087 142.95 149.506 142.543 149.795 142.026C150.089 141.505 150.236 140.91 150.236 140.242V131.313ZM154.827 131.313H156.806L161.457 142.674H161.617L166.269 131.313H168.247V145H166.697V134.601H166.563L162.286 145H160.789L156.511 134.601H156.378V145H154.827V131.313ZM171.194 145V131.313H179.455V132.783H172.852V137.408H179.027V138.878H172.852V143.53H179.562V145H171.194ZM192.919 131.313V145H191.315L183.857 134.253H183.723V145H182.066V131.313H183.67L191.155 142.086H191.288V131.313H192.919ZM195.111 132.783V131.313H205.376V132.783H201.072V145H199.415V132.783H195.111ZM206.52 145H204.783L209.808 131.313H211.519L216.545 145H214.808L210.717 133.478H210.61L206.52 145ZM207.162 139.653H214.166V141.124H207.162V139.653ZM218.301 145V131.313H222.926C223.995 131.313 224.873 131.495 225.559 131.861C226.245 132.222 226.753 132.718 227.082 133.351C227.412 133.984 227.577 134.703 227.577 135.51C227.577 136.316 227.412 137.031 227.082 137.655C226.753 138.279 226.247 138.769 225.565 139.125C224.884 139.477 224.013 139.653 222.952 139.653H219.21V138.156H222.899C223.629 138.156 224.218 138.049 224.663 137.836C225.113 137.622 225.438 137.319 225.639 136.927C225.844 136.53 225.946 136.058 225.946 135.51C225.946 134.962 225.844 134.483 225.639 134.073C225.434 133.663 225.106 133.347 224.656 133.124C224.206 132.897 223.612 132.783 222.872 132.783H219.958V145H218.301ZM224.743 138.851L228.112 145H226.187L222.872 138.851H224.743ZM228.327 131.313H230.225L234.021 137.702H234.181L237.977 131.313H239.875L234.93 139.359V145H233.272V139.359L228.327 131.313ZM246.559 145V131.313H254.766V132.783H248.217V137.408H254.152V138.878H248.217V145H246.559ZM258.886 131.313V145H257.229V131.313H258.886ZM261.833 145V131.313H263.49V143.53H269.853V145H261.833ZM272.043 131.313H274.021L278.673 142.674H278.833L283.485 131.313H285.463V145H283.912V134.601H283.779L279.501 145H278.004L273.727 134.601H273.593V145H272.043V131.313ZM293.326 145V131.313H301.533V132.783H294.984V137.408H300.918V138.878H294.984V145H293.326ZM303.996 145V131.313H312.256V132.783H305.653V137.408H311.828V138.878H305.653V143.53H312.363V145H303.996ZM322.352 134.735C322.272 134.057 321.947 133.532 321.377 133.157C320.806 132.783 320.107 132.596 319.278 132.596C318.672 132.596 318.142 132.694 317.687 132.89C317.237 133.086 316.885 133.356 316.632 133.699C316.382 134.042 316.257 134.432 316.257 134.868C316.257 135.234 316.344 135.548 316.518 135.811C316.696 136.069 316.923 136.285 317.2 136.459C317.476 136.628 317.765 136.768 318.068 136.88C318.371 136.987 318.65 137.074 318.904 137.141L320.294 137.515C320.65 137.608 321.047 137.738 321.484 137.902C321.925 138.067 322.346 138.292 322.747 138.577C323.152 138.858 323.486 139.219 323.749 139.66C324.012 140.101 324.143 140.643 324.143 141.284C324.143 142.024 323.95 142.692 323.562 143.289C323.179 143.886 322.617 144.361 321.878 144.713C321.143 145.065 320.249 145.241 319.198 145.241C318.218 145.241 317.369 145.082 316.652 144.766C315.939 144.45 315.377 144.009 314.967 143.443C314.562 142.877 314.332 142.22 314.279 141.471H315.99C316.034 141.988 316.208 142.416 316.511 142.754C316.819 143.089 317.206 143.338 317.674 143.503C318.146 143.663 318.654 143.744 319.198 143.744C319.831 143.744 320.399 143.641 320.902 143.436C321.406 143.227 321.804 142.937 322.098 142.567C322.392 142.193 322.54 141.756 322.54 141.257C322.54 140.803 322.413 140.433 322.159 140.148C321.905 139.863 321.57 139.631 321.156 139.453C320.742 139.275 320.294 139.119 319.813 138.985L318.129 138.504C317.059 138.196 316.213 137.758 315.589 137.187C314.965 136.617 314.653 135.871 314.653 134.948C314.653 134.182 314.86 133.514 315.275 132.943C315.694 132.369 316.255 131.923 316.959 131.607C317.667 131.286 318.458 131.126 319.332 131.126C320.214 131.126 320.998 131.284 321.684 131.6C322.37 131.912 322.914 132.34 323.315 132.883C323.72 133.427 323.934 134.044 323.956 134.735H322.352ZM325.744 132.783V131.313H336.009V132.783H331.705V145H330.048V132.783H325.744ZM339.848 131.313V145H338.191V131.313H339.848ZM343.356 131.313L347.42 142.835H347.58L351.644 131.313H353.381L348.355 145H346.645L341.619 131.313H343.356ZM354.522 145H352.784L357.81 131.313H359.521L364.547 145H362.809L358.719 133.478H358.612L354.522 145ZM355.164 139.653H362.168V141.124H355.164V139.653ZM366.302 145V131.313H367.96V143.53H374.322V145H366.302Z" fill="white"/>
<path d="M214.399 175V173.605L219.636 167.872C220.251 167.2 220.757 166.617 221.155 166.121C221.553 165.62 221.847 165.15 222.038 164.711C222.235 164.267 222.333 163.802 222.333 163.316C222.333 162.758 222.198 162.275 221.93 161.867C221.666 161.459 221.305 161.144 220.845 160.922C220.385 160.7 219.869 160.589 219.296 160.589C218.686 160.589 218.154 160.715 217.699 160.968C217.25 161.216 216.901 161.565 216.653 162.014C216.411 162.464 216.289 162.991 216.289 163.595H214.461C214.461 162.665 214.675 161.849 215.104 161.147C215.533 160.444 216.116 159.897 216.855 159.504C217.599 159.112 218.433 158.915 219.358 158.915C220.287 158.915 221.111 159.112 221.829 159.504C222.547 159.897 223.11 160.426 223.518 161.092C223.926 161.759 224.13 162.5 224.13 163.316C224.13 163.9 224.024 164.471 223.813 165.028C223.606 165.581 223.244 166.198 222.728 166.88C222.217 167.557 221.506 168.383 220.597 169.36L217.033 173.171V173.295H224.409V175H214.399ZM232.348 175.217C231.181 175.217 230.187 174.899 229.365 174.264C228.544 173.623 227.917 172.696 227.483 171.482C227.049 170.263 226.832 168.791 226.832 167.066C226.832 165.351 227.049 163.887 227.483 162.673C227.922 161.454 228.552 160.524 229.373 159.884C230.2 159.238 231.191 158.915 232.348 158.915C233.505 158.915 234.495 159.238 235.316 159.884C236.142 160.524 236.772 161.454 237.206 162.673C237.645 163.887 237.865 165.351 237.865 167.066C237.865 168.791 237.648 170.263 237.214 171.482C236.78 172.696 236.153 173.623 235.331 174.264C234.51 174.899 233.516 175.217 232.348 175.217ZM232.348 173.512C233.505 173.512 234.404 172.955 235.045 171.839C235.685 170.723 236.005 169.132 236.005 167.066C236.005 165.692 235.858 164.522 235.564 163.556C235.274 162.59 234.856 161.854 234.309 161.348C233.766 160.842 233.113 160.589 232.348 160.589C231.202 160.589 230.305 161.154 229.66 162.286C229.014 163.412 228.691 165.005 228.691 167.066C228.691 168.44 228.836 169.607 229.125 170.568C229.414 171.529 229.83 172.26 230.373 172.761C230.92 173.262 231.579 173.512 232.348 173.512ZM240.373 175V173.605L245.61 167.872C246.225 167.2 246.731 166.617 247.129 166.121C247.527 165.62 247.821 165.15 248.012 164.711C248.208 164.267 248.307 163.802 248.307 163.316C248.307 162.758 248.172 162.275 247.904 161.867C247.64 161.459 247.279 161.144 246.819 160.922C246.359 160.7 245.843 160.589 245.269 160.589C244.66 160.589 244.128 160.715 243.673 160.968C243.224 161.216 242.875 161.565 242.627 162.014C242.385 162.464 242.263 162.991 242.263 163.595H240.435C240.435 162.665 240.649 161.849 241.078 161.147C241.506 160.444 242.09 159.897 242.829 159.504C243.573 159.112 244.407 158.915 245.331 158.915C246.261 158.915 247.085 159.112 247.803 159.504C248.521 159.897 249.084 160.426 249.492 161.092C249.9 161.759 250.104 162.5 250.104 163.316C250.104 163.9 249.998 164.471 249.786 165.028C249.58 165.581 249.218 166.198 248.702 166.88C248.19 167.557 247.48 168.383 246.571 169.36L243.007 173.171V173.295H250.383V175H240.373ZM258.725 159.132V175H256.804V161.147H256.711L252.837 163.719V161.767L256.804 159.132H258.725Z" fill="white"/>
<path d="M201.974 213H193.908V189.198H202.137C204.5 189.198 206.53 189.675 208.226 190.628C209.931 191.573 211.24 192.933 212.155 194.707C213.069 196.481 213.526 198.604 213.526 201.076C213.526 203.555 213.065 205.686 212.143 207.468C211.229 209.25 209.908 210.618 208.18 211.571C206.46 212.524 204.391 213 201.974 213ZM198.22 209.269H201.765C203.423 209.269 204.806 208.967 205.914 208.363C207.022 207.751 207.855 206.84 208.412 205.632C208.97 204.415 209.249 202.897 209.249 201.076C209.249 199.255 208.97 197.744 208.412 196.543C207.855 195.335 207.029 194.432 205.937 193.835C204.852 193.231 203.504 192.929 201.893 192.929H198.22V209.269ZM224.569 213.349C222.826 213.349 221.315 212.965 220.036 212.198C218.758 211.431 217.766 210.358 217.061 208.979C216.364 207.6 216.015 205.988 216.015 204.144C216.015 202.3 216.364 200.685 217.061 199.298C217.766 197.911 218.758 196.834 220.036 196.067C221.315 195.3 222.826 194.916 224.569 194.916C226.312 194.916 227.823 195.3 229.102 196.067C230.38 196.834 231.368 197.911 232.065 199.298C232.77 200.685 233.123 202.3 233.123 204.144C233.123 205.988 232.77 207.6 232.065 208.979C231.368 210.358 230.38 211.431 229.102 212.198C227.823 212.965 226.312 213.349 224.569 213.349ZM224.592 209.978C225.537 209.978 226.328 209.719 226.963 209.2C227.598 208.673 228.071 207.968 228.381 207.084C228.699 206.201 228.857 205.217 228.857 204.132C228.857 203.04 228.699 202.052 228.381 201.169C228.071 200.278 227.598 199.569 226.963 199.042C226.328 198.515 225.537 198.252 224.592 198.252C223.624 198.252 222.818 198.515 222.175 199.042C221.54 199.569 221.063 200.278 220.745 201.169C220.435 202.052 220.28 203.04 220.28 204.132C220.28 205.217 220.435 206.201 220.745 207.084C221.063 207.968 221.54 208.673 222.175 209.2C222.818 209.719 223.624 209.978 224.592 209.978ZM239.874 207.398L239.863 202.319H240.537L246.952 195.149H251.868L243.977 203.935H243.105L239.874 207.398ZM236.039 213V189.198H240.246V213H236.039ZM247.242 213L241.432 204.876L244.267 201.913L252.275 213H247.242ZM261.185 213.349C259.395 213.349 257.85 212.977 256.548 212.233C255.254 211.481 254.258 210.42 253.561 209.049C252.864 207.669 252.515 206.046 252.515 204.179C252.515 202.343 252.864 200.731 253.561 199.344C254.266 197.95 255.25 196.865 256.513 196.09C257.776 195.308 259.26 194.916 260.964 194.916C262.064 194.916 263.103 195.095 264.079 195.451C265.063 195.8 265.931 196.342 266.682 197.078C267.442 197.814 268.038 198.752 268.472 199.89C268.906 201.022 269.123 202.37 269.123 203.935V205.225H254.491V202.389H265.09C265.082 201.583 264.908 200.867 264.567 200.239C264.226 199.604 263.75 199.104 263.138 198.74C262.533 198.376 261.828 198.194 261.022 198.194C260.162 198.194 259.407 198.403 258.756 198.821C258.105 199.232 257.598 199.774 257.234 200.448C256.877 201.115 256.695 201.847 256.687 202.645V205.12C256.687 206.159 256.877 207.05 257.257 207.793C257.637 208.529 258.167 209.095 258.849 209.49C259.531 209.878 260.329 210.071 261.243 210.071C261.855 210.071 262.409 209.986 262.905 209.816C263.401 209.637 263.831 209.378 264.195 209.037C264.559 208.696 264.834 208.274 265.02 207.77L268.948 208.212C268.701 209.25 268.228 210.157 267.531 210.931C266.841 211.698 265.958 212.295 264.881 212.721C263.804 213.139 262.572 213.349 261.185 213.349ZM272.027 213V195.149H276.107V198.124H276.293C276.618 197.093 277.176 196.299 277.966 195.741C278.764 195.176 279.675 194.893 280.697 194.893C280.93 194.893 281.189 194.905 281.476 194.928C281.771 194.943 282.015 194.971 282.208 195.009V198.879C282.03 198.817 281.747 198.763 281.36 198.717C280.98 198.662 280.612 198.635 280.256 198.635C279.489 198.635 278.799 198.802 278.187 199.135C277.583 199.46 277.106 199.914 276.758 200.495C276.409 201.076 276.235 201.746 276.235 202.505V213H272.027Z" fill="white"/>
<path d="M426.838 73.6038C429.208 77.1463 431.484 81.5164 430.365 86.1997C426.504 83.9897 423.398 80.3814 420.935 76.8193C418.455 73.2333 415.88 69.42 414.998 65C419.868 66.2457 424.228 69.7037 426.838 73.6038Z" fill="white"/>
<path d="M433.756 95.1908C432.38 91.4902 429.37 88.2635 426.094 86.7585C423.052 85.3629 419.012 83.9064 415.462 85.6948C417.394 89.0871 420.575 91.9415 423.824 93.7369C426.745 95.3511 430.445 97.3068 434.107 96.4662C438.098 95.8549 440.027 91.8818 441.1 88.8763C442.585 84.723 441.57 79.1764 439.035 75.1016C435.54 76.5581 434.474 80.8794 433.744 83.9369C432.911 87.4172 432.888 91.4796 433.756 95.1908Z" fill="white"/>
<path d="M430.887 100.539C433.701 102.546 435.861 106.215 436.325 109.982C436.365 106.208 437.392 102.311 439.041 99.1716C440.55 96.2998 442.655 92.4184 446.4 91.6448C447.871 96.1161 447.395 101.585 445.016 105.205C443.217 107.947 440.431 111.38 436.377 111.288C432.677 111.477 429.482 108.95 426.968 106.841C424.263 104.573 421.823 101.257 420.797 97.6735C424.574 96.5766 428.19 98.6159 430.887 100.539Z" fill="white"/>
<path d="M435.374 124.804C435.786 121.113 434.552 117.122 432.251 114.656C430.036 112.279 426.93 109.688 423.063 110.101C423.141 113.84 425.013 117.405 426.945 120.075C428.744 122.562 431.515 125.638 435.143 126.081C438.915 126.72 442.597 124.411 444.99 121.694C448.067 118.198 449.901 113.507 449.535 108.808C445.659 108.904 442.724 112.249 440.553 114.779C438.211 117.508 436.293 121.099 435.374 124.804Z" fill="white"/>
<path d="M429.882 128.165C431.716 131.811 432.065 136.148 430.65 139.966C432.737 136.037 435.791 132.86 439.024 129.924C441.962 127.256 446.195 124.446 450.454 124.978C449.641 130.245 446.42 135.707 442.1 138.514C438.628 140.769 434.421 143.002 430.001 141.316C426.364 140.033 424.055 136.371 422.636 133.01C421.134 129.454 420.133 125.355 420.834 121.465C424.822 121.822 428.129 124.679 429.882 128.165Z" fill="white"/>
<path d="M422.175 154.019C424.482 150.507 425.287 146.11 424.344 141.983C423.45 138.074 420.731 134.504 416.766 133.394C415.113 137.16 415.085 141.541 415.684 145.514C416.244 149.19 417.611 153.48 421.007 155.53C425.203 158.191 430.102 156.617 434.125 155.025C439.315 152.972 444.001 148.004 446.193 142.665C441.657 141.227 437.02 143.599 433.24 145.566C429.33 147.601 425.246 150.503 422.175 154.019Z" fill="white"/>
<path d="M404.827 156.913C404.322 160.746 404.331 165.609 407.307 168.562C411.021 172.373 416.779 171.642 421.22 170.807C427.183 169.687 433.896 165.625 437.498 160.215C433.109 157.794 427.734 159.336 423.386 160.585L423.135 160.656C418.282 162.049 413.109 164.293 408.78 167.362C412.235 164.245 414.752 159.67 414.879 155.057C414.994 150.93 413.207 146.512 409.354 144.542C406.658 148.072 405.395 152.607 404.827 156.913Z" fill="white"/>
<path d="M401.497 184.994C396.733 184.894 390.196 184.325 387.531 179.404L387.494 179.336C385.366 175.176 387.529 170.314 389.253 166.715C391.303 162.437 394.103 158.078 398.106 154.949C401.947 158.263 401.575 163 400.43 167.116C399.066 172.011 394.354 176.181 389.475 178.555C395.124 176.454 401.292 175.194 407.16 174.825L407.757 174.787C412.472 174.484 418.608 174.089 422.36 177.541C416.676 182.364 408.608 185.144 401.497 184.994Z" fill="white"/>
</svg>
