<svg width="444" height="250" viewBox="0 0 444 250" fill="none" xmlns="http://www.w3.org/2000/svg">
<path d="M44.1277 86.1862C43.0118 81.5024 45.2914 77.1344 47.6659 73.5942C50.2797 69.6967 54.6408 66.2422 59.5114 65C58.6265 69.4188 56.0476 73.2303 53.5653 76.8138C51.0997 80.3739 47.99 83.9796 44.1277 86.1862Z" fill="white"/>
<path d="M40.7293 95.1708C41.6004 91.4616 41.5811 87.401 40.7518 83.9219C40.0226 80.8643 38.9615 76.5422 35.4692 75.0837C32.9307 79.1556 31.9102 84.7007 33.3897 88.8556C34.4594 91.861 36.3832 95.8345 40.373 96.4496C44.034 97.2935 47.736 95.3406 50.6597 93.7282C53.9107 91.9357 57.0951 89.0837 59.0299 85.6931C55.4807 83.9017 51.4388 85.3555 48.398 86.7487C45.1202 88.2507 42.109 91.4732 40.7293 95.1708Z" fill="white"/>
<path d="M29.4561 105.18C31.2565 107.926 34.0424 111.367 38.1045 111.269C41.7984 111.453 44.9898 108.933 47.5029 106.829C50.2095 104.562 52.6526 101.249 53.684 97.666C49.9059 96.5668 46.2887 98.6031 43.5913 100.524C40.7746 102.53 38.6083 106.201 38.1429 109.97C38.108 106.194 37.0858 102.294 35.438 99.1515C33.9314 96.2791 31.832 92.3963 28.0865 91.6201C26.6108 96.0896 27.0817 101.558 29.4561 105.18Z" fill="white"/>
<path d="M39.3056 126.062C35.5356 126.694 31.8582 124.384 29.4699 121.667C26.395 118.169 24.5655 113.476 24.9386 108.779C28.8116 108.877 31.7448 112.225 33.9129 114.756C36.2478 117.483 38.1609 121.07 39.0787 124.771C38.675 121.083 39.9132 117.101 42.2115 114.64C44.43 112.265 47.5377 109.676 51.4043 110.091C51.321 113.831 49.4465 117.394 47.5132 120.062C45.7111 122.548 42.9349 125.624 39.3056 126.062Z" fill="white"/>
<path d="M32.3419 138.488C35.8141 140.749 40.0252 142.986 44.4509 141.293C48.0817 140.008 50.3901 136.354 51.8099 132.999C53.3139 129.445 54.3184 125.346 53.623 121.456C49.6332 121.81 46.3249 124.665 44.5677 128.149C42.7307 131.792 42.3784 136.128 43.7895 139.947C41.7045 136.018 38.6554 132.839 35.4254 129.901C32.4892 127.231 28.2599 124.418 24 124.947C24.8105 130.214 28.0243 135.677 32.3419 138.488Z" fill="white"/>
<path d="M53.3943 155.53C56.8111 153.488 58.1862 149.19 58.7482 145.507C59.354 141.535 59.328 137.155 57.6784 133.387C53.7144 134.494 50.9933 138.062 50.0949 141.97C49.1456 146.098 49.9466 150.499 52.2557 154.014C49.1863 150.493 45.1049 147.585 41.1936 145.546C37.4155 143.577 32.7804 141.202 28.2432 142.636C30.4311 147.976 35.1114 152.947 40.2986 155.004C44.3157 156.596 49.2027 158.171 53.3943 155.53Z" fill="white"/>
<path d="M69.5932 156.913C70.0946 160.747 70.0804 165.609 67.1039 168.56C63.3844 172.367 57.628 171.633 53.1882 170.795C47.2276 169.67 40.518 165.604 36.9219 160.191C41.3138 157.773 46.6853 159.32 51.0334 160.572L51.2817 160.643C56.1353 162.04 61.3075 164.289 65.6331 167.362C62.1811 164.243 59.666 159.665 59.5428 155.05C59.4321 150.923 61.2236 146.507 65.0786 144.54C67.77 148.072 69.0303 152.607 69.5932 156.913Z" fill="white"/>
<path d="M86.8678 179.415C89.0598 175.242 86.888 170.345 85.1574 166.726C83.1114 162.447 80.3159 158.086 76.3152 154.954C72.4737 158.265 72.839 163.002 73.9811 167.119C75.3392 172.014 80.0475 176.187 84.923 178.565C79.2765 176.459 73.1098 175.195 67.2427 174.822L66.6484 174.784C61.935 174.477 55.7989 174.077 52.043 177.526C57.7218 182.354 65.788 185.139 72.8973 184.995C77.6615 184.898 84.1981 184.334 86.8678 179.415Z" fill="white"/>
<path d="M182.907 73.5V49.6983H192.019C193.739 49.6983 195.168 49.9695 196.307 50.5119C197.454 51.0465 198.31 51.7787 198.876 52.7084C199.449 53.6382 199.736 54.6919 199.736 55.8696C199.736 56.8381 199.55 57.6671 199.178 58.3567C198.806 59.0385 198.306 59.5925 197.678 60.0186C197.051 60.4447 196.35 60.7508 195.575 60.9367V61.1692C196.419 61.2156 197.229 61.4752 198.004 61.9478C198.786 62.4127 199.426 63.0713 199.921 63.9236C200.417 64.7758 200.665 65.8063 200.665 67.015C200.665 68.2469 200.367 69.3549 199.77 70.3388C199.174 71.3151 198.275 72.086 197.074 72.6516C195.873 73.2172 194.362 73.5 192.542 73.5H182.907ZM187.219 69.8972H191.856C193.421 69.8972 194.548 69.5989 195.238 69.0023C195.935 68.398 196.284 67.6232 196.284 66.6779C196.284 65.9729 196.11 65.3376 195.761 64.772C195.412 64.1986 194.916 63.7492 194.273 63.4238C193.63 63.0906 192.863 62.9241 191.972 62.9241H187.219V69.8972ZM187.219 59.821H191.484C192.228 59.821 192.898 59.6854 193.495 59.4143C194.091 59.1353 194.56 58.7441 194.901 58.2404C195.249 57.7291 195.424 57.1247 195.424 56.4274C195.424 55.5054 195.098 54.7461 194.448 54.1495C193.805 53.5529 192.848 53.2546 191.577 53.2546H187.219V59.821ZM203.762 73.5V49.6983H219.242V53.3128H208.073V59.7745H218.44V63.3889H208.073V69.8856H219.335V73.5H203.762ZM235.922 56.2415C235.813 55.2265 235.356 54.4362 234.55 53.8706C233.752 53.305 232.714 53.0222 231.436 53.0222C230.537 53.0222 229.766 53.1578 229.123 53.429C228.48 53.7002 227.988 54.0682 227.647 54.5331C227.306 54.9979 227.132 55.5287 227.124 56.1253C227.124 56.6211 227.236 57.0511 227.461 57.4153C227.693 57.7794 228.007 58.0894 228.402 58.345C228.797 58.593 229.235 58.8022 229.716 58.9726C230.196 59.1431 230.68 59.2864 231.168 59.4026L233.4 59.9605C234.298 60.1697 235.162 60.4525 235.991 60.8089C236.828 61.1653 237.576 61.6147 238.234 62.157C238.901 62.6994 239.428 63.3541 239.815 64.1211C240.202 64.8882 240.396 65.7869 240.396 66.8174C240.396 68.212 240.04 69.4401 239.327 70.5015C238.614 71.5553 237.584 72.3804 236.235 72.977C234.895 73.5659 233.272 73.8603 231.366 73.8603C229.514 73.8603 227.906 73.5736 226.543 73.0003C225.187 72.4269 224.125 71.5901 223.358 70.4899C222.599 69.3897 222.188 68.0493 222.126 66.4687H226.368C226.43 67.2978 226.686 67.9873 227.135 68.5374C227.585 69.0876 228.17 69.4982 228.89 69.7694C229.619 70.0405 230.432 70.1761 231.331 70.1761C232.268 70.1761 233.09 70.0367 233.795 69.7577C234.508 69.4711 235.065 69.0759 235.468 68.5723C235.871 68.0609 236.077 67.4644 236.084 66.7825C236.077 66.1627 235.894 65.6513 235.538 65.2484C235.182 64.8378 234.682 64.4969 234.039 64.2257C233.404 63.9468 232.66 63.6989 231.807 63.4819L229.1 62.7846C227.139 62.281 225.59 61.5178 224.451 60.4951C223.32 59.4646 222.754 58.0971 222.754 56.3926C222.754 54.9902 223.134 53.7621 223.893 52.7084C224.66 51.6547 225.702 50.8373 227.019 50.2562C228.336 49.6674 229.828 49.3729 231.494 49.3729C233.183 49.3729 234.663 49.6674 235.933 50.2562C237.212 50.8373 238.215 51.6469 238.943 52.6852C239.672 53.7156 240.047 54.9011 240.071 56.2415H235.922ZM242.539 53.3128V49.6983H261.53V53.3128H254.173V73.5H249.896V53.3128H242.539ZM137.469 106.5H129.404V82.6983H137.632C139.995 82.6983 142.025 83.1748 143.722 84.1278C145.426 85.0731 146.736 86.4328 147.65 88.2071C148.564 89.9814 149.021 92.1043 149.021 94.5759C149.021 97.0553 148.56 99.1859 147.638 100.968C146.724 102.75 145.403 104.118 143.675 105.071C141.955 106.024 139.887 106.5 137.469 106.5ZM133.715 102.769H137.26C138.918 102.769 140.301 102.467 141.409 101.863C142.517 101.251 143.35 100.34 143.908 99.1317C144.466 97.9153 144.745 96.3967 144.745 94.5759C144.745 92.7552 144.466 91.2443 143.908 90.0434C143.35 88.8347 142.525 87.9321 141.432 87.3355C140.348 86.7311 139 86.429 137.388 86.429H133.715V102.769ZM152.464 106.5V82.6983H167.944V86.3128H156.775V92.7745H167.142V96.3889H156.775V102.886H168.037V106.5H152.464ZM171.688 106.5V82.6983H180.8C182.52 82.6983 183.949 82.9695 185.088 83.5119C186.235 84.0465 187.091 84.7787 187.657 85.7084C188.23 86.6382 188.517 87.6919 188.517 88.8696C188.517 89.8381 188.331 90.6671 187.959 91.3567C187.587 92.0385 187.087 92.5925 186.46 93.0186C185.832 93.4447 185.131 93.7508 184.356 93.9367V94.1692C185.201 94.2156 186.01 94.4752 186.785 94.9478C187.568 95.4127 188.207 96.0713 188.703 96.9236C189.199 97.7758 189.447 98.8063 189.447 100.015C189.447 101.247 189.148 102.355 188.552 103.339C187.955 104.315 187.056 105.086 185.855 105.652C184.655 106.217 183.144 106.5 181.323 106.5H171.688ZM176 102.897H180.637C182.202 102.897 183.33 102.599 184.019 102.002C184.717 101.398 185.065 100.623 185.065 99.6779C185.065 98.9729 184.891 98.3376 184.542 97.772C184.194 97.1986 183.698 96.7492 183.055 96.4238C182.411 96.0906 181.644 95.9241 180.753 95.9241H176V102.897ZM176 92.821H180.265C181.009 92.821 181.679 92.6854 182.276 92.4143C182.872 92.1353 183.341 91.7441 183.682 91.2404C184.031 90.7291 184.205 90.1247 184.205 89.4274C184.205 88.5054 183.88 87.7461 183.229 87.1495C182.586 86.5529 181.629 86.2546 180.358 86.2546H176V92.821ZM207.547 82.6983H211.859V98.2484C211.859 99.953 211.456 101.452 210.65 102.746C209.852 104.04 208.728 105.051 207.28 105.779C205.831 106.5 204.138 106.86 202.201 106.86C200.256 106.86 198.559 106.5 197.11 105.779C195.662 105.051 194.538 104.04 193.74 102.746C192.942 101.452 192.543 99.953 192.543 98.2484V82.6983H196.855V97.8882C196.855 98.8799 197.072 99.7632 197.506 100.538C197.947 101.313 198.567 101.921 199.365 102.363C200.163 102.796 201.108 103.013 202.201 103.013C203.293 103.013 204.239 102.796 205.037 102.363C205.842 101.921 206.462 101.313 206.896 100.538C207.33 99.7632 207.547 98.8799 207.547 97.8882V82.6983ZM214.845 86.3128V82.6983H233.835V86.3128H226.478V106.5H222.201V86.3128H214.845ZM244.305 106.5V82.6983H259.552V86.3128H248.616V92.7745H258.507V96.3889H248.616V106.5H244.305ZM267.138 82.6983V106.5H262.826V82.6983H267.138ZM271.152 106.5V82.6983H275.464V102.886H285.947V106.5H271.152ZM289.035 82.6983H294.311L301.377 99.9452H301.656L308.722 82.6983H313.999V106.5H309.861V90.148H309.64L303.062 106.43H299.971L293.393 90.1131H293.172V106.5H289.035V82.6983Z" fill="white"/>
<path d="M102.643 120.632V136.5H100.721V120.632H102.643ZM114.737 124.599C114.644 123.814 114.267 123.205 113.605 122.771C112.944 122.337 112.133 122.12 111.173 122.12C110.47 122.12 109.855 122.233 109.329 122.461C108.807 122.688 108.399 123.001 108.104 123.398C107.815 123.796 107.67 124.248 107.67 124.754C107.67 125.178 107.771 125.542 107.973 125.847C108.179 126.146 108.443 126.397 108.763 126.598C109.083 126.794 109.419 126.957 109.77 127.086C110.121 127.21 110.444 127.311 110.739 127.388L112.35 127.822C112.763 127.931 113.223 128.081 113.729 128.272C114.241 128.463 114.729 128.724 115.194 129.054C115.664 129.38 116.051 129.798 116.356 130.309C116.661 130.821 116.813 131.448 116.813 132.192C116.813 133.05 116.588 133.824 116.139 134.517C115.695 135.209 115.044 135.759 114.186 136.167C113.334 136.575 112.299 136.779 111.08 136.779C109.943 136.779 108.959 136.596 108.128 136.229C107.301 135.862 106.65 135.351 106.175 134.695C105.705 134.039 105.439 133.277 105.377 132.409H107.361C107.412 133.008 107.614 133.504 107.965 133.897C108.321 134.284 108.771 134.573 109.313 134.764C109.861 134.95 110.449 135.043 111.08 135.043C111.813 135.043 112.472 134.925 113.055 134.687C113.639 134.444 114.101 134.108 114.442 133.68C114.783 133.246 114.954 132.74 114.954 132.161C114.954 131.634 114.806 131.206 114.512 130.875C114.217 130.544 113.83 130.276 113.35 130.069C112.869 129.863 112.35 129.682 111.792 129.527L109.84 128.969C108.6 128.613 107.619 128.104 106.896 127.443C106.173 126.782 105.811 125.916 105.811 124.847C105.811 123.959 106.051 123.184 106.532 122.523C107.017 121.856 107.668 121.34 108.484 120.973C109.305 120.601 110.222 120.415 111.234 120.415C112.257 120.415 113.166 120.599 113.962 120.965C114.757 121.327 115.387 121.823 115.852 122.453C116.322 123.083 116.57 123.799 116.596 124.599H114.737ZM119.536 136.5V120.632H124.897C126.137 120.632 127.155 120.844 127.95 121.268C128.746 121.686 129.334 122.262 129.717 122.995C130.099 123.729 130.29 124.563 130.29 125.498C130.29 126.433 130.099 127.262 129.717 127.985C129.334 128.708 128.748 129.276 127.958 129.69C127.168 130.098 126.158 130.302 124.928 130.302H120.59V128.566H124.866C125.714 128.566 126.395 128.442 126.912 128.194C127.434 127.946 127.811 127.595 128.043 127.14C128.281 126.681 128.4 126.133 128.4 125.498C128.4 124.863 128.281 124.307 128.043 123.832C127.805 123.357 127.426 122.99 126.904 122.732C126.382 122.468 125.693 122.337 124.835 122.337H121.457V136.5H119.536ZM127.005 129.372L130.91 136.5H128.678L124.835 129.372H127.005ZM133.706 136.5H131.692L137.518 120.632H139.502L145.328 136.5H143.314L138.572 123.143H138.448L133.706 136.5ZM134.45 130.302H142.57V132.006H134.45V130.302ZM147.363 136.5V120.632H156.94V122.337H149.285V127.698H156.444V129.403H149.285V134.795H157.064V136.5H147.363ZM159.967 136.5V120.632H161.888V134.795H169.264V136.5H159.967ZM173.725 120.632V136.5H171.803V120.632H173.725ZM187.738 136.5H182.841V120.632H187.955C189.494 120.632 190.811 120.95 191.906 121.585C193.001 122.215 193.84 123.122 194.424 124.305C195.008 125.482 195.3 126.893 195.3 128.535C195.3 130.188 195.005 131.611 194.416 132.804C193.828 133.992 192.97 134.907 191.844 135.547C190.718 136.182 189.349 136.5 187.738 136.5ZM184.762 134.795H187.614C188.926 134.795 190.013 134.542 190.876 134.036C191.738 133.53 192.381 132.809 192.805 131.874C193.228 130.94 193.44 129.826 193.44 128.535C193.44 127.254 193.231 126.151 192.813 125.227C192.394 124.297 191.769 123.584 190.938 123.088C190.106 122.587 189.07 122.337 187.831 122.337H184.762V134.795ZM211.475 128.566C211.475 130.24 211.173 131.686 210.568 132.905C209.964 134.124 209.135 135.064 208.081 135.725C207.028 136.386 205.824 136.717 204.471 136.717C203.117 136.717 201.914 136.386 200.86 135.725C199.806 135.064 198.977 134.124 198.373 132.905C197.769 131.686 197.467 130.24 197.467 128.566C197.467 126.893 197.769 125.446 198.373 124.227C198.977 123.008 199.806 122.068 200.86 121.407C201.914 120.746 203.117 120.415 204.471 120.415C205.824 120.415 207.028 120.746 208.081 121.407C209.135 122.068 209.964 123.008 210.568 124.227C211.173 125.446 211.475 126.893 211.475 128.566ZM209.615 128.566C209.615 127.192 209.386 126.033 208.926 125.087C208.471 124.142 207.854 123.427 207.074 122.941C206.299 122.456 205.431 122.213 204.471 122.213C203.51 122.213 202.64 122.456 201.86 122.941C201.085 123.427 200.468 124.142 200.008 125.087C199.553 126.033 199.326 127.192 199.326 128.566C199.326 129.94 199.553 131.1 200.008 132.045C200.468 132.99 201.085 133.706 201.86 134.191C202.64 134.677 203.51 134.919 204.471 134.919C205.431 134.919 206.299 134.677 207.074 134.191C207.854 133.706 208.471 132.99 208.926 132.045C209.386 131.1 209.615 129.94 209.615 128.566ZM227.038 125.591H225.116C225.003 125.038 224.804 124.553 224.52 124.134C224.241 123.716 223.9 123.365 223.497 123.081C223.099 122.791 222.658 122.574 222.172 122.43C221.687 122.285 221.181 122.213 220.654 122.213C219.693 122.213 218.823 122.456 218.043 122.941C217.268 123.427 216.651 124.142 216.191 125.087C215.736 126.033 215.509 127.192 215.509 128.566C215.509 129.94 215.736 131.1 216.191 132.045C216.651 132.99 217.268 133.706 218.043 134.191C218.823 134.677 219.693 134.919 220.654 134.919C221.181 134.919 221.687 134.847 222.172 134.702C222.658 134.558 223.099 134.343 223.497 134.059C223.9 133.77 224.241 133.416 224.52 132.998C224.804 132.574 225.003 132.089 225.116 131.541H227.038C226.893 132.352 226.63 133.078 226.248 133.718C225.865 134.359 225.39 134.904 224.822 135.353C224.254 135.798 223.616 136.136 222.908 136.368C222.206 136.601 221.454 136.717 220.654 136.717C219.3 136.717 218.097 136.386 217.043 135.725C215.989 135.064 215.16 134.124 214.556 132.905C213.952 131.686 213.65 130.24 213.65 128.566C213.65 126.893 213.952 125.446 214.556 124.227C215.16 123.008 215.989 122.068 217.043 121.407C218.097 120.746 219.3 120.415 220.654 120.415C221.454 120.415 222.206 120.532 222.908 120.764C223.616 120.996 224.254 121.337 224.822 121.787C225.39 122.231 225.865 122.773 226.248 123.414C226.63 124.049 226.893 124.775 227.038 125.591ZM240.12 120.632H242.041V131.138C242.041 132.223 241.786 133.192 241.274 134.044C240.768 134.891 240.053 135.56 239.128 136.051C238.203 136.536 237.119 136.779 235.874 136.779C234.629 136.779 233.544 136.536 232.62 136.051C231.695 135.56 230.977 134.891 230.466 134.044C229.96 133.192 229.707 132.223 229.707 131.138V120.632H231.628V130.983C231.628 131.758 231.799 132.448 232.139 133.052C232.48 133.651 232.966 134.124 233.596 134.47C234.231 134.811 234.991 134.981 235.874 134.981C236.757 134.981 237.517 134.811 238.152 134.47C238.787 134.124 239.273 133.651 239.608 133.052C239.949 132.448 240.12 131.758 240.12 130.983V120.632ZM245.442 120.632H247.736L253.128 133.804H253.314L258.707 120.632H261V136.5H259.202V124.444H259.047L254.089 136.5H252.353L247.395 124.444H247.24V136.5H245.442V120.632ZM264.416 136.5V120.632H273.993V122.337H266.338V127.698H273.497V129.403H266.338V134.795H274.117V136.5H264.416ZM289.602 120.632V136.5H287.743L279.096 124.041H278.941V136.5H277.02V120.632H278.879L287.557 133.122H287.712V120.632H289.602ZM292.143 122.337V120.632H304.044V122.337H299.054V136.5H297.133V122.337H292.143ZM305.37 136.5H303.356L309.182 120.632H311.166L316.992 136.5H314.978L310.236 123.143H310.112L305.37 136.5ZM306.114 130.302H314.234V132.006H306.114V130.302ZM319.027 136.5V120.632H324.389C325.629 120.632 326.646 120.844 327.442 121.268C328.237 121.686 328.826 122.262 329.208 122.995C329.59 123.729 329.781 124.563 329.781 125.498C329.781 126.433 329.59 127.262 329.208 127.985C328.826 128.708 328.24 129.276 327.449 129.69C326.659 130.098 325.649 130.302 324.42 130.302H320.081V128.566H324.358C325.205 128.566 325.887 128.442 326.403 128.194C326.925 127.946 327.302 127.595 327.535 127.14C327.772 126.681 327.891 126.133 327.891 125.498C327.891 124.863 327.772 124.307 327.535 123.832C327.297 123.357 326.917 122.99 326.396 122.732C325.874 122.468 325.184 122.337 324.327 122.337H320.949V136.5H319.027ZM326.496 129.372L330.401 136.5H328.17L324.327 129.372H326.496ZM330.651 120.632H332.851L337.252 128.039H337.438L341.839 120.632H344.039L338.306 129.961V136.5H336.384V129.961L330.651 120.632ZM162.881 154.591H160.959C160.845 154.038 160.647 153.553 160.363 153.134C160.084 152.716 159.743 152.365 159.34 152.081C158.942 151.791 158.5 151.574 158.015 151.43C157.529 151.285 157.023 151.213 156.496 151.213C155.536 151.213 154.665 151.456 153.885 151.941C153.11 152.427 152.493 153.142 152.033 154.087C151.579 155.033 151.352 156.192 151.352 157.566C151.352 158.94 151.579 160.1 152.033 161.045C152.493 161.99 153.11 162.706 153.885 163.191C154.665 163.677 155.536 163.919 156.496 163.919C157.023 163.919 157.529 163.847 158.015 163.702C158.5 163.558 158.942 163.343 159.34 163.059C159.743 162.77 160.084 162.416 160.363 161.998C160.647 161.574 160.845 161.089 160.959 160.541H162.881C162.736 161.352 162.473 162.078 162.09 162.718C161.708 163.359 161.233 163.904 160.665 164.353C160.097 164.798 159.459 165.136 158.751 165.368C158.048 165.601 157.297 165.717 156.496 165.717C155.143 165.717 153.939 165.386 152.886 164.725C151.832 164.064 151.003 163.124 150.399 161.905C149.794 160.686 149.492 159.24 149.492 157.566C149.492 155.893 149.794 154.446 150.399 153.227C151.003 152.008 151.832 151.068 152.886 150.407C153.939 149.746 155.143 149.415 156.496 149.415C157.297 149.415 158.048 149.532 158.751 149.764C159.459 149.996 160.097 150.337 160.665 150.787C161.233 151.231 161.708 151.773 162.09 152.414C162.473 153.049 162.736 153.775 162.881 154.591ZM178.938 157.566C178.938 159.24 178.635 160.686 178.031 161.905C177.427 163.124 176.598 164.064 175.544 164.725C174.49 165.386 173.287 165.717 171.934 165.717C170.58 165.717 169.377 165.386 168.323 164.725C167.269 164.064 166.44 163.124 165.836 161.905C165.232 160.686 164.929 159.24 164.929 157.566C164.929 155.893 165.232 154.446 165.836 153.227C166.44 152.008 167.269 151.068 168.323 150.407C169.377 149.746 170.58 149.415 171.934 149.415C173.287 149.415 174.49 149.746 175.544 150.407C176.598 151.068 177.427 152.008 178.031 153.227C178.635 154.446 178.938 155.893 178.938 157.566ZM177.078 157.566C177.078 156.192 176.848 155.033 176.389 154.087C175.934 153.142 175.317 152.427 174.537 151.941C173.762 151.456 172.894 151.213 171.934 151.213C170.973 151.213 170.102 151.456 169.322 151.941C168.548 152.427 167.93 153.142 167.471 154.087C167.016 155.033 166.789 156.192 166.789 157.566C166.789 158.94 167.016 160.1 167.471 161.045C167.93 161.99 168.548 162.706 169.322 163.191C170.102 163.677 170.973 163.919 171.934 163.919C172.894 163.919 173.762 163.677 174.537 163.191C175.317 162.706 175.934 161.99 176.389 161.045C176.848 160.1 177.078 158.94 177.078 157.566ZM181.732 149.632H184.026L189.418 162.804H189.604L194.997 149.632H197.29V165.5H195.493V153.444H195.338L190.379 165.5H188.643L183.685 153.444H183.53V165.5H181.732V149.632ZM200.706 165.5V149.632H206.068C207.313 149.632 208.33 149.857 209.121 150.306C209.916 150.751 210.505 151.352 210.887 152.112C211.269 152.871 211.46 153.718 211.46 154.653C211.46 155.588 211.269 156.437 210.887 157.202C210.51 157.966 209.926 158.576 209.136 159.03C208.346 159.48 207.333 159.705 206.099 159.705H202.256V158H206.037C206.889 158 207.574 157.853 208.09 157.558C208.607 157.264 208.981 156.866 209.214 156.365C209.451 155.859 209.57 155.288 209.57 154.653C209.57 154.018 209.451 153.449 209.214 152.948C208.981 152.447 208.604 152.055 208.082 151.771C207.561 151.481 206.869 151.337 206.006 151.337H202.628V165.5H200.706ZM214.119 165.5V149.632H223.696V151.337H216.041V156.698H223.2V158.403H216.041V163.795H223.82V165.5H214.119ZM225.855 151.337V149.632H237.756V151.337H232.766V165.5H230.845V151.337H225.855ZM242.207 149.632V165.5H240.285V149.632H242.207ZM244.755 151.337V149.632H256.656V151.337H251.666V165.5H249.745V151.337H244.755ZM261.107 149.632V165.5H259.185V149.632H261.107ZM277.911 157.566C277.911 159.24 277.609 160.686 277.005 161.905C276.4 163.124 275.571 164.064 274.518 164.725C273.464 165.386 272.26 165.717 270.907 165.717C269.554 165.717 268.35 165.386 267.297 164.725C266.243 164.064 265.414 163.124 264.809 161.905C264.205 160.686 263.903 159.24 263.903 157.566C263.903 155.893 264.205 154.446 264.809 153.227C265.414 152.008 266.243 151.068 267.297 150.407C268.35 149.746 269.554 149.415 270.907 149.415C272.26 149.415 273.464 149.746 274.518 150.407C275.571 151.068 276.4 152.008 277.005 153.227C277.609 154.446 277.911 155.893 277.911 157.566ZM276.052 157.566C276.052 156.192 275.822 155.033 275.362 154.087C274.908 153.142 274.29 152.427 273.51 151.941C272.736 151.456 271.868 151.213 270.907 151.213C269.946 151.213 269.076 151.456 268.296 151.941C267.521 152.427 266.904 153.142 266.444 154.087C265.99 155.033 265.762 156.192 265.762 157.566C265.762 158.94 265.99 160.1 266.444 161.045C266.904 161.99 267.521 162.706 268.296 163.191C269.076 163.677 269.946 163.919 270.907 163.919C271.868 163.919 272.736 163.677 273.51 163.191C274.29 162.706 274.908 161.99 275.362 161.045C275.822 160.1 276.052 158.94 276.052 157.566ZM293.288 149.632V165.5H291.429L282.782 153.041H282.627V165.5H280.706V149.632H282.565L291.243 162.122H291.398V149.632H293.288Z" fill="white"/>
<path d="M197.152 196.5V195.105L202.389 189.372C203.004 188.7 203.51 188.117 203.908 187.621C204.306 187.12 204.6 186.65 204.791 186.211C204.987 185.767 205.086 185.302 205.086 184.816C205.086 184.258 204.951 183.775 204.683 183.367C204.419 182.959 204.058 182.644 203.598 182.422C203.138 182.2 202.622 182.089 202.048 182.089C201.439 182.089 200.907 182.215 200.452 182.468C200.003 182.716 199.654 183.065 199.406 183.514C199.164 183.964 199.042 184.491 199.042 185.095H197.214C197.214 184.165 197.428 183.349 197.857 182.647C198.285 181.944 198.869 181.397 199.608 181.004C200.352 180.612 201.186 180.415 202.11 180.415C203.04 180.415 203.864 180.612 204.582 181.004C205.3 181.397 205.863 181.926 206.271 182.592C206.679 183.259 206.883 184 206.883 184.816C206.883 185.4 206.777 185.971 206.565 186.528C206.359 187.081 205.997 187.698 205.481 188.38C204.969 189.057 204.259 189.883 203.35 190.86L199.786 194.671V194.795H207.162V196.5H197.152ZM215.101 196.717C213.934 196.717 212.939 196.399 212.118 195.764C211.297 195.123 210.669 194.196 210.235 192.982C209.802 191.763 209.585 190.291 209.585 188.566C209.585 186.851 209.802 185.387 210.235 184.173C210.675 182.954 211.305 182.024 212.126 181.384C212.952 180.738 213.944 180.415 215.101 180.415C216.258 180.415 217.247 180.738 218.069 181.384C218.895 182.024 219.525 182.954 219.959 184.173C220.398 185.387 220.618 186.851 220.618 188.566C220.618 190.291 220.401 191.763 219.967 192.982C219.533 194.196 218.905 195.123 218.084 195.764C217.263 196.399 216.269 196.717 215.101 196.717ZM215.101 195.012C216.258 195.012 217.157 194.455 217.797 193.339C218.438 192.223 218.758 190.632 218.758 188.566C218.758 187.192 218.611 186.022 218.317 185.056C218.027 184.09 217.609 183.354 217.061 182.848C216.519 182.342 215.866 182.089 215.101 182.089C213.954 182.089 213.058 182.654 212.413 183.786C211.767 184.912 211.444 186.505 211.444 188.566C211.444 189.94 211.589 191.107 211.878 192.068C212.167 193.029 212.583 193.76 213.125 194.261C213.673 194.762 214.332 195.012 215.101 195.012ZM223.126 196.5V195.105L228.363 189.372C228.978 188.7 229.484 188.117 229.882 187.621C230.279 187.12 230.574 186.65 230.765 186.211C230.961 185.767 231.059 185.302 231.059 184.816C231.059 184.258 230.925 183.775 230.657 183.367C230.393 182.959 230.032 182.644 229.572 182.422C229.112 182.2 228.596 182.089 228.022 182.089C227.413 182.089 226.881 182.215 226.426 182.468C225.977 182.716 225.628 183.065 225.38 183.514C225.137 183.964 225.016 184.491 225.016 185.095H223.188C223.188 184.165 223.402 183.349 223.831 182.647C224.259 181.944 224.843 181.397 225.582 181.004C226.325 180.612 227.16 180.415 228.084 180.415C229.014 180.415 229.838 180.612 230.556 181.004C231.274 181.397 231.837 181.926 232.245 182.592C232.653 183.259 232.857 184 232.857 184.816C232.857 185.4 232.751 185.971 232.539 186.528C232.333 187.081 231.971 187.698 231.455 188.38C230.943 189.057 230.233 189.883 229.324 190.86L225.76 194.671V194.795H233.136V196.5H223.126ZM241.075 196.717C239.908 196.717 238.913 196.399 238.092 195.764C237.271 195.123 236.643 194.196 236.209 192.982C235.775 191.763 235.559 190.291 235.559 188.566C235.559 186.851 235.775 185.387 236.209 184.173C236.648 182.954 237.279 182.024 238.1 181.384C238.926 180.738 239.918 180.415 241.075 180.415C242.232 180.415 243.221 180.738 244.042 181.384C244.869 182.024 245.499 182.954 245.933 184.173C246.372 185.387 246.592 186.851 246.592 188.566C246.592 190.291 246.375 191.763 245.941 192.982C245.507 194.196 244.879 195.123 244.058 195.764C243.237 196.399 242.242 196.717 241.075 196.717ZM241.075 195.012C242.232 195.012 243.131 194.455 243.771 193.339C244.412 192.223 244.732 190.632 244.732 188.566C244.732 187.192 244.585 186.022 244.29 185.056C244.001 184.09 243.583 183.354 243.035 182.848C242.493 182.342 241.839 182.089 241.075 182.089C239.928 182.089 239.032 182.654 238.387 183.786C237.741 184.912 237.418 186.505 237.418 188.566C237.418 189.94 237.563 191.107 237.852 192.068C238.141 193.029 238.557 193.76 239.099 194.261C239.647 194.762 240.305 195.012 241.075 195.012Z" fill="white"/>
<path d="M395.838 73.6038C398.208 77.1463 400.484 81.5164 399.365 86.1997C395.504 83.9897 392.398 80.3814 389.935 76.8193C387.455 73.2333 384.88 69.42 383.998 65C388.868 66.2457 393.228 69.7037 395.838 73.6038Z" fill="white"/>
<path d="M402.756 95.1908C401.38 91.4902 398.37 88.2635 395.094 86.7585C392.052 85.3629 388.012 83.9064 384.462 85.6948C386.394 89.0871 389.575 91.9415 392.824 93.7369C395.745 95.3511 399.445 97.3068 403.107 96.4662C407.098 95.8549 409.027 91.8818 410.1 88.8763C411.585 84.723 410.57 79.1764 408.035 75.1016C404.54 76.5581 403.474 80.8794 402.744 83.9369C401.911 87.4172 401.888 91.4796 402.756 95.1908Z" fill="white"/>
<path d="M399.887 100.539C402.701 102.546 404.861 106.215 405.325 109.982C405.365 106.208 406.392 102.311 408.041 99.1716C409.55 96.2998 411.655 92.4184 415.4 91.6448C416.871 96.1161 416.395 101.585 414.016 105.205C412.217 107.947 409.431 111.38 405.377 111.288C401.677 111.477 398.482 108.95 395.968 106.841C393.263 104.573 390.823 101.257 389.797 97.6735C393.574 96.5766 397.19 98.6159 399.887 100.539Z" fill="white"/>
<path d="M404.374 124.804C404.786 121.113 403.552 117.122 401.251 114.656C399.036 112.279 395.93 109.688 392.063 110.101C392.141 113.84 394.013 117.405 395.945 120.075C397.744 122.562 400.515 125.638 404.143 126.081C407.915 126.72 411.597 124.411 413.99 121.694C417.067 118.198 418.901 113.507 418.535 108.808C414.659 108.904 411.724 112.249 409.553 114.779C407.211 117.508 405.293 121.099 404.374 124.804Z" fill="white"/>
<path d="M398.882 128.165C400.716 131.811 401.065 136.148 399.65 139.966C401.737 136.037 404.791 132.86 408.024 129.924C410.962 127.256 415.195 124.446 419.454 124.978C418.641 130.245 415.42 135.707 411.1 138.514C407.628 140.769 403.421 143.002 399.001 141.316C395.364 140.033 393.055 136.371 391.636 133.01C390.134 129.454 389.133 125.355 389.834 121.465C393.822 121.822 397.129 124.679 398.882 128.165Z" fill="white"/>
<path d="M391.175 154.019C393.482 150.507 394.287 146.11 393.344 141.983C392.45 138.074 389.731 134.504 385.766 133.394C384.113 137.16 384.085 141.541 384.684 145.514C385.244 149.19 386.611 153.48 390.007 155.53C394.203 158.191 399.102 156.617 403.125 155.025C408.315 152.972 413.001 148.004 415.193 142.665C410.657 141.227 406.02 143.599 402.24 145.566C398.33 147.601 394.246 150.503 391.175 154.019Z" fill="white"/>
<path d="M373.827 156.913C373.322 160.746 373.331 165.609 376.307 168.562C380.021 172.373 385.779 171.642 390.22 170.807C396.183 169.687 402.896 165.625 406.498 160.215C402.109 157.794 396.734 159.336 392.386 160.585L392.135 160.656C387.282 162.049 382.109 164.293 377.78 167.362C381.235 164.245 383.752 159.67 383.879 155.057C383.994 150.93 382.207 146.512 378.354 144.542C375.658 148.072 374.395 152.607 373.827 156.913Z" fill="white"/>
<path d="M370.497 184.994C365.733 184.894 359.196 184.325 356.531 179.404L356.494 179.336C354.366 175.176 356.529 170.314 358.253 166.715C360.303 162.437 363.103 158.078 367.106 154.949C370.947 158.263 370.575 163 369.43 167.116C368.066 172.011 363.354 176.181 358.475 178.555C364.124 176.454 370.292 175.194 376.16 174.825L376.757 174.787C381.472 174.484 387.608 174.089 391.36 177.541C385.676 182.364 377.608 185.144 370.497 184.994Z" fill="white"/>
</svg>
