<svg width="415" height="250" viewBox="0 0 415 250" fill="none" xmlns="http://www.w3.org/2000/svg">
<path d="M44.1277 86.1862C43.0118 81.5024 45.2914 77.1344 47.6659 73.5942C50.2797 69.6967 54.6408 66.2422 59.5114 65C58.6265 69.4188 56.0476 73.2303 53.5653 76.8138C51.0997 80.3739 47.99 83.9796 44.1277 86.1862Z" fill="white"/>
<path d="M40.7293 95.1708C41.6004 91.4616 41.5811 87.401 40.7518 83.9219C40.0226 80.8643 38.9615 76.5422 35.4692 75.0837C32.9307 79.1556 31.9102 84.7007 33.3897 88.8556C34.4594 91.861 36.3832 95.8345 40.373 96.4496C44.034 97.2935 47.736 95.3406 50.6597 93.7282C53.9107 91.9357 57.0951 89.0837 59.0299 85.6931C55.4807 83.9017 51.4388 85.3555 48.398 86.7487C45.1202 88.2507 42.109 91.4732 40.7293 95.1708Z" fill="white"/>
<path d="M29.4561 105.18C31.2565 107.926 34.0424 111.367 38.1045 111.269C41.7984 111.453 44.9898 108.933 47.5029 106.829C50.2095 104.562 52.6526 101.249 53.684 97.666C49.9059 96.5668 46.2887 98.6031 43.5913 100.524C40.7746 102.53 38.6083 106.201 38.1429 109.97C38.108 106.194 37.0858 102.294 35.438 99.1515C33.9314 96.2791 31.832 92.3963 28.0865 91.6201C26.6108 96.0896 27.0817 101.558 29.4561 105.18Z" fill="white"/>
<path d="M39.3056 126.062C35.5356 126.694 31.8582 124.384 29.4699 121.667C26.395 118.169 24.5655 113.476 24.9386 108.779C28.8116 108.877 31.7448 112.225 33.9129 114.756C36.2478 117.483 38.1609 121.07 39.0787 124.771C38.675 121.083 39.9132 117.101 42.2115 114.64C44.43 112.265 47.5377 109.676 51.4043 110.091C51.321 113.831 49.4465 117.394 47.5132 120.062C45.7111 122.548 42.9349 125.624 39.3056 126.062Z" fill="white"/>
<path d="M32.3419 138.488C35.8141 140.749 40.0252 142.986 44.4509 141.293C48.0817 140.008 50.3901 136.354 51.8099 132.999C53.3139 129.445 54.3184 125.346 53.623 121.456C49.6332 121.81 46.3249 124.665 44.5677 128.149C42.7307 131.792 42.3784 136.128 43.7895 139.947C41.7045 136.018 38.6554 132.839 35.4254 129.901C32.4892 127.231 28.2599 124.418 24 124.947C24.8105 130.214 28.0243 135.677 32.3419 138.488Z" fill="white"/>
<path d="M53.3943 155.53C56.8111 153.488 58.1862 149.19 58.7482 145.507C59.354 141.535 59.328 137.155 57.6784 133.387C53.7144 134.494 50.9933 138.062 50.0949 141.97C49.1456 146.098 49.9466 150.499 52.2557 154.014C49.1863 150.493 45.1049 147.585 41.1936 145.546C37.4155 143.577 32.7804 141.202 28.2432 142.636C30.4311 147.976 35.1114 152.947 40.2986 155.004C44.3157 156.596 49.2027 158.171 53.3943 155.53Z" fill="white"/>
<path d="M69.5932 156.913C70.0946 160.747 70.0804 165.609 67.1039 168.56C63.3844 172.367 57.628 171.633 53.1882 170.795C47.2276 169.67 40.518 165.604 36.9219 160.191C41.3138 157.773 46.6853 159.32 51.0334 160.572L51.2817 160.643C56.1353 162.04 61.3075 164.289 65.6331 167.362C62.1811 164.243 59.666 159.665 59.5428 155.05C59.4321 150.923 61.2236 146.507 65.0786 144.54C67.77 148.072 69.0303 152.607 69.5932 156.913Z" fill="white"/>
<path d="M86.8678 179.415C89.0598 175.242 86.888 170.345 85.1574 166.726C83.1114 162.447 80.3159 158.086 76.3152 154.954C72.4737 158.265 72.839 163.002 73.9811 167.119C75.3392 172.014 80.0475 176.187 84.923 178.565C79.2765 176.459 73.1098 175.195 67.2427 174.822L66.6484 174.784C61.935 174.477 55.7989 174.077 52.043 177.526C57.7218 182.354 65.788 185.139 72.8973 184.995C77.6615 184.898 84.1981 184.334 86.8678 179.415Z" fill="white"/>
<path d="M114.338 83.5661C114.338 85.2397 114.036 86.686 113.432 87.905C112.827 89.124 111.998 90.064 110.944 90.7252C109.891 91.3864 108.687 91.7169 107.334 91.7169C105.981 91.7169 104.777 91.3864 103.723 90.7252C102.67 90.064 101.841 89.124 101.236 87.905C100.632 86.686 100.33 85.2397 100.33 83.5661C100.33 81.8926 100.632 80.4463 101.236 79.2273C101.841 78.0083 102.67 77.0682 103.723 76.407C104.777 75.7459 105.981 75.4153 107.334 75.4153C108.687 75.4153 109.891 75.7459 110.944 76.407C111.998 77.0682 112.827 78.0083 113.432 79.2273C114.036 80.4463 114.338 81.8926 114.338 83.5661ZM112.479 83.5661C112.479 82.1921 112.249 81.0325 111.789 80.0873C111.334 79.142 110.717 78.4267 109.937 77.9411C109.162 77.4556 108.295 77.2128 107.334 77.2128C106.373 77.2128 105.503 77.4556 104.723 77.9411C103.948 78.4267 103.331 79.142 102.871 80.0873C102.417 81.0325 102.189 82.1921 102.189 83.5661C102.189 84.9401 102.417 86.0997 102.871 87.0449C103.331 87.9902 103.948 88.7056 104.723 89.1911C105.503 89.6767 106.373 89.9194 107.334 89.9194C108.295 89.9194 109.162 89.6767 109.937 89.1911C110.717 88.7056 111.334 87.9902 111.789 87.0449C112.249 86.0997 112.479 84.9401 112.479 83.5661ZM117.133 91.5V75.6322H126.647V77.3368H119.054V82.6983H125.934V84.4029H119.054V91.5H117.133ZM129.502 91.5V75.6322H139.016V77.3368H131.423V82.6983H138.303V84.4029H131.423V91.5H129.502ZM143.792 75.6322V91.5H141.871V75.6322H143.792ZM159.977 80.5909H158.056C157.942 80.0382 157.743 79.5527 157.459 79.1343C157.18 78.7159 156.839 78.3647 156.436 78.0806C156.039 77.7913 155.597 77.5744 155.111 77.4298C154.626 77.2851 154.12 77.2128 153.593 77.2128C152.632 77.2128 151.762 77.4556 150.982 77.9411C150.207 78.4267 149.59 79.142 149.13 80.0873C148.675 81.0325 148.448 82.1921 148.448 83.5661C148.448 84.9401 148.675 86.0997 149.13 87.0449C149.59 87.9902 150.207 88.7056 150.982 89.1911C151.762 89.6767 152.632 89.9194 153.593 89.9194C154.12 89.9194 154.626 89.8471 155.111 89.7025C155.597 89.5579 156.039 89.3435 156.436 89.0594C156.839 88.7701 157.18 88.4163 157.459 87.9979C157.743 87.5744 157.942 87.0888 158.056 86.5413H159.977C159.832 87.3523 159.569 88.078 159.187 88.7185C158.805 89.359 158.329 89.9039 157.761 90.3533C157.193 90.7975 156.555 91.1358 155.847 91.3683C155.145 91.6007 154.393 91.7169 153.593 91.7169C152.239 91.7169 151.036 91.3864 149.982 90.7252C148.928 90.064 148.099 89.124 147.495 87.905C146.891 86.686 146.589 85.2397 146.589 83.5661C146.589 81.8926 146.891 80.4463 147.495 79.2273C148.099 78.0083 148.928 77.0682 149.982 76.407C151.036 75.7459 152.239 75.4153 153.593 75.4153C154.393 75.4153 155.145 75.5315 155.847 75.7639C156.555 75.9964 157.193 76.3373 157.761 76.7867C158.329 77.2309 158.805 77.7732 159.187 78.4137C159.569 79.0491 159.832 79.7748 159.977 80.5909ZM164.567 75.6322V91.5H162.646V75.6322H164.567ZM168.634 91.5H166.62L172.446 75.6322H174.43L180.256 91.5H178.242L173.5 78.1426H173.376L168.634 91.5ZM169.378 85.3017H177.498V87.0062H169.378V85.3017ZM182.291 91.5V75.6322H184.213V89.7955H191.589V91.5H182.291ZM208.505 79.5992C208.412 78.814 208.035 78.2045 207.374 77.7707C206.713 77.3368 205.902 77.1198 204.941 77.1198C204.239 77.1198 203.624 77.2335 203.097 77.4607C202.576 77.688 202.168 78.0005 201.873 78.3982C201.584 78.796 201.439 79.2479 201.439 79.7541C201.439 80.1777 201.54 80.5418 201.742 80.8466C201.948 81.1462 202.212 81.3967 202.532 81.5981C202.852 81.7944 203.188 81.9571 203.539 82.0863C203.89 82.2102 204.213 82.311 204.508 82.3884L206.119 82.8223C206.532 82.9308 206.992 83.0806 207.498 83.2717C208.01 83.4628 208.498 83.7237 208.963 84.0542C209.433 84.3796 209.82 84.798 210.125 85.3094C210.43 85.8208 210.582 86.4483 210.582 87.1921C210.582 88.0496 210.357 88.8244 209.908 89.5165C209.464 90.2087 208.813 90.7588 207.955 91.1668C207.103 91.5749 206.067 91.7789 204.848 91.7789C203.712 91.7789 202.728 91.5956 201.896 91.2288C201.07 90.8621 200.419 90.3507 199.944 89.6947C199.474 89.0387 199.208 88.2769 199.146 87.4091H201.129C201.181 88.0083 201.383 88.5041 201.734 88.8967C202.09 89.2841 202.54 89.5733 203.082 89.7645C203.629 89.9504 204.218 90.0434 204.848 90.0434C205.582 90.0434 206.24 89.9246 206.824 89.687C207.408 89.4442 207.87 89.1085 208.211 88.6798C208.552 88.2459 208.722 87.7397 208.722 87.1612C208.722 86.6343 208.575 86.2056 208.281 85.875C207.986 85.5444 207.599 85.2758 207.119 85.0692C206.638 84.8626 206.119 84.6818 205.561 84.5269L203.609 83.969C202.369 83.6126 201.388 83.1038 200.665 82.4427C199.941 81.7815 199.58 80.9163 199.58 79.8471C199.58 78.9587 199.82 78.1839 200.3 77.5227C200.786 76.8564 201.437 76.3399 202.253 75.9731C203.074 75.6012 203.991 75.4153 205.003 75.4153C206.026 75.4153 206.935 75.5987 207.731 75.9654C208.526 76.327 209.156 76.8228 209.621 77.453C210.091 78.0832 210.339 78.7986 210.365 79.5992H208.505ZM213.305 91.5V75.6322H222.881V77.3368H215.226V82.6983H222.385V84.4029H215.226V89.7955H223.005V91.5H213.305ZM225.908 91.5V75.6322H227.83V89.7955H235.206V91.5H225.908ZM237.745 91.5V75.6322H247.321V77.3368H239.666V82.6983H246.825V84.4029H239.666V89.7955H247.445V91.5H237.745ZM263.117 80.5909H261.195C261.081 80.0382 260.883 79.5527 260.598 79.1343C260.32 78.7159 259.979 78.3647 259.576 78.0806C259.178 77.7913 258.736 77.5744 258.251 77.4298C257.765 77.2851 257.259 77.2128 256.732 77.2128C255.771 77.2128 254.901 77.4556 254.121 77.9411C253.346 78.4267 252.729 79.142 252.269 80.0873C251.815 81.0325 251.588 82.1921 251.588 83.5661C251.588 84.9401 251.815 86.0997 252.269 87.0449C252.729 87.9902 253.346 88.7056 254.121 89.1911C254.901 89.6767 255.771 89.9194 256.732 89.9194C257.259 89.9194 257.765 89.8471 258.251 89.7025C258.736 89.5579 259.178 89.3435 259.576 89.0594C259.979 88.7701 260.32 88.4163 260.598 87.9979C260.883 87.5744 261.081 87.0888 261.195 86.5413H263.117C262.972 87.3523 262.708 88.078 262.326 88.7185C261.944 89.359 261.469 89.9039 260.901 90.3533C260.332 90.7975 259.695 91.1358 258.987 91.3683C258.284 91.6007 257.533 91.7169 256.732 91.7169C255.379 91.7169 254.175 91.3864 253.122 90.7252C252.068 90.064 251.239 89.124 250.635 87.905C250.03 86.686 249.728 85.2397 249.728 83.5661C249.728 81.8926 250.03 80.4463 250.635 79.2273C251.239 78.0083 252.068 77.0682 253.122 76.407C254.175 75.7459 255.379 75.4153 256.732 75.4153C257.533 75.4153 258.284 75.5315 258.987 75.7639C259.695 75.9964 260.332 76.3373 260.901 76.7867C261.469 77.2309 261.944 77.7732 262.326 78.4137C262.708 79.0491 262.972 79.7748 263.117 80.5909ZM264.917 77.3368V75.6322H276.818V77.3368H271.829V91.5H269.907V77.3368H264.917ZM281.269 75.6322V91.5H279.347V75.6322H281.269ZM298.074 83.5661C298.074 85.2397 297.771 86.686 297.167 87.905C296.563 89.124 295.734 90.064 294.68 90.7252C293.626 91.3864 292.423 91.7169 291.069 91.7169C289.716 91.7169 288.513 91.3864 287.459 90.7252C286.405 90.064 285.576 89.124 284.972 87.905C284.367 86.686 284.065 85.2397 284.065 83.5661C284.065 81.8926 284.367 80.4463 284.972 79.2273C285.576 78.0083 286.405 77.0682 287.459 76.407C288.513 75.7459 289.716 75.4153 291.069 75.4153C292.423 75.4153 293.626 75.7459 294.68 76.407C295.734 77.0682 296.563 78.0083 297.167 79.2273C297.771 80.4463 298.074 81.8926 298.074 83.5661ZM296.214 83.5661C296.214 82.1921 295.984 81.0325 295.525 80.0873C295.07 79.142 294.453 78.4267 293.673 77.9411C292.898 77.4556 292.03 77.2128 291.069 77.2128C290.109 77.2128 289.238 77.4556 288.458 77.9411C287.684 78.4267 287.066 79.142 286.607 80.0873C286.152 81.0325 285.925 82.1921 285.925 83.5661C285.925 84.9401 286.152 86.0997 286.607 87.0449C287.066 87.9902 287.684 88.7056 288.458 89.1911C289.238 89.6767 290.109 89.9194 291.069 89.9194C292.03 89.9194 292.898 89.6767 293.673 89.1911C294.453 88.7056 295.07 87.9902 295.525 87.0449C295.984 86.0997 296.214 84.9401 296.214 83.5661ZM313.451 75.6322V91.5H311.591L302.945 79.0413H302.79V91.5H300.868V75.6322H302.728L311.405 88.1219H311.56V75.6322H313.451Z" fill="white"/>
<path d="M133.336 115.829V119.78H120.526V115.829H133.336ZM123.728 137.5V113.783C123.728 112.325 124.029 111.112 124.631 110.143C125.243 109.175 126.061 108.45 127.086 107.971C128.111 107.491 129.249 107.251 130.5 107.251C131.384 107.251 132.17 107.322 132.856 107.463C133.543 107.604 134.051 107.731 134.38 107.844L133.364 111.794C133.148 111.728 132.875 111.662 132.546 111.596C132.217 111.521 131.85 111.484 131.446 111.484C130.496 111.484 129.823 111.714 129.428 112.175C129.042 112.626 128.85 113.275 128.85 114.122V137.5H123.728ZM150.354 128.386V115.829H155.461V137.5H150.509V133.648H150.283C149.794 134.862 148.99 135.854 147.871 136.625C146.761 137.397 145.392 137.782 143.765 137.782C142.345 137.782 141.089 137.467 139.998 136.837C138.916 136.197 138.07 135.271 137.458 134.057C136.847 132.835 136.541 131.358 136.541 129.627V115.829H141.649V128.837C141.649 130.211 142.025 131.302 142.777 132.11C143.53 132.919 144.517 133.324 145.74 133.324C146.493 133.324 147.222 133.14 147.927 132.774C148.633 132.407 149.211 131.861 149.662 131.137C150.123 130.403 150.354 129.486 150.354 128.386ZM165.026 108.605V137.5H159.918V108.605H165.026ZM174.59 108.605V137.5H169.483V108.605H174.59ZM199.085 115.829V119.78H186.274V115.829H199.085ZM189.477 137.5V113.783C189.477 112.325 189.778 111.112 190.38 110.143C190.991 109.175 191.809 108.45 192.835 107.971C193.86 107.491 194.998 107.251 196.249 107.251C197.133 107.251 197.918 107.322 198.605 107.463C199.292 107.604 199.8 107.731 200.129 107.844L199.113 111.794C198.897 111.728 198.624 111.662 198.295 111.596C197.965 111.521 197.599 111.484 197.194 111.484C196.244 111.484 195.572 111.714 195.177 112.175C194.791 112.626 194.598 113.275 194.598 114.122V137.5H189.477ZM202.29 137.5V115.829H207.242V119.441H207.468C207.863 118.19 208.54 117.226 209.499 116.549C210.468 115.862 211.573 115.519 212.815 115.519C213.097 115.519 213.412 115.533 213.76 115.561C214.118 115.58 214.414 115.613 214.649 115.66V120.358C214.433 120.283 214.089 120.217 213.619 120.16C213.158 120.095 212.711 120.062 212.279 120.062C211.348 120.062 210.511 120.264 209.767 120.668C209.034 121.063 208.455 121.614 208.032 122.319C207.609 123.025 207.397 123.838 207.397 124.76V137.5H202.29ZM223.096 137.937C221.722 137.937 220.486 137.693 219.385 137.204C218.294 136.705 217.429 135.972 216.789 135.003C216.159 134.034 215.844 132.839 215.844 131.419C215.844 130.196 216.07 129.185 216.521 128.386C216.972 127.586 217.589 126.947 218.369 126.467C219.15 125.987 220.029 125.625 221.008 125.381C221.995 125.127 223.016 124.943 224.069 124.83C225.339 124.699 226.369 124.581 227.159 124.478C227.949 124.365 228.523 124.196 228.88 123.97C229.247 123.735 229.43 123.373 229.43 122.883V122.799C229.43 121.736 229.115 120.913 228.485 120.33C227.855 119.747 226.947 119.455 225.762 119.455C224.511 119.455 223.519 119.728 222.785 120.273C222.061 120.819 221.572 121.463 221.318 122.206L216.549 121.529C216.925 120.212 217.546 119.112 218.412 118.228C219.277 117.334 220.335 116.666 221.586 116.224C222.837 115.773 224.22 115.547 225.734 115.547C226.778 115.547 227.817 115.669 228.852 115.914C229.887 116.158 230.832 116.563 231.688 117.127C232.544 117.682 233.23 118.439 233.748 119.399C234.274 120.358 234.538 121.557 234.538 122.996V137.5H229.628V134.523H229.459C229.148 135.125 228.711 135.689 228.147 136.216C227.592 136.733 226.891 137.152 226.044 137.472C225.207 137.782 224.224 137.937 223.096 137.937ZM224.422 134.184C225.447 134.184 226.336 133.982 227.088 133.578C227.841 133.164 228.419 132.618 228.824 131.941C229.238 131.264 229.445 130.526 229.445 129.726V127.172C229.285 127.304 229.012 127.426 228.626 127.539C228.25 127.652 227.827 127.751 227.356 127.836C226.886 127.92 226.421 127.995 225.96 128.061C225.499 128.127 225.099 128.184 224.76 128.231C223.999 128.334 223.317 128.503 222.715 128.739C222.113 128.974 221.638 129.303 221.29 129.726C220.942 130.14 220.768 130.676 220.768 131.335C220.768 132.275 221.111 132.985 221.798 133.465C222.484 133.945 223.359 134.184 224.422 134.184ZM238.879 137.5V115.829H243.76V119.511H244.014C244.466 118.27 245.214 117.301 246.258 116.605C247.302 115.9 248.548 115.547 249.996 115.547C251.464 115.547 252.701 115.904 253.707 116.619C254.723 117.325 255.438 118.289 255.851 119.511H256.077C256.557 118.308 257.366 117.348 258.504 116.633C259.651 115.909 261.011 115.547 262.581 115.547C264.575 115.547 266.203 116.177 267.463 117.437C268.723 118.698 269.353 120.537 269.353 122.954V137.5H264.232V123.744C264.232 122.399 263.875 121.416 263.16 120.795C262.445 120.165 261.57 119.85 260.536 119.85C259.303 119.85 258.339 120.236 257.643 121.007C256.957 121.769 256.613 122.761 256.613 123.984V137.5H251.605V123.532C251.605 122.413 251.266 121.52 250.589 120.852C249.921 120.184 249.046 119.85 247.965 119.85C247.231 119.85 246.563 120.038 245.961 120.414C245.359 120.781 244.88 121.303 244.522 121.98C244.165 122.648 243.986 123.429 243.986 124.323V137.5H238.879ZM283.334 137.923C281.161 137.923 279.285 137.472 277.705 136.569C276.134 135.656 274.925 134.368 274.079 132.703C273.232 131.029 272.809 129.058 272.809 126.792C272.809 124.562 273.232 122.606 274.079 120.922C274.935 119.229 276.129 117.912 277.662 116.972C279.196 116.022 280.997 115.547 283.066 115.547C284.402 115.547 285.662 115.763 286.847 116.196C288.042 116.619 289.095 117.278 290.008 118.171C290.929 119.065 291.654 120.203 292.18 121.585C292.707 122.959 292.97 124.595 292.97 126.495V128.061H275.208V124.619H288.075C288.065 123.641 287.854 122.771 287.44 122.009C287.026 121.237 286.447 120.631 285.704 120.189C284.971 119.747 284.115 119.526 283.137 119.526C282.093 119.526 281.176 119.78 280.385 120.287C279.595 120.786 278.979 121.444 278.537 122.263C278.105 123.072 277.883 123.96 277.874 124.929V127.934C277.874 129.195 278.105 130.276 278.565 131.179C279.026 132.073 279.671 132.759 280.498 133.239C281.326 133.709 282.295 133.945 283.405 133.945C284.148 133.945 284.82 133.841 285.422 133.634C286.024 133.418 286.546 133.103 286.988 132.689C287.43 132.275 287.764 131.762 287.99 131.151L292.759 131.687C292.458 132.948 291.884 134.048 291.037 134.989C290.2 135.92 289.128 136.644 287.821 137.161C286.513 137.669 285.018 137.923 283.334 137.923Z" fill="white"/>
<path d="M184.399 171.5V170.105L189.636 164.372C190.251 163.7 190.757 163.117 191.155 162.621C191.553 162.12 191.847 161.65 192.038 161.211C192.235 160.767 192.333 160.302 192.333 159.816C192.333 159.258 192.198 158.775 191.93 158.367C191.666 157.959 191.305 157.644 190.845 157.422C190.385 157.2 189.869 157.089 189.296 157.089C188.686 157.089 188.154 157.215 187.699 157.468C187.25 157.716 186.901 158.065 186.653 158.514C186.411 158.964 186.289 159.491 186.289 160.095H184.461C184.461 159.165 184.675 158.349 185.104 157.647C185.533 156.944 186.116 156.397 186.855 156.004C187.599 155.612 188.433 155.415 189.358 155.415C190.287 155.415 191.111 155.612 191.829 156.004C192.547 156.397 193.11 156.926 193.518 157.592C193.926 158.259 194.13 159 194.13 159.816C194.13 160.4 194.024 160.971 193.813 161.528C193.606 162.081 193.244 162.698 192.728 163.38C192.217 164.057 191.506 164.883 190.597 165.86L187.033 169.671V169.795H194.409V171.5H184.399ZM202.348 171.717C201.181 171.717 200.187 171.399 199.365 170.764C198.544 170.123 197.917 169.196 197.483 167.982C197.049 166.763 196.832 165.291 196.832 163.566C196.832 161.851 197.049 160.387 197.483 159.173C197.922 157.954 198.552 157.024 199.373 156.384C200.2 155.738 201.191 155.415 202.348 155.415C203.505 155.415 204.495 155.738 205.316 156.384C206.142 157.024 206.772 157.954 207.206 159.173C207.645 160.387 207.865 161.851 207.865 163.566C207.865 165.291 207.648 166.763 207.214 167.982C206.78 169.196 206.153 170.123 205.331 170.764C204.51 171.399 203.516 171.717 202.348 171.717ZM202.348 170.012C203.505 170.012 204.404 169.455 205.045 168.339C205.685 167.223 206.005 165.632 206.005 163.566C206.005 162.192 205.858 161.022 205.564 160.056C205.274 159.09 204.856 158.354 204.309 157.848C203.766 157.342 203.113 157.089 202.348 157.089C201.202 157.089 200.305 157.654 199.66 158.786C199.014 159.912 198.691 161.505 198.691 163.566C198.691 164.94 198.836 166.107 199.125 167.068C199.414 168.029 199.83 168.76 200.373 169.261C200.92 169.762 201.579 170.012 202.348 170.012ZM210.373 171.5V170.105L215.61 164.372C216.225 163.7 216.731 163.117 217.129 162.621C217.527 162.12 217.821 161.65 218.012 161.211C218.208 160.767 218.307 160.302 218.307 159.816C218.307 159.258 218.172 158.775 217.904 158.367C217.64 157.959 217.279 157.644 216.819 157.422C216.359 157.2 215.843 157.089 215.269 157.089C214.66 157.089 214.128 157.215 213.673 157.468C213.224 157.716 212.875 158.065 212.627 158.514C212.385 158.964 212.263 159.491 212.263 160.095H210.435C210.435 159.165 210.649 158.349 211.078 157.647C211.506 156.944 212.09 156.397 212.829 156.004C213.573 155.612 214.407 155.415 215.331 155.415C216.261 155.415 217.085 155.612 217.803 156.004C218.521 156.397 219.084 156.926 219.492 157.592C219.9 158.259 220.104 159 220.104 159.816C220.104 160.4 219.998 160.971 219.786 161.528C219.58 162.081 219.218 162.698 218.702 163.38C218.19 164.057 217.48 164.883 216.571 165.86L213.007 169.671V169.795H220.383V171.5H210.373ZM228.725 155.632V171.5H226.804V157.647H226.711L222.837 160.219V158.267L226.804 155.632H228.725Z" fill="white"/>
<path d="M366.838 73.6038C369.208 77.1463 371.484 81.5164 370.365 86.1997C366.504 83.9897 363.398 80.3814 360.935 76.8193C358.455 73.2333 355.88 69.42 354.998 65C359.868 66.2457 364.228 69.7037 366.838 73.6038Z" fill="white"/>
<path d="M373.756 95.1908C372.38 91.4902 369.37 88.2635 366.094 86.7585C363.052 85.3629 359.012 83.9064 355.462 85.6948C357.394 89.0871 360.575 91.9415 363.824 93.7369C366.745 95.3511 370.445 97.3068 374.107 96.4662C378.098 95.8549 380.027 91.8818 381.1 88.8763C382.585 84.723 381.57 79.1764 379.035 75.1016C375.54 76.5581 374.474 80.8794 373.744 83.9369C372.911 87.4172 372.888 91.4796 373.756 95.1908Z" fill="white"/>
<path d="M370.887 100.539C373.701 102.546 375.861 106.215 376.325 109.982C376.365 106.208 377.392 102.311 379.041 99.1716C380.55 96.2998 382.655 92.4184 386.4 91.6448C387.871 96.1161 387.395 101.585 385.016 105.205C383.217 107.947 380.431 111.38 376.377 111.288C372.677 111.477 369.482 108.95 366.968 106.841C364.263 104.573 361.823 101.257 360.797 97.6735C364.574 96.5766 368.19 98.6159 370.887 100.539Z" fill="white"/>
<path d="M375.374 124.804C375.786 121.113 374.552 117.122 372.251 114.656C370.036 112.279 366.93 109.688 363.063 110.101C363.141 113.84 365.013 117.405 366.945 120.075C368.744 122.562 371.515 125.638 375.143 126.081C378.915 126.72 382.597 124.411 384.99 121.694C388.067 118.198 389.901 113.507 389.535 108.808C385.659 108.904 382.724 112.249 380.553 114.779C378.211 117.508 376.293 121.099 375.374 124.804Z" fill="white"/>
<path d="M369.882 128.165C371.716 131.811 372.065 136.148 370.65 139.966C372.737 136.037 375.791 132.86 379.024 129.924C381.962 127.256 386.195 124.446 390.454 124.978C389.641 130.245 386.42 135.707 382.1 138.514C378.628 140.769 374.421 143.002 370.001 141.316C366.364 140.033 364.055 136.371 362.636 133.01C361.134 129.454 360.133 125.355 360.834 121.465C364.822 121.822 368.129 124.679 369.882 128.165Z" fill="white"/>
<path d="M362.175 154.019C364.482 150.507 365.287 146.11 364.344 141.983C363.45 138.074 360.731 134.504 356.766 133.394C355.113 137.16 355.085 141.541 355.684 145.514C356.244 149.19 357.611 153.48 361.007 155.53C365.203 158.191 370.102 156.617 374.125 155.025C379.315 152.972 384.001 148.004 386.193 142.665C381.657 141.227 377.02 143.599 373.24 145.566C369.33 147.601 365.246 150.503 362.175 154.019Z" fill="white"/>
<path d="M344.827 156.913C344.322 160.746 344.331 165.609 347.307 168.562C351.021 172.373 356.779 171.642 361.22 170.807C367.183 169.687 373.896 165.625 377.498 160.215C373.109 157.794 367.734 159.336 363.386 160.585L363.135 160.656C358.282 162.049 353.109 164.293 348.78 167.362C352.235 164.245 354.752 159.67 354.879 155.057C354.994 150.93 353.207 146.512 349.354 144.542C346.658 148.072 345.395 152.607 344.827 156.913Z" fill="white"/>
<path d="M341.497 184.994C336.733 184.894 330.196 184.325 327.531 179.404L327.494 179.336C325.366 175.176 327.529 170.314 329.253 166.715C331.303 162.437 334.103 158.078 338.106 154.949C341.947 158.263 341.575 163 340.43 167.116C339.066 172.011 334.354 176.181 329.475 178.555C335.124 176.454 341.292 175.194 347.16 174.825L347.757 174.787C352.472 174.484 358.608 174.089 362.36 177.541C356.676 182.364 348.608 185.144 341.497 184.994Z" fill="white"/>
</svg>
