<svg width="488" height="250" viewBox="0 0 488 250" fill="none" xmlns="http://www.w3.org/2000/svg">
<path d="M44.1277 86.1862C43.0118 81.5024 45.2914 77.1344 47.6659 73.5942C50.2797 69.6967 54.6408 66.2422 59.5114 65C58.6265 69.4188 56.0476 73.2303 53.5653 76.8138C51.0997 80.3739 47.99 83.9796 44.1277 86.1862Z" fill="white"/>
<path d="M40.7293 95.1708C41.6004 91.4616 41.5811 87.401 40.7518 83.9219C40.0226 80.8643 38.9615 76.5422 35.4692 75.0837C32.9307 79.1556 31.9102 84.7007 33.3897 88.8556C34.4594 91.861 36.3832 95.8345 40.373 96.4496C44.034 97.2935 47.736 95.3406 50.6597 93.7282C53.9107 91.9357 57.0951 89.0837 59.0299 85.6931C55.4807 83.9017 51.4388 85.3555 48.398 86.7487C45.1202 88.2507 42.109 91.4732 40.7293 95.1708Z" fill="white"/>
<path d="M29.4561 105.18C31.2565 107.926 34.0424 111.367 38.1045 111.269C41.7984 111.453 44.9898 108.933 47.5029 106.829C50.2095 104.562 52.6526 101.249 53.684 97.666C49.9059 96.5668 46.2887 98.6031 43.5913 100.524C40.7746 102.53 38.6083 106.201 38.1429 109.97C38.108 106.194 37.0858 102.294 35.438 99.1515C33.9314 96.2791 31.832 92.3963 28.0865 91.6201C26.6108 96.0896 27.0817 101.558 29.4561 105.18Z" fill="white"/>
<path d="M39.3056 126.062C35.5356 126.694 31.8582 124.384 29.4699 121.667C26.395 118.169 24.5655 113.476 24.9386 108.779C28.8116 108.877 31.7448 112.225 33.9129 114.756C36.2478 117.483 38.1609 121.07 39.0787 124.771C38.675 121.083 39.9132 117.101 42.2115 114.64C44.43 112.265 47.5377 109.676 51.4043 110.091C51.321 113.831 49.4465 117.394 47.5132 120.062C45.7111 122.548 42.9349 125.624 39.3056 126.062Z" fill="white"/>
<path d="M32.3419 138.488C35.8141 140.749 40.0252 142.986 44.4509 141.293C48.0817 140.008 50.3901 136.354 51.8099 132.999C53.3139 129.445 54.3184 125.346 53.623 121.456C49.6332 121.81 46.3249 124.665 44.5677 128.149C42.7307 131.792 42.3784 136.128 43.7895 139.947C41.7045 136.018 38.6554 132.839 35.4254 129.901C32.4892 127.231 28.2599 124.418 24 124.947C24.8105 130.214 28.0243 135.677 32.3419 138.488Z" fill="white"/>
<path d="M53.3943 155.53C56.8111 153.488 58.1862 149.19 58.7482 145.507C59.354 141.535 59.328 137.155 57.6784 133.387C53.7144 134.494 50.9933 138.062 50.0949 141.97C49.1456 146.098 49.9466 150.499 52.2557 154.014C49.1863 150.493 45.1049 147.585 41.1936 145.546C37.4155 143.577 32.7804 141.202 28.2432 142.636C30.4311 147.976 35.1114 152.947 40.2986 155.004C44.3157 156.596 49.2027 158.171 53.3943 155.53Z" fill="white"/>
<path d="M69.5932 156.913C70.0946 160.747 70.0804 165.609 67.1039 168.56C63.3844 172.367 57.628 171.633 53.1882 170.795C47.2276 169.67 40.518 165.604 36.9219 160.191C41.3138 157.773 46.6853 159.32 51.0334 160.572L51.2817 160.643C56.1353 162.04 61.3075 164.289 65.6331 167.362C62.1811 164.243 59.666 159.665 59.5428 155.05C59.4321 150.923 61.2236 146.507 65.0786 144.54C67.77 148.072 69.0303 152.607 69.5932 156.913Z" fill="white"/>
<path d="M86.8678 179.415C89.0598 175.242 86.888 170.345 85.1574 166.726C83.1114 162.447 80.3159 158.086 76.3152 154.954C72.4737 158.265 72.839 163.002 73.9811 167.119C75.3392 172.014 80.0475 176.187 84.923 178.565C79.2765 176.459 73.1098 175.195 67.2427 174.822L66.6484 174.784C61.935 174.477 55.7989 174.077 52.043 177.526C57.7218 182.354 65.788 185.139 72.8973 184.995C77.6615 184.898 84.1981 184.334 86.8678 179.415Z" fill="white"/>
<path d="M117.508 51.1322V67H115.586V52.8368H107.591V67H105.669V51.1322H117.508ZM120.948 67V51.1322H126.309C127.554 51.1322 128.571 51.3569 129.362 51.8063C130.157 52.2505 130.746 52.8523 131.128 53.6116C131.511 54.3709 131.702 55.218 131.702 56.1529C131.702 57.0878 131.511 57.9375 131.128 58.702C130.751 59.4664 130.168 60.0759 129.377 60.5305C128.587 60.9799 127.575 61.2045 126.34 61.2045H122.497V59.5H126.278C127.13 59.5 127.815 59.3528 128.331 59.0584C128.848 58.7639 129.222 58.3662 129.455 57.8652C129.692 57.359 129.811 56.7882 129.811 56.1529C129.811 55.5176 129.692 54.9494 129.455 54.4483C129.222 53.9473 128.845 53.5548 128.324 53.2707C127.802 52.9814 127.11 52.8368 126.247 52.8368H122.869V67H120.948ZM134.361 51.1322H136.251V63.6219H136.406L145.084 51.1322H146.943V67H145.022V54.5413H144.867L136.22 67H134.361V51.1322ZM155.434 67.2169C154.412 67.2169 153.5 67.0413 152.699 66.6901C151.904 66.3388 151.271 65.8507 150.801 65.2257C150.336 64.5956 150.083 63.8647 150.042 63.0331H151.994C152.036 63.5444 152.211 63.9861 152.521 64.358C152.831 64.7247 153.237 65.0088 153.738 65.2102C154.239 65.4117 154.794 65.5124 155.403 65.5124C156.085 65.5124 156.69 65.3936 157.216 65.156C157.743 64.9184 158.157 64.5878 158.456 64.1643C158.756 63.7407 158.906 63.25 158.906 62.6921C158.906 62.1085 158.761 61.5945 158.472 61.1503C158.182 60.7009 157.759 60.3497 157.201 60.0966C156.643 59.8435 155.961 59.7169 155.156 59.7169H153.885V58.0124H155.156C155.786 58.0124 156.338 57.8988 156.814 57.6715C157.294 57.4442 157.668 57.124 157.937 56.7107C158.211 56.2975 158.348 55.812 158.348 55.2541C158.348 54.7169 158.229 54.2495 157.991 53.8518C157.754 53.454 157.418 53.1441 156.984 52.922C156.555 52.6999 156.049 52.5888 155.465 52.5888C154.918 52.5888 154.401 52.6896 153.916 52.891C153.435 53.0873 153.043 53.374 152.738 53.751C152.433 54.1229 152.268 54.5723 152.242 55.0992H150.383C150.414 54.2676 150.664 53.5393 151.134 52.9143C151.604 52.2841 152.219 51.7934 152.978 51.4421C153.743 51.0909 154.582 50.9153 155.496 50.9153C156.478 50.9153 157.32 51.1142 158.022 51.5119C158.725 51.9044 159.264 52.4236 159.642 53.0692C160.019 53.7149 160.207 54.4122 160.207 55.1612C160.207 56.0548 159.972 56.8166 159.502 57.4468C159.037 58.077 158.404 58.5134 157.604 58.7562V58.8802C158.606 59.0455 159.388 59.4716 159.951 60.1586C160.514 60.8404 160.796 61.6849 160.796 62.6921C160.796 63.5548 160.561 64.3295 160.091 65.0165C159.626 65.6983 158.991 66.2355 158.185 66.6281C157.379 67.0207 156.462 67.2169 155.434 67.2169ZM174.59 67.2169C173.567 67.2169 172.656 67.0413 171.855 66.6901C171.06 66.3388 170.427 65.8507 169.957 65.2257C169.492 64.5956 169.239 63.8647 169.198 63.0331H171.15C171.191 63.5444 171.367 63.9861 171.677 64.358C171.987 64.7247 172.392 65.0088 172.893 65.2102C173.394 65.4117 173.95 65.5124 174.559 65.5124C175.241 65.5124 175.845 65.3936 176.372 65.156C176.899 64.9184 177.312 64.5878 177.612 64.1643C177.911 63.7407 178.061 63.25 178.061 62.6921C178.061 62.1085 177.917 61.5945 177.627 61.1503C177.338 60.7009 176.914 60.3497 176.357 60.0966C175.799 59.8435 175.117 59.7169 174.311 59.7169H173.041V58.0124H174.311C174.941 58.0124 175.494 57.8988 175.969 57.6715C176.45 57.4442 176.824 57.124 177.093 56.7107C177.366 56.2975 177.503 55.812 177.503 55.2541C177.503 54.7169 177.385 54.2495 177.147 53.8518C176.909 53.454 176.574 53.1441 176.14 52.922C175.711 52.6999 175.205 52.5888 174.621 52.5888C174.074 52.5888 173.557 52.6896 173.072 52.891C172.591 53.0873 172.199 53.374 171.894 53.751C171.589 54.1229 171.424 54.5723 171.398 55.0992H169.538C169.569 54.2676 169.82 53.5393 170.29 52.9143C170.76 52.2841 171.375 51.7934 172.134 51.4421C172.898 51.0909 173.738 50.9153 174.652 50.9153C175.634 50.9153 176.475 51.1142 177.178 51.5119C177.88 51.9044 178.42 52.4236 178.797 53.0692C179.174 53.7149 179.363 54.4122 179.363 55.1612C179.363 56.0548 179.128 56.8166 178.658 57.4468C178.193 58.077 177.56 58.5134 176.76 58.7562V58.8802C177.762 59.0455 178.544 59.4716 179.107 60.1586C179.67 60.8404 179.952 61.6849 179.952 62.6921C179.952 63.5548 179.717 64.3295 179.247 65.0165C178.782 65.6983 178.146 66.2355 177.341 66.6281C176.535 67.0207 175.618 67.2169 174.59 67.2169ZM183.614 67H181.6L187.426 51.1322H189.409L195.236 67H193.221L188.48 53.6426H188.356L183.614 67ZM184.358 60.8017H192.478V62.5062H184.358V60.8017ZM201.607 67V65.2335H202.072C202.733 65.2335 203.247 65.0217 203.614 64.5981C203.981 64.1746 204.244 63.4902 204.404 62.5449C204.57 61.5997 204.681 60.3471 204.738 58.7872L205.017 51.1322H214.686V67H212.764V52.8368H206.845L206.597 59.1591C206.535 60.8223 206.383 62.2376 206.14 63.405C205.897 64.5723 205.471 65.4633 204.862 66.078C204.252 66.6927 203.364 67 202.196 67H201.607ZM218.925 67.2169V65.4194H219.917C220.299 65.4194 220.62 65.3445 220.878 65.1947C221.141 65.0449 221.358 64.8512 221.529 64.6136C221.704 64.376 221.849 64.1281 221.963 63.8698L222.211 63.281L216.725 51.1322H218.802L223.171 60.9876L227.169 51.1322H229.215L223.729 64.4277C223.512 64.9236 223.264 65.3833 222.985 65.8068C222.712 66.2304 222.337 66.5713 221.862 66.8295C221.392 67.0878 220.754 67.2169 219.948 67.2169H218.925ZM231.422 51.1322H233.344V56.4318C233.344 57.2169 233.481 57.8342 233.754 58.2836C234.028 58.7278 234.416 59.0429 234.917 59.2288C235.418 59.4096 236.009 59.5 236.691 59.5C237.12 59.5 237.535 59.4845 237.938 59.4535C238.341 59.4174 238.734 59.3683 239.116 59.3063C239.503 59.2443 239.881 59.1694 240.247 59.0816C240.619 58.9938 240.983 58.8957 241.34 58.7872V60.5227C240.994 60.6312 240.65 60.7293 240.309 60.8171C239.974 60.905 239.622 60.9799 239.256 61.0418C238.894 61.1038 238.504 61.1529 238.086 61.189C237.667 61.22 237.202 61.2355 236.691 61.2355C235.596 61.2355 234.653 61.078 233.863 60.7629C233.078 60.4478 232.474 59.939 232.05 59.2366C231.632 58.5341 231.422 57.5992 231.422 56.4318V51.1322ZM241.092 51.1322H243.013V67H241.092V51.1322ZM246.428 51.1322H248.349V65.2335H253.928V51.1322H255.849V65.2335H261.428V51.1322H263.349V67H246.428V51.1322ZM266.765 51.1322H268.656V63.6219H268.811L277.489 51.1322H279.348V67H277.427V54.5413H277.272L268.625 67H266.765V51.1322ZM282.757 51.1322H284.647V63.6219H284.802L293.48 51.1322H295.339V67H293.418V54.5413H293.263L284.616 67H282.757V51.1322ZM290.567 47.1653H292.271C292.271 48.0021 291.982 48.6865 291.403 49.2185C290.825 49.7505 290.04 50.0165 289.048 50.0165C288.072 50.0165 287.294 49.7505 286.716 49.2185C286.142 48.6865 285.856 48.0021 285.856 47.1653H287.56C287.56 47.5682 287.671 47.922 287.893 48.2268C288.121 48.5315 288.506 48.6839 289.048 48.6839C289.59 48.6839 289.978 48.5315 290.21 48.2268C290.448 47.922 290.567 47.5682 290.567 47.1653ZM309.902 53.0227H312.413C313.59 53.0227 314.636 53.2862 315.551 53.813C316.465 54.3399 317.183 55.0733 317.705 56.0134C318.226 56.9535 318.487 58.0434 318.487 59.2831C318.487 60.5227 318.226 61.6152 317.705 62.5604C317.183 63.5057 316.465 64.2443 315.551 64.7763C314.636 65.3084 313.59 65.5744 312.413 65.5744H309.902C308.725 65.5744 307.679 65.311 306.764 64.7841C305.85 64.2572 305.132 63.5238 304.611 62.5837C304.089 61.6436 303.828 60.5537 303.828 59.314C303.828 58.0744 304.089 56.9819 304.611 56.0367C305.132 55.0914 305.85 54.3528 306.764 53.8208C307.679 53.2887 308.725 53.0227 309.902 53.0227ZM309.902 54.7273C309.004 54.7273 308.244 54.9158 307.624 55.2929C307.01 55.6699 306.542 56.202 306.222 56.8889C305.907 57.5759 305.749 58.3843 305.749 59.314C305.749 60.2335 305.907 61.0341 306.222 61.7159C306.542 62.3977 307.01 62.9272 307.624 63.3042C308.244 63.6813 309.004 63.8698 309.902 63.8698H312.413C313.311 63.8698 314.068 63.6813 314.683 63.3042C315.303 62.9272 315.77 62.3951 316.085 61.7082C316.405 61.0212 316.566 60.2128 316.566 59.2831C316.566 58.3636 316.405 57.563 316.085 56.8812C315.77 56.1994 315.303 55.6699 314.683 55.2929C314.068 54.9158 313.311 54.7273 312.413 54.7273H309.902ZM312.134 50.8533V67.6508H310.212V50.8533H312.134ZM321.27 51.1322H323.16V63.6219H323.315L331.993 51.1322H333.853V67H331.931V54.5413H331.776L323.129 67H321.27V51.1322ZM335.898 67V65.2335H336.362C337.024 65.2335 337.538 65.0217 337.904 64.5981C338.271 64.1746 338.534 63.4902 338.695 62.5449C338.86 61.5997 338.971 60.3471 339.028 58.7872L339.307 51.1322H348.976V67H347.055V52.8368H341.135L340.887 59.1591C340.825 60.8223 340.673 62.2376 340.43 63.405C340.187 64.5723 339.761 65.4633 339.152 66.078C338.542 66.6927 337.654 67 336.486 67H335.898ZM353.804 57.7955H358.329C359.466 57.7955 360.424 57.9814 361.204 58.3533C361.989 58.7252 362.583 59.2495 362.986 59.9261C363.394 60.6028 363.598 61.4008 363.598 62.3202C363.598 63.2397 363.394 64.0506 362.986 64.7531C362.583 65.4556 361.989 66.0057 361.204 66.4034C360.424 66.8011 359.466 67 358.329 67H352.379V51.1322H354.3V65.3264H358.329C359.052 65.3264 359.664 65.1818 360.165 64.8926C360.672 64.5981 361.054 64.2211 361.312 63.7614C361.576 63.2965 361.707 62.8058 361.707 62.2893C361.707 61.53 361.415 60.8765 360.832 60.329C360.248 59.7763 359.414 59.5 358.329 59.5H353.804V57.7955ZM366.197 51.1322H368.49L373.883 64.3037H374.069L379.461 51.1322H381.755V67H379.957V54.9442H379.802L374.843 67H373.108L368.149 54.9442H367.994V67H366.197V51.1322Z" fill="white"/>
<path d="M126.366 93.8545H121.089C120.939 92.9892 120.662 92.2226 120.257 91.5548C119.853 90.8776 119.349 90.3039 118.747 89.8336C118.145 89.3633 117.459 89.0106 116.688 88.7754C115.926 88.5309 115.103 88.4086 114.219 88.4086C112.648 88.4086 111.256 88.8036 110.042 89.5937C108.829 90.3744 107.879 91.5219 107.192 93.0362C106.506 94.5412 106.163 96.38 106.163 98.5527C106.163 100.763 106.506 102.625 107.192 104.14C107.888 105.645 108.838 106.783 110.042 107.554C111.256 108.316 112.643 108.697 114.204 108.697C115.07 108.697 115.879 108.584 116.631 108.358C117.393 108.123 118.075 107.78 118.677 107.328C119.288 106.877 119.801 106.322 120.215 105.663C120.638 105.005 120.93 104.253 121.089 103.406L126.366 103.434C126.169 104.808 125.741 106.096 125.082 107.3C124.433 108.504 123.582 109.567 122.529 110.489C121.475 111.401 120.243 112.116 118.832 112.633C117.421 113.141 115.855 113.395 114.134 113.395C111.594 113.395 109.328 112.807 107.334 111.631C105.34 110.456 103.769 108.758 102.621 106.538C101.474 104.318 100.9 101.657 100.9 98.5527C100.9 95.4394 101.478 92.7776 102.635 90.5672C103.792 88.3475 105.368 86.6497 107.362 85.474C109.356 84.2983 111.613 83.7104 114.134 83.7104C115.742 83.7104 117.238 83.9361 118.62 84.3876C120.003 84.8391 121.235 85.5022 122.317 86.3769C123.399 87.2423 124.287 88.3051 124.983 89.5655C125.689 90.8165 126.15 92.2462 126.366 93.8545ZM133.726 113H128.139L138.312 84.1055H144.773L154.96 113H149.373L141.655 90.0311H141.43L133.726 113ZM133.91 101.671H149.147V105.875H133.91V101.671ZM157.971 113V84.1055H168.807C171.026 84.1055 172.889 84.5193 174.394 85.347C175.908 86.1747 177.051 87.3128 177.822 88.7613C178.603 90.2004 178.993 91.837 178.993 93.6711C178.993 95.5241 178.603 97.1701 177.822 98.6092C177.041 100.048 175.889 101.182 174.365 102.009C172.842 102.828 170.965 103.237 168.736 103.237H161.555V98.9337H168.031C169.329 98.9337 170.391 98.7079 171.219 98.2564C172.047 97.805 172.658 97.1842 173.053 96.3941C173.458 95.604 173.66 94.6964 173.66 93.6711C173.66 92.6459 173.458 91.7429 173.053 90.9623C172.658 90.1816 172.042 89.5749 171.205 89.1422C170.377 88.7002 169.31 88.4791 168.002 88.4791H163.205V113H157.971ZM183.235 113H177.648L187.82 84.1055H194.282L204.469 113H198.882L191.164 90.0311H190.939L183.235 113ZM183.419 101.671H198.656V105.875H183.419V101.671ZM202.718 88.4933V84.1055H225.772V88.4933H216.841V113H211.649V88.4933H202.718ZM253.96 98.5527C253.96 101.666 253.377 104.333 252.21 106.552C251.054 108.763 249.473 110.456 247.47 111.631C245.476 112.807 243.214 113.395 240.684 113.395C238.154 113.395 235.887 112.807 233.883 111.631C231.889 110.446 230.309 108.749 229.143 106.538C227.986 104.318 227.407 101.657 227.407 98.5527C227.407 95.4394 227.986 92.7776 229.143 90.5672C230.309 88.3475 231.889 86.6497 233.883 85.474C235.887 84.2983 238.154 83.7104 240.684 83.7104C243.214 83.7104 245.476 84.2983 247.47 85.474C249.473 86.6497 251.054 88.3475 252.21 90.5672C253.377 92.7776 253.96 95.4394 253.96 98.5527ZM248.697 98.5527C248.697 96.3612 248.354 94.5129 247.667 93.008C246.99 91.4937 246.05 90.3509 244.846 89.5796C243.642 88.7989 242.254 88.4086 240.684 88.4086C239.113 88.4086 237.726 88.7989 236.522 89.5796C235.318 90.3509 234.372 91.4937 233.686 93.008C233.009 94.5129 232.67 96.3612 232.67 98.5527C232.67 100.744 233.009 102.597 233.686 104.112C234.372 105.616 235.318 106.759 236.522 107.54C237.726 108.311 239.113 108.697 240.684 108.697C242.254 108.697 243.642 108.311 244.846 107.54C246.05 106.759 246.99 105.616 247.667 104.112C248.354 102.597 248.697 100.744 248.697 98.5527ZM258.114 113V84.1055H269.175C271.263 84.1055 272.999 84.4347 274.381 85.0931C275.773 85.7421 276.813 86.6309 277.499 87.7596C278.195 88.8883 278.543 90.1675 278.543 91.5972C278.543 92.7729 278.318 93.7793 277.866 94.6164C277.415 95.4441 276.808 96.1166 276.046 96.6339C275.284 97.1513 274.433 97.5228 273.492 97.7485V98.0307C274.518 98.0871 275.501 98.4022 276.441 98.976C277.391 99.5403 278.167 100.34 278.769 101.374C279.371 102.409 279.672 103.66 279.672 105.127C279.672 106.623 279.31 107.968 278.586 109.162C277.861 110.348 276.77 111.283 275.312 111.97C273.855 112.657 272.02 113 269.81 113H258.114ZM263.348 108.626H268.978C270.878 108.626 272.246 108.264 273.083 107.54C273.93 106.806 274.353 105.866 274.353 104.718C274.353 103.862 274.141 103.091 273.718 102.404C273.295 101.708 272.693 101.163 271.912 100.768C271.132 100.363 270.2 100.161 269.119 100.161H263.348V108.626ZM263.348 96.3941H268.526C269.429 96.3941 270.243 96.2295 270.967 95.9003C271.691 95.5617 272.26 95.0867 272.674 94.4753C273.097 93.8545 273.309 93.1209 273.309 92.2744C273.309 91.1551 272.914 90.2333 272.124 89.5091C271.343 88.7848 270.182 88.4227 268.639 88.4227H263.348V96.3941ZM308.163 93.8545H302.887C302.736 92.9892 302.459 92.2226 302.054 91.5548C301.65 90.8776 301.147 90.3039 300.545 89.8336C299.943 89.3633 299.256 89.0106 298.485 88.7754C297.723 88.5309 296.9 88.4086 296.016 88.4086C294.445 88.4086 293.053 88.8036 291.84 89.5937C290.626 90.3744 289.676 91.5219 288.99 93.0362C288.303 94.5412 287.96 96.38 287.96 98.5527C287.96 100.763 288.303 102.625 288.99 104.14C289.686 105.645 290.636 106.783 291.84 107.554C293.053 108.316 294.44 108.697 296.002 108.697C296.867 108.697 297.676 108.584 298.428 108.358C299.19 108.123 299.872 107.78 300.474 107.328C301.086 106.877 301.598 106.322 302.012 105.663C302.435 105.005 302.727 104.253 302.887 103.406L308.163 103.434C307.966 104.808 307.538 106.096 306.88 107.3C306.231 108.504 305.379 109.567 304.326 110.489C303.272 111.401 302.04 112.116 300.629 112.633C299.219 113.141 297.652 113.395 295.931 113.395C293.392 113.395 291.125 112.807 289.131 111.631C287.137 110.456 285.566 108.758 284.419 106.538C283.271 104.318 282.697 101.657 282.697 98.5527C282.697 95.4394 283.276 92.7776 284.433 90.5672C285.59 88.3475 287.165 86.6497 289.159 85.474C291.153 84.2983 293.41 83.7104 295.931 83.7104C297.54 83.7104 299.035 83.9361 300.418 84.3876C301.8 84.8391 303.033 85.5022 304.114 86.3769C305.196 87.2423 306.085 88.3051 306.781 89.5655C307.486 90.8165 307.947 92.2462 308.163 93.8545ZM329.474 113L319.964 100.373H317.397V113H312.162V84.1055H317.397V95.9849H318.709L328.98 84.1055H335.427L324.014 97.2829L335.921 113H329.474ZM338.682 84.1055H343.874V103.801H344.142L357.729 84.1055H362.427V113H357.193V93.3184H356.953L343.324 113H338.682V84.1055ZM367.336 113V84.1055H386.128V88.4933H372.57V96.3377H385.155V100.725H372.57V108.612H386.241V113H367.336ZM148.23 141.855H142.953C142.803 140.989 142.525 140.223 142.121 139.555C141.717 138.878 141.213 138.304 140.611 137.834C140.009 137.363 139.323 137.011 138.551 136.775C137.79 136.531 136.967 136.409 136.082 136.409C134.512 136.409 133.12 136.804 131.906 137.594C130.693 138.374 129.743 139.522 129.056 141.036C128.37 142.541 128.026 144.38 128.026 146.553C128.026 148.763 128.37 150.625 129.056 152.14C129.752 153.645 130.702 154.783 131.906 155.554C133.12 156.316 134.507 156.697 136.068 156.697C136.934 156.697 137.743 156.584 138.495 156.358C139.257 156.123 139.939 155.78 140.541 155.328C141.152 154.877 141.665 154.322 142.079 153.663C142.502 153.005 142.793 152.253 142.953 151.406L148.23 151.434C148.033 152.808 147.605 154.096 146.946 155.3C146.297 156.504 145.446 157.567 144.392 158.489C143.339 159.401 142.107 160.116 140.696 160.633C139.285 161.141 137.719 161.395 135.998 161.395C133.458 161.395 131.191 160.807 129.197 159.631C127.203 158.456 125.633 156.758 124.485 154.538C123.338 152.318 122.764 149.657 122.764 146.553C122.764 143.439 123.342 140.778 124.499 138.567C125.656 136.347 127.232 134.65 129.226 133.474C131.22 132.298 133.477 131.71 135.998 131.71C137.606 131.71 139.102 131.936 140.484 132.388C141.867 132.839 143.099 133.502 144.181 134.377C145.263 135.242 146.151 136.305 146.847 137.566C147.553 138.816 148.014 140.246 148.23 141.855ZM150.959 136.493V132.105H174.013V136.493H165.082V161H159.89V136.493H150.959ZM177.662 161V132.105H188.498C190.717 132.105 192.58 132.519 194.085 133.347C195.599 134.175 196.742 135.313 197.513 136.761C198.294 138.2 198.684 139.837 198.684 141.671C198.684 143.524 198.294 145.17 197.513 146.609C196.732 148.048 195.58 149.182 194.057 150.009C192.533 150.828 190.656 151.237 188.427 151.237H181.246V146.934H187.722C189.02 146.934 190.083 146.708 190.91 146.256C191.738 145.805 192.349 145.184 192.744 144.394C193.149 143.604 193.351 142.696 193.351 141.671C193.351 140.646 193.149 139.743 192.744 138.962C192.349 138.182 191.733 137.575 190.896 137.142C190.068 136.7 189.001 136.479 187.694 136.479H182.897V161H177.662ZM202.926 161H197.339L207.512 132.105H213.973L224.16 161H218.573L210.855 138.031H210.63L202.926 161ZM203.11 149.671H218.347V153.875H203.11V149.671ZM225.295 167.97V156.725H227.228C227.877 156.208 228.483 155.479 229.048 154.538C229.612 153.598 230.092 152.309 230.487 150.672C230.882 149.036 231.154 146.92 231.305 144.324L232.067 132.105H250.535V156.725H253.752V167.941H248.729V161H230.317V167.97H225.295ZM233.322 156.725H245.512V136.493H236.779L236.328 144.324C236.205 146.289 236.008 148.048 235.735 149.6C235.462 151.152 235.119 152.521 234.705 153.706C234.291 154.882 233.83 155.888 233.322 156.725ZM260.932 161H255.345L265.517 132.105H271.979L282.166 161H276.579L268.861 138.031H268.635L260.932 161ZM261.116 149.671H276.353V153.875H261.116V149.671ZM285.177 161V132.105H290.411V144.338H303.8V132.105H309.049V161H303.8V148.725H290.411V161H285.177ZM313.947 132.105H319.139V151.801H319.407L332.994 132.105H337.692V161H332.458V141.318H332.218L318.589 161H313.947V132.105ZM363.933 161H358.685V136.479H353.888C352.59 136.479 351.522 136.672 350.685 137.058C349.857 137.434 349.241 137.989 348.837 138.722C348.442 139.447 348.244 140.321 348.244 141.347C348.244 142.372 348.442 143.237 348.837 143.943C349.232 144.639 349.843 145.17 350.671 145.537C351.508 145.894 352.571 146.073 353.859 146.073H360.886V150.419H353.154C350.934 150.419 349.062 150.052 347.539 149.318C346.015 148.575 344.858 147.526 344.068 146.172C343.287 144.808 342.897 143.2 342.897 141.347C342.897 139.503 343.283 137.89 344.054 136.507C344.835 135.115 345.982 134.034 347.496 133.262C349.011 132.491 350.873 132.105 353.083 132.105H363.933V161ZM348.992 147.907H354.706L347.68 161H341.839L348.992 147.907Z" fill="white"/>
<path d="M220.899 196V194.605L226.136 188.872C226.751 188.2 227.257 187.617 227.655 187.121C228.053 186.62 228.347 186.15 228.538 185.711C228.735 185.267 228.833 184.802 228.833 184.316C228.833 183.758 228.698 183.275 228.43 182.867C228.166 182.459 227.805 182.144 227.345 181.922C226.885 181.7 226.369 181.589 225.796 181.589C225.186 181.589 224.654 181.715 224.199 181.968C223.75 182.216 223.401 182.565 223.153 183.014C222.911 183.464 222.789 183.991 222.789 184.595H220.961C220.961 183.665 221.175 182.849 221.604 182.147C222.033 181.444 222.616 180.897 223.355 180.504C224.099 180.112 224.933 179.915 225.858 179.915C226.787 179.915 227.611 180.112 228.329 180.504C229.047 180.897 229.61 181.426 230.018 182.092C230.426 182.759 230.63 183.5 230.63 184.316C230.63 184.9 230.524 185.471 230.313 186.028C230.106 186.581 229.744 187.198 229.228 187.88C228.717 188.557 228.006 189.383 227.097 190.36L223.533 194.171V194.295H230.909V196H220.899ZM238.848 196.217C237.681 196.217 236.687 195.899 235.865 195.264C235.044 194.623 234.417 193.696 233.983 192.482C233.549 191.263 233.332 189.791 233.332 188.066C233.332 186.351 233.549 184.887 233.983 183.673C234.422 182.454 235.052 181.524 235.873 180.884C236.7 180.238 237.691 179.915 238.848 179.915C240.005 179.915 240.995 180.238 241.816 180.884C242.642 181.524 243.272 182.454 243.706 183.673C244.145 184.887 244.365 186.351 244.365 188.066C244.365 189.791 244.148 191.263 243.714 192.482C243.28 193.696 242.653 194.623 241.831 195.264C241.01 195.899 240.016 196.217 238.848 196.217ZM238.848 194.512C240.005 194.512 240.904 193.955 241.545 192.839C242.185 191.723 242.505 190.132 242.505 188.066C242.505 186.692 242.358 185.522 242.064 184.556C241.774 183.59 241.356 182.854 240.809 182.348C240.266 181.842 239.613 181.589 238.848 181.589C237.702 181.589 236.805 182.154 236.16 183.286C235.514 184.412 235.191 186.005 235.191 188.066C235.191 189.44 235.336 190.607 235.625 191.568C235.914 192.529 236.33 193.26 236.873 193.761C237.42 194.262 238.079 194.512 238.848 194.512ZM246.873 196V194.605L252.11 188.872C252.725 188.2 253.231 187.617 253.629 187.121C254.027 186.62 254.321 186.15 254.512 185.711C254.708 185.267 254.807 184.802 254.807 184.316C254.807 183.758 254.672 183.275 254.404 182.867C254.14 182.459 253.779 182.144 253.319 181.922C252.859 181.7 252.343 181.589 251.769 181.589C251.16 181.589 250.628 181.715 250.173 181.968C249.724 182.216 249.375 182.565 249.127 183.014C248.885 183.464 248.763 183.991 248.763 184.595H246.935C246.935 183.665 247.149 182.849 247.578 182.147C248.006 181.444 248.59 180.897 249.329 180.504C250.073 180.112 250.907 179.915 251.831 179.915C252.761 179.915 253.585 180.112 254.303 180.504C255.021 180.897 255.584 181.426 255.992 182.092C256.4 182.759 256.604 183.5 256.604 184.316C256.604 184.9 256.498 185.471 256.286 186.028C256.08 186.581 255.718 187.198 255.202 187.88C254.69 188.557 253.98 189.383 253.071 190.36L249.507 194.171V194.295H256.883V196H246.873ZM265.225 180.132V196H263.304V182.147H263.211L259.337 184.719V182.767L263.304 180.132H265.225Z" fill="white"/>
<path d="M439.838 73.6038C442.208 77.1463 444.484 81.5164 443.365 86.1997C439.504 83.9897 436.398 80.3814 433.935 76.8193C431.455 73.2333 428.88 69.42 427.998 65C432.868 66.2457 437.228 69.7037 439.838 73.6038Z" fill="white"/>
<path d="M446.756 95.1908C445.38 91.4902 442.37 88.2635 439.094 86.7585C436.052 85.3629 432.012 83.9064 428.462 85.6948C430.394 89.0871 433.575 91.9415 436.824 93.7369C439.745 95.3511 443.445 97.3068 447.107 96.4662C451.098 95.8549 453.027 91.8818 454.1 88.8763C455.585 84.723 454.57 79.1764 452.035 75.1016C448.54 76.5581 447.474 80.8794 446.744 83.9369C445.911 87.4172 445.888 91.4796 446.756 95.1908Z" fill="white"/>
<path d="M443.887 100.539C446.701 102.546 448.861 106.215 449.325 109.982C449.365 106.208 450.392 102.311 452.041 99.1716C453.55 96.2998 455.655 92.4184 459.4 91.6448C460.871 96.1161 460.395 101.585 458.016 105.205C456.217 107.947 453.431 111.38 449.377 111.288C445.677 111.477 442.482 108.95 439.968 106.841C437.263 104.573 434.823 101.257 433.797 97.6735C437.574 96.5766 441.19 98.6159 443.887 100.539Z" fill="white"/>
<path d="M448.374 124.804C448.786 121.113 447.552 117.122 445.251 114.656C443.036 112.279 439.93 109.688 436.063 110.101C436.141 113.84 438.013 117.405 439.945 120.075C441.744 122.562 444.515 125.638 448.143 126.081C451.915 126.72 455.597 124.411 457.99 121.694C461.067 118.198 462.901 113.507 462.535 108.808C458.659 108.904 455.724 112.249 453.553 114.779C451.211 117.508 449.293 121.099 448.374 124.804Z" fill="white"/>
<path d="M442.882 128.165C444.716 131.811 445.065 136.148 443.65 139.966C445.737 136.037 448.791 132.86 452.024 129.924C454.962 127.256 459.195 124.446 463.454 124.978C462.641 130.245 459.42 135.707 455.1 138.514C451.628 140.769 447.421 143.002 443.001 141.316C439.364 140.033 437.055 136.371 435.636 133.01C434.134 129.454 433.133 125.355 433.834 121.465C437.822 121.822 441.129 124.679 442.882 128.165Z" fill="white"/>
<path d="M435.175 154.019C437.482 150.507 438.287 146.11 437.344 141.983C436.45 138.074 433.731 134.504 429.766 133.394C428.113 137.16 428.085 141.541 428.684 145.514C429.244 149.19 430.611 153.48 434.007 155.53C438.203 158.191 443.102 156.617 447.125 155.025C452.315 152.972 457.001 148.004 459.193 142.665C454.657 141.227 450.02 143.599 446.24 145.566C442.33 147.601 438.246 150.503 435.175 154.019Z" fill="white"/>
<path d="M417.827 156.913C417.322 160.746 417.331 165.609 420.307 168.562C424.021 172.373 429.779 171.642 434.22 170.807C440.183 169.687 446.896 165.625 450.498 160.215C446.109 157.794 440.734 159.336 436.386 160.585L436.135 160.656C431.282 162.049 426.109 164.293 421.78 167.362C425.235 164.245 427.752 159.67 427.879 155.057C427.994 150.93 426.207 146.512 422.354 144.542C419.658 148.072 418.395 152.607 417.827 156.913Z" fill="white"/>
<path d="M414.497 184.994C409.733 184.894 403.196 184.325 400.531 179.404L400.494 179.336C398.366 175.176 400.529 170.314 402.253 166.715C404.303 162.437 407.103 158.078 411.106 154.949C414.947 158.263 414.575 163 413.43 167.116C412.066 172.011 407.354 176.181 402.475 178.555C408.124 176.454 414.292 175.194 420.16 174.825L420.757 174.787C425.472 174.484 431.608 174.089 435.36 177.541C429.676 182.364 421.608 185.144 414.497 184.994Z" fill="white"/>
</svg>
