<svg width="497" height="250" viewBox="0 0 497 250" fill="none" xmlns="http://www.w3.org/2000/svg">
<path d="M44.1277 86.1862C43.0118 81.5024 45.2914 77.1344 47.6659 73.5942C50.2797 69.6967 54.6408 66.2422 59.5114 65C58.6265 69.4188 56.0476 73.2303 53.5653 76.8138C51.0997 80.3739 47.99 83.9796 44.1277 86.1862Z" fill="white"/>
<path d="M40.7293 95.1708C41.6004 91.4616 41.5811 87.401 40.7518 83.9219C40.0226 80.8643 38.9615 76.5422 35.4692 75.0837C32.9307 79.1556 31.9102 84.7007 33.3897 88.8556C34.4594 91.861 36.3832 95.8345 40.373 96.4496C44.034 97.2935 47.736 95.3406 50.6597 93.7282C53.9107 91.9357 57.0951 89.0837 59.0299 85.6931C55.4807 83.9017 51.4388 85.3555 48.398 86.7487C45.1202 88.2507 42.109 91.4732 40.7293 95.1708Z" fill="white"/>
<path d="M29.4561 105.18C31.2565 107.926 34.0424 111.367 38.1045 111.269C41.7984 111.453 44.9898 108.933 47.5029 106.829C50.2095 104.562 52.6526 101.249 53.684 97.666C49.9059 96.5668 46.2887 98.6031 43.5913 100.524C40.7746 102.53 38.6083 106.201 38.1429 109.97C38.108 106.194 37.0858 102.294 35.438 99.1515C33.9314 96.2791 31.832 92.3963 28.0865 91.6201C26.6108 96.0896 27.0817 101.558 29.4561 105.18Z" fill="white"/>
<path d="M39.3056 126.062C35.5356 126.694 31.8582 124.384 29.4699 121.667C26.395 118.169 24.5655 113.476 24.9386 108.779C28.8116 108.877 31.7448 112.225 33.9129 114.756C36.2478 117.483 38.1609 121.07 39.0787 124.771C38.675 121.083 39.9132 117.101 42.2115 114.64C44.43 112.265 47.5377 109.676 51.4043 110.091C51.321 113.831 49.4465 117.394 47.5132 120.062C45.7111 122.548 42.9349 125.624 39.3056 126.062Z" fill="white"/>
<path d="M32.3419 138.488C35.8141 140.749 40.0252 142.986 44.4509 141.293C48.0817 140.008 50.3901 136.354 51.8099 132.999C53.3139 129.445 54.3184 125.346 53.623 121.456C49.6332 121.81 46.3249 124.665 44.5677 128.149C42.7307 131.792 42.3784 136.128 43.7895 139.947C41.7045 136.018 38.6554 132.839 35.4254 129.901C32.4892 127.231 28.2599 124.418 24 124.947C24.8105 130.214 28.0243 135.677 32.3419 138.488Z" fill="white"/>
<path d="M53.3943 155.53C56.8111 153.488 58.1862 149.19 58.7482 145.507C59.354 141.535 59.328 137.155 57.6784 133.387C53.7144 134.494 50.9933 138.062 50.0949 141.97C49.1456 146.098 49.9466 150.499 52.2557 154.014C49.1863 150.493 45.1049 147.585 41.1936 145.546C37.4155 143.577 32.7804 141.202 28.2432 142.636C30.4311 147.976 35.1114 152.947 40.2986 155.004C44.3157 156.596 49.2027 158.171 53.3943 155.53Z" fill="white"/>
<path d="M69.5932 156.913C70.0946 160.747 70.0804 165.609 67.1039 168.56C63.3844 172.367 57.628 171.633 53.1882 170.795C47.2276 169.67 40.518 165.604 36.9219 160.191C41.3138 157.773 46.6853 159.32 51.0334 160.572L51.2817 160.643C56.1353 162.04 61.3075 164.289 65.6331 167.362C62.1811 164.243 59.666 159.665 59.5428 155.05C59.4321 150.923 61.2236 146.507 65.0786 144.54C67.77 148.072 69.0303 152.607 69.5932 156.913Z" fill="white"/>
<path d="M86.8678 179.415C89.0598 175.242 86.888 170.345 85.1574 166.726C83.1114 162.447 80.3159 158.086 76.3152 154.954C72.4737 158.265 72.839 163.002 73.9811 167.119C75.3392 172.014 80.0475 176.187 84.923 178.565C79.2765 176.459 73.1098 175.195 67.2427 174.822L66.6484 174.784C61.935 174.477 55.7989 174.077 52.043 177.526C57.7218 182.354 65.788 185.139 72.8973 184.995C77.6615 184.898 84.1981 184.334 86.8678 179.415Z" fill="white"/>
<path d="M199.335 46.6322V48.3368H191.68V62.5H189.759V46.6322H199.335ZM201.872 62.5V46.6322H207.234C208.478 46.6322 209.496 46.8569 210.286 47.3063C211.082 47.7505 211.671 48.3523 212.053 49.1116C212.435 49.8709 212.626 50.718 212.626 51.6529C212.626 52.5878 212.435 53.4375 212.053 54.202C211.676 54.9664 211.092 55.5759 210.302 56.0305C209.512 56.4799 208.499 56.7045 207.265 56.7045H203.422V55H207.203C208.055 55 208.739 54.8528 209.256 54.5584C209.772 54.2639 210.147 53.8662 210.379 53.3652C210.617 52.859 210.736 52.2882 210.736 51.6529C210.736 51.0176 210.617 50.4494 210.379 49.9483C210.147 49.4473 209.77 49.0548 209.248 48.7707C208.726 48.4814 208.034 48.3368 207.172 48.3368H203.794V62.5H201.872ZM214.317 62.5H212.302L218.129 46.6322H220.112L225.939 62.5H223.924L219.182 49.1426H219.058L214.317 62.5ZM215.06 56.3017H223.18V58.0062H215.06V56.3017ZM227.974 62.5V46.6322H229.895V53.6983H238.356V46.6322H240.278V62.5H238.356V55.4029H229.895V62.5H227.974ZM242.324 66.343V60.7955H243.347C243.698 60.4752 244.029 60.0232 244.339 59.4396C244.654 58.8507 244.92 58.0656 245.137 57.0842C245.359 56.0976 245.506 54.845 245.578 53.3264L245.919 46.6322H255.341V60.7955H257.169V66.312H255.341V62.5H244.153V66.343H242.324ZM245.64 60.7955H253.512V48.3368H247.655L247.407 53.3264C247.345 54.4835 247.237 55.532 247.082 56.4721C246.927 57.407 246.728 58.2361 246.485 58.9592C246.242 59.6772 245.961 60.2893 245.64 60.7955ZM277.206 46.6322V62.5H275.285V48.3368H267.289V62.5H265.368V46.6322H277.206ZM280.646 62.5V46.6322H286.008C287.252 46.6322 288.27 46.8569 289.06 47.3063C289.856 47.7505 290.444 48.3523 290.827 49.1116C291.209 49.8709 291.4 50.718 291.4 51.6529C291.4 52.5878 291.209 53.4375 290.827 54.202C290.45 54.9664 289.866 55.5759 289.076 56.0305C288.285 56.4799 287.273 56.7045 286.039 56.7045H282.196V55H285.977C286.829 55 287.513 54.8528 288.03 54.5584C288.546 54.2639 288.921 53.8662 289.153 53.3652C289.391 52.859 289.51 52.2882 289.51 51.6529C289.51 51.0176 289.391 50.4494 289.153 49.9483C288.921 49.4473 288.544 49.0548 288.022 48.7707C287.5 48.4814 286.808 48.3368 285.946 48.3368H282.567V62.5H280.646ZM294.059 46.6322H295.95V59.1219H296.104L304.782 46.6322H306.642V62.5H304.72V50.0413H304.565L295.919 62.5H294.059V46.6322ZM122.273 75.6322H124.163V88.1219H124.318L132.996 75.6322H134.855V91.5H132.934V79.0413H132.779L124.132 91.5H122.273V75.6322ZM142.6 91.5V89.7335H143.065C143.726 89.7335 144.24 89.5217 144.607 89.0981C144.974 88.6746 145.237 87.9902 145.397 87.0449C145.563 86.0997 145.674 84.8471 145.731 83.2872L146.009 75.6322H155.679V91.5H153.757V77.3368H147.838L147.59 83.6591C147.528 85.3223 147.376 86.7376 147.133 87.905C146.89 89.0723 146.464 89.9633 145.854 90.578C145.245 91.1927 144.357 91.5 143.189 91.5H142.6ZM159.918 91.7169V89.9194H160.91C161.292 89.9194 161.613 89.8445 161.871 89.6947C162.134 89.5449 162.351 89.3512 162.522 89.1136C162.697 88.876 162.842 88.6281 162.956 88.3698L163.204 87.781L157.718 75.6322H159.794L164.164 85.4876L168.162 75.6322H170.208L164.722 88.9277C164.505 89.4236 164.257 89.8833 163.978 90.3068C163.705 90.7304 163.33 91.0713 162.855 91.3295C162.385 91.5878 161.747 91.7169 160.941 91.7169H159.918ZM172.415 75.6322H174.337V80.9318C174.337 81.7169 174.474 82.3342 174.747 82.7836C175.021 83.2278 175.409 83.5429 175.91 83.7288C176.411 83.9096 177.002 84 177.684 84C178.113 84 178.528 83.9845 178.931 83.9535C179.334 83.9174 179.727 83.8683 180.109 83.8063C180.496 83.7443 180.873 83.6694 181.24 83.5816C181.612 83.4938 181.976 83.3957 182.333 83.2872V85.0227C181.987 85.1312 181.643 85.2293 181.302 85.3171C180.966 85.405 180.615 85.4799 180.248 85.5418C179.887 85.6038 179.497 85.6529 179.078 85.689C178.66 85.72 178.195 85.7355 177.684 85.7355C176.589 85.7355 175.646 85.578 174.856 85.2629C174.071 84.9478 173.466 84.439 173.043 83.7366C172.624 83.0341 172.415 82.0992 172.415 80.9318V75.6322ZM182.085 75.6322H184.006V91.5H182.085V75.6322ZM187.421 75.6322H189.342V89.7335H194.921V75.6322H196.842V89.7335H202.421V75.6322H204.342V91.5H187.421V75.6322ZM207.758 75.6322H209.649V88.1219H209.804L218.481 75.6322H220.341V91.5H218.419V79.0413H218.265L209.618 91.5H207.758V75.6322ZM223.75 75.6322H225.64V88.1219H225.795L234.473 75.6322H236.332V91.5H234.411V79.0413H234.256L225.609 91.5H223.75V75.6322ZM231.559 71.6653H233.264C233.264 72.5021 232.975 73.1865 232.396 73.7185C231.818 74.2505 231.033 74.5165 230.041 74.5165C229.065 74.5165 228.287 74.2505 227.709 73.7185C227.135 73.1865 226.849 72.5021 226.849 71.6653H228.553C228.553 72.0682 228.664 72.422 228.886 72.7268C229.114 73.0315 229.498 73.1839 230.041 73.1839C230.583 73.1839 230.971 73.0315 231.203 72.7268C231.441 72.422 231.559 72.0682 231.559 71.6653ZM244.077 95.343V89.7955H245.1C245.451 89.4752 245.782 89.0232 246.092 88.4396C246.407 87.8507 246.673 87.0656 246.89 86.0842C247.112 85.0976 247.259 83.845 247.331 82.3264L247.672 75.6322H257.094V89.7955H258.922V95.312H257.094V91.5H245.906V95.343H244.077ZM247.393 89.7955H255.265V77.3368H249.408L249.16 82.3264C249.098 83.4835 248.989 84.532 248.834 85.4721C248.679 86.407 248.48 87.2361 248.238 87.9592C247.995 88.6772 247.713 89.2893 247.393 89.7955ZM274.778 83.5661C274.778 85.2397 274.476 86.686 273.871 87.905C273.267 89.124 272.438 90.064 271.384 90.7252C270.33 91.3864 269.127 91.7169 267.774 91.7169C266.42 91.7169 265.217 91.3864 264.163 90.7252C263.109 90.064 262.28 89.124 261.676 87.905C261.072 86.686 260.769 85.2397 260.769 83.5661C260.769 81.8926 261.072 80.4463 261.676 79.2273C262.28 78.0083 263.109 77.0682 264.163 76.407C265.217 75.7459 266.42 75.4153 267.774 75.4153C269.127 75.4153 270.33 75.7459 271.384 76.407C272.438 77.0682 273.267 78.0083 273.871 79.2273C274.476 80.4463 274.778 81.8926 274.778 83.5661ZM272.918 83.5661C272.918 82.1921 272.688 81.0325 272.229 80.0873C271.774 79.142 271.157 78.4267 270.377 77.9411C269.602 77.4556 268.734 77.2128 267.774 77.2128C266.813 77.2128 265.942 77.4556 265.163 77.9411C264.388 78.4267 263.77 79.142 263.311 80.0873C262.856 81.0325 262.629 82.1921 262.629 83.5661C262.629 84.9401 262.856 86.0997 263.311 87.0449C263.77 87.9902 264.388 88.7056 265.163 89.1911C265.942 89.6767 266.813 89.9194 267.774 89.9194C268.734 89.9194 269.602 89.6767 270.377 89.1911C271.157 88.7056 271.774 87.9902 272.229 87.0449C272.688 86.0997 272.918 84.9401 272.918 83.5661ZM286.901 91.5L281.446 84.2169H279.494V91.5H277.572V75.6322H279.494V82.5124H280.331L286.684 75.6322H288.977L282.562 82.6054L289.194 91.5H286.901ZM292.326 91.624C291.943 91.624 291.615 91.4871 291.342 91.2133C291.068 90.9396 290.931 90.6116 290.931 90.2293C290.931 89.8471 291.068 89.5191 291.342 89.2454C291.615 88.9716 291.943 88.8347 292.326 88.8347C292.708 88.8347 293.036 88.9716 293.31 89.2454C293.583 89.5191 293.72 89.8471 293.72 90.2293C293.72 90.4824 293.656 90.7149 293.527 90.9267C293.403 91.1384 293.235 91.3089 293.023 91.438C292.816 91.562 292.584 91.624 292.326 91.624ZM302.268 77.5227H304.778C305.956 77.5227 307.002 77.7862 307.916 78.313C308.83 78.8399 309.548 79.5733 310.07 80.5134C310.592 81.4535 310.852 82.5434 310.852 83.7831C310.852 85.0227 310.592 86.1152 310.07 87.0604C309.548 88.0057 308.83 88.7443 307.916 89.2763C307.002 89.8084 305.956 90.0744 304.778 90.0744H302.268C301.09 90.0744 300.044 89.811 299.13 89.2841C298.216 88.7572 297.498 88.0238 296.976 87.0837C296.454 86.1436 296.193 85.0537 296.193 83.814C296.193 82.5744 296.454 81.4819 296.976 80.5367C297.498 79.5914 298.216 78.8528 299.13 78.3208C300.044 77.7887 301.09 77.5227 302.268 77.5227ZM302.268 79.2273C301.369 79.2273 300.61 79.4158 299.99 79.7929C299.375 80.1699 298.908 80.702 298.587 81.3889C298.272 82.0759 298.115 82.8843 298.115 83.814C298.115 84.7335 298.272 85.5341 298.587 86.2159C298.908 86.8977 299.375 87.4272 299.99 87.8042C300.61 88.1813 301.369 88.3698 302.268 88.3698H304.778C305.677 88.3698 306.434 88.1813 307.048 87.8042C307.668 87.4272 308.135 86.8951 308.451 86.2082C308.771 85.5212 308.931 84.7128 308.931 83.7831C308.931 82.8636 308.771 82.063 308.451 81.3812C308.135 80.6994 307.668 80.1699 307.048 79.7929C306.434 79.4158 305.677 79.2273 304.778 79.2273H302.268ZM304.499 75.3533V92.1508H302.578V75.3533H304.499ZM313.635 75.6322H315.526V88.1219H315.681L324.358 75.6322H326.218V91.5H324.296V79.0413H324.142L315.495 91.5H313.635V75.6322ZM328.263 91.5V89.7335H328.728C329.389 89.7335 329.903 89.5217 330.27 89.0981C330.636 88.6746 330.9 87.9902 331.06 87.0449C331.225 86.0997 331.336 84.8471 331.393 83.2872L331.672 75.6322H341.341V91.5H339.42V77.3368H333.5L333.253 83.6591C333.191 85.3223 333.038 86.7376 332.795 87.905C332.553 89.0723 332.127 89.9633 331.517 90.578C330.907 91.1927 330.019 91.5 328.852 91.5H328.263ZM346.17 82.2955H350.695C351.831 82.2955 352.789 82.4814 353.569 82.8533C354.354 83.2252 354.948 83.7495 355.351 84.4261C355.759 85.1028 355.963 85.9008 355.963 86.8202C355.963 87.7397 355.759 88.5506 355.351 89.2531C354.948 89.9556 354.354 90.5057 353.569 90.9034C352.789 91.3011 351.831 91.5 350.695 91.5H344.744V75.6322H346.666V89.8264H350.695C351.418 89.8264 352.03 89.6818 352.531 89.3926C353.037 89.0981 353.419 88.7211 353.677 88.2614C353.941 87.7965 354.073 87.3058 354.073 86.7893C354.073 86.03 353.781 85.3765 353.197 84.829C352.613 84.2763 351.779 84 350.695 84H346.17V82.2955ZM358.562 75.6322H360.855L366.248 88.8037H366.434L371.826 75.6322H374.12V91.5H372.322V79.4442H372.167L367.209 91.5H365.473L360.514 79.4442H360.36V91.5H358.562V75.6322Z" fill="white"/>
<path d="M108.918 137.5V108.605H119.979C122.067 108.605 123.802 108.935 125.185 109.593C126.577 110.242 127.617 111.131 128.303 112.26C128.999 113.388 129.347 114.667 129.347 116.097C129.347 117.273 129.121 118.279 128.67 119.116C128.218 119.944 127.612 120.617 126.85 121.134C126.088 121.651 125.237 122.023 124.296 122.249V122.531C125.321 122.587 126.304 122.902 127.245 123.476C128.195 124.04 128.971 124.84 129.573 125.874C130.175 126.909 130.476 128.16 130.476 129.627C130.476 131.123 130.114 132.468 129.389 133.662C128.665 134.848 127.574 135.783 126.116 136.47C124.658 137.157 122.824 137.5 120.614 137.5H108.918ZM114.152 133.126H119.781C121.681 133.126 123.05 132.764 123.887 132.04C124.734 131.306 125.157 130.366 125.157 129.218C125.157 128.362 124.945 127.591 124.522 126.904C124.099 126.208 123.497 125.663 122.716 125.268C121.935 124.863 121.004 124.661 119.923 124.661H114.152V133.126ZM114.152 120.894H119.33C120.233 120.894 121.047 120.73 121.771 120.4C122.495 120.062 123.064 119.587 123.478 118.975C123.901 118.355 124.113 117.621 124.113 116.774C124.113 115.655 123.718 114.733 122.928 114.009C122.147 113.285 120.985 112.923 119.443 112.923H114.152V120.894ZM137.945 137.5H132.358L142.531 108.605H148.992L159.179 137.5H153.592L145.874 114.531H145.649L137.945 137.5ZM138.129 126.171H153.366V130.375H138.129V126.171ZM162.19 137.5V108.605H173.026C175.245 108.605 177.108 109.019 178.613 109.847C180.127 110.675 181.27 111.813 182.041 113.261C182.822 114.7 183.212 116.337 183.212 118.171C183.212 120.024 182.822 121.67 182.041 123.109C181.26 124.548 180.108 125.682 178.584 126.509C177.061 127.328 175.184 127.737 172.955 127.737H165.774V123.434H172.25C173.548 123.434 174.61 123.208 175.438 122.756C176.266 122.305 176.877 121.684 177.272 120.894C177.677 120.104 177.879 119.196 177.879 118.171C177.879 117.146 177.677 116.243 177.272 115.462C176.877 114.682 176.261 114.075 175.424 113.642C174.596 113.2 173.529 112.979 172.221 112.979H167.424V137.5H162.19ZM187.726 108.605H192.876V133.155H201.792V108.605H206.914V133.155H215.76V108.605H220.881V137.5H187.726V108.605ZM230.27 137.5H224.683L234.855 108.605H241.317L251.503 137.5H245.916L238.199 114.531H237.973L230.27 137.5ZM230.453 126.171H245.69V130.375H230.453V126.171ZM254.514 137.5V108.605H265.575C267.664 108.605 269.399 108.935 270.782 109.593C272.174 110.242 273.213 111.131 273.9 112.26C274.596 113.388 274.944 114.667 274.944 116.097C274.944 117.273 274.718 118.279 274.266 119.116C273.815 119.944 273.208 120.617 272.446 121.134C271.685 121.651 270.833 122.023 269.893 122.249V122.531C270.918 122.587 271.901 122.902 272.841 123.476C273.791 124.04 274.567 124.84 275.169 125.874C275.771 126.909 276.072 128.16 276.072 129.627C276.072 131.123 275.71 132.468 274.986 133.662C274.262 134.848 273.171 135.783 271.713 136.47C270.255 137.157 268.421 137.5 266.21 137.5H254.514ZM259.749 133.126H265.378C267.278 133.126 268.646 132.764 269.484 132.04C270.33 131.306 270.753 130.366 270.753 129.218C270.753 128.362 270.542 127.591 270.118 126.904C269.695 126.208 269.093 125.663 268.313 125.268C267.532 124.863 266.601 124.661 265.519 124.661H259.749V133.126ZM259.749 120.894H264.926C265.829 120.894 266.643 120.73 267.367 120.4C268.092 120.062 268.661 119.587 269.074 118.975C269.498 118.355 269.709 117.621 269.709 116.774C269.709 115.655 269.314 114.733 268.524 114.009C267.744 113.285 266.582 112.923 265.039 112.923H259.749V120.894ZM304.564 118.355H299.287C299.137 117.489 298.859 116.723 298.455 116.055C298.05 115.378 297.547 114.804 296.945 114.334C296.343 113.863 295.657 113.511 294.885 113.275C294.123 113.031 293.3 112.909 292.416 112.909C290.845 112.909 289.453 113.304 288.24 114.094C287.027 114.874 286.077 116.022 285.39 117.536C284.704 119.041 284.36 120.88 284.36 123.053C284.36 125.263 284.704 127.125 285.39 128.64C286.086 130.145 287.036 131.283 288.24 132.054C289.453 132.816 290.841 133.197 292.402 133.197C293.267 133.197 294.076 133.084 294.829 132.858C295.591 132.623 296.273 132.28 296.875 131.828C297.486 131.377 297.999 130.822 298.412 130.163C298.836 129.505 299.127 128.753 299.287 127.906L304.564 127.934C304.366 129.308 303.938 130.596 303.28 131.8C302.631 133.004 301.78 134.067 300.726 134.989C299.673 135.901 298.441 136.616 297.03 137.133C295.619 137.641 294.053 137.895 292.332 137.895C289.792 137.895 287.525 137.307 285.531 136.131C283.537 134.956 281.966 133.258 280.819 131.038C279.671 128.818 279.098 126.157 279.098 123.053C279.098 119.939 279.676 117.278 280.833 115.067C281.99 112.847 283.565 111.15 285.559 109.974C287.553 108.798 289.811 108.21 292.332 108.21C293.94 108.21 295.436 108.436 296.818 108.888C298.201 109.339 299.433 110.002 300.515 110.877C301.596 111.742 302.485 112.805 303.181 114.066C303.887 115.316 304.347 116.746 304.564 118.355ZM325.874 137.5L316.365 124.873H313.797V137.5H308.563V108.605H313.797V120.485H315.109L325.38 108.605H331.828L320.414 121.783L332.322 137.5H325.874ZM335.082 108.605H340.274V128.301H340.542L354.129 108.605H358.827V137.5H353.593V117.818H353.353L339.724 137.5H335.082V108.605ZM363.736 108.605H368.928V128.301H369.196L382.783 108.605H387.481V137.5H382.247V117.818H382.007L368.378 137.5H363.736V108.605ZM378.409 101.156H382.233C382.233 102.802 381.635 104.138 380.441 105.163C379.256 106.179 377.647 106.687 375.616 106.687C373.603 106.687 371.999 106.179 370.805 105.163C369.619 104.138 369.032 102.802 369.041 101.156H372.836C372.836 101.833 373.043 102.44 373.457 102.976C373.88 103.503 374.6 103.766 375.616 103.766C376.613 103.766 377.323 103.503 377.746 102.976C378.179 102.449 378.4 101.843 378.409 101.156Z" fill="white"/>
<path d="M100.712 169.5V155.085H109.411V156.634H102.457V161.504H108.961V163.053H102.457V167.952H109.524V169.5H100.712ZM112.161 169.5V155.085H117.2C118.205 155.085 119.033 155.259 119.685 155.606C120.337 155.949 120.823 156.411 121.142 156.993C121.461 157.57 121.62 158.21 121.62 158.914C121.62 159.534 121.51 160.045 121.29 160.449C121.074 160.852 120.788 161.171 120.431 161.406C120.079 161.641 119.697 161.814 119.284 161.927V162.068C119.725 162.096 120.168 162.25 120.614 162.532C121.06 162.814 121.433 163.217 121.733 163.743C122.033 164.268 122.184 164.911 122.184 165.671C122.184 166.394 122.019 167.044 121.691 167.621C121.362 168.198 120.844 168.655 120.135 168.993C119.427 169.331 118.505 169.5 117.369 169.5H112.161ZM113.906 167.952H117.369C118.509 167.952 119.319 167.731 119.798 167.29C120.281 166.844 120.522 166.305 120.522 165.671C120.522 165.183 120.398 164.733 120.149 164.32C119.901 163.902 119.546 163.569 119.087 163.32C118.627 163.067 118.083 162.94 117.454 162.94H113.906V167.952ZM113.906 161.42H117.144C117.67 161.42 118.144 161.317 118.566 161.11C118.993 160.904 119.331 160.613 119.579 160.238C119.833 159.862 119.959 159.421 119.959 158.914C119.959 158.281 119.739 157.744 119.298 157.303C118.857 156.857 118.158 156.634 117.2 156.634H113.906V161.42ZM124.655 169.5V155.085H129.526C130.657 155.085 131.581 155.29 132.299 155.698C133.022 156.101 133.556 156.648 133.904 157.338C134.251 158.027 134.424 158.797 134.424 159.646C134.424 160.496 134.251 161.267 133.904 161.962C133.561 162.656 133.031 163.21 132.313 163.623C131.595 164.031 130.675 164.235 129.554 164.235H126.063V162.687H129.498C130.272 162.687 130.894 162.553 131.363 162.286C131.832 162.018 132.172 161.657 132.383 161.202C132.599 160.742 132.707 160.223 132.707 159.646C132.707 159.069 132.599 158.553 132.383 158.098C132.172 157.643 131.83 157.286 131.356 157.028C130.882 156.765 130.253 156.634 129.469 156.634H126.401V169.5H124.655ZM136.84 169.5V155.085H145.539V156.634H138.585V161.504H145.089V163.053H138.585V167.952H145.652V169.5H136.84ZM148.289 155.085H150.006V166.431H150.147L158.03 155.085H159.719V169.5H157.974V158.182H157.833L149.978 169.5H148.289V155.085ZM155.384 151.482H156.932C156.932 152.242 156.669 152.864 156.144 153.347C155.618 153.83 154.905 154.072 154.004 154.072C153.117 154.072 152.411 153.83 151.886 153.347C151.365 152.864 151.104 152.242 151.104 151.482H152.653C152.653 151.848 152.754 152.169 152.955 152.446C153.162 152.723 153.512 152.861 154.004 152.861C154.497 152.861 154.849 152.723 155.06 152.446C155.276 152.169 155.384 151.848 155.384 151.482ZM174.415 159.59H172.669C172.566 159.088 172.386 158.647 172.127 158.267C171.874 157.887 171.564 157.568 171.198 157.31C170.837 157.047 170.436 156.85 169.995 156.718C169.554 156.587 169.094 156.521 168.615 156.521C167.743 156.521 166.952 156.742 166.243 157.183C165.54 157.624 164.979 158.274 164.561 159.133C164.148 159.991 163.942 161.045 163.942 162.293C163.942 163.541 164.148 164.594 164.561 165.453C164.979 166.312 165.54 166.962 166.243 167.403C166.952 167.844 167.743 168.064 168.615 168.064C169.094 168.064 169.554 167.998 169.995 167.867C170.436 167.736 170.837 167.541 171.198 167.283C171.564 167.02 171.874 166.699 172.127 166.319C172.386 165.934 172.566 165.493 172.669 164.995H174.415C174.284 165.732 174.044 166.391 173.697 166.973C173.35 167.555 172.918 168.05 172.402 168.458C171.886 168.862 171.306 169.169 170.663 169.38C170.025 169.591 169.343 169.697 168.615 169.697C167.386 169.697 166.293 169.397 165.335 168.796C164.378 168.196 163.625 167.342 163.076 166.234C162.527 165.127 162.253 163.813 162.253 162.293C162.253 160.772 162.527 159.459 163.076 158.351C163.625 157.244 164.378 156.39 165.335 155.789C166.293 155.189 167.386 154.888 168.615 154.888C169.343 154.888 170.025 154.994 170.663 155.205C171.306 155.416 171.886 155.726 172.402 156.134C172.918 156.538 173.35 157.03 173.697 157.612C174.044 158.189 174.284 158.849 174.415 159.59ZM185.313 169.5L180.358 162.884H178.585V169.5H176.839V155.085H178.585V161.336H179.345L185.116 155.085H187.2L181.372 161.42L187.397 169.5H185.313ZM189.256 155.085H190.973V166.431H191.114L198.997 155.085H200.686V169.5H198.941V158.182H198.8L190.945 169.5H189.256V155.085ZM203.783 155.085H205.5V166.431H205.641L213.524 155.085H215.213V169.5H213.468V158.182H213.327L205.472 169.5H203.783V155.085ZM210.877 151.482H212.426C212.426 152.242 212.163 152.864 211.638 153.347C211.112 153.83 210.399 154.072 209.498 154.072C208.611 154.072 207.905 153.83 207.379 153.347C206.858 152.864 206.598 152.242 206.598 151.482H208.147C208.147 151.848 208.247 152.169 208.449 152.446C208.656 152.723 209.005 152.861 209.498 152.861C209.991 152.861 210.342 152.723 210.554 152.446C210.769 152.169 210.877 151.848 210.877 151.482ZM231.962 169.5L227.007 162.884H225.233V169.5H223.487V155.085H225.233V161.336H225.993L231.764 155.085H233.848L228.02 161.42L234.045 169.5H231.962ZM235.904 155.085H237.622V166.431H237.762L245.645 155.085H247.335V169.5H245.589V158.182H245.448L237.593 169.5H235.904V155.085ZM250.431 169.5V155.085H252.176V161.504H259.862V155.085H261.608V169.5H259.862V163.053H252.176V169.5H250.431ZM276.868 162.293C276.868 163.813 276.594 165.127 276.045 166.234C275.496 167.342 274.743 168.196 273.785 168.796C272.828 169.397 271.735 169.697 270.506 169.697C269.276 169.697 268.183 169.397 267.226 168.796C266.269 168.196 265.515 167.342 264.966 166.234C264.417 165.127 264.143 163.813 264.143 162.293C264.143 160.772 264.417 159.459 264.966 158.351C265.515 157.244 266.269 156.39 267.226 155.789C268.183 155.189 269.276 154.888 270.506 154.888C271.735 154.888 272.828 155.189 273.785 155.789C274.743 156.39 275.496 157.244 276.045 158.351C276.594 159.459 276.868 160.772 276.868 162.293ZM275.179 162.293C275.179 161.045 274.97 159.991 274.553 159.133C274.14 158.274 273.579 157.624 272.87 157.183C272.167 156.742 271.378 156.521 270.506 156.521C269.633 156.521 268.842 156.742 268.134 157.183C267.43 157.624 266.869 158.274 266.452 159.133C266.039 159.991 265.832 161.045 265.832 162.293C265.832 163.541 266.039 164.594 266.452 165.453C266.869 166.312 267.43 166.962 268.134 167.403C268.842 167.844 269.633 168.064 270.506 168.064C271.378 168.064 272.167 167.844 272.87 167.403C273.579 166.962 274.14 166.312 274.553 165.453C274.97 164.594 275.179 163.541 275.179 162.293ZM284.362 156.803H286.642C287.712 156.803 288.662 157.042 289.493 157.521C290.323 157.999 290.976 158.666 291.449 159.52C291.923 160.374 292.16 161.364 292.16 162.49C292.16 163.616 291.923 164.608 291.449 165.467C290.976 166.326 290.323 166.997 289.493 167.48C288.662 167.963 287.712 168.205 286.642 168.205H284.362C283.292 168.205 282.342 167.966 281.511 167.487C280.681 167.008 280.029 166.342 279.555 165.488C279.081 164.634 278.844 163.644 278.844 162.518C278.844 161.392 279.081 160.399 279.555 159.541C280.029 158.682 280.681 158.011 281.511 157.528C282.342 157.044 283.292 156.803 284.362 156.803ZM284.362 158.351C283.545 158.351 282.856 158.523 282.293 158.865C281.734 159.208 281.31 159.691 281.019 160.315C280.732 160.939 280.589 161.673 280.589 162.518C280.589 163.353 280.732 164.08 281.019 164.7C281.31 165.319 281.734 165.8 282.293 166.143C282.856 166.485 283.545 166.657 284.362 166.657H286.642C287.459 166.657 288.146 166.485 288.705 166.143C289.268 165.8 289.692 165.317 289.978 164.693C290.269 164.069 290.415 163.334 290.415 162.49C290.415 161.655 290.269 160.927 289.978 160.308C289.692 159.689 289.268 159.208 288.705 158.865C288.146 158.523 287.459 158.351 286.642 158.351H284.362ZM286.389 154.832V170.091H284.643V154.832H286.389ZM294.688 169.5V155.085H303.388V156.634H296.434V161.504H302.937V163.053H296.434V167.952H303.5V169.5H294.688ZM317.737 159.59H315.991C315.888 159.088 315.707 158.647 315.449 158.267C315.196 157.887 314.886 157.568 314.52 157.31C314.159 157.047 313.758 156.85 313.317 156.718C312.876 156.587 312.416 156.521 311.937 156.521C311.064 156.521 310.274 156.742 309.565 157.183C308.861 157.624 308.301 158.274 307.883 159.133C307.47 159.991 307.264 161.045 307.264 162.293C307.264 163.541 307.47 164.594 307.883 165.453C308.301 166.312 308.861 166.962 309.565 167.403C310.274 167.844 311.064 168.064 311.937 168.064C312.416 168.064 312.876 167.998 313.317 167.867C313.758 167.736 314.159 167.541 314.52 167.283C314.886 167.02 315.196 166.699 315.449 166.319C315.707 165.934 315.888 165.493 315.991 164.995H317.737C317.605 165.732 317.366 166.391 317.019 166.973C316.672 167.555 316.24 168.05 315.724 168.458C315.208 168.862 314.628 169.169 313.985 169.38C313.347 169.591 312.664 169.697 311.937 169.697C310.708 169.697 309.614 169.397 308.657 168.796C307.7 168.196 306.947 167.342 306.398 166.234C305.849 165.127 305.574 163.813 305.574 162.293C305.574 160.772 305.849 159.459 306.398 158.351C306.947 157.244 307.7 156.39 308.657 155.789C309.614 155.189 310.708 154.888 311.937 154.888C312.664 154.888 313.347 154.994 313.985 155.205C314.628 155.416 315.208 155.726 315.724 156.134C316.24 156.538 316.672 157.03 317.019 157.612C317.366 158.189 317.605 158.849 317.737 159.59ZM319.373 156.634V155.085H330.184V156.634H325.651V169.5H323.905V156.634H319.373ZM332.481 155.085H334.198V166.431H334.339L342.222 155.085H343.911V169.5H342.166V158.182H342.025L334.17 169.5H332.481V155.085ZM347.008 169.5V155.085H352.047C353.051 155.085 353.88 155.259 354.532 155.606C355.184 155.949 355.67 156.411 355.989 156.993C356.308 157.57 356.467 158.21 356.467 158.914C356.467 159.534 356.357 160.045 356.137 160.449C355.921 160.852 355.634 161.171 355.278 161.406C354.926 161.641 354.544 161.814 354.131 161.927V162.068C354.572 162.096 355.015 162.25 355.461 162.532C355.907 162.814 356.28 163.217 356.58 163.743C356.88 164.268 357.03 164.911 357.03 165.671C357.03 166.394 356.866 167.044 356.538 167.621C356.209 168.198 355.691 168.655 354.982 168.993C354.274 169.331 353.352 169.5 352.216 169.5H347.008ZM348.753 167.952H352.216C353.356 167.952 354.166 167.731 354.644 167.29C355.128 166.844 355.369 166.305 355.369 165.671C355.369 165.183 355.245 164.733 354.996 164.32C354.748 163.902 354.393 163.569 353.934 163.32C353.474 163.067 352.929 162.94 352.301 162.94H348.753V167.952ZM348.753 161.42H351.991C352.516 161.42 352.99 161.317 353.413 161.11C353.84 160.904 354.178 160.613 354.426 160.238C354.68 159.862 354.806 159.421 354.806 158.914C354.806 158.281 354.586 157.744 354.145 157.303C353.704 156.857 353.004 156.634 352.047 156.634H348.753V161.42ZM360.093 169.5H358.263L363.556 155.085H365.358L370.651 169.5H368.821L364.513 157.366H364.401L360.093 169.5ZM360.769 163.869H368.145V165.418H360.769V163.869ZM371.261 169.5V167.895H371.683C372.284 167.895 372.751 167.703 373.084 167.318C373.417 166.933 373.656 166.312 373.802 165.453C373.952 164.594 374.053 163.456 374.104 162.039L374.358 155.085H383.142V169.5H381.396V156.634H376.019L375.794 162.377C375.737 163.888 375.599 165.174 375.378 166.234C375.158 167.295 374.771 168.104 374.217 168.662C373.663 169.221 372.856 169.5 371.796 169.5H371.261ZM387.528 161.138H391.638C392.671 161.138 393.541 161.307 394.249 161.645C394.963 161.983 395.502 162.459 395.868 163.074C396.239 163.689 396.424 164.414 396.424 165.249C396.424 166.084 396.239 166.821 395.868 167.459C395.502 168.097 394.963 168.597 394.249 168.958C393.541 169.319 392.671 169.5 391.638 169.5H386.233V155.085H387.978V167.98H391.638C392.295 167.98 392.851 167.848 393.306 167.586C393.766 167.318 394.113 166.976 394.348 166.558C394.587 166.136 394.707 165.69 394.707 165.221C394.707 164.531 394.442 163.937 393.912 163.44C393.381 162.938 392.624 162.687 391.638 162.687H387.528V161.138Z" fill="white"/>
<path d="M225.399 200.5V199.105L230.636 193.372C231.251 192.7 231.757 192.117 232.155 191.621C232.553 191.12 232.847 190.65 233.038 190.211C233.235 189.767 233.333 189.302 233.333 188.816C233.333 188.258 233.198 187.775 232.93 187.367C232.666 186.959 232.305 186.644 231.845 186.422C231.385 186.2 230.869 186.089 230.296 186.089C229.686 186.089 229.154 186.215 228.699 186.468C228.25 186.716 227.901 187.065 227.653 187.514C227.411 187.964 227.289 188.491 227.289 189.095H225.461C225.461 188.165 225.675 187.349 226.104 186.647C226.533 185.944 227.116 185.397 227.855 185.004C228.599 184.612 229.433 184.415 230.358 184.415C231.287 184.415 232.111 184.612 232.829 185.004C233.547 185.397 234.11 185.926 234.518 186.592C234.926 187.259 235.13 188 235.13 188.816C235.13 189.4 235.024 189.971 234.813 190.528C234.606 191.081 234.244 191.698 233.728 192.38C233.217 193.057 232.506 193.883 231.597 194.86L228.033 198.671V198.795H235.409V200.5H225.399ZM243.348 200.717C242.181 200.717 241.187 200.399 240.365 199.764C239.544 199.123 238.917 198.196 238.483 196.982C238.049 195.763 237.832 194.291 237.832 192.566C237.832 190.851 238.049 189.387 238.483 188.173C238.922 186.954 239.552 186.024 240.373 185.384C241.2 184.738 242.191 184.415 243.348 184.415C244.505 184.415 245.495 184.738 246.316 185.384C247.142 186.024 247.772 186.954 248.206 188.173C248.645 189.387 248.865 190.851 248.865 192.566C248.865 194.291 248.648 195.763 248.214 196.982C247.78 198.196 247.153 199.123 246.331 199.764C245.51 200.399 244.516 200.717 243.348 200.717ZM243.348 199.012C244.505 199.012 245.404 198.455 246.045 197.339C246.685 196.223 247.005 194.632 247.005 192.566C247.005 191.192 246.858 190.022 246.564 189.056C246.274 188.09 245.856 187.354 245.309 186.848C244.766 186.342 244.113 186.089 243.348 186.089C242.202 186.089 241.305 186.654 240.66 187.786C240.014 188.912 239.691 190.505 239.691 192.566C239.691 193.94 239.836 195.107 240.125 196.068C240.414 197.029 240.83 197.76 241.373 198.261C241.92 198.762 242.579 199.012 243.348 199.012ZM251.373 200.5V199.105L256.61 193.372C257.225 192.7 257.731 192.117 258.129 191.621C258.527 191.12 258.821 190.65 259.012 190.211C259.208 189.767 259.307 189.302 259.307 188.816C259.307 188.258 259.172 187.775 258.904 187.367C258.64 186.959 258.279 186.644 257.819 186.422C257.359 186.2 256.843 186.089 256.269 186.089C255.66 186.089 255.128 186.215 254.673 186.468C254.224 186.716 253.875 187.065 253.627 187.514C253.385 187.964 253.263 188.491 253.263 189.095H251.435C251.435 188.165 251.649 187.349 252.078 186.647C252.506 185.944 253.09 185.397 253.829 185.004C254.573 184.612 255.407 184.415 256.331 184.415C257.261 184.415 258.085 184.612 258.803 185.004C259.521 185.397 260.084 185.926 260.492 186.592C260.9 187.259 261.104 188 261.104 188.816C261.104 189.4 260.998 189.971 260.786 190.528C260.58 191.081 260.218 191.698 259.702 192.38C259.19 193.057 258.48 193.883 257.571 194.86L254.007 198.671V198.795H261.383V200.5H251.373ZM269.725 184.632V200.5H267.804V186.647H267.711L263.837 189.219V187.267L267.804 184.632H269.725Z" fill="white"/>
<path d="M448.838 73.6038C451.208 77.1463 453.484 81.5164 452.365 86.1997C448.504 83.9897 445.398 80.3814 442.935 76.8193C440.455 73.2333 437.88 69.42 436.998 65C441.868 66.2457 446.228 69.7037 448.838 73.6038Z" fill="white"/>
<path d="M455.756 95.1908C454.38 91.4902 451.37 88.2635 448.094 86.7585C445.052 85.3629 441.012 83.9064 437.462 85.6948C439.394 89.0871 442.575 91.9415 445.824 93.7369C448.745 95.3511 452.445 97.3068 456.107 96.4662C460.098 95.8549 462.027 91.8818 463.1 88.8763C464.585 84.723 463.57 79.1764 461.035 75.1016C457.54 76.5581 456.474 80.8794 455.744 83.9369C454.911 87.4172 454.888 91.4796 455.756 95.1908Z" fill="white"/>
<path d="M452.887 100.539C455.701 102.546 457.861 106.215 458.325 109.982C458.365 106.208 459.392 102.311 461.041 99.1716C462.55 96.2998 464.655 92.4184 468.4 91.6448C469.871 96.1161 469.395 101.585 467.016 105.205C465.217 107.947 462.431 111.38 458.377 111.288C454.677 111.477 451.482 108.95 448.968 106.841C446.263 104.573 443.823 101.257 442.797 97.6735C446.574 96.5766 450.19 98.6159 452.887 100.539Z" fill="white"/>
<path d="M457.374 124.804C457.786 121.113 456.552 117.122 454.251 114.656C452.036 112.279 448.93 109.688 445.063 110.101C445.141 113.84 447.013 117.405 448.945 120.075C450.744 122.562 453.515 125.638 457.143 126.081C460.915 126.72 464.597 124.411 466.99 121.694C470.067 118.198 471.901 113.507 471.535 108.808C467.659 108.904 464.724 112.249 462.553 114.779C460.211 117.508 458.293 121.099 457.374 124.804Z" fill="white"/>
<path d="M451.882 128.165C453.716 131.811 454.065 136.148 452.65 139.966C454.737 136.037 457.791 132.86 461.024 129.924C463.962 127.256 468.195 124.446 472.454 124.978C471.641 130.245 468.42 135.707 464.1 138.514C460.628 140.769 456.421 143.002 452.001 141.316C448.364 140.033 446.055 136.371 444.636 133.01C443.134 129.454 442.133 125.355 442.834 121.465C446.822 121.822 450.129 124.679 451.882 128.165Z" fill="white"/>
<path d="M444.175 154.019C446.482 150.507 447.287 146.11 446.344 141.983C445.45 138.074 442.731 134.504 438.766 133.394C437.113 137.16 437.085 141.541 437.684 145.514C438.244 149.19 439.611 153.48 443.007 155.53C447.203 158.191 452.102 156.617 456.125 155.025C461.315 152.972 466.001 148.004 468.193 142.665C463.657 141.227 459.02 143.599 455.24 145.566C451.33 147.601 447.246 150.503 444.175 154.019Z" fill="white"/>
<path d="M426.827 156.913C426.322 160.746 426.331 165.609 429.307 168.562C433.021 172.373 438.779 171.642 443.22 170.807C449.183 169.687 455.896 165.625 459.498 160.215C455.109 157.794 449.734 159.336 445.386 160.585L445.135 160.656C440.282 162.049 435.109 164.293 430.78 167.362C434.235 164.245 436.752 159.67 436.879 155.057C436.994 150.93 435.207 146.512 431.354 144.542C428.658 148.072 427.395 152.607 426.827 156.913Z" fill="white"/>
<path d="M423.497 184.994C418.733 184.894 412.196 184.325 409.531 179.404L409.494 179.336C407.366 175.176 409.529 170.314 411.253 166.715C413.303 162.437 416.103 158.078 420.106 154.949C423.947 158.263 423.575 163 422.43 167.116C421.066 172.011 416.354 176.181 411.475 178.555C417.124 176.454 423.292 175.194 429.16 174.825L429.757 174.787C434.472 174.484 440.608 174.089 444.36 177.541C438.676 182.364 430.608 185.144 423.497 184.994Z" fill="white"/>
</svg>
