<svg width="348" height="250" viewBox="0 0 348 250" fill="none" xmlns="http://www.w3.org/2000/svg">
<path d="M44.1277 86.1862C43.0118 81.5024 45.2914 77.1344 47.6659 73.5942C50.2797 69.6967 54.6408 66.2422 59.5114 65C58.6265 69.4188 56.0476 73.2303 53.5653 76.8138C51.0997 80.3739 47.99 83.9796 44.1277 86.1862Z" fill="white"/>
<path d="M40.7293 95.171C41.6004 91.4619 41.5811 87.4012 40.7518 83.9221C40.0226 80.8646 38.9615 76.5424 35.4692 75.084C32.9307 79.1559 31.9102 84.7009 33.3897 88.8559C34.4594 91.8612 36.3832 95.8348 40.373 96.4498C44.034 97.2938 47.736 95.3409 50.6597 93.7285C53.9107 91.9359 57.0951 89.0839 59.0299 85.6934C55.4807 83.9019 51.4388 85.3557 48.398 86.749C45.1202 88.2509 42.109 91.4734 40.7293 95.171Z" fill="white"/>
<path d="M29.4561 105.18C31.2565 107.926 34.0424 111.367 38.1045 111.269C41.7984 111.453 44.9898 108.933 47.5029 106.829C50.2095 104.562 52.6526 101.249 53.684 97.666C49.9059 96.5668 46.2887 98.6031 43.5913 100.524C40.7746 102.53 38.6083 106.201 38.1429 109.97C38.108 106.194 37.0858 102.294 35.438 99.1515C33.9314 96.2791 31.832 92.3963 28.0865 91.6201C26.6108 96.0896 27.0817 101.558 29.4561 105.18Z" fill="white"/>
<path d="M39.3056 126.062C35.5356 126.694 31.8582 124.384 29.4699 121.667C26.395 118.169 24.5655 113.476 24.9386 108.778C28.8116 108.877 31.7448 112.225 33.9129 114.756C36.2478 117.483 38.1609 121.07 39.0787 124.77C38.675 121.083 39.9132 117.1 42.2115 114.64C44.43 112.264 47.5377 109.676 51.4043 110.091C51.321 113.831 49.4465 117.393 47.5132 120.062C45.7111 122.548 42.9349 125.624 39.3056 126.062Z" fill="white"/>
<path d="M32.3419 138.488C35.8141 140.749 40.0252 142.986 44.4509 141.293C48.0817 140.008 50.3901 136.354 51.8099 132.999C53.3139 129.445 54.3184 125.346 53.623 121.456C49.6332 121.81 46.3249 124.665 44.5677 128.149C42.7307 131.792 42.3784 136.128 43.7895 139.947C41.7045 136.018 38.6554 132.839 35.4254 129.901C32.4892 127.231 28.2599 124.418 24 124.947C24.8105 130.214 28.0243 135.677 32.3419 138.488Z" fill="white"/>
<path d="M53.3943 155.53C56.8111 153.488 58.1862 149.19 58.7482 145.507C59.354 141.535 59.328 137.155 57.6784 133.387C53.7144 134.494 50.9933 138.062 50.0949 141.97C49.1456 146.098 49.9466 150.499 52.2557 154.014C49.1863 150.493 45.1049 147.585 41.1936 145.546C37.4155 143.577 32.7804 141.202 28.2432 142.636C30.4311 147.976 35.1114 152.947 40.2986 155.004C44.3157 156.596 49.2027 158.171 53.3943 155.53Z" fill="white"/>
<path d="M69.5932 156.913C70.0946 160.747 70.0804 165.609 67.1039 168.56C63.3844 172.368 57.628 171.633 53.1882 170.795C47.2276 169.67 40.518 165.605 36.9219 160.192C41.3138 157.773 46.6853 159.32 51.0334 160.572L51.2817 160.644C56.1353 162.04 61.3075 164.289 65.6331 167.362C62.1811 164.243 59.666 159.665 59.5428 155.05C59.4321 150.923 61.2236 146.507 65.0786 144.54C67.77 148.072 69.0303 152.608 69.5932 156.913Z" fill="white"/>
<path d="M86.8678 179.415C89.0598 175.242 86.888 170.345 85.1574 166.726C83.1114 162.447 80.3159 158.086 76.3152 154.954C72.4737 158.265 72.839 163.002 73.9811 167.119C75.3392 172.014 80.0475 176.187 84.923 178.565C79.2765 176.459 73.1098 175.195 67.2427 174.822L66.6484 174.784C61.935 174.477 55.7989 174.077 52.043 177.526C57.7218 182.354 65.788 185.139 72.8973 184.995C77.6615 184.898 84.1981 184.334 86.8678 179.415Z" fill="white"/>
<path d="M128.906 87V63.1983H133.218V73.2745H144.247V63.1983H148.57V87H144.247V76.8889H133.218V87H128.906ZM155.662 87H151.06L159.439 63.1983H164.762L173.153 87H168.551L162.193 68.0795H162.007L155.662 87ZM155.813 77.6676H168.365V81.1309H155.813V77.6676ZM179.945 63.1983V87H175.633V63.1983H179.945ZM183.96 87V63.1983H199.208V66.8128H188.271V73.2745H198.162V76.8889H188.271V87H183.96ZM202.565 87H197.963L206.343 63.1983H211.665L220.056 87H215.454L209.097 68.0795H208.911L202.565 87ZM202.717 77.6676H215.268V81.1309H202.717V77.6676ZM138.854 120V96.1983H154.102V99.8128H143.166V106.275H153.056V109.889H143.166V120H138.854ZM161.687 96.1983V120H157.376V96.1983H161.687ZM165.702 120V96.1983H170.014V116.386H180.497V120H165.702ZM183.584 96.1983H188.861L195.927 113.445H196.206L203.272 96.1983H208.548V120H204.411V103.648H204.19L197.612 119.93H194.521L187.943 103.613H187.722V120H183.584V96.1983ZM101.332 154V130.198H116.579V133.813H105.643V140.275H115.533V143.889H105.643V154H101.332ZM119.853 154V130.198H135.334V133.813H124.165V140.275H134.532V143.889H124.165V150.386H135.426V154H119.853ZM152.013 136.741C151.905 135.726 151.447 134.936 150.642 134.371C149.844 133.805 148.805 133.522 147.527 133.522C146.628 133.522 145.857 133.658 145.214 133.929C144.571 134.2 144.079 134.568 143.738 135.033C143.397 135.498 143.223 136.029 143.215 136.625C143.215 137.121 143.328 137.551 143.552 137.915C143.785 138.279 144.099 138.589 144.494 138.845C144.889 139.093 145.327 139.302 145.807 139.473C146.287 139.643 146.772 139.786 147.26 139.903L149.491 140.46C150.39 140.67 151.254 140.952 152.083 141.309C152.92 141.665 153.667 142.115 154.326 142.657C154.992 143.199 155.519 143.854 155.906 144.621C156.294 145.388 156.487 146.287 156.487 147.317C156.487 148.712 156.131 149.94 155.418 151.002C154.705 152.055 153.675 152.88 152.327 153.477C150.986 154.066 149.363 154.36 147.457 154.36C145.605 154.36 143.998 154.074 142.634 153.5C141.278 152.927 140.217 152.09 139.45 150.99C138.69 149.89 138.28 148.549 138.218 146.969H142.46C142.522 147.798 142.777 148.487 143.227 149.037C143.676 149.588 144.261 149.998 144.982 150.269C145.71 150.541 146.524 150.676 147.422 150.676C148.36 150.676 149.181 150.537 149.886 150.258C150.599 149.971 151.157 149.576 151.56 149.072C151.963 148.561 152.168 147.964 152.176 147.283C152.168 146.663 151.986 146.151 151.629 145.748C151.273 145.338 150.773 144.997 150.13 144.726C149.495 144.447 148.751 144.199 147.899 143.982L145.191 143.285C143.231 142.781 141.681 142.018 140.542 140.995C139.411 139.965 138.845 138.597 138.845 136.893C138.845 135.49 139.225 134.262 139.984 133.208C140.751 132.155 141.793 131.337 143.111 130.756C144.428 130.167 145.919 129.873 147.585 129.873C149.274 129.873 150.754 130.167 152.025 130.756C153.303 131.337 154.306 132.147 155.035 133.185C155.763 134.216 156.139 135.401 156.162 136.741H152.013ZM158.631 133.813V130.198H177.621V133.813H170.264V154H165.988V133.813H158.631ZM184.939 130.198V154H180.627V130.198H184.939ZM192.138 130.198L198.333 148.933H198.577L204.759 130.198H209.501L201.11 154H195.787L187.408 130.198H192.138ZM212.258 154H207.655L216.035 130.198H221.358L229.749 154H225.146L218.789 135.08H218.603L212.258 154ZM212.409 144.668H224.96V148.131H212.409V144.668ZM232.229 154V130.198H236.541V150.386H247.024V154H232.229Z" fill="white"/>
<path d="M150.696 183V181.605L155.934 175.872C156.549 175.2 157.055 174.617 157.453 174.121C157.85 173.62 158.145 173.15 158.336 172.711C158.532 172.267 158.63 171.802 158.63 171.316C158.63 170.758 158.496 170.275 158.227 169.867C157.964 169.459 157.602 169.144 157.143 168.922C156.683 168.7 156.166 168.589 155.593 168.589C154.984 168.589 154.452 168.715 153.997 168.968C153.548 169.216 153.199 169.565 152.951 170.014C152.708 170.464 152.587 170.991 152.587 171.595H150.758C150.758 170.665 150.973 169.849 151.401 169.147C151.83 168.444 152.414 167.897 153.153 167.504C153.896 167.112 154.731 166.915 155.655 166.915C156.585 166.915 157.409 167.112 158.127 167.504C158.845 167.897 159.408 168.426 159.816 169.092C160.224 169.759 160.428 170.5 160.428 171.316C160.428 171.9 160.322 172.471 160.11 173.028C159.904 173.581 159.542 174.198 159.025 174.88C158.514 175.557 157.804 176.383 156.895 177.36L153.331 181.171V181.295H160.707V183H150.696ZM168.646 183.217C167.479 183.217 166.484 182.899 165.663 182.264C164.842 181.623 164.214 180.696 163.78 179.482C163.346 178.263 163.129 176.791 163.129 175.066C163.129 173.351 163.346 171.887 163.78 170.673C164.219 169.454 164.849 168.524 165.671 167.884C166.497 167.238 167.489 166.915 168.646 166.915C169.803 166.915 170.792 167.238 171.613 167.884C172.44 168.524 173.07 169.454 173.504 170.673C173.943 171.887 174.162 173.351 174.162 175.066C174.162 176.791 173.946 178.263 173.512 179.482C173.078 180.696 172.45 181.623 171.629 182.264C170.808 182.899 169.813 183.217 168.646 183.217ZM168.646 181.512C169.803 181.512 170.702 180.955 171.342 179.839C171.983 178.723 172.303 177.132 172.303 175.066C172.303 173.692 172.156 172.522 171.861 171.556C171.572 170.59 171.154 169.854 170.606 169.348C170.064 168.842 169.41 168.589 168.646 168.589C167.499 168.589 166.603 169.154 165.957 170.286C165.312 171.412 164.989 173.005 164.989 175.066C164.989 176.44 165.134 177.607 165.423 178.568C165.712 179.529 166.128 180.26 166.67 180.761C167.218 181.262 167.876 181.512 168.646 181.512ZM182.249 167.132V183H180.327V169.147H180.234L176.36 171.719V169.767L180.327 167.132H182.249ZM191.428 166.915C192.078 166.92 192.729 167.044 193.38 167.287C194.031 167.53 194.625 167.933 195.162 168.496C195.699 169.054 196.131 169.816 196.456 170.782C196.781 171.747 196.944 172.959 196.944 174.415C196.944 175.825 196.81 177.078 196.541 178.173C196.278 179.263 195.896 180.182 195.395 180.931C194.899 181.68 194.294 182.248 193.582 182.636C192.874 183.023 192.073 183.217 191.18 183.217C190.291 183.217 189.498 183.041 188.801 182.69C188.109 182.334 187.541 181.84 187.097 181.21C186.657 180.575 186.376 179.839 186.252 179.002H188.143C188.313 179.73 188.651 180.332 189.157 180.807C189.669 181.277 190.343 181.512 191.18 181.512C192.404 181.512 193.37 180.978 194.077 179.909C194.79 178.839 195.147 177.329 195.147 175.376H195.023C194.733 175.81 194.39 176.184 193.992 176.499C193.594 176.815 193.153 177.057 192.667 177.228C192.182 177.398 191.665 177.483 191.118 177.483C190.209 177.483 189.374 177.259 188.615 176.809C187.861 176.355 187.257 175.732 186.802 174.942C186.353 174.147 186.128 173.238 186.128 172.215C186.128 171.244 186.345 170.355 186.779 169.55C187.218 168.739 187.833 168.093 188.623 167.613C189.418 167.132 190.353 166.9 191.428 166.915ZM191.428 168.62C190.777 168.62 190.191 168.783 189.669 169.108C189.152 169.428 188.742 169.862 188.437 170.41C188.137 170.952 187.988 171.554 187.988 172.215C187.988 172.876 188.132 173.478 188.421 174.02C188.716 174.557 189.116 174.986 189.622 175.306C190.134 175.621 190.715 175.779 191.366 175.779C191.856 175.779 192.313 175.683 192.737 175.492C193.161 175.296 193.53 175.03 193.845 174.694C194.165 174.353 194.416 173.968 194.597 173.54C194.777 173.106 194.868 172.654 194.868 172.184C194.868 171.564 194.718 170.983 194.418 170.441C194.124 169.898 193.716 169.459 193.194 169.123C192.678 168.788 192.089 168.62 191.428 168.62Z" fill="white"/>
<path d="M299.838 73.6038C302.208 77.1463 304.484 81.5164 303.365 86.1997C299.504 83.9897 296.398 80.3814 293.935 76.8193C291.455 73.2333 288.88 69.42 287.998 65C292.868 66.2457 297.228 69.7037 299.838 73.6038Z" fill="white"/>
<path d="M306.756 95.1908C305.38 91.4902 302.37 88.2635 299.094 86.7585C296.052 85.3629 292.012 83.9064 288.462 85.6948C290.394 89.0871 293.575 91.9415 296.824 93.7369C299.745 95.3511 303.445 97.3068 307.107 96.4662C311.098 95.8549 313.027 91.8818 314.1 88.8763C315.585 84.723 314.57 79.1764 312.035 75.1016C308.54 76.5581 307.474 80.8794 306.744 83.9369C305.911 87.4172 305.888 91.4796 306.756 95.1908Z" fill="white"/>
<path d="M303.887 100.538C306.701 102.545 308.861 106.215 309.325 109.982C309.365 106.207 310.392 102.31 312.041 99.1713C313.55 96.2995 315.655 92.4182 319.4 91.6445C320.871 96.1159 320.395 101.585 318.016 105.204C316.217 107.946 313.431 111.38 309.377 111.288C305.677 111.477 302.482 108.95 299.968 106.841C297.263 104.573 294.823 101.257 293.797 97.6733C297.574 96.5764 301.19 98.6157 303.887 100.538Z" fill="white"/>
<path d="M308.374 124.804C308.786 121.113 307.552 117.122 305.251 114.656C303.036 112.279 299.93 109.688 296.063 110.1C296.141 113.84 298.013 117.405 299.945 120.075C301.744 122.562 304.515 125.638 308.143 126.081C311.915 126.72 315.597 124.411 317.99 121.694C321.067 118.198 322.901 113.506 322.535 108.808C318.659 108.903 315.724 112.249 313.553 114.779C311.211 117.507 309.293 121.099 308.374 124.804Z" fill="white"/>
<path d="M302.882 128.165C304.716 131.811 305.065 136.148 303.65 139.966C305.737 136.037 308.791 132.86 312.024 129.924C314.962 127.256 319.195 124.446 323.454 124.978C322.641 130.245 319.42 135.707 315.1 138.514C311.628 140.769 307.421 143.002 303.001 141.316C299.364 140.033 297.055 136.371 295.636 133.01C294.134 129.454 293.133 125.355 293.834 121.465C297.822 121.822 301.129 124.679 302.882 128.165Z" fill="white"/>
<path d="M295.175 154.019C297.482 150.506 298.287 146.11 297.344 141.983C296.45 138.074 293.731 134.504 289.766 133.394C288.113 137.16 288.085 141.541 288.684 145.514C289.244 149.19 290.611 153.479 294.007 155.53C298.203 158.191 303.102 156.617 307.125 155.025C312.315 152.972 317.001 148.004 319.193 142.665C314.657 141.227 310.02 143.599 306.24 145.566C302.33 147.601 298.246 150.503 295.175 154.019Z" fill="white"/>
<path d="M277.827 156.913C277.322 160.746 277.331 165.609 280.307 168.563C284.021 172.373 289.779 171.642 294.22 170.808C300.183 169.687 306.896 165.625 310.498 160.215C306.109 157.794 300.734 159.336 296.386 160.585L296.135 160.657C291.282 162.049 286.109 164.294 281.78 167.362C285.235 164.245 287.752 159.671 287.879 155.057C287.994 150.93 286.207 146.513 282.354 144.542C279.658 148.073 278.395 152.608 277.827 156.913Z" fill="white"/>
<path d="M274.497 184.994C269.733 184.893 263.196 184.325 260.531 179.403L260.494 179.336C258.366 175.176 260.529 170.313 262.253 166.715C264.303 162.437 267.103 158.078 271.106 154.949C274.947 158.263 274.575 163 273.43 167.116C272.066 172.011 267.354 176.181 262.475 178.555C268.124 176.453 274.292 175.194 280.16 174.825L280.757 174.787C285.472 174.484 291.608 174.089 295.36 177.541C289.676 182.364 281.608 185.144 274.497 184.994Z" fill="white"/>
</svg>
