<svg width="538" height="250" viewBox="0 0 538 250" fill="none" xmlns="http://www.w3.org/2000/svg">
<path d="M44.1277 86.1862C43.0118 81.5024 45.2914 77.1344 47.6659 73.5942C50.2797 69.6967 54.6408 66.2422 59.5114 65C58.6265 69.4188 56.0476 73.2303 53.5653 76.8138C51.0997 80.3739 47.99 83.9796 44.1277 86.1862Z" fill="white"/>
<path d="M40.7293 95.171C41.6004 91.4619 41.5811 87.4012 40.7518 83.9221C40.0226 80.8646 38.9615 76.5424 35.4692 75.084C32.9307 79.1559 31.9102 84.7009 33.3897 88.8559C34.4594 91.8612 36.3832 95.8348 40.373 96.4498C44.034 97.2938 47.736 95.3409 50.6597 93.7285C53.9107 91.9359 57.0951 89.0839 59.0299 85.6934C55.4807 83.9019 51.4388 85.3557 48.398 86.749C45.1202 88.2509 42.109 91.4734 40.7293 95.171Z" fill="white"/>
<path d="M29.4561 105.18C31.2565 107.926 34.0424 111.367 38.1045 111.269C41.7984 111.453 44.9898 108.933 47.5029 106.829C50.2095 104.562 52.6526 101.249 53.684 97.666C49.9059 96.5668 46.2887 98.6031 43.5913 100.524C40.7746 102.53 38.6083 106.201 38.1429 109.97C38.108 106.194 37.0858 102.294 35.438 99.1515C33.9314 96.2791 31.832 92.3963 28.0865 91.6201C26.6108 96.0896 27.0817 101.558 29.4561 105.18Z" fill="white"/>
<path d="M39.3056 126.062C35.5356 126.694 31.8582 124.384 29.4699 121.667C26.395 118.169 24.5655 113.476 24.9386 108.778C28.8116 108.877 31.7448 112.225 33.9129 114.756C36.2478 117.483 38.1609 121.07 39.0787 124.77C38.675 121.083 39.9132 117.1 42.2115 114.64C44.43 112.264 47.5377 109.676 51.4043 110.091C51.321 113.831 49.4465 117.393 47.5132 120.062C45.7111 122.548 42.9349 125.624 39.3056 126.062Z" fill="white"/>
<path d="M32.3419 138.488C35.8141 140.749 40.0252 142.986 44.4509 141.293C48.0817 140.008 50.3901 136.354 51.8099 132.999C53.3139 129.445 54.3184 125.346 53.623 121.456C49.6332 121.81 46.3249 124.665 44.5677 128.149C42.7307 131.792 42.3784 136.128 43.7895 139.947C41.7045 136.018 38.6554 132.839 35.4254 129.901C32.4892 127.231 28.2599 124.418 24 124.947C24.8105 130.214 28.0243 135.677 32.3419 138.488Z" fill="white"/>
<path d="M53.3943 155.53C56.8111 153.488 58.1862 149.19 58.7482 145.507C59.354 141.535 59.328 137.155 57.6784 133.387C53.7144 134.494 50.9933 138.062 50.0949 141.97C49.1456 146.098 49.9466 150.499 52.2557 154.014C49.1863 150.493 45.1049 147.585 41.1936 145.546C37.4155 143.577 32.7804 141.202 28.2432 142.636C30.4311 147.976 35.1114 152.947 40.2986 155.004C44.3157 156.596 49.2027 158.171 53.3943 155.53Z" fill="white"/>
<path d="M69.5932 156.913C70.0946 160.747 70.0804 165.609 67.1039 168.56C63.3844 172.368 57.628 171.633 53.1882 170.795C47.2276 169.67 40.518 165.605 36.9219 160.192C41.3138 157.773 46.6853 159.32 51.0334 160.572L51.2817 160.644C56.1353 162.04 61.3075 164.289 65.6331 167.362C62.1811 164.243 59.666 159.665 59.5428 155.05C59.4321 150.923 61.2236 146.507 65.0786 144.54C67.77 148.072 69.0303 152.608 69.5932 156.913Z" fill="white"/>
<path d="M86.8678 179.415C89.0598 175.242 86.888 170.345 85.1574 166.726C83.1114 162.447 80.3159 158.086 76.3152 154.954C72.4737 158.265 72.839 163.002 73.9811 167.119C75.3392 172.014 80.0475 176.187 84.923 178.565C79.2765 176.459 73.1098 175.195 67.2427 174.822L66.6484 174.784C61.935 174.477 55.7989 174.077 52.043 177.526C57.7218 182.354 65.788 185.139 72.8973 184.995C77.6615 184.898 84.1981 184.334 86.8678 179.415Z" fill="white"/>
<path d="M229.697 63.3182H240.152V104.227C240.133 107.977 239.338 111.206 237.766 113.915C236.194 116.604 233.997 118.678 231.175 120.136C228.372 121.576 225.105 122.295 221.374 122.295C217.965 122.295 214.896 121.689 212.169 120.477C209.461 119.246 207.311 117.428 205.72 115.023C204.129 112.617 203.334 109.625 203.334 106.045H213.817C213.836 107.617 214.177 108.972 214.84 110.108C215.521 111.244 216.459 112.116 217.652 112.722C218.845 113.328 220.218 113.631 221.771 113.631C223.457 113.631 224.887 113.28 226.061 112.58C227.235 111.86 228.126 110.799 228.732 109.398C229.357 107.996 229.679 106.273 229.697 104.227V63.3182ZM249.987 121.5V63.3182H287.259V72.1534H260.526V87.9489H284.703V96.7841H260.526V121.5H249.987ZM295.262 121.5V63.3182H332.534V72.1534H305.801V87.9489H329.978V96.7841H305.801V121.5H295.262Z" fill="white"/>
<path d="M136.067 148.632H137.989V159.975C137.989 160.988 137.803 161.848 137.431 162.555C137.059 163.263 136.535 163.8 135.858 164.167C135.182 164.534 134.383 164.717 133.464 164.717C132.596 164.717 131.824 164.559 131.147 164.244C130.471 163.924 129.939 163.47 129.551 162.881C129.164 162.292 128.97 161.592 128.97 160.781H130.861C130.861 161.23 130.972 161.623 131.194 161.959C131.421 162.289 131.731 162.548 132.124 162.733C132.516 162.919 132.963 163.012 133.464 163.012C134.017 163.012 134.487 162.896 134.874 162.664C135.262 162.431 135.556 162.09 135.757 161.641C135.964 161.186 136.067 160.631 136.067 159.975V148.632ZM141.403 164.5V148.632H150.98V150.337H143.325V155.698H150.484V157.403H143.325V162.795H151.104V164.5H141.403ZM154.007 164.5V148.632H159.368C160.608 148.632 161.625 148.844 162.421 149.268C163.216 149.686 163.805 150.262 164.187 150.995C164.57 151.729 164.761 152.563 164.761 153.498C164.761 154.433 164.57 155.262 164.187 155.985C163.805 156.708 163.219 157.276 162.429 157.69C161.638 158.098 160.629 158.302 159.399 158.302H155.06V156.566H159.337C160.184 156.566 160.866 156.442 161.383 156.194C161.904 155.946 162.281 155.595 162.514 155.14C162.751 154.681 162.87 154.133 162.87 153.498C162.87 152.863 162.751 152.307 162.514 151.832C162.276 151.357 161.897 150.99 161.375 150.732C160.853 150.468 160.164 150.337 159.306 150.337H155.928V164.5H154.007ZM161.476 157.372L165.381 164.5H163.149L159.306 157.372H161.476ZM177.939 148.632H179.861V159.138C179.861 160.223 179.605 161.192 179.094 162.044C178.588 162.891 177.872 163.56 176.948 164.051C176.023 164.536 174.938 164.779 173.694 164.779C172.449 164.779 171.364 164.536 170.439 164.051C169.515 163.56 168.797 162.891 168.286 162.044C167.779 161.192 167.526 160.223 167.526 159.138V148.632H169.448V158.983C169.448 159.758 169.618 160.448 169.959 161.052C170.3 161.651 170.786 162.124 171.416 162.47C172.051 162.811 172.81 162.981 173.694 162.981C174.577 162.981 175.336 162.811 175.971 162.47C176.607 162.124 177.092 161.651 177.428 161.052C177.769 160.448 177.939 159.758 177.939 158.983V148.632ZM191.939 152.599C191.846 151.814 191.469 151.205 190.808 150.771C190.147 150.337 189.336 150.12 188.375 150.12C187.673 150.12 187.058 150.233 186.531 150.461C186.01 150.688 185.602 151.001 185.307 151.398C185.018 151.796 184.873 152.248 184.873 152.754C184.873 153.178 184.974 153.542 185.175 153.847C185.382 154.146 185.646 154.397 185.966 154.598C186.286 154.794 186.622 154.957 186.973 155.086C187.324 155.21 187.647 155.311 187.941 155.388L189.553 155.822C189.966 155.931 190.426 156.081 190.932 156.272C191.444 156.463 191.932 156.724 192.397 157.054C192.867 157.38 193.254 157.798 193.559 158.309C193.863 158.821 194.016 159.448 194.016 160.192C194.016 161.05 193.791 161.824 193.342 162.517C192.898 163.209 192.247 163.759 191.389 164.167C190.537 164.575 189.501 164.779 188.282 164.779C187.146 164.779 186.162 164.596 185.33 164.229C184.504 163.862 183.853 163.351 183.378 162.695C182.908 162.039 182.642 161.277 182.58 160.409H184.563C184.615 161.008 184.816 161.504 185.168 161.897C185.524 162.284 185.974 162.573 186.516 162.764C187.063 162.95 187.652 163.043 188.282 163.043C189.016 163.043 189.674 162.925 190.258 162.687C190.842 162.444 191.304 162.108 191.645 161.68C191.986 161.246 192.156 160.74 192.156 160.161C192.156 159.634 192.009 159.206 191.715 158.875C191.42 158.544 191.033 158.276 190.553 158.069C190.072 157.863 189.553 157.682 188.995 157.527L187.043 156.969C185.803 156.613 184.822 156.104 184.099 155.443C183.375 154.782 183.014 153.916 183.014 152.847C183.014 151.959 183.254 151.184 183.734 150.523C184.22 149.856 184.871 149.34 185.687 148.973C186.508 148.601 187.425 148.415 188.437 148.415C189.46 148.415 190.369 148.599 191.165 148.965C191.96 149.327 192.59 149.823 193.055 150.453C193.525 151.083 193.773 151.799 193.799 152.599H191.939ZM197.39 164.5H195.375L201.202 148.632H203.185L209.011 164.5H206.997L202.255 151.143H202.131L197.39 164.5ZM198.133 158.302H206.253V160.006H198.133V158.302ZM211.047 164.5V148.632H212.968V162.795H220.344V164.5H211.047ZM222.883 164.5V148.632H232.459V150.337H224.805V155.698H231.964V157.403H224.805V162.795H232.583V164.5H222.883ZM235.486 148.632H237.78L243.172 161.804H243.358L248.751 148.632H251.044V164.5H249.247V152.444H249.092L244.133 164.5H242.398L237.439 152.444H237.284V164.5H235.486V148.632ZM260.161 164.5V148.632H269.675V150.337H262.082V155.698H268.962V157.403H262.082V164.5H260.161ZM274.451 148.632V164.5H272.53V148.632H274.451ZM277.867 164.5V148.632H279.789V162.795H287.165V164.5H277.867ZM289.704 148.632H291.997L297.39 161.804H297.576L302.968 148.632H305.262V164.5H303.464V152.444H303.309L298.35 164.5H296.615L291.656 152.444H291.501V164.5H289.704V148.632ZM314.378 164.5V148.632H323.892V150.337H316.299V155.698H323.18V157.403H316.299V164.5H314.378ZM326.747 164.5V148.632H336.323V150.337H328.668V155.698H335.828V157.403H328.668V162.795H336.447V164.5H326.747ZM348.028 152.599C347.935 151.814 347.558 151.205 346.897 150.771C346.236 150.337 345.425 150.12 344.464 150.12C343.762 150.12 343.147 150.233 342.62 150.461C342.098 150.688 341.69 151.001 341.396 151.398C341.107 151.796 340.962 152.248 340.962 152.754C340.962 153.178 341.063 153.542 341.264 153.847C341.471 154.146 341.734 154.397 342.054 154.598C342.375 154.794 342.71 154.957 343.062 155.086C343.413 155.21 343.736 155.311 344.03 155.388L345.642 155.822C346.055 155.931 346.515 156.081 347.021 156.272C347.532 156.463 348.02 156.724 348.485 157.054C348.955 157.38 349.343 157.798 349.647 158.309C349.952 158.821 350.104 159.448 350.104 160.192C350.104 161.05 349.88 161.824 349.43 162.517C348.986 163.209 348.335 163.759 347.478 164.167C346.626 164.575 345.59 164.779 344.371 164.779C343.235 164.779 342.251 164.596 341.419 164.229C340.593 163.862 339.942 163.351 339.467 162.695C338.997 162.039 338.731 161.277 338.669 160.409H340.652C340.704 161.008 340.905 161.504 341.256 161.897C341.613 162.284 342.062 162.573 342.604 162.764C343.152 162.95 343.741 163.043 344.371 163.043C345.104 163.043 345.763 162.925 346.347 162.687C346.93 162.444 347.393 162.108 347.734 161.68C348.075 161.246 348.245 160.74 348.245 160.161C348.245 159.634 348.098 159.206 347.803 158.875C347.509 158.544 347.122 158.276 346.641 158.069C346.161 157.863 345.642 157.682 345.084 157.527L343.131 156.969C341.892 156.613 340.91 156.104 340.187 155.443C339.464 154.782 339.102 153.916 339.102 152.847C339.102 151.959 339.343 151.184 339.823 150.523C340.309 149.856 340.959 149.34 341.775 148.973C342.597 148.601 343.514 148.415 344.526 148.415C345.549 148.415 346.458 148.599 347.253 148.965C348.049 149.327 348.679 149.823 349.144 150.453C349.614 151.083 349.862 151.799 349.888 152.599H348.028ZM351.96 150.337V148.632H363.86V150.337H358.871V164.5H356.949V150.337H351.96ZM368.311 148.632V164.5H366.39V148.632H368.311ZM372.378 148.632L377.089 161.99H377.275L381.986 148.632H384L378.174 164.5H376.19L370.364 148.632H372.378ZM385.322 164.5H383.308L389.134 148.632H391.118L396.944 164.5H394.93L390.188 151.143H390.064L385.322 164.5ZM386.066 158.302H394.186V160.006H386.066V158.302ZM398.98 164.5V148.632H400.901V162.795H408.277V164.5H398.98Z" fill="white"/>
<path d="M200.036 185.599C199.943 184.814 199.566 184.205 198.905 183.771C198.244 183.337 197.433 183.12 196.472 183.12C195.769 183.12 195.155 183.233 194.628 183.461C194.106 183.688 193.698 184.001 193.404 184.398C193.115 184.796 192.97 185.248 192.97 185.754C192.97 186.178 193.071 186.542 193.272 186.847C193.479 187.146 193.742 187.397 194.062 187.598C194.383 187.794 194.718 187.957 195.07 188.086C195.421 188.21 195.744 188.311 196.038 188.388L197.65 188.822C198.063 188.931 198.523 189.081 199.029 189.272C199.54 189.463 200.028 189.724 200.493 190.054C200.963 190.38 201.351 190.798 201.655 191.309C201.96 191.821 202.112 192.448 202.112 193.192C202.112 194.05 201.888 194.824 201.438 195.517C200.994 196.209 200.343 196.759 199.486 197.167C198.634 197.575 197.598 197.779 196.379 197.779C195.243 197.779 194.259 197.596 193.427 197.229C192.601 196.862 191.95 196.351 191.475 195.695C191.004 195.039 190.738 194.277 190.676 193.409H192.66C192.712 194.008 192.913 194.504 193.264 194.897C193.621 195.284 194.07 195.573 194.612 195.764C195.16 195.95 195.749 196.043 196.379 196.043C197.112 196.043 197.771 195.925 198.355 195.687C198.938 195.444 199.401 195.108 199.742 194.68C200.082 194.246 200.253 193.74 200.253 193.161C200.253 192.634 200.106 192.206 199.811 191.875C199.517 191.544 199.129 191.276 198.649 191.069C198.169 190.863 197.65 190.682 197.092 190.527L195.139 189.969C193.9 189.613 192.918 189.104 192.195 188.443C191.472 187.782 191.11 186.916 191.11 185.847C191.11 184.959 191.351 184.184 191.831 183.523C192.316 182.856 192.967 182.34 193.783 181.973C194.605 181.601 195.522 181.415 196.534 181.415C197.557 181.415 198.466 181.599 199.261 181.965C200.057 182.327 200.687 182.823 201.152 183.453C201.622 184.083 201.87 184.799 201.896 185.599H200.036ZM204.587 201.963V185.599H206.354V187.49H206.571C206.705 187.283 206.891 187.02 207.129 186.699C207.371 186.374 207.718 186.085 208.167 185.832C208.621 185.573 209.236 185.444 210.011 185.444C211.013 185.444 211.896 185.695 212.661 186.196C213.425 186.697 214.022 187.407 214.45 188.326C214.879 189.246 215.094 190.331 215.094 191.581C215.094 192.841 214.879 193.933 214.45 194.858C214.022 195.777 213.428 196.49 212.668 196.996C211.909 197.497 211.034 197.748 210.042 197.748C209.277 197.748 208.665 197.621 208.206 197.368C207.746 197.11 207.392 196.818 207.144 196.493C206.896 196.162 206.705 195.888 206.571 195.671H206.416V201.963H204.587ZM206.385 191.55C206.385 192.448 206.517 193.241 206.78 193.928C207.043 194.61 207.428 195.145 207.934 195.532C208.441 195.914 209.061 196.105 209.794 196.105C210.558 196.105 211.196 195.904 211.708 195.501C212.224 195.093 212.612 194.545 212.87 193.858C213.133 193.166 213.265 192.397 213.265 191.55C213.265 190.713 213.136 189.959 212.878 189.287C212.625 188.611 212.24 188.076 211.723 187.683C211.212 187.286 210.569 187.087 209.794 187.087C209.05 187.087 208.425 187.275 207.919 187.652C207.413 188.024 207.031 188.546 206.772 189.217C206.514 189.884 206.385 190.661 206.385 191.55ZM222.436 197.748C221.289 197.748 220.3 197.495 219.469 196.989C218.642 196.477 218.004 195.764 217.555 194.85C217.111 193.931 216.889 192.862 216.889 191.643C216.889 190.424 217.111 189.349 217.555 188.419C218.004 187.485 218.629 186.756 219.43 186.235C220.236 185.708 221.176 185.444 222.25 185.444C222.87 185.444 223.482 185.548 224.086 185.754C224.691 185.961 225.241 186.296 225.737 186.761C226.233 187.221 226.628 187.831 226.922 188.59C227.217 189.349 227.364 190.284 227.364 191.395V192.169H218.19V190.589H225.504C225.504 189.917 225.37 189.318 225.101 188.791C224.838 188.264 224.461 187.849 223.97 187.544C223.485 187.239 222.911 187.087 222.25 187.087C221.522 187.087 220.892 187.268 220.36 187.629C219.833 187.986 219.427 188.45 219.143 189.024C218.859 189.597 218.717 190.212 218.717 190.868V191.921C218.717 192.82 218.872 193.582 219.182 194.207C219.497 194.827 219.934 195.3 220.491 195.625C221.049 195.945 221.697 196.105 222.436 196.105C222.917 196.105 223.35 196.038 223.738 195.904C224.13 195.764 224.469 195.558 224.753 195.284C225.037 195.005 225.256 194.659 225.411 194.246L227.178 194.742C226.992 195.341 226.679 195.868 226.24 196.322C225.801 196.772 225.259 197.123 224.613 197.376C223.968 197.624 223.242 197.748 222.436 197.748ZM234.544 197.748C233.428 197.748 232.467 197.485 231.661 196.958C230.856 196.431 230.236 195.705 229.802 194.78C229.368 193.856 229.151 192.8 229.151 191.612C229.151 190.403 229.373 189.336 229.817 188.412C230.267 187.482 230.892 186.756 231.692 186.235C232.498 185.708 233.438 185.444 234.513 185.444C235.349 185.444 236.104 185.599 236.775 185.909C237.447 186.219 237.997 186.653 238.425 187.211C238.854 187.769 239.12 188.419 239.223 189.163H237.395C237.255 188.621 236.946 188.14 236.465 187.722C235.99 187.299 235.349 187.087 234.544 187.087C233.831 187.087 233.206 187.273 232.669 187.645C232.137 188.011 231.721 188.53 231.421 189.202C231.127 189.868 230.98 190.651 230.98 191.55C230.98 192.469 231.124 193.27 231.414 193.951C231.708 194.633 232.121 195.163 232.653 195.54C233.19 195.917 233.821 196.105 234.544 196.105C235.019 196.105 235.45 196.023 235.838 195.857C236.225 195.692 236.553 195.455 236.822 195.145C237.09 194.835 237.281 194.463 237.395 194.029H239.223C239.12 194.731 238.864 195.364 238.456 195.927C238.053 196.485 237.519 196.929 236.853 197.26C236.191 197.585 235.422 197.748 234.544 197.748ZM241.46 197.5V185.599H243.289V197.5H241.46ZM242.39 183.616C242.033 183.616 241.726 183.494 241.468 183.252C241.215 183.009 241.088 182.717 241.088 182.376C241.088 182.035 241.215 181.743 241.468 181.501C241.726 181.258 242.033 181.136 242.39 181.136C242.746 181.136 243.051 181.258 243.304 181.501C243.562 181.743 243.692 182.035 243.692 182.376C243.692 182.717 243.562 183.009 243.304 183.252C243.051 183.494 242.746 183.616 242.39 183.616ZM249.703 197.779C248.949 197.779 248.265 197.637 247.65 197.353C247.035 197.064 246.547 196.648 246.186 196.105C245.824 195.558 245.643 194.897 245.643 194.122C245.643 193.44 245.778 192.887 246.046 192.464C246.315 192.035 246.674 191.699 247.123 191.457C247.573 191.214 248.069 191.033 248.611 190.914C249.158 190.79 249.709 190.692 250.261 190.62C250.984 190.527 251.571 190.457 252.02 190.411C252.475 190.359 252.805 190.274 253.012 190.155C253.224 190.036 253.329 189.83 253.329 189.535V189.473C253.329 188.709 253.12 188.115 252.702 187.691C252.289 187.268 251.661 187.056 250.819 187.056C249.946 187.056 249.262 187.247 248.766 187.629C248.27 188.011 247.921 188.419 247.72 188.853L245.984 188.233C246.294 187.51 246.707 186.947 247.224 186.544C247.746 186.136 248.314 185.852 248.929 185.692C249.548 185.527 250.158 185.444 250.757 185.444C251.139 185.444 251.578 185.491 252.074 185.584C252.575 185.671 253.058 185.855 253.523 186.134C253.993 186.413 254.383 186.834 254.693 187.397C255.003 187.96 255.158 188.714 255.158 189.659V197.5H253.329V195.888H253.236C253.112 196.147 252.906 196.423 252.617 196.717C252.327 197.012 251.943 197.262 251.462 197.469C250.982 197.676 250.396 197.779 249.703 197.779ZM249.982 196.136C250.705 196.136 251.315 195.994 251.811 195.71C252.312 195.426 252.689 195.059 252.942 194.61C253.2 194.161 253.329 193.688 253.329 193.192V191.519C253.252 191.612 253.081 191.697 252.818 191.774C252.56 191.847 252.26 191.911 251.919 191.968C251.584 192.02 251.256 192.066 250.935 192.107C250.62 192.144 250.365 192.175 250.168 192.2C249.693 192.262 249.249 192.363 248.836 192.503C248.428 192.637 248.097 192.841 247.844 193.115C247.596 193.383 247.472 193.75 247.472 194.215C247.472 194.85 247.707 195.331 248.177 195.656C248.652 195.976 249.254 196.136 249.982 196.136ZM259.887 181.632V197.5H258.059V181.632H259.887ZM268.748 181.632H271.041L276.434 194.804H276.62L282.013 181.632H284.306V197.5H282.508V185.444H282.353L277.395 197.5H275.659L270.701 185.444H270.546V197.5H268.748V181.632ZM292.464 197.748C291.317 197.748 290.328 197.495 289.497 196.989C288.67 196.477 288.032 195.764 287.583 194.85C287.139 193.931 286.916 192.862 286.916 191.643C286.916 190.424 287.139 189.349 287.583 188.419C288.032 187.485 288.657 186.756 289.458 186.235C290.264 185.708 291.204 185.444 292.278 185.444C292.898 185.444 293.51 185.548 294.114 185.754C294.719 185.961 295.269 186.296 295.765 186.761C296.26 187.221 296.656 187.831 296.95 188.59C297.244 189.349 297.392 190.284 297.392 191.395V192.169H288.218V190.589H295.532C295.532 189.917 295.398 189.318 295.129 188.791C294.866 188.264 294.489 187.849 293.998 187.544C293.513 187.239 292.939 187.087 292.278 187.087C291.55 187.087 290.92 187.268 290.388 187.629C289.861 187.986 289.455 188.45 289.171 189.024C288.887 189.597 288.745 190.212 288.745 190.868V191.921C288.745 192.82 288.9 193.582 289.21 194.207C289.525 194.827 289.961 195.3 290.519 195.625C291.077 195.945 291.725 196.105 292.464 196.105C292.944 196.105 293.378 196.038 293.766 195.904C294.158 195.764 294.497 195.558 294.781 195.284C295.065 195.005 295.284 194.659 295.439 194.246L297.206 194.742C297.02 195.341 296.707 195.868 296.268 196.322C295.829 196.772 295.287 197.123 294.641 197.376C293.995 197.624 293.27 197.748 292.464 197.748ZM301.565 190.341V197.5H299.737V185.599H301.503V187.459H301.658C301.937 186.854 302.361 186.369 302.929 186.002C303.497 185.63 304.231 185.444 305.129 185.444C305.935 185.444 306.64 185.61 307.245 185.94C307.849 186.265 308.319 186.761 308.655 187.428C308.99 188.089 309.158 188.926 309.158 189.938V197.5H307.33V190.062C307.33 189.127 307.087 188.399 306.601 187.877C306.116 187.35 305.45 187.087 304.603 187.087C304.019 187.087 303.497 187.213 303.037 187.466C302.583 187.72 302.224 188.089 301.96 188.574C301.697 189.06 301.565 189.649 301.565 190.341ZM317.239 185.599V187.149H311.071V185.599H317.239ZM312.869 182.748H314.698V194.091C314.698 194.607 314.772 194.995 314.922 195.253C315.077 195.506 315.273 195.677 315.511 195.764C315.754 195.847 316.01 195.888 316.278 195.888C316.48 195.888 316.645 195.878 316.774 195.857C316.903 195.832 317.006 195.811 317.084 195.795L317.456 197.438C317.332 197.485 317.159 197.531 316.937 197.577C316.715 197.629 316.433 197.655 316.092 197.655C315.576 197.655 315.069 197.544 314.574 197.322C314.083 197.1 313.675 196.761 313.349 196.307C313.029 195.852 312.869 195.279 312.869 194.587V182.748ZM319.553 197.5V185.599H321.382V197.5H319.553ZM320.483 183.616C320.126 183.616 319.819 183.494 319.561 183.252C319.308 183.009 319.181 182.717 319.181 182.376C319.181 182.035 319.308 181.743 319.561 181.501C319.819 181.258 320.126 181.136 320.483 181.136C320.839 181.136 321.144 181.258 321.397 181.501C321.655 181.743 321.784 182.035 321.784 182.376C321.784 182.717 321.655 183.009 321.397 183.252C321.144 183.494 320.839 183.616 320.483 183.616ZM329.129 197.748C328.055 197.748 327.112 197.492 326.301 196.981C325.495 196.47 324.865 195.754 324.41 194.835C323.961 193.915 323.736 192.841 323.736 191.612C323.736 190.372 323.961 189.29 324.41 188.365C324.865 187.441 325.495 186.723 326.301 186.211C327.112 185.7 328.055 185.444 329.129 185.444C330.203 185.444 331.143 185.7 331.949 186.211C332.76 186.723 333.39 187.441 333.84 188.365C334.294 189.29 334.521 190.372 334.521 191.612C334.521 192.841 334.294 193.915 333.84 194.835C333.39 195.754 332.76 196.47 331.949 196.981C331.143 197.492 330.203 197.748 329.129 197.748ZM329.129 196.105C329.945 196.105 330.617 195.896 331.143 195.478C331.67 195.059 332.06 194.509 332.313 193.827C332.566 193.146 332.693 192.407 332.693 191.612C332.693 190.816 332.566 190.075 332.313 189.388C332.06 188.701 331.67 188.146 331.143 187.722C330.617 187.299 329.945 187.087 329.129 187.087C328.313 187.087 327.641 187.299 327.114 187.722C326.588 188.146 326.198 188.701 325.944 189.388C325.691 190.075 325.565 190.816 325.565 191.612C325.565 192.407 325.691 193.146 325.944 193.827C326.198 194.509 326.588 195.059 327.114 195.478C327.641 195.896 328.313 196.105 329.129 196.105ZM338.705 190.341V197.5H336.876V185.599H338.643V187.459H338.798C339.077 186.854 339.5 186.369 340.068 186.002C340.637 185.63 341.37 185.444 342.269 185.444C343.075 185.444 343.78 185.61 344.384 185.94C344.988 186.265 345.458 186.761 345.794 187.428C346.13 188.089 346.298 188.926 346.298 189.938V197.5H344.469V190.062C344.469 189.127 344.227 188.399 343.741 187.877C343.255 187.35 342.589 187.087 341.742 187.087C341.158 187.087 340.637 187.213 340.177 187.466C339.722 187.72 339.363 188.089 339.1 188.574C338.837 189.06 338.705 189.649 338.705 190.341Z" fill="white"/>
<path d="M489.838 73.6038C492.208 77.1463 494.484 81.5164 493.365 86.1997C489.504 83.9897 486.398 80.3814 483.935 76.8193C481.455 73.2333 478.88 69.42 477.998 65C482.868 66.2457 487.228 69.7037 489.838 73.6038Z" fill="white"/>
<path d="M496.756 95.1908C495.38 91.4902 492.37 88.2635 489.094 86.7585C486.052 85.3629 482.012 83.9064 478.462 85.6948C480.394 89.0871 483.575 91.9415 486.824 93.7369C489.745 95.3511 493.445 97.3068 497.107 96.4662C501.098 95.8549 503.027 91.8818 504.1 88.8763C505.585 84.723 504.57 79.1764 502.035 75.1016C498.54 76.5581 497.474 80.8794 496.744 83.9369C495.911 87.4172 495.888 91.4796 496.756 95.1908Z" fill="white"/>
<path d="M493.887 100.538C496.701 102.545 498.861 106.215 499.325 109.982C499.365 106.207 500.392 102.31 502.041 99.1713C503.55 96.2995 505.655 92.4182 509.4 91.6445C510.871 96.1159 510.395 101.585 508.016 105.204C506.217 107.946 503.431 111.38 499.377 111.288C495.677 111.477 492.482 108.95 489.968 106.841C487.263 104.573 484.823 101.257 483.797 97.6733C487.574 96.5764 491.19 98.6157 493.887 100.538Z" fill="white"/>
<path d="M498.374 124.804C498.786 121.113 497.552 117.122 495.251 114.656C493.036 112.279 489.93 109.688 486.063 110.1C486.141 113.84 488.013 117.405 489.945 120.075C491.744 122.562 494.515 125.638 498.143 126.081C501.915 126.72 505.597 124.411 507.99 121.694C511.067 118.198 512.901 113.506 512.535 108.808C508.659 108.903 505.724 112.249 503.553 114.779C501.211 117.507 499.293 121.099 498.374 124.804Z" fill="white"/>
<path d="M492.882 128.165C494.716 131.811 495.065 136.148 493.65 139.966C495.737 136.037 498.791 132.86 502.024 129.924C504.962 127.256 509.195 124.446 513.454 124.978C512.641 130.245 509.42 135.707 505.1 138.514C501.628 140.769 497.421 143.002 493.001 141.316C489.364 140.033 487.055 136.371 485.636 133.01C484.134 129.454 483.133 125.355 483.834 121.465C487.822 121.822 491.129 124.679 492.882 128.165Z" fill="white"/>
<path d="M485.175 154.019C487.482 150.506 488.287 146.11 487.344 141.983C486.45 138.074 483.731 134.504 479.766 133.394C478.113 137.16 478.085 141.541 478.684 145.514C479.244 149.19 480.611 153.479 484.007 155.53C488.203 158.191 493.102 156.617 497.125 155.025C502.315 152.972 507.001 148.004 509.193 142.665C504.657 141.227 500.02 143.599 496.24 145.566C492.33 147.601 488.246 150.503 485.175 154.019Z" fill="white"/>
<path d="M467.827 156.913C467.322 160.746 467.331 165.609 470.307 168.563C474.021 172.373 479.779 171.642 484.22 170.808C490.183 169.687 496.896 165.625 500.498 160.215C496.109 157.794 490.734 159.336 486.386 160.585L486.135 160.657C481.282 162.049 476.109 164.294 471.78 167.362C475.235 164.245 477.752 159.671 477.879 155.057C477.994 150.93 476.207 146.513 472.354 144.542C469.658 148.073 468.395 152.608 467.827 156.913Z" fill="white"/>
<path d="M464.497 184.994C459.733 184.893 453.196 184.325 450.531 179.403L450.494 179.336C448.366 175.176 450.529 170.313 452.253 166.715C454.303 162.437 457.103 158.078 461.106 154.949C464.947 158.263 464.575 163 463.43 167.116C462.066 172.011 457.354 176.181 452.475 178.555C458.124 176.453 464.292 175.194 470.16 174.825L470.757 174.787C475.472 174.484 481.608 174.089 485.36 177.541C479.676 182.364 471.608 185.144 464.497 184.994Z" fill="white"/>
</svg>
