<svg width="116" height="116" viewBox="0 0 116 116" fill="none" xmlns="http://www.w3.org/2000/svg">
<path fill-rule="evenodd" clip-rule="evenodd" d="M25.4531 11.6836C27.7188 11.6836 29.4049 11.7812 30.5117 11.9766C31.6315 12.1589 32.6276 12.5495 33.5 13.1484C34.3854 13.7474 35.1211 14.5482 35.707 15.5508C36.293 16.5404 36.5859 17.6536 36.5859 18.8906C36.5859 20.2318 36.2214 21.4622 35.4922 22.582C34.776 23.7018 33.7995 24.5417 32.5625 25.1016C34.3073 25.6094 35.6484 26.4753 36.5859 27.6992C37.5234 28.9232 37.9922 30.362 37.9922 32.0156C37.9922 33.3177 37.6862 34.5872 37.0742 35.8242C36.4753 37.0482 35.6484 38.0312 34.5938 38.7734C33.5521 39.5026 32.263 39.9518 30.7266 40.1211C29.763 40.2253 27.4388 40.2904 23.7539 40.3164H14.0078V11.6836H25.4531ZM19.7891 35.4922H25.1406C27.224 35.4922 28.5456 35.4336 29.1055 35.3164C29.9648 35.1602 30.6615 34.7826 31.1953 34.1836C31.7422 33.5716 32.0156 32.7578 32.0156 31.7422C32.0156 30.8828 31.8073 30.1536 31.3906 29.5547C30.974 28.9557 30.3685 28.5195 29.5742 28.2461C28.793 27.9727 27.0872 27.8359 24.457 27.8359H19.7891V35.4922ZM19.7891 23.0703H23.5781C25.8307 23.0703 27.2305 23.0378 27.7773 22.9727C28.7669 22.8555 29.5417 22.5169 30.1016 21.957C30.6745 21.3841 30.9609 20.6354 30.9609 19.7109C30.9609 18.8255 30.7135 18.1094 30.2188 17.5625C29.737 17.0026 29.0143 16.6641 28.0508 16.5469C27.4779 16.4818 25.8307 16.4492 23.1094 16.4492H19.7891V23.0703Z" fill="#1D1D1D"/>
<path d="M60.8906 40.3164H55.1094V11.6836H60.8906V40.3164Z" fill="#1D1D1D"/>
<path d="M95.9863 30.8047V11.6836H101.357V40.3164H95.5566L84.0137 21.6445V40.3164H78.6426V11.6836H84.2676L95.9863 30.8047Z" fill="#1D1D1D"/>
<path d="M25.8438 43.1855C29.4375 43.1855 32.1393 43.9733 33.9492 45.5488C35.7721 47.1243 36.7292 49.2272 36.8203 51.8574L31.0391 52.1113C30.7917 50.64 30.2578 49.5853 29.4375 48.9473C28.6302 48.2962 27.4128 47.9707 25.7852 47.9707C24.1055 47.9707 22.7904 48.3158 21.8398 49.0059C21.2279 49.4486 20.9219 50.041 20.9219 50.7832C20.9219 51.4603 21.2083 52.0397 21.7812 52.5215C22.5104 53.1335 24.2812 53.7715 27.0938 54.4355C29.9062 55.0996 31.9831 55.7897 33.3242 56.5059C34.6784 57.209 35.7331 58.179 36.4883 59.416C37.2565 60.64 37.6406 62.1569 37.6406 63.9668C37.6406 65.6074 37.1849 67.1439 36.2734 68.5762C35.362 70.0085 34.0729 71.0762 32.4062 71.7793C30.7396 72.4694 28.6628 72.8145 26.1758 72.8145C22.556 72.8145 19.776 71.9811 17.8359 70.3145C15.8958 68.6348 14.737 66.1934 14.3594 62.9902L19.9844 62.4434C20.3229 64.3314 21.0065 65.7181 22.0352 66.6035C23.0768 67.4889 24.4766 67.9316 26.2344 67.9316C28.0964 67.9316 29.4961 67.541 30.4336 66.7598C31.3841 65.9655 31.8594 65.041 31.8594 63.9863C31.8594 63.3092 31.6576 62.7363 31.2539 62.2676C30.8633 61.7858 30.1732 61.3691 29.1836 61.0176C28.5065 60.7832 26.9635 60.3665 24.5547 59.7676C21.4557 58.9993 19.2812 58.0553 18.0312 56.9355C16.2734 55.36 15.3945 53.4395 15.3945 51.1738C15.3945 49.7155 15.8047 48.3548 16.625 47.0918C17.4583 45.8158 18.6497 44.8457 20.1992 44.1816C21.7617 43.5176 23.6432 43.1855 25.8438 43.1855Z" fill="#1D1D1D"/>
<path d="M100.342 48.5273H84.8926V54.875H99.2676V59.6992H84.8926V67.4922H100.889V72.3164H79.1113V43.6836H100.342V48.5273Z" fill="#1D1D1D"/>
<path d="M69.7539 80.8438H61.2773V104.633H55.4961V80.8438H47V76H69.7539V80.8438Z" fill="#1D1D1D"/>
<path fill-rule="evenodd" clip-rule="evenodd" d="M88.5645 75.6836C90.9473 75.6836 92.7637 75.8659 94.0137 76.2305C95.6934 76.7253 97.1322 77.6042 98.3301 78.8672C99.528 80.1302 100.439 81.6797 101.064 83.5156C101.689 85.3385 102.002 87.5911 102.002 90.2734C102.002 92.6302 101.709 94.6615 101.123 96.3672C100.407 98.4505 99.3848 100.137 98.0566 101.426C97.054 102.402 95.6999 103.164 93.9941 103.711C92.7181 104.115 91.0124 104.316 88.877 104.316H77.998V75.6836H88.5645ZM83.7793 99.4922H88.0957C89.7103 99.4922 90.8757 99.401 91.5918 99.2188C92.5293 98.9844 93.304 98.5872 93.916 98.0273C94.541 97.4674 95.0488 96.5495 95.4395 95.2734C95.8301 93.9844 96.0254 92.2331 96.0254 90.0195C96.0254 87.806 95.8301 86.1068 95.4395 84.9219C95.0488 83.737 94.502 82.8125 93.7988 82.1484C93.0957 81.4844 92.2038 81.0352 91.123 80.8008C90.3158 80.6185 88.7337 80.5273 86.377 80.5273H83.7793V99.4922Z" fill="#1D1D1D"/>
</svg>
