<svg width="106" height="106" viewBox="0 0 106 106" fill="none" xmlns="http://www.w3.org/2000/svg">
<path fill-rule="evenodd" clip-rule="evenodd" d="M20.4531 6.68359C22.7188 6.68359 24.4049 6.78125 25.5117 6.97656C26.6315 7.15885 27.6276 7.54948 28.5 8.14844C29.3854 8.7474 30.1211 9.54818 30.707 10.5508C31.293 11.5404 31.5859 12.6536 31.5859 13.8906C31.5859 15.2318 31.2214 16.4622 30.4922 17.582C29.776 18.7018 28.7995 19.5417 27.5625 20.1016C29.3073 20.6094 30.6484 21.4753 31.5859 22.6992C32.5234 23.9232 32.9922 25.362 32.9922 27.0156C32.9922 28.3177 32.6862 29.5872 32.0742 30.8242C31.4753 32.0482 30.6484 33.0312 29.5938 33.7734C28.5521 34.5026 27.263 34.9518 25.7266 35.1211C24.763 35.2253 22.4388 35.2904 18.7539 35.3164H9.00781V6.68359H20.4531ZM14.7891 30.4922H20.1406C22.224 30.4922 23.5456 30.4336 24.1055 30.3164C24.9648 30.1602 25.6615 29.7826 26.1953 29.1836C26.7422 28.5716 27.0156 27.7578 27.0156 26.7422C27.0156 25.8828 26.8073 25.1536 26.3906 24.5547C25.974 23.9557 25.3685 23.5195 24.5742 23.2461C23.793 22.9727 22.0872 22.8359 19.457 22.8359H14.7891V30.4922ZM14.7891 18.0703H18.5781C20.8307 18.0703 22.2305 18.0378 22.7773 17.9727C23.7669 17.8555 24.5417 17.5169 25.1016 16.957C25.6745 16.3841 25.9609 15.6354 25.9609 14.7109C25.9609 13.8255 25.7135 13.1094 25.2188 12.5625C24.737 12.0026 24.0143 11.6641 23.0508 11.5469C22.4779 11.4818 20.8307 11.4492 18.1094 11.4492H14.7891V18.0703Z" fill="#1D1D1D"/>
<path d="M55.8906 35.3164H50.1094V6.68359H55.8906V35.3164Z" fill="#1D1D1D"/>
<path d="M90.9863 25.8047V6.68359H96.3574V35.3164H90.5566L79.0137 16.6445V35.3164H73.6426V6.68359H79.2676L90.9863 25.8047Z" fill="#1D1D1D"/>
<path d="M20.8438 38.1855C24.4375 38.1855 27.1393 38.9733 28.9492 40.5488C30.7721 42.1243 31.7292 44.2272 31.8203 46.8574L26.0391 47.1113C25.7917 45.64 25.2578 44.5853 24.4375 43.9473C23.6302 43.2962 22.4128 42.9707 20.7852 42.9707C19.1055 42.9707 17.7904 43.3158 16.8398 44.0059C16.2279 44.4486 15.9219 45.041 15.9219 45.7832C15.9219 46.4603 16.2083 47.0397 16.7812 47.5215C17.5104 48.1335 19.2812 48.7715 22.0938 49.4355C24.9062 50.0996 26.9831 50.7897 28.3242 51.5059C29.6784 52.209 30.7331 53.179 31.4883 54.416C32.2565 55.64 32.6406 57.1569 32.6406 58.9668C32.6406 60.6074 32.1849 62.1439 31.2734 63.5762C30.362 65.0085 29.0729 66.0762 27.4062 66.7793C25.7396 67.4694 23.6628 67.8145 21.1758 67.8145C17.556 67.8145 14.776 66.9811 12.8359 65.3145C10.8958 63.6348 9.73698 61.1934 9.35938 57.9902L14.9844 57.4434C15.3229 59.3314 16.0065 60.7181 17.0352 61.6035C18.0768 62.4889 19.4766 62.9316 21.2344 62.9316C23.0964 62.9316 24.4961 62.541 25.4336 61.7598C26.3841 60.9655 26.8594 60.041 26.8594 58.9863C26.8594 58.3092 26.6576 57.7363 26.2539 57.2676C25.8633 56.7858 25.1732 56.3691 24.1836 56.0176C23.5065 55.7832 21.9635 55.3665 19.5547 54.7676C16.4557 53.9993 14.2812 53.0553 13.0312 51.9355C11.2734 50.36 10.3945 48.4395 10.3945 46.1738C10.3945 44.7155 10.8047 43.3548 11.625 42.0918C12.4583 40.8158 13.6497 39.8457 15.1992 39.1816C16.7617 38.5176 18.6432 38.1855 20.8438 38.1855Z" fill="#1D1D1D"/>
<path d="M95.3418 43.5273H79.8926V49.875H94.2676V54.6992H79.8926V62.4922H95.8887V67.3164H74.1113V38.6836H95.3418V43.5273Z" fill="#1D1D1D"/>
<path d="M64.7539 75.8438H56.2773V99.6328H50.4961V75.8438H42V71H64.7539V75.8438Z" fill="#1D1D1D"/>
<path fill-rule="evenodd" clip-rule="evenodd" d="M83.5645 70.6836C85.9473 70.6836 87.7637 70.8659 89.0137 71.2305C90.6934 71.7253 92.1322 72.6042 93.3301 73.8672C94.528 75.1302 95.4395 76.6797 96.0645 78.5156C96.6895 80.3385 97.002 82.5911 97.002 85.2734C97.002 87.6302 96.709 89.6615 96.123 91.3672C95.4069 93.4505 94.3848 95.1367 93.0566 96.4258C92.054 97.4023 90.6999 98.1641 88.9941 98.7109C87.7181 99.1146 86.0124 99.3164 83.877 99.3164H72.998V70.6836H83.5645ZM78.7793 94.4922H83.0957C84.7103 94.4922 85.8757 94.401 86.5918 94.2188C87.5293 93.9844 88.304 93.5872 88.916 93.0273C89.541 92.4674 90.0488 91.5495 90.4395 90.2734C90.8301 88.9844 91.0254 87.2331 91.0254 85.0195C91.0254 82.806 90.8301 81.1068 90.4395 79.9219C90.0488 78.737 89.502 77.8125 88.7988 77.1484C88.0957 76.4844 87.2038 76.0352 86.123 75.8008C85.3158 75.6185 83.7337 75.5273 81.377 75.5273H78.7793V94.4922Z" fill="#1D1D1D"/>
</svg>
