<svg width="96" height="97" viewBox="0 0 96 97" fill="none" xmlns="http://www.w3.org/2000/svg">
<path fill-rule="evenodd" clip-rule="evenodd" d="M15.4531 1.68359C17.7188 1.68359 19.4049 1.78125 20.5117 1.97656C21.6315 2.15885 22.6276 2.54948 23.5 3.14844C24.3854 3.7474 25.1211 4.54818 25.707 5.55078C26.293 6.54036 26.5859 7.65365 26.5859 8.89062C26.5859 10.2318 26.2214 11.4622 25.4922 12.582C24.776 13.7018 23.7995 14.5417 22.5625 15.1016C24.3073 15.6094 25.6484 16.4753 26.5859 17.6992C27.5234 18.9232 27.9922 20.362 27.9922 22.0156C27.9922 23.3177 27.6862 24.5872 27.0742 25.8242C26.4753 27.0482 25.6484 28.0312 24.5938 28.7734C23.5521 29.5026 22.263 29.9518 20.7266 30.1211C19.763 30.2253 17.4388 30.2904 13.7539 30.3164H4.00781V1.68359H15.4531ZM9.78906 25.4922H15.1406C17.224 25.4922 18.5456 25.4336 19.1055 25.3164C19.9648 25.1602 20.6615 24.7826 21.1953 24.1836C21.7422 23.5716 22.0156 22.7578 22.0156 21.7422C22.0156 20.8828 21.8073 20.1536 21.3906 19.5547C20.974 18.9557 20.3685 18.5195 19.5742 18.2461C18.793 17.9727 17.0872 17.8359 14.457 17.8359H9.78906V25.4922ZM9.78906 13.0703H13.5781C15.8307 13.0703 17.2305 13.0378 17.7773 12.9727C18.7669 12.8555 19.5417 12.5169 20.1016 11.957C20.6745 11.3841 20.9609 10.6354 20.9609 9.71094C20.9609 8.82552 20.7135 8.10938 20.2188 7.5625C19.737 7.0026 19.0143 6.66406 18.0508 6.54688C17.4779 6.48177 15.8307 6.44922 13.1094 6.44922H9.78906V13.0703Z" fill="#060606"/>
<path d="M50.8906 30.3164H45.1094V1.68359H50.8906V30.3164Z" fill="#060606"/>
<path d="M85.9863 20.8047V1.68359H91.3574V30.3164H85.5566L74.0137 11.6445V30.3164H68.6426V1.68359H74.2676L85.9863 20.8047Z" fill="#060606"/>
<path d="M15.8438 33.1855C19.4375 33.1855 22.1393 33.9733 23.9492 35.5488C25.7721 37.1243 26.7292 39.2272 26.8203 41.8574L21.0391 42.1113C20.7917 40.64 20.2578 39.5853 19.4375 38.9473C18.6302 38.2962 17.4128 37.9707 15.7852 37.9707C14.1055 37.9707 12.7904 38.3158 11.8398 39.0059C11.2279 39.4486 10.9219 40.041 10.9219 40.7832C10.9219 41.4603 11.2083 42.0397 11.7812 42.5215C12.5104 43.1335 14.2812 43.7715 17.0938 44.4355C19.9062 45.0996 21.9831 45.7897 23.3242 46.5059C24.6784 47.209 25.7331 48.179 26.4883 49.416C27.2565 50.64 27.6406 52.1569 27.6406 53.9668C27.6406 55.6074 27.1849 57.1439 26.2734 58.5762C25.362 60.0085 24.0729 61.0762 22.4062 61.7793C20.7396 62.4694 18.6628 62.8145 16.1758 62.8145C12.556 62.8145 9.77604 61.9811 7.83594 60.3145C5.89583 58.6348 4.73698 56.1934 4.35938 52.9902L9.98438 52.4434C10.3229 54.3314 11.0065 55.7181 12.0352 56.6035C13.0768 57.4889 14.4766 57.9316 16.2344 57.9316C18.0964 57.9316 19.4961 57.541 20.4336 56.7598C21.3841 55.9655 21.8594 55.041 21.8594 53.9863C21.8594 53.3092 21.6576 52.7363 21.2539 52.2676C20.8633 51.7858 20.1732 51.3691 19.1836 51.0176C18.5065 50.7832 16.9635 50.3665 14.5547 49.7676C11.4557 48.9993 9.28125 48.0553 8.03125 46.9355C6.27344 45.36 5.39453 43.4395 5.39453 41.1738C5.39453 39.7155 5.80469 38.3548 6.625 37.0918C7.45833 35.8158 8.64974 34.8457 10.1992 34.1816C11.7617 33.5176 13.6432 33.1855 15.8438 33.1855Z" fill="#060606"/>
<path d="M90.3418 38.5273H74.8926V44.875H89.2676V49.6992H74.8926V57.4922H90.8887V62.3164H69.1113V33.6836H90.3418V38.5273Z" fill="#060606"/>
<path d="M59.7539 70.8438H51.2773V94.6328H45.4961V70.8438H37V66H59.7539V70.8438Z" fill="#060606"/>
<path fill-rule="evenodd" clip-rule="evenodd" d="M78.5645 65.6836C80.9473 65.6836 82.7637 65.8659 84.0137 66.2305C85.6934 66.7253 87.1322 67.6042 88.3301 68.8672C89.528 70.1302 90.4395 71.6797 91.0645 73.5156C91.6895 75.3385 92.002 77.5911 92.002 80.2734C92.002 82.6302 91.709 84.6615 91.123 86.3672C90.4069 88.4505 89.3848 90.1367 88.0566 91.4258C87.054 92.4023 85.6999 93.1641 83.9941 93.7109C82.7181 94.1146 81.0124 94.3164 78.877 94.3164H67.998V65.6836H78.5645ZM73.7793 89.4922H78.0957C79.7103 89.4922 80.8757 89.401 81.5918 89.2188C82.5293 88.9844 83.304 88.5872 83.916 88.0273C84.541 87.4674 85.0488 86.5495 85.4395 85.2734C85.8301 83.9844 86.0254 82.2331 86.0254 80.0195C86.0254 77.806 85.8301 76.1068 85.4395 74.9219C85.0488 73.737 84.502 72.8125 83.7988 72.1484C83.0957 71.4844 82.2038 71.0352 81.123 70.8008C80.3158 70.6185 78.7337 70.5273 76.377 70.5273H73.7793V89.4922Z" fill="#060606"/>
</svg>
