<svg width="124" height="16" viewBox="0 0 124 16" fill="none" xmlns="http://www.w3.org/2000/svg">
<path d="M0.445312 0.683594H5.72852C6.91992 0.683594 7.82812 0.77474 8.45312 0.957031C9.29297 1.20443 10.0124 1.64388 10.6113 2.27539C11.2103 2.9069 11.666 3.68164 11.9785 4.59961C12.291 5.51107 12.4473 6.63737 12.4473 7.97852C12.4473 9.1569 12.3008 10.1725 12.0078 11.0254C11.6497 12.0671 11.1387 12.9102 10.4746 13.5547C9.97331 14.043 9.29622 14.4238 8.44336 14.6973C7.80534 14.8991 6.95247 15 5.88477 15H0.445312V0.683594ZM3.33594 3.10547V12.5879H5.49414C6.30143 12.5879 6.88411 12.5423 7.24219 12.4512C7.71094 12.334 8.09831 12.1354 8.4043 11.8555C8.7168 11.5755 8.9707 11.1165 9.16602 10.4785C9.36133 9.83398 9.45898 8.95833 9.45898 7.85156C9.45898 6.74479 9.36133 5.89518 9.16602 5.30273C8.9707 4.71029 8.69727 4.24805 8.3457 3.91602C7.99414 3.58398 7.54818 3.35938 7.00781 3.24219C6.60417 3.15104 5.81315 3.10547 4.63477 3.10547H3.33594ZM15.9395 7.79297L13.4492 7.34375C13.7292 6.34115 14.2109 5.59896 14.8945 5.11719C15.5781 4.63542 16.5938 4.39453 17.9414 4.39453C19.1654 4.39453 20.0768 4.54102 20.6758 4.83398C21.2747 5.12044 21.6947 5.48828 21.9355 5.9375C22.1829 6.38021 22.3066 7.19727 22.3066 8.38867L22.2773 11.5918C22.2773 12.5033 22.3197 13.1771 22.4043 13.6133C22.4954 14.043 22.6615 14.5052 22.9023 15H20.1875C20.1159 14.8177 20.028 14.5475 19.9238 14.1895C19.8783 14.0267 19.8457 13.9193 19.8262 13.8672C19.3574 14.3229 18.8561 14.6647 18.3223 14.8926C17.7884 15.1204 17.2188 15.2344 16.6133 15.2344C15.5456 15.2344 14.7025 14.9447 14.084 14.3652C13.472 13.7858 13.166 13.0534 13.166 12.168C13.166 11.582 13.306 11.0612 13.5859 10.6055C13.8659 10.1432 14.2565 9.79167 14.7578 9.55078C15.2656 9.30339 15.9948 9.08854 16.9453 8.90625C18.2279 8.66536 19.1165 8.44076 19.6113 8.23242V7.95898C19.6113 7.43164 19.4811 7.05729 19.2207 6.83594C18.9603 6.60807 18.4688 6.49414 17.7461 6.49414C17.2578 6.49414 16.877 6.5918 16.6035 6.78711C16.3301 6.97591 16.1087 7.3112 15.9395 7.79297ZM19.6113 10.0195C19.2598 10.1367 18.7031 10.2767 17.9414 10.4395C17.1797 10.6022 16.6816 10.7617 16.4473 10.918C16.0892 11.1719 15.9102 11.4941 15.9102 11.8848C15.9102 12.2689 16.0534 12.6009 16.3398 12.8809C16.6263 13.1608 16.9909 13.3008 17.4336 13.3008C17.9284 13.3008 18.4004 13.138 18.8496 12.8125C19.1816 12.5651 19.3997 12.2624 19.5039 11.9043C19.5755 11.6699 19.6113 11.224 19.6113 10.5664V10.0195ZM33.4551 15H30.7109V9.70703C30.7109 8.58724 30.6523 7.86458 30.5352 7.53906C30.418 7.20703 30.2259 6.94987 29.959 6.76758C29.6986 6.58529 29.3828 6.49414 29.0117 6.49414C28.5365 6.49414 28.11 6.62435 27.7324 6.88477C27.3548 7.14518 27.0944 7.49023 26.9512 7.91992C26.8145 8.34961 26.7461 9.14388 26.7461 10.3027V15H24.002V4.62891H26.5508V6.15234C27.4557 4.98047 28.5951 4.39453 29.9688 4.39453C30.5742 4.39453 31.1276 4.50521 31.6289 4.72656C32.1302 4.94141 32.5078 5.2181 32.7617 5.55664C33.0221 5.89518 33.2012 6.2793 33.2988 6.70898C33.403 7.13867 33.4551 7.75391 33.4551 8.55469V15ZM35.248 3.22266V0.683594H37.9922V3.22266H35.248ZM35.248 15V4.62891H37.9922V15H35.248ZM45.8203 11.6992L48.5547 12.1582C48.2031 13.1608 47.6465 13.9258 46.8848 14.4531C46.1296 14.974 45.1823 15.2344 44.043 15.2344C42.2396 15.2344 40.9049 14.6452 40.0391 13.4668C39.3555 12.5228 39.0137 11.3314 39.0137 9.89258C39.0137 8.17383 39.4629 6.82943 40.3613 5.85938C41.2598 4.88281 42.3958 4.39453 43.7695 4.39453C45.3125 4.39453 46.5299 4.9056 47.4219 5.92773C48.3138 6.94336 48.7402 8.5026 48.7012 10.6055H41.8262C41.8457 11.4193 42.0671 12.054 42.4902 12.5098C42.9134 12.959 43.4408 13.1836 44.0723 13.1836C44.502 13.1836 44.8633 13.0664 45.1562 12.832C45.4492 12.5977 45.6706 12.2201 45.8203 11.6992ZM45.9766 8.92578C45.957 8.13151 45.752 7.5293 45.3613 7.11914C44.9707 6.70247 44.4954 6.49414 43.9355 6.49414C43.3366 6.49414 42.8418 6.71224 42.4512 7.14844C42.0605 7.58464 41.8685 8.17708 41.875 8.92578H45.9766ZM49.9473 15V0.683594H52.6914V15H49.9473ZM59.1094 0.683594H64.832C65.9648 0.683594 66.8079 0.732422 67.3613 0.830078C67.9212 0.921224 68.4193 1.11654 68.8555 1.41602C69.2982 1.71549 69.666 2.11589 69.959 2.61719C70.252 3.11198 70.3984 3.66862 70.3984 4.28711C70.3984 4.95768 70.2161 5.57292 69.8516 6.13281C69.4935 6.69271 69.0052 7.11263 68.3867 7.39258C69.2591 7.64648 69.9297 8.07943 70.3984 8.69141C70.8672 9.30339 71.1016 10.0228 71.1016 10.8496C71.1016 11.5007 70.9486 12.1354 70.6426 12.7539C70.3431 13.3659 69.9297 13.8574 69.4023 14.2285C68.8815 14.5931 68.237 14.8177 67.4688 14.9023C66.987 14.9544 65.8249 14.987 63.9824 15H59.1094V0.683594ZM62 3.06641V6.37695H63.8945C65.0208 6.37695 65.7207 6.36068 65.9941 6.32812C66.4889 6.26953 66.8763 6.10026 67.1562 5.82031C67.4427 5.53385 67.5859 5.15951 67.5859 4.69727C67.5859 4.25456 67.4622 3.89648 67.2148 3.62305C66.974 3.3431 66.6126 3.17383 66.1309 3.11523C65.8444 3.08268 65.0208 3.06641 63.6602 3.06641H62ZM62 8.75977V12.5879H64.6758C65.7174 12.5879 66.3783 12.5586 66.6582 12.5C67.0879 12.4219 67.4362 12.2331 67.7031 11.9336C67.9766 11.6276 68.1133 11.2207 68.1133 10.7129C68.1133 10.2832 68.0091 9.91862 67.8008 9.61914C67.5924 9.31966 67.2897 9.10156 66.8926 8.96484C66.502 8.82812 65.6491 8.75977 64.334 8.75977H62ZM72.5332 3.22266V0.683594H75.2773V3.22266H72.5332ZM72.5332 15V4.62891H75.2773V15H72.5332ZM86.5332 15H83.7891V9.70703C83.7891 8.58724 83.7305 7.86458 83.6133 7.53906C83.4961 7.20703 83.304 6.94987 83.0371 6.76758C82.7767 6.58529 82.4609 6.49414 82.0898 6.49414C81.6146 6.49414 81.1882 6.62435 80.8105 6.88477C80.4329 7.14518 80.1725 7.49023 80.0293 7.91992C79.8926 8.34961 79.8242 9.14388 79.8242 10.3027V15H77.0801V4.62891H79.6289V6.15234C80.5339 4.98047 81.6732 4.39453 83.0469 4.39453C83.6523 4.39453 84.2057 4.50521 84.707 4.72656C85.2083 4.94141 85.5859 5.2181 85.8398 5.55664C86.1003 5.89518 86.2793 6.2793 86.377 6.70898C86.4811 7.13867 86.5332 7.75391 86.5332 8.55469V15ZM87.3594 12.041L90.1133 11.6211C90.2305 12.1549 90.4681 12.5618 90.8262 12.8418C91.1842 13.1152 91.6855 13.252 92.3301 13.252C93.0397 13.252 93.5736 13.1217 93.9316 12.8613C94.1725 12.679 94.293 12.4349 94.293 12.1289C94.293 11.9206 94.2279 11.748 94.0977 11.6113C93.9609 11.4811 93.6549 11.3607 93.1797 11.25C90.9661 10.7617 89.5632 10.3158 88.9707 9.91211C88.1504 9.35221 87.7402 8.57422 87.7402 7.57812C87.7402 6.67969 88.0951 5.92448 88.8047 5.3125C89.5143 4.70052 90.6146 4.39453 92.1055 4.39453C93.5247 4.39453 94.5794 4.62565 95.2695 5.08789C95.9596 5.55013 96.4349 6.23372 96.6953 7.13867L94.1074 7.61719C93.9967 7.21354 93.7852 6.9043 93.4727 6.68945C93.1667 6.47461 92.7272 6.36719 92.1543 6.36719C91.4316 6.36719 90.9141 6.4681 90.6016 6.66992C90.3932 6.81315 90.2891 6.9987 90.2891 7.22656C90.2891 7.42188 90.3802 7.58789 90.5625 7.72461C90.8099 7.9069 91.6628 8.16406 93.1211 8.49609C94.5859 8.82812 95.6081 9.23503 96.1875 9.7168C96.7604 10.2051 97.0469 10.8854 97.0469 11.7578C97.0469 12.7083 96.6497 13.5254 95.8555 14.209C95.0612 14.8926 93.8861 15.2344 92.3301 15.2344C90.9173 15.2344 89.7975 14.9479 88.9707 14.375C88.1504 13.8021 87.6133 13.0241 87.3594 12.041ZM103.215 4.62891V6.81641H101.34V10.9961C101.34 11.8424 101.356 12.3372 101.389 12.4805C101.428 12.6172 101.509 12.7311 101.633 12.8223C101.763 12.9134 101.919 12.959 102.102 12.959C102.355 12.959 102.723 12.8711 103.205 12.6953L103.439 14.8242C102.801 15.0977 102.079 15.2344 101.271 15.2344C100.777 15.2344 100.331 15.153 99.9336 14.9902C99.5365 14.821 99.2435 14.6061 99.0547 14.3457C98.8724 14.0788 98.7454 13.7207 98.6738 13.2715C98.6152 12.9525 98.5859 12.3079 98.5859 11.3379V6.81641H97.3262V4.62891H98.5859V2.56836L101.34 0.966797V4.62891H103.215ZM110.125 11.6992L112.859 12.1582C112.508 13.1608 111.951 13.9258 111.189 14.4531C110.434 14.974 109.487 15.2344 108.348 15.2344C106.544 15.2344 105.21 14.6452 104.344 13.4668C103.66 12.5228 103.318 11.3314 103.318 9.89258C103.318 8.17383 103.768 6.82943 104.666 5.85938C105.564 4.88281 106.701 4.39453 108.074 4.39453C109.617 4.39453 110.835 4.9056 111.727 5.92773C112.618 6.94336 113.045 8.5026 113.006 10.6055H106.131C106.15 11.4193 106.372 12.054 106.795 12.5098C107.218 12.959 107.745 13.1836 108.377 13.1836C108.807 13.1836 109.168 13.0664 109.461 12.832C109.754 12.5977 109.975 12.2201 110.125 11.6992ZM110.281 8.92578C110.262 8.13151 110.057 7.5293 109.666 7.11914C109.275 6.70247 108.8 6.49414 108.24 6.49414C107.641 6.49414 107.146 6.71224 106.756 7.14844C106.365 7.58464 106.173 8.17708 106.18 8.92578H110.281ZM123.764 15H121.215V13.4766C120.792 14.069 120.29 14.5117 119.711 14.8047C119.138 15.0911 118.559 15.2344 117.973 15.2344C116.781 15.2344 115.759 14.7559 114.906 13.7988C114.06 12.8353 113.637 11.4941 113.637 9.77539C113.637 8.01758 114.05 6.68294 114.877 5.77148C115.704 4.85352 116.749 4.39453 118.012 4.39453C119.171 4.39453 120.173 4.8763 121.02 5.83984V0.683594H123.764V15ZM116.439 9.58984C116.439 10.6966 116.592 11.4974 116.898 11.9922C117.341 12.7083 117.96 13.0664 118.754 13.0664C119.385 13.0664 119.923 12.7995 120.365 12.2656C120.808 11.7253 121.029 10.9212 121.029 9.85352C121.029 8.66211 120.814 7.80599 120.385 7.28516C119.955 6.75781 119.405 6.49414 118.734 6.49414C118.083 6.49414 117.536 6.75456 117.094 7.27539C116.658 7.78971 116.439 8.5612 116.439 9.58984Z" fill="white"/>
</svg>
