<svg width="40" height="41" viewBox="0 0 40 41" fill="none" xmlns="http://www.w3.org/2000/svg">
<path fill-rule="evenodd" clip-rule="evenodd" d="M6.4388 0.701538C7.38281 0.701538 8.08539 0.742228 8.54655 0.823608C9.01313 0.899563 9.42817 1.06232 9.79167 1.31189C10.1606 1.56146 10.4671 1.89511 10.7113 2.31287C10.9554 2.72519 11.0775 3.18906 11.0775 3.70447C11.0775 4.26328 10.9256 4.77597 10.6217 5.24255C10.3234 5.70913 9.91645 6.05907 9.40104 6.29236C10.128 6.50395 10.6868 6.86473 11.0775 7.37472C11.4681 7.8847 11.6634 8.4842 11.6634 9.17322C11.6634 9.71575 11.5359 10.2447 11.2809 10.7601C11.0314 11.2701 10.6868 11.6797 10.2474 11.989C9.81337 12.2928 9.27626 12.48 8.63607 12.5505C8.23459 12.5939 7.26617 12.621 5.73079 12.6319H1.66992V0.701538H6.4388ZM4.07878 10.6218H6.30859C7.17665 10.6218 7.72732 10.5974 7.96061 10.5485C8.31868 10.4834 8.60894 10.3261 8.83138 10.0765C9.05924 9.82155 9.17318 9.48246 9.17318 9.05929C9.17318 8.70121 9.08637 8.39739 8.91276 8.14783C8.73915 7.89826 8.48687 7.71651 8.15592 7.60258C7.8304 7.48865 7.11968 7.43168 6.02376 7.43168H4.07878V10.6218ZM4.07878 5.446H5.65755C6.59614 5.446 7.17936 5.43244 7.40723 5.40531C7.81955 5.35649 8.14236 5.21543 8.37565 4.98214C8.61437 4.74342 8.73372 4.43146 8.73372 4.04626C8.73372 3.67734 8.63064 3.37895 8.42448 3.15108C8.22374 2.91779 7.92263 2.77673 7.52116 2.72791C7.28244 2.70078 6.59614 2.68722 5.46224 2.68722H4.07878V5.446Z" fill="white"/>
<path d="M21.2057 12.6319H18.7969V0.701538H21.2057V12.6319Z" fill="white"/>
<path d="M35.8262 8.66866V0.701538H38.0641V12.6319H35.6471L30.8376 4.85193V12.6319H28.5996V0.701538H30.9434L35.8262 8.66866Z" fill="white"/>
<path d="M6.60156 13.8274C8.09896 13.8274 9.22472 14.1556 9.97884 14.8121C10.7384 15.4686 11.1372 16.3448 11.1751 17.4407L8.76628 17.5465C8.66319 16.9334 8.44076 16.494 8.09896 16.2281C7.76259 15.9568 7.25532 15.8212 6.57715 15.8212C5.87728 15.8212 5.32932 15.965 4.93327 16.2525C4.67828 16.437 4.55078 16.6838 4.55078 16.9931C4.55078 17.2752 4.67014 17.5166 4.90885 17.7174C5.21267 17.9724 5.95052 18.2382 7.1224 18.5149C8.29427 18.7916 9.15961 19.0791 9.71842 19.3775C10.2827 19.6705 10.7221 20.0747 11.0368 20.5901C11.3569 21.1001 11.5169 21.7321 11.5169 22.4862C11.5169 23.1698 11.327 23.81 10.9473 24.4068C10.5675 25.0036 10.0304 25.4485 9.33594 25.7415C8.64149 26.029 7.77615 26.1728 6.73991 26.1728C5.23166 26.1728 4.07335 25.8255 3.26497 25.1311C2.4566 24.4312 1.97374 23.414 1.81641 22.0793L4.16016 21.8515C4.30122 22.6382 4.58605 23.216 5.01465 23.5849C5.44868 23.9538 6.0319 24.1383 6.76432 24.1383C7.54015 24.1383 8.12337 23.9755 8.514 23.65C8.91005 23.319 9.10807 22.9338 9.10807 22.4944C9.10807 22.2123 9.02398 21.9736 8.85579 21.7782C8.69303 21.5775 8.40549 21.4039 7.99316 21.2574C7.71105 21.1597 7.06814 20.9861 6.06445 20.7366C4.77322 20.4165 3.86719 20.0231 3.34635 19.5566C2.61393 18.9001 2.24772 18.0999 2.24772 17.1558C2.24772 16.5482 2.41862 15.9813 2.76042 15.455C3.10764 14.9233 3.60406 14.5191 4.24967 14.2424C4.90072 13.9657 5.68468 13.8274 6.60156 13.8274Z" fill="white"/>
<path d="M37.641 16.0531H31.2038V18.698H37.1934V20.7081H31.2038V23.9552H37.8688V25.9653H28.7949V14.0349H37.641V16.0531Z" fill="white"/>
<path d="M24.8988 29.5182H21.3669V39.4303H18.958V29.5182H15.418V27.5H24.8988V29.5182Z" fill="white"/>
<path fill-rule="evenodd" clip-rule="evenodd" d="M32.7347 27.3682C33.7275 27.3682 34.4844 27.4441 35.0052 27.596C35.7051 27.8022 36.3046 28.1684 36.8037 28.6947C37.3028 29.2209 37.6826 29.8665 37.943 30.6315C38.2035 31.3911 38.3337 32.3296 38.3337 33.4473C38.3337 34.4293 38.2116 35.2756 37.9674 35.9863C37.6691 36.8544 37.2432 37.557 36.6898 38.0941C36.272 38.501 35.7078 38.8184 34.9971 39.0462C34.4654 39.2144 33.7547 39.2985 32.8649 39.2985H28.332V27.3682H32.7347ZM30.7409 37.2884H32.5394C33.2121 37.2884 33.6977 37.2504 33.9961 37.1745C34.3867 37.0768 34.7095 36.9114 34.9645 36.6781C35.2249 36.4448 35.4365 36.0623 35.5993 35.5306C35.762 34.9935 35.8434 34.2638 35.8434 33.3415C35.8434 32.4192 35.762 31.7112 35.5993 31.2174C35.4365 30.7237 35.2087 30.3385 34.9157 30.0618C34.6227 29.7852 34.2511 29.598 33.8008 29.5003C33.4644 29.4244 32.8052 29.3864 31.8232 29.3864H30.7409V37.2884Z" fill="white"/>
</svg>
