<svg width="403" height="250" viewBox="0 0 403 250" fill="none" xmlns="http://www.w3.org/2000/svg">
<path d="M44.1277 86.1862C43.0118 81.5024 45.2914 77.1344 47.6659 73.5942C50.2797 69.6967 54.6408 66.2422 59.5114 65C58.6265 69.4188 56.0476 73.2303 53.5653 76.8138C51.0997 80.3739 47.99 83.9796 44.1277 86.1862Z" fill="white"/>
<path d="M40.7293 95.171C41.6004 91.4619 41.5811 87.4012 40.7518 83.9221C40.0226 80.8646 38.9615 76.5424 35.4692 75.084C32.9307 79.1559 31.9102 84.7009 33.3897 88.8559C34.4594 91.8612 36.3832 95.8348 40.373 96.4498C44.034 97.2938 47.736 95.3409 50.6597 93.7285C53.9107 91.9359 57.0951 89.0839 59.0299 85.6934C55.4807 83.9019 51.4388 85.3557 48.398 86.749C45.1202 88.2509 42.109 91.4734 40.7293 95.171Z" fill="white"/>
<path d="M29.4561 105.18C31.2565 107.926 34.0424 111.367 38.1045 111.269C41.7984 111.453 44.9898 108.933 47.5029 106.829C50.2095 104.562 52.6526 101.249 53.684 97.666C49.9059 96.5668 46.2887 98.6031 43.5913 100.524C40.7746 102.53 38.6083 106.201 38.1429 109.97C38.108 106.194 37.0858 102.294 35.438 99.1515C33.9314 96.2791 31.832 92.3963 28.0865 91.6201C26.6108 96.0896 27.0817 101.558 29.4561 105.18Z" fill="white"/>
<path d="M39.3056 126.062C35.5356 126.694 31.8582 124.384 29.4699 121.667C26.395 118.169 24.5655 113.476 24.9386 108.778C28.8116 108.877 31.7448 112.225 33.9129 114.756C36.2478 117.483 38.1609 121.07 39.0787 124.77C38.675 121.083 39.9132 117.1 42.2115 114.64C44.43 112.264 47.5377 109.676 51.4043 110.091C51.321 113.831 49.4465 117.393 47.5132 120.062C45.7111 122.548 42.9349 125.624 39.3056 126.062Z" fill="white"/>
<path d="M32.3419 138.488C35.8141 140.749 40.0252 142.986 44.4509 141.293C48.0817 140.008 50.3901 136.354 51.8099 132.999C53.3139 129.445 54.3184 125.346 53.623 121.456C49.6332 121.81 46.3249 124.665 44.5677 128.149C42.7307 131.792 42.3784 136.128 43.7895 139.947C41.7045 136.018 38.6554 132.839 35.4254 129.901C32.4892 127.231 28.2599 124.418 24 124.947C24.8105 130.214 28.0243 135.677 32.3419 138.488Z" fill="white"/>
<path d="M53.3943 155.53C56.8111 153.488 58.1862 149.19 58.7482 145.507C59.354 141.535 59.328 137.155 57.6784 133.387C53.7144 134.494 50.9933 138.062 50.0949 141.97C49.1456 146.098 49.9466 150.499 52.2557 154.014C49.1863 150.493 45.1049 147.585 41.1936 145.546C37.4155 143.577 32.7804 141.202 28.2432 142.636C30.4311 147.976 35.1114 152.947 40.2986 155.004C44.3157 156.596 49.2027 158.171 53.3943 155.53Z" fill="white"/>
<path d="M69.5932 156.913C70.0946 160.747 70.0804 165.609 67.1039 168.56C63.3844 172.368 57.628 171.633 53.1882 170.795C47.2276 169.67 40.518 165.605 36.9219 160.192C41.3138 157.773 46.6853 159.32 51.0334 160.572L51.2817 160.644C56.1353 162.04 61.3075 164.289 65.6331 167.362C62.1811 164.243 59.666 159.665 59.5428 155.05C59.4321 150.923 61.2236 146.507 65.0786 144.54C67.77 148.072 69.0303 152.608 69.5932 156.913Z" fill="white"/>
<path d="M86.8678 179.415C89.0598 175.242 86.888 170.345 85.1574 166.726C83.1114 162.447 80.3159 158.086 76.3152 154.954C72.4737 158.265 72.839 163.002 73.9811 167.119C75.3392 172.014 80.0475 176.187 84.923 178.565C79.2765 176.459 73.1098 175.195 67.2427 174.822L66.6484 174.784C61.935 174.477 55.7989 174.077 52.043 177.526C57.7218 182.354 65.788 185.139 72.8973 184.995C77.6615 184.898 84.1981 184.334 86.8678 179.415Z" fill="white"/>
<path d="M112.665 73.1322V89H110.743V73.1322H112.665ZM124.263 79.7645L122.62 80.2293C122.517 79.9556 122.364 79.6896 122.163 79.4313C121.967 79.1679 121.698 78.9509 121.357 78.7805C121.016 78.61 120.58 78.5248 120.048 78.5248C119.32 78.5248 118.713 78.6927 118.227 79.0284C117.747 79.359 117.507 79.78 117.507 80.2913C117.507 80.7459 117.672 81.1049 118.002 81.3683C118.333 81.6317 118.849 81.8512 119.552 82.0269L121.319 82.4607C122.383 82.719 123.175 83.1142 123.697 83.6462C124.219 84.173 124.48 84.8523 124.48 85.6839C124.48 86.3657 124.283 86.9752 123.891 87.5124C123.503 88.0496 122.961 88.4731 122.264 88.7831C121.566 89.093 120.755 89.2479 119.831 89.2479C118.617 89.2479 117.612 88.9845 116.817 88.4576C116.021 87.9308 115.518 87.1612 115.306 86.1488L117.042 85.7149C117.207 86.3554 117.519 86.8357 117.979 87.156C118.444 87.4762 119.051 87.6364 119.8 87.6364C120.652 87.6364 121.329 87.4556 121.83 87.094C122.336 86.7273 122.589 86.2882 122.589 85.7769C122.589 85.3636 122.445 85.0176 122.155 84.7386C121.866 84.4545 121.422 84.2428 120.823 84.1033L118.839 83.6384C117.749 83.3802 116.949 82.9799 116.437 82.4375C115.931 81.89 115.678 81.2056 115.678 80.3843C115.678 79.7128 115.867 79.1188 116.244 78.6023C116.626 78.0857 117.145 77.6803 117.801 77.3858C118.462 77.0914 119.211 76.9442 120.048 76.9442C121.226 76.9442 122.15 77.2025 122.822 77.719C123.498 78.2355 123.979 78.9174 124.263 79.7645ZM126.796 89V77.0992H128.562V78.8967H128.686C128.903 78.3079 129.296 77.8301 129.864 77.4633C130.432 77.0966 131.073 76.9132 131.785 76.9132C131.92 76.9132 132.088 76.9158 132.289 76.921C132.49 76.9261 132.643 76.9339 132.746 76.9442V78.8037C132.684 78.7882 132.542 78.765 132.32 78.734C132.103 78.6978 131.873 78.6798 131.63 78.6798C131.052 78.6798 130.535 78.8011 130.081 79.0439C129.631 79.2815 129.275 79.6121 129.012 80.0356C128.753 80.454 128.624 80.9318 128.624 81.469V89H126.796ZM137.979 89.2789C137.225 89.2789 136.541 89.1369 135.926 88.8528C135.311 88.5635 134.823 88.1477 134.462 87.6054C134.1 87.0579 133.919 86.3967 133.919 85.6219C133.919 84.9401 134.054 84.3874 134.322 83.9638C134.591 83.5351 134.95 83.1994 135.399 82.9566C135.849 82.7138 136.345 82.5331 136.887 82.4143C137.434 82.2903 137.985 82.1921 138.537 82.1198C139.26 82.0269 139.847 81.9571 140.296 81.9106C140.751 81.859 141.081 81.7738 141.288 81.655C141.499 81.5362 141.605 81.3295 141.605 81.0351V80.9731C141.605 80.2087 141.396 79.6147 140.978 79.1911C140.565 78.7676 139.937 78.5558 139.095 78.5558C138.222 78.5558 137.538 78.7469 137.042 79.1291C136.546 79.5114 136.197 79.9194 135.996 80.3533L134.26 79.7335C134.57 79.0103 134.983 78.4473 135.5 78.0444C136.022 77.6364 136.59 77.3523 137.205 77.1921C137.824 77.0269 138.434 76.9442 139.033 76.9442C139.415 76.9442 139.854 76.9907 140.35 77.0837C140.851 77.1715 141.334 77.3549 141.799 77.6338C142.269 77.9127 142.659 78.3337 142.969 78.8967C143.279 79.4597 143.434 80.2138 143.434 81.1591V89H141.605V87.3884H141.512C141.388 87.6467 141.182 87.923 140.893 88.2175C140.603 88.5119 140.219 88.7624 139.738 88.969C139.258 89.1756 138.671 89.2789 137.979 89.2789ZM138.258 87.6364C138.981 87.6364 139.591 87.4943 140.087 87.2102C140.588 86.9261 140.965 86.5594 141.218 86.11C141.476 85.6606 141.605 85.188 141.605 84.6921V83.0186C141.528 83.1116 141.357 83.1968 141.094 83.2743C140.836 83.3466 140.536 83.4112 140.195 83.468C139.86 83.5196 139.532 83.5661 139.211 83.6074C138.896 83.6436 138.641 83.6746 138.444 83.7004C137.969 83.7624 137.525 83.8631 137.112 84.0026C136.704 84.1369 136.373 84.3409 136.12 84.6147C135.872 84.8833 135.748 85.25 135.748 85.7149C135.748 86.3502 135.983 86.8306 136.453 87.156C136.928 87.4762 137.53 87.6364 138.258 87.6364ZM151.325 89.2479C150.178 89.2479 149.189 88.9948 148.357 88.4886C147.531 87.9773 146.893 87.2645 146.443 86.3502C145.999 85.4308 145.777 84.3616 145.777 83.1426C145.777 81.9236 145.999 80.8492 146.443 79.9194C146.893 78.9845 147.518 78.2562 148.318 77.7345C149.124 77.2076 150.064 76.9442 151.139 76.9442C151.759 76.9442 152.371 77.0475 152.975 77.2541C153.579 77.4607 154.129 77.7965 154.625 78.2614C155.121 78.7211 155.516 79.3306 155.811 80.0899C156.105 80.8492 156.252 81.7841 156.252 82.8946V83.6694H147.079V82.0888H154.393C154.393 81.4174 154.259 80.8182 153.99 80.2913C153.726 79.7645 153.349 79.3487 152.859 79.0439C152.373 78.7392 151.8 78.5868 151.139 78.5868C150.41 78.5868 149.78 78.7676 149.248 79.1291C148.721 79.4855 148.316 79.9504 148.032 80.5238C147.748 81.0971 147.606 81.7118 147.606 82.3678V83.4215C147.606 84.3202 147.761 85.0821 148.07 85.7071C148.386 86.327 148.822 86.7996 149.38 87.125C149.938 87.4452 150.586 87.6054 151.325 87.6054C151.805 87.6054 152.239 87.5382 152.626 87.4039C153.019 87.2645 153.357 87.0579 153.641 86.7841C153.925 86.5052 154.145 86.1591 154.3 85.7459L156.066 86.2417C155.88 86.8409 155.568 87.3678 155.129 87.8223C154.69 88.2717 154.147 88.6229 153.502 88.876C152.856 89.124 152.13 89.2479 151.325 89.2479ZM160.426 73.1322V89H158.597V73.1322H160.426ZM163.339 89V77.0992H165.167V89H163.339ZM164.268 75.1157C163.912 75.1157 163.605 74.9943 163.346 74.7515C163.093 74.5088 162.967 74.2169 162.967 73.876C162.967 73.5351 163.093 73.2433 163.346 73.0005C163.605 72.7577 163.912 72.6364 164.268 72.6364C164.625 72.6364 164.93 72.7577 165.183 73.0005C165.441 73.2433 165.57 73.5351 165.57 73.876C165.57 74.2169 165.441 74.5088 165.183 74.7515C164.93 74.9943 164.625 75.1157 164.268 75.1157ZM186.796 78.0909H184.875C184.761 77.5382 184.562 77.0527 184.278 76.6343C183.999 76.2159 183.658 75.8647 183.256 75.5806C182.858 75.2913 182.416 75.0744 181.931 74.9298C181.445 74.7851 180.939 74.7128 180.412 74.7128C179.451 74.7128 178.581 74.9556 177.801 75.4411C177.026 75.9267 176.409 76.642 175.949 77.5873C175.495 78.5325 175.267 79.6921 175.267 81.0661C175.267 82.4401 175.495 83.5997 175.949 84.5449C176.409 85.4902 177.026 86.2056 177.801 86.6911C178.581 87.1767 179.451 87.4194 180.412 87.4194C180.939 87.4194 181.445 87.3471 181.931 87.2025C182.416 87.0579 182.858 86.8435 183.256 86.5594C183.658 86.2701 183.999 85.9163 184.278 85.4979C184.562 85.0744 184.761 84.5888 184.875 84.0413H186.796C186.652 84.8523 186.388 85.578 186.006 86.2185C185.624 86.859 185.149 87.4039 184.58 87.8533C184.012 88.2975 183.374 88.6358 182.667 88.8683C181.964 89.1007 181.213 89.2169 180.412 89.2169C179.059 89.2169 177.855 88.8864 176.802 88.2252C175.748 87.564 174.919 86.624 174.314 85.405C173.71 84.186 173.408 82.7397 173.408 81.0661C173.408 79.3926 173.71 77.9463 174.314 76.7273C174.919 75.5083 175.748 74.5682 176.802 73.907C177.855 73.2459 179.059 72.9153 180.412 72.9153C181.213 72.9153 181.964 73.0315 182.667 73.2639C183.374 73.4964 184.012 73.8373 184.58 74.2867C185.149 74.7309 185.624 75.2732 186.006 75.9137C186.388 76.5491 186.652 77.2748 186.796 78.0909ZM194.052 89.2479C192.977 89.2479 192.035 88.9923 191.224 88.4809C190.418 87.9695 189.788 87.2541 189.333 86.3347C188.884 85.4153 188.659 84.3409 188.659 83.1116C188.659 81.8719 188.884 80.7898 189.333 79.8652C189.788 78.9406 190.418 78.2226 191.224 77.7113C192.035 77.1999 192.977 76.9442 194.052 76.9442C195.126 76.9442 196.066 77.1999 196.872 77.7113C197.683 78.2226 198.313 78.9406 198.763 79.8652C199.217 80.7898 199.444 81.8719 199.444 83.1116C199.444 84.3409 199.217 85.4153 198.763 86.3347C198.313 87.2541 197.683 87.9695 196.872 88.4809C196.066 88.9923 195.126 89.2479 194.052 89.2479ZM194.052 87.6054C194.868 87.6054 195.539 87.3962 196.066 86.9778C196.593 86.5594 196.983 86.0093 197.236 85.3275C197.489 84.6457 197.616 83.907 197.616 83.1116C197.616 82.3161 197.489 81.5749 197.236 80.8879C196.983 80.2009 196.593 79.6457 196.066 79.2221C195.539 78.7986 194.868 78.5868 194.052 78.5868C193.236 78.5868 192.564 78.7986 192.037 79.2221C191.51 79.6457 191.12 80.2009 190.867 80.8879C190.614 81.5749 190.488 82.3161 190.488 83.1116C190.488 83.907 190.614 84.6457 190.867 85.3275C191.12 86.0093 191.51 86.5594 192.037 86.9778C192.564 87.3962 193.236 87.6054 194.052 87.6054ZM201.799 89V77.0992H203.566V78.9587H203.721C203.969 78.3233 204.369 77.8301 204.922 77.4788C205.474 77.1224 206.138 76.9442 206.913 76.9442C207.698 76.9442 208.351 77.1224 208.873 77.4788C209.4 77.8301 209.811 78.3233 210.105 78.9587H210.229C210.534 78.344 210.991 77.8559 211.6 77.4943C212.21 77.1276 212.941 76.9442 213.793 76.9442C214.857 76.9442 215.727 77.2774 216.404 77.9437C217.081 78.6049 217.419 79.6353 217.419 81.0351V89H215.59V81.0351C215.59 80.157 215.35 79.5294 214.87 79.1524C214.39 78.7753 213.824 78.5868 213.173 78.5868C212.336 78.5868 211.688 78.8399 211.228 79.3461C210.769 79.8471 210.539 80.4824 210.539 81.2521V89H208.679V80.8492C208.679 80.1725 208.46 79.6276 208.021 79.2144C207.582 78.796 207.016 78.5868 206.324 78.5868C205.849 78.5868 205.405 78.7133 204.991 78.9664C204.583 79.2195 204.253 79.5708 204 80.0201C203.752 80.4644 203.628 80.9783 203.628 81.562V89H201.799ZM220.326 93.4628V77.0992H222.092V78.9897H222.309C222.444 78.7831 222.63 78.5196 222.867 78.1994C223.11 77.874 223.456 77.5847 223.905 77.3316C224.36 77.0733 224.975 76.9442 225.749 76.9442C226.751 76.9442 227.635 77.1947 228.399 77.6958C229.164 78.1968 229.76 78.907 230.189 79.8264C230.618 80.7459 230.832 81.8306 230.832 83.0806C230.832 84.3409 230.618 85.4334 230.189 86.358C229.76 87.2774 229.166 87.9902 228.407 88.4964C227.648 88.9974 226.772 89.2479 225.78 89.2479C225.016 89.2479 224.404 89.1214 223.944 88.8683C223.484 88.61 223.131 88.3182 222.883 87.9928C222.635 87.6622 222.444 87.3884 222.309 87.1715H222.154V93.4628H220.326ZM222.123 83.0496C222.123 83.9483 222.255 84.7412 222.519 85.4282C222.782 86.11 223.167 86.6446 223.673 87.032C224.179 87.4143 224.799 87.6054 225.532 87.6054C226.297 87.6054 226.935 87.4039 227.446 87.001C227.963 86.593 228.35 86.0455 228.608 85.3585C228.872 84.6663 229.004 83.8967 229.004 83.0496C229.004 82.2128 228.874 81.4587 228.616 80.7872C228.363 80.1105 227.978 79.5759 227.462 79.1834C226.95 78.7856 226.307 78.5868 225.532 78.5868C224.789 78.5868 224.164 78.7753 223.657 79.1524C223.151 79.5243 222.769 80.046 222.511 80.7175C222.253 81.3838 222.123 82.1612 222.123 83.0496ZM238.175 89.2479C237.028 89.2479 236.039 88.9948 235.207 88.4886C234.381 87.9773 233.743 87.2645 233.293 86.3502C232.849 85.4308 232.627 84.3616 232.627 83.1426C232.627 81.9236 232.849 80.8492 233.293 79.9194C233.743 78.9845 234.368 78.2562 235.168 77.7345C235.974 77.2076 236.914 76.9442 237.989 76.9442C238.609 76.9442 239.221 77.0475 239.825 77.2541C240.429 77.4607 240.979 77.7965 241.475 78.2614C241.971 78.7211 242.366 79.3306 242.661 80.0899C242.955 80.8492 243.102 81.7841 243.102 82.8946V83.6694H233.929V82.0888H241.243C241.243 81.4174 241.109 80.8182 240.84 80.2913C240.576 79.7645 240.199 79.3487 239.709 79.0439C239.223 78.7392 238.65 78.5868 237.989 78.5868C237.26 78.5868 236.63 78.7676 236.098 79.1291C235.571 79.4855 235.166 79.9504 234.882 80.5238C234.598 81.0971 234.456 81.7118 234.456 82.3678V83.4215C234.456 84.3202 234.611 85.0821 234.92 85.7071C235.236 86.327 235.672 86.7996 236.23 87.125C236.788 87.4452 237.436 87.6054 238.175 87.6054C238.655 87.6054 239.089 87.5382 239.476 87.4039C239.869 87.2645 240.207 87.0579 240.491 86.7841C240.775 86.5052 240.995 86.1591 241.15 85.7459L242.916 86.2417C242.73 86.8409 242.418 87.3678 241.979 87.8223C241.54 88.2717 240.997 88.6229 240.352 88.876C239.706 89.124 238.98 89.2479 238.175 89.2479ZM250.623 77.0992V78.6488H244.456V77.0992H250.623ZM246.253 74.2479H248.082V85.5909C248.082 86.1074 248.157 86.4948 248.306 86.7531C248.461 87.0062 248.658 87.1767 248.895 87.2645C249.138 87.3471 249.394 87.3884 249.662 87.3884C249.864 87.3884 250.029 87.3781 250.158 87.3574C250.287 87.3316 250.391 87.311 250.468 87.2955L250.84 88.938C250.716 88.9845 250.543 89.031 250.321 89.0775C250.099 89.1291 249.817 89.155 249.476 89.155C248.96 89.155 248.454 89.0439 247.958 88.8218C247.467 88.5997 247.059 88.2614 246.734 87.8068C246.413 87.3523 246.253 86.7789 246.253 86.0868V74.2479ZM252.937 89V77.0992H254.766V89H252.937ZM253.867 75.1157C253.511 75.1157 253.203 74.9943 252.945 74.7515C252.692 74.5088 252.565 74.2169 252.565 73.876C252.565 73.5351 252.692 73.2433 252.945 73.0005C253.203 72.7577 253.511 72.6364 253.867 72.6364C254.223 72.6364 254.528 72.7577 254.781 73.0005C255.039 73.2433 255.169 73.5351 255.169 73.876C255.169 74.2169 255.039 74.5088 254.781 74.7515C254.528 74.9943 254.223 75.1157 253.867 75.1157ZM262.854 77.0992V78.6488H256.687V77.0992H262.854ZM258.484 74.2479H260.313V85.5909C260.313 86.1074 260.388 86.4948 260.537 86.7531C260.692 87.0062 260.889 87.1767 261.126 87.2645C261.369 87.3471 261.625 87.3884 261.893 87.3884C262.095 87.3884 262.26 87.3781 262.389 87.3574C262.518 87.3316 262.622 87.311 262.699 87.2955L263.071 88.938C262.947 88.9845 262.774 89.031 262.552 89.0775C262.33 89.1291 262.048 89.155 261.707 89.155C261.191 89.155 260.685 89.0439 260.189 88.8218C259.698 88.5997 259.29 88.2614 258.965 87.8068C258.644 87.3523 258.484 86.7789 258.484 86.0868V74.2479ZM265.168 89V77.0992H266.997V89H265.168ZM266.098 75.1157C265.742 75.1157 265.434 74.9943 265.176 74.7515C264.923 74.5088 264.796 74.2169 264.796 73.876C264.796 73.5351 264.923 73.2433 265.176 73.0005C265.434 72.7577 265.742 72.6364 266.098 72.6364C266.454 72.6364 266.759 72.7577 267.012 73.0005C267.27 73.2433 267.4 73.5351 267.4 73.876C267.4 74.2169 267.27 74.5088 267.012 74.7515C266.759 74.9943 266.454 75.1157 266.098 75.1157ZM274.744 89.2479C273.67 89.2479 272.727 88.9923 271.916 88.4809C271.11 87.9695 270.48 87.2541 270.026 86.3347C269.576 85.4153 269.352 84.3409 269.352 83.1116C269.352 81.8719 269.576 80.7898 270.026 79.8652C270.48 78.9406 271.11 78.2226 271.916 77.7113C272.727 77.1999 273.67 76.9442 274.744 76.9442C275.818 76.9442 276.759 77.1999 277.564 77.7113C278.375 78.2226 279.005 78.9406 279.455 79.8652C279.909 80.7898 280.137 81.8719 280.137 83.1116C280.137 84.3409 279.909 85.4153 279.455 86.3347C279.005 87.2541 278.375 87.9695 277.564 88.4809C276.759 88.9923 275.818 89.2479 274.744 89.2479ZM274.744 87.6054C275.56 87.6054 276.232 87.3962 276.759 86.9778C277.285 86.5594 277.675 86.0093 277.929 85.3275C278.182 84.6457 278.308 83.907 278.308 83.1116C278.308 82.3161 278.182 81.5749 277.929 80.8879C277.675 80.2009 277.285 79.6457 276.759 79.2221C276.232 78.7986 275.56 78.5868 274.744 78.5868C273.928 78.5868 273.257 78.7986 272.73 79.2221C272.203 79.6457 271.813 80.2009 271.56 80.8879C271.307 81.5749 271.18 82.3161 271.18 83.1116C271.18 83.907 271.307 84.6457 271.56 85.3275C271.813 86.0093 272.203 86.5594 272.73 86.9778C273.257 87.3962 273.928 87.6054 274.744 87.6054ZM284.32 81.8409V89H282.491V77.0992H284.258V78.9587H284.413C284.692 78.3543 285.115 77.8688 285.684 77.5021C286.252 77.1302 286.985 76.9442 287.884 76.9442C288.69 76.9442 289.395 77.1095 289.999 77.4401C290.604 77.7655 291.074 78.2614 291.409 78.9277C291.745 79.5888 291.913 80.4256 291.913 81.438V89H290.084V81.562C290.084 80.6271 289.842 79.8988 289.356 79.3771C288.871 78.8502 288.204 78.5868 287.357 78.5868C286.774 78.5868 286.252 78.7133 285.792 78.9664C285.338 79.2195 284.979 79.5888 284.715 80.0744C284.452 80.5599 284.32 81.1488 284.32 81.8409Z" fill="white"/>
<path d="M113.415 141H102.145V107.742H113.642C116.944 107.742 119.78 108.408 122.151 109.739C124.533 111.06 126.363 112.96 127.64 115.439C128.918 117.918 129.557 120.885 129.557 124.338C129.557 127.803 128.912 130.78 127.624 133.27C126.347 135.76 124.501 137.671 122.086 139.003C119.683 140.334 116.792 141 113.415 141ZM108.169 135.787H113.122C115.439 135.787 117.372 135.365 118.92 134.521C120.468 133.665 121.632 132.393 122.411 130.704C123.191 129.005 123.581 126.883 123.581 124.338C123.581 121.794 123.191 119.683 122.411 118.005C121.632 116.316 120.479 115.055 118.952 114.221C117.437 113.377 115.553 112.955 113.301 112.955H108.169V135.787ZM164.084 124.371C164.084 127.954 163.413 131.024 162.071 133.579C160.739 136.123 158.92 138.072 156.614 139.425C154.319 140.778 151.715 141.455 148.803 141.455C145.891 141.455 143.282 140.778 140.976 139.425C138.681 138.061 136.862 136.107 135.519 133.562C134.188 131.007 133.522 127.944 133.522 124.371C133.522 120.787 134.188 117.724 135.519 115.179C136.862 112.624 138.681 110.67 140.976 109.317C143.282 107.964 145.891 107.287 148.803 107.287C151.715 107.287 154.319 107.964 156.614 109.317C158.92 110.67 160.739 112.624 162.071 115.179C163.413 117.724 164.084 120.787 164.084 124.371ZM158.027 124.371C158.027 121.848 157.632 119.721 156.842 117.989C156.062 116.246 154.979 114.93 153.594 114.043C152.208 113.144 150.611 112.695 148.803 112.695C146.995 112.695 145.398 113.144 144.013 114.043C142.627 114.93 141.539 116.246 140.748 117.989C139.969 119.721 139.579 121.848 139.579 124.371C139.579 126.893 139.969 129.026 140.748 130.769C141.539 132.501 142.627 133.817 144.013 134.715C145.398 135.603 146.995 136.047 148.803 136.047C150.611 136.047 152.208 135.603 153.594 134.715C154.979 133.817 156.062 132.501 156.842 130.769C157.632 129.026 158.027 126.893 158.027 124.371ZM197.333 118.963H191.26C191.087 117.967 190.767 117.085 190.302 116.316C189.836 115.537 189.257 114.876 188.564 114.335C187.871 113.794 187.081 113.388 186.193 113.117C185.316 112.836 184.369 112.695 183.351 112.695C181.543 112.695 179.941 113.15 178.544 114.059C177.148 114.957 176.054 116.278 175.264 118.021C174.474 119.754 174.079 121.87 174.079 124.371C174.079 126.915 174.474 129.059 175.264 130.802C176.065 132.534 177.159 133.844 178.544 134.732C179.941 135.609 181.538 136.047 183.335 136.047C184.331 136.047 185.262 135.917 186.128 135.657C187.005 135.387 187.79 134.991 188.483 134.472C189.187 133.952 189.777 133.313 190.253 132.556C190.74 131.798 191.076 130.932 191.26 129.957L197.333 129.99C197.106 131.57 196.613 133.054 195.856 134.439C195.108 135.825 194.129 137.048 192.916 138.109C191.704 139.16 190.285 139.982 188.661 140.578C187.038 141.162 185.235 141.455 183.254 141.455C180.331 141.455 177.722 140.778 175.426 139.425C173.131 138.072 171.323 136.117 170.002 133.562C168.682 131.007 168.021 127.944 168.021 124.371C168.021 120.787 168.687 117.724 170.019 115.179C171.35 112.624 173.164 110.67 175.459 109.317C177.754 107.964 180.352 107.287 183.254 107.287C185.105 107.287 186.826 107.547 188.418 108.067C190.009 108.586 191.428 109.35 192.673 110.356C193.918 111.352 194.941 112.576 195.742 114.026C196.554 115.466 197.084 117.112 197.333 118.963ZM205.805 141H199.374L211.083 107.742H218.52L230.245 141H223.814L214.932 114.562H214.672L205.805 141ZM206.016 127.96H223.555V132.799H206.016V127.96ZM234.365 107.742L243.02 133.92H243.361L252.001 107.742H258.626L246.902 141H239.464L227.755 107.742H234.365ZM268.117 107.742V141H262.092V107.742H268.117ZM278.176 107.742L286.832 133.92H287.173L295.812 107.742H302.438L290.713 141H283.275L271.567 107.742H278.176Z" fill="white"/>
<path d="M167.16 155.019V181.114H165.61V155.019H167.16ZM176.865 176V174.605L182.102 168.872C182.717 168.2 183.223 167.617 183.621 167.121C184.019 166.62 184.313 166.15 184.504 165.711C184.701 165.267 184.799 164.802 184.799 164.316C184.799 163.758 184.664 163.275 184.396 162.867C184.132 162.459 183.771 162.144 183.311 161.922C182.851 161.7 182.335 161.589 181.761 161.589C181.152 161.589 180.62 161.715 180.165 161.968C179.716 162.216 179.367 162.565 179.119 163.014C178.877 163.464 178.755 163.991 178.755 164.595H176.927C176.927 163.665 177.141 162.849 177.57 162.147C177.999 161.444 178.582 160.897 179.321 160.504C180.065 160.112 180.899 159.915 181.823 159.915C182.753 159.915 183.577 160.112 184.295 160.504C185.013 160.897 185.576 161.426 185.984 162.092C186.392 162.759 186.596 163.5 186.596 164.316C186.596 164.9 186.49 165.471 186.278 166.028C186.072 166.581 185.71 167.198 185.194 167.88C184.682 168.557 183.972 169.383 183.063 170.36L179.499 174.171V174.295H186.875V176H176.865ZM194.814 176.217C193.647 176.217 192.653 175.899 191.831 175.264C191.01 174.623 190.382 173.696 189.949 172.482C189.515 171.263 189.298 169.791 189.298 168.066C189.298 166.351 189.515 164.887 189.949 163.673C190.388 162.454 191.018 161.524 191.839 160.884C192.665 160.238 193.657 159.915 194.814 159.915C195.971 159.915 196.96 160.238 197.782 160.884C198.608 161.524 199.238 162.454 199.672 163.673C200.111 164.887 200.331 166.351 200.331 168.066C200.331 169.791 200.114 171.263 199.68 172.482C199.246 173.696 198.618 174.623 197.797 175.264C196.976 175.899 195.982 176.217 194.814 176.217ZM194.814 174.512C195.971 174.512 196.87 173.955 197.511 172.839C198.151 171.723 198.471 170.132 198.471 168.066C198.471 166.692 198.324 165.522 198.03 164.556C197.74 163.59 197.322 162.854 196.774 162.348C196.232 161.842 195.579 161.589 194.814 161.589C193.668 161.589 192.771 162.154 192.126 163.286C191.48 164.412 191.157 166.005 191.157 168.066C191.157 169.44 191.302 170.607 191.591 171.568C191.88 172.529 192.296 173.26 192.839 173.761C193.386 174.262 194.045 174.512 194.814 174.512ZM202.839 176V174.605L208.076 168.872C208.691 168.2 209.197 167.617 209.595 167.121C209.993 166.62 210.287 166.15 210.478 165.711C210.674 165.267 210.773 164.802 210.773 164.316C210.773 163.758 210.638 163.275 210.37 162.867C210.106 162.459 209.745 162.144 209.285 161.922C208.825 161.7 208.309 161.589 207.735 161.589C207.126 161.589 206.594 161.715 206.139 161.968C205.69 162.216 205.341 162.565 205.093 163.014C204.85 163.464 204.729 163.991 204.729 164.595H202.901C202.901 163.665 203.115 162.849 203.544 162.147C203.972 161.444 204.556 160.897 205.295 160.504C206.039 160.112 206.873 159.915 207.797 159.915C208.727 159.915 209.551 160.112 210.269 160.504C210.987 160.897 211.55 161.426 211.958 162.092C212.366 162.759 212.57 163.5 212.57 164.316C212.57 164.9 212.464 165.471 212.252 166.028C212.046 166.581 211.684 167.198 211.168 167.88C210.656 168.557 209.946 169.383 209.037 170.36L205.473 174.171V174.295H212.849V176H202.839ZM215.612 176V174.605L220.85 168.872C221.465 168.2 221.971 167.617 222.369 167.121C222.766 166.62 223.061 166.15 223.252 165.711C223.448 165.267 223.546 164.802 223.546 164.316C223.546 163.758 223.412 163.275 223.143 162.867C222.88 162.459 222.518 162.144 222.059 161.922C221.599 161.7 221.083 161.589 220.509 161.589C219.9 161.589 219.368 161.715 218.913 161.968C218.464 162.216 218.115 162.565 217.867 163.014C217.624 163.464 217.503 163.991 217.503 164.595H215.674C215.674 163.665 215.889 162.849 216.318 162.147C216.746 161.444 217.33 160.897 218.069 160.504C218.812 160.112 219.647 159.915 220.571 159.915C221.501 159.915 222.325 160.112 223.043 160.504C223.761 160.897 224.324 161.426 224.732 162.092C225.14 162.759 225.344 163.5 225.344 164.316C225.344 164.9 225.238 165.471 225.026 166.028C224.82 166.581 224.458 167.198 223.942 167.88C223.43 168.557 222.72 169.383 221.811 170.36L218.247 174.171V174.295H225.623V176H215.612ZM236.783 155.019V181.114H235.233V155.019H236.783Z" fill="white"/>
<path d="M354.838 73.6038C357.208 77.1463 359.484 81.5164 358.365 86.1997C354.504 83.9897 351.398 80.3814 348.935 76.8193C346.455 73.2333 343.88 69.42 342.998 65C347.868 66.2457 352.228 69.7037 354.838 73.6038Z" fill="white"/>
<path d="M361.756 95.1908C360.38 91.4902 357.37 88.2635 354.094 86.7585C351.052 85.3629 347.012 83.9064 343.462 85.6948C345.394 89.0871 348.575 91.9415 351.824 93.7369C354.745 95.3511 358.445 97.3068 362.107 96.4662C366.098 95.8549 368.027 91.8818 369.1 88.8763C370.585 84.723 369.57 79.1764 367.035 75.1016C363.54 76.5581 362.474 80.8794 361.744 83.9369C360.911 87.4172 360.888 91.4796 361.756 95.1908Z" fill="white"/>
<path d="M358.887 100.538C361.701 102.545 363.861 106.215 364.325 109.982C364.365 106.207 365.392 102.31 367.041 99.1713C368.55 96.2995 370.655 92.4182 374.4 91.6445C375.871 96.1159 375.395 101.585 373.016 105.204C371.217 107.946 368.431 111.38 364.377 111.288C360.677 111.477 357.482 108.95 354.968 106.841C352.263 104.573 349.823 101.257 348.797 97.6733C352.574 96.5764 356.19 98.6157 358.887 100.538Z" fill="white"/>
<path d="M363.374 124.804C363.786 121.113 362.552 117.122 360.251 114.656C358.036 112.279 354.93 109.688 351.063 110.1C351.141 113.84 353.013 117.405 354.945 120.075C356.744 122.562 359.515 125.638 363.143 126.081C366.915 126.72 370.597 124.411 372.99 121.694C376.067 118.198 377.901 113.506 377.535 108.808C373.659 108.903 370.724 112.249 368.553 114.779C366.211 117.507 364.293 121.099 363.374 124.804Z" fill="white"/>
<path d="M357.882 128.165C359.716 131.811 360.065 136.148 358.65 139.966C360.737 136.037 363.791 132.86 367.024 129.924C369.962 127.256 374.195 124.446 378.454 124.978C377.641 130.245 374.42 135.707 370.1 138.514C366.628 140.769 362.421 143.002 358.001 141.316C354.364 140.033 352.055 136.371 350.636 133.01C349.134 129.454 348.133 125.355 348.834 121.465C352.822 121.822 356.129 124.679 357.882 128.165Z" fill="white"/>
<path d="M350.175 154.019C352.482 150.506 353.287 146.11 352.344 141.983C351.45 138.074 348.731 134.504 344.766 133.394C343.113 137.16 343.085 141.541 343.684 145.514C344.244 149.19 345.611 153.479 349.007 155.53C353.203 158.191 358.102 156.617 362.125 155.025C367.315 152.972 372.001 148.004 374.193 142.665C369.657 141.227 365.02 143.599 361.24 145.566C357.33 147.601 353.246 150.503 350.175 154.019Z" fill="white"/>
<path d="M332.827 156.913C332.322 160.746 332.331 165.609 335.307 168.563C339.021 172.373 344.779 171.642 349.22 170.808C355.183 169.687 361.896 165.625 365.498 160.215C361.109 157.794 355.734 159.336 351.386 160.585L351.135 160.657C346.282 162.049 341.109 164.294 336.78 167.362C340.235 164.245 342.752 159.671 342.879 155.057C342.994 150.93 341.207 146.513 337.354 144.542C334.658 148.073 333.395 152.608 332.827 156.913Z" fill="white"/>
<path d="M329.497 184.994C324.733 184.893 318.196 184.325 315.531 179.403L315.494 179.336C313.366 175.176 315.529 170.313 317.253 166.715C319.303 162.437 322.103 158.078 326.106 154.949C329.947 158.263 329.575 163 328.43 167.116C327.066 172.011 322.354 176.181 317.475 178.555C323.124 176.453 329.292 175.194 335.16 174.825L335.757 174.787C340.472 174.484 346.608 174.089 350.36 177.541C344.676 182.364 336.608 185.144 329.497 184.994Z" fill="white"/>
</svg>
