<svg width="496" height="250" viewBox="0 0 496 250" fill="none" xmlns="http://www.w3.org/2000/svg">
<path d="M44.5828 86.1862C43.4669 81.5024 45.7465 77.1344 48.121 73.5942C50.7348 69.6967 55.0959 66.2422 59.9665 65C59.0816 69.4188 56.5027 73.2303 54.0204 76.8138C51.5548 80.3739 48.4451 83.9796 44.5828 86.1862Z" fill="white"/>
<path d="M41.1844 95.171C42.0555 91.4619 42.0362 87.4012 41.2069 83.9221C40.4777 80.8646 39.4166 76.5424 35.9243 75.084C33.3857 79.1559 32.3653 84.7009 33.8448 88.8559C34.9145 91.8612 36.8383 95.8348 40.828 96.4498C44.4891 97.2938 48.191 95.3409 51.1148 93.7285C54.3658 91.9359 57.5502 89.0839 59.4849 85.6934C55.9358 83.9019 51.8939 85.3557 48.8531 86.749C45.5752 88.2509 42.5641 91.4734 41.1844 95.171Z" fill="white"/>
<path d="M29.9112 105.181C31.7116 107.927 34.4975 111.368 38.5596 111.27C42.2535 111.454 45.4448 108.933 47.958 106.829C50.6646 104.563 53.1077 101.25 54.1391 97.667C50.361 96.5678 46.7438 98.6041 44.0464 100.525C41.2296 102.531 39.0633 106.202 38.598 109.971C38.5631 106.195 37.5409 102.294 35.8931 99.1525C34.3865 96.2801 32.2871 92.3973 28.5416 91.6211C27.0659 96.0906 27.5368 101.559 29.9112 105.181Z" fill="white"/>
<path d="M39.7607 126.063C35.9907 126.695 32.3132 124.385 29.9249 121.668C26.8501 118.17 25.0206 113.477 25.3937 108.779C29.2667 108.878 32.1999 112.226 34.3679 114.757C36.7029 117.484 38.616 121.071 39.5338 124.771C39.1301 121.084 40.3682 117.101 42.6666 114.641C44.8851 112.265 47.9928 109.677 51.8594 110.092C51.776 113.832 49.9016 117.394 47.9683 120.063C46.1661 122.549 43.39 125.625 39.7607 126.063Z" fill="white"/>
<path d="M32.797 138.487C36.2691 140.748 40.4803 142.985 44.906 141.292C48.5368 140.007 50.8452 136.353 52.265 132.998C53.769 129.444 54.7735 125.345 54.078 121.455C50.0883 121.809 46.7799 124.664 45.0228 128.148C43.1858 131.791 42.8334 136.127 44.2446 139.946C42.1596 136.017 39.1104 132.838 35.8805 129.9C32.9443 127.23 28.715 124.417 24.4551 124.946C25.2656 130.213 28.4794 135.676 32.797 138.487Z" fill="white"/>
<path d="M53.8494 155.53C57.2662 153.488 58.6413 149.19 59.2032 145.507C59.809 141.535 59.7831 137.155 58.1335 133.387C54.1694 134.494 51.4484 138.062 50.5499 141.97C49.6007 146.098 50.4017 150.499 52.7107 154.014C49.6414 150.493 45.56 147.585 41.6487 145.546C37.8706 143.577 33.2355 141.202 28.6982 142.636C30.8862 147.976 35.5664 152.947 40.7536 155.004C44.7708 156.596 49.6578 158.171 53.8494 155.53Z" fill="white"/>
<path d="M70.0482 156.912C70.5497 160.746 70.5355 165.608 67.559 168.559C63.8395 172.367 58.0831 171.632 53.6432 170.794C47.6827 169.669 40.9731 165.604 37.377 160.191C41.7689 157.772 47.1404 159.319 51.4885 160.572L51.7368 160.643C56.5904 162.039 61.7626 164.288 66.0882 167.361C62.6362 164.242 60.121 159.664 59.9979 155.049C59.8872 150.922 61.6787 146.506 65.5337 144.539C68.2251 148.071 69.4854 152.607 70.0482 156.912Z" fill="white"/>
<path d="M87.3229 179.416C89.5148 175.243 87.3431 170.346 85.6125 166.727C83.5664 162.448 80.771 158.087 76.7703 154.955C72.9288 158.266 73.2941 163.003 74.4362 167.12C75.7943 172.015 80.5026 176.188 85.3781 178.566C79.7315 176.46 73.5649 175.196 67.6978 174.823L67.1035 174.785C62.3901 174.478 56.2539 174.078 52.498 177.527C58.1769 182.355 66.2431 185.14 73.3524 184.996C78.1166 184.899 84.6532 184.335 87.3229 179.416Z" fill="white"/>
<path d="M162.712 39.6322V55.5H160.853L152.206 43.0413H152.051V55.5H150.13V39.6322H151.989L160.667 52.1219H160.822V39.6322H162.712ZM166.772 55.5H164.757L170.584 39.6322H172.567L178.394 55.5H176.379L171.637 42.1426H171.513L166.772 55.5ZM167.515 49.3017H175.635V51.0062H167.515V49.3017ZM180.429 55.5V39.6322H185.79C187.03 39.6322 188.048 39.844 188.843 40.2676C189.638 40.6859 190.227 41.2619 190.61 41.9954C190.992 42.7288 191.183 43.563 191.183 44.4979C191.183 45.4329 190.992 46.2619 190.61 46.985C190.227 47.7082 189.641 48.2763 188.851 48.6896C188.06 49.0976 187.051 49.3017 185.821 49.3017H181.482V47.5661H185.759C186.606 47.5661 187.288 47.4421 187.805 47.1942C188.326 46.9463 188.704 46.595 188.936 46.1405C189.174 45.6808 189.292 45.1333 189.292 44.4979C189.292 43.8626 189.174 43.3073 188.936 42.8321C188.698 42.3569 188.319 41.9902 187.797 41.7319C187.275 41.4685 186.586 41.3368 185.728 41.3368H182.35V55.5H180.429ZM187.898 48.3719L191.803 55.5H189.571L185.728 48.3719H187.898ZM193.948 55.5V39.6322H199.31C200.55 39.6322 201.567 39.844 202.363 40.2676C203.158 40.6859 203.747 41.2619 204.129 41.9954C204.511 42.7288 204.702 43.563 204.702 44.4979C204.702 45.4329 204.511 46.2619 204.129 46.985C203.747 47.7082 203.161 48.2763 202.37 48.6896C201.58 49.0976 200.57 49.3017 199.341 49.3017H195.002V47.5661H199.279C200.126 47.5661 200.808 47.4421 201.324 47.1942C201.846 46.9463 202.223 46.595 202.456 46.1405C202.693 45.6808 202.812 45.1333 202.812 44.4979C202.812 43.8626 202.693 43.3073 202.456 42.8321C202.218 42.3569 201.838 41.9902 201.317 41.7319C200.795 41.4685 200.105 41.3368 199.248 41.3368H195.87V55.5H193.948ZM201.417 48.3719L205.322 55.5H203.091L199.248 48.3719H201.417ZM208.119 55.5H206.104L211.931 39.6322H213.914L219.741 55.5H217.726L212.984 42.1426H212.861L208.119 55.5ZM208.863 49.3017H216.982V51.0062H208.863V49.3017ZM219.054 41.3368V39.6322H230.955V41.3368H225.966V55.5H224.044V41.3368H219.054ZM235.406 39.6322V55.5H233.484V39.6322H235.406ZM239.473 39.6322L244.184 52.9897H244.37L249.08 39.6322H251.095L245.268 55.5H243.285L237.459 39.6322H239.473ZM253.13 55.5V39.6322H262.707V41.3368H255.052V46.6983H262.211V48.4029H255.052V53.7955H262.831V55.5H253.13ZM280.111 43.5992C280.018 42.814 279.641 42.2045 278.98 41.7707C278.319 41.3368 277.508 41.1198 276.547 41.1198C275.845 41.1198 275.23 41.2335 274.703 41.4607C274.181 41.688 273.773 42.0005 273.479 42.3982C273.19 42.796 273.045 43.2479 273.045 43.7541C273.045 44.1777 273.146 44.5418 273.347 44.8466C273.554 45.1462 273.817 45.3967 274.138 45.5981C274.458 45.7944 274.794 45.9571 275.145 46.0863C275.496 46.2102 275.819 46.311 276.113 46.3884L277.725 46.8223C278.138 46.9308 278.598 47.0806 279.104 47.2717C279.615 47.4628 280.104 47.7237 280.568 48.0542C281.038 48.3796 281.426 48.798 281.731 49.3094C282.035 49.8208 282.188 50.4483 282.188 51.1921C282.188 52.0496 281.963 52.8244 281.514 53.5165C281.069 54.2087 280.419 54.7588 279.561 55.1668C278.709 55.5749 277.673 55.7789 276.454 55.7789C275.318 55.7789 274.334 55.5956 273.502 55.2288C272.676 54.8621 272.025 54.3507 271.55 53.6947C271.08 53.0387 270.814 52.2769 270.752 51.4091H272.735C272.787 52.0083 272.988 52.5041 273.34 52.8967C273.696 53.2841 274.145 53.5733 274.688 53.7645C275.235 53.9504 275.824 54.0434 276.454 54.0434C277.188 54.0434 277.846 53.9246 278.43 53.687C279.014 53.4442 279.476 53.1085 279.817 52.6798C280.158 52.2459 280.328 51.7397 280.328 51.1612C280.328 50.6343 280.181 50.2056 279.887 49.875C279.592 49.5444 279.205 49.2758 278.724 49.0692C278.244 48.8626 277.725 48.6818 277.167 48.5269L275.215 47.969C273.975 47.6126 272.993 47.1038 272.27 46.4427C271.547 45.7815 271.186 44.9163 271.186 43.8471C271.186 42.9587 271.426 42.1839 271.906 41.5227C272.392 40.8564 273.043 40.3399 273.859 39.9731C274.68 39.6012 275.597 39.4153 276.609 39.4153C277.632 39.4153 278.541 39.5987 279.336 39.9654C280.132 40.327 280.762 40.8228 281.227 41.453C281.697 42.0832 281.945 42.7986 281.971 43.5992H280.111ZM284.911 55.5V39.6322H286.832V46.6983H295.293V39.6322H297.214V55.5H295.293V48.4029H286.832V55.5H284.911ZM314.013 47.5661C314.013 49.2397 313.711 50.686 313.107 51.905C312.502 53.124 311.673 54.064 310.62 54.7252C309.566 55.3864 308.362 55.7169 307.009 55.7169C305.656 55.7169 304.452 55.3864 303.399 54.7252C302.345 54.064 301.516 53.124 300.911 51.905C300.307 50.686 300.005 49.2397 300.005 47.5661C300.005 45.8926 300.307 44.4463 300.911 43.2273C301.516 42.0083 302.345 41.0682 303.399 40.407C304.452 39.7459 305.656 39.4153 307.009 39.4153C308.362 39.4153 309.566 39.7459 310.62 40.407C311.673 41.0682 312.502 42.0083 313.107 43.2273C313.711 44.4463 314.013 45.8926 314.013 47.5661ZM312.154 47.5661C312.154 46.1921 311.924 45.0325 311.464 44.0873C311.01 43.142 310.392 42.4267 309.612 41.9411C308.838 41.4556 307.97 41.2128 307.009 41.2128C306.048 41.2128 305.178 41.4556 304.398 41.9411C303.623 42.4267 303.006 43.142 302.546 44.0873C302.092 45.0325 301.864 46.1921 301.864 47.5661C301.864 48.9401 302.092 50.0997 302.546 51.0449C303.006 51.9902 303.623 52.7056 304.398 53.1911C305.178 53.6767 306.048 53.9194 307.009 53.9194C307.97 53.9194 308.838 53.6767 309.612 53.1911C310.392 52.7056 311.01 51.9902 311.464 51.0449C311.924 50.0997 312.154 48.9401 312.154 47.5661ZM316.808 55.5V39.6322H322.169C323.409 39.6322 324.427 39.844 325.222 40.2676C326.017 40.6859 326.606 41.2619 326.989 41.9954C327.371 42.7288 327.562 43.563 327.562 44.4979C327.562 45.4329 327.371 46.2619 326.989 46.985C326.606 47.7082 326.02 48.2763 325.23 48.6896C324.439 49.0976 323.43 49.3017 322.2 49.3017H317.861V47.5661H322.138C322.985 47.5661 323.667 47.4421 324.184 47.1942C324.705 46.9463 325.083 46.595 325.315 46.1405C325.553 45.6808 325.671 45.1333 325.671 44.4979C325.671 43.8626 325.553 43.3073 325.315 42.8321C325.077 42.3569 324.698 41.9902 324.176 41.7319C323.654 41.4685 322.965 41.3368 322.107 41.3368H318.729V55.5H316.808ZM324.277 48.3719L328.182 55.5H325.95L322.107 48.3719H324.277ZM329.46 41.3368V39.6322H341.36V41.3368H336.371V55.5H334.449V41.3368H329.46ZM189.336 77.5909H187.414C187.301 77.0382 187.102 76.5527 186.818 76.1343C186.539 75.7159 186.198 75.3647 185.795 75.0806C185.397 74.7913 184.956 74.5744 184.47 74.4298C183.984 74.2851 183.478 74.2128 182.951 74.2128C181.991 74.2128 181.12 74.4556 180.34 74.9411C179.566 75.4267 178.948 76.142 178.489 77.0873C178.034 78.0325 177.807 79.1921 177.807 80.5661C177.807 81.9401 178.034 83.0997 178.489 84.0449C178.948 84.9902 179.566 85.7056 180.34 86.1911C181.12 86.6767 181.991 86.9194 182.951 86.9194C183.478 86.9194 183.984 86.8471 184.47 86.7025C184.956 86.5579 185.397 86.3435 185.795 86.0594C186.198 85.7701 186.539 85.4163 186.818 84.9979C187.102 84.5744 187.301 84.0888 187.414 83.5413H189.336C189.191 84.3523 188.928 85.078 188.545 85.7185C188.163 86.359 187.688 86.9039 187.12 87.3533C186.552 87.7975 185.914 88.1358 185.206 88.3683C184.504 88.6007 183.752 88.7169 182.951 88.7169C181.598 88.7169 180.395 88.3864 179.341 87.7252C178.287 87.064 177.458 86.124 176.854 84.905C176.249 83.686 175.947 82.2397 175.947 80.5661C175.947 78.8926 176.249 77.4463 176.854 76.2273C177.458 75.0083 178.287 74.0682 179.341 73.407C180.395 72.7459 181.598 72.4153 182.951 72.4153C183.752 72.4153 184.504 72.5315 185.206 72.7639C185.914 72.9964 186.552 73.3373 187.12 73.7867C187.688 74.2309 188.163 74.7732 188.545 75.4137C188.928 76.0491 189.191 76.7748 189.336 77.5909ZM205.393 80.5661C205.393 82.2397 205.091 83.686 204.486 84.905C203.882 86.124 203.053 87.064 201.999 87.7252C200.945 88.3864 199.742 88.7169 198.389 88.7169C197.035 88.7169 195.832 88.3864 194.778 87.7252C193.724 87.064 192.895 86.124 192.291 84.905C191.687 83.686 191.384 82.2397 191.384 80.5661C191.384 78.8926 191.687 77.4463 192.291 76.2273C192.895 75.0083 193.724 74.0682 194.778 73.407C195.832 72.7459 197.035 72.4153 198.389 72.4153C199.742 72.4153 200.945 72.7459 201.999 73.407C203.053 74.0682 203.882 75.0083 204.486 76.2273C205.091 77.4463 205.393 78.8926 205.393 80.5661ZM203.533 80.5661C203.533 79.1921 203.303 78.0325 202.844 77.0873C202.389 76.142 201.772 75.4267 200.992 74.9411C200.217 74.4556 199.349 74.2128 198.389 74.2128C197.428 74.2128 196.558 74.4556 195.778 74.9411C195.003 75.4267 194.386 76.142 193.926 77.0873C193.471 78.0325 193.244 79.1921 193.244 80.5661C193.244 81.9401 193.471 83.0997 193.926 84.0449C194.386 84.9902 195.003 85.7056 195.778 86.1911C196.558 86.6767 197.428 86.9194 198.389 86.9194C199.349 86.9194 200.217 86.6767 200.992 86.1911C201.772 85.7056 202.389 84.9902 202.844 84.0449C203.303 83.0997 203.533 81.9401 203.533 80.5661ZM208.187 72.6322H210.481L215.873 85.8037H216.059L221.452 72.6322H223.745V88.5H221.948V76.4442H221.793L216.834 88.5H215.098L210.14 76.4442H209.985V88.5H208.187V72.6322ZM227.161 88.5V72.6322H232.523C233.768 72.6322 234.785 72.8569 235.576 73.3063C236.371 73.7505 236.96 74.3523 237.342 75.1116C237.724 75.8709 237.916 76.718 237.916 77.6529C237.916 78.5878 237.724 79.4375 237.342 80.202C236.965 80.9664 236.381 81.5759 235.591 82.0305C234.801 82.4799 233.788 82.7045 232.554 82.7045H228.711V81H232.492C233.344 81 234.029 80.8528 234.545 80.5584C235.062 80.2639 235.436 79.8662 235.669 79.3652C235.906 78.859 236.025 78.2882 236.025 77.6529C236.025 77.0176 235.906 76.4494 235.669 75.9483C235.436 75.4473 235.059 75.0548 234.537 74.7707C234.016 74.4814 233.324 74.3368 232.461 74.3368H229.083V88.5H227.161ZM240.574 88.5V72.6322H250.151V74.3368H242.496V79.6983H249.655V81.4029H242.496V86.7955H250.275V88.5H240.574ZM252.31 74.3368V72.6322H264.211V74.3368H259.221V88.5H257.3V74.3368H252.31ZM268.662 72.6322V88.5H266.74V72.6322H268.662ZM271.21 74.3368V72.6322H283.111V74.3368H278.121V88.5H276.2V74.3368H271.21ZM287.562 72.6322V88.5H285.64V72.6322H287.562ZM304.366 80.5661C304.366 82.2397 304.064 83.686 303.46 84.905C302.855 86.124 302.026 87.064 300.973 87.7252C299.919 88.3864 298.715 88.7169 297.362 88.7169C296.009 88.7169 294.805 88.3864 293.752 87.7252C292.698 87.064 291.869 86.124 291.265 84.905C290.66 83.686 290.358 82.2397 290.358 80.5661C290.358 78.8926 290.66 77.4463 291.265 76.2273C291.869 75.0083 292.698 74.0682 293.752 73.407C294.805 72.7459 296.009 72.4153 297.362 72.4153C298.715 72.4153 299.919 72.7459 300.973 73.407C302.026 74.0682 302.855 75.0083 303.46 76.2273C304.064 77.4463 304.366 78.8926 304.366 80.5661ZM302.507 80.5661C302.507 79.1921 302.277 78.0325 301.817 77.0873C301.363 76.142 300.745 75.4267 299.965 74.9411C299.191 74.4556 298.323 74.2128 297.362 74.2128C296.401 74.2128 295.531 74.4556 294.751 74.9411C293.976 75.4267 293.359 76.142 292.899 77.0873C292.445 78.0325 292.218 79.1921 292.218 80.5661C292.218 81.9401 292.445 83.0997 292.899 84.0449C293.359 84.9902 293.976 85.7056 294.751 86.1911C295.531 86.6767 296.401 86.9194 297.362 86.9194C298.323 86.9194 299.191 86.6767 299.965 86.1911C300.745 85.7056 301.363 84.9902 301.817 84.0449C302.277 83.0997 302.507 81.9401 302.507 80.5661ZM319.743 72.6322V88.5H317.884L309.237 76.0413H309.082V88.5H307.161V72.6322H309.02L317.698 85.1219H317.853V72.6322H319.743Z" fill="white"/>
<path d="M102.247 104.605H108.652L117.23 125.543H117.569L126.147 104.605H132.552V133.5H127.53V113.649H127.261L119.276 133.415H115.523L107.538 113.607H107.27V133.5H102.247V104.605ZM146.685 133.923C144.568 133.923 142.734 133.458 141.182 132.527C139.63 131.595 138.426 130.293 137.57 128.618C136.724 126.944 136.301 124.988 136.301 122.749C136.301 120.511 136.724 118.55 137.57 116.866C138.426 115.182 139.63 113.875 141.182 112.944C142.734 112.013 144.568 111.547 146.685 111.547C148.801 111.547 150.635 112.013 152.187 112.944C153.739 113.875 154.938 115.182 155.785 116.866C156.641 118.55 157.069 120.511 157.069 122.749C157.069 124.988 156.641 126.944 155.785 128.618C154.938 130.293 153.739 131.595 152.187 132.527C150.635 133.458 148.801 133.923 146.685 133.923ZM146.713 129.832C147.86 129.832 148.82 129.517 149.591 128.886C150.362 128.247 150.936 127.391 151.312 126.319C151.698 125.246 151.891 124.052 151.891 122.735C151.891 121.409 151.698 120.21 151.312 119.137C150.936 118.056 150.362 117.195 149.591 116.555C148.82 115.916 147.86 115.596 146.713 115.596C145.537 115.596 144.559 115.916 143.778 116.555C143.007 117.195 142.428 118.056 142.043 119.137C141.667 120.21 141.479 121.409 141.479 122.735C141.479 124.052 141.667 125.246 142.043 126.319C142.428 127.391 143.007 128.247 143.778 128.886C144.559 129.517 145.537 129.832 146.713 129.832ZM177.737 117.557L173.081 118.065C172.949 117.595 172.719 117.153 172.39 116.739C172.07 116.325 171.637 115.991 171.092 115.737C170.546 115.483 169.878 115.356 169.088 115.356C168.025 115.356 167.132 115.587 166.408 116.048C165.693 116.508 165.34 117.106 165.349 117.839C165.34 118.47 165.57 118.982 166.041 119.377C166.52 119.772 167.31 120.097 168.411 120.351L172.107 121.141C174.158 121.583 175.682 122.284 176.679 123.243C177.685 124.202 178.193 125.458 178.202 127.01C178.193 128.374 177.793 129.578 177.003 130.622C176.222 131.656 175.136 132.465 173.744 133.049C172.352 133.632 170.753 133.923 168.947 133.923C166.295 133.923 164.16 133.368 162.542 132.258C160.924 131.139 159.96 129.582 159.649 127.588L164.63 127.109C164.856 128.087 165.335 128.825 166.069 129.324C166.803 129.822 167.757 130.072 168.933 130.072C170.146 130.072 171.12 129.822 171.853 129.324C172.597 128.825 172.968 128.209 172.968 127.476C172.968 126.855 172.728 126.342 172.249 125.938C171.778 125.533 171.045 125.223 170.048 125.007L166.351 124.231C164.272 123.798 162.735 123.069 161.738 122.044C160.741 121.009 160.247 119.702 160.256 118.122C160.247 116.786 160.609 115.629 161.343 114.651C162.086 113.663 163.116 112.901 164.432 112.365C165.759 111.82 167.287 111.547 169.018 111.547C171.557 111.547 173.556 112.088 175.014 113.169C176.481 114.251 177.389 115.714 177.737 117.557ZM191.072 133.923C188.909 133.923 187.051 133.448 185.499 132.498C183.957 131.548 182.767 130.236 181.93 128.562C181.102 126.878 180.688 124.941 180.688 122.749C180.688 120.548 181.111 118.606 181.958 116.922C182.804 115.229 183.999 113.912 185.541 112.972C187.093 112.022 188.928 111.547 191.044 111.547C192.803 111.547 194.359 111.871 195.714 112.52C197.078 113.16 198.164 114.068 198.973 115.243C199.782 116.41 200.243 117.774 200.356 119.335H195.474C195.276 118.291 194.806 117.421 194.063 116.725C193.329 116.019 192.347 115.667 191.114 115.667C190.07 115.667 189.153 115.949 188.363 116.513C187.573 117.068 186.957 117.868 186.515 118.912C186.082 119.956 185.866 121.207 185.866 122.665C185.866 124.141 186.082 125.411 186.515 126.474C186.948 127.527 187.554 128.341 188.335 128.915C189.125 129.479 190.051 129.761 191.114 129.761C191.867 129.761 192.539 129.62 193.132 129.338C193.734 129.046 194.237 128.628 194.642 128.082C195.046 127.537 195.323 126.874 195.474 126.093H200.356C200.233 127.626 199.782 128.985 199.001 130.17C198.22 131.346 197.158 132.268 195.813 132.936C194.468 133.594 192.887 133.923 191.072 133.923ZM213.208 133.923C211.091 133.923 209.257 133.458 207.705 132.527C206.153 131.595 204.949 130.293 204.093 128.618C203.247 126.944 202.824 124.988 202.824 122.749C202.824 120.511 203.247 118.55 204.093 116.866C204.949 115.182 206.153 113.875 207.705 112.944C209.257 112.013 211.091 111.547 213.208 111.547C215.324 111.547 217.158 112.013 218.71 112.944C220.262 113.875 221.461 115.182 222.308 116.866C223.164 118.55 223.592 120.511 223.592 122.749C223.592 124.988 223.164 126.944 222.308 128.618C221.461 130.293 220.262 131.595 218.71 132.527C217.158 133.458 215.324 133.923 213.208 133.923ZM213.236 129.832C214.383 129.832 215.343 129.517 216.114 128.886C216.885 128.247 217.459 127.391 217.835 126.319C218.221 125.246 218.414 124.052 218.414 122.735C218.414 121.409 218.221 120.21 217.835 119.137C217.459 118.056 216.885 117.195 216.114 116.555C215.343 115.916 214.383 115.596 213.236 115.596C212.06 115.596 211.082 115.916 210.301 116.555C209.53 117.195 208.951 118.056 208.566 119.137C208.19 120.21 208.001 121.409 208.001 122.735C208.001 124.052 208.19 125.246 208.566 126.319C208.951 127.391 209.53 128.247 210.301 128.886C211.082 129.517 212.06 129.832 213.236 129.832ZM230.983 133.5L224.86 111.829H230.066L233.876 127.066H234.073L237.967 111.829H243.117L247.011 126.982H247.223L250.975 111.829H256.196L250.058 133.5H244.739L240.676 118.855H240.38L236.317 133.5H230.983ZM279.653 104.605H284.845V124.922C284.835 126.784 284.44 128.388 283.66 129.733C282.879 131.069 281.788 132.099 280.386 132.823C278.994 133.538 277.372 133.895 275.519 133.895C273.826 133.895 272.302 133.594 270.948 132.992C269.603 132.381 268.535 131.478 267.745 130.283C266.955 129.089 266.56 127.603 266.56 125.825H271.766C271.776 126.606 271.945 127.278 272.274 127.842C272.613 128.407 273.078 128.839 273.671 129.14C274.263 129.441 274.945 129.592 275.717 129.592C276.554 129.592 277.264 129.418 277.847 129.07C278.43 128.712 278.872 128.186 279.173 127.49C279.484 126.794 279.643 125.938 279.653 124.922V104.605ZM299.097 133.923C296.924 133.923 295.048 133.472 293.468 132.569C291.897 131.656 290.688 130.368 289.842 128.703C288.995 127.029 288.572 125.058 288.572 122.792C288.572 120.562 288.995 118.606 289.842 116.922C290.698 115.229 291.892 113.912 293.425 112.972C294.959 112.022 296.76 111.547 298.829 111.547C300.165 111.547 301.425 111.763 302.61 112.196C303.805 112.619 304.858 113.278 305.771 114.171C306.692 115.065 307.417 116.203 307.943 117.585C308.47 118.959 308.733 120.595 308.733 122.495V124.061H290.971V120.619H303.838C303.828 119.641 303.617 118.771 303.203 118.009C302.789 117.237 302.21 116.631 301.467 116.189C300.734 115.747 299.878 115.526 298.9 115.526C297.856 115.526 296.939 115.78 296.148 116.287C295.358 116.786 294.742 117.444 294.3 118.263C293.868 119.072 293.646 119.96 293.637 120.929V123.934C293.637 125.195 293.868 126.276 294.328 127.179C294.789 128.073 295.434 128.759 296.261 129.239C297.089 129.709 298.058 129.945 299.168 129.945C299.911 129.945 300.583 129.841 301.185 129.634C301.787 129.418 302.309 129.103 302.751 128.689C303.193 128.275 303.527 127.762 303.753 127.151L308.522 127.687C308.221 128.948 307.647 130.048 306.8 130.989C305.963 131.92 304.891 132.644 303.584 133.161C302.276 133.669 300.781 133.923 299.097 133.923ZM316.616 133.5L310.492 111.829H315.699L319.508 127.066H319.705L323.599 111.829H328.749L332.643 126.982H332.855L336.608 111.829H341.828L335.69 133.5H330.372L326.308 118.855H326.012L321.949 133.5H316.616ZM344.599 133.5V111.829H349.706V133.5H344.599ZM347.167 108.753C346.358 108.753 345.662 108.485 345.079 107.949C344.496 107.404 344.204 106.75 344.204 105.988C344.204 105.217 344.496 104.563 345.079 104.027C345.662 103.481 346.358 103.209 347.167 103.209C347.985 103.209 348.681 103.481 349.255 104.027C349.838 104.563 350.13 105.217 350.13 105.988C350.13 106.75 349.838 107.404 349.255 107.949C348.681 108.485 347.985 108.753 347.167 108.753ZM371.292 117.557L366.636 118.065C366.504 117.595 366.274 117.153 365.945 116.739C365.625 116.325 365.192 115.991 364.647 115.737C364.101 115.483 363.433 115.356 362.643 115.356C361.58 115.356 360.687 115.587 359.962 116.048C359.248 116.508 358.895 117.106 358.904 117.839C358.895 118.47 359.125 118.982 359.596 119.377C360.075 119.772 360.865 120.097 361.966 120.351L365.662 121.141C367.713 121.583 369.237 122.284 370.234 123.243C371.24 124.202 371.748 125.458 371.757 127.01C371.748 128.374 371.348 129.578 370.558 130.622C369.777 131.656 368.691 132.465 367.299 133.049C365.907 133.632 364.308 133.923 362.502 133.923C359.85 133.923 357.714 133.368 356.097 132.258C354.479 131.139 353.515 129.582 353.204 127.588L358.185 127.109C358.411 128.087 358.89 128.825 359.624 129.324C360.358 129.822 361.312 130.072 362.488 130.072C363.701 130.072 364.675 129.822 365.408 129.324C366.151 128.825 366.523 128.209 366.523 127.476C366.523 126.855 366.283 126.342 365.803 125.938C365.333 125.533 364.6 125.223 363.603 125.007L359.906 124.231C357.827 123.798 356.29 123.069 355.293 122.044C354.295 121.009 353.802 119.702 353.811 118.122C353.802 116.786 354.164 115.629 354.897 114.651C355.641 113.663 356.67 112.901 357.987 112.365C359.313 111.82 360.842 111.547 362.573 111.547C365.112 111.547 367.111 112.088 368.569 113.169C370.036 114.251 370.944 115.714 371.292 117.557ZM380.281 120.802V133.5H375.174V104.605H380.169V115.511H380.423C380.93 114.289 381.716 113.325 382.779 112.619C383.851 111.904 385.215 111.547 386.87 111.547C388.375 111.547 389.687 111.862 390.807 112.492C391.926 113.122 392.791 114.044 393.403 115.257C394.023 116.471 394.334 117.952 394.334 119.702V133.5H389.226V120.492C389.226 119.034 388.85 117.901 388.098 117.092C387.355 116.273 386.311 115.864 384.966 115.864C384.063 115.864 383.254 116.062 382.539 116.457C381.833 116.842 381.278 117.402 380.874 118.136C380.479 118.869 380.281 119.758 380.281 120.802ZM137.049 177.5V148.605H155.56V152.993H142.284V160.838H154.29V165.225H142.284V177.5H137.049ZM159.308 177.5V155.829H164.416V177.5H159.308ZM161.876 152.753C161.067 152.753 160.371 152.485 159.788 151.949C159.205 151.404 158.913 150.75 158.913 149.988C158.913 149.217 159.205 148.563 159.788 148.027C160.371 147.481 161.067 147.209 161.876 147.209C162.694 147.209 163.39 147.481 163.964 148.027C164.547 148.563 164.839 149.217 164.839 149.988C164.839 150.75 164.547 151.404 163.964 151.949C163.39 152.485 162.694 152.753 161.876 152.753ZM173.98 148.605V177.5H168.873V148.605H173.98ZM178.438 177.5V155.829H183.319V159.511H183.573C184.025 158.27 184.773 157.301 185.817 156.605C186.861 155.9 188.107 155.547 189.555 155.547C191.023 155.547 192.26 155.904 193.266 156.619C194.282 157.325 194.997 158.289 195.41 159.511H195.636C196.116 158.308 196.925 157.348 198.063 156.633C199.21 155.909 200.57 155.547 202.14 155.547C204.134 155.547 205.762 156.177 207.022 157.437C208.282 158.698 208.912 160.537 208.912 162.954V177.5H203.791V163.744C203.791 162.399 203.434 161.416 202.719 160.795C202.004 160.165 201.129 159.85 200.095 159.85C198.862 159.85 197.898 160.236 197.202 161.007C196.516 161.769 196.172 162.761 196.172 163.984V177.5H191.164V163.532C191.164 162.413 190.825 161.52 190.148 160.852C189.48 160.184 188.605 159.85 187.524 159.85C186.79 159.85 186.122 160.038 185.52 160.414C184.918 160.781 184.439 161.303 184.081 161.98C183.724 162.648 183.545 163.429 183.545 164.323V177.5H178.438ZM222.585 177.5V148.605H241.096V152.993H227.82V160.838H239.826V165.225H227.82V177.5H222.585ZM252.847 177.923C250.675 177.923 248.798 177.472 247.218 176.569C245.647 175.656 244.439 174.368 243.592 172.703C242.746 171.029 242.322 169.058 242.322 166.792C242.322 164.562 242.746 162.606 243.592 160.922C244.448 159.229 245.643 157.912 247.176 156.972C248.709 156.022 250.51 155.547 252.579 155.547C253.915 155.547 255.175 155.763 256.36 156.196C257.555 156.619 258.608 157.278 259.521 158.171C260.443 159.065 261.167 160.203 261.694 161.585C262.22 162.959 262.484 164.595 262.484 166.495V168.061H244.721V164.619H257.588C257.578 163.641 257.367 162.771 256.953 162.009C256.539 161.237 255.961 160.631 255.218 160.189C254.484 159.747 253.628 159.526 252.65 159.526C251.606 159.526 250.689 159.78 249.899 160.287C249.109 160.786 248.493 161.444 248.05 162.263C247.618 163.072 247.397 163.96 247.387 164.929V167.934C247.387 169.195 247.618 170.276 248.079 171.179C248.54 172.073 249.184 172.759 250.012 173.239C250.839 173.709 251.808 173.945 252.918 173.945C253.661 173.945 254.333 173.841 254.935 173.634C255.537 173.418 256.059 173.103 256.502 172.689C256.944 172.275 257.277 171.762 257.503 171.151L262.272 171.687C261.971 172.948 261.397 174.048 260.551 174.989C259.714 175.92 258.641 176.644 257.334 177.161C256.027 177.669 254.531 177.923 252.847 177.923ZM283.138 161.557L278.482 162.065C278.35 161.595 278.12 161.153 277.791 160.739C277.471 160.325 277.038 159.991 276.493 159.737C275.947 159.483 275.279 159.356 274.489 159.356C273.426 159.356 272.533 159.587 271.808 160.048C271.094 160.508 270.741 161.106 270.75 161.839C270.741 162.47 270.971 162.982 271.442 163.377C271.921 163.772 272.711 164.097 273.812 164.351L277.508 165.141C279.559 165.583 281.083 166.284 282.08 167.243C283.086 168.202 283.594 169.458 283.603 171.01C283.594 172.374 283.194 173.578 282.404 174.622C281.623 175.656 280.537 176.465 279.145 177.049C277.753 177.632 276.154 177.923 274.348 177.923C271.696 177.923 269.56 177.368 267.943 176.258C266.325 175.139 265.361 173.582 265.05 171.588L270.031 171.109C270.256 172.087 270.736 172.825 271.47 173.324C272.203 173.822 273.158 174.072 274.334 174.072C275.547 174.072 276.521 173.822 277.254 173.324C277.997 172.825 278.369 172.209 278.369 171.476C278.369 170.855 278.129 170.342 277.649 169.938C277.179 169.533 276.445 169.223 275.448 169.007L271.752 168.231C269.673 167.798 268.135 167.069 267.138 166.044C266.141 165.009 265.648 163.702 265.657 162.122C265.648 160.786 266.01 159.629 266.743 158.651C267.486 157.663 268.516 156.901 269.833 156.365C271.159 155.82 272.688 155.547 274.419 155.547C276.958 155.547 278.957 156.088 280.415 157.169C281.882 158.251 282.79 159.714 283.138 161.557ZM297.841 155.829V159.78H285.384V155.829H297.841ZM288.459 150.637H293.567V170.982C293.567 171.668 293.67 172.195 293.877 172.562C294.093 172.919 294.375 173.164 294.723 173.296C295.071 173.427 295.457 173.493 295.88 173.493C296.2 173.493 296.492 173.47 296.755 173.423C297.028 173.376 297.235 173.333 297.376 173.296L298.237 177.288C297.964 177.382 297.573 177.486 297.065 177.599C296.567 177.712 295.956 177.777 295.231 177.796C293.952 177.834 292.8 177.641 291.775 177.218C290.75 176.785 289.936 176.117 289.334 175.214C288.741 174.311 288.45 173.183 288.459 171.828V150.637ZM301.318 177.5V155.829H306.426V177.5H301.318ZM303.886 152.753C303.077 152.753 302.381 152.485 301.798 151.949C301.215 151.404 300.923 150.75 300.923 149.988C300.923 149.217 301.215 148.563 301.798 148.027C302.381 147.481 303.077 147.209 303.886 147.209C304.704 147.209 305.4 147.481 305.974 148.027C306.557 148.563 306.849 149.217 306.849 149.988C306.849 150.75 306.557 151.404 305.974 151.949C305.4 152.485 304.704 152.753 303.886 152.753ZM330.24 155.829L322.523 177.5H316.879L309.162 155.829H314.608L319.588 171.927H319.814L324.808 155.829H330.24ZM338.595 177.937C337.222 177.937 335.985 177.693 334.884 177.204C333.793 176.705 332.928 175.972 332.288 175.003C331.658 174.034 331.343 172.839 331.343 171.419C331.343 170.196 331.569 169.185 332.02 168.386C332.472 167.586 333.088 166.947 333.869 166.467C334.649 165.987 335.529 165.625 336.507 165.381C337.494 165.127 338.515 164.943 339.568 164.83C340.838 164.699 341.868 164.581 342.658 164.478C343.448 164.365 344.022 164.196 344.379 163.97C344.746 163.735 344.93 163.373 344.93 162.883V162.799C344.93 161.736 344.615 160.913 343.984 160.33C343.354 159.747 342.447 159.455 341.261 159.455C340.01 159.455 339.018 159.728 338.285 160.273C337.56 160.819 337.071 161.463 336.817 162.206L332.048 161.529C332.425 160.212 333.045 159.112 333.911 158.228C334.776 157.334 335.834 156.666 337.085 156.224C338.336 155.773 339.719 155.547 341.233 155.547C342.277 155.547 343.317 155.669 344.351 155.914C345.386 156.158 346.331 156.563 347.187 157.127C348.043 157.682 348.73 158.439 349.247 159.399C349.774 160.358 350.037 161.557 350.037 162.996V177.5H345.127V174.523H344.958C344.648 175.125 344.21 175.689 343.646 176.216C343.091 176.733 342.39 177.152 341.544 177.472C340.707 177.782 339.724 177.937 338.595 177.937ZM339.921 174.184C340.946 174.184 341.835 173.982 342.588 173.578C343.34 173.164 343.919 172.618 344.323 171.941C344.737 171.264 344.944 170.526 344.944 169.726V167.172C344.784 167.304 344.511 167.426 344.126 167.539C343.749 167.652 343.326 167.751 342.856 167.836C342.385 167.92 341.92 167.995 341.459 168.061C340.998 168.127 340.598 168.184 340.26 168.231C339.498 168.334 338.816 168.503 338.214 168.739C337.612 168.974 337.137 169.303 336.789 169.726C336.441 170.14 336.267 170.676 336.267 171.335C336.267 172.275 336.61 172.985 337.297 173.465C337.984 173.945 338.858 174.184 339.921 174.184ZM359.485 148.605V177.5H354.378V148.605H359.485Z" fill="white"/>
<path d="M225.727 209.5V208.105L230.964 202.372C231.579 201.7 232.085 201.117 232.483 200.621C232.881 200.12 233.175 199.65 233.366 199.211C233.563 198.767 233.661 198.302 233.661 197.816C233.661 197.258 233.526 196.775 233.258 196.367C232.994 195.959 232.633 195.644 232.173 195.422C231.713 195.2 231.197 195.089 230.623 195.089C230.014 195.089 229.482 195.215 229.027 195.468C228.578 195.716 228.229 196.065 227.981 196.514C227.739 196.964 227.617 197.491 227.617 198.095H225.789C225.789 197.165 226.003 196.349 226.432 195.647C226.861 194.944 227.444 194.397 228.183 194.004C228.927 193.612 229.761 193.415 230.685 193.415C231.615 193.415 232.439 193.612 233.157 194.004C233.875 194.397 234.438 194.926 234.846 195.592C235.254 196.259 235.458 197 235.458 197.816C235.458 198.4 235.352 198.971 235.141 199.528C234.934 200.081 234.572 200.698 234.056 201.38C233.544 202.057 232.834 202.883 231.925 203.86L228.361 207.671V207.795H235.737V209.5H225.727ZM243.676 209.717C242.509 209.717 241.515 209.399 240.693 208.764C239.872 208.123 239.244 207.196 238.811 205.982C238.377 204.763 238.16 203.291 238.16 201.566C238.16 199.851 238.377 198.387 238.811 197.173C239.25 195.954 239.88 195.024 240.701 194.384C241.528 193.738 242.519 193.415 243.676 193.415C244.833 193.415 245.822 193.738 246.644 194.384C247.47 195.024 248.1 195.954 248.534 197.173C248.973 198.387 249.193 199.851 249.193 201.566C249.193 203.291 248.976 204.763 248.542 205.982C248.108 207.196 247.481 208.123 246.659 208.764C245.838 209.399 244.844 209.717 243.676 209.717ZM243.676 208.012C244.833 208.012 245.732 207.455 246.373 206.339C247.013 205.223 247.333 203.632 247.333 201.566C247.333 200.192 247.186 199.022 246.892 198.056C246.602 197.09 246.184 196.354 245.637 195.848C245.094 195.342 244.441 195.089 243.676 195.089C242.53 195.089 241.633 195.654 240.988 196.786C240.342 197.912 240.019 199.505 240.019 201.566C240.019 202.94 240.164 204.107 240.453 205.068C240.742 206.029 241.158 206.76 241.701 207.261C242.248 207.762 242.907 208.012 243.676 208.012ZM257.279 193.632V209.5H255.358V195.647H255.265L251.391 198.219V196.267L255.358 193.632H257.279ZM261.902 209.5L268.999 195.461V195.337H260.817V193.632H270.983V195.43L263.917 209.5H261.902Z" fill="white"/>
<path d="M448.293 73.6038C450.664 77.1463 452.939 81.5164 451.82 86.1997C447.959 83.9897 444.853 80.3814 442.39 76.8193C439.911 73.2333 437.336 69.42 436.453 65C441.324 66.2457 445.684 69.7037 448.293 73.6038Z" fill="white"/>
<path d="M455.211 95.1908C453.835 91.4902 450.825 88.2635 447.549 86.7585C444.507 85.3629 440.467 83.9064 436.917 85.6948C438.849 89.0871 442.03 91.9415 445.279 93.7369C448.201 95.3511 451.9 97.3068 455.562 96.4662C459.553 95.8549 461.482 91.8818 462.555 88.8763C464.04 84.723 463.025 79.1764 460.49 75.1016C456.996 76.5581 455.929 80.8794 455.199 83.9369C454.366 87.4172 454.343 91.4796 455.211 95.1908Z" fill="white"/>
<path d="M452.342 100.538C455.156 102.545 457.316 106.215 457.78 109.982C457.821 106.207 458.847 102.31 460.497 99.1713C462.005 96.2995 464.11 92.4182 467.855 91.6445C469.326 96.1159 468.85 101.585 466.471 105.204C464.672 107.946 461.886 111.38 457.832 111.288C454.132 111.477 450.937 108.95 448.423 106.841C445.718 104.573 443.279 101.257 442.252 97.6733C446.029 96.5764 449.645 98.6157 452.342 100.538Z" fill="white"/>
<path d="M456.829 124.805C457.241 121.114 456.007 117.123 453.706 114.657C451.491 112.28 448.385 109.689 444.519 110.101C444.596 113.841 446.468 117.406 448.4 120.076C450.199 122.563 452.97 125.639 456.598 126.082C460.37 126.721 464.052 124.412 466.445 121.695C469.522 118.199 471.356 113.507 470.99 108.809C467.114 108.904 464.179 112.25 462.008 114.78C459.666 117.508 457.749 121.1 456.829 124.805Z" fill="white"/>
<path d="M451.338 128.165C453.172 131.811 453.52 136.148 452.105 139.966C454.192 136.037 457.246 132.86 460.479 129.924C463.417 127.256 467.65 124.446 471.909 124.978C471.096 130.245 467.875 135.707 463.555 138.514C460.084 140.769 455.876 143.002 451.456 141.316C447.82 140.033 445.51 136.371 444.091 133.01C442.589 129.454 441.588 125.355 442.289 121.465C446.277 121.822 449.584 124.679 451.338 128.165Z" fill="white"/>
<path d="M443.63 154.02C445.937 150.507 446.742 146.111 445.799 141.984C444.905 138.075 442.186 134.505 438.221 133.395C436.568 137.161 436.54 141.542 437.139 145.515C437.699 149.191 439.066 153.48 442.463 155.531C446.658 158.192 451.557 156.618 455.58 155.026C460.771 152.973 465.456 148.005 467.648 142.666C463.112 141.228 458.475 143.6 454.695 145.567C450.785 147.602 446.701 150.504 443.63 154.02Z" fill="white"/>
<path d="M426.282 156.912C425.777 160.745 425.786 165.608 428.762 168.562C432.476 172.372 438.234 171.641 442.675 170.807C448.638 169.686 455.352 165.625 458.953 160.214C454.564 157.793 449.189 159.335 444.841 160.584L444.59 160.656C439.737 162.048 434.564 164.293 430.235 167.361C433.69 164.244 436.207 159.67 436.334 155.056C436.449 150.929 434.662 146.512 430.809 144.541C428.113 148.072 426.85 152.607 426.282 156.912Z" fill="white"/>
<path d="M422.952 184.994C418.188 184.893 411.651 184.325 408.987 179.403L408.949 179.336C406.821 175.176 408.984 170.313 410.708 166.715C412.758 162.437 415.558 158.078 419.561 154.949C423.402 158.263 423.03 163 421.885 167.116C420.521 172.011 415.809 176.181 410.93 178.555C416.579 176.453 422.747 175.194 428.615 174.825L429.212 174.787C433.927 174.484 440.063 174.089 443.815 177.541C438.131 182.364 430.063 185.144 422.952 184.994Z" fill="white"/>
</svg>
