<svg width="518" height="250" viewBox="0 0 518 250" fill="none" xmlns="http://www.w3.org/2000/svg">
<path d="M44.5828 86.1862C43.4669 81.5024 45.7465 77.1344 48.121 73.5942C50.7348 69.6967 55.0959 66.2422 59.9665 65C59.0816 69.4188 56.5027 73.2303 54.0204 76.8138C51.5548 80.3739 48.4451 83.9796 44.5828 86.1862Z" fill="white"/>
<path d="M41.1844 95.171C42.0555 91.4619 42.0362 87.4012 41.2069 83.9221C40.4777 80.8646 39.4166 76.5424 35.9243 75.084C33.3857 79.1559 32.3653 84.7009 33.8448 88.8559C34.9145 91.8612 36.8383 95.8348 40.828 96.4498C44.4891 97.2938 48.191 95.3409 51.1148 93.7285C54.3658 91.9359 57.5502 89.0839 59.4849 85.6934C55.9358 83.9019 51.8939 85.3557 48.8531 86.749C45.5752 88.2509 42.5641 91.4734 41.1844 95.171Z" fill="white"/>
<path d="M29.9112 105.181C31.7116 107.927 34.4975 111.368 38.5596 111.27C42.2535 111.454 45.4448 108.933 47.958 106.829C50.6646 104.563 53.1077 101.25 54.1391 97.667C50.361 96.5678 46.7438 98.6041 44.0464 100.525C41.2296 102.531 39.0633 106.202 38.598 109.971C38.5631 106.195 37.5409 102.294 35.8931 99.1525C34.3865 96.2801 32.2871 92.3973 28.5416 91.6211C27.0659 96.0906 27.5368 101.559 29.9112 105.181Z" fill="white"/>
<path d="M39.7607 126.063C35.9907 126.695 32.3132 124.385 29.9249 121.668C26.8501 118.17 25.0206 113.477 25.3937 108.779C29.2667 108.878 32.1999 112.226 34.3679 114.757C36.7029 117.484 38.616 121.071 39.5338 124.771C39.1301 121.084 40.3682 117.101 42.6666 114.641C44.8851 112.265 47.9928 109.677 51.8594 110.092C51.776 113.832 49.9016 117.394 47.9683 120.063C46.1661 122.549 43.39 125.625 39.7607 126.063Z" fill="white"/>
<path d="M32.797 138.487C36.2691 140.748 40.4803 142.985 44.906 141.292C48.5368 140.007 50.8452 136.353 52.265 132.998C53.769 129.444 54.7735 125.345 54.078 121.455C50.0883 121.809 46.7799 124.664 45.0228 128.148C43.1858 131.791 42.8334 136.127 44.2446 139.946C42.1596 136.017 39.1104 132.838 35.8805 129.9C32.9443 127.23 28.715 124.417 24.4551 124.946C25.2656 130.213 28.4794 135.676 32.797 138.487Z" fill="white"/>
<path d="M53.8494 155.53C57.2662 153.488 58.6413 149.19 59.2032 145.507C59.809 141.535 59.7831 137.155 58.1335 133.387C54.1694 134.494 51.4484 138.062 50.5499 141.97C49.6007 146.098 50.4017 150.499 52.7107 154.014C49.6414 150.493 45.56 147.585 41.6487 145.546C37.8706 143.577 33.2355 141.202 28.6982 142.636C30.8862 147.976 35.5664 152.947 40.7536 155.004C44.7708 156.596 49.6578 158.171 53.8494 155.53Z" fill="white"/>
<path d="M70.0482 156.912C70.5497 160.746 70.5355 165.608 67.559 168.559C63.8395 172.367 58.0831 171.632 53.6432 170.794C47.6827 169.669 40.9731 165.604 37.377 160.191C41.7689 157.772 47.1404 159.319 51.4885 160.572L51.7368 160.643C56.5904 162.039 61.7626 164.288 66.0882 167.361C62.6362 164.242 60.121 159.664 59.9979 155.049C59.8872 150.922 61.6787 146.506 65.5337 144.539C68.2251 148.071 69.4854 152.607 70.0482 156.912Z" fill="white"/>
<path d="M87.3229 179.416C89.5148 175.243 87.3431 170.346 85.6125 166.727C83.5664 162.448 80.771 158.087 76.7703 154.955C72.9288 158.266 73.2941 163.003 74.4362 167.12C75.7943 172.015 80.5026 176.188 85.3781 178.566C79.7315 176.46 73.5649 175.196 67.6978 174.823L67.1035 174.785C62.3901 174.478 56.2539 174.078 52.498 177.527C58.1769 182.355 66.2431 185.14 73.3524 184.996C78.1166 184.899 84.6532 184.335 87.3229 179.416Z" fill="white"/>
<path d="M166.293 42.0661C166.293 43.7397 165.991 45.186 165.387 46.405C164.782 47.624 163.953 48.564 162.9 49.2252C161.846 49.8864 160.642 50.2169 159.289 50.2169C157.936 50.2169 156.732 49.8864 155.678 49.2252C154.625 48.564 153.796 47.624 153.191 46.405C152.587 45.186 152.285 43.7397 152.285 42.0661C152.285 40.3926 152.587 38.9463 153.191 37.7273C153.796 36.5083 154.625 35.5682 155.678 34.907C156.732 34.2459 157.936 33.9153 159.289 33.9153C160.642 33.9153 161.846 34.2459 162.9 34.907C163.953 35.5682 164.782 36.5083 165.387 37.7273C165.991 38.9463 166.293 40.3926 166.293 42.0661ZM164.434 42.0661C164.434 40.6921 164.204 39.5325 163.744 38.5873C163.29 37.642 162.672 36.9267 161.892 36.4411C161.118 35.9556 160.25 35.7128 159.289 35.7128C158.328 35.7128 157.458 35.9556 156.678 36.4411C155.903 36.9267 155.286 37.642 154.826 38.5873C154.372 39.5325 154.144 40.6921 154.144 42.0661C154.144 43.4401 154.372 44.5997 154.826 45.5449C155.286 46.4902 155.903 47.2056 156.678 47.6911C157.458 48.1767 158.328 48.4194 159.289 48.4194C160.25 48.4194 161.118 48.1767 161.892 47.6911C162.672 47.2056 163.29 46.4902 163.744 45.5449C164.204 44.5997 164.434 43.4401 164.434 42.0661ZM169.088 50V34.1322H178.602V35.8368H171.009V41.1983H177.889V42.9029H171.009V50H169.088ZM181.457 50V34.1322H190.971V35.8368H183.378V41.1983H190.258V42.9029H183.378V50H181.457ZM195.747 34.1322V50H193.826V34.1322H195.747ZM211.932 39.0909H210.011C209.897 38.5382 209.698 38.0527 209.414 37.6343C209.135 37.2159 208.794 36.8647 208.391 36.5806C207.994 36.2913 207.552 36.0744 207.066 35.9298C206.581 35.7851 206.075 35.7128 205.548 35.7128C204.587 35.7128 203.717 35.9556 202.937 36.4411C202.162 36.9267 201.545 37.642 201.085 38.5873C200.63 39.5325 200.403 40.6921 200.403 42.0661C200.403 43.4401 200.63 44.5997 201.085 45.5449C201.545 46.4902 202.162 47.2056 202.937 47.6911C203.717 48.1767 204.587 48.4194 205.548 48.4194C206.075 48.4194 206.581 48.3471 207.066 48.2025C207.552 48.0579 207.994 47.8435 208.391 47.5594C208.794 47.2701 209.135 46.9163 209.414 46.4979C209.698 46.0744 209.897 45.5888 210.011 45.0413H211.932C211.788 45.8523 211.524 46.578 211.142 47.2185C210.76 47.859 210.284 48.4039 209.716 48.8533C209.148 49.2975 208.51 49.6358 207.802 49.8683C207.1 50.1007 206.348 50.2169 205.548 50.2169C204.195 50.2169 202.991 49.8864 201.937 49.2252C200.884 48.564 200.055 47.624 199.45 46.405C198.846 45.186 198.544 43.7397 198.544 42.0661C198.544 40.3926 198.846 38.9463 199.45 37.7273C200.055 36.5083 200.884 35.5682 201.937 34.907C202.991 34.2459 204.195 33.9153 205.548 33.9153C206.348 33.9153 207.1 34.0315 207.802 34.2639C208.51 34.4964 209.148 34.8373 209.716 35.2867C210.284 35.7309 210.76 36.2732 211.142 36.9137C211.524 37.5491 211.788 38.2748 211.932 39.0909ZM216.522 34.1322V50H214.601V34.1322H216.522ZM220.589 50H218.575L224.401 34.1322H226.385L232.211 50H230.197L225.455 36.6426H225.331L220.589 50ZM221.333 43.8017H229.453V45.5062H221.333V43.8017ZM234.246 50V34.1322H236.168V48.2955H243.544V50H234.246ZM260.461 38.0992C260.368 37.314 259.99 36.7045 259.329 36.2707C258.668 35.8368 257.857 35.6198 256.896 35.6198C256.194 35.6198 255.579 35.7335 255.052 35.9607C254.531 36.188 254.123 36.5005 253.828 36.8982C253.539 37.296 253.394 37.7479 253.394 38.2541C253.394 38.6777 253.495 39.0418 253.697 39.3466C253.903 39.6462 254.167 39.8967 254.487 40.0981C254.807 40.2944 255.143 40.4571 255.494 40.5863C255.845 40.7102 256.168 40.811 256.463 40.8884L258.074 41.3223C258.487 41.4308 258.947 41.5806 259.453 41.7717C259.965 41.9628 260.453 42.2237 260.918 42.5542C261.388 42.8796 261.775 43.298 262.08 43.8094C262.385 44.3208 262.537 44.9483 262.537 45.6921C262.537 46.5496 262.312 47.3244 261.863 48.0165C261.419 48.7087 260.768 49.2588 259.91 49.6668C259.058 50.0749 258.023 50.2789 256.804 50.2789C255.667 50.2789 254.683 50.0956 253.852 49.7288C253.025 49.3621 252.374 48.8507 251.899 48.1947C251.429 47.5387 251.163 46.7769 251.101 45.9091H253.085C253.136 46.5083 253.338 47.0041 253.689 47.3967C254.045 47.7841 254.495 48.0733 255.037 48.2645C255.585 48.4504 256.173 48.5434 256.804 48.5434C257.537 48.5434 258.196 48.4246 258.779 48.187C259.363 47.9442 259.825 47.6085 260.166 47.1798C260.507 46.7459 260.677 46.2397 260.677 45.6612C260.677 45.1343 260.53 44.7056 260.236 44.375C259.941 44.0444 259.554 43.7758 259.074 43.5692C258.593 43.3626 258.074 43.1818 257.516 43.0269L255.564 42.469C254.324 42.1126 253.343 41.6038 252.62 40.9427C251.896 40.2815 251.535 39.4163 251.535 38.3471C251.535 37.4587 251.775 36.6839 252.255 36.0227C252.741 35.3564 253.392 34.8399 254.208 34.4731C255.029 34.1012 255.946 33.9153 256.958 33.9153C257.981 33.9153 258.89 34.0987 259.686 34.4654C260.481 34.827 261.111 35.3228 261.576 35.953C262.046 36.5832 262.294 37.2986 262.32 38.0992H260.461ZM265.26 50V34.1322H274.836V35.8368H267.181V41.1983H274.34V42.9029H267.181V48.2955H274.96V50H265.26ZM277.863 50V34.1322H279.785V48.2955H287.161V50H277.863ZM289.7 50V34.1322H299.276V35.8368H291.621V41.1983H298.78V42.9029H291.621V48.2955H299.4V50H289.7ZM315.072 39.0909H313.15C313.036 38.5382 312.838 38.0527 312.554 37.6343C312.275 37.2159 311.934 36.8647 311.531 36.5806C311.133 36.2913 310.691 36.0744 310.206 35.9298C309.72 35.7851 309.214 35.7128 308.687 35.7128C307.727 35.7128 306.856 35.9556 306.076 36.4411C305.301 36.9267 304.684 37.642 304.225 38.5873C303.77 39.5325 303.543 40.6921 303.543 42.0661C303.543 43.4401 303.77 44.5997 304.225 45.5449C304.684 46.4902 305.301 47.2056 306.076 47.6911C306.856 48.1767 307.727 48.4194 308.687 48.4194C309.214 48.4194 309.72 48.3471 310.206 48.2025C310.691 48.0579 311.133 47.8435 311.531 47.5594C311.934 47.2701 312.275 46.9163 312.554 46.4979C312.838 46.0744 313.036 45.5888 313.15 45.0413H315.072C314.927 45.8523 314.664 46.578 314.281 47.2185C313.899 47.859 313.424 48.4039 312.856 48.8533C312.288 49.2975 311.65 49.6358 310.942 49.8683C310.239 50.1007 309.488 50.2169 308.687 50.2169C307.334 50.2169 306.13 49.8864 305.077 49.2252C304.023 48.564 303.194 47.624 302.59 46.405C301.985 45.186 301.683 43.7397 301.683 42.0661C301.683 40.3926 301.985 38.9463 302.59 37.7273C303.194 36.5083 304.023 35.5682 305.077 34.907C306.13 34.2459 307.334 33.9153 308.687 33.9153C309.488 33.9153 310.239 34.0315 310.942 34.2639C311.65 34.4964 312.288 34.8373 312.856 35.2867C313.424 35.7309 313.899 36.2732 314.281 36.9137C314.664 37.5491 314.927 38.2748 315.072 39.0909ZM316.872 35.8368V34.1322H328.773V35.8368H323.784V50H321.862V35.8368H316.872ZM333.224 34.1322V50H331.302V34.1322H333.224ZM350.029 42.0661C350.029 43.7397 349.726 45.186 349.122 46.405C348.518 47.624 347.689 48.564 346.635 49.2252C345.581 49.8864 344.378 50.2169 343.025 50.2169C341.671 50.2169 340.468 49.8864 339.414 49.2252C338.36 48.564 337.531 47.624 336.927 46.405C336.323 45.186 336.02 43.7397 336.02 42.0661C336.02 40.3926 336.323 38.9463 336.927 37.7273C337.531 36.5083 338.36 35.5682 339.414 34.907C340.468 34.2459 341.671 33.9153 343.025 33.9153C344.378 33.9153 345.581 34.2459 346.635 34.907C347.689 35.5682 348.518 36.5083 349.122 37.7273C349.726 38.9463 350.029 40.3926 350.029 42.0661ZM348.169 42.0661C348.169 40.6921 347.939 39.5325 347.48 38.5873C347.025 37.642 346.408 36.9267 345.628 36.4411C344.853 35.9556 343.985 35.7128 343.025 35.7128C342.064 35.7128 341.193 35.9556 340.413 36.4411C339.639 36.9267 339.021 37.642 338.562 38.5873C338.107 39.5325 337.88 40.6921 337.88 42.0661C337.88 43.4401 338.107 44.5997 338.562 45.5449C339.021 46.4902 339.639 47.2056 340.413 47.6911C341.193 48.1767 342.064 48.4194 343.025 48.4194C343.985 48.4194 344.853 48.1767 345.628 47.6911C346.408 47.2056 347.025 46.4902 347.48 45.5449C347.939 44.5997 348.169 43.4401 348.169 42.0661ZM365.406 34.1322V50H363.546L354.9 37.5413H354.745V50H352.823V34.1322H354.683L363.36 46.6219H363.515V34.1322H365.406Z" fill="white"/>
<path d="M167.141 70.4933V66.1055H190.195V70.4933H181.264V95H176.072V70.4933H167.141ZM194.063 95H188.476L198.648 66.1055H205.11L215.297 95H209.71L201.992 72.0311H201.766L194.063 95ZM194.247 83.6707H209.484V87.8751H194.247V83.6707ZM218.308 95V66.1055H229.143C231.363 66.1055 233.225 66.4911 234.73 67.2624C236.245 68.0336 237.387 69.1153 238.159 70.5074C238.939 71.89 239.33 73.5031 239.33 75.3466C239.33 77.1996 238.935 78.808 238.145 80.1718C237.364 81.5262 236.212 82.575 234.688 83.318C233.164 84.0517 231.293 84.4185 229.073 84.4185H221.355V80.073H228.367C229.665 80.073 230.728 79.8943 231.556 79.5369C232.384 79.1701 232.995 78.6387 233.39 77.9426C233.794 77.2372 233.997 76.3719 233.997 75.3466C233.997 74.3214 233.794 73.4467 233.39 72.7224C232.986 71.9888 232.369 71.4338 231.542 71.0576C230.714 70.672 229.647 70.4791 228.339 70.4791H223.542V95H218.308ZM233.235 81.9072L240.388 95H234.547L227.521 81.9072H233.235ZM247.064 95H241.477L251.649 66.1055H258.111L268.297 95H262.71L254.993 72.0311H254.767L247.064 95ZM247.247 83.6707H262.485V87.8751H247.247V83.6707ZM266.547 70.4933V66.1055H289.6V70.4933H280.67V95H275.478V70.4933H266.547ZM308.953 74.0486C308.821 72.8165 308.266 71.8571 307.288 71.1705C306.319 70.4838 305.059 70.1405 303.507 70.1405C302.416 70.1405 301.48 70.3051 300.7 70.6343C299.919 70.9635 299.322 71.4103 298.908 71.9747C298.494 72.539 298.282 73.1833 298.273 73.9075C298.273 74.5095 298.409 75.0315 298.682 75.4736C298.964 75.9157 299.345 76.2919 299.825 76.6023C300.304 76.9033 300.836 77.1572 301.419 77.3642C302.002 77.5711 302.59 77.7451 303.183 77.8862L305.891 78.5634C306.983 78.8174 308.031 79.1607 309.038 79.5933C310.054 80.026 310.961 80.5715 311.761 81.2299C312.57 81.8883 313.209 82.6831 313.679 83.6143C314.15 84.5455 314.385 85.6365 314.385 86.8875C314.385 88.5806 313.952 90.0714 313.087 91.36C312.222 92.6392 310.971 93.6409 309.334 94.3651C307.707 95.0799 305.736 95.4374 303.422 95.4374C301.174 95.4374 299.223 95.0894 297.567 94.3933C295.921 93.6973 294.633 92.6815 293.702 91.3459C292.78 90.0102 292.281 88.383 292.206 86.4643H297.356C297.431 87.4707 297.741 88.3078 298.287 88.9756C298.832 89.6434 299.543 90.1419 300.417 90.4711C301.301 90.8003 302.289 90.9649 303.38 90.9649C304.518 90.9649 305.515 90.7956 306.371 90.457C307.237 90.109 307.914 89.6293 308.403 89.0179C308.892 88.3971 309.141 87.6729 309.151 86.8452C309.141 86.0927 308.92 85.4719 308.487 84.9828C308.055 84.4843 307.448 84.0705 306.667 83.7413C305.896 83.4027 304.993 83.1017 303.959 82.8383L300.671 81.9918C298.292 81.3804 296.41 80.454 295.028 79.2124C293.655 77.9614 292.968 76.3013 292.968 74.232C292.968 72.5296 293.429 71.0388 294.351 69.7596C295.282 68.4804 296.547 67.4881 298.146 66.7827C299.745 66.0678 301.555 65.7104 303.578 65.7104C305.628 65.7104 307.425 66.0678 308.967 66.7827C310.519 67.4881 311.737 68.471 312.621 69.7314C313.505 70.9823 313.962 72.4214 313.99 74.0486H308.953ZM321.502 95H315.915L326.087 66.1055H332.549L342.735 95H337.148L329.431 72.0311H329.205L321.502 95ZM321.685 83.6707H336.922V87.8751H321.685V83.6707ZM107.549 110.105V139H102.315V110.105H107.549ZM136.168 110.105V139H131.512L117.897 119.318H117.657V139H112.423V110.105H117.107L130.708 129.801H130.962V110.105H136.168ZM139.807 114.493V110.105H162.86V114.493H153.929V139H148.737V114.493H139.807ZM166.51 139V110.105H185.303V114.493H171.744V122.338H184.329V126.725H171.744V134.612H185.415V139H166.51ZM189.848 139V110.105H200.684C202.903 110.105 204.766 110.491 206.271 111.262C207.785 112.034 208.928 113.115 209.699 114.507C210.48 115.89 210.87 117.503 210.87 119.347C210.87 121.2 210.475 122.808 209.685 124.172C208.904 125.526 207.752 126.575 206.228 127.318C204.705 128.052 202.833 128.419 200.613 128.419H192.896V124.073H199.908C201.206 124.073 202.268 123.894 203.096 123.537C203.924 123.17 204.535 122.639 204.93 121.943C205.335 121.237 205.537 120.372 205.537 119.347C205.537 118.321 205.335 117.447 204.93 116.722C204.526 115.989 203.91 115.434 203.082 115.058C202.254 114.672 201.187 114.479 199.879 114.479H195.082V139H189.848ZM204.775 125.907L211.928 139H206.087L199.061 125.907H204.775ZM238.638 110.105V139H233.983L220.368 119.318H220.128V139H214.894V110.105H219.578L233.178 129.801H233.432V110.105H238.638ZM247.258 139H241.671L251.843 110.105H258.305L268.491 139H262.904L255.187 116.031H254.961L247.258 139ZM247.441 127.671H262.679V131.875H247.441V127.671ZM266.741 114.493V110.105H289.794V114.493H280.864V139H275.672V114.493H266.741ZM298.678 110.105V139H293.444V110.105H298.678ZM329.371 124.553C329.371 127.666 328.788 130.333 327.621 132.552C326.464 134.763 324.884 136.456 322.881 137.631C320.887 138.807 318.625 139.395 316.095 139.395C313.564 139.395 311.298 138.807 309.294 137.631C307.3 136.446 305.72 134.749 304.554 132.538C303.397 130.318 302.818 127.657 302.818 124.553C302.818 121.439 303.397 118.778 304.554 116.567C305.72 114.347 307.3 112.65 309.294 111.474C311.298 110.298 313.564 109.71 316.095 109.71C318.625 109.71 320.887 110.298 322.881 111.474C324.884 112.65 326.464 114.347 327.621 116.567C328.788 118.778 329.371 121.439 329.371 124.553ZM324.108 124.553C324.108 122.361 323.765 120.513 323.078 119.008C322.401 117.494 321.461 116.351 320.257 115.58C319.053 114.799 317.665 114.409 316.095 114.409C314.524 114.409 313.136 114.799 311.933 115.58C310.729 116.351 309.783 117.494 309.097 119.008C308.419 120.513 308.081 122.361 308.081 124.553C308.081 126.744 308.419 128.597 309.097 130.112C309.783 131.616 310.729 132.759 311.933 133.54C313.136 134.311 314.524 134.697 316.095 134.697C317.665 134.697 319.053 134.311 320.257 133.54C321.461 132.759 322.401 131.616 323.078 130.112C323.765 128.597 324.108 126.744 324.108 124.553ZM357.27 110.105V139H352.614L338.999 119.318H338.759V139H333.525V110.105H338.209L351.81 129.801H352.064V110.105H357.27ZM365.889 139H360.302L370.474 110.105H376.936L387.123 139H381.536L373.818 116.031H373.592L365.889 139ZM366.073 127.671H381.31V131.875H366.073V127.671ZM390.134 139V110.105H395.368V134.612H408.094V139H390.134ZM122.015 183V154.105H140.526V158.493H127.25V166.338H139.256V170.725H127.25V183H122.015ZM149.734 154.105V183H144.5V154.105H149.734ZM154.608 183V154.105H159.842V178.612H172.568V183H154.608ZM176.317 154.105H182.722L191.3 175.043H191.639L200.217 154.105H206.622V183H201.599V163.149H201.331L193.346 182.915H189.593L181.607 163.107H181.339V183H176.317V154.105ZM220.588 183V154.105H239.098V158.493H225.822V166.338H237.828V170.725H225.822V183H220.588ZM243.072 183V154.105H261.865V158.493H248.307V166.338H260.892V170.725H248.307V178.612H261.978V183H243.072ZM282.114 162.049C281.982 160.816 281.427 159.857 280.449 159.17C279.48 158.484 278.22 158.141 276.668 158.141C275.577 158.141 274.641 158.305 273.86 158.634C273.079 158.964 272.482 159.41 272.068 159.975C271.654 160.539 271.443 161.183 271.433 161.908C271.433 162.51 271.57 163.032 271.842 163.474C272.125 163.916 272.506 164.292 272.985 164.602C273.465 164.903 273.996 165.157 274.58 165.364C275.163 165.571 275.751 165.745 276.343 165.886L279.052 166.563C280.143 166.817 281.192 167.161 282.198 167.593C283.214 168.026 284.122 168.572 284.921 169.23C285.73 169.888 286.37 170.683 286.84 171.614C287.31 172.545 287.545 173.637 287.545 174.888C287.545 176.581 287.113 178.071 286.247 179.36C285.382 180.639 284.131 181.641 282.495 182.365C280.867 183.08 278.897 183.437 276.583 183.437C274.335 183.437 272.383 183.089 270.728 182.393C269.082 181.697 267.793 180.681 266.862 179.346C265.94 178.01 265.442 176.383 265.367 174.464H270.516C270.592 175.471 270.902 176.308 271.447 176.976C271.993 177.643 272.703 178.142 273.578 178.471C274.462 178.8 275.45 178.965 276.541 178.965C277.679 178.965 278.676 178.796 279.532 178.457C280.397 178.109 281.074 177.629 281.563 177.018C282.052 176.397 282.302 175.673 282.311 174.845C282.302 174.093 282.081 173.472 281.648 172.983C281.215 172.484 280.609 172.07 279.828 171.741C279.057 171.403 278.154 171.102 277.119 170.838L273.832 169.992C271.452 169.38 269.571 168.454 268.188 167.212C266.815 165.961 266.128 164.301 266.128 162.232C266.128 160.53 266.589 159.039 267.511 157.76C268.442 156.48 269.707 155.488 271.306 154.783C272.905 154.068 274.716 153.71 276.738 153.71C278.789 153.71 280.585 154.068 282.128 154.783C283.68 155.488 284.898 156.471 285.782 157.731C286.666 158.982 287.122 160.421 287.15 162.049H282.114ZM290.147 158.493V154.105H313.201V158.493H304.27V183H299.078V158.493H290.147ZM322.085 154.105V183H316.851V154.105H322.085ZM330.824 154.105L338.344 176.849H338.641L346.146 154.105H351.903L341.716 183H335.254L325.082 154.105H330.824ZM355.249 183H349.662L359.834 154.105H366.296L376.483 183H370.895L363.178 160.031H362.952L355.249 183ZM355.432 171.671H370.67V175.875H355.432V171.671ZM379.494 183V154.105H384.728V178.612H397.454V183H379.494Z" fill="white"/>
<path d="M236.152 215V213.605L241.389 207.872C242.004 207.2 242.51 206.617 242.908 206.121C243.305 205.62 243.6 205.15 243.791 204.711C243.987 204.267 244.085 203.802 244.085 203.316C244.085 202.758 243.951 202.275 243.683 201.867C243.419 201.459 243.058 201.144 242.598 200.922C242.138 200.7 241.622 200.589 241.048 200.589C240.439 200.589 239.907 200.715 239.452 200.968C239.003 201.216 238.654 201.565 238.406 202.014C238.163 202.464 238.042 202.991 238.042 203.595H236.213C236.213 202.665 236.428 201.849 236.857 201.147C237.285 200.444 237.869 199.897 238.608 199.504C239.351 199.112 240.186 198.915 241.11 198.915C242.04 198.915 242.864 199.112 243.582 199.504C244.3 199.897 244.863 200.426 245.271 201.092C245.679 201.759 245.883 202.5 245.883 203.316C245.883 203.9 245.777 204.471 245.565 205.028C245.359 205.581 244.997 206.198 244.481 206.88C243.969 207.557 243.259 208.383 242.35 209.36L238.786 213.171V213.295H246.162V215H236.152ZM254.101 215.217C252.934 215.217 251.939 214.899 251.118 214.264C250.297 213.623 249.669 212.696 249.235 211.482C248.801 210.263 248.584 208.791 248.584 207.066C248.584 205.351 248.801 203.887 249.235 202.673C249.674 201.454 250.305 200.524 251.126 199.884C251.952 199.238 252.944 198.915 254.101 198.915C255.258 198.915 256.247 199.238 257.068 199.884C257.895 200.524 258.525 201.454 258.959 202.673C259.398 203.887 259.618 205.351 259.618 207.066C259.618 208.791 259.401 210.263 258.967 211.482C258.533 212.696 257.905 213.623 257.084 214.264C256.263 214.899 255.268 215.217 254.101 215.217ZM254.101 213.512C255.258 213.512 256.157 212.955 256.797 211.839C257.438 210.723 257.758 209.132 257.758 207.066C257.758 205.692 257.611 204.522 257.316 203.556C257.027 202.59 256.609 201.854 256.061 201.348C255.519 200.842 254.865 200.589 254.101 200.589C252.954 200.589 252.058 201.154 251.412 202.286C250.767 203.412 250.444 205.005 250.444 207.066C250.444 208.44 250.589 209.607 250.878 210.568C251.167 211.529 251.583 212.26 252.125 212.761C252.673 213.262 253.331 213.512 254.101 213.512ZM267.704 199.132V215H265.782V201.147H265.689L261.815 203.719V201.767L265.782 199.132H267.704ZM277.1 215.217C276.449 215.207 275.798 215.083 275.147 214.845C274.496 214.607 273.902 214.207 273.365 213.644C272.828 213.076 272.397 212.309 272.071 211.343C271.746 210.372 271.583 209.153 271.583 207.686C271.583 206.281 271.715 205.036 271.978 203.951C272.242 202.862 272.624 201.945 273.125 201.201C273.626 200.452 274.23 199.884 274.938 199.496C275.651 199.109 276.454 198.915 277.348 198.915C278.236 198.915 279.026 199.093 279.718 199.45C280.416 199.801 280.984 200.292 281.423 200.922C281.862 201.552 282.146 202.278 282.275 203.099H280.385C280.209 202.386 279.868 201.795 279.362 201.325C278.856 200.855 278.184 200.62 277.348 200.62C276.118 200.62 275.15 201.154 274.442 202.224C273.74 203.293 273.386 204.793 273.381 206.725H273.505C273.794 206.286 274.137 205.912 274.535 205.602C274.938 205.287 275.382 205.044 275.868 204.873C276.353 204.703 276.867 204.618 277.41 204.618C278.319 204.618 279.15 204.845 279.904 205.3C280.659 205.749 281.263 206.371 281.717 207.167C282.172 207.957 282.399 208.864 282.399 209.886C282.399 210.868 282.18 211.767 281.741 212.583C281.302 213.394 280.684 214.039 279.889 214.52C279.099 214.995 278.169 215.227 277.1 215.217ZM277.1 213.512C277.75 213.512 278.334 213.35 278.851 213.024C279.372 212.699 279.783 212.262 280.083 211.715C280.387 211.167 280.54 210.558 280.54 209.886C280.54 209.23 280.393 208.634 280.098 208.097C279.809 207.554 279.409 207.123 278.897 206.803C278.391 206.482 277.812 206.322 277.162 206.322C276.671 206.322 276.214 206.42 275.79 206.617C275.367 206.808 274.995 207.071 274.675 207.407C274.359 207.743 274.112 208.128 273.931 208.561C273.75 208.99 273.66 209.442 273.66 209.917C273.66 210.548 273.807 211.136 274.101 211.684C274.401 212.231 274.809 212.673 275.325 213.009C275.847 213.345 276.438 213.512 277.1 213.512Z" fill="white"/>
<path d="M470.293 73.6038C472.664 77.1463 474.939 81.5164 473.82 86.1997C469.959 83.9897 466.853 80.3814 464.39 76.8193C461.911 73.2333 459.336 69.42 458.453 65C463.324 66.2457 467.684 69.7037 470.293 73.6038Z" fill="white"/>
<path d="M477.211 95.1908C475.835 91.4902 472.825 88.2635 469.549 86.7585C466.507 85.3629 462.467 83.9064 458.917 85.6948C460.849 89.0871 464.03 91.9415 467.279 93.7369C470.201 95.3511 473.9 97.3068 477.562 96.4662C481.553 95.8549 483.482 91.8818 484.555 88.8763C486.04 84.723 485.025 79.1764 482.49 75.1016C478.996 76.5581 477.929 80.8794 477.199 83.9369C476.366 87.4172 476.343 91.4796 477.211 95.1908Z" fill="white"/>
<path d="M474.342 100.538C477.156 102.545 479.316 106.215 479.78 109.982C479.821 106.207 480.847 102.31 482.497 99.1713C484.005 96.2995 486.11 92.4182 489.855 91.6445C491.326 96.1159 490.85 101.585 488.471 105.204C486.672 107.946 483.886 111.38 479.832 111.288C476.132 111.477 472.937 108.95 470.423 106.841C467.718 104.573 465.279 101.257 464.252 97.6733C468.029 96.5764 471.645 98.6157 474.342 100.538Z" fill="white"/>
<path d="M478.829 124.805C479.241 121.114 478.007 117.123 475.706 114.657C473.491 112.28 470.385 109.689 466.519 110.101C466.596 113.841 468.468 117.406 470.4 120.076C472.199 122.563 474.97 125.639 478.598 126.082C482.37 126.721 486.052 124.412 488.445 121.695C491.522 118.199 493.356 113.507 492.99 108.809C489.114 108.904 486.179 112.25 484.008 114.78C481.666 117.508 479.749 121.1 478.829 124.805Z" fill="white"/>
<path d="M473.338 128.165C475.172 131.811 475.52 136.148 474.105 139.966C476.192 136.037 479.246 132.86 482.479 129.924C485.417 127.256 489.65 124.446 493.909 124.978C493.096 130.245 489.875 135.707 485.555 138.514C482.084 140.769 477.876 143.002 473.456 141.316C469.82 140.033 467.51 136.371 466.091 133.01C464.589 129.454 463.588 125.355 464.289 121.465C468.277 121.822 471.584 124.679 473.338 128.165Z" fill="white"/>
<path d="M465.63 154.02C467.937 150.507 468.742 146.111 467.799 141.984C466.905 138.075 464.186 134.505 460.221 133.395C458.568 137.161 458.54 141.542 459.139 145.515C459.699 149.191 461.066 153.48 464.463 155.531C468.658 158.192 473.557 156.618 477.58 155.026C482.771 152.973 487.456 148.005 489.648 142.666C485.112 141.228 480.475 143.6 476.695 145.567C472.785 147.602 468.701 150.504 465.63 154.02Z" fill="white"/>
<path d="M448.282 156.912C447.777 160.745 447.786 165.608 450.762 168.562C454.476 172.372 460.234 171.641 464.675 170.807C470.638 169.686 477.352 165.625 480.953 160.214C476.564 157.793 471.189 159.335 466.841 160.584L466.59 160.656C461.737 162.048 456.564 164.293 452.235 167.361C455.69 164.244 458.207 159.67 458.334 155.056C458.449 150.929 456.662 146.512 452.809 144.541C450.113 148.072 448.85 152.607 448.282 156.912Z" fill="white"/>
<path d="M444.952 184.994C440.188 184.893 433.651 184.325 430.987 179.403L430.949 179.336C428.821 175.176 430.984 170.313 432.708 166.715C434.758 162.437 437.558 158.078 441.561 154.949C445.402 158.263 445.03 163 443.885 167.116C442.521 172.011 437.809 176.181 432.93 178.555C438.579 176.453 444.747 175.194 450.615 174.825L451.212 174.787C455.927 174.484 462.063 174.089 465.815 177.541C460.131 182.364 452.063 185.144 444.952 184.994Z" fill="white"/>
</svg>
