<svg width="510" height="250" viewBox="0 0 510 250" fill="none" xmlns="http://www.w3.org/2000/svg">
<path d="M44.5828 86.1862C43.4669 81.5024 45.7465 77.1344 48.121 73.5942C50.7348 69.6967 55.0959 66.2422 59.9665 65C59.0816 69.4188 56.5027 73.2303 54.0204 76.8138C51.5548 80.3739 48.4451 83.9796 44.5828 86.1862Z" fill="white"/>
<path d="M41.1844 95.171C42.0555 91.4619 42.0362 87.4012 41.2069 83.9221C40.4777 80.8646 39.4166 76.5424 35.9243 75.084C33.3857 79.1559 32.3653 84.7009 33.8448 88.8559C34.9145 91.8612 36.8383 95.8348 40.828 96.4498C44.4891 97.2938 48.191 95.3409 51.1148 93.7285C54.3658 91.9359 57.5502 89.0839 59.4849 85.6934C55.9358 83.9019 51.8939 85.3557 48.8531 86.749C45.5752 88.2509 42.5641 91.4734 41.1844 95.171Z" fill="white"/>
<path d="M29.9112 105.181C31.7116 107.927 34.4975 111.368 38.5596 111.27C42.2535 111.454 45.4448 108.933 47.958 106.829C50.6646 104.563 53.1077 101.25 54.1391 97.667C50.361 96.5678 46.7438 98.6041 44.0464 100.525C41.2296 102.531 39.0633 106.202 38.598 109.971C38.5631 106.195 37.5409 102.294 35.8931 99.1525C34.3865 96.2801 32.2871 92.3973 28.5416 91.6211C27.0659 96.0906 27.5368 101.559 29.9112 105.181Z" fill="white"/>
<path d="M39.7607 126.063C35.9907 126.695 32.3132 124.385 29.9249 121.668C26.8501 118.17 25.0206 113.477 25.3937 108.779C29.2667 108.878 32.1999 112.226 34.3679 114.757C36.7029 117.484 38.616 121.071 39.5338 124.771C39.1301 121.084 40.3682 117.101 42.6666 114.641C44.8851 112.265 47.9928 109.677 51.8594 110.092C51.776 113.832 49.9016 117.394 47.9683 120.063C46.1661 122.549 43.39 125.625 39.7607 126.063Z" fill="white"/>
<path d="M32.797 138.487C36.2691 140.748 40.4803 142.985 44.906 141.292C48.5368 140.007 50.8452 136.353 52.265 132.998C53.769 129.444 54.7735 125.345 54.078 121.455C50.0883 121.809 46.7799 124.664 45.0228 128.148C43.1858 131.791 42.8334 136.127 44.2446 139.946C42.1596 136.017 39.1104 132.838 35.8805 129.9C32.9443 127.23 28.715 124.417 24.4551 124.946C25.2656 130.213 28.4794 135.676 32.797 138.487Z" fill="white"/>
<path d="M53.8494 155.53C57.2662 153.488 58.6413 149.19 59.2032 145.507C59.809 141.535 59.7831 137.155 58.1335 133.387C54.1694 134.494 51.4484 138.062 50.5499 141.97C49.6007 146.098 50.4017 150.499 52.7107 154.014C49.6414 150.493 45.56 147.585 41.6487 145.546C37.8706 143.577 33.2355 141.202 28.6982 142.636C30.8862 147.976 35.5664 152.947 40.7536 155.004C44.7708 156.596 49.6578 158.171 53.8494 155.53Z" fill="white"/>
<path d="M70.0482 156.912C70.5497 160.746 70.5355 165.608 67.559 168.559C63.8395 172.367 58.0831 171.632 53.6432 170.794C47.6827 169.669 40.9731 165.604 37.377 160.191C41.7689 157.772 47.1404 159.319 51.4885 160.572L51.7368 160.643C56.5904 162.039 61.7626 164.288 66.0882 167.361C62.6362 164.242 60.121 159.664 59.9979 155.049C59.8872 150.922 61.6787 146.506 65.5337 144.539C68.2251 148.071 69.4854 152.607 70.0482 156.912Z" fill="white"/>
<path d="M87.3229 179.416C89.5148 175.243 87.3431 170.346 85.6125 166.727C83.5664 162.448 80.771 158.087 76.7703 154.955C72.9288 158.266 73.2941 163.003 74.4362 167.12C75.7943 172.015 80.5026 176.188 85.3781 178.566C79.7315 176.46 73.5649 175.196 67.6978 174.823L67.1035 174.785C62.3901 174.478 56.2539 174.078 52.498 177.527C58.1769 182.355 66.2431 185.14 73.3524 184.996C78.1166 184.899 84.6532 184.335 87.3229 179.416Z" fill="white"/>
<path d="M162.293 20.0661C162.293 21.7397 161.991 23.186 161.387 24.405C160.782 25.624 159.953 26.564 158.9 27.2252C157.846 27.8864 156.642 28.2169 155.289 28.2169C153.936 28.2169 152.732 27.8864 151.678 27.2252C150.625 26.564 149.796 25.624 149.191 24.405C148.587 23.186 148.285 21.7397 148.285 20.0661C148.285 18.3926 148.587 16.9463 149.191 15.7273C149.796 14.5083 150.625 13.5682 151.678 12.907C152.732 12.2459 153.936 11.9153 155.289 11.9153C156.642 11.9153 157.846 12.2459 158.9 12.907C159.953 13.5682 160.782 14.5083 161.387 15.7273C161.991 16.9463 162.293 18.3926 162.293 20.0661ZM160.434 20.0661C160.434 18.6921 160.204 17.5325 159.744 16.5873C159.29 15.642 158.672 14.9267 157.892 14.4411C157.118 13.9556 156.25 13.7128 155.289 13.7128C154.328 13.7128 153.458 13.9556 152.678 14.4411C151.903 14.9267 151.286 15.642 150.826 16.5873C150.372 17.5325 150.144 18.6921 150.144 20.0661C150.144 21.4401 150.372 22.5997 150.826 23.5449C151.286 24.4902 151.903 25.2056 152.678 25.6911C153.458 26.1767 154.328 26.4194 155.289 26.4194C156.25 26.4194 157.118 26.1767 157.892 25.6911C158.672 25.2056 159.29 24.4902 159.744 23.5449C160.204 22.5997 160.434 21.4401 160.434 20.0661ZM165.088 28V12.1322H174.602V13.8368H167.009V19.1983H173.889V20.9029H167.009V28H165.088ZM177.457 28V12.1322H186.971V13.8368H179.378V19.1983H186.258V20.9029H179.378V28H177.457ZM191.747 12.1322V28H189.826V12.1322H191.747ZM207.932 17.0909H206.011C205.897 16.5382 205.698 16.0527 205.414 15.6343C205.135 15.2159 204.794 14.8647 204.391 14.5806C203.994 14.2913 203.552 14.0744 203.066 13.9298C202.581 13.7851 202.075 13.7128 201.548 13.7128C200.587 13.7128 199.717 13.9556 198.937 14.4411C198.162 14.9267 197.545 15.642 197.085 16.5873C196.63 17.5325 196.403 18.6921 196.403 20.0661C196.403 21.4401 196.63 22.5997 197.085 23.5449C197.545 24.4902 198.162 25.2056 198.937 25.6911C199.717 26.1767 200.587 26.4194 201.548 26.4194C202.075 26.4194 202.581 26.3471 203.066 26.2025C203.552 26.0579 203.994 25.8435 204.391 25.5594C204.794 25.2701 205.135 24.9163 205.414 24.4979C205.698 24.0744 205.897 23.5888 206.011 23.0413H207.932C207.788 23.8523 207.524 24.578 207.142 25.2185C206.76 25.859 206.284 26.4039 205.716 26.8533C205.148 27.2975 204.51 27.6358 203.802 27.8683C203.1 28.1007 202.348 28.2169 201.548 28.2169C200.195 28.2169 198.991 27.8864 197.937 27.2252C196.884 26.564 196.055 25.624 195.45 24.405C194.846 23.186 194.544 21.7397 194.544 20.0661C194.544 18.3926 194.846 16.9463 195.45 15.7273C196.055 14.5083 196.884 13.5682 197.937 12.907C198.991 12.2459 200.195 11.9153 201.548 11.9153C202.348 11.9153 203.1 12.0315 203.802 12.2639C204.51 12.4964 205.148 12.8373 205.716 13.2867C206.284 13.7309 206.76 14.2732 207.142 14.9137C207.524 15.5491 207.788 16.2748 207.932 17.0909ZM212.522 12.1322V28H210.601V12.1322H212.522ZM216.589 28H214.575L220.401 12.1322H222.385L228.211 28H226.197L221.455 14.6426H221.331L216.589 28ZM217.333 21.8017H225.453V23.5062H217.333V21.8017ZM230.246 28V12.1322H232.168V26.2955H239.544V28H230.246ZM256.461 16.0992C256.368 15.314 255.99 14.7045 255.329 14.2707C254.668 13.8368 253.857 13.6198 252.896 13.6198C252.194 13.6198 251.579 13.7335 251.052 13.9607C250.531 14.188 250.123 14.5005 249.828 14.8982C249.539 15.296 249.394 15.7479 249.394 16.2541C249.394 16.6777 249.495 17.0418 249.697 17.3466C249.903 17.6462 250.167 17.8967 250.487 18.0981C250.807 18.2944 251.143 18.4571 251.494 18.5863C251.845 18.7102 252.168 18.811 252.463 18.8884L254.074 19.3223C254.487 19.4308 254.947 19.5806 255.453 19.7717C255.965 19.9628 256.453 20.2237 256.918 20.5542C257.388 20.8796 257.775 21.298 258.08 21.8094C258.385 22.3208 258.537 22.9483 258.537 23.6921C258.537 24.5496 258.312 25.3244 257.863 26.0165C257.419 26.7087 256.768 27.2588 255.91 27.6668C255.058 28.0749 254.023 28.2789 252.804 28.2789C251.667 28.2789 250.683 28.0956 249.852 27.7288C249.025 27.3621 248.374 26.8507 247.899 26.1947C247.429 25.5387 247.163 24.7769 247.101 23.9091H249.085C249.136 24.5083 249.338 25.0041 249.689 25.3967C250.045 25.7841 250.495 26.0733 251.037 26.2645C251.585 26.4504 252.173 26.5434 252.804 26.5434C253.537 26.5434 254.196 26.4246 254.779 26.187C255.363 25.9442 255.825 25.6085 256.166 25.1798C256.507 24.7459 256.677 24.2397 256.677 23.6612C256.677 23.1343 256.53 22.7056 256.236 22.375C255.941 22.0444 255.554 21.7758 255.074 21.5692C254.593 21.3626 254.074 21.1818 253.516 21.0269L251.564 20.469C250.324 20.1126 249.343 19.6038 248.62 18.9427C247.896 18.2815 247.535 17.4163 247.535 16.3471C247.535 15.4587 247.775 14.6839 248.255 14.0227C248.741 13.3564 249.392 12.8399 250.208 12.4731C251.029 12.1012 251.946 11.9153 252.958 11.9153C253.981 11.9153 254.89 12.0987 255.686 12.4654C256.481 12.827 257.111 13.3228 257.576 13.953C258.046 14.5832 258.294 15.2986 258.32 16.0992H256.461ZM261.26 28V12.1322H270.836V13.8368H263.181V19.1983H270.34V20.9029H263.181V26.2955H270.96V28H261.26ZM273.863 28V12.1322H275.785V26.2955H283.161V28H273.863ZM285.7 28V12.1322H295.276V13.8368H287.621V19.1983H294.78V20.9029H287.621V26.2955H295.4V28H285.7ZM311.072 17.0909H309.15C309.036 16.5382 308.838 16.0527 308.554 15.6343C308.275 15.2159 307.934 14.8647 307.531 14.5806C307.133 14.2913 306.691 14.0744 306.206 13.9298C305.72 13.7851 305.214 13.7128 304.687 13.7128C303.727 13.7128 302.856 13.9556 302.076 14.4411C301.301 14.9267 300.684 15.642 300.225 16.5873C299.77 17.5325 299.543 18.6921 299.543 20.0661C299.543 21.4401 299.77 22.5997 300.225 23.5449C300.684 24.4902 301.301 25.2056 302.076 25.6911C302.856 26.1767 303.727 26.4194 304.687 26.4194C305.214 26.4194 305.72 26.3471 306.206 26.2025C306.691 26.0579 307.133 25.8435 307.531 25.5594C307.934 25.2701 308.275 24.9163 308.554 24.4979C308.838 24.0744 309.036 23.5888 309.15 23.0413H311.072C310.927 23.8523 310.664 24.578 310.281 25.2185C309.899 25.859 309.424 26.4039 308.856 26.8533C308.288 27.2975 307.65 27.6358 306.942 27.8683C306.239 28.1007 305.488 28.2169 304.687 28.2169C303.334 28.2169 302.13 27.8864 301.077 27.2252C300.023 26.564 299.194 25.624 298.59 24.405C297.985 23.186 297.683 21.7397 297.683 20.0661C297.683 18.3926 297.985 16.9463 298.59 15.7273C299.194 14.5083 300.023 13.5682 301.077 12.907C302.13 12.2459 303.334 11.9153 304.687 11.9153C305.488 11.9153 306.239 12.0315 306.942 12.2639C307.65 12.4964 308.288 12.8373 308.856 13.2867C309.424 13.7309 309.899 14.2732 310.281 14.9137C310.664 15.5491 310.927 16.2748 311.072 17.0909ZM312.872 13.8368V12.1322H324.773V13.8368H319.784V28H317.862V13.8368H312.872ZM329.224 12.1322V28H327.302V12.1322H329.224ZM346.029 20.0661C346.029 21.7397 345.726 23.186 345.122 24.405C344.518 25.624 343.689 26.564 342.635 27.2252C341.581 27.8864 340.378 28.2169 339.025 28.2169C337.671 28.2169 336.468 27.8864 335.414 27.2252C334.36 26.564 333.531 25.624 332.927 24.405C332.323 23.186 332.02 21.7397 332.02 20.0661C332.02 18.3926 332.323 16.9463 332.927 15.7273C333.531 14.5083 334.36 13.5682 335.414 12.907C336.468 12.2459 337.671 11.9153 339.025 11.9153C340.378 11.9153 341.581 12.2459 342.635 12.907C343.689 13.5682 344.518 14.5083 345.122 15.7273C345.726 16.9463 346.029 18.3926 346.029 20.0661ZM344.169 20.0661C344.169 18.6921 343.939 17.5325 343.48 16.5873C343.025 15.642 342.408 14.9267 341.628 14.4411C340.853 13.9556 339.985 13.7128 339.025 13.7128C338.064 13.7128 337.193 13.9556 336.413 14.4411C335.639 14.9267 335.021 15.642 334.562 16.5873C334.107 17.5325 333.88 18.6921 333.88 20.0661C333.88 21.4401 334.107 22.5997 334.562 23.5449C335.021 24.4902 335.639 25.2056 336.413 25.6911C337.193 26.1767 338.064 26.4194 339.025 26.4194C339.985 26.4194 340.853 26.1767 341.628 25.6911C342.408 25.2056 343.025 24.4902 343.48 23.5449C343.939 22.5997 344.169 21.4401 344.169 20.0661ZM361.406 12.1322V28H359.546L350.9 15.5413H350.745V28H348.823V12.1322H350.683L359.36 24.6219H359.515V12.1322H361.406Z" fill="white"/>
<path d="M149.027 73V44.1055H154.261V57.3817H154.614L165.886 44.1055H172.278L161.104 57.0713L172.376 73H166.084L157.463 60.6126L154.261 64.3937V73H149.027ZM180.354 44.1055V73H175.119V44.1055H180.354ZM208.972 44.1055V73H204.316L190.702 53.3184H190.462V73H185.227V44.1055H189.911L203.512 63.8012H203.766V44.1055H208.972ZM239.7 58.5527C239.7 61.666 239.117 64.3326 237.95 66.5523C236.794 68.7627 235.213 70.4557 233.21 71.6315C231.216 72.8072 228.954 73.395 226.424 73.395C223.894 73.395 221.627 72.8072 219.623 71.6315C217.629 70.4463 216.049 68.7486 214.883 66.5382C213.726 64.3185 213.147 61.6566 213.147 58.5527C213.147 55.4394 213.726 52.7776 214.883 50.5672C216.049 48.3475 217.629 46.6497 219.623 45.474C221.627 44.2983 223.894 43.7104 226.424 43.7104C228.954 43.7104 231.216 44.2983 233.21 45.474C235.213 46.6497 236.794 48.3475 237.95 50.5672C239.117 52.7776 239.7 55.4394 239.7 58.5527ZM234.437 58.5527C234.437 56.3612 234.094 54.5129 233.407 53.008C232.73 51.4937 231.79 50.3509 230.586 49.5796C229.382 48.7989 227.994 48.4086 226.424 48.4086C224.853 48.4086 223.466 48.7989 222.262 49.5796C221.058 50.3509 220.112 51.4937 219.426 53.008C218.749 54.5129 218.41 56.3612 218.41 58.5527C218.41 60.7443 218.749 62.5972 219.426 64.1115C220.112 65.6165 221.058 66.7593 222.262 67.5399C223.466 68.3112 224.853 68.6969 226.424 68.6969C227.994 68.6969 229.382 68.3112 230.586 67.5399C231.79 66.7593 232.73 65.6165 233.407 64.1115C234.094 62.5972 234.437 60.7443 234.437 58.5527ZM251.67 73.3809C249.968 73.3809 248.444 72.9436 247.099 72.0688C245.754 71.1941 244.691 69.9243 243.91 68.2595C243.13 66.5947 242.739 64.5724 242.739 62.1928C242.739 59.7849 243.134 57.7532 243.924 56.0978C244.724 54.433 245.801 53.1773 247.155 52.3308C248.51 51.4749 250.019 51.0469 251.684 51.0469C252.954 51.0469 253.998 51.2633 254.816 51.6959C255.635 52.1192 256.284 52.6318 256.763 53.2338C257.243 53.8263 257.615 54.386 257.878 54.9127H258.09V44.1055H263.211V73H258.188V69.5857H257.878C257.615 70.1124 257.234 70.6721 256.735 71.2646C256.237 71.8478 255.578 72.3463 254.76 72.7602C253.942 73.174 252.912 73.3809 251.67 73.3809ZM253.095 69.1907C254.177 69.1907 255.099 68.8991 255.86 68.3159C256.622 67.7234 257.201 66.9004 257.596 65.8469C257.991 64.7935 258.188 63.566 258.188 62.1645C258.188 60.7631 257.991 59.545 257.596 58.5104C257.21 57.4758 256.636 56.6716 255.875 56.0978C255.122 55.5241 254.196 55.2372 253.095 55.2372C251.957 55.2372 251.007 55.5335 250.245 56.126C249.483 56.7186 248.91 57.5369 248.524 58.5809C248.138 59.625 247.945 60.8195 247.945 62.1645C247.945 63.519 248.138 64.7276 248.524 65.7905C248.919 66.8439 249.497 67.6763 250.259 68.2877C251.031 68.8897 251.976 69.1907 253.095 69.1907ZM267.859 73V51.3291H272.966V73H267.859ZM270.427 48.2534C269.618 48.2534 268.922 47.9853 268.339 47.4492C267.755 46.9037 267.464 46.25 267.464 45.4881C267.464 44.7168 267.755 44.0631 268.339 43.527C268.922 42.9815 269.618 42.7087 270.427 42.7087C271.245 42.7087 271.941 42.9815 272.515 43.527C273.098 44.0631 273.389 44.7168 273.389 45.4881C273.389 46.25 273.098 46.9037 272.515 47.4492C271.941 47.9853 271.245 48.2534 270.427 48.2534ZM294.551 57.0572L289.896 57.5651C289.764 57.0948 289.533 56.6528 289.204 56.2389C288.884 55.8251 288.452 55.4911 287.906 55.2372C287.361 54.9832 286.693 54.8563 285.903 54.8563C284.84 54.8563 283.946 55.0867 283.222 55.5476C282.507 56.0085 282.155 56.6057 282.164 57.3394C282.155 57.9696 282.385 58.4822 282.855 58.8772C283.335 59.2723 284.125 59.5968 285.226 59.8507L288.922 60.6408C290.973 61.0829 292.496 61.7836 293.493 62.743C294.5 63.7024 295.008 64.9581 295.017 66.51C295.008 67.8739 294.608 69.0778 293.818 70.1218C293.037 71.1565 291.951 71.9654 290.559 72.5485C289.167 73.1317 287.568 73.4233 285.762 73.4233C283.109 73.4233 280.974 72.8683 279.356 71.7584C277.739 70.6392 276.775 69.0825 276.464 67.0885L281.444 66.6088C281.67 67.587 282.15 68.3253 282.884 68.8238C283.617 69.3223 284.572 69.5716 285.748 69.5716C286.961 69.5716 287.934 69.3223 288.668 68.8238C289.411 68.3253 289.783 67.7093 289.783 66.9756C289.783 66.3548 289.543 65.8422 289.063 65.4378C288.593 65.0333 287.859 64.7229 286.862 64.5066L283.166 63.7306C281.087 63.2979 279.549 62.569 278.552 61.5438C277.555 60.5091 277.061 59.2017 277.071 57.6216C277.061 56.2859 277.424 55.129 278.157 54.1508C278.9 53.1632 279.93 52.4013 281.247 51.8652C282.573 51.3197 284.102 51.0469 285.832 51.0469C288.372 51.0469 290.371 51.5878 291.828 52.6694C293.296 53.7511 294.203 55.2137 294.551 57.0572ZM308.028 73.4233C305.855 73.4233 303.979 72.9718 302.398 72.0688C300.828 71.1565 299.619 69.8679 298.772 68.2031C297.926 66.5288 297.503 64.5583 297.503 62.2915C297.503 60.0624 297.926 58.106 298.772 56.4223C299.628 54.7293 300.823 53.4125 302.356 52.4719C303.889 51.5219 305.69 51.0469 307.76 51.0469C309.095 51.0469 310.356 51.2633 311.541 51.6959C312.735 52.1192 313.789 52.7776 314.701 53.6711C315.623 54.5647 316.347 55.7028 316.874 57.0854C317.401 58.4587 317.664 60.0953 317.664 61.9952V63.5613H299.901V60.1188H312.768C312.759 59.1406 312.547 58.2706 312.133 57.5087C311.72 56.7374 311.141 56.1307 310.398 55.6887C309.664 55.2466 308.808 55.0256 307.83 55.0256C306.786 55.0256 305.869 55.2795 305.079 55.7874C304.289 56.2859 303.673 56.9443 303.231 57.7626C302.798 58.5715 302.577 59.4604 302.568 60.4292V63.4343C302.568 64.6947 302.798 65.7764 303.259 66.6793C303.72 67.5729 304.364 68.2595 305.192 68.7392C306.02 69.2095 306.988 69.4446 308.098 69.4446C308.841 69.4446 309.514 69.3412 310.116 69.1342C310.718 68.9179 311.24 68.6028 311.682 68.1889C312.124 67.7751 312.458 67.2625 312.684 66.6511L317.452 67.1872C317.151 68.4476 316.578 69.5481 315.731 70.4887C314.894 71.4198 313.822 72.1441 312.514 72.6614C311.207 73.1693 309.711 73.4233 308.028 73.4233ZM330.784 73.4233C328.611 73.4233 326.735 72.9718 325.155 72.0688C323.584 71.1565 322.375 69.8679 321.529 68.2031C320.682 66.5288 320.259 64.5583 320.259 62.2915C320.259 60.0624 320.682 58.106 321.529 56.4223C322.385 54.7293 323.579 53.4125 325.112 52.4719C326.646 51.5219 328.447 51.0469 330.516 51.0469C331.852 51.0469 333.112 51.2633 334.297 51.6959C335.492 52.1192 336.545 52.7776 337.457 53.6711C338.379 54.5647 339.103 55.7028 339.63 57.0854C340.157 58.4587 340.42 60.0953 340.42 61.9952V63.5613H322.657V60.1188H335.525C335.515 59.1406 335.304 58.2706 334.89 57.5087C334.476 56.7374 333.897 56.1307 333.154 55.6887C332.421 55.2466 331.565 55.0256 330.587 55.0256C329.542 55.0256 328.625 55.2795 327.835 55.7874C327.045 56.2859 326.429 56.9443 325.987 57.7626C325.554 58.5715 325.333 59.4604 325.324 60.4292V63.4343C325.324 64.6947 325.554 65.7764 326.015 66.6793C326.476 67.5729 327.121 68.2595 327.948 68.7392C328.776 69.2095 329.745 69.4446 330.855 69.4446C331.598 69.4446 332.27 69.3412 332.872 69.1342C333.474 68.9179 333.996 68.6028 334.438 68.1889C334.88 67.7751 335.214 67.2625 335.44 66.6511L340.209 67.1872C339.908 68.4476 339.334 69.5481 338.487 70.4887C337.65 71.4198 336.578 72.1441 335.271 72.6614C333.963 73.1693 332.468 73.4233 330.784 73.4233ZM350.182 73.4374C348.809 73.4374 347.572 73.1928 346.472 72.7037C345.381 72.2052 344.515 71.4716 343.876 70.5028C343.246 69.534 342.931 68.3394 342.931 66.9192C342.931 65.6964 343.156 64.6853 343.608 63.8858C344.059 63.0863 344.675 62.4467 345.456 61.967C346.237 61.4873 347.116 61.1252 348.094 60.8807C349.082 60.6267 350.103 60.4433 351.156 60.3304C352.426 60.1987 353.456 60.0812 354.246 59.9777C355.036 59.8648 355.61 59.6955 355.967 59.4698C356.334 59.2346 356.517 58.8725 356.517 58.3834V58.2988C356.517 57.2359 356.202 56.4129 355.572 55.8298C354.942 55.2466 354.034 54.955 352.849 54.955C351.598 54.955 350.606 55.2278 349.872 55.7733C349.148 56.3189 348.659 56.9632 348.405 57.7062L343.636 57.029C344.012 55.7122 344.633 54.6117 345.498 53.7276C346.364 52.834 347.422 52.1662 348.673 51.7241C349.924 51.2727 351.306 51.0469 352.821 51.0469C353.865 51.0469 354.904 51.1692 355.939 51.4137C356.973 51.6583 357.919 52.0627 358.775 52.6271C359.631 53.182 360.317 53.9392 360.835 54.8986C361.361 55.858 361.625 57.0572 361.625 58.4963V73H356.715V70.0231H356.545C356.235 70.625 355.798 71.1894 355.233 71.7161C354.678 72.2334 353.978 72.652 353.131 72.9718C352.294 73.2822 351.311 73.4374 350.182 73.4374ZM351.509 69.6845C352.534 69.6845 353.423 69.4822 354.175 69.0778C354.928 68.6639 355.506 68.1184 355.911 67.4412C356.324 66.764 356.531 66.0256 356.531 65.2261V62.6725C356.371 62.8041 356.099 62.9264 355.713 63.0393C355.337 63.1522 354.914 63.2509 354.443 63.3356C353.973 63.4202 353.507 63.4955 353.047 63.5613C352.586 63.6271 352.186 63.6836 351.847 63.7306C351.085 63.8341 350.404 64.0034 349.802 64.2385C349.2 64.4737 348.725 64.8029 348.377 65.2261C348.029 65.64 347.855 66.1761 347.855 66.8345C347.855 67.7751 348.198 68.4852 348.884 68.9649C349.571 69.4446 350.446 69.6845 351.509 69.6845ZM146.354 88.1055V117H141.12V88.1055H146.354ZM156.11 104.302V117H151.002V95.3291H155.884V99.0115H156.138C156.636 97.7981 157.431 96.834 158.522 96.1192C159.623 95.4043 160.982 95.0469 162.6 95.0469C164.095 95.0469 165.398 95.3667 166.508 96.0063C167.627 96.6459 168.492 97.5724 169.104 98.7857C169.724 99.9991 170.03 101.471 170.021 103.202V117H164.913V103.992C164.913 102.543 164.537 101.41 163.785 100.592C163.042 99.7733 162.012 99.3642 160.695 99.3642C159.801 99.3642 159.007 99.5617 158.31 99.9567C157.624 100.342 157.083 100.902 156.688 101.636C156.302 102.369 156.11 103.258 156.11 104.302ZM185.239 95.3291V99.2795H172.781V95.3291H185.239ZM175.857 90.1371H180.965V110.482C180.965 111.168 181.068 111.695 181.275 112.062C181.491 112.419 181.773 112.664 182.121 112.796C182.469 112.927 182.855 112.993 183.278 112.993C183.598 112.993 183.89 112.97 184.153 112.923C184.426 112.876 184.633 112.833 184.774 112.796L185.634 116.788C185.362 116.882 184.971 116.986 184.463 117.099C183.965 117.212 183.354 117.277 182.629 117.296C181.35 117.334 180.198 117.141 179.173 116.718C178.147 116.285 177.334 115.617 176.732 114.714C176.139 113.811 175.848 112.683 175.857 111.328V90.1371ZM198.077 117.423C195.905 117.423 194.028 116.972 192.448 116.069C190.877 115.156 189.669 113.868 188.822 112.203C187.976 110.529 187.552 108.558 187.552 106.292C187.552 104.062 187.976 102.106 188.822 100.422C189.678 98.7293 190.872 97.4125 192.406 96.4719C193.939 95.5219 195.74 95.0469 197.809 95.0469C199.145 95.0469 200.405 95.2633 201.59 95.6959C202.785 96.1192 203.838 96.7776 204.751 97.6711C205.672 98.5647 206.397 99.7028 206.923 101.085C207.45 102.459 207.714 104.095 207.714 105.995V107.561H189.951V104.119H202.818C202.808 103.141 202.597 102.271 202.183 101.509C201.769 100.737 201.191 100.131 200.448 99.6887C199.714 99.2466 198.858 99.0256 197.88 99.0256C196.836 99.0256 195.919 99.2795 195.129 99.7874C194.339 100.286 193.722 100.944 193.28 101.763C192.848 102.572 192.627 103.46 192.617 104.429V107.434C192.617 108.695 192.848 109.776 193.309 110.679C193.769 111.573 194.414 112.259 195.241 112.739C196.069 113.209 197.038 113.445 198.148 113.445C198.891 113.445 199.563 113.341 200.165 113.134C200.767 112.918 201.289 112.603 201.731 112.189C202.174 111.775 202.507 111.262 202.733 110.651L207.502 111.187C207.201 112.448 206.627 113.548 205.781 114.489C204.944 115.42 203.871 116.144 202.564 116.661C201.256 117.169 199.761 117.423 198.077 117.423ZM211.24 117V95.3291H216.192V98.9409H216.418C216.813 97.6899 217.49 96.7258 218.449 96.0486C219.418 95.362 220.523 95.0187 221.765 95.0187C222.047 95.0187 222.362 95.0328 222.71 95.061C223.067 95.0798 223.364 95.1128 223.599 95.1598V99.858C223.383 99.7827 223.039 99.7169 222.569 99.6605C222.108 99.5946 221.661 99.5617 221.229 99.5617C220.297 99.5617 219.46 99.7639 218.717 100.168C217.984 100.563 217.405 101.114 216.982 101.819C216.559 102.525 216.347 103.338 216.347 104.26V117H211.24ZM231.305 104.302V117H226.197V95.3291H231.079V99.0115H231.333C231.831 97.7981 232.626 96.834 233.717 96.1192C234.818 95.4043 236.177 95.0469 237.795 95.0469C239.29 95.0469 240.593 95.3667 241.703 96.0063C242.822 96.6459 243.687 97.5724 244.299 98.7857C244.92 99.9991 245.225 101.471 245.216 103.202V117H240.109V103.992C240.109 102.543 239.732 101.41 238.98 100.592C238.237 99.7733 237.207 99.3642 235.89 99.3642C234.997 99.3642 234.202 99.5617 233.506 99.9567C232.819 100.342 232.278 100.902 231.883 101.636C231.498 102.369 231.305 103.258 231.305 104.302ZM255.849 117.437C254.476 117.437 253.239 117.193 252.139 116.704C251.048 116.205 250.182 115.472 249.543 114.503C248.913 113.534 248.597 112.339 248.597 110.919C248.597 109.696 248.823 108.685 249.275 107.886C249.726 107.086 250.342 106.447 251.123 105.967C251.904 105.487 252.783 105.125 253.761 104.881C254.749 104.627 255.769 104.443 256.823 104.33C258.093 104.199 259.123 104.081 259.913 103.978C260.703 103.865 261.276 103.696 261.634 103.47C262.001 103.235 262.184 102.873 262.184 102.383V102.299C262.184 101.236 261.869 100.413 261.239 99.8298C260.609 99.2466 259.701 98.955 258.516 98.955C257.265 98.955 256.273 99.2278 255.539 99.7733C254.815 100.319 254.326 100.963 254.072 101.706L249.303 101.029C249.679 99.7122 250.3 98.6117 251.165 97.7276C252.031 96.834 253.089 96.1662 254.34 95.7241C255.591 95.2727 256.973 95.0469 258.488 95.0469C259.532 95.0469 260.571 95.1692 261.606 95.4137C262.64 95.6583 263.586 96.0627 264.442 96.6271C265.297 97.182 265.984 97.9392 266.501 98.8986C267.028 99.858 267.291 101.057 267.291 102.496V117H262.382V114.023H262.212C261.902 114.625 261.465 115.189 260.9 115.716C260.345 116.233 259.645 116.652 258.798 116.972C257.961 117.282 256.978 117.437 255.849 117.437ZM257.176 113.684C258.201 113.684 259.09 113.482 259.842 113.078C260.595 112.664 261.173 112.118 261.577 111.441C261.991 110.764 262.198 110.026 262.198 109.226V106.672C262.038 106.804 261.766 106.926 261.38 107.039C261.004 107.152 260.58 107.251 260.11 107.336C259.64 107.42 259.174 107.495 258.713 107.561C258.253 107.627 257.853 107.684 257.514 107.731C256.752 107.834 256.07 108.003 255.468 108.239C254.866 108.474 254.391 108.803 254.043 109.226C253.695 109.64 253.521 110.176 253.521 110.835C253.521 111.775 253.865 112.485 254.551 112.965C255.238 113.445 256.113 113.684 257.176 113.684ZM282.454 95.3291V99.2795H269.996V95.3291H282.454ZM273.072 90.1371H278.179V110.482C278.179 111.168 278.282 111.695 278.489 112.062C278.706 112.419 278.988 112.664 279.336 112.796C279.684 112.927 280.069 112.993 280.493 112.993C280.812 112.993 281.104 112.97 281.367 112.923C281.64 112.876 281.847 112.833 281.988 112.796L282.849 116.788C282.576 116.882 282.186 116.986 281.678 117.099C281.179 117.212 280.568 117.277 279.844 117.296C278.564 117.334 277.412 117.141 276.387 116.718C275.362 116.285 274.548 115.617 273.946 114.714C273.354 113.811 273.062 112.683 273.072 111.328V90.1371ZM285.931 117V95.3291H291.038V117H285.931ZM288.498 92.2534C287.689 92.2534 286.993 91.9853 286.41 91.4492C285.827 90.9037 285.536 90.25 285.536 89.4881C285.536 88.7168 285.827 88.0631 286.41 87.527C286.993 86.9815 287.689 86.7087 288.498 86.7087C289.317 86.7087 290.013 86.9815 290.586 87.527C291.17 88.0631 291.461 88.7168 291.461 89.4881C291.461 90.25 291.17 90.9037 290.586 91.4492C290.013 91.9853 289.317 92.2534 288.498 92.2534ZM304.948 117.423C302.832 117.423 300.998 116.958 299.446 116.027C297.894 115.095 296.69 113.793 295.834 112.118C294.987 110.444 294.564 108.488 294.564 106.249C294.564 104.011 294.987 102.05 295.834 100.366C296.69 98.6822 297.894 97.3748 299.446 96.4437C300.998 95.5125 302.832 95.0469 304.948 95.0469C307.064 95.0469 308.898 95.5125 310.45 96.4437C312.002 97.3748 313.202 98.6822 314.048 100.366C314.904 102.05 315.332 104.011 315.332 106.249C315.332 108.488 314.904 110.444 314.048 112.118C313.202 113.793 312.002 115.095 310.45 116.027C308.898 116.958 307.064 117.423 304.948 117.423ZM304.976 113.332C306.124 113.332 307.083 113.017 307.854 112.386C308.626 111.747 309.199 110.891 309.576 109.819C309.961 108.746 310.154 107.552 310.154 106.235C310.154 104.909 309.961 103.71 309.576 102.637C309.199 101.556 308.626 100.695 307.854 100.055C307.083 99.4159 306.124 99.0961 304.976 99.0961C303.801 99.0961 302.822 99.4159 302.042 100.055C301.27 100.695 300.692 101.556 300.306 102.637C299.93 103.71 299.742 104.909 299.742 106.235C299.742 107.552 299.93 108.746 300.306 109.819C300.692 110.891 301.27 111.747 302.042 112.386C302.822 113.017 303.801 113.332 304.976 113.332ZM323.98 104.302V117H318.872V95.3291H323.754V99.0115H324.008C324.506 97.7981 325.301 96.834 326.392 96.1192C327.493 95.4043 328.852 95.0469 330.47 95.0469C331.965 95.0469 333.268 95.3667 334.378 96.0063C335.497 96.6459 336.362 97.5724 336.974 98.7857C337.595 99.9991 337.9 101.471 337.891 103.202V117H332.783V103.992C332.783 102.543 332.407 101.41 331.655 100.592C330.912 99.7733 329.882 99.3642 328.565 99.3642C327.671 99.3642 326.877 99.5617 326.181 99.9567C325.494 100.342 324.953 100.902 324.558 101.636C324.172 102.369 323.98 103.258 323.98 104.302ZM348.524 117.437C347.151 117.437 345.914 117.193 344.814 116.704C343.723 116.205 342.857 115.472 342.218 114.503C341.587 113.534 341.272 112.339 341.272 110.919C341.272 109.696 341.498 108.685 341.95 107.886C342.401 107.086 343.017 106.447 343.798 105.967C344.578 105.487 345.458 105.125 346.436 104.881C347.424 104.627 348.444 104.443 349.498 104.33C350.767 104.199 351.797 104.081 352.588 103.978C353.378 103.865 353.951 103.696 354.309 103.47C354.676 103.235 354.859 102.873 354.859 102.383V102.299C354.859 101.236 354.544 100.413 353.914 99.8298C353.284 99.2466 352.376 98.955 351.191 98.955C349.94 98.955 348.947 99.2278 348.214 99.7733C347.49 100.319 347 100.963 346.747 101.706L341.978 101.029C342.354 99.7122 342.975 98.6117 343.84 97.7276C344.705 96.834 345.764 96.1662 347.015 95.7241C348.266 95.2727 349.648 95.0469 351.163 95.0469C352.207 95.0469 353.246 95.1692 354.281 95.4137C355.315 95.6583 356.26 96.0627 357.116 96.6271C357.972 97.182 358.659 97.9392 359.176 98.8986C359.703 99.858 359.966 101.057 359.966 102.496V117H355.057V114.023H354.887C354.577 114.625 354.139 115.189 353.575 115.716C353.02 116.233 352.319 116.652 351.473 116.972C350.636 117.282 349.653 117.437 348.524 117.437ZM349.85 113.684C350.876 113.684 351.765 113.482 352.517 113.078C353.269 112.664 353.848 112.118 354.252 111.441C354.666 110.764 354.873 110.026 354.873 109.226V106.672C354.713 106.804 354.44 106.926 354.055 107.039C353.679 107.152 353.255 107.251 352.785 107.336C352.315 107.42 351.849 107.495 351.388 107.561C350.927 107.627 350.528 107.684 350.189 107.731C349.427 107.834 348.745 108.003 348.143 108.239C347.541 108.474 347.066 108.803 346.718 109.226C346.37 109.64 346.196 110.176 346.196 110.835C346.196 111.775 346.54 112.485 347.226 112.965C347.913 113.445 348.788 113.684 349.85 113.684ZM369.415 88.1055V117H364.307V88.1055H369.415ZM161.623 141.855H156.347C156.196 140.989 155.919 140.223 155.514 139.555C155.11 138.878 154.607 138.304 154.005 137.834C153.403 137.363 152.716 137.011 151.945 136.775C151.183 136.531 150.36 136.409 149.476 136.409C147.905 136.409 146.513 136.804 145.3 137.594C144.086 138.374 143.136 139.522 142.45 141.036C141.763 142.541 141.42 144.38 141.42 146.553C141.42 148.763 141.763 150.625 142.45 152.14C143.146 153.645 144.096 154.783 145.3 155.554C146.513 156.316 147.9 156.697 149.462 156.697C150.327 156.697 151.136 156.584 151.889 156.358C152.65 156.123 153.332 155.78 153.934 155.328C154.546 154.877 155.058 154.322 155.472 153.663C155.895 153.005 156.187 152.253 156.347 151.406L161.623 151.434C161.426 152.808 160.998 154.096 160.34 155.3C159.691 156.504 158.839 157.567 157.786 158.489C156.732 159.401 155.5 160.116 154.089 160.633C152.679 161.141 151.113 161.395 149.391 161.395C146.852 161.395 144.585 160.807 142.591 159.631C140.597 158.456 139.026 156.758 137.879 154.538C136.731 152.318 136.157 149.657 136.157 146.553C136.157 143.439 136.736 140.778 137.893 138.567C139.05 136.347 140.625 134.65 142.619 133.474C144.613 132.298 146.871 131.71 149.391 131.71C151 131.71 152.495 131.936 153.878 132.388C155.26 132.839 156.493 133.502 157.574 134.377C158.656 135.242 159.545 136.305 160.241 137.566C160.946 138.816 161.407 140.246 161.623 141.855ZM170.504 148.302V161H165.397V132.105H170.391V143.011H170.645C171.153 141.789 171.938 140.825 173.001 140.119C174.073 139.404 175.437 139.047 177.093 139.047C178.598 139.047 179.91 139.362 181.029 139.992C182.148 140.622 183.014 141.544 183.625 142.757C184.246 143.971 184.556 145.452 184.556 147.202V161H179.449V147.992C179.449 146.534 179.073 145.401 178.32 144.592C177.577 143.773 176.533 143.364 175.188 143.364C174.285 143.364 173.476 143.562 172.761 143.957C172.056 144.342 171.501 144.902 171.096 145.636C170.701 146.369 170.504 147.258 170.504 148.302ZM188.968 161V139.329H194.075V161H188.968ZM191.535 136.253C190.727 136.253 190.03 135.985 189.447 135.449C188.864 134.904 188.573 134.25 188.573 133.488C188.573 132.717 188.864 132.063 189.447 131.527C190.03 130.981 190.727 130.709 191.535 130.709C192.354 130.709 193.05 130.981 193.624 131.527C194.207 132.063 194.498 132.717 194.498 133.488C194.498 134.25 194.207 134.904 193.624 135.449C193.05 135.985 192.354 136.253 191.535 136.253ZM203.64 132.105V161H198.532V132.105H203.64ZM216.139 161.381C214.437 161.381 212.913 160.944 211.568 160.069C210.223 159.194 209.16 157.924 208.379 156.259C207.599 154.595 207.208 152.572 207.208 150.193C207.208 147.785 207.603 145.753 208.393 144.098C209.193 142.433 210.27 141.177 211.624 140.331C212.979 139.475 214.488 139.047 216.153 139.047C217.423 139.047 218.467 139.263 219.285 139.696C220.103 140.119 220.752 140.632 221.232 141.234C221.712 141.826 222.083 142.386 222.347 142.913H222.558V132.105H227.68V161H222.657V157.586H222.347C222.083 158.112 221.702 158.672 221.204 159.265C220.705 159.848 220.047 160.346 219.229 160.76C218.41 161.174 217.381 161.381 216.139 161.381ZM217.564 157.191C218.646 157.191 219.567 156.899 220.329 156.316C221.091 155.723 221.67 154.9 222.065 153.847C222.46 152.793 222.657 151.566 222.657 150.165C222.657 148.763 222.46 147.545 222.065 146.51C221.679 145.476 221.105 144.672 220.343 144.098C219.591 143.524 218.664 143.237 217.564 143.237C216.426 143.237 215.476 143.533 214.714 144.126C213.952 144.719 213.378 145.537 212.993 146.581C212.607 147.625 212.414 148.82 212.414 150.165C212.414 151.519 212.607 152.728 212.993 153.79C213.388 154.844 213.966 155.676 214.728 156.288C215.499 156.89 216.445 157.191 217.564 157.191ZM232.328 161V139.329H237.28V142.941H237.506C237.901 141.69 238.578 140.726 239.537 140.049C240.506 139.362 241.611 139.019 242.853 139.019C243.135 139.019 243.45 139.033 243.798 139.061C244.155 139.08 244.452 139.113 244.687 139.16V143.858C244.471 143.783 244.127 143.717 243.657 143.66C243.196 143.595 242.749 143.562 242.317 143.562C241.385 143.562 240.548 143.764 239.805 144.168C239.072 144.563 238.493 145.114 238.07 145.819C237.647 146.525 237.435 147.338 237.435 148.26V161H232.328ZM255.987 161.423C253.814 161.423 251.938 160.972 250.358 160.069C248.787 159.156 247.578 157.868 246.732 156.203C245.885 154.529 245.462 152.558 245.462 150.292C245.462 148.062 245.885 146.106 246.732 144.422C247.588 142.729 248.782 141.412 250.315 140.472C251.848 139.522 253.65 139.047 255.719 139.047C257.054 139.047 258.315 139.263 259.5 139.696C260.694 140.119 261.748 140.778 262.66 141.671C263.582 142.565 264.306 143.703 264.833 145.085C265.36 146.459 265.623 148.095 265.623 149.995V151.561H247.86V148.119H260.727C260.718 147.141 260.506 146.271 260.093 145.509C259.679 144.737 259.1 144.131 258.357 143.689C257.624 143.247 256.768 143.026 255.789 143.026C254.745 143.026 253.828 143.28 253.038 143.787C252.248 144.286 251.632 144.944 251.19 145.763C250.757 146.572 250.536 147.46 250.527 148.429V151.434C250.527 152.695 250.757 153.776 251.218 154.679C251.679 155.573 252.323 156.259 253.151 156.739C253.979 157.209 254.948 157.445 256.057 157.445C256.801 157.445 257.473 157.341 258.075 157.134C258.677 156.918 259.199 156.603 259.641 156.189C260.083 155.775 260.417 155.262 260.643 154.651L265.411 155.187C265.111 156.448 264.537 157.548 263.69 158.489C262.853 159.42 261.781 160.144 260.473 160.661C259.166 161.169 257.671 161.423 255.987 161.423ZM274.257 148.302V161H269.149V139.329H274.031V143.011H274.285C274.783 141.798 275.578 140.834 276.669 140.119C277.77 139.404 279.129 139.047 280.747 139.047C282.242 139.047 283.545 139.367 284.655 140.006C285.774 140.646 286.639 141.572 287.251 142.786C287.871 143.999 288.177 145.471 288.168 147.202V161H283.06V147.992C283.06 146.543 282.684 145.41 281.932 144.592C281.189 143.773 280.159 143.364 278.842 143.364C277.948 143.364 277.154 143.562 276.458 143.957C275.771 144.342 275.23 144.902 274.835 145.636C274.449 146.369 274.257 147.258 274.257 148.302ZM301.851 161V132.105H320.362V136.493H307.086V144.338H319.092V148.725H307.086V161H301.851ZM324.11 161V139.329H329.218V161H324.11ZM326.678 136.253C325.869 136.253 325.173 135.985 324.59 135.449C324.007 134.904 323.715 134.25 323.715 133.488C323.715 132.717 324.007 132.063 324.59 131.527C325.173 130.981 325.869 130.709 326.678 130.709C327.496 130.709 328.192 130.981 328.766 131.527C329.349 132.063 329.641 132.717 329.641 133.488C329.641 134.25 329.349 134.904 328.766 135.449C328.192 135.985 327.496 136.253 326.678 136.253ZM338.782 132.105V161H333.675V132.105H338.782ZM343.24 161V139.329H348.121V143.011H348.375C348.827 141.77 349.574 140.801 350.618 140.105C351.662 139.4 352.909 139.047 354.357 139.047C355.824 139.047 357.061 139.404 358.068 140.119C359.084 140.825 359.798 141.789 360.212 143.011H360.438C360.918 141.808 361.727 140.848 362.865 140.133C364.012 139.409 365.371 139.047 366.942 139.047C368.936 139.047 370.563 139.677 371.824 140.937C373.084 142.198 373.714 144.037 373.714 146.454V161H368.593V147.244C368.593 145.899 368.235 144.916 367.521 144.295C366.806 143.665 365.931 143.35 364.896 143.35C363.664 143.35 362.7 143.736 362.004 144.507C361.317 145.269 360.974 146.261 360.974 147.484V161H355.966V147.032C355.966 145.913 355.627 145.02 354.95 144.352C354.282 143.684 353.407 143.35 352.326 143.35C351.592 143.35 350.924 143.538 350.322 143.914C349.72 144.281 349.24 144.803 348.883 145.48C348.526 146.148 348.347 146.929 348.347 147.823V161H343.24ZM102.291 205V176.105H120.802V180.493H107.525V188.338H119.532V192.725H107.525V205H102.291ZM132.553 205.423C130.38 205.423 128.504 204.972 126.924 204.069C125.353 203.156 124.144 201.868 123.298 200.203C122.451 198.529 122.028 196.558 122.028 194.292C122.028 192.062 122.451 190.106 123.298 188.422C124.154 186.729 125.348 185.412 126.881 184.472C128.415 183.522 130.216 183.047 132.285 183.047C133.621 183.047 134.881 183.263 136.066 183.696C137.261 184.119 138.314 184.778 139.226 185.671C140.148 186.565 140.872 187.703 141.399 189.085C141.926 190.459 142.189 192.095 142.189 193.995V195.561H124.426V192.119H137.294C137.284 191.141 137.073 190.271 136.659 189.509C136.245 188.737 135.666 188.131 134.923 187.689C134.19 187.247 133.334 187.026 132.356 187.026C131.312 187.026 130.394 187.28 129.604 187.787C128.814 188.286 128.198 188.944 127.756 189.763C127.323 190.572 127.102 191.46 127.093 192.429V195.434C127.093 196.695 127.323 197.776 127.784 198.679C128.245 199.573 128.89 200.259 129.717 200.739C130.545 201.209 131.514 201.445 132.624 201.445C133.367 201.445 134.039 201.341 134.641 201.134C135.243 200.918 135.765 200.603 136.207 200.189C136.649 199.775 136.983 199.262 137.209 198.651L141.978 199.187C141.677 200.448 141.103 201.548 140.256 202.489C139.419 203.42 138.347 204.144 137.04 204.661C135.732 205.169 134.237 205.423 132.553 205.423ZM162.843 189.057L158.188 189.565C158.056 189.095 157.825 188.653 157.496 188.239C157.176 187.825 156.744 187.491 156.198 187.237C155.653 186.983 154.985 186.856 154.195 186.856C153.132 186.856 152.238 187.087 151.514 187.548C150.799 188.008 150.447 188.606 150.456 189.339C150.447 189.97 150.677 190.482 151.147 190.877C151.627 191.272 152.417 191.597 153.518 191.851L157.214 192.641C159.265 193.083 160.788 193.784 161.785 194.743C162.792 195.702 163.3 196.958 163.309 198.51C163.3 199.874 162.9 201.078 162.11 202.122C161.329 203.156 160.243 203.965 158.851 204.549C157.459 205.132 155.86 205.423 154.054 205.423C151.401 205.423 149.266 204.868 147.648 203.758C146.031 202.639 145.066 201.082 144.756 199.088L149.736 198.609C149.962 199.587 150.442 200.325 151.176 200.824C151.909 201.322 152.864 201.572 154.04 201.572C155.253 201.572 156.226 201.322 156.96 200.824C157.703 200.325 158.075 199.709 158.075 198.976C158.075 198.355 157.835 197.842 157.355 197.438C156.885 197.033 156.151 196.723 155.154 196.507L151.458 195.731C149.379 195.298 147.841 194.569 146.844 193.544C145.847 192.509 145.353 191.202 145.363 189.622C145.353 188.286 145.715 187.129 146.449 186.151C147.192 185.163 148.222 184.401 149.539 183.865C150.865 183.32 152.394 183.047 154.124 183.047C156.664 183.047 158.663 183.588 160.12 184.669C161.588 185.751 162.495 187.214 162.843 189.057ZM177.547 183.329V187.28H165.089V183.329H177.547ZM168.165 178.137H173.272V198.482C173.272 199.168 173.376 199.695 173.583 200.062C173.799 200.419 174.081 200.664 174.429 200.796C174.777 200.927 175.163 200.993 175.586 200.993C175.906 200.993 176.197 200.97 176.461 200.923C176.734 200.876 176.941 200.833 177.082 200.796L177.942 204.788C177.669 204.882 177.279 204.986 176.771 205.099C176.273 205.212 175.661 205.277 174.937 205.296C173.658 205.334 172.506 205.141 171.48 204.718C170.455 204.285 169.642 203.617 169.04 202.714C168.447 201.811 168.156 200.683 168.165 199.328V178.137ZM181.024 205V183.329H186.131V205H181.024ZM183.592 180.253C182.783 180.253 182.087 179.985 181.504 179.449C180.921 178.904 180.629 178.25 180.629 177.488C180.629 176.717 180.921 176.063 181.504 175.527C182.087 174.981 182.783 174.709 183.592 174.709C184.41 174.709 185.106 174.981 185.68 175.527C186.263 176.063 186.555 176.717 186.555 177.488C186.555 178.25 186.263 178.904 185.68 179.449C185.106 179.985 184.41 180.253 183.592 180.253ZM209.946 183.329L202.228 205H196.585L188.867 183.329H194.313L199.294 199.427H199.519L204.514 183.329H209.946ZM218.301 205.437C216.927 205.437 215.691 205.193 214.59 204.704C213.499 204.205 212.634 203.472 211.994 202.503C211.364 201.534 211.049 200.339 211.049 198.919C211.049 197.696 211.274 196.685 211.726 195.886C212.177 195.086 212.794 194.447 213.574 193.967C214.355 193.487 215.234 193.125 216.213 192.881C217.2 192.627 218.221 192.443 219.274 192.33C220.544 192.199 221.574 192.081 222.364 191.978C223.154 191.865 223.728 191.696 224.085 191.47C224.452 191.235 224.635 190.873 224.635 190.383V190.299C224.635 189.236 224.32 188.413 223.69 187.83C223.06 187.247 222.152 186.955 220.967 186.955C219.716 186.955 218.724 187.228 217.99 187.773C217.266 188.319 216.777 188.963 216.523 189.706L211.754 189.029C212.13 187.712 212.751 186.612 213.617 185.728C214.482 184.834 215.54 184.166 216.791 183.724C218.042 183.273 219.425 183.047 220.939 183.047C221.983 183.047 223.022 183.169 224.057 183.414C225.092 183.658 226.037 184.063 226.893 184.627C227.749 185.182 228.435 185.939 228.953 186.899C229.479 187.858 229.743 189.057 229.743 190.496V205H224.833V202.023H224.664C224.353 202.625 223.916 203.189 223.352 203.716C222.797 204.233 222.096 204.652 221.249 204.972C220.412 205.282 219.429 205.437 218.301 205.437ZM219.627 201.684C220.652 201.684 221.541 201.482 222.293 201.078C223.046 200.664 223.624 200.118 224.029 199.441C224.443 198.764 224.65 198.026 224.65 197.226V194.672C224.49 194.804 224.217 194.926 223.831 195.039C223.455 195.152 223.032 195.251 222.561 195.336C222.091 195.42 221.626 195.495 221.165 195.561C220.704 195.627 220.304 195.684 219.965 195.731C219.204 195.834 218.522 196.003 217.92 196.239C217.318 196.474 216.843 196.803 216.495 197.226C216.147 197.64 215.973 198.176 215.973 198.835C215.973 199.775 216.316 200.485 217.003 200.965C217.689 201.445 218.564 201.684 219.627 201.684ZM239.191 176.105V205H234.084V176.105H239.191ZM252.934 205V176.105H263.77C265.99 176.105 267.852 176.491 269.357 177.262C270.871 178.034 272.014 179.115 272.785 180.507C273.566 181.89 273.956 183.503 273.956 185.347C273.956 187.2 273.561 188.808 272.771 190.172C271.991 191.526 270.838 192.575 269.315 193.318C267.791 194.052 265.919 194.419 263.699 194.419H255.982V190.073H262.994C264.292 190.073 265.355 189.894 266.182 189.537C267.01 189.17 267.622 188.639 268.017 187.943C268.421 187.237 268.623 186.372 268.623 185.347C268.623 184.321 268.421 183.447 268.017 182.722C267.612 181.989 266.996 181.434 266.168 181.058C265.341 180.672 264.273 180.479 262.966 180.479H258.169V205H252.934ZM267.861 191.907L275.014 205H269.173L262.147 191.907H267.861ZM286.897 205.423C284.78 205.423 282.946 204.958 281.394 204.027C279.842 203.095 278.638 201.793 277.782 200.118C276.936 198.444 276.513 196.488 276.513 194.249C276.513 192.011 276.936 190.05 277.782 188.366C278.638 186.682 279.842 185.375 281.394 184.444C282.946 183.513 284.78 183.047 286.897 183.047C289.013 183.047 290.847 183.513 292.399 184.444C293.951 185.375 295.15 186.682 295.997 188.366C296.853 190.05 297.28 192.011 297.28 194.249C297.28 196.488 296.853 198.444 295.997 200.118C295.15 201.793 293.951 203.095 292.399 204.027C290.847 204.958 289.013 205.423 286.897 205.423ZM286.925 201.332C288.072 201.332 289.032 201.017 289.803 200.386C290.574 199.747 291.148 198.891 291.524 197.819C291.91 196.746 292.103 195.552 292.103 194.235C292.103 192.909 291.91 191.71 291.524 190.637C291.148 189.556 290.574 188.695 289.803 188.055C289.032 187.416 288.072 187.096 286.925 187.096C285.749 187.096 284.771 187.416 283.99 188.055C283.219 188.695 282.64 189.556 282.255 190.637C281.879 191.71 281.69 192.909 281.69 194.235C281.69 195.552 281.879 196.746 282.255 197.819C282.64 198.891 283.219 199.747 283.99 200.386C284.771 201.017 285.749 201.332 286.925 201.332ZM300.821 205V183.329H305.702V187.011H305.956C306.408 185.77 307.156 184.801 308.2 184.105C309.244 183.4 310.49 183.047 311.938 183.047C313.406 183.047 314.643 183.404 315.649 184.119C316.665 184.825 317.38 185.789 317.793 187.011H318.019C318.499 185.808 319.308 184.848 320.446 184.133C321.593 183.409 322.953 183.047 324.523 183.047C326.517 183.047 328.145 183.677 329.405 184.937C330.665 186.198 331.295 188.037 331.295 190.454V205H326.174V191.244C326.174 189.899 325.817 188.916 325.102 188.295C324.387 187.665 323.512 187.35 322.478 187.35C321.245 187.35 320.281 187.736 319.585 188.507C318.899 189.269 318.555 190.261 318.555 191.484V205H313.547V191.032C313.547 189.913 313.208 189.02 312.531 188.352C311.863 187.684 310.988 187.35 309.907 187.35C309.173 187.35 308.505 187.538 307.903 187.914C307.301 188.281 306.822 188.803 306.464 189.48C306.107 190.148 305.928 190.929 305.928 191.823V205H300.821ZM341.918 205.437C340.545 205.437 339.308 205.193 338.208 204.704C337.117 204.205 336.251 203.472 335.612 202.503C334.982 201.534 334.666 200.339 334.666 198.919C334.666 197.696 334.892 196.685 335.344 195.886C335.795 195.086 336.411 194.447 337.192 193.967C337.973 193.487 338.852 193.125 339.83 192.881C340.818 192.627 341.838 192.443 342.892 192.33C344.162 192.199 345.192 192.081 345.982 191.978C346.772 191.865 347.345 191.696 347.703 191.47C348.07 191.235 348.253 190.873 348.253 190.383V190.299C348.253 189.236 347.938 188.413 347.308 187.83C346.678 187.247 345.77 186.955 344.585 186.955C343.334 186.955 342.342 187.228 341.608 187.773C340.884 188.319 340.395 188.963 340.141 189.706L335.372 189.029C335.748 187.712 336.369 186.612 337.234 185.728C338.1 184.834 339.158 184.166 340.409 183.724C341.66 183.273 343.042 183.047 344.557 183.047C345.601 183.047 346.64 183.169 347.675 183.414C348.709 183.658 349.655 184.063 350.511 184.627C351.366 185.182 352.053 185.939 352.57 186.899C353.097 187.858 353.36 189.057 353.36 190.496V205H348.451V202.023H348.281C347.971 202.625 347.534 203.189 346.969 203.716C346.414 204.233 345.714 204.652 344.867 204.972C344.03 205.282 343.047 205.437 341.918 205.437ZM343.245 201.684C344.27 201.684 345.159 201.482 345.911 201.078C346.664 200.664 347.242 200.118 347.646 199.441C348.06 198.764 348.267 198.026 348.267 197.226V194.672C348.107 194.804 347.835 194.926 347.449 195.039C347.073 195.152 346.649 195.251 346.179 195.336C345.709 195.42 345.243 195.495 344.782 195.561C344.322 195.627 343.922 195.684 343.583 195.731C342.821 195.834 342.139 196.003 341.537 196.239C340.935 196.474 340.46 196.803 340.112 197.226C339.764 197.64 339.59 198.176 339.59 198.835C339.59 199.775 339.934 200.485 340.62 200.965C341.307 201.445 342.182 201.684 343.245 201.684ZM362.809 192.302V205H357.701V183.329H362.583V187.011H362.837C363.335 185.798 364.13 184.834 365.221 184.119C366.322 183.404 367.681 183.047 369.299 183.047C370.794 183.047 372.097 183.367 373.207 184.006C374.326 184.646 375.191 185.572 375.803 186.786C376.424 187.999 376.729 189.471 376.72 191.202V205H371.613V191.992C371.613 190.543 371.236 189.41 370.484 188.592C369.741 187.773 368.711 187.364 367.394 187.364C366.501 187.364 365.706 187.562 365.01 187.957C364.323 188.342 363.782 188.902 363.387 189.636C363.002 190.369 362.809 191.258 362.809 192.302ZM381.117 205V183.329H386.225V205H381.117ZM383.685 180.253C382.876 180.253 382.18 179.985 381.597 179.449C381.014 178.904 380.722 178.25 380.722 177.488C380.722 176.717 381.014 176.063 381.597 175.527C382.18 174.981 382.876 174.709 383.685 174.709C384.503 174.709 385.199 174.981 385.773 175.527C386.356 176.063 386.648 176.717 386.648 177.488C386.648 178.25 386.356 178.904 385.773 179.449C385.199 179.985 384.503 180.253 383.685 180.253ZM396.918 205.437C395.545 205.437 394.308 205.193 393.207 204.704C392.116 204.205 391.251 203.472 390.611 202.503C389.981 201.534 389.666 200.339 389.666 198.919C389.666 197.696 389.892 196.685 390.343 195.886C390.795 195.086 391.411 194.447 392.192 193.967C392.972 193.487 393.852 193.125 394.83 192.881C395.818 192.627 396.838 192.443 397.892 192.33C399.161 192.199 400.191 192.081 400.981 191.978C401.771 191.865 402.345 191.696 402.703 191.47C403.069 191.235 403.253 190.873 403.253 190.383V190.299C403.253 189.236 402.938 188.413 402.308 187.83C401.677 187.247 400.77 186.955 399.585 186.955C398.334 186.955 397.341 187.228 396.608 187.773C395.883 188.319 395.394 188.963 395.14 189.706L390.372 189.029C390.748 187.712 391.369 186.612 392.234 185.728C393.099 184.834 394.157 184.166 395.408 183.724C396.659 183.273 398.042 183.047 399.556 183.047C400.6 183.047 401.64 183.169 402.674 183.414C403.709 183.658 404.654 184.063 405.51 184.627C406.366 185.182 407.053 185.939 407.57 186.899C408.097 187.858 408.36 189.057 408.36 190.496V205H403.45V202.023H403.281C402.971 202.625 402.533 203.189 401.969 203.716C401.414 204.233 400.713 204.652 399.867 204.972C399.03 205.282 398.047 205.437 396.918 205.437ZM398.244 201.684C399.269 201.684 400.158 201.482 400.911 201.078C401.663 200.664 402.242 200.118 402.646 199.441C403.06 198.764 403.267 198.026 403.267 197.226V194.672C403.107 194.804 402.834 194.926 402.449 195.039C402.072 195.152 401.649 195.251 401.179 195.336C400.709 195.42 400.243 195.495 399.782 195.561C399.321 195.627 398.921 195.684 398.583 195.731C397.821 195.834 397.139 196.003 396.537 196.239C395.935 196.474 395.46 196.803 395.112 197.226C394.764 197.64 394.59 198.176 394.59 198.835C394.59 199.775 394.933 200.485 395.62 200.965C396.307 201.445 397.181 201.684 398.244 201.684Z" fill="white"/>
<path d="M232.237 237V235.605L237.474 229.872C238.089 229.2 238.595 228.617 238.993 228.121C239.391 227.62 239.685 227.15 239.876 226.711C240.072 226.267 240.171 225.802 240.171 225.316C240.171 224.758 240.036 224.275 239.768 223.867C239.504 223.459 239.143 223.144 238.683 222.922C238.223 222.7 237.707 222.589 237.133 222.589C236.524 222.589 235.992 222.715 235.537 222.968C235.088 223.216 234.739 223.565 234.491 224.014C234.249 224.464 234.127 224.991 234.127 225.595H232.299C232.299 224.665 232.513 223.849 232.942 223.147C233.371 222.444 233.954 221.897 234.693 221.504C235.437 221.112 236.271 220.915 237.195 220.915C238.125 220.915 238.949 221.112 239.667 221.504C240.385 221.897 240.948 222.426 241.356 223.092C241.764 223.759 241.968 224.5 241.968 225.316C241.968 225.9 241.862 226.471 241.65 227.028C241.444 227.581 241.082 228.198 240.566 228.88C240.054 229.557 239.344 230.383 238.435 231.36L234.871 235.171V235.295H242.247V237H232.237ZM250.186 237.217C249.019 237.217 248.025 236.899 247.203 236.264C246.382 235.623 245.754 234.696 245.321 233.482C244.887 232.263 244.67 230.791 244.67 229.066C244.67 227.351 244.887 225.887 245.321 224.673C245.76 223.454 246.39 222.524 247.211 221.884C248.037 221.238 249.029 220.915 250.186 220.915C251.343 220.915 252.332 221.238 253.154 221.884C253.98 222.524 254.61 223.454 255.044 224.673C255.483 225.887 255.703 227.351 255.703 229.066C255.703 230.791 255.486 232.263 255.052 233.482C254.618 234.696 253.99 235.623 253.169 236.264C252.348 236.899 251.354 237.217 250.186 237.217ZM250.186 235.512C251.343 235.512 252.242 234.955 252.883 233.839C253.523 232.723 253.843 231.132 253.843 229.066C253.843 227.692 253.696 226.522 253.402 225.556C253.112 224.59 252.694 223.854 252.146 223.348C251.604 222.842 250.951 222.589 250.186 222.589C249.04 222.589 248.143 223.154 247.498 224.286C246.852 225.412 246.529 227.005 246.529 229.066C246.529 230.44 246.674 231.607 246.963 232.568C247.252 233.529 247.668 234.26 248.21 234.761C248.758 235.262 249.417 235.512 250.186 235.512ZM263.789 221.132V237H261.868V223.147H261.775L257.901 225.719V223.767L261.868 221.132H263.789ZM272.999 237.217C271.935 237.217 270.995 237.028 270.179 236.651C269.368 236.269 268.735 235.745 268.28 235.079C267.826 234.407 267.601 233.643 267.606 232.785C267.601 232.114 267.733 231.494 268.002 230.926C268.27 230.352 268.637 229.874 269.102 229.492C269.572 229.105 270.096 228.86 270.675 228.756V228.663C269.915 228.467 269.311 228.041 268.862 227.385C268.412 226.724 268.19 225.972 268.195 225.13C268.19 224.324 268.394 223.604 268.807 222.968C269.221 222.333 269.789 221.832 270.512 221.465C271.24 221.099 272.069 220.915 272.999 220.915C273.918 220.915 274.74 221.099 275.463 221.465C276.186 221.832 276.754 222.333 277.167 222.968C277.586 223.604 277.797 224.324 277.803 225.13C277.797 225.972 277.568 226.724 277.113 227.385C276.664 228.041 276.067 228.467 275.323 228.663V228.756C275.897 228.86 276.413 229.105 276.873 229.492C277.333 229.874 277.699 230.352 277.973 230.926C278.247 231.494 278.386 232.114 278.391 232.785C278.386 233.643 278.154 234.407 277.694 235.079C277.24 235.745 276.607 236.269 275.796 236.651C274.99 237.028 274.058 237.217 272.999 237.217ZM272.999 235.512C273.717 235.512 274.337 235.396 274.858 235.164C275.38 234.931 275.783 234.603 276.067 234.18C276.351 233.756 276.496 233.26 276.501 232.692C276.496 232.093 276.341 231.564 276.036 231.104C275.731 230.644 275.316 230.283 274.789 230.019C274.267 229.756 273.67 229.624 272.999 229.624C272.322 229.624 271.718 229.756 271.186 230.019C270.659 230.283 270.243 230.644 269.938 231.104C269.639 231.564 269.492 232.093 269.497 232.692C269.492 233.26 269.629 233.756 269.908 234.18C270.192 234.603 270.597 234.931 271.124 235.164C271.651 235.396 272.276 235.512 272.999 235.512ZM272.999 227.981C273.567 227.981 274.071 227.868 274.51 227.64C274.954 227.413 275.303 227.096 275.556 226.687C275.809 226.279 275.938 225.802 275.943 225.254C275.938 224.717 275.811 224.249 275.563 223.852C275.316 223.449 274.972 223.139 274.533 222.922C274.094 222.7 273.583 222.589 272.999 222.589C272.405 222.589 271.886 222.7 271.442 222.922C270.997 223.139 270.654 223.449 270.411 223.852C270.168 224.249 270.05 224.717 270.055 225.254C270.05 225.802 270.171 226.279 270.419 226.687C270.672 227.096 271.021 227.413 271.465 227.64C271.909 227.868 272.42 227.981 272.999 227.981Z" fill="white"/>
<path d="M462.293 73.6038C464.664 77.1463 466.939 81.5164 465.82 86.1997C461.959 83.9897 458.853 80.3814 456.39 76.8193C453.911 73.2333 451.336 69.42 450.453 65C455.324 66.2457 459.684 69.7037 462.293 73.6038Z" fill="white"/>
<path d="M469.211 95.1908C467.835 91.4902 464.825 88.2635 461.549 86.7585C458.507 85.3629 454.467 83.9064 450.917 85.6948C452.849 89.0871 456.03 91.9415 459.279 93.7369C462.201 95.3511 465.9 97.3068 469.562 96.4662C473.553 95.8549 475.482 91.8818 476.555 88.8763C478.04 84.723 477.025 79.1764 474.49 75.1016C470.996 76.5581 469.929 80.8794 469.199 83.9369C468.366 87.4172 468.343 91.4796 469.211 95.1908Z" fill="white"/>
<path d="M466.342 100.538C469.156 102.545 471.316 106.215 471.78 109.982C471.821 106.207 472.847 102.31 474.497 99.1713C476.005 96.2995 478.11 92.4182 481.855 91.6445C483.326 96.1159 482.85 101.585 480.471 105.204C478.672 107.946 475.886 111.38 471.832 111.288C468.132 111.477 464.937 108.95 462.423 106.841C459.718 104.573 457.279 101.257 456.252 97.6733C460.029 96.5764 463.645 98.6157 466.342 100.538Z" fill="white"/>
<path d="M470.829 124.805C471.241 121.114 470.007 117.123 467.706 114.657C465.491 112.28 462.385 109.689 458.519 110.101C458.596 113.841 460.468 117.406 462.4 120.076C464.199 122.563 466.97 125.639 470.598 126.082C474.37 126.721 478.052 124.412 480.445 121.695C483.522 118.199 485.356 113.507 484.99 108.809C481.114 108.904 478.179 112.25 476.008 114.78C473.666 117.508 471.749 121.1 470.829 124.805Z" fill="white"/>
<path d="M465.338 128.165C467.172 131.811 467.52 136.148 466.105 139.966C468.192 136.037 471.246 132.86 474.479 129.924C477.417 127.256 481.65 124.446 485.909 124.978C485.096 130.245 481.875 135.707 477.555 138.514C474.084 140.769 469.876 143.002 465.456 141.316C461.82 140.033 459.51 136.371 458.091 133.01C456.589 129.454 455.588 125.355 456.289 121.465C460.277 121.822 463.584 124.679 465.338 128.165Z" fill="white"/>
<path d="M457.63 154.02C459.937 150.507 460.742 146.111 459.799 141.984C458.905 138.075 456.186 134.505 452.221 133.395C450.568 137.161 450.54 141.542 451.139 145.515C451.699 149.191 453.066 153.48 456.463 155.531C460.658 158.192 465.557 156.618 469.58 155.026C474.771 152.973 479.456 148.005 481.648 142.666C477.112 141.228 472.475 143.6 468.695 145.567C464.785 147.602 460.701 150.504 457.63 154.02Z" fill="white"/>
<path d="M440.282 156.912C439.777 160.745 439.786 165.608 442.762 168.562C446.476 172.372 452.234 171.641 456.675 170.807C462.638 169.686 469.352 165.625 472.953 160.214C468.564 157.793 463.189 159.335 458.841 160.584L458.59 160.656C453.737 162.048 448.564 164.293 444.235 167.361C447.69 164.244 450.207 159.67 450.334 155.056C450.449 150.929 448.662 146.512 444.809 144.541C442.113 148.072 440.85 152.607 440.282 156.912Z" fill="white"/>
<path d="M436.952 184.994C432.188 184.893 425.651 184.325 422.987 179.403L422.949 179.336C420.821 175.176 422.984 170.313 424.708 166.715C426.758 162.437 429.558 158.078 433.561 154.949C437.402 158.263 437.03 163 435.885 167.116C434.521 172.011 429.809 176.181 424.93 178.555C430.579 176.453 436.747 175.194 442.615 174.825L443.212 174.787C447.927 174.484 454.063 174.089 457.815 177.541C452.131 182.364 444.063 185.144 436.952 184.994Z" fill="white"/>
</svg>
