<svg width="598" height="250" viewBox="0 0 598 250" fill="none" xmlns="http://www.w3.org/2000/svg">
<path d="M44.1277 86.1862C43.0118 81.5024 45.2914 77.1344 47.6659 73.5942C50.2797 69.6967 54.6408 66.2422 59.5114 65C58.6265 69.4188 56.0476 73.2303 53.5653 76.8138C51.0997 80.3739 47.99 83.9796 44.1277 86.1862Z" fill="white"/>
<path d="M40.7293 95.171C41.6004 91.4619 41.5811 87.4012 40.7518 83.9221C40.0226 80.8646 38.9615 76.5424 35.4692 75.084C32.9307 79.1559 31.9102 84.7009 33.3897 88.8559C34.4594 91.8612 36.3832 95.8348 40.373 96.4498C44.034 97.2938 47.736 95.3409 50.6597 93.7285C53.9107 91.9359 57.0951 89.0839 59.0299 85.6934C55.4807 83.9019 51.4388 85.3557 48.398 86.749C45.1202 88.2509 42.109 91.4734 40.7293 95.171Z" fill="white"/>
<path d="M29.4561 105.181C31.2565 107.927 34.0424 111.368 38.1045 111.27C41.7984 111.454 44.9898 108.933 47.5029 106.829C50.2095 104.563 52.6526 101.25 53.684 97.667C49.9059 96.5678 46.2887 98.6041 43.5913 100.525C40.7746 102.531 38.6083 106.202 38.1429 109.971C38.108 106.195 37.0858 102.294 35.438 99.1525C33.9314 96.2801 31.832 92.3973 28.0865 91.6211C26.6108 96.0906 27.0817 101.559 29.4561 105.181Z" fill="white"/>
<path d="M39.3056 126.063C35.5356 126.695 31.8582 124.385 29.4699 121.668C26.395 118.17 24.5655 113.477 24.9386 108.779C28.8116 108.878 31.7448 112.226 33.9129 114.757C36.2478 117.484 38.1609 121.071 39.0787 124.771C38.675 121.084 39.9132 117.101 42.2115 114.641C44.43 112.265 47.5377 109.677 51.4043 110.092C51.321 113.832 49.4465 117.394 47.5132 120.063C45.7111 122.549 42.9349 125.625 39.3056 126.063Z" fill="white"/>
<path d="M32.3419 138.487C35.8141 140.748 40.0252 142.985 44.4509 141.292C48.0817 140.007 50.3901 136.353 51.8099 132.998C53.3139 129.444 54.3184 125.345 53.623 121.455C49.6332 121.809 46.3249 124.664 44.5677 128.148C42.7307 131.791 42.3784 136.127 43.7895 139.946C41.7045 136.017 38.6554 132.838 35.4254 129.9C32.4892 127.23 28.2599 124.417 24 124.946C24.8105 130.213 28.0243 135.676 32.3419 138.487Z" fill="white"/>
<path d="M53.3943 155.53C56.8111 153.488 58.1862 149.19 58.7482 145.507C59.354 141.535 59.328 137.155 57.6784 133.387C53.7144 134.494 50.9933 138.062 50.0949 141.97C49.1456 146.098 49.9466 150.499 52.2557 154.014C49.1863 150.493 45.1049 147.585 41.1936 145.546C37.4155 143.577 32.7804 141.202 28.2432 142.636C30.4311 147.976 35.1114 152.947 40.2986 155.004C44.3157 156.596 49.2027 158.171 53.3943 155.53Z" fill="white"/>
<path d="M69.5932 156.912C70.0946 160.746 70.0804 165.608 67.1039 168.559C63.3844 172.367 57.628 171.632 53.1882 170.794C47.2276 169.669 40.518 165.604 36.9219 160.191C41.3138 157.772 46.6853 159.319 51.0334 160.572L51.2817 160.643C56.1353 162.039 61.3075 164.288 65.6331 167.361C62.1811 164.242 59.666 159.664 59.5428 155.049C59.4321 150.922 61.2236 146.506 65.0786 144.539C67.77 148.071 69.0303 152.607 69.5932 156.912Z" fill="white"/>
<path d="M86.8678 179.416C89.0598 175.243 86.888 170.346 85.1574 166.727C83.1114 162.448 80.3159 158.087 76.3152 154.955C72.4737 158.266 72.839 163.003 73.9811 167.12C75.3392 172.015 80.0475 176.188 84.923 178.566C79.2765 176.46 73.1098 175.196 67.2427 174.823L66.6484 174.785C61.935 174.478 55.7989 174.078 52.043 177.527C57.7218 182.355 65.788 185.14 72.8973 184.996C77.6615 184.899 84.1981 184.335 86.8678 179.416Z" fill="white"/>
<path d="M228.923 64V48.1322H238.437V49.8368H230.844V55.1983H237.724V56.9029H230.844V64H228.923ZM245.16 64.2479C244.013 64.2479 243.024 63.9948 242.192 63.4886C241.366 62.9773 240.728 62.2645 240.279 61.3502C239.834 60.4308 239.612 59.3616 239.612 58.1426C239.612 56.9236 239.834 55.8492 240.279 54.9194C240.728 53.9845 241.353 53.2562 242.154 52.7345C242.959 52.2076 243.9 51.9442 244.974 51.9442C245.594 51.9442 246.206 52.0475 246.81 52.2541C247.415 52.4607 247.965 52.7965 248.46 53.2614C248.956 53.7211 249.351 54.3306 249.646 55.0899C249.94 55.8492 250.088 56.7841 250.088 57.8946V58.6694H240.914V57.0888H248.228C248.228 56.4174 248.094 55.8182 247.825 55.2913C247.562 54.7645 247.185 54.3487 246.694 54.0439C246.208 53.7392 245.635 53.5868 244.974 53.5868C244.246 53.5868 243.615 53.7676 243.083 54.1291C242.557 54.4855 242.151 54.9504 241.867 55.5238C241.583 56.0971 241.441 56.7118 241.441 57.3678V58.4215C241.441 59.3202 241.596 60.0821 241.906 60.7071C242.221 61.327 242.657 61.7996 243.215 62.125C243.773 62.4452 244.421 62.6054 245.16 62.6054C245.64 62.6054 246.074 62.5382 246.462 62.4039C246.854 62.2645 247.192 62.0579 247.476 61.7841C247.761 61.5052 247.98 61.1591 248.135 60.7459L249.902 61.2417C249.716 61.8409 249.403 62.3678 248.964 62.8223C248.525 63.2717 247.983 63.6229 247.337 63.876C246.691 64.124 245.966 64.2479 245.16 64.2479ZM252.681 64V48.1322H254.509V53.9897H254.664C254.798 53.7831 254.984 53.5196 255.222 53.1994C255.465 52.874 255.811 52.5847 256.26 52.3316C256.715 52.0733 257.329 51.9442 258.104 51.9442C259.106 51.9442 259.99 52.1947 260.754 52.6958C261.518 53.1968 262.115 53.907 262.544 54.8264C262.972 55.7459 263.187 56.8306 263.187 58.0806C263.187 59.3409 262.972 60.4334 262.544 61.358C262.115 62.2774 261.521 62.9902 260.762 63.4964C260.002 63.9974 259.127 64.2479 258.135 64.2479C257.371 64.2479 256.759 64.1214 256.299 63.8683C255.839 63.61 255.485 63.3182 255.237 62.9928C254.99 62.6622 254.798 62.3884 254.664 62.1715H254.447V64H252.681ZM254.478 58.0496C254.478 58.9483 254.61 59.7412 254.873 60.4282C255.137 61.11 255.522 61.6446 256.028 62.032C256.534 62.4143 257.154 62.6054 257.887 62.6054C258.652 62.6054 259.29 62.4039 259.801 62.001C260.317 61.593 260.705 61.0455 260.963 60.3585C261.227 59.6663 261.358 58.8967 261.358 58.0496C261.358 57.2128 261.229 56.4587 260.971 55.7872C260.718 55.1105 260.333 54.5759 259.816 54.1834C259.305 53.7856 258.662 53.5868 257.887 53.5868C257.143 53.5868 256.518 53.7753 256.012 54.1524C255.506 54.5243 255.124 55.046 254.866 55.7175C254.607 56.3838 254.478 57.1612 254.478 58.0496ZM265.547 64V52.0992H267.314V53.8967H267.438C267.655 53.3079 268.047 52.8301 268.616 52.4633C269.184 52.0966 269.824 51.9132 270.537 51.9132C270.671 51.9132 270.839 51.9158 271.041 51.921C271.242 51.9261 271.395 51.9339 271.498 51.9442V53.8037C271.436 53.7882 271.294 53.765 271.072 53.734C270.855 53.6978 270.625 53.6798 270.382 53.6798C269.804 53.6798 269.287 53.8011 268.833 54.0439C268.383 54.2815 268.027 54.6121 267.763 55.0356C267.505 55.454 267.376 55.9318 267.376 56.469V64H265.547ZM280.729 59.1343V52.0992H282.558V64H280.729V61.9855H280.605C280.326 62.5899 279.892 63.1038 279.303 63.5274C278.715 63.9458 277.971 64.155 277.072 64.155C276.328 64.155 275.667 63.9923 275.088 63.6668C274.51 63.3363 274.055 62.8404 273.725 62.1792C273.394 61.5129 273.229 60.6736 273.229 59.6612V52.0992H275.058V59.5372C275.058 60.405 275.3 61.0971 275.786 61.6136C276.277 62.1302 276.902 62.3884 277.661 62.3884C278.115 62.3884 278.578 62.2722 279.048 62.0398C279.523 61.8073 279.921 61.4509 280.241 60.9706C280.566 60.4902 280.729 59.8781 280.729 59.1343ZM288.972 64.2789C288.218 64.2789 287.534 64.1369 286.919 63.8528C286.304 63.5635 285.816 63.1477 285.455 62.6054C285.093 62.0579 284.912 61.3967 284.912 60.6219C284.912 59.9401 285.047 59.3874 285.315 58.9638C285.584 58.5351 285.943 58.1994 286.392 57.9566C286.842 57.7138 287.337 57.5331 287.88 57.4143C288.427 57.2903 288.977 57.1921 289.53 57.1198C290.253 57.0269 290.84 56.9571 291.289 56.9106C291.743 56.859 292.074 56.7738 292.281 56.655C292.492 56.5362 292.598 56.3295 292.598 56.0351V55.9731C292.598 55.2087 292.389 54.6147 291.971 54.1911C291.557 53.7676 290.93 53.5558 290.088 53.5558C289.215 53.5558 288.531 53.7469 288.035 54.1291C287.539 54.5114 287.19 54.9194 286.989 55.3533L285.253 54.7335C285.563 54.0103 285.976 53.4473 286.493 53.0444C287.015 52.6364 287.583 52.3523 288.197 52.1921C288.817 52.0269 289.427 51.9442 290.026 51.9442C290.408 51.9442 290.847 51.9907 291.343 52.0837C291.844 52.1715 292.327 52.3549 292.792 52.6338C293.262 52.9127 293.652 53.3337 293.962 53.8967C294.272 54.4597 294.427 55.2138 294.427 56.1591V64H292.598V62.3884H292.505C292.381 62.6467 292.175 62.923 291.885 63.2175C291.596 63.5119 291.211 63.7624 290.731 63.969C290.251 64.1756 289.664 64.2789 288.972 64.2789ZM289.251 62.6364C289.974 62.6364 290.584 62.4943 291.08 62.2102C291.581 61.9261 291.958 61.5594 292.211 61.11C292.469 60.6606 292.598 60.188 292.598 59.6921V58.0186C292.521 58.1116 292.35 58.1968 292.087 58.2743C291.829 58.3466 291.529 58.4112 291.188 58.468C290.852 58.5196 290.524 58.5661 290.204 58.6074C289.889 58.6436 289.633 58.6746 289.437 58.7004C288.962 58.7624 288.518 58.8631 288.104 59.0026C287.696 59.1369 287.366 59.3409 287.113 59.6147C286.865 59.8833 286.741 60.25 286.741 60.7149C286.741 61.3502 286.976 61.8306 287.446 62.156C287.921 62.4762 288.523 62.6364 289.251 62.6364ZM297.328 64V52.0992H299.094V53.8967H299.218C299.435 53.3079 299.828 52.8301 300.396 52.4633C300.964 52.0966 301.605 51.9132 302.318 51.9132C302.452 51.9132 302.62 51.9158 302.821 51.921C303.023 51.9261 303.175 51.9339 303.278 51.9442V53.8037C303.216 53.7882 303.074 53.765 302.852 53.734C302.635 53.6978 302.405 53.6798 302.163 53.6798C301.584 53.6798 301.068 53.8011 300.613 54.0439C300.164 54.2815 299.807 54.6121 299.544 55.0356C299.285 55.454 299.156 55.9318 299.156 56.469V64H297.328ZM306.549 68.4628C306.239 68.4628 305.963 68.437 305.72 68.3853C305.477 68.3388 305.31 68.2924 305.217 68.2459L305.682 66.6343C306.126 66.7479 306.518 66.7893 306.859 66.7583C307.2 66.7273 307.502 66.5749 307.766 66.3011C308.034 66.0325 308.28 65.5961 308.502 64.9917L308.843 64.062L304.442 52.0992H306.425L309.71 61.5826H309.834L313.12 52.0992H315.103L310.051 65.7355C309.824 66.3502 309.543 66.859 309.207 67.2619C308.871 67.6699 308.481 67.9721 308.037 68.1684C307.598 68.3647 307.102 68.4628 306.549 68.4628ZM322.749 64V62.6054L327.987 56.8719C328.601 56.2004 329.108 55.6167 329.505 55.1209C329.903 54.6198 330.197 54.1498 330.389 53.7107C330.585 53.2665 330.683 52.8017 330.683 52.3161C330.683 51.7583 330.549 51.2753 330.28 50.8673C330.017 50.4592 329.655 50.1441 329.195 49.922C328.736 49.6999 328.219 49.5888 327.646 49.5888C327.036 49.5888 326.504 49.7154 326.05 49.9685C325.6 50.2164 325.252 50.5651 325.004 51.0145C324.761 51.4638 324.64 51.9907 324.64 52.595H322.811C322.811 51.6653 323.025 50.8492 323.454 50.1467C323.883 49.4442 324.467 48.8967 325.205 48.5041C325.949 48.1116 326.783 47.9153 327.708 47.9153C328.638 47.9153 329.461 48.1116 330.179 48.5041C330.897 48.8967 331.46 49.4261 331.868 50.0925C332.277 50.7588 332.481 51.5 332.481 52.3161C332.481 52.8998 332.375 53.4706 332.163 54.0284C331.956 54.5811 331.595 55.1983 331.078 55.8802C330.567 56.5568 329.857 57.3833 328.947 58.3595L325.383 62.1715V62.2955H332.759V64H322.749ZM340.699 64.2169C339.531 64.2169 338.537 63.8993 337.716 63.2639C336.894 62.6235 336.267 61.6963 335.833 60.4824C335.399 59.2634 335.182 57.7913 335.182 56.0661C335.182 54.3512 335.399 52.8869 335.833 51.673C336.272 50.454 336.902 49.5243 337.723 48.8838C338.55 48.2381 339.542 47.9153 340.699 47.9153C341.856 47.9153 342.845 48.2381 343.666 48.8838C344.493 49.5243 345.123 50.454 345.557 51.673C345.996 52.8869 346.215 54.3512 346.215 56.0661C346.215 57.7913 345.998 59.2634 345.564 60.4824C345.13 61.6963 344.503 62.6235 343.682 63.2639C342.86 63.8993 341.866 64.2169 340.699 64.2169ZM340.699 62.5124C341.856 62.5124 342.754 61.9545 343.395 60.8388C344.035 59.7231 344.356 58.1322 344.356 56.0661C344.356 54.6921 344.208 53.5222 343.914 52.5563C343.625 51.5904 343.206 50.8543 342.659 50.3481C342.116 49.8419 341.463 49.5888 340.699 49.5888C339.552 49.5888 338.656 50.1544 338.01 51.2856C337.364 52.4117 337.042 54.0052 337.042 56.0661C337.042 57.4401 337.186 58.6074 337.475 59.5682C337.765 60.5289 338.181 61.2598 338.723 61.7608C339.27 62.2619 339.929 62.5124 340.699 62.5124ZM354.302 48.1322V64H352.38V50.1467H352.287L348.413 52.719V50.7665L352.38 48.1322H354.302ZM363.48 47.9153C364.131 47.9205 364.782 48.0444 365.433 48.2872C366.084 48.53 366.678 48.9329 367.215 49.4959C367.752 50.0537 368.183 50.8156 368.509 51.7815C368.834 52.7474 368.997 53.9587 368.997 55.4153C368.997 56.8254 368.863 58.078 368.594 59.173C368.331 60.2629 367.948 61.1823 367.447 61.9313C366.951 62.6803 366.347 63.2485 365.634 63.6358C364.927 64.0232 364.126 64.2169 363.232 64.2169C362.344 64.2169 361.551 64.0413 360.854 63.6901C360.162 63.3337 359.593 62.8404 359.149 62.2102C358.71 61.5749 358.429 60.8388 358.305 60.0021H360.195C360.366 60.7304 360.704 61.3321 361.21 61.8073C361.722 62.2774 362.396 62.5124 363.232 62.5124C364.457 62.5124 365.422 61.9778 366.13 60.9086C366.843 59.8394 367.199 58.3285 367.199 56.376H367.075C366.786 56.8099 366.443 57.1844 366.045 57.4995C365.647 57.8146 365.206 58.0573 364.72 58.2278C364.234 58.3982 363.718 58.4835 363.17 58.4835C362.261 58.4835 361.427 58.2588 360.668 57.8094C359.914 57.3549 359.309 56.7324 358.855 55.9421C358.405 55.1467 358.181 54.2376 358.181 53.2149C358.181 52.2438 358.398 51.3554 358.832 50.5496C359.271 49.7386 359.885 49.093 360.676 48.6126C361.471 48.1322 362.406 47.8998 363.48 47.9153ZM363.48 49.6198C362.83 49.6198 362.243 49.7825 361.722 50.108C361.205 50.4282 360.794 50.8621 360.49 51.4096C360.19 51.952 360.04 52.5537 360.04 53.2149C360.04 53.876 360.185 54.4778 360.474 55.0201C360.769 55.5573 361.169 55.9861 361.675 56.3063C362.186 56.6214 362.768 56.7789 363.418 56.7789C363.909 56.7789 364.366 56.6834 364.79 56.4923C365.213 56.296 365.583 56.03 365.898 55.6942C366.218 55.3533 366.468 54.9685 366.649 54.5398C366.83 54.1059 366.92 53.6539 366.92 53.1839C366.92 52.564 366.771 51.983 366.471 51.4406C366.177 50.8982 365.769 50.4592 365.247 50.1234C364.73 49.7877 364.141 49.6198 363.48 49.6198Z" fill="white"/>
<path d="M127.52 94.5527C127.52 97.666 126.937 100.333 125.771 102.552C124.614 104.763 123.034 106.456 121.03 107.631C119.036 108.807 116.774 109.395 114.244 109.395C111.714 109.395 109.447 108.807 107.444 107.631C105.45 106.446 103.869 104.749 102.703 102.538C101.546 100.318 100.968 97.6566 100.968 94.5527C100.968 91.4394 101.546 88.7776 102.703 86.5672C103.869 84.3475 105.45 82.6497 107.444 81.474C109.447 80.2983 111.714 79.7104 114.244 79.7104C116.774 79.7104 119.036 80.2983 121.03 81.474C123.034 82.6497 124.614 84.3475 125.771 86.5672C126.937 88.7776 127.52 91.4394 127.52 94.5527ZM122.258 94.5527C122.258 92.3612 121.914 90.5129 121.228 89.008C120.551 87.4937 119.61 86.3509 118.406 85.5796C117.202 84.7989 115.815 84.4086 114.244 84.4086C112.673 84.4086 111.286 84.7989 110.082 85.5796C108.878 86.3509 107.933 87.4937 107.246 89.008C106.569 90.5129 106.23 92.3612 106.23 94.5527C106.23 96.7443 106.569 98.5972 107.246 100.112C107.933 101.616 108.878 102.759 110.082 103.54C111.286 104.311 112.673 104.697 114.244 104.697C115.815 104.697 117.202 104.311 118.406 103.54C119.61 102.759 120.551 101.616 121.228 100.112C121.914 98.5972 122.258 96.7443 122.258 94.5527ZM131.674 109V80.1055H150.185V84.4933H136.909V92.3377H148.915V96.7255H136.909V109H131.674ZM154.159 109V80.1055H172.67V84.4933H159.393V92.3377H171.4V96.7255H159.393V109H154.159ZM181.878 80.1055V109H176.644V80.1055H181.878ZM211.484 89.8545H206.207C206.057 88.9892 205.779 88.2226 205.375 87.5548C204.971 86.8776 204.467 86.3039 203.865 85.8336C203.263 85.3633 202.577 85.0106 201.806 84.7754C201.044 84.5309 200.221 84.4086 199.337 84.4086C197.766 84.4086 196.374 84.8036 195.16 85.5937C193.947 86.3744 192.997 87.5219 192.31 89.0362C191.624 90.5412 191.28 92.38 191.28 94.5527C191.28 96.7631 191.624 98.6254 192.31 100.14C193.006 101.645 193.956 102.783 195.16 103.554C196.374 104.316 197.761 104.697 199.322 104.697C200.188 104.697 200.997 104.584 201.749 104.358C202.511 104.123 203.193 103.78 203.795 103.328C204.406 102.877 204.919 102.322 205.333 101.663C205.756 101.005 206.048 100.253 206.207 99.4061L211.484 99.4343C211.287 100.808 210.859 102.096 210.2 103.3C209.551 104.504 208.7 105.567 207.647 106.489C206.593 107.401 205.361 108.116 203.95 108.633C202.539 109.141 200.973 109.395 199.252 109.395C196.712 109.395 194.446 108.807 192.452 107.631C190.457 106.456 188.887 104.758 187.739 102.538C186.592 100.318 186.018 97.6566 186.018 94.5527C186.018 91.4394 186.596 88.7776 187.753 86.5672C188.91 84.3475 190.486 82.6497 192.48 81.474C194.474 80.2983 196.731 79.7104 199.252 79.7104C200.86 79.7104 202.356 79.9361 203.738 80.3876C205.121 80.8391 206.353 81.5022 207.435 82.3769C208.517 83.2423 209.405 84.3051 210.101 85.5655C210.807 86.8165 211.268 88.2462 211.484 89.8545ZM220.717 80.1055V109H215.483V80.1055H220.717ZM229.301 109H223.714L233.887 80.1055H240.348L250.535 109H244.948L237.23 86.0311H237.005L229.301 109ZM229.485 97.6707H244.722V101.875H229.485V97.6707ZM253.546 109V80.1055H258.78V104.612H271.506V109H253.546ZM300.018 88.0486C299.886 86.8165 299.331 85.8571 298.353 85.1705C297.384 84.4838 296.124 84.1405 294.572 84.1405C293.481 84.1405 292.545 84.3051 291.765 84.6343C290.984 84.9635 290.387 85.4103 289.973 85.9747C289.559 86.539 289.347 87.1833 289.338 87.9075C289.338 88.5095 289.474 89.0315 289.747 89.4736C290.029 89.9157 290.41 90.2919 290.89 90.6023C291.369 90.9033 291.901 91.1572 292.484 91.3642C293.067 91.5711 293.655 91.7451 294.248 91.8862L296.956 92.5634C298.048 92.8174 299.096 93.1607 300.103 93.5933C301.119 94.026 302.026 94.5715 302.826 95.2299C303.635 95.8883 304.274 96.6831 304.744 97.6143C305.215 98.5455 305.45 99.6365 305.45 100.888C305.45 102.581 305.017 104.071 304.152 105.36C303.287 106.639 302.036 107.641 300.399 108.365C298.772 109.08 296.801 109.437 294.487 109.437C292.239 109.437 290.288 109.089 288.632 108.393C286.986 107.697 285.698 106.681 284.767 105.346C283.845 104.01 283.346 102.383 283.271 100.464H288.421C288.496 101.471 288.806 102.308 289.352 102.976C289.897 103.643 290.608 104.142 291.482 104.471C292.366 104.8 293.354 104.965 294.445 104.965C295.583 104.965 296.58 104.796 297.436 104.457C298.302 104.109 298.979 103.629 299.468 103.018C299.957 102.397 300.206 101.673 300.216 100.845C300.206 100.093 299.985 99.4719 299.552 98.9828C299.12 98.4843 298.513 98.0705 297.732 97.7413C296.961 97.4027 296.058 97.1017 295.024 96.8383L291.736 95.9918C289.357 95.3804 287.475 94.454 286.093 93.2124C284.72 91.9614 284.033 90.3013 284.033 88.232C284.033 86.5296 284.494 85.0388 285.416 83.7596C286.347 82.4804 287.612 81.4881 289.211 80.7827C290.81 80.0678 292.62 79.7104 294.643 79.7104C296.693 79.7104 298.49 80.0678 300.032 80.7827C301.584 81.4881 302.802 82.471 303.686 83.7314C304.57 84.9823 305.027 86.4214 305.055 88.0486H300.018ZM309.322 109V80.1055H328.114V84.4933H314.556V92.3377H327.141V96.7255H314.556V104.612H328.227V109H309.322ZM332.66 109V80.1055H337.894V104.612H350.62V109H332.66ZM354.369 109V80.1055H373.161V84.4933H359.603V92.3377H372.188V96.7255H359.603V104.612H373.274V109H354.369ZM402.439 89.8545H397.163C397.012 88.9892 396.735 88.2226 396.33 87.5548C395.926 86.8776 395.423 86.3039 394.821 85.8336C394.219 85.3633 393.532 85.0106 392.761 84.7754C391.999 84.5309 391.176 84.4086 390.292 84.4086C388.721 84.4086 387.329 84.8036 386.116 85.5937C384.902 86.3744 383.952 87.5219 383.266 89.0362C382.579 90.5412 382.236 92.38 382.236 94.5527C382.236 96.7631 382.579 98.6254 383.266 100.14C383.962 101.645 384.912 102.783 386.116 103.554C387.329 104.316 388.716 104.697 390.278 104.697C391.143 104.697 391.952 104.584 392.705 104.358C393.466 104.123 394.148 103.78 394.75 103.328C395.362 102.877 395.874 102.322 396.288 101.663C396.711 101.005 397.003 100.253 397.163 99.4061L402.439 99.4343C402.242 100.808 401.814 102.096 401.156 103.3C400.507 104.504 399.655 105.567 398.602 106.489C397.548 107.401 396.316 108.116 394.905 108.633C393.495 109.141 391.929 109.395 390.207 109.395C387.668 109.395 385.401 108.807 383.407 107.631C381.413 106.456 379.842 104.758 378.695 102.538C377.547 100.318 376.973 97.6566 376.973 94.5527C376.973 91.4394 377.552 88.7776 378.709 86.5672C379.866 84.3475 381.441 82.6497 383.435 81.474C385.429 80.2983 387.687 79.7104 390.207 79.7104C391.816 79.7104 393.311 79.9361 394.694 80.3876C396.076 80.8391 397.309 81.5022 398.39 82.3769C399.472 83.2423 400.361 84.3051 401.057 85.5655C401.762 86.8165 402.223 88.2462 402.439 89.8545ZM405.169 84.4933V80.1055H428.222V84.4933H419.291V109H414.099V84.4933H405.169ZM437.106 80.1055V109H431.872V80.1055H437.106ZM467.798 94.5527C467.798 97.666 467.215 100.333 466.049 102.552C464.892 104.763 463.312 106.456 461.308 107.631C459.314 108.807 457.052 109.395 454.522 109.395C451.992 109.395 449.725 108.807 447.722 107.631C445.728 106.446 444.148 104.749 442.981 102.538C441.824 100.318 441.246 97.6566 441.246 94.5527C441.246 91.4394 441.824 88.7776 442.981 86.5672C444.148 84.3475 445.728 82.6497 447.722 81.474C449.725 80.2983 451.992 79.7104 454.522 79.7104C457.052 79.7104 459.314 80.2983 461.308 81.474C463.312 82.6497 464.892 84.3475 466.049 86.5672C467.215 88.7776 467.798 91.4394 467.798 94.5527ZM462.536 94.5527C462.536 92.3612 462.193 90.5129 461.506 89.008C460.829 87.4937 459.888 86.3509 458.684 85.5796C457.48 84.7989 456.093 84.4086 454.522 84.4086C452.951 84.4086 451.564 84.7989 450.36 85.5796C449.156 86.3509 448.211 87.4937 447.524 89.008C446.847 90.5129 446.508 92.3612 446.508 94.5527C446.508 96.7443 446.847 98.5972 447.524 100.112C448.211 101.616 449.156 102.759 450.36 103.54C451.564 104.311 452.951 104.697 454.522 104.697C456.093 104.697 457.48 104.311 458.684 103.54C459.888 102.759 460.829 101.616 461.506 100.112C462.193 98.5972 462.536 96.7443 462.536 94.5527ZM495.697 80.1055V109H491.042L477.427 89.3184H477.187V109H471.952V80.1055H476.637L490.237 99.8012H490.491V80.1055H495.697Z" fill="white"/>
<path d="M215.478 141V125.132H221.025C222.131 125.132 223.042 125.323 223.76 125.706C224.478 126.083 225.013 126.591 225.364 127.232C225.715 127.867 225.891 128.572 225.891 129.347C225.891 130.029 225.769 130.592 225.527 131.036C225.289 131.48 224.974 131.832 224.581 132.09C224.194 132.348 223.773 132.539 223.319 132.663V132.818C223.804 132.849 224.292 133.02 224.783 133.33C225.274 133.639 225.684 134.084 226.015 134.662C226.345 135.241 226.511 135.948 226.511 136.785C226.511 137.581 226.33 138.296 225.968 138.931C225.607 139.567 225.036 140.07 224.256 140.442C223.476 140.814 222.461 141 221.211 141H215.478ZM217.399 139.295H221.211C222.466 139.295 223.357 139.053 223.884 138.567C224.416 138.076 224.682 137.482 224.682 136.785C224.682 136.248 224.545 135.752 224.272 135.298C223.998 134.838 223.608 134.471 223.102 134.197C222.595 133.918 221.996 133.779 221.304 133.779H217.399V139.295ZM217.399 132.105H220.963C221.542 132.105 222.063 131.992 222.528 131.764C222.998 131.537 223.37 131.217 223.644 130.804C223.923 130.39 224.062 129.905 224.062 129.347C224.062 128.65 223.82 128.058 223.334 127.573C222.849 127.082 222.079 126.837 221.025 126.837H217.399V132.105ZM228.984 141V129.099H230.75V130.897H230.874C231.091 130.308 231.484 129.83 232.052 129.463C232.62 129.097 233.261 128.913 233.973 128.913C234.108 128.913 234.276 128.916 234.477 128.921C234.678 128.926 234.831 128.934 234.934 128.944V130.804C234.872 130.788 234.73 130.765 234.508 130.734C234.291 130.698 234.061 130.68 233.818 130.68C233.24 130.68 232.723 130.801 232.269 131.044C231.819 131.282 231.463 131.612 231.2 132.036C230.941 132.454 230.812 132.932 230.812 133.469V141H228.984ZM241.293 141.248C240.146 141.248 239.157 140.995 238.325 140.489C237.499 139.977 236.861 139.264 236.411 138.35C235.967 137.431 235.745 136.362 235.745 135.143C235.745 133.924 235.967 132.849 236.411 131.919C236.861 130.985 237.486 130.256 238.286 129.735C239.092 129.208 240.032 128.944 241.107 128.944C241.727 128.944 242.339 129.048 242.943 129.254C243.547 129.461 244.097 129.796 244.593 130.261C245.089 130.721 245.484 131.331 245.779 132.09C246.073 132.849 246.22 133.784 246.22 134.895V135.669H237.047V134.089H244.361C244.361 133.417 244.227 132.818 243.958 132.291C243.695 131.764 243.317 131.349 242.827 131.044C242.341 130.739 241.768 130.587 241.107 130.587C240.378 130.587 239.748 130.768 239.216 131.129C238.689 131.486 238.284 131.95 238 132.524C237.716 133.097 237.574 133.712 237.574 134.368V135.421C237.574 136.32 237.729 137.082 238.039 137.707C238.354 138.327 238.79 138.8 239.348 139.125C239.906 139.445 240.554 139.605 241.293 139.605C241.773 139.605 242.207 139.538 242.594 139.404C242.987 139.264 243.325 139.058 243.609 138.784C243.893 138.505 244.113 138.159 244.268 137.746L246.034 138.242C245.848 138.841 245.536 139.368 245.097 139.822C244.658 140.272 244.115 140.623 243.47 140.876C242.824 141.124 242.098 141.248 241.293 141.248ZM251.262 141L247.636 129.099H249.557L252.13 138.211H252.254L254.795 129.099H256.747L259.258 138.18H259.382L261.954 129.099H263.875L260.249 141H258.452L255.849 131.857H255.663L253.059 141H251.262ZM274.286 131.764L272.644 132.229C272.54 131.956 272.388 131.69 272.186 131.431C271.99 131.168 271.722 130.951 271.381 130.78C271.04 130.61 270.603 130.525 270.071 130.525C269.343 130.525 268.736 130.693 268.251 131.028C267.77 131.359 267.53 131.78 267.53 132.291C267.53 132.746 267.695 133.105 268.026 133.368C268.356 133.632 268.873 133.851 269.575 134.027L271.342 134.461C272.406 134.719 273.199 135.114 273.721 135.646C274.242 136.173 274.503 136.852 274.503 137.684C274.503 138.366 274.307 138.975 273.914 139.512C273.527 140.05 272.985 140.473 272.287 140.783C271.59 141.093 270.779 141.248 269.854 141.248C268.64 141.248 267.636 140.985 266.84 140.458C266.045 139.931 265.541 139.161 265.33 138.149L267.065 137.715C267.23 138.355 267.543 138.836 268.003 139.156C268.467 139.476 269.074 139.636 269.823 139.636C270.676 139.636 271.352 139.456 271.853 139.094C272.36 138.727 272.613 138.288 272.613 137.777C272.613 137.364 272.468 137.018 272.179 136.739C271.889 136.455 271.445 136.243 270.846 136.103L268.863 135.638C267.773 135.38 266.972 134.98 266.461 134.437C265.955 133.89 265.701 133.206 265.701 132.384C265.701 131.713 265.89 131.119 266.267 130.602C266.649 130.086 267.168 129.68 267.824 129.386C268.486 129.091 269.235 128.944 270.071 128.944C271.249 128.944 272.174 129.202 272.845 129.719C273.522 130.236 274.002 130.917 274.286 131.764ZM286.021 141.279C285.267 141.279 284.583 141.137 283.968 140.853C283.353 140.564 282.865 140.148 282.504 139.605C282.142 139.058 281.961 138.397 281.961 137.622C281.961 136.94 282.096 136.387 282.364 135.964C282.633 135.535 282.992 135.199 283.441 134.957C283.891 134.714 284.386 134.533 284.929 134.414C285.476 134.29 286.026 134.192 286.579 134.12C287.302 134.027 287.889 133.957 288.338 133.911C288.792 133.859 289.123 133.774 289.33 133.655C289.541 133.536 289.647 133.33 289.647 133.035V132.973C289.647 132.209 289.438 131.615 289.02 131.191C288.606 130.768 287.979 130.556 287.137 130.556C286.264 130.556 285.58 130.747 285.084 131.129C284.588 131.511 284.239 131.919 284.038 132.353L282.302 131.733C282.612 131.01 283.025 130.447 283.542 130.044C284.064 129.636 284.632 129.352 285.246 129.192C285.866 129.027 286.476 128.944 287.075 128.944C287.457 128.944 287.896 128.991 288.392 129.084C288.893 129.171 289.376 129.355 289.841 129.634C290.311 129.913 290.701 130.334 291.011 130.897C291.321 131.46 291.476 132.214 291.476 133.159V141H289.647V139.388H289.554C289.43 139.647 289.224 139.923 288.934 140.217C288.645 140.512 288.26 140.762 287.78 140.969C287.3 141.176 286.713 141.279 286.021 141.279ZM286.3 139.636C287.023 139.636 287.633 139.494 288.129 139.21C288.63 138.926 289.007 138.559 289.26 138.11C289.518 137.661 289.647 137.188 289.647 136.692V135.019C289.57 135.112 289.399 135.197 289.136 135.274C288.878 135.347 288.578 135.411 288.237 135.468C287.901 135.52 287.573 135.566 287.253 135.607C286.938 135.644 286.682 135.675 286.486 135.7C286.011 135.762 285.567 135.863 285.153 136.003C284.745 136.137 284.415 136.341 284.162 136.615C283.914 136.883 283.79 137.25 283.79 137.715C283.79 138.35 284.025 138.831 284.495 139.156C284.97 139.476 285.572 139.636 286.3 139.636ZM296.205 133.841V141H294.377V129.099H296.143V130.959H296.298C296.577 130.354 297.001 129.869 297.569 129.502C298.137 129.13 298.871 128.944 299.769 128.944C300.575 128.944 301.28 129.11 301.885 129.44C302.489 129.765 302.959 130.261 303.295 130.928C303.63 131.589 303.798 132.426 303.798 133.438V141H301.97V133.562C301.97 132.627 301.727 131.899 301.242 131.377C300.756 130.85 300.09 130.587 299.243 130.587C298.659 130.587 298.137 130.713 297.677 130.966C297.223 131.22 296.864 131.589 296.601 132.074C296.337 132.56 296.205 133.149 296.205 133.841ZM311.197 141.248C310.205 141.248 309.33 140.997 308.571 140.496C307.811 139.99 307.217 139.277 306.789 138.358C306.36 137.433 306.145 136.341 306.145 135.081C306.145 133.831 306.36 132.746 306.789 131.826C307.217 130.907 307.814 130.197 308.578 129.696C309.343 129.195 310.226 128.944 311.228 128.944C312.003 128.944 312.615 129.073 313.064 129.332C313.519 129.585 313.865 129.874 314.103 130.199C314.345 130.52 314.534 130.783 314.668 130.99H314.823V125.132H316.652V141H314.885V139.171H314.668C314.534 139.388 314.343 139.662 314.095 139.993C313.847 140.318 313.493 140.61 313.033 140.868C312.574 141.121 311.962 141.248 311.197 141.248ZM311.445 139.605C312.178 139.605 312.798 139.414 313.305 139.032C313.811 138.645 314.196 138.11 314.459 137.428C314.722 136.741 314.854 135.948 314.854 135.05C314.854 134.161 314.725 133.384 314.467 132.717C314.208 132.046 313.826 131.524 313.32 131.152C312.814 130.775 312.189 130.587 311.445 130.587C310.67 130.587 310.025 130.786 309.508 131.183C308.997 131.576 308.612 132.111 308.354 132.787C308.1 133.459 307.974 134.213 307.974 135.05C307.974 135.897 308.103 136.666 308.361 137.358C308.625 138.045 309.012 138.593 309.524 139.001C310.04 139.404 310.681 139.605 311.445 139.605ZM326.417 125.132L331.128 138.49H331.314L336.024 125.132H338.039L332.212 141H330.229L324.402 125.132H326.417ZM339.826 141V129.099H341.655V141H339.826ZM340.756 127.116C340.399 127.116 340.092 126.994 339.834 126.752C339.581 126.509 339.454 126.217 339.454 125.876C339.454 125.535 339.581 125.243 339.834 125.001C340.092 124.758 340.399 124.636 340.756 124.636C341.112 124.636 341.417 124.758 341.67 125.001C341.928 125.243 342.057 125.535 342.057 125.876C342.057 126.217 341.928 126.509 341.67 126.752C341.417 126.994 341.112 127.116 340.756 127.116ZM349.557 141.248C348.41 141.248 347.421 140.995 346.589 140.489C345.763 139.977 345.125 139.264 344.676 138.35C344.231 137.431 344.009 136.362 344.009 135.143C344.009 133.924 344.231 132.849 344.676 131.919C345.125 130.985 345.75 130.256 346.551 129.735C347.356 129.208 348.297 128.944 349.371 128.944C349.991 128.944 350.603 129.048 351.207 129.254C351.812 129.461 352.362 129.796 352.857 130.261C353.353 130.721 353.749 131.331 354.043 132.09C354.337 132.849 354.485 133.784 354.485 134.895V135.669H345.311V134.089H352.625C352.625 133.417 352.491 132.818 352.222 132.291C351.959 131.764 351.582 131.349 351.091 131.044C350.605 130.739 350.032 130.587 349.371 130.587C348.643 130.587 348.012 130.768 347.48 131.129C346.954 131.486 346.548 131.95 346.264 132.524C345.98 133.097 345.838 133.712 345.838 134.368V135.421C345.838 136.32 345.993 137.082 346.303 137.707C346.618 138.327 347.054 138.8 347.612 139.125C348.17 139.445 348.818 139.605 349.557 139.605C350.037 139.605 350.471 139.538 350.859 139.404C351.251 139.264 351.589 139.058 351.874 138.784C352.158 138.505 352.377 138.159 352.532 137.746L354.299 138.242C354.113 138.841 353.8 139.368 353.361 139.822C352.922 140.272 352.38 140.623 351.734 140.876C351.088 141.124 350.363 141.248 349.557 141.248ZM359.526 141L355.9 129.099H357.821L360.394 138.211H360.518L363.059 129.099H365.012L367.522 138.18H367.646L370.218 129.099H372.14L368.514 141H366.716L364.113 131.857H363.927L361.324 141H359.526ZM382.55 131.764L380.908 132.229C380.804 131.956 380.652 131.69 380.451 131.431C380.254 131.168 379.986 130.951 379.645 130.78C379.304 130.61 378.868 130.525 378.335 130.525C377.607 130.525 377 130.693 376.515 131.028C376.034 131.359 375.794 131.78 375.794 132.291C375.794 132.746 375.959 133.105 376.29 133.368C376.621 133.632 377.137 133.851 377.84 134.027L379.606 134.461C380.67 134.719 381.463 135.114 381.985 135.646C382.506 136.173 382.767 136.852 382.767 137.684C382.767 138.366 382.571 138.975 382.178 139.512C381.791 140.05 381.249 140.473 380.551 140.783C379.854 141.093 379.043 141.248 378.119 141.248C376.905 141.248 375.9 140.985 375.105 140.458C374.309 139.931 373.806 139.161 373.594 138.149L375.329 137.715C375.495 138.355 375.807 138.836 376.267 139.156C376.732 139.476 377.339 139.636 378.088 139.636C378.94 139.636 379.616 139.456 380.118 139.094C380.624 138.727 380.877 138.288 380.877 137.777C380.877 137.364 380.732 137.018 380.443 136.739C380.154 136.455 379.709 136.243 379.11 136.103L377.127 135.638C376.037 135.38 375.236 134.98 374.725 134.437C374.219 133.89 373.966 133.206 373.966 132.384C373.966 131.713 374.154 131.119 374.531 130.602C374.913 130.086 375.433 129.68 376.089 129.386C376.75 129.091 377.499 128.944 378.335 128.944C379.513 128.944 380.438 129.202 381.109 129.719C381.786 130.236 382.266 130.917 382.55 131.764Z" fill="white"/>
<path d="M194.26 161.099C194.167 160.314 193.79 159.705 193.129 159.271C192.468 158.837 191.657 158.62 190.696 158.62C189.994 158.62 189.379 158.733 188.852 158.961C188.33 159.188 187.922 159.501 187.628 159.898C187.339 160.296 187.194 160.748 187.194 161.254C187.194 161.678 187.295 162.042 187.496 162.347C187.703 162.646 187.966 162.897 188.286 163.098C188.607 163.294 188.942 163.457 189.294 163.586C189.645 163.71 189.968 163.811 190.262 163.888L191.874 164.322C192.287 164.431 192.747 164.581 193.253 164.772C193.764 164.963 194.252 165.224 194.717 165.554C195.187 165.88 195.575 166.298 195.879 166.809C196.184 167.321 196.337 167.948 196.337 168.692C196.337 169.55 196.112 170.324 195.663 171.017C195.218 171.709 194.567 172.259 193.71 172.667C192.858 173.075 191.822 173.279 190.603 173.279C189.467 173.279 188.483 173.096 187.651 172.729C186.825 172.362 186.174 171.851 185.699 171.195C185.229 170.539 184.963 169.777 184.901 168.909H186.884C186.936 169.508 187.137 170.004 187.488 170.397C187.845 170.784 188.294 171.073 188.837 171.264C189.384 171.45 189.973 171.543 190.603 171.543C191.337 171.543 191.995 171.425 192.579 171.187C193.163 170.944 193.625 170.608 193.966 170.18C194.307 169.746 194.477 169.24 194.477 168.661C194.477 168.134 194.33 167.706 194.035 167.375C193.741 167.044 193.354 166.776 192.873 166.569C192.393 166.363 191.874 166.182 191.316 166.027L189.363 165.469C188.124 165.113 187.142 164.604 186.419 163.943C185.696 163.282 185.335 162.416 185.335 161.347C185.335 160.459 185.575 159.684 186.055 159.023C186.541 158.356 187.191 157.84 188.008 157.473C188.829 157.101 189.746 156.915 190.758 156.915C191.781 156.915 192.69 157.099 193.485 157.465C194.281 157.827 194.911 158.323 195.376 158.953C195.846 159.583 196.094 160.299 196.12 161.099H194.26ZM202.314 173.279C201.559 173.279 200.875 173.137 200.26 172.853C199.646 172.564 199.158 172.148 198.796 171.605C198.434 171.058 198.254 170.397 198.254 169.622C198.254 168.94 198.388 168.387 198.657 167.964C198.925 167.535 199.284 167.199 199.734 166.957C200.183 166.714 200.679 166.533 201.221 166.414C201.769 166.29 202.319 166.192 202.871 166.12C203.595 166.027 204.181 165.957 204.63 165.911C205.085 165.859 205.415 165.774 205.622 165.655C205.834 165.536 205.94 165.33 205.94 165.035V164.973C205.94 164.209 205.73 163.615 205.312 163.191C204.899 162.768 204.271 162.556 203.429 162.556C202.556 162.556 201.872 162.747 201.376 163.129C200.88 163.511 200.532 163.919 200.33 164.353L198.595 163.733C198.904 163.01 199.318 162.447 199.834 162.044C200.356 161.636 200.924 161.352 201.539 161.192C202.159 161.027 202.768 160.944 203.367 160.944C203.75 160.944 204.189 160.991 204.684 161.084C205.185 161.171 205.668 161.355 206.133 161.634C206.603 161.913 206.993 162.334 207.303 162.897C207.613 163.46 207.768 164.214 207.768 165.159V173H205.94V171.388H205.847C205.723 171.647 205.516 171.923 205.227 172.217C204.938 172.512 204.553 172.762 204.072 172.969C203.592 173.176 203.006 173.279 202.314 173.279ZM202.593 171.636C203.316 171.636 203.925 171.494 204.421 171.21C204.922 170.926 205.299 170.559 205.552 170.11C205.81 169.661 205.94 169.188 205.94 168.692V167.019C205.862 167.112 205.692 167.197 205.428 167.274C205.17 167.347 204.87 167.411 204.529 167.468C204.194 167.52 203.866 167.566 203.546 167.607C203.23 167.644 202.975 167.675 202.778 167.7C202.303 167.762 201.859 167.863 201.446 168.003C201.038 168.137 200.707 168.341 200.454 168.615C200.206 168.883 200.082 169.25 200.082 169.715C200.082 170.35 200.317 170.831 200.787 171.156C201.262 171.476 201.864 171.636 202.593 171.636ZM212.498 165.841V173H210.669V161.099H212.436V162.959H212.591C212.87 162.354 213.293 161.869 213.861 161.502C214.43 161.13 215.163 160.944 216.062 160.944C216.868 160.944 217.573 161.11 218.177 161.44C218.781 161.765 219.251 162.261 219.587 162.928C219.923 163.589 220.091 164.426 220.091 165.438V173H218.262V165.562C218.262 164.627 218.019 163.899 217.534 163.377C217.048 162.85 216.382 162.587 215.535 162.587C214.951 162.587 214.43 162.713 213.97 162.966C213.515 163.22 213.156 163.589 212.893 164.074C212.629 164.56 212.498 165.149 212.498 165.841ZM233.84 173H228.944V157.132H234.057C235.596 157.132 236.914 157.45 238.009 158.085C239.104 158.715 239.943 159.622 240.527 160.805C241.11 161.982 241.402 163.393 241.402 165.035C241.402 166.688 241.108 168.111 240.519 169.304C239.93 170.492 239.073 171.407 237.947 172.047C236.821 172.682 235.452 173 233.84 173ZM230.865 171.295H233.716C235.028 171.295 236.116 171.042 236.978 170.536C237.841 170.03 238.484 169.309 238.907 168.374C239.331 167.44 239.543 166.326 239.543 165.035C239.543 163.754 239.334 162.651 238.915 161.727C238.497 160.797 237.872 160.084 237.04 159.588C236.209 159.087 235.173 158.837 233.933 158.837H230.865V171.295ZM243.941 173V161.099H245.77V173H243.941ZM244.871 159.116C244.514 159.116 244.207 158.994 243.949 158.752C243.696 158.509 243.569 158.217 243.569 157.876C243.569 157.535 243.696 157.243 243.949 157.001C244.207 156.758 244.514 156.636 244.871 156.636C245.227 156.636 245.532 156.758 245.785 157.001C246.043 157.243 246.172 157.535 246.172 157.876C246.172 158.217 246.043 158.509 245.785 158.752C245.532 158.994 245.227 159.116 244.871 159.116ZM253.672 173.248C252.525 173.248 251.536 172.995 250.704 172.489C249.878 171.977 249.24 171.264 248.791 170.35C248.347 169.431 248.124 168.362 248.124 167.143C248.124 165.924 248.347 164.849 248.791 163.919C249.24 162.985 249.865 162.256 250.666 161.735C251.472 161.208 252.412 160.944 253.486 160.944C254.106 160.944 254.718 161.048 255.322 161.254C255.927 161.461 256.477 161.796 256.973 162.261C257.468 162.721 257.864 163.331 258.158 164.09C258.452 164.849 258.6 165.784 258.6 166.895V167.669H249.426V166.089H256.74C256.74 165.417 256.606 164.818 256.337 164.291C256.074 163.764 255.697 163.349 255.206 163.044C254.72 162.739 254.147 162.587 253.486 162.587C252.758 162.587 252.127 162.768 251.595 163.129C251.069 163.486 250.663 163.95 250.379 164.524C250.095 165.097 249.953 165.712 249.953 166.368V167.421C249.953 168.32 250.108 169.082 250.418 169.707C250.733 170.327 251.169 170.8 251.727 171.125C252.285 171.445 252.933 171.605 253.672 171.605C254.152 171.605 254.586 171.538 254.974 171.404C255.366 171.264 255.704 171.058 255.989 170.784C256.273 170.505 256.492 170.159 256.647 169.746L258.414 170.242C258.228 170.841 257.915 171.368 257.476 171.822C257.037 172.272 256.495 172.623 255.849 172.876C255.203 173.124 254.478 173.248 253.672 173.248ZM265.748 177.711C264.865 177.711 264.106 177.597 263.471 177.37C262.835 177.148 262.306 176.853 261.882 176.487C261.464 176.125 261.131 175.738 260.883 175.324L262.339 174.302C262.505 174.519 262.714 174.767 262.967 175.045C263.22 175.33 263.566 175.575 264.005 175.782C264.449 175.993 265.03 176.099 265.748 176.099C266.709 176.099 267.502 175.867 268.127 175.402C268.752 174.937 269.065 174.209 269.065 173.217V170.8H268.91C268.775 171.017 268.584 171.285 268.336 171.605C268.094 171.92 267.742 172.202 267.283 172.45C266.828 172.693 266.213 172.814 265.439 172.814C264.478 172.814 263.615 172.587 262.851 172.132C262.091 171.678 261.49 171.017 261.045 170.149C260.606 169.281 260.387 168.227 260.387 166.988C260.387 165.769 260.601 164.707 261.03 163.803C261.459 162.894 262.055 162.192 262.82 161.696C263.584 161.195 264.467 160.944 265.47 160.944C266.244 160.944 266.859 161.073 267.314 161.332C267.773 161.585 268.125 161.874 268.367 162.199C268.615 162.52 268.806 162.783 268.941 162.99H269.127V161.099H270.893V173.341C270.893 174.364 270.661 175.195 270.196 175.836C269.736 176.481 269.116 176.954 268.336 177.254C267.561 177.558 266.699 177.711 265.748 177.711ZM265.686 171.171C266.42 171.171 267.04 171.004 267.546 170.668C268.052 170.332 268.437 169.849 268.7 169.219C268.964 168.589 269.096 167.835 269.096 166.957C269.096 166.099 268.966 165.342 268.708 164.686C268.45 164.03 268.068 163.517 267.561 163.145C267.055 162.773 266.43 162.587 265.686 162.587C264.912 162.587 264.266 162.783 263.75 163.176C263.238 163.568 262.853 164.095 262.595 164.756C262.342 165.417 262.215 166.151 262.215 166.957C262.215 167.783 262.345 168.514 262.603 169.149C262.866 169.779 263.254 170.275 263.765 170.637C264.282 170.993 264.922 171.171 265.686 171.171ZM278.639 173.248C277.564 173.248 276.622 172.992 275.811 172.481C275.005 171.97 274.375 171.254 273.92 170.335C273.471 169.415 273.246 168.341 273.246 167.112C273.246 165.872 273.471 164.79 273.92 163.865C274.375 162.941 275.005 162.223 275.811 161.711C276.622 161.2 277.564 160.944 278.639 160.944C279.713 160.944 280.653 161.2 281.459 161.711C282.27 162.223 282.9 162.941 283.349 163.865C283.804 164.79 284.031 165.872 284.031 167.112C284.031 168.341 283.804 169.415 283.349 170.335C282.9 171.254 282.27 171.97 281.459 172.481C280.653 172.992 279.713 173.248 278.639 173.248ZM278.639 171.605C279.455 171.605 280.126 171.396 280.653 170.978C281.18 170.559 281.57 170.009 281.823 169.327C282.076 168.646 282.203 167.907 282.203 167.112C282.203 166.316 282.076 165.575 281.823 164.888C281.57 164.201 281.18 163.646 280.653 163.222C280.126 162.799 279.455 162.587 278.639 162.587C277.822 162.587 277.151 162.799 276.624 163.222C276.097 163.646 275.707 164.201 275.454 164.888C275.201 165.575 275.075 166.316 275.075 167.112C275.075 167.907 275.201 168.646 275.454 169.327C275.707 170.009 276.097 170.559 276.624 170.978C277.151 171.396 277.822 171.605 278.639 171.605ZM294.255 157.132V173H292.334V157.132H294.255ZM299.252 165.841V173H297.424V161.099H299.19V162.959H299.345C299.624 162.354 300.048 161.869 300.616 161.502C301.184 161.13 301.918 160.944 302.816 160.944C303.622 160.944 304.327 161.11 304.931 161.44C305.536 161.765 306.006 162.261 306.342 162.928C306.677 163.589 306.845 164.426 306.845 165.438V173H305.017V165.562C305.017 164.627 304.774 163.899 304.288 163.377C303.803 162.85 303.137 162.587 302.289 162.587C301.706 162.587 301.184 162.713 300.724 162.966C300.27 163.22 299.911 163.589 299.647 164.074C299.384 164.56 299.252 165.149 299.252 165.841ZM314.926 161.099V162.649H308.758V161.099H314.926ZM310.556 158.248H312.384V169.591C312.384 170.107 312.459 170.495 312.609 170.753C312.764 171.006 312.96 171.177 313.198 171.264C313.441 171.347 313.696 171.388 313.965 171.388C314.166 171.388 314.332 171.378 314.461 171.357C314.59 171.332 314.693 171.311 314.771 171.295L315.143 172.938C315.019 172.985 314.846 173.031 314.624 173.077C314.401 173.129 314.12 173.155 313.779 173.155C313.263 173.155 312.756 173.044 312.26 172.822C311.77 172.6 311.362 172.261 311.036 171.807C310.716 171.352 310.556 170.779 310.556 170.087V158.248ZM322.102 173.248C320.955 173.248 319.966 172.995 319.134 172.489C318.308 171.977 317.67 171.264 317.221 170.35C316.776 169.431 316.554 168.362 316.554 167.143C316.554 165.924 316.776 164.849 317.221 163.919C317.67 162.985 318.295 162.256 319.096 161.735C319.901 161.208 320.841 160.944 321.916 160.944C322.536 160.944 323.148 161.048 323.752 161.254C324.356 161.461 324.907 161.796 325.402 162.261C325.898 162.721 326.293 163.331 326.588 164.09C326.882 164.849 327.029 165.784 327.029 166.895V167.669H317.856V166.089H325.17C325.17 165.417 325.036 164.818 324.767 164.291C324.504 163.764 324.127 163.349 323.636 163.044C323.15 162.739 322.577 162.587 321.916 162.587C321.188 162.587 320.557 162.768 320.025 163.129C319.498 163.486 319.093 163.95 318.809 164.524C318.525 165.097 318.383 165.712 318.383 166.368V167.421C318.383 168.32 318.538 169.082 318.848 169.707C319.163 170.327 319.599 170.8 320.157 171.125C320.715 171.445 321.363 171.605 322.102 171.605C322.582 171.605 323.016 171.538 323.403 171.404C323.796 171.264 324.134 171.058 324.418 170.784C324.702 170.505 324.922 170.159 325.077 169.746L326.843 170.242C326.658 170.841 326.345 171.368 325.906 171.822C325.467 172.272 324.925 172.623 324.279 172.876C323.633 173.124 322.908 173.248 322.102 173.248ZM329.375 173V161.099H331.141V162.897H331.265C331.482 162.308 331.875 161.83 332.443 161.463C333.011 161.097 333.651 160.913 334.364 160.913C334.499 160.913 334.666 160.916 334.868 160.921C335.069 160.926 335.222 160.934 335.325 160.944V162.804C335.263 162.788 335.121 162.765 334.899 162.734C334.682 162.698 334.452 162.68 334.209 162.68C333.631 162.68 333.114 162.801 332.66 163.044C332.21 163.282 331.854 163.612 331.59 164.036C331.332 164.454 331.203 164.932 331.203 165.469V173H329.375ZM338.885 165.841V173H337.056V161.099H338.823V162.959H338.978C339.257 162.354 339.68 161.869 340.248 161.502C340.816 161.13 341.55 160.944 342.449 160.944C343.254 160.944 343.96 161.11 344.564 161.44C345.168 161.765 345.638 162.261 345.974 162.928C346.31 163.589 346.478 164.426 346.478 165.438V173H344.649V165.562C344.649 164.627 344.406 163.899 343.921 163.377C343.435 162.85 342.769 162.587 341.922 162.587C341.338 162.587 340.816 162.713 340.357 162.966C339.902 163.22 339.543 163.589 339.28 164.074C339.016 164.56 338.885 165.149 338.885 165.841ZM352.885 173.279C352.13 173.279 351.446 173.137 350.831 172.853C350.217 172.564 349.729 172.148 349.367 171.605C349.005 171.058 348.825 170.397 348.825 169.622C348.825 168.94 348.959 168.387 349.228 167.964C349.496 167.535 349.855 167.199 350.305 166.957C350.754 166.714 351.25 166.533 351.792 166.414C352.34 166.29 352.89 166.192 353.442 166.12C354.166 166.027 354.752 165.957 355.201 165.911C355.656 165.859 355.986 165.774 356.193 165.655C356.405 165.536 356.511 165.33 356.511 165.035V164.973C356.511 164.209 356.301 163.615 355.883 163.191C355.47 162.768 354.842 162.556 354 162.556C353.127 162.556 352.443 162.747 351.947 163.129C351.451 163.511 351.103 163.919 350.901 164.353L349.166 163.733C349.476 163.01 349.889 162.447 350.405 162.044C350.927 161.636 351.495 161.352 352.11 161.192C352.73 161.027 353.339 160.944 353.938 160.944C354.321 160.944 354.76 160.991 355.255 161.084C355.757 161.171 356.239 161.355 356.704 161.634C357.174 161.913 357.564 162.334 357.874 162.897C358.184 163.46 358.339 164.214 358.339 165.159V173H356.511V171.388H356.418C356.294 171.647 356.087 171.923 355.798 172.217C355.509 172.512 355.124 172.762 354.643 172.969C354.163 173.176 353.577 173.279 352.885 173.279ZM353.164 171.636C353.887 171.636 354.496 171.494 354.992 171.21C355.493 170.926 355.87 170.559 356.123 170.11C356.382 169.661 356.511 169.188 356.511 168.692V167.019C356.433 167.112 356.263 167.197 355.999 167.274C355.741 167.347 355.441 167.411 355.101 167.468C354.765 167.52 354.437 167.566 354.117 167.607C353.801 167.644 353.546 167.675 353.349 167.7C352.874 167.762 352.43 167.863 352.017 168.003C351.609 168.137 351.278 168.341 351.025 168.615C350.777 168.883 350.653 169.25 350.653 169.715C350.653 170.35 350.888 170.831 351.358 171.156C351.833 171.476 352.435 171.636 353.164 171.636ZM366.416 161.099V162.649H360.248V161.099H366.416ZM362.046 158.248H363.875V169.591C363.875 170.107 363.949 170.495 364.099 170.753C364.254 171.006 364.45 171.177 364.688 171.264C364.931 171.347 365.186 171.388 365.455 171.388C365.657 171.388 365.822 171.378 365.951 171.357C366.08 171.332 366.183 171.311 366.261 171.295L366.633 172.938C366.509 172.985 366.336 173.031 366.114 173.077C365.892 173.129 365.61 173.155 365.269 173.155C364.753 173.155 364.246 173.044 363.751 172.822C363.26 172.6 362.852 172.261 362.526 171.807C362.206 171.352 362.046 170.779 362.046 170.087V158.248ZM368.73 173V161.099H370.558V173H368.73ZM369.66 159.116C369.303 159.116 368.996 158.994 368.738 158.752C368.485 158.509 368.358 158.217 368.358 157.876C368.358 157.535 368.485 157.243 368.738 157.001C368.996 156.758 369.303 156.636 369.66 156.636C370.016 156.636 370.321 156.758 370.574 157.001C370.832 157.243 370.961 157.535 370.961 157.876C370.961 158.217 370.832 158.509 370.574 158.752C370.321 158.994 370.016 159.116 369.66 159.116ZM378.306 173.248C377.231 173.248 376.289 172.992 375.478 172.481C374.672 171.97 374.042 171.254 373.587 170.335C373.138 169.415 372.913 168.341 372.913 167.112C372.913 165.872 373.138 164.79 373.587 163.865C374.042 162.941 374.672 162.223 375.478 161.711C376.289 161.2 377.231 160.944 378.306 160.944C379.38 160.944 380.32 161.2 381.126 161.711C381.937 162.223 382.567 162.941 383.017 163.865C383.471 164.79 383.698 165.872 383.698 167.112C383.698 168.341 383.471 169.415 383.017 170.335C382.567 171.254 381.937 171.97 381.126 172.481C380.32 172.992 379.38 173.248 378.306 173.248ZM378.306 171.605C379.122 171.605 379.793 171.396 380.32 170.978C380.847 170.559 381.237 170.009 381.49 169.327C381.743 168.646 381.87 167.907 381.87 167.112C381.87 166.316 381.743 165.575 381.49 164.888C381.237 164.201 380.847 163.646 380.32 163.222C379.793 162.799 379.122 162.587 378.306 162.587C377.49 162.587 376.818 162.799 376.291 163.222C375.765 163.646 375.375 164.201 375.121 164.888C374.868 165.575 374.742 166.316 374.742 167.112C374.742 167.907 374.868 168.646 375.121 169.327C375.375 170.009 375.765 170.559 376.291 170.978C376.818 171.396 377.49 171.605 378.306 171.605ZM387.882 165.841V173H386.053V161.099H387.82V162.959H387.975C388.254 162.354 388.677 161.869 389.245 161.502C389.814 161.13 390.547 160.944 391.446 160.944C392.252 160.944 392.957 161.11 393.561 161.44C394.165 161.765 394.635 162.261 394.971 162.928C395.307 163.589 395.475 164.426 395.475 165.438V173H393.646V165.562C393.646 164.627 393.403 163.899 392.918 163.377C392.432 162.85 391.766 162.587 390.919 162.587C390.335 162.587 389.814 162.713 389.354 162.966C388.899 163.22 388.54 163.589 388.277 164.074C388.014 164.56 387.882 165.149 387.882 165.841ZM401.882 173.279C401.128 173.279 400.443 173.137 399.829 172.853C399.214 172.564 398.726 172.148 398.364 171.605C398.003 171.058 397.822 170.397 397.822 169.622C397.822 168.94 397.956 168.387 398.225 167.964C398.493 167.535 398.852 167.199 399.302 166.957C399.751 166.714 400.247 166.533 400.789 166.414C401.337 166.29 401.887 166.192 402.44 166.12C403.163 166.027 403.749 165.957 404.198 165.911C404.653 165.859 404.984 165.774 405.19 165.655C405.402 165.536 405.508 165.33 405.508 165.035V164.973C405.508 164.209 405.299 163.615 404.88 163.191C404.467 162.768 403.839 162.556 402.997 162.556C402.125 162.556 401.44 162.747 400.944 163.129C400.448 163.511 400.1 163.919 399.898 164.353L398.163 163.733C398.473 163.01 398.886 162.447 399.402 162.044C399.924 161.636 400.492 161.352 401.107 161.192C401.727 161.027 402.336 160.944 402.935 160.944C403.318 160.944 403.757 160.991 404.253 161.084C404.754 161.171 405.237 161.355 405.701 161.634C406.172 161.913 406.562 162.334 406.871 162.897C407.181 163.46 407.336 164.214 407.336 165.159V173H405.508V171.388H405.415C405.291 171.647 405.084 171.923 404.795 172.217C404.506 172.512 404.121 172.762 403.641 172.969C403.16 173.176 402.574 173.279 401.882 173.279ZM402.161 171.636C402.884 171.636 403.493 171.494 403.989 171.21C404.49 170.926 404.867 170.559 405.12 170.11C405.379 169.661 405.508 169.188 405.508 168.692V167.019C405.43 167.112 405.26 167.197 404.996 167.274C404.738 167.347 404.439 167.411 404.098 167.468C403.762 167.52 403.434 167.566 403.114 167.607C402.799 167.644 402.543 167.675 402.347 167.7C401.871 167.762 401.427 167.863 401.014 168.003C400.606 168.137 400.275 168.341 400.022 168.615C399.774 168.883 399.65 169.25 399.65 169.715C399.65 170.35 399.885 170.831 400.355 171.156C400.831 171.476 401.432 171.636 402.161 171.636ZM412.066 157.132V173H410.237V157.132H412.066ZM208.58 186.132H210.502V197.475C210.502 198.488 210.316 199.348 209.944 200.055C209.572 200.763 209.048 201.3 208.371 201.667C207.695 202.034 206.897 202.217 205.977 202.217C205.109 202.217 204.337 202.059 203.66 201.744C202.984 201.424 202.452 200.97 202.064 200.381C201.677 199.792 201.483 199.092 201.483 198.281H203.374C203.374 198.73 203.485 199.123 203.707 199.459C203.934 199.789 204.244 200.048 204.637 200.233C205.029 200.419 205.476 200.512 205.977 200.512C206.53 200.512 207 200.396 207.387 200.164C207.775 199.931 208.069 199.59 208.27 199.141C208.477 198.686 208.58 198.131 208.58 197.475V186.132ZM218.658 202.248C217.511 202.248 216.522 201.995 215.691 201.489C214.864 200.977 214.226 200.264 213.777 199.35C213.333 198.431 213.11 197.362 213.11 196.143C213.11 194.924 213.333 193.849 213.777 192.919C214.226 191.985 214.851 191.256 215.652 190.735C216.458 190.208 217.398 189.944 218.472 189.944C219.092 189.944 219.704 190.048 220.308 190.254C220.913 190.461 221.463 190.796 221.959 191.261C222.454 191.721 222.85 192.331 223.144 193.09C223.438 193.849 223.586 194.784 223.586 195.895V196.669H214.412V195.089H221.726C221.726 194.417 221.592 193.818 221.323 193.291C221.06 192.764 220.683 192.349 220.192 192.044C219.707 191.739 219.133 191.587 218.472 191.587C217.744 191.587 217.114 191.768 216.582 192.129C216.055 192.486 215.649 192.95 215.365 193.524C215.081 194.097 214.939 194.712 214.939 195.368V196.421C214.939 197.32 215.094 198.082 215.404 198.707C215.719 199.327 216.155 199.8 216.713 200.125C217.271 200.445 217.919 200.605 218.658 200.605C219.138 200.605 219.572 200.538 219.96 200.404C220.352 200.264 220.691 200.058 220.975 199.784C221.259 199.505 221.478 199.159 221.633 198.746L223.4 199.242C223.214 199.841 222.901 200.368 222.462 200.822C222.023 201.272 221.481 201.623 220.835 201.876C220.19 202.124 219.464 202.248 218.658 202.248ZM228.627 202L225.001 190.099H226.923L229.495 199.211H229.619L232.16 190.099H234.113L236.623 199.18H236.747L239.319 190.099H241.241L237.615 202H235.817L233.214 192.857H233.028L230.425 202H228.627ZM243.222 202V190.099H245.05V202H243.222ZM244.151 188.116C243.795 188.116 243.488 187.994 243.229 187.752C242.976 187.509 242.85 187.217 242.85 186.876C242.85 186.535 242.976 186.243 243.229 186.001C243.488 185.758 243.795 185.636 244.151 185.636C244.508 185.636 244.813 185.758 245.066 186.001C245.324 186.243 245.453 186.535 245.453 186.876C245.453 187.217 245.324 187.509 245.066 187.752C244.813 187.994 244.508 188.116 244.151 188.116ZM256.393 192.764L254.75 193.229C254.647 192.956 254.494 192.69 254.293 192.431C254.097 192.168 253.828 191.951 253.487 191.78C253.146 191.61 252.71 191.525 252.178 191.525C251.45 191.525 250.843 191.693 250.357 192.028C249.877 192.359 249.636 192.78 249.636 193.291C249.636 193.746 249.802 194.105 250.132 194.368C250.463 194.632 250.979 194.851 251.682 195.027L253.448 195.461C254.513 195.719 255.305 196.114 255.827 196.646C256.349 197.173 256.61 197.852 256.61 198.684C256.61 199.366 256.413 199.975 256.021 200.512C255.633 201.05 255.091 201.473 254.394 201.783C253.696 202.093 252.885 202.248 251.961 202.248C250.747 202.248 249.742 201.985 248.947 201.458C248.151 200.931 247.648 200.161 247.436 199.149L249.172 198.715C249.337 199.355 249.649 199.836 250.109 200.156C250.574 200.476 251.181 200.636 251.93 200.636C252.782 200.636 253.459 200.456 253.96 200.094C254.466 199.727 254.719 199.288 254.719 198.777C254.719 198.364 254.575 198.018 254.285 197.739C253.996 197.455 253.552 197.243 252.953 197.103L250.969 196.638C249.879 196.38 249.079 195.98 248.567 195.437C248.061 194.89 247.808 194.206 247.808 193.384C247.808 192.713 247.997 192.119 248.374 191.602C248.756 191.086 249.275 190.68 249.931 190.386C250.592 190.091 251.341 189.944 252.178 189.944C253.355 189.944 254.28 190.202 254.952 190.719C255.628 191.236 256.109 191.917 256.393 192.764ZM260.754 194.841V202H258.926V186.132H260.754V191.959H260.909C261.188 191.344 261.607 190.856 262.164 190.494C262.727 190.128 263.476 189.944 264.411 189.944C265.222 189.944 265.932 190.107 266.542 190.432C267.151 190.753 267.624 191.246 267.96 191.912C268.301 192.573 268.471 193.415 268.471 194.438V202H266.643V194.562C266.643 193.617 266.397 192.886 265.907 192.369C265.421 191.848 264.747 191.587 263.884 191.587C263.285 191.587 262.748 191.713 262.273 191.966C261.803 192.22 261.431 192.589 261.157 193.074C260.889 193.56 260.754 194.149 260.754 194.841ZM277.328 202V186.132H286.842V187.837H279.249V193.198H286.13V194.903H279.249V202H277.328ZM289.449 202V190.099H291.278V202H289.449ZM290.379 188.116C290.022 188.116 289.715 187.994 289.457 187.752C289.204 187.509 289.077 187.217 289.077 186.876C289.077 186.535 289.204 186.243 289.457 186.001C289.715 185.758 290.022 185.636 290.379 185.636C290.735 185.636 291.04 185.758 291.293 186.001C291.551 186.243 291.68 186.535 291.68 186.876C291.68 187.217 291.551 187.509 291.293 187.752C291.04 187.994 290.735 188.116 290.379 188.116ZM296.019 186.132V202H294.19V186.132H296.019ZM298.931 202V190.099H300.698V191.959H300.853C301.101 191.323 301.501 190.83 302.054 190.479C302.607 190.122 303.27 189.944 304.045 189.944C304.83 189.944 305.484 190.122 306.005 190.479C306.532 190.83 306.943 191.323 307.237 191.959H307.361C307.666 191.344 308.123 190.856 308.733 190.494C309.342 190.128 310.073 189.944 310.925 189.944C311.989 189.944 312.86 190.277 313.536 190.944C314.213 191.605 314.551 192.635 314.551 194.035V202H312.723V194.035C312.723 193.157 312.483 192.529 312.002 192.152C311.522 191.775 310.956 191.587 310.305 191.587C309.469 191.587 308.82 191.84 308.361 192.346C307.901 192.847 307.671 193.482 307.671 194.252V202H305.812V193.849C305.812 193.173 305.592 192.628 305.153 192.214C304.714 191.796 304.148 191.587 303.456 191.587C302.981 191.587 302.537 191.713 302.124 191.966C301.715 192.22 301.385 192.571 301.132 193.02C300.884 193.464 300.76 193.978 300.76 194.562V202H298.931ZM323.406 202V186.132H332.921V187.837H325.328V193.198H332.208V194.903H325.328V202H323.406ZM339.643 202.248C338.497 202.248 337.507 201.995 336.676 201.489C335.849 200.977 335.211 200.264 334.762 199.35C334.318 198.431 334.096 197.362 334.096 196.143C334.096 194.924 334.318 193.849 334.762 192.919C335.211 191.985 335.836 191.256 336.637 190.735C337.443 190.208 338.383 189.944 339.457 189.944C340.077 189.944 340.689 190.048 341.294 190.254C341.898 190.461 342.448 190.796 342.944 191.261C343.44 191.721 343.835 192.331 344.129 193.09C344.424 193.849 344.571 194.784 344.571 195.895V196.669H335.397V195.089H342.711C342.711 194.417 342.577 193.818 342.309 193.291C342.045 192.764 341.668 192.349 341.177 192.044C340.692 191.739 340.118 191.587 339.457 191.587C338.729 191.587 338.099 191.768 337.567 192.129C337.04 192.486 336.634 192.95 336.35 193.524C336.066 194.097 335.924 194.712 335.924 195.368V196.421C335.924 197.32 336.079 198.082 336.389 198.707C336.704 199.327 337.141 199.8 337.699 200.125C338.256 200.445 338.905 200.605 339.643 200.605C340.124 200.605 340.557 200.538 340.945 200.404C341.337 200.264 341.676 200.058 341.96 199.784C342.244 199.505 342.463 199.159 342.618 198.746L344.385 199.242C344.199 199.841 343.887 200.368 343.447 200.822C343.008 201.272 342.466 201.623 341.82 201.876C341.175 202.124 340.449 202.248 339.643 202.248ZM355.346 192.764L353.703 193.229C353.6 192.956 353.448 192.69 353.246 192.431C353.05 192.168 352.781 191.951 352.44 191.78C352.099 191.61 351.663 191.525 351.131 191.525C350.403 191.525 349.796 191.693 349.31 192.028C348.83 192.359 348.59 192.78 348.59 193.291C348.59 193.746 348.755 194.105 349.085 194.368C349.416 194.632 349.933 194.851 350.635 195.027L352.402 195.461C353.466 195.719 354.259 196.114 354.78 196.646C355.302 197.173 355.563 197.852 355.563 198.684C355.563 199.366 355.366 199.975 354.974 200.512C354.587 201.05 354.044 201.473 353.347 201.783C352.65 202.093 351.839 202.248 350.914 202.248C349.7 202.248 348.696 201.985 347.9 201.458C347.105 200.931 346.601 200.161 346.389 199.149L348.125 198.715C348.29 199.355 348.603 199.836 349.062 200.156C349.527 200.476 350.134 200.636 350.883 200.636C351.735 200.636 352.412 200.456 352.913 200.094C353.419 199.727 353.672 199.288 353.672 198.777C353.672 198.364 353.528 198.018 353.238 197.739C352.949 197.455 352.505 197.243 351.906 197.103L349.922 196.638C348.832 196.38 348.032 195.98 347.52 195.437C347.014 194.89 346.761 194.206 346.761 193.384C346.761 192.713 346.95 192.119 347.327 191.602C347.709 191.086 348.228 190.68 348.884 190.386C349.545 190.091 350.294 189.944 351.131 189.944C352.309 189.944 353.233 190.202 353.905 190.719C354.581 191.236 355.062 191.917 355.346 192.764ZM363.054 190.099V191.649H356.887V190.099H363.054ZM358.685 187.248H360.513V198.591C360.513 199.107 360.588 199.495 360.738 199.753C360.893 200.006 361.089 200.177 361.327 200.264C361.569 200.347 361.825 200.388 362.094 200.388C362.295 200.388 362.46 200.378 362.59 200.357C362.719 200.332 362.822 200.311 362.9 200.295L363.271 201.938C363.147 201.985 362.974 202.031 362.752 202.077C362.53 202.129 362.249 202.155 361.908 202.155C361.391 202.155 360.885 202.044 360.389 201.822C359.898 201.6 359.49 201.261 359.165 200.807C358.845 200.352 358.685 199.779 358.685 199.087V187.248ZM365.369 202V190.099H367.197V202H365.369ZM366.298 188.116C365.942 188.116 365.635 187.994 365.376 187.752C365.123 187.509 364.997 187.217 364.997 186.876C364.997 186.535 365.123 186.243 365.376 186.001C365.635 185.758 365.942 185.636 366.298 185.636C366.655 185.636 366.96 185.758 367.213 186.001C367.471 186.243 367.6 186.535 367.6 186.876C367.6 187.217 367.471 187.509 367.213 187.752C366.96 187.994 366.655 188.116 366.298 188.116ZM379.841 190.099L375.44 202H373.581L369.18 190.099H371.164L374.449 199.583H374.573L377.858 190.099H379.841ZM384.958 202.279C384.204 202.279 383.52 202.137 382.905 201.853C382.29 201.564 381.802 201.148 381.441 200.605C381.079 200.058 380.898 199.397 380.898 198.622C380.898 197.94 381.033 197.387 381.301 196.964C381.57 196.535 381.929 196.199 382.378 195.957C382.828 195.714 383.323 195.533 383.866 195.414C384.413 195.29 384.963 195.192 385.516 195.12C386.239 195.027 386.825 194.957 387.275 194.911C387.729 194.859 388.06 194.774 388.267 194.655C388.478 194.536 388.584 194.33 388.584 194.035V193.973C388.584 193.209 388.375 192.615 387.957 192.191C387.543 191.768 386.916 191.556 386.074 191.556C385.201 191.556 384.517 191.747 384.021 192.129C383.525 192.511 383.176 192.919 382.975 193.353L381.239 192.733C381.549 192.01 381.962 191.447 382.479 191.044C383.001 190.636 383.569 190.352 384.183 190.192C384.803 190.027 385.413 189.944 386.012 189.944C386.394 189.944 386.833 189.991 387.329 190.084C387.83 190.171 388.313 190.355 388.778 190.634C389.248 190.913 389.638 191.334 389.948 191.897C390.258 192.46 390.413 193.214 390.413 194.159V202H388.584V200.388H388.491C388.367 200.647 388.161 200.923 387.871 201.217C387.582 201.512 387.197 201.762 386.717 201.969C386.237 202.176 385.65 202.279 384.958 202.279ZM385.237 200.636C385.96 200.636 386.57 200.494 387.066 200.21C387.567 199.926 387.944 199.559 388.197 199.11C388.455 198.661 388.584 198.188 388.584 197.692V196.019C388.507 196.112 388.336 196.197 388.073 196.274C387.815 196.347 387.515 196.411 387.174 196.468C386.838 196.52 386.51 196.566 386.19 196.607C385.875 196.644 385.619 196.675 385.423 196.7C384.948 196.762 384.504 196.863 384.09 197.003C383.682 197.137 383.352 197.341 383.099 197.615C382.851 197.883 382.727 198.25 382.727 198.715C382.727 199.35 382.962 199.831 383.432 200.156C383.907 200.476 384.509 200.636 385.237 200.636ZM395.142 186.132V202H393.314V186.132H395.142Z" fill="white"/>
<path d="M549.838 73.6038C552.208 77.1463 554.484 81.5164 553.365 86.1997C549.504 83.9897 546.398 80.3814 543.935 76.8193C541.455 73.2333 538.88 69.42 537.998 65C542.868 66.2457 547.228 69.7037 549.838 73.6038Z" fill="white"/>
<path d="M556.756 95.1908C555.38 91.4902 552.37 88.2635 549.094 86.7585C546.052 85.3629 542.012 83.9064 538.462 85.6948C540.394 89.0871 543.575 91.9415 546.824 93.7369C549.745 95.3511 553.445 97.3068 557.107 96.4662C561.098 95.8549 563.027 91.8818 564.1 88.8763C565.585 84.723 564.57 79.1764 562.035 75.1016C558.54 76.5581 557.474 80.8794 556.744 83.9369C555.911 87.4172 555.888 91.4796 556.756 95.1908Z" fill="white"/>
<path d="M553.887 100.538C556.701 102.545 558.861 106.215 559.325 109.982C559.365 106.207 560.392 102.31 562.041 99.1713C563.55 96.2995 565.655 92.4182 569.4 91.6445C570.871 96.1159 570.395 101.585 568.016 105.204C566.217 107.946 563.431 111.38 559.377 111.288C555.677 111.477 552.482 108.95 549.968 106.841C547.263 104.573 544.823 101.257 543.797 97.6733C547.574 96.5764 551.19 98.6157 553.887 100.538Z" fill="white"/>
<path d="M558.374 124.805C558.786 121.114 557.552 117.123 555.251 114.657C553.036 112.28 549.93 109.689 546.063 110.101C546.141 113.841 548.013 117.406 549.945 120.076C551.744 122.563 554.515 125.639 558.143 126.082C561.915 126.721 565.597 124.412 567.99 121.695C571.067 118.199 572.901 113.507 572.535 108.809C568.659 108.904 565.724 112.25 563.553 114.78C561.211 117.508 559.293 121.1 558.374 124.805Z" fill="white"/>
<path d="M552.882 128.165C554.716 131.811 555.065 136.148 553.65 139.966C555.737 136.037 558.791 132.86 562.024 129.924C564.962 127.256 569.195 124.446 573.454 124.978C572.641 130.245 569.42 135.707 565.1 138.514C561.628 140.769 557.421 143.002 553.001 141.316C549.364 140.033 547.055 136.371 545.636 133.01C544.134 129.454 543.133 125.355 543.834 121.465C547.822 121.822 551.129 124.679 552.882 128.165Z" fill="white"/>
<path d="M545.175 154.02C547.482 150.507 548.287 146.111 547.344 141.984C546.45 138.075 543.731 134.505 539.766 133.395C538.113 137.161 538.085 141.542 538.684 145.515C539.244 149.191 540.611 153.48 544.007 155.531C548.203 158.192 553.102 156.618 557.125 155.026C562.315 152.973 567.001 148.005 569.193 142.666C564.657 141.228 560.02 143.6 556.24 145.567C552.33 147.602 548.246 150.504 545.175 154.02Z" fill="white"/>
<path d="M527.827 156.912C527.322 160.745 527.331 165.608 530.307 168.562C534.021 172.372 539.779 171.641 544.22 170.807C550.183 169.686 556.896 165.625 560.498 160.214C556.109 157.793 550.734 159.335 546.386 160.584L546.135 160.656C541.282 162.048 536.109 164.293 531.78 167.361C535.235 164.244 537.752 159.67 537.879 155.056C537.994 150.929 536.207 146.512 532.354 144.541C529.658 148.072 528.395 152.607 527.827 156.912Z" fill="white"/>
<path d="M524.497 184.994C519.733 184.893 513.196 184.325 510.531 179.403L510.494 179.336C508.366 175.176 510.529 170.313 512.253 166.715C514.303 162.437 517.103 158.078 521.106 154.949C524.947 158.263 524.575 163 523.43 167.116C522.066 172.011 517.354 176.181 512.475 178.555C518.124 176.453 524.292 175.194 530.16 174.825L530.757 174.787C535.472 174.484 541.608 174.089 545.36 177.541C539.676 182.364 531.608 185.144 524.497 184.994Z" fill="white"/>
</svg>
