<svg width="468" height="250" viewBox="0 0 468 250" fill="none" xmlns="http://www.w3.org/2000/svg">
<path d="M45.0379 86.1862C43.922 81.5024 46.2016 77.1344 48.5761 73.5942C51.1898 69.6967 55.551 66.2422 60.4216 65C59.5367 69.4188 56.9578 73.2303 54.4755 76.8138C52.0099 80.3739 48.9002 83.9796 45.0379 86.1862Z" fill="white"/>
<path d="M41.6395 95.171C42.5106 91.4619 42.4912 87.4012 41.662 83.9221C40.9328 80.8646 39.8717 76.5424 36.3794 75.084C33.8408 79.1559 32.8204 84.7009 34.2999 88.8559C35.3696 91.8612 37.2934 95.8348 41.2831 96.4498C44.9441 97.2938 48.6461 95.3409 51.5699 93.7285C54.8209 91.9359 58.0053 89.0839 59.94 85.6934C56.3909 83.9019 52.349 85.3557 49.3081 86.749C46.0303 88.2509 43.0192 91.4734 41.6395 95.171Z" fill="white"/>
<path d="M30.3663 105.181C32.1667 107.927 34.9526 111.368 39.0147 111.27C42.7086 111.454 45.8999 108.933 48.4131 106.829C51.1197 104.563 53.5628 101.25 54.5942 97.667C50.8161 96.5678 47.1989 98.6041 44.5015 100.525C41.6847 102.531 39.5184 106.202 39.053 109.971C39.0182 106.195 37.996 102.294 36.3482 99.1525C34.8416 96.2801 32.7422 92.3973 28.9967 91.6211C27.521 96.0906 27.9918 101.559 30.3663 105.181Z" fill="white"/>
<path d="M40.2158 126.063C36.4458 126.695 32.7683 124.385 30.38 121.668C27.3052 118.17 25.4757 113.477 25.8488 108.779C29.7217 108.878 32.655 112.226 34.823 114.757C37.158 117.484 39.0711 121.071 39.9889 124.771C39.5852 121.084 40.8233 117.101 43.1217 114.641C45.3401 112.265 48.4478 109.677 52.3144 110.092C52.2311 113.832 50.3566 117.394 48.4233 120.063C46.6212 122.549 43.8451 125.625 40.2158 126.063Z" fill="white"/>
<path d="M33.2521 138.487C36.7242 140.748 40.9354 142.985 45.3611 141.292C48.9918 140.007 51.3003 136.353 52.7201 132.998C54.224 129.444 55.2286 125.345 54.5331 121.455C50.5434 121.809 47.235 124.664 45.4779 128.148C43.6409 131.791 43.2885 136.127 44.6997 139.946C42.6147 136.017 39.5655 132.838 36.3355 129.9C33.3994 127.23 29.1701 124.417 24.9102 124.946C25.7207 130.213 28.9345 135.676 33.2521 138.487Z" fill="white"/>
<path d="M54.3045 155.53C57.7213 153.488 59.0963 149.19 59.6583 145.507C60.2641 141.535 60.2382 137.155 58.5886 133.387C54.6245 134.494 51.9035 138.062 51.005 141.97C50.0558 146.098 50.8568 150.499 53.1658 154.014C50.0965 150.493 46.015 147.585 42.1037 145.546C38.3256 143.577 33.6906 141.202 29.1533 142.636C31.3412 147.976 36.0215 152.947 41.2087 155.004C45.2258 156.596 50.1129 158.171 54.3045 155.53Z" fill="white"/>
<path d="M70.5033 156.912C71.0047 160.746 70.9906 165.608 68.0141 168.559C64.2945 172.367 58.5381 171.632 54.0983 170.794C48.1378 169.669 41.4282 165.604 37.832 160.191C42.224 157.772 47.5954 159.319 51.9436 160.572L52.1918 160.643C57.0454 162.039 62.2176 164.288 66.5433 167.361C63.0913 164.242 60.5761 159.664 60.453 155.049C60.3423 150.922 62.1337 146.506 65.9888 144.539C68.6802 148.071 69.9405 152.607 70.5033 156.912Z" fill="white"/>
<path d="M87.778 179.416C89.9699 175.243 87.7982 170.346 86.0676 166.727C84.0215 162.448 81.2261 158.087 77.2254 154.955C73.3839 158.266 73.7492 163.003 74.8913 167.12C76.2494 172.015 80.9576 176.188 85.8331 178.566C80.1866 176.46 74.02 175.196 68.1529 174.823L67.5586 174.785C62.8451 174.478 56.709 174.078 52.9531 177.527C58.6319 182.355 66.6982 185.14 73.8074 184.996C78.5716 184.899 85.1083 184.335 87.778 179.416Z" fill="white"/>
<path d="M211.107 77.5V76.1054L216.344 70.3719C216.959 69.7004 217.465 69.1167 217.863 68.6209C218.261 68.1198 218.555 67.6498 218.746 67.2107C218.942 66.7665 219.04 66.3017 219.04 65.8161C219.04 65.2583 218.906 64.7753 218.638 64.3673C218.374 63.9592 218.013 63.6441 217.553 63.422C217.093 63.1999 216.577 63.0888 216.003 63.0888C215.394 63.0888 214.862 63.2154 214.407 63.4685C213.958 63.7164 213.609 64.0651 213.361 64.5145C213.118 64.9638 212.997 65.4907 212.997 66.095H211.169C211.169 65.1653 211.383 64.3492 211.812 63.6467C212.24 62.9442 212.824 62.3967 213.563 62.0041C214.306 61.6116 215.141 61.4153 216.065 61.4153C216.995 61.4153 217.819 61.6116 218.537 62.0041C219.255 62.3967 219.818 62.9261 220.226 63.5925C220.634 64.2588 220.838 65 220.838 65.8161C220.838 66.3998 220.732 66.9706 220.52 67.5284C220.314 68.0811 219.952 68.6983 219.436 69.3802C218.924 70.0568 218.214 70.8833 217.305 71.8595L213.741 75.6715V75.7955H221.117V77.5H211.107ZM229.056 77.7169C227.889 77.7169 226.894 77.3993 226.073 76.7639C225.252 76.1235 224.624 75.1963 224.19 73.9824C223.756 72.7634 223.54 71.2913 223.54 69.5661C223.54 67.8512 223.756 66.3869 224.19 65.173C224.629 63.954 225.26 63.0243 226.081 62.3838C226.907 61.7381 227.899 61.4153 229.056 61.4153C230.213 61.4153 231.202 61.7381 232.024 62.3838C232.85 63.0243 233.48 63.954 233.914 65.173C234.353 66.3869 234.573 67.8512 234.573 69.5661C234.573 71.2913 234.356 72.7634 233.922 73.9824C233.488 75.1963 232.86 76.1235 232.039 76.7639C231.218 77.3993 230.223 77.7169 229.056 77.7169ZM229.056 76.0124C230.213 76.0124 231.112 75.4545 231.752 74.3388C232.393 73.2231 232.713 71.6322 232.713 69.5661C232.713 68.1921 232.566 67.0222 232.271 66.0563C231.982 65.0904 231.564 64.3543 231.016 63.8481C230.474 63.3419 229.821 63.0888 229.056 63.0888C227.909 63.0888 227.013 63.6544 226.368 64.7856C225.722 65.9117 225.399 67.5052 225.399 69.5661C225.399 70.9401 225.544 72.1074 225.833 73.0682C226.122 74.0289 226.538 74.7598 227.08 75.2608C227.628 75.7619 228.286 76.0124 229.056 76.0124ZM242.659 61.6322V77.5H240.737V63.6467H240.645L236.771 66.219V64.2665L240.737 61.6322H242.659ZM252.055 77.7169C251.404 77.7066 250.753 77.5826 250.102 77.345C249.451 77.1074 248.857 76.7071 248.32 76.1441C247.783 75.5759 247.352 74.8089 247.026 73.843C246.701 72.8719 246.538 71.6529 246.538 70.186C246.538 68.781 246.67 67.5362 246.933 66.4514C247.197 65.3616 247.579 64.4447 248.08 63.7009C248.581 62.952 249.185 62.3838 249.893 61.9964C250.606 61.609 251.409 61.4153 252.303 61.4153C253.191 61.4153 253.981 61.5935 254.674 61.9499C255.371 62.3011 255.939 62.7918 256.378 63.422C256.817 64.0522 257.101 64.7779 257.23 65.5992H255.34C255.164 64.8864 254.823 64.2949 254.317 63.8249C253.811 63.3549 253.139 63.1198 252.303 63.1198C251.073 63.1198 250.105 63.6544 249.397 64.7237C248.695 65.7929 248.341 67.2934 248.336 69.2252H248.46C248.749 68.7862 249.092 68.4117 249.49 68.1018C249.893 67.7867 250.337 67.5439 250.823 67.3735C251.308 67.203 251.822 67.1178 252.365 67.1178C253.274 67.1178 254.105 67.345 254.859 67.7996C255.614 68.249 256.218 68.8714 256.673 69.6668C257.127 70.4571 257.354 71.3636 257.354 72.3864C257.354 73.3678 257.135 74.2665 256.696 75.0826C256.257 75.8936 255.639 76.5393 254.844 77.0196C254.054 77.4948 253.124 77.7273 252.055 77.7169ZM252.055 76.0124C252.706 76.0124 253.289 75.8497 253.806 75.5243C254.327 75.1989 254.738 74.7624 255.038 74.2149C255.342 73.6674 255.495 73.0579 255.495 72.3864C255.495 71.7304 255.348 71.1338 255.053 70.5966C254.764 70.0542 254.364 69.6229 253.852 69.3027C253.346 68.9824 252.768 68.8223 252.117 68.8223C251.626 68.8223 251.169 68.9205 250.745 69.1167C250.322 69.3079 249.95 69.5713 249.63 69.907C249.315 70.2428 249.067 70.6276 248.886 71.0615C248.705 71.4902 248.615 71.9421 248.615 72.4174C248.615 73.0475 248.762 73.6364 249.056 74.1839C249.356 74.7314 249.764 75.173 250.28 75.5088C250.802 75.8445 251.394 76.0124 252.055 76.0124Z" fill="white"/>
<path d="M141.248 102.566C141.248 104.24 140.946 105.686 140.342 106.905C139.737 108.124 138.908 109.064 137.855 109.725C136.801 110.386 135.597 110.717 134.244 110.717C132.891 110.717 131.687 110.386 130.634 109.725C129.58 109.064 128.751 108.124 128.146 106.905C127.542 105.686 127.24 104.24 127.24 102.566C127.24 100.893 127.542 99.4463 128.146 98.2273C128.751 97.0083 129.58 96.0682 130.634 95.407C131.687 94.7459 132.891 94.4153 134.244 94.4153C135.597 94.4153 136.801 94.7459 137.855 95.407C138.908 96.0682 139.737 97.0083 140.342 98.2273C140.946 99.4463 141.248 100.893 141.248 102.566ZM139.389 102.566C139.389 101.192 139.159 100.033 138.699 99.0873C138.245 98.142 137.627 97.4267 136.847 96.9411C136.073 96.4556 135.205 96.2128 134.244 96.2128C133.283 96.2128 132.413 96.4556 131.633 96.9411C130.858 97.4267 130.241 98.142 129.781 99.0873C129.327 100.033 129.099 101.192 129.099 102.566C129.099 103.94 129.327 105.1 129.781 106.045C130.241 106.99 130.858 107.706 131.633 108.191C132.413 108.677 133.283 108.919 134.244 108.919C135.205 108.919 136.073 108.677 136.847 108.191C137.627 107.706 138.245 106.99 138.699 106.045C139.159 105.1 139.389 103.94 139.389 102.566ZM144.043 110.5V94.6322H153.557V96.3368H145.964V101.698H152.844V103.403H145.964V110.5H144.043ZM156.412 110.5V94.6322H165.926V96.3368H158.333V101.698H165.213V103.403H158.333V110.5H156.412ZM170.702 94.6322V110.5H168.781V94.6322H170.702ZM186.887 99.5909H184.966C184.852 99.0382 184.653 98.5527 184.369 98.1343C184.09 97.7159 183.749 97.3647 183.346 97.0806C182.949 96.7913 182.507 96.5744 182.022 96.4298C181.536 96.2851 181.03 96.2128 180.503 96.2128C179.542 96.2128 178.672 96.4556 177.892 96.9411C177.117 97.4267 176.5 98.142 176.04 99.0873C175.586 100.033 175.358 101.192 175.358 102.566C175.358 103.94 175.586 105.1 176.04 106.045C176.5 106.99 177.117 107.706 177.892 108.191C178.672 108.677 179.542 108.919 180.503 108.919C181.03 108.919 181.536 108.847 182.022 108.702C182.507 108.558 182.949 108.343 183.346 108.059C183.749 107.77 184.09 107.416 184.369 106.998C184.653 106.574 184.852 106.089 184.966 105.541H186.887C186.743 106.352 186.479 107.078 186.097 107.718C185.715 108.359 185.239 108.904 184.671 109.353C184.103 109.798 183.465 110.136 182.758 110.368C182.055 110.601 181.304 110.717 180.503 110.717C179.15 110.717 177.946 110.386 176.892 109.725C175.839 109.064 175.01 108.124 174.405 106.905C173.801 105.686 173.499 104.24 173.499 102.566C173.499 100.893 173.801 99.4463 174.405 98.2273C175.01 97.0083 175.839 96.0682 176.892 95.407C177.946 94.7459 179.15 94.4153 180.503 94.4153C181.304 94.4153 182.055 94.5315 182.758 94.7639C183.465 94.9964 184.103 95.3373 184.671 95.7867C185.239 96.2309 185.715 96.7732 186.097 97.4137C186.479 98.0491 186.743 98.7748 186.887 99.5909ZM191.477 94.6322V110.5H189.556V94.6322H191.477ZM195.544 110.5H193.53L199.356 94.6322H201.34L207.166 110.5H205.152L200.41 97.1426H200.286L195.544 110.5ZM196.288 104.302H204.408V106.006H196.288V104.302ZM209.202 110.5V94.6322H211.123V108.795H218.499V110.5H209.202ZM235.416 98.5992C235.323 97.814 234.946 97.2045 234.284 96.7707C233.623 96.3368 232.812 96.1198 231.852 96.1198C231.149 96.1198 230.534 96.2335 230.008 96.4607C229.486 96.688 229.078 97.0005 228.783 97.3982C228.494 97.796 228.35 98.2479 228.35 98.7541C228.35 99.1777 228.45 99.5418 228.652 99.8466C228.858 100.146 229.122 100.397 229.442 100.598C229.762 100.794 230.098 100.957 230.449 101.086C230.8 101.21 231.123 101.311 231.418 101.388L233.029 101.822C233.442 101.931 233.902 102.081 234.408 102.272C234.92 102.463 235.408 102.724 235.873 103.054C236.343 103.38 236.73 103.798 237.035 104.309C237.34 104.821 237.492 105.448 237.492 106.192C237.492 107.05 237.267 107.824 236.818 108.517C236.374 109.209 235.723 109.759 234.866 110.167C234.013 110.575 232.978 110.779 231.759 110.779C230.622 110.779 229.638 110.596 228.807 110.229C227.98 109.862 227.329 109.351 226.854 108.695C226.384 108.039 226.118 107.277 226.056 106.409H228.04C228.091 107.008 228.293 107.504 228.644 107.897C229 108.284 229.45 108.573 229.992 108.764C230.54 108.95 231.128 109.043 231.759 109.043C232.492 109.043 233.151 108.925 233.734 108.687C234.318 108.444 234.78 108.108 235.121 107.68C235.462 107.246 235.633 106.74 235.633 106.161C235.633 105.634 235.485 105.206 235.191 104.875C234.897 104.544 234.509 104.276 234.029 104.069C233.548 103.863 233.029 103.682 232.471 103.527L230.519 102.969C229.279 102.613 228.298 102.104 227.575 101.443C226.852 100.782 226.49 99.9163 226.49 98.8471C226.49 97.9587 226.73 97.1839 227.211 96.5227C227.696 95.8564 228.347 95.3399 229.163 94.9731C229.984 94.6012 230.901 94.4153 231.914 94.4153C232.936 94.4153 233.845 94.5987 234.641 94.9654C235.436 95.327 236.066 95.8228 236.531 96.453C237.001 97.0832 237.249 97.7986 237.275 98.5992H235.416ZM240.215 110.5V94.6322H249.791V96.3368H242.136V101.698H249.296V103.403H242.136V108.795H249.915V110.5H240.215ZM252.818 110.5V94.6322H254.74V108.795H262.116V110.5H252.818ZM264.655 110.5V94.6322H274.231V96.3368H266.576V101.698H273.735V103.403H266.576V108.795H274.355V110.5H264.655ZM290.027 99.5909H288.105C287.992 99.0382 287.793 98.5527 287.509 98.1343C287.23 97.7159 286.889 97.3647 286.486 97.0806C286.088 96.7913 285.647 96.5744 285.161 96.4298C284.675 96.2851 284.169 96.2128 283.642 96.2128C282.682 96.2128 281.811 96.4556 281.031 96.9411C280.257 97.4267 279.639 98.142 279.18 99.0873C278.725 100.033 278.498 101.192 278.498 102.566C278.498 103.94 278.725 105.1 279.18 106.045C279.639 106.99 280.257 107.706 281.031 108.191C281.811 108.677 282.682 108.919 283.642 108.919C284.169 108.919 284.675 108.847 285.161 108.702C285.647 108.558 286.088 108.343 286.486 108.059C286.889 107.77 287.23 107.416 287.509 106.998C287.793 106.574 287.992 106.089 288.105 105.541H290.027C289.882 106.352 289.619 107.078 289.236 107.718C288.854 108.359 288.379 108.904 287.811 109.353C287.243 109.798 286.605 110.136 285.897 110.368C285.195 110.601 284.443 110.717 283.642 110.717C282.289 110.717 281.086 110.386 280.032 109.725C278.978 109.064 278.149 108.124 277.545 106.905C276.94 105.686 276.638 104.24 276.638 102.566C276.638 100.893 276.94 99.4463 277.545 98.2273C278.149 97.0083 278.978 96.0682 280.032 95.407C281.086 94.7459 282.289 94.4153 283.642 94.4153C284.443 94.4153 285.195 94.5315 285.897 94.7639C286.605 94.9964 287.243 95.3373 287.811 95.7867C288.379 96.2309 288.854 96.7732 289.236 97.4137C289.619 98.0491 289.882 98.7748 290.027 99.5909ZM291.828 96.3368V94.6322H303.728V96.3368H298.739V110.5H296.817V96.3368H291.828ZM308.179 94.6322V110.5H306.258V94.6322H308.179ZM324.984 102.566C324.984 104.24 324.682 105.686 324.077 106.905C323.473 108.124 322.644 109.064 321.59 109.725C320.536 110.386 319.333 110.717 317.98 110.717C316.626 110.717 315.423 110.386 314.369 109.725C313.315 109.064 312.486 108.124 311.882 106.905C311.278 105.686 310.975 104.24 310.975 102.566C310.975 100.893 311.278 99.4463 311.882 98.2273C312.486 97.0083 313.315 96.0682 314.369 95.407C315.423 94.7459 316.626 94.4153 317.98 94.4153C319.333 94.4153 320.536 94.7459 321.59 95.407C322.644 96.0682 323.473 97.0083 324.077 98.2273C324.682 99.4463 324.984 100.893 324.984 102.566ZM323.124 102.566C323.124 101.192 322.894 100.033 322.435 99.0873C321.98 98.142 321.363 97.4267 320.583 96.9411C319.808 96.4556 318.94 96.2128 317.98 96.2128C317.019 96.2128 316.149 96.4556 315.369 96.9411C314.594 97.4267 313.977 98.142 313.517 99.0873C313.062 100.033 312.835 101.192 312.835 102.566C312.835 103.94 313.062 105.1 313.517 106.045C313.977 106.99 314.594 107.706 315.369 108.191C316.149 108.677 317.019 108.919 317.98 108.919C318.94 108.919 319.808 108.677 320.583 108.191C321.363 107.706 321.98 106.99 322.435 106.045C322.894 105.1 323.124 103.94 323.124 102.566ZM340.361 94.6322V110.5H338.501L329.855 98.0413H329.7V110.5H327.778V94.6322H329.638L338.315 107.122H338.47V94.6322H340.361Z" fill="white"/>
<path d="M175.91 155.5V126.605H181.144V138.838H194.533V126.605H199.782V155.5H194.533V143.225H181.144V155.5H175.91ZM204.68 155.5V126.605H209.914V139.882H210.267L221.54 126.605H227.931L216.757 139.571L228.03 155.5H221.737L213.117 143.113L209.914 146.894V155.5H204.68ZM242.173 126.605H247.365V146.922C247.355 148.784 246.96 150.388 246.18 151.733C245.399 153.069 244.308 154.099 242.906 154.823C241.514 155.538 239.892 155.895 238.039 155.895C236.346 155.895 234.822 155.594 233.468 154.992C232.123 154.381 231.055 153.478 230.265 152.283C229.475 151.089 229.08 149.603 229.08 147.825H234.286C234.295 148.606 234.465 149.278 234.794 149.842C235.132 150.407 235.598 150.839 236.191 151.14C236.783 151.441 237.465 151.592 238.236 151.592C239.073 151.592 239.784 151.418 240.367 151.07C240.95 150.712 241.392 150.186 241.693 149.49C242.003 148.794 242.163 147.938 242.173 146.922V126.605ZM252.249 155.5V126.605H270.759V130.993H257.483V138.838H269.49V143.225H257.483V155.5H252.249ZM274.733 155.5V126.605H293.244V130.993H279.968V138.838H291.974V143.225H279.968V155.5H274.733Z" fill="white"/>
<path d="M101.29 186.5V172.813H102.947V178.908H110.245V172.813H111.903V186.5H110.245V180.378H102.947V186.5H101.29ZM118.801 186.714C117.874 186.714 117.061 186.493 116.361 186.052C115.666 185.611 115.123 184.994 114.731 184.201C114.343 183.408 114.149 182.481 114.149 181.421C114.149 180.351 114.343 179.418 114.731 178.62C115.123 177.823 115.666 177.204 116.361 176.763C117.061 176.321 117.874 176.101 118.801 176.101C119.728 176.101 120.539 176.321 121.234 176.763C121.933 177.204 122.477 177.823 122.864 178.62C123.256 179.418 123.452 180.351 123.452 181.421C123.452 182.481 123.256 183.408 122.864 184.201C122.477 184.994 121.933 185.611 121.234 186.052C120.539 186.493 119.728 186.714 118.801 186.714ZM118.801 185.297C119.505 185.297 120.084 185.117 120.539 184.756C120.993 184.395 121.329 183.92 121.548 183.332C121.766 182.744 121.875 182.107 121.875 181.421C121.875 180.735 121.766 180.095 121.548 179.503C121.329 178.91 120.993 178.431 120.539 178.066C120.084 177.7 119.505 177.518 118.801 177.518C118.097 177.518 117.518 177.7 117.063 178.066C116.609 178.431 116.272 178.91 116.054 179.503C115.836 180.095 115.727 180.735 115.727 181.421C115.727 182.107 115.836 182.744 116.054 183.332C116.272 183.92 116.609 184.395 117.063 184.756C117.518 185.117 118.097 185.297 118.801 185.297ZM127.061 180.325V186.5H125.484V176.235H127.007V177.839H127.141C127.382 177.317 127.747 176.898 128.237 176.582C128.727 176.261 129.36 176.101 130.135 176.101C130.83 176.101 131.438 176.243 131.96 176.529C132.481 176.809 132.886 177.237 133.176 177.812C133.466 178.382 133.61 179.104 133.61 179.977V186.5H132.033V180.084C132.033 179.278 131.824 178.649 131.405 178.199C130.986 177.745 130.411 177.518 129.681 177.518C129.177 177.518 128.727 177.627 128.331 177.845C127.939 178.064 127.629 178.382 127.402 178.801C127.175 179.22 127.061 179.728 127.061 180.325ZM140.26 190.563C139.498 190.563 138.843 190.465 138.295 190.269C137.747 190.078 137.29 189.824 136.925 189.507C136.564 189.196 136.277 188.861 136.063 188.505L137.319 187.623C137.462 187.81 137.642 188.024 137.861 188.264C138.079 188.509 138.377 188.721 138.756 188.899C139.139 189.082 139.641 189.173 140.26 189.173C141.089 189.173 141.772 188.973 142.312 188.572C142.851 188.171 143.12 187.543 143.12 186.687V184.602H142.987C142.871 184.789 142.706 185.021 142.492 185.297C142.283 185.569 141.98 185.812 141.583 186.025C141.191 186.235 140.661 186.34 139.992 186.34C139.164 186.34 138.42 186.144 137.76 185.751C137.105 185.359 136.586 184.789 136.203 184.041C135.824 183.292 135.635 182.383 135.635 181.314C135.635 180.262 135.82 179.347 136.19 178.567C136.56 177.783 137.074 177.177 137.734 176.749C138.393 176.317 139.155 176.101 140.019 176.101C140.688 176.101 141.218 176.212 141.61 176.435C142.006 176.653 142.309 176.903 142.519 177.184C142.733 177.46 142.897 177.687 143.013 177.865H143.174V176.235H144.697V186.794C144.697 187.676 144.497 188.394 144.096 188.946C143.699 189.503 143.165 189.911 142.492 190.169C141.824 190.432 141.08 190.563 140.26 190.563ZM140.206 184.923C140.839 184.923 141.374 184.778 141.81 184.488C142.247 184.199 142.579 183.782 142.806 183.239C143.033 182.695 143.147 182.045 143.147 181.287C143.147 180.547 143.036 179.895 142.813 179.329C142.59 178.763 142.26 178.32 141.824 177.999C141.387 177.678 140.848 177.518 140.206 177.518C139.538 177.518 138.981 177.687 138.536 178.026C138.094 178.364 137.763 178.819 137.54 179.389C137.321 179.959 137.212 180.592 137.212 181.287C137.212 182 137.324 182.63 137.546 183.178C137.774 183.722 138.108 184.15 138.549 184.462C138.994 184.769 139.547 184.923 140.206 184.923ZM152.339 186.5V172.813H153.996V179.603H154.157L160.305 172.813H162.471L156.723 178.988L162.471 186.5H160.466L155.707 180.138L153.996 182.062V186.5H152.339ZM167.442 186.714C166.516 186.714 165.703 186.493 165.003 186.052C164.308 185.611 163.764 184.994 163.372 184.201C162.985 183.408 162.791 182.481 162.791 181.421C162.791 180.351 162.985 179.418 163.372 178.62C163.764 177.823 164.308 177.204 165.003 176.763C165.703 176.321 166.516 176.101 167.442 176.101C168.369 176.101 169.18 176.321 169.875 176.763C170.575 177.204 171.118 177.823 171.506 178.62C171.898 179.418 172.094 180.351 172.094 181.421C172.094 182.481 171.898 183.408 171.506 184.201C171.118 184.994 170.575 185.611 169.875 186.052C169.18 186.493 168.369 186.714 167.442 186.714ZM167.442 185.297C168.146 185.297 168.726 185.117 169.18 184.756C169.635 184.395 169.971 183.92 170.189 183.332C170.408 182.744 170.517 182.107 170.517 181.421C170.517 180.735 170.408 180.095 170.189 179.503C169.971 178.91 169.635 178.431 169.18 178.066C168.726 177.7 168.146 177.518 167.442 177.518C166.739 177.518 166.159 177.7 165.705 178.066C165.25 178.431 164.914 178.91 164.696 179.503C164.477 180.095 164.368 180.735 164.368 181.421C164.368 182.107 164.477 182.744 164.696 183.332C164.914 183.92 165.25 184.395 165.705 184.756C166.159 185.117 166.739 185.297 167.442 185.297ZM175.702 180.325V186.5H174.125V176.235H175.649V177.839H175.783C176.023 177.317 176.389 176.898 176.879 176.582C177.369 176.261 178.002 176.101 178.777 176.101C179.472 176.101 180.08 176.243 180.601 176.529C181.123 176.809 181.528 177.237 181.818 177.812C182.107 178.382 182.252 179.104 182.252 179.977V186.5H180.675V180.084C180.675 179.278 180.465 178.649 180.047 178.199C179.628 177.745 179.053 177.518 178.322 177.518C177.819 177.518 177.369 177.627 176.972 177.845C176.58 178.064 176.271 178.382 176.043 178.801C175.816 179.22 175.702 179.728 175.702 180.325ZM188.901 190.563C188.14 190.563 187.485 190.465 186.937 190.269C186.389 190.078 185.932 189.824 185.566 189.507C185.206 189.196 184.918 188.861 184.704 188.505L185.961 187.623C186.103 187.81 186.284 188.024 186.502 188.264C186.72 188.509 187.019 188.721 187.398 188.899C187.781 189.082 188.282 189.173 188.901 189.173C189.73 189.173 190.414 188.973 190.953 188.572C191.492 188.171 191.762 187.543 191.762 186.687V184.602H191.628C191.512 184.789 191.347 185.021 191.134 185.297C190.924 185.569 190.621 185.812 190.225 186.025C189.833 186.235 189.302 186.34 188.634 186.34C187.805 186.34 187.061 186.144 186.402 185.751C185.747 185.359 185.228 184.789 184.845 184.041C184.466 183.292 184.277 182.383 184.277 181.314C184.277 180.262 184.462 179.347 184.831 178.567C185.201 177.783 185.716 177.177 186.375 176.749C187.035 176.317 187.796 176.101 188.661 176.101C189.329 176.101 189.859 176.212 190.251 176.435C190.648 176.653 190.951 176.903 191.16 177.184C191.374 177.46 191.539 177.687 191.655 177.865H191.815V176.235H193.339V186.794C193.339 187.676 193.139 188.394 192.738 188.946C192.341 189.503 191.806 189.911 191.134 190.169C190.465 190.432 189.721 190.563 188.901 190.563ZM188.848 184.923C189.481 184.923 190.015 184.778 190.452 184.488C190.889 184.199 191.221 183.782 191.448 183.239C191.675 182.695 191.789 182.045 191.789 181.287C191.789 180.547 191.677 179.895 191.454 179.329C191.232 178.763 190.902 178.32 190.465 177.999C190.029 177.678 189.49 177.518 188.848 177.518C188.18 177.518 187.623 177.687 187.177 178.026C186.736 178.364 186.404 178.819 186.181 179.389C185.963 179.959 185.854 180.592 185.854 181.287C185.854 182 185.965 182.63 186.188 183.178C186.415 183.722 186.749 184.15 187.191 184.462C187.636 184.769 188.189 184.923 188.848 184.923ZM206.22 172.813H207.878V182.597C207.878 183.47 207.717 184.212 207.396 184.823C207.076 185.433 206.623 185.896 206.04 186.213C205.456 186.529 204.768 186.687 203.975 186.687C203.226 186.687 202.56 186.551 201.976 186.279C201.393 186.003 200.934 185.611 200.599 185.103C200.265 184.595 200.098 183.992 200.098 183.292H201.729C201.729 183.68 201.825 184.018 202.016 184.308C202.212 184.593 202.48 184.816 202.818 184.976C203.157 185.137 203.542 185.217 203.975 185.217C204.451 185.217 204.857 185.117 205.191 184.916C205.525 184.716 205.779 184.422 205.953 184.034C206.131 183.642 206.22 183.163 206.22 182.597V172.813ZM214.913 186.714C213.924 186.714 213.071 186.496 212.353 186.059C211.64 185.618 211.09 185.003 210.702 184.214C210.319 183.421 210.128 182.499 210.128 181.447C210.128 180.396 210.319 179.469 210.702 178.667C211.09 177.861 211.629 177.233 212.32 176.783C213.015 176.328 213.826 176.101 214.752 176.101C215.287 176.101 215.815 176.19 216.336 176.368C216.858 176.546 217.332 176.836 217.76 177.237C218.188 177.634 218.528 178.159 218.782 178.814C219.036 179.469 219.163 180.276 219.163 181.234V181.902H211.25V180.539H217.559C217.559 179.959 217.444 179.442 217.212 178.988C216.985 178.534 216.659 178.175 216.236 177.912C215.817 177.649 215.323 177.518 214.752 177.518C214.124 177.518 213.581 177.674 213.122 177.986C212.667 178.293 212.318 178.694 212.072 179.189C211.827 179.683 211.705 180.213 211.705 180.779V181.688C211.705 182.463 211.839 183.121 212.106 183.66C212.378 184.194 212.754 184.602 213.235 184.883C213.717 185.159 214.276 185.297 214.913 185.297C215.327 185.297 215.701 185.239 216.036 185.123C216.374 185.003 216.666 184.825 216.911 184.589C217.156 184.348 217.346 184.049 217.479 183.693L219.003 184.121C218.843 184.638 218.573 185.092 218.194 185.484C217.816 185.872 217.348 186.175 216.791 186.393C216.234 186.607 215.608 186.714 214.913 186.714ZM223.512 186.5L220.384 176.235H222.042L224.261 184.094H224.367L226.56 176.235H228.244L230.409 184.067H230.516L232.735 176.235H234.392L231.265 186.5H229.714L227.469 178.614H227.308L225.063 186.5H223.512ZM236.101 186.5V176.235H237.678V186.5H236.101ZM236.903 174.524C236.596 174.524 236.331 174.419 236.108 174.21C235.889 174 235.78 173.748 235.78 173.454C235.78 173.16 235.889 172.909 236.108 172.699C236.331 172.49 236.596 172.385 236.903 172.385C237.211 172.385 237.473 172.49 237.692 172.699C237.915 172.909 238.026 173.16 238.026 173.454C238.026 173.748 237.915 174 237.692 174.21C237.473 174.419 237.211 174.524 236.903 174.524ZM247.462 178.534L246.045 178.935C245.956 178.698 245.825 178.469 245.651 178.246C245.482 178.019 245.25 177.832 244.956 177.685C244.662 177.538 244.285 177.464 243.826 177.464C243.198 177.464 242.675 177.609 242.256 177.899C241.842 178.184 241.634 178.547 241.634 178.988C241.634 179.38 241.777 179.69 242.062 179.917C242.347 180.144 242.793 180.334 243.399 180.485L244.923 180.859C245.84 181.082 246.524 181.423 246.974 181.882C247.424 182.336 247.649 182.922 247.649 183.64C247.649 184.228 247.48 184.753 247.141 185.217C246.807 185.68 246.339 186.046 245.738 186.313C245.136 186.58 244.437 186.714 243.639 186.714C242.592 186.714 241.726 186.487 241.04 186.032C240.353 185.578 239.919 184.914 239.736 184.041L241.233 183.666C241.376 184.219 241.646 184.633 242.042 184.909C242.443 185.186 242.967 185.324 243.613 185.324C244.348 185.324 244.931 185.168 245.364 184.856C245.8 184.54 246.019 184.161 246.019 183.72C246.019 183.363 245.894 183.065 245.644 182.824C245.395 182.579 245.012 182.396 244.495 182.276L242.784 181.875C241.844 181.652 241.153 181.307 240.712 180.839C240.275 180.367 240.057 179.777 240.057 179.068C240.057 178.489 240.22 177.977 240.545 177.531C240.875 177.086 241.322 176.736 241.888 176.482C242.459 176.228 243.105 176.101 243.826 176.101C244.842 176.101 245.64 176.324 246.219 176.769C246.803 177.215 247.217 177.803 247.462 178.534ZM251.224 180.325V186.5H249.647V172.813H251.224V177.839H251.358C251.599 177.308 251.96 176.887 252.441 176.575C252.926 176.259 253.572 176.101 254.379 176.101C255.078 176.101 255.691 176.241 256.217 176.522C256.742 176.798 257.15 177.224 257.44 177.798C257.734 178.369 257.881 179.095 257.881 179.977V186.5H256.304V180.084C256.304 179.269 256.092 178.638 255.669 178.193C255.25 177.743 254.668 177.518 253.924 177.518C253.408 177.518 252.944 177.627 252.534 177.845C252.129 178.064 251.808 178.382 251.572 178.801C251.34 179.22 251.224 179.728 251.224 180.325ZM265.521 186.5V172.813H273.728V174.283H267.178V178.908H273.113V180.378H267.178V186.5H265.521ZM275.976 186.5V176.235H277.553V186.5H275.976ZM276.778 174.524C276.471 174.524 276.205 174.419 275.983 174.21C275.764 174 275.655 173.748 275.655 173.454C275.655 173.16 275.764 172.909 275.983 172.699C276.205 172.49 276.471 172.385 276.778 172.385C277.085 172.385 277.348 172.49 277.567 172.699C277.789 172.909 277.901 173.16 277.901 173.454C277.901 173.748 277.789 174 277.567 174.21C277.348 174.419 277.085 174.524 276.778 174.524ZM281.643 172.813V186.5H280.066V172.813H281.643ZM284.155 186.5V176.235H285.679V177.839H285.813C286.027 177.29 286.372 176.865 286.849 176.562C287.325 176.255 287.898 176.101 288.566 176.101C289.244 176.101 289.807 176.255 290.257 176.562C290.712 176.865 291.066 177.29 291.32 177.839H291.427C291.69 177.308 292.084 176.887 292.61 176.575C293.135 176.259 293.766 176.101 294.501 176.101C295.419 176.101 296.17 176.388 296.753 176.963C297.337 177.533 297.629 178.422 297.629 179.63V186.5H296.052V179.63C296.052 178.872 295.844 178.331 295.43 178.006C295.016 177.68 294.528 177.518 293.966 177.518C293.245 177.518 292.685 177.736 292.289 178.173C291.892 178.605 291.694 179.153 291.694 179.817V186.5H290.09V179.469C290.09 178.886 289.901 178.416 289.522 178.059C289.143 177.698 288.655 177.518 288.058 177.518C287.648 177.518 287.265 177.627 286.909 177.845C286.557 178.064 286.272 178.366 286.053 178.754C285.84 179.137 285.733 179.581 285.733 180.084V186.5H284.155ZM305.267 186.5V172.813H313.474V174.283H306.924V178.908H312.859V180.378H306.924V186.5H305.267ZM319.273 186.714C318.284 186.714 317.43 186.496 316.713 186.059C316 185.618 315.45 185.003 315.062 184.214C314.679 183.421 314.488 182.499 314.488 181.447C314.488 180.396 314.679 179.469 315.062 178.667C315.45 177.861 315.989 177.233 316.68 176.783C317.375 176.328 318.186 176.101 319.112 176.101C319.647 176.101 320.175 176.19 320.696 176.368C321.218 176.546 321.692 176.836 322.12 177.237C322.547 177.634 322.888 178.159 323.142 178.814C323.396 179.469 323.523 180.276 323.523 181.234V181.902H315.61V180.539H321.919C321.919 179.959 321.803 179.442 321.572 178.988C321.345 178.534 321.019 178.175 320.596 177.912C320.177 177.649 319.683 177.518 319.112 177.518C318.484 177.518 317.941 177.674 317.482 177.986C317.027 178.293 316.677 178.694 316.432 179.189C316.187 179.683 316.065 180.213 316.065 180.779V181.688C316.065 182.463 316.198 183.121 316.466 183.66C316.738 184.194 317.114 184.602 317.595 184.883C318.076 185.159 318.636 185.297 319.273 185.297C319.687 185.297 320.061 185.239 320.395 185.123C320.734 185.003 321.026 184.825 321.271 184.589C321.516 184.348 321.705 184.049 321.839 183.693L323.363 184.121C323.202 184.638 322.933 185.092 322.554 185.484C322.175 185.872 321.708 186.175 321.151 186.393C320.594 186.607 319.968 186.714 319.273 186.714ZM332.817 178.534L331.401 178.935C331.312 178.698 331.18 178.469 331.006 178.246C330.837 178.019 330.605 177.832 330.311 177.685C330.017 177.538 329.641 177.464 329.182 177.464C328.554 177.464 328.03 177.609 327.611 177.899C327.197 178.184 326.99 178.547 326.99 178.988C326.99 179.38 327.132 179.69 327.417 179.917C327.703 180.144 328.148 180.334 328.754 180.485L330.278 180.859C331.196 181.082 331.88 181.423 332.33 181.882C332.78 182.336 333.005 182.922 333.005 183.64C333.005 184.228 332.835 184.753 332.497 185.217C332.163 185.68 331.695 186.046 331.093 186.313C330.492 186.58 329.792 186.714 328.995 186.714C327.948 186.714 327.081 186.487 326.395 186.032C325.709 185.578 325.274 184.914 325.092 184.041L326.589 183.666C326.731 184.219 327.001 184.633 327.397 184.909C327.798 185.186 328.322 185.324 328.968 185.324C329.703 185.324 330.287 185.168 330.719 184.856C331.156 184.54 331.374 184.161 331.374 183.72C331.374 183.363 331.249 183.065 331 182.824C330.75 182.579 330.367 182.396 329.85 182.276L328.139 181.875C327.199 181.652 326.509 181.307 326.067 180.839C325.631 180.367 325.412 179.777 325.412 179.068C325.412 178.489 325.575 177.977 325.9 177.531C326.23 177.086 326.678 176.736 327.244 176.482C327.814 176.228 328.46 176.101 329.182 176.101C330.198 176.101 330.995 176.324 331.574 176.769C332.158 177.215 332.572 177.803 332.817 178.534ZM339.467 176.235V177.571H334.147V176.235H339.467ZM335.697 173.775H337.275V183.559C337.275 184.005 337.339 184.339 337.469 184.562C337.602 184.78 337.772 184.927 337.976 185.003C338.186 185.074 338.406 185.11 338.638 185.11C338.812 185.11 338.954 185.101 339.066 185.083C339.177 185.061 339.266 185.043 339.333 185.03L339.654 186.447C339.547 186.487 339.398 186.527 339.206 186.567C339.015 186.611 338.772 186.634 338.478 186.634C338.032 186.634 337.596 186.538 337.168 186.346C336.745 186.155 336.393 185.863 336.112 185.471C335.836 185.079 335.697 184.584 335.697 183.987V173.775ZM341.463 186.5V176.235H343.04V186.5H341.463ZM342.265 174.524C341.958 174.524 341.692 174.419 341.47 174.21C341.251 174 341.142 173.748 341.142 173.454C341.142 173.16 341.251 172.909 341.47 172.699C341.692 172.49 341.958 172.385 342.265 172.385C342.572 172.385 342.835 172.49 343.054 172.699C343.276 172.909 343.388 173.16 343.388 173.454C343.388 173.748 343.276 174 343.054 174.21C342.835 174.419 342.572 174.524 342.265 174.524ZM353.947 176.235L350.151 186.5H348.547L344.751 176.235H346.462L349.295 184.415H349.402L352.236 176.235H353.947ZM358.361 186.741C357.71 186.741 357.12 186.618 356.59 186.373C356.059 186.124 355.638 185.765 355.326 185.297C355.015 184.825 354.859 184.254 354.859 183.586C354.859 182.998 354.974 182.521 355.206 182.156C355.438 181.786 355.747 181.496 356.135 181.287C356.523 181.078 356.95 180.922 357.418 180.819C357.891 180.712 358.365 180.628 358.842 180.565C359.466 180.485 359.971 180.425 360.359 180.385C360.751 180.34 361.036 180.267 361.214 180.164C361.397 180.062 361.488 179.884 361.488 179.63V179.576C361.488 178.917 361.308 178.404 360.947 178.039C360.591 177.674 360.049 177.491 359.323 177.491C358.57 177.491 357.98 177.656 357.552 177.986C357.124 178.315 356.823 178.667 356.65 179.042L355.153 178.507C355.42 177.883 355.776 177.397 356.222 177.05C356.672 176.698 357.162 176.453 357.692 176.315C358.227 176.172 358.753 176.101 359.27 176.101C359.599 176.101 359.978 176.141 360.406 176.221C360.838 176.297 361.254 176.455 361.655 176.696C362.061 176.936 362.397 177.299 362.665 177.785C362.932 178.271 363.066 178.921 363.066 179.737V186.5H361.488V185.11H361.408C361.301 185.333 361.123 185.571 360.874 185.825C360.624 186.079 360.292 186.295 359.878 186.473C359.463 186.651 358.958 186.741 358.361 186.741ZM358.601 185.324C359.225 185.324 359.751 185.201 360.178 184.956C360.611 184.711 360.936 184.395 361.154 184.007C361.377 183.62 361.488 183.212 361.488 182.784V181.341C361.422 181.421 361.275 181.494 361.047 181.561C360.825 181.623 360.566 181.679 360.272 181.728C359.982 181.773 359.699 181.813 359.423 181.848C359.151 181.88 358.931 181.906 358.762 181.929C358.352 181.982 357.969 182.069 357.612 182.189C357.26 182.305 356.975 182.481 356.757 182.717C356.543 182.949 356.436 183.265 356.436 183.666C356.436 184.214 356.639 184.629 357.044 184.909C357.454 185.186 357.973 185.324 358.601 185.324ZM367.145 172.813V186.5H365.568V172.813H367.145Z" fill="white"/>
<path d="M419.748 73.6038C422.119 77.1463 424.394 81.5164 423.275 86.1997C419.414 83.9897 416.308 80.3814 413.846 76.8193C411.366 73.2333 408.791 69.42 407.908 65C412.779 66.2457 417.139 69.7037 419.748 73.6038Z" fill="white"/>
<path d="M426.666 95.1908C425.29 91.4902 422.28 88.2635 419.004 86.7585C415.962 85.3629 411.922 83.9064 408.372 85.6948C410.304 89.0871 413.485 91.9415 416.735 93.7369C419.656 95.3511 423.355 97.3068 427.017 96.4662C431.008 95.8549 432.938 91.8818 434.01 88.8763C435.495 84.723 434.48 79.1764 431.946 75.1016C428.451 76.5581 427.384 80.8794 426.654 83.9369C425.821 87.4172 425.798 91.4796 426.666 95.1908Z" fill="white"/>
<path d="M423.797 100.538C426.611 102.545 428.771 106.215 429.235 109.982C429.276 106.207 430.302 102.31 431.952 99.1713C433.46 96.2995 435.565 92.4182 439.311 91.6445C440.781 96.1159 440.305 101.585 437.926 105.204C436.127 107.946 433.342 111.38 429.287 111.288C425.587 111.477 422.392 108.95 419.878 106.841C417.173 104.573 414.734 101.257 413.707 97.6733C417.485 96.5764 421.101 98.6157 423.797 100.538Z" fill="white"/>
<path d="M428.284 124.805C428.696 121.114 427.462 117.123 425.161 114.657C422.946 112.28 419.841 109.689 415.974 110.101C416.051 113.841 417.923 117.406 419.855 120.076C421.654 122.563 424.425 125.639 428.053 126.082C431.825 126.721 435.507 124.412 437.901 121.695C440.977 118.199 442.811 113.507 442.445 108.809C438.57 108.904 435.634 112.25 433.463 114.78C431.121 117.508 429.204 121.1 428.284 124.805Z" fill="white"/>
<path d="M422.793 128.165C424.627 131.811 424.976 136.148 423.56 139.966C425.647 136.037 428.701 132.86 431.934 129.924C434.872 127.256 439.105 124.446 443.364 124.978C442.551 130.245 439.33 135.707 435.01 138.514C431.539 140.769 427.331 143.002 422.911 141.316C419.275 140.033 416.965 136.371 415.546 133.01C414.044 129.454 413.043 125.355 413.744 121.465C417.732 121.822 421.039 124.679 422.793 128.165Z" fill="white"/>
<path d="M415.085 154.02C417.392 150.507 418.197 146.111 417.254 141.984C416.36 138.075 413.641 134.505 409.676 133.395C408.024 137.161 407.995 141.542 408.595 145.515C409.154 149.191 410.521 153.48 413.918 155.531C418.113 158.192 423.013 156.618 427.035 155.026C432.226 152.973 436.912 148.005 439.103 142.666C434.567 141.228 429.93 143.6 426.15 145.567C422.24 147.602 418.157 150.504 415.085 154.02Z" fill="white"/>
<path d="M397.737 156.912C397.232 160.745 397.241 165.608 400.217 168.562C403.931 172.372 409.69 171.641 414.13 170.807C420.094 169.686 426.807 165.625 430.408 160.214C426.019 157.793 420.644 159.335 416.296 160.584L416.045 160.656C411.192 162.048 406.019 164.293 401.69 167.361C405.145 164.244 407.662 159.67 407.789 155.056C407.905 150.929 406.117 146.512 402.264 144.541C399.568 148.072 398.305 152.607 397.737 156.912Z" fill="white"/>
<path d="M394.407 184.994C389.643 184.893 383.106 184.325 380.442 179.403L380.404 179.336C378.276 175.176 380.439 170.313 382.163 166.715C384.213 162.437 387.013 158.078 391.016 154.949C394.857 158.263 394.485 163 393.34 167.116C391.976 172.011 387.264 176.181 382.385 178.555C388.034 176.453 394.202 175.194 400.07 174.825L400.667 174.787C405.382 174.484 411.518 174.089 415.27 177.541C409.586 182.364 401.518 185.144 394.407 184.994Z" fill="white"/>
</svg>
