<svg width="479" height="250" viewBox="0 0 479 250" fill="none" xmlns="http://www.w3.org/2000/svg">
<path d="M45.0379 86.1862C43.922 81.5024 46.2016 77.1344 48.5761 73.5942C51.1898 69.6967 55.551 66.2422 60.4216 65C59.5367 69.4188 56.9578 73.2303 54.4755 76.8138C52.0099 80.3739 48.9002 83.9796 45.0379 86.1862Z" fill="white"/>
<path d="M41.6395 95.171C42.5106 91.4619 42.4912 87.4012 41.662 83.9221C40.9328 80.8646 39.8717 76.5424 36.3794 75.084C33.8408 79.1559 32.8204 84.7009 34.2999 88.8559C35.3696 91.8612 37.2934 95.8348 41.2831 96.4498C44.9441 97.2938 48.6461 95.3409 51.5699 93.7285C54.8209 91.9359 58.0053 89.0839 59.94 85.6934C56.3909 83.9019 52.349 85.3557 49.3081 86.749C46.0303 88.2509 43.0192 91.4734 41.6395 95.171Z" fill="white"/>
<path d="M30.3663 105.181C32.1667 107.927 34.9526 111.368 39.0147 111.27C42.7086 111.454 45.8999 108.933 48.4131 106.829C51.1197 104.563 53.5628 101.25 54.5942 97.667C50.8161 96.5678 47.1989 98.6041 44.5015 100.525C41.6847 102.531 39.5184 106.202 39.053 109.971C39.0182 106.195 37.996 102.294 36.3482 99.1525C34.8416 96.2801 32.7422 92.3973 28.9967 91.6211C27.521 96.0906 27.9918 101.559 30.3663 105.181Z" fill="white"/>
<path d="M40.2158 126.063C36.4458 126.695 32.7683 124.385 30.38 121.668C27.3052 118.17 25.4757 113.477 25.8488 108.779C29.7217 108.878 32.655 112.226 34.823 114.757C37.158 117.484 39.0711 121.071 39.9889 124.771C39.5852 121.084 40.8233 117.101 43.1217 114.641C45.3401 112.265 48.4478 109.677 52.3144 110.092C52.2311 113.832 50.3566 117.394 48.4233 120.063C46.6212 122.549 43.8451 125.625 40.2158 126.063Z" fill="white"/>
<path d="M33.2521 138.487C36.7242 140.748 40.9354 142.985 45.3611 141.292C48.9918 140.007 51.3003 136.353 52.7201 132.998C54.224 129.444 55.2286 125.345 54.5331 121.455C50.5434 121.809 47.235 124.664 45.4779 128.148C43.6409 131.791 43.2885 136.127 44.6997 139.946C42.6147 136.017 39.5655 132.838 36.3355 129.9C33.3994 127.23 29.1701 124.417 24.9102 124.946C25.7207 130.213 28.9345 135.676 33.2521 138.487Z" fill="white"/>
<path d="M54.3045 155.53C57.7213 153.488 59.0963 149.19 59.6583 145.507C60.2641 141.535 60.2382 137.155 58.5886 133.387C54.6245 134.494 51.9035 138.062 51.005 141.97C50.0558 146.098 50.8568 150.499 53.1658 154.014C50.0965 150.493 46.015 147.585 42.1037 145.546C38.3256 143.577 33.6906 141.202 29.1533 142.636C31.3412 147.976 36.0215 152.947 41.2087 155.004C45.2258 156.596 50.1129 158.171 54.3045 155.53Z" fill="white"/>
<path d="M70.5033 156.912C71.0047 160.746 70.9906 165.608 68.0141 168.559C64.2945 172.367 58.5381 171.632 54.0983 170.794C48.1378 169.669 41.4282 165.604 37.832 160.191C42.224 157.772 47.5954 159.319 51.9436 160.572L52.1918 160.643C57.0454 162.039 62.2176 164.288 66.5433 167.361C63.0913 164.242 60.5761 159.664 60.453 155.049C60.3423 150.922 62.1337 146.506 65.9888 144.539C68.6802 148.071 69.9405 152.607 70.5033 156.912Z" fill="white"/>
<path d="M87.778 179.416C89.9699 175.243 87.7982 170.346 86.0676 166.727C84.0215 162.448 81.2261 158.087 77.2254 154.955C73.3839 158.266 73.7492 163.003 74.8913 167.12C76.2494 172.015 80.9576 176.188 85.8331 178.566C80.1866 176.46 74.02 175.196 68.1529 174.823L67.5586 174.785C62.8451 174.478 56.709 174.078 52.9531 177.527C58.6319 182.355 66.6982 185.14 73.8074 184.996C78.5716 184.899 85.1083 184.335 87.778 179.416Z" fill="white"/>
<path d="M171.603 42.0661C171.603 43.7397 171.3 45.186 170.696 46.405C170.092 47.624 169.263 48.564 168.209 49.2252C167.155 49.8864 165.952 50.2169 164.599 50.2169C163.245 50.2169 162.042 49.8864 160.988 49.2252C159.934 48.564 159.105 47.624 158.501 46.405C157.897 45.186 157.594 43.7397 157.594 42.0661C157.594 40.3926 157.897 38.9463 158.501 37.7273C159.105 36.5083 159.934 35.5682 160.988 34.907C162.042 34.2459 163.245 33.9153 164.599 33.9153C165.952 33.9153 167.155 34.2459 168.209 34.907C169.263 35.5682 170.092 36.5083 170.696 37.7273C171.3 38.9463 171.603 40.3926 171.603 42.0661ZM169.743 42.0661C169.743 40.6921 169.513 39.5325 169.054 38.5873C168.599 37.642 167.982 36.9267 167.202 36.4411C166.427 35.9556 165.559 35.7128 164.599 35.7128C163.638 35.7128 162.767 35.9556 161.987 36.4411C161.213 36.9267 160.595 37.642 160.136 38.5873C159.681 39.5325 159.454 40.6921 159.454 42.0661C159.454 43.4401 159.681 44.5997 160.136 45.5449C160.595 46.4902 161.213 47.2056 161.987 47.6911C162.767 48.1767 163.638 48.4194 164.599 48.4194C165.559 48.4194 166.427 48.1767 167.202 47.6911C167.982 47.2056 168.599 46.4902 169.054 45.5449C169.513 44.5997 169.743 43.4401 169.743 42.0661ZM179.449 38.0992V39.6488H173.034V38.0992H179.449ZM174.955 50V36.4566C174.955 35.7748 175.115 35.2066 175.435 34.7521C175.756 34.2975 176.171 33.9566 176.683 33.7293C177.194 33.5021 177.734 33.3884 178.302 33.3884C178.751 33.3884 179.118 33.4246 179.402 33.4969C179.686 33.5692 179.898 33.6364 180.038 33.6983L179.511 35.2789C179.418 35.2479 179.289 35.2092 179.123 35.1627C178.963 35.1162 178.751 35.093 178.488 35.093C177.884 35.093 177.447 35.2454 177.179 35.5501C176.915 35.8549 176.784 36.3017 176.784 36.8905V50H174.955ZM186.875 38.0992V39.6488H180.459V38.0992H186.875ZM182.381 50V36.4566C182.381 35.7748 182.541 35.2066 182.861 34.7521C183.181 34.2975 183.597 33.9566 184.109 33.7293C184.62 33.5021 185.16 33.3884 185.728 33.3884C186.177 33.3884 186.544 33.4246 186.828 33.4969C187.112 33.5692 187.324 33.6364 187.464 33.6983L186.937 35.2789C186.844 35.2479 186.715 35.2092 186.549 35.1627C186.389 35.1162 186.177 35.093 185.914 35.093C185.31 35.093 184.873 35.2454 184.605 35.5501C184.341 35.8549 184.209 36.3017 184.209 36.8905V50H182.381ZM189.001 50V38.0992H190.829V50H189.001ZM189.931 36.1157C189.574 36.1157 189.267 35.9943 189.009 35.7515C188.756 35.5088 188.629 35.2169 188.629 34.876C188.629 34.5351 188.756 34.2433 189.009 34.0005C189.267 33.7577 189.574 33.6364 189.931 33.6364C190.287 33.6364 190.592 33.7577 190.845 34.0005C191.103 34.2433 191.232 34.5351 191.232 34.876C191.232 35.2169 191.103 35.5088 190.845 35.7515C190.592 35.9943 190.287 36.1157 189.931 36.1157ZM198.577 50.2479C197.461 50.2479 196.5 49.9845 195.695 49.4576C194.889 48.9308 194.269 48.2051 193.835 47.2805C193.401 46.3559 193.184 45.2996 193.184 44.1116C193.184 42.9029 193.406 41.8363 193.851 40.9117C194.3 39.9819 194.925 39.2562 195.726 38.7345C196.531 38.2076 197.471 37.9442 198.546 37.9442C199.383 37.9442 200.137 38.0992 200.808 38.4091C201.48 38.719 202.03 39.1529 202.459 39.7107C202.887 40.2686 203.153 40.9194 203.257 41.6632H201.428C201.289 41.1209 200.979 40.6405 200.498 40.2221C200.023 39.7986 199.383 39.5868 198.577 39.5868C197.864 39.5868 197.239 39.7727 196.702 40.1446C196.17 40.5114 195.754 41.0305 195.454 41.702C195.16 42.3683 195.013 43.1508 195.013 44.0496C195.013 44.969 195.157 45.7696 195.447 46.4514C195.741 47.1333 196.154 47.6627 196.686 48.0398C197.224 48.4168 197.854 48.6054 198.577 48.6054C199.052 48.6054 199.483 48.5227 199.871 48.3574C200.258 48.1921 200.586 47.9545 200.855 47.6446C201.123 47.3347 201.314 46.9628 201.428 46.5289H203.257C203.153 47.2314 202.898 47.8642 202.49 48.4272C202.087 48.985 201.552 49.4292 200.886 49.7598C200.225 50.0852 199.455 50.2479 198.577 50.2479ZM205.493 50V38.0992H207.322V50H205.493ZM206.423 36.1157C206.067 36.1157 205.759 35.9943 205.501 35.7515C205.248 35.5088 205.121 35.2169 205.121 34.876C205.121 34.5351 205.248 34.2433 205.501 34.0005C205.759 33.7577 206.067 33.6364 206.423 33.6364C206.779 33.6364 207.084 33.7577 207.337 34.0005C207.596 34.2433 207.725 34.5351 207.725 34.876C207.725 35.2169 207.596 35.5088 207.337 35.7515C207.084 35.9943 206.779 36.1157 206.423 36.1157ZM213.737 50.2789C212.982 50.2789 212.298 50.1369 211.683 49.8528C211.069 49.5635 210.581 49.1477 210.219 48.6054C209.857 48.0579 209.677 47.3967 209.677 46.6219C209.677 45.9401 209.811 45.3874 210.079 44.9638C210.348 44.5351 210.707 44.1994 211.156 43.9566C211.606 43.7138 212.102 43.5331 212.644 43.4143C213.192 43.2903 213.742 43.1921 214.294 43.1198C215.018 43.0269 215.604 42.9571 216.053 42.9106C216.508 42.859 216.838 42.7738 217.045 42.655C217.257 42.5362 217.363 42.3295 217.363 42.0351V41.9731C217.363 41.2087 217.153 40.6147 216.735 40.1911C216.322 39.7676 215.694 39.5558 214.852 39.5558C213.979 39.5558 213.295 39.7469 212.799 40.1291C212.303 40.5114 211.954 40.9194 211.753 41.3533L210.018 40.7335C210.327 40.0103 210.741 39.4473 211.257 39.0444C211.779 38.6364 212.347 38.3523 212.962 38.1921C213.582 38.0269 214.191 37.9442 214.79 37.9442C215.172 37.9442 215.612 37.9907 216.107 38.0837C216.608 38.1715 217.091 38.3549 217.556 38.6338C218.026 38.9127 218.416 39.3337 218.726 39.8967C219.036 40.4597 219.191 41.2138 219.191 42.1591V50H217.363V48.3884H217.27C217.146 48.6467 216.939 48.923 216.65 49.2175C216.36 49.5119 215.976 49.7624 215.495 49.969C215.015 50.1756 214.429 50.2789 213.737 50.2789ZM214.015 48.6364C214.739 48.6364 215.348 48.4943 215.844 48.2102C216.345 47.9261 216.722 47.5594 216.975 47.11C217.233 46.6606 217.363 46.188 217.363 45.6921V44.0186C217.285 44.1116 217.115 44.1968 216.851 44.2743C216.593 44.3466 216.293 44.4112 215.952 44.468C215.617 44.5196 215.289 44.5661 214.968 44.6074C214.653 44.6436 214.398 44.6746 214.201 44.7004C213.726 44.7624 213.282 44.8631 212.869 45.0026C212.461 45.1369 212.13 45.3409 211.877 45.6147C211.629 45.8833 211.505 46.25 211.505 46.7149C211.505 47.3502 211.74 47.8306 212.21 48.156C212.685 48.4762 213.287 48.6364 214.015 48.6364ZM223.921 34.1322V50H222.092V34.1322H223.921ZM241.459 38.0992C241.366 37.314 240.989 36.7045 240.328 36.2707C239.667 35.8368 238.856 35.6198 237.895 35.6198C237.192 35.6198 236.578 35.7335 236.051 35.9607C235.529 36.188 235.121 36.5005 234.827 36.8982C234.537 37.296 234.393 37.7479 234.393 38.2541C234.393 38.6777 234.494 39.0418 234.695 39.3466C234.902 39.6462 235.165 39.8967 235.485 40.0981C235.806 40.2944 236.141 40.4571 236.493 40.5863C236.844 40.7102 237.167 40.811 237.461 40.8884L239.073 41.3223C239.486 41.4308 239.946 41.5806 240.452 41.7717C240.963 41.9628 241.451 42.2237 241.916 42.5542C242.386 42.8796 242.774 43.298 243.078 43.8094C243.383 44.3208 243.535 44.9483 243.535 45.6921C243.535 46.5496 243.311 47.3244 242.861 48.0165C242.417 48.7087 241.766 49.2588 240.909 49.6668C240.057 50.0749 239.021 50.2789 237.802 50.2789C236.666 50.2789 235.682 50.0956 234.85 49.7288C234.024 49.3621 233.373 48.8507 232.897 48.1947C232.427 47.5387 232.161 46.7769 232.099 45.9091H234.083C234.135 46.5083 234.336 47.0041 234.687 47.3967C235.044 47.7841 235.493 48.0733 236.035 48.2645C236.583 48.4504 237.172 48.5434 237.802 48.5434C238.535 48.5434 239.194 48.4246 239.778 48.187C240.361 47.9442 240.824 47.6085 241.165 47.1798C241.505 46.7459 241.676 46.2397 241.676 45.6612C241.676 45.1343 241.529 44.7056 241.234 44.375C240.94 44.0444 240.552 43.7758 240.072 43.5692C239.592 43.3626 239.073 43.1818 238.515 43.0269L236.562 42.469C235.323 42.1126 234.341 41.6038 233.618 40.9427C232.895 40.2815 232.533 39.4163 232.533 38.3471C232.533 37.4587 232.774 36.6839 233.254 36.0227C233.739 35.3564 234.39 34.8399 235.206 34.4731C236.028 34.1012 236.944 33.9153 237.957 33.9153C238.98 33.9153 239.889 34.0987 240.684 34.4654C241.48 34.827 242.11 35.3228 242.575 35.953C243.045 36.5832 243.293 37.2986 243.318 38.0992H241.459ZM251 50.2479C249.853 50.2479 248.864 49.9948 248.033 49.4886C247.206 48.9773 246.568 48.2645 246.119 47.3502C245.675 46.4308 245.452 45.3616 245.452 44.1426C245.452 42.9236 245.675 41.8492 246.119 40.9194C246.568 39.9845 247.193 39.2562 247.994 38.7345C248.8 38.2076 249.74 37.9442 250.814 37.9442C251.434 37.9442 252.046 38.0475 252.65 38.2541C253.255 38.4607 253.805 38.7965 254.301 39.2614C254.796 39.7211 255.192 40.3306 255.486 41.0899C255.78 41.8492 255.928 42.7841 255.928 43.8946V44.6694H246.754V43.0888H254.068C254.068 42.4174 253.934 41.8182 253.665 41.2913C253.402 40.7645 253.025 40.3487 252.534 40.0439C252.049 39.7392 251.475 39.5868 250.814 39.5868C250.086 39.5868 249.456 39.7676 248.924 40.1291C248.397 40.4855 247.991 40.9504 247.707 41.5238C247.423 42.0971 247.281 42.7118 247.281 43.3678V44.4215C247.281 45.3202 247.436 46.0821 247.746 46.7071C248.061 47.327 248.497 47.7996 249.055 48.125C249.613 48.4452 250.261 48.6054 251 48.6054C251.48 48.6054 251.914 48.5382 252.302 48.4039C252.694 48.2645 253.033 48.0579 253.317 47.7841C253.601 47.5052 253.82 47.1591 253.975 46.7459L255.742 47.2417C255.556 47.8409 255.243 48.3678 254.804 48.8223C254.365 49.2717 253.823 49.6229 253.177 49.876C252.531 50.124 251.806 50.2479 251 50.2479ZM260.101 34.1322V50H258.273V34.1322H260.101ZM268.004 50.2479C266.857 50.2479 265.868 49.9948 265.036 49.4886C264.21 48.9773 263.572 48.2645 263.122 47.3502C262.678 46.4308 262.456 45.3616 262.456 44.1426C262.456 42.9236 262.678 41.8492 263.122 40.9194C263.572 39.9845 264.197 39.2562 264.997 38.7345C265.803 38.2076 266.743 37.9442 267.818 37.9442C268.438 37.9442 269.05 38.0475 269.654 38.2541C270.258 38.4607 270.808 38.7965 271.304 39.2614C271.8 39.7211 272.195 40.3306 272.49 41.0899C272.784 41.8492 272.931 42.7841 272.931 43.8946V44.6694H263.758V43.0888H271.072C271.072 42.4174 270.938 41.8182 270.669 41.2913C270.406 40.7645 270.028 40.3487 269.538 40.0439C269.052 39.7392 268.479 39.5868 267.818 39.5868C267.089 39.5868 266.459 39.7676 265.927 40.1291C265.4 40.4855 264.995 40.9504 264.711 41.5238C264.427 42.0971 264.285 42.7118 264.285 43.3678V44.4215C264.285 45.3202 264.44 46.0821 264.75 46.7071C265.065 47.327 265.501 47.7996 266.059 48.125C266.617 48.4452 267.265 48.6054 268.004 48.6054C268.484 48.6054 268.918 48.5382 269.305 48.4039C269.698 48.2645 270.036 48.0579 270.32 47.7841C270.604 47.5052 270.824 47.1591 270.979 46.7459L272.745 47.2417C272.559 47.8409 272.247 48.3678 271.808 48.8223C271.369 49.2717 270.827 49.6229 270.181 49.876C269.535 50.124 268.809 50.2479 268.004 50.2479ZM280.111 50.2479C278.996 50.2479 278.035 49.9845 277.229 49.4576C276.423 48.9308 275.803 48.2051 275.369 47.2805C274.936 46.3559 274.719 45.2996 274.719 44.1116C274.719 42.9029 274.941 41.8363 275.385 40.9117C275.834 39.9819 276.459 39.2562 277.26 38.7345C278.066 38.2076 279.006 37.9442 280.08 37.9442C280.917 37.9442 281.671 38.0992 282.343 38.4091C283.014 38.719 283.564 39.1529 283.993 39.7107C284.422 40.2686 284.688 40.9194 284.791 41.6632H282.962C282.823 41.1209 282.513 40.6405 282.033 40.2221C281.557 39.7986 280.917 39.5868 280.111 39.5868C279.398 39.5868 278.773 39.7727 278.236 40.1446C277.704 40.5114 277.288 41.0305 276.989 41.702C276.694 42.3683 276.547 43.1508 276.547 44.0496C276.547 44.969 276.692 45.7696 276.981 46.4514C277.275 47.1333 277.689 47.6627 278.221 48.0398C278.758 48.4168 279.388 48.6054 280.111 48.6054C280.586 48.6054 281.018 48.5227 281.405 48.3574C281.793 48.1921 282.121 47.9545 282.389 47.6446C282.658 47.3347 282.849 46.9628 282.962 46.5289H284.791C284.688 47.2314 284.432 47.8642 284.024 48.4272C283.621 48.985 283.086 49.4292 282.42 49.7598C281.759 50.0852 280.989 50.2479 280.111 50.2479ZM292.203 38.0992V39.6488H286.036V38.0992H292.203ZM287.833 35.2479H289.662V46.5909C289.662 47.1074 289.737 47.4948 289.887 47.7531C290.042 48.0062 290.238 48.1767 290.475 48.2645C290.718 48.3471 290.974 48.3884 291.243 48.3884C291.444 48.3884 291.609 48.3781 291.738 48.3574C291.868 48.3316 291.971 48.311 292.048 48.2955L292.42 49.938C292.296 49.9845 292.123 50.031 291.901 50.0775C291.679 50.1291 291.397 50.155 291.057 50.155C290.54 50.155 290.034 50.0439 289.538 49.8218C289.047 49.5997 288.639 49.2614 288.314 48.8068C287.994 48.3523 287.833 47.7789 287.833 47.0868V35.2479ZM294.517 50V38.0992H296.346V50H294.517ZM295.447 36.1157C295.091 36.1157 294.783 35.9943 294.525 35.7515C294.272 35.5088 294.145 35.2169 294.145 34.876C294.145 34.5351 294.272 34.2433 294.525 34.0005C294.783 33.7577 295.091 33.6364 295.447 33.6364C295.804 33.6364 296.108 33.7577 296.361 34.0005C296.62 34.2433 296.749 34.5351 296.749 34.876C296.749 35.2169 296.62 35.5088 296.361 35.7515C296.108 35.9943 295.804 36.1157 295.447 36.1157ZM304.093 50.2479C303.019 50.2479 302.076 49.9923 301.265 49.4809C300.46 48.9695 299.829 48.2541 299.375 47.3347C298.925 46.4153 298.701 45.3409 298.701 44.1116C298.701 42.8719 298.925 41.7898 299.375 40.8652C299.829 39.9406 300.46 39.2226 301.265 38.7113C302.076 38.1999 303.019 37.9442 304.093 37.9442C305.168 37.9442 306.108 38.1999 306.914 38.7113C307.725 39.2226 308.355 39.9406 308.804 40.8652C309.259 41.7898 309.486 42.8719 309.486 44.1116C309.486 45.3409 309.259 46.4153 308.804 47.3347C308.355 48.2541 307.725 48.9695 306.914 49.4809C306.108 49.9923 305.168 50.2479 304.093 50.2479ZM304.093 48.6054C304.909 48.6054 305.581 48.3962 306.108 47.9778C306.635 47.5594 307.025 47.0093 307.278 46.3275C307.531 45.6457 307.657 44.907 307.657 44.1116C307.657 43.3161 307.531 42.5749 307.278 41.8879C307.025 41.2009 306.635 40.6457 306.108 40.2221C305.581 39.7986 304.909 39.5868 304.093 39.5868C303.277 39.5868 302.606 39.7986 302.079 40.2221C301.552 40.6457 301.162 41.2009 300.909 41.8879C300.656 42.5749 300.529 43.3161 300.529 44.1116C300.529 44.907 300.656 45.6457 300.909 46.3275C301.162 47.0093 301.552 47.5594 302.079 47.9778C302.606 48.3962 303.277 48.6054 304.093 48.6054ZM313.669 42.8409V50H311.841V38.0992H313.607V39.9587H313.762C314.041 39.3543 314.465 38.8688 315.033 38.5021C315.601 38.1302 316.335 37.9442 317.233 37.9442C318.039 37.9442 318.744 38.1095 319.348 38.4401C319.953 38.7655 320.423 39.2614 320.759 39.9277C321.094 40.5888 321.262 41.4256 321.262 42.438V50H319.434V42.562C319.434 41.6271 319.191 40.8988 318.705 40.3771C318.22 39.8502 317.554 39.5868 316.706 39.5868C316.123 39.5868 315.601 39.7133 315.141 39.9664C314.687 40.2195 314.328 40.5888 314.064 41.0744C313.801 41.5599 313.669 42.1488 313.669 42.8409Z" fill="white"/>
<path d="M114.518 95L106.363 66.1055H111.992L117.198 87.339H117.466L123.025 66.1055H128.147L133.72 87.3531H133.974L139.18 66.1055H144.809L136.654 95H131.491L125.706 74.7258H125.48L119.682 95H114.518ZM148.639 95H143.052L153.224 66.1055H159.686L169.872 95H164.285L156.568 72.0311H156.342L148.639 95ZM148.822 83.6707H164.059V87.8751H148.822V83.6707ZM188.121 74.0486C187.989 72.8165 187.434 71.8571 186.456 71.1705C185.487 70.4838 184.227 70.1405 182.675 70.1405C181.584 70.1405 180.648 70.3051 179.867 70.6343C179.086 70.9635 178.489 71.4103 178.075 71.9747C177.661 72.539 177.45 73.1833 177.44 73.9075C177.44 74.5095 177.577 75.0315 177.85 75.4736C178.132 75.9157 178.513 76.2919 178.992 76.6023C179.472 76.9033 180.004 77.1572 180.587 77.3642C181.17 77.5711 181.758 77.7451 182.35 77.8862L185.059 78.5634C186.15 78.8174 187.199 79.1607 188.205 79.5933C189.221 80.026 190.129 80.5715 190.928 81.2299C191.737 81.8883 192.377 82.6831 192.847 83.6143C193.317 84.5455 193.553 85.6365 193.553 86.8875C193.553 88.5806 193.12 90.0714 192.255 91.36C191.389 92.6392 190.138 93.6409 188.502 94.3651C186.874 95.0799 184.904 95.4374 182.59 95.4374C180.342 95.4374 178.39 95.0894 176.735 94.3933C175.089 93.6973 173.8 92.6815 172.869 91.3459C171.947 90.0102 171.449 88.383 171.374 86.4643H176.523C176.599 87.4707 176.909 88.3078 177.455 88.9756C178 89.6434 178.71 90.1419 179.585 90.4711C180.469 90.8003 181.457 90.9649 182.548 90.9649C183.686 90.9649 184.683 90.7956 185.539 90.457C186.404 90.109 187.081 89.6293 187.57 89.0179C188.06 88.3971 188.309 87.6729 188.318 86.8452C188.309 86.0927 188.088 85.4719 187.655 84.9828C187.222 84.4843 186.616 84.0705 185.835 83.7413C185.064 83.4027 184.161 83.1017 183.126 82.8383L179.839 81.9918C177.459 81.3804 175.578 80.454 174.195 79.2124C172.822 77.9614 172.136 76.3013 172.136 74.232C172.136 72.5296 172.596 71.0388 173.518 69.7596C174.449 68.4804 175.714 67.4881 177.313 66.7827C178.912 66.0678 180.723 65.7104 182.745 65.7104C184.796 65.7104 186.592 66.0678 188.135 66.7827C189.687 67.4881 190.905 68.471 191.789 69.7314C192.673 70.9823 193.129 72.4214 193.157 74.0486H188.121ZM197.424 95V66.1055H202.659V78.3377H216.048V66.1055H221.296V95H216.048V82.7255H202.659V95H197.424ZM231.429 66.1055V95H226.194V66.1055H231.429ZM260.047 66.1055V95H255.391L241.777 75.3184H241.537V95H236.302V66.1055H240.986L254.587 85.8012H254.841V66.1055H260.047ZM284.313 75.3325C284.078 74.5707 283.754 73.8887 283.34 73.2868C282.935 72.6754 282.446 72.1534 281.872 71.7207C281.308 71.288 280.659 70.9635 279.925 70.7472C279.192 70.5215 278.392 70.4086 277.527 70.4086C275.975 70.4086 274.592 70.7989 273.379 71.5796C272.166 72.3603 271.211 73.5078 270.515 75.0221C269.828 76.5271 269.485 78.3612 269.485 80.5245C269.485 82.7066 269.828 84.5549 270.515 86.0692C271.202 87.5835 272.156 88.7358 273.379 89.5258C274.602 90.3065 276.022 90.6969 277.64 90.6969C279.107 90.6969 280.377 90.4147 281.449 89.8503C282.531 89.286 283.363 88.4865 283.946 87.4519C284.529 86.4078 284.821 85.1851 284.821 83.7836L286.006 83.967H278.162V79.8755H289.886V83.3462C289.886 85.82 289.359 87.9598 288.306 89.7657C287.252 91.5716 285.804 92.9636 283.96 93.9419C282.117 94.9106 280.001 95.395 277.612 95.395C274.95 95.395 272.612 94.7978 270.6 93.6032C268.596 92.3993 267.03 90.6922 265.901 88.4818C264.782 86.262 264.222 83.6284 264.222 80.5809C264.222 78.2483 264.552 76.1649 265.21 74.3308C265.878 72.4967 266.809 70.94 268.004 69.6608C269.198 68.3722 270.6 67.394 272.208 66.7262C273.816 66.049 275.566 65.7104 277.456 65.7104C279.055 65.7104 280.546 65.9456 281.929 66.4158C283.311 66.8767 284.539 67.5351 285.611 68.3911C286.693 69.247 287.582 70.2628 288.278 71.4385C288.974 72.6143 289.43 73.9122 289.646 75.3325H284.313ZM291.642 70.4933V66.1055H314.695V70.4933H305.764V95H300.572V70.4933H291.642ZM342.883 80.5527C342.883 83.666 342.3 86.3326 341.134 88.5523C339.977 90.7627 338.397 92.4557 336.393 93.6315C334.399 94.8072 332.137 95.395 329.607 95.395C327.077 95.395 324.81 94.8072 322.807 93.6315C320.813 92.4463 319.232 90.7486 318.066 88.5382C316.909 86.3185 316.331 83.6566 316.331 80.5527C316.331 77.4394 316.909 74.7776 318.066 72.5672C319.232 70.3475 320.813 68.6497 322.807 67.474C324.81 66.2983 327.077 65.7104 329.607 65.7104C332.137 65.7104 334.399 66.2983 336.393 67.474C338.397 68.6497 339.977 70.3475 341.134 72.5672C342.3 74.7776 342.883 77.4394 342.883 80.5527ZM337.621 80.5527C337.621 78.3612 337.277 76.5129 336.591 75.008C335.914 73.4937 334.973 72.3509 333.769 71.5796C332.565 70.7989 331.178 70.4086 329.607 70.4086C328.036 70.4086 326.649 70.7989 325.445 71.5796C324.241 72.3509 323.296 73.4937 322.609 75.008C321.932 76.5129 321.593 78.3612 321.593 80.5527C321.593 82.7443 321.932 84.5972 322.609 86.1115C323.296 87.6165 324.241 88.7593 325.445 89.5399C326.649 90.3112 328.036 90.6969 329.607 90.6969C331.178 90.6969 332.565 90.3112 333.769 89.5399C334.973 88.7593 335.914 87.6165 336.591 86.1115C337.277 84.5972 337.621 82.7443 337.621 80.5527ZM370.782 66.1055V95H366.126L352.511 75.3184H352.272V95H347.037V66.1055H351.721L365.322 85.8012H365.576V66.1055H370.782ZM179.511 110.105H184.703V130.422C184.693 132.284 184.298 133.888 183.518 135.233C182.737 136.569 181.646 137.599 180.245 138.323C178.852 139.038 177.23 139.395 175.377 139.395C173.684 139.395 172.16 139.094 170.806 138.492C169.461 137.881 168.393 136.978 167.603 135.783C166.813 134.589 166.418 133.103 166.418 131.325H171.624C171.634 132.106 171.803 132.778 172.132 133.342C172.471 133.907 172.936 134.339 173.529 134.64C174.121 134.941 174.803 135.092 175.575 135.092C176.412 135.092 177.122 134.918 177.705 134.57C178.288 134.212 178.73 133.686 179.031 132.99C179.342 132.294 179.501 131.438 179.511 130.422V110.105ZM189.587 139V110.105H208.38V114.493H194.821V122.338H207.406V126.725H194.821V134.612H208.493V139H189.587ZM219.006 139L210.851 110.105H216.481L221.687 131.339H221.955L227.514 110.105H232.635L238.208 131.353H238.462L243.668 110.105H249.297L241.143 139H235.979L230.194 118.726H229.969L224.17 139H219.006ZM257.367 110.105V139H252.132V110.105H257.367ZM277.943 118.049C277.811 116.816 277.256 115.857 276.278 115.17C275.309 114.484 274.049 114.141 272.497 114.141C271.406 114.141 270.47 114.305 269.69 114.634C268.909 114.964 268.312 115.41 267.898 115.975C267.484 116.539 267.272 117.183 267.263 117.908C267.263 118.51 267.399 119.032 267.672 119.474C267.954 119.916 268.335 120.292 268.815 120.602C269.294 120.903 269.826 121.157 270.409 121.364C270.992 121.571 271.58 121.745 272.173 121.886L274.882 122.563C275.973 122.817 277.021 123.161 278.028 123.593C279.044 124.026 279.951 124.572 280.751 125.23C281.56 125.888 282.199 126.683 282.669 127.614C283.14 128.545 283.375 129.637 283.375 130.888C283.375 132.581 282.942 134.071 282.077 135.36C281.212 136.639 279.961 137.641 278.324 138.365C276.697 139.08 274.726 139.437 272.412 139.437C270.165 139.437 268.213 139.089 266.557 138.393C264.911 137.697 263.623 136.681 262.692 135.346C261.77 134.01 261.271 132.383 261.196 130.464H266.346C266.421 131.471 266.731 132.308 267.277 132.976C267.822 133.643 268.533 134.142 269.407 134.471C270.291 134.8 271.279 134.965 272.37 134.965C273.508 134.965 274.505 134.796 275.361 134.457C276.227 134.109 276.904 133.629 277.393 133.018C277.882 132.397 278.131 131.673 278.141 130.845C278.131 130.093 277.91 129.472 277.478 128.983C277.045 128.484 276.438 128.07 275.657 127.741C274.886 127.403 273.983 127.102 272.949 126.838L269.661 125.992C267.282 125.38 265.4 124.454 264.018 123.212C262.645 121.961 261.958 120.301 261.958 118.232C261.958 116.53 262.419 115.039 263.341 113.76C264.272 112.48 265.537 111.488 267.136 110.783C268.735 110.068 270.545 109.71 272.568 109.71C274.618 109.71 276.415 110.068 277.957 110.783C279.509 111.488 280.727 112.471 281.611 113.731C282.495 114.982 282.952 116.421 282.98 118.049H277.943ZM287.247 139V110.105H292.481V122.338H305.87V110.105H311.119V139H305.87V126.725H292.481V139H287.247ZM102.47 183V154.105H120.981V158.493H107.705V166.338H119.711V170.725H107.705V183H102.47ZM130.189 154.105V183H124.955V154.105H130.189ZM135.063 183V154.105H140.297V178.612H153.023V183H135.063ZM156.772 154.105H163.177L171.755 175.043H172.094L180.672 154.105H187.077V183H182.054V163.149H181.786L173.801 182.915H170.048L162.062 163.107H161.794V183H156.772V154.105ZM201.043 183V154.105H219.553V158.493H206.277V166.338H218.284V170.725H206.277V183H201.043ZM223.527 183V154.105H242.32V158.493H228.762V166.338H241.347V170.725H228.762V178.612H242.433V183H223.527ZM262.569 162.049C262.437 160.816 261.882 159.857 260.904 159.17C259.935 158.484 258.675 158.141 257.123 158.141C256.032 158.141 255.096 158.305 254.315 158.634C253.534 158.964 252.937 159.41 252.523 159.975C252.109 160.539 251.898 161.183 251.888 161.908C251.888 162.51 252.025 163.032 252.298 163.474C252.58 163.916 252.961 164.292 253.44 164.602C253.92 164.903 254.451 165.157 255.035 165.364C255.618 165.571 256.206 165.745 256.798 165.886L259.507 166.563C260.598 166.817 261.647 167.161 262.653 167.593C263.669 168.026 264.577 168.572 265.376 169.23C266.185 169.888 266.825 170.683 267.295 171.614C267.765 172.545 268.001 173.637 268.001 174.888C268.001 176.581 267.568 178.071 266.703 179.36C265.837 180.639 264.586 181.641 262.95 182.365C261.322 183.08 259.352 183.437 257.038 183.437C254.79 183.437 252.838 183.089 251.183 182.393C249.537 181.697 248.248 180.681 247.317 179.346C246.395 178.01 245.897 176.383 245.822 174.464H250.971C251.047 175.471 251.357 176.308 251.903 176.976C252.448 177.643 253.158 178.142 254.033 178.471C254.917 178.8 255.905 178.965 256.996 178.965C258.134 178.965 259.131 178.796 259.987 178.457C260.852 178.109 261.529 177.629 262.018 177.018C262.508 176.397 262.757 175.673 262.766 174.845C262.757 174.093 262.536 173.472 262.103 172.983C261.67 172.484 261.064 172.07 260.283 171.741C259.512 171.403 258.609 171.102 257.574 170.838L254.287 169.992C251.907 169.38 250.026 168.454 248.643 167.212C247.27 165.961 246.584 164.301 246.584 162.232C246.584 160.53 247.044 159.039 247.966 157.76C248.897 156.48 250.162 155.488 251.761 154.783C253.36 154.068 255.171 153.71 257.193 153.71C259.244 153.71 261.04 154.068 262.583 154.783C264.135 155.488 265.353 156.471 266.237 157.731C267.121 158.982 267.577 160.421 267.605 162.049H262.569ZM270.603 158.493V154.105H293.656V158.493H284.725V183H279.533V158.493H270.603ZM302.54 154.105V183H297.306V154.105H302.54ZM311.279 154.105L318.799 176.849H319.096L326.601 154.105H332.358L322.171 183H315.71L305.537 154.105H311.279ZM335.704 183H330.117L340.289 154.105H346.751L356.938 183H351.351L343.633 160.031H343.407L335.704 183ZM335.887 171.671H351.125V175.875H335.887V171.671ZM359.949 183V154.105H365.183V178.612H377.909V183H359.949Z" fill="white"/>
<path d="M217.182 215V213.605L222.419 207.872C223.034 207.2 223.54 206.617 223.938 206.121C224.336 205.62 224.63 205.15 224.821 204.711C225.018 204.267 225.116 203.802 225.116 203.316C225.116 202.758 224.981 202.275 224.713 201.867C224.449 201.459 224.088 201.144 223.628 200.922C223.168 200.7 222.652 200.589 222.079 200.589C221.469 200.589 220.937 200.715 220.482 200.968C220.033 201.216 219.684 201.565 219.437 202.014C219.194 202.464 219.072 202.991 219.072 203.595H217.244C217.244 202.665 217.458 201.849 217.887 201.147C218.316 200.444 218.899 199.897 219.638 199.504C220.382 199.112 221.216 198.915 222.141 198.915C223.07 198.915 223.894 199.112 224.612 199.504C225.33 199.897 225.893 200.426 226.301 201.092C226.709 201.759 226.913 202.5 226.913 203.316C226.913 203.9 226.807 204.471 226.596 205.028C226.389 205.581 226.027 206.198 225.511 206.88C225 207.557 224.289 208.383 223.38 209.36L219.816 213.171V213.295H227.192V215H217.182ZM235.131 215.217C233.964 215.217 232.97 214.899 232.148 214.264C231.327 213.623 230.7 212.696 230.266 211.482C229.832 210.263 229.615 208.791 229.615 207.066C229.615 205.351 229.832 203.887 230.266 202.673C230.705 201.454 231.335 200.524 232.156 199.884C232.983 199.238 233.974 198.915 235.131 198.915C236.288 198.915 237.278 199.238 238.099 199.884C238.925 200.524 239.555 201.454 239.989 202.673C240.428 203.887 240.648 205.351 240.648 207.066C240.648 208.791 240.431 210.263 239.997 211.482C239.563 212.696 238.936 213.623 238.114 214.264C237.293 214.899 236.299 215.217 235.131 215.217ZM235.131 213.512C236.288 213.512 237.187 212.955 237.828 211.839C238.468 210.723 238.788 209.132 238.788 207.066C238.788 205.692 238.641 204.522 238.347 203.556C238.057 202.59 237.639 201.854 237.092 201.348C236.549 200.842 235.896 200.589 235.131 200.589C233.985 200.589 233.088 201.154 232.443 202.286C231.797 203.412 231.474 205.005 231.474 207.066C231.474 208.44 231.619 209.607 231.908 210.568C232.197 211.529 232.613 212.26 233.156 212.761C233.703 213.262 234.362 213.512 235.131 213.512ZM248.734 199.132V215H246.813V201.147H246.72L242.846 203.719V201.767L246.813 199.132H248.734ZM253.357 215L260.454 200.961V200.837H252.273V199.132H262.438V200.93L255.372 215H253.357Z" fill="white"/>
<path d="M430.748 73.6038C433.119 77.1463 435.394 81.5164 434.275 86.1997C430.414 83.9897 427.308 80.3814 424.846 76.8193C422.366 73.2333 419.791 69.42 418.908 65C423.779 66.2457 428.139 69.7037 430.748 73.6038Z" fill="white"/>
<path d="M437.666 95.1908C436.29 91.4902 433.28 88.2635 430.004 86.7585C426.962 85.3629 422.922 83.9064 419.372 85.6948C421.304 89.0871 424.485 91.9415 427.735 93.7369C430.656 95.3511 434.355 97.3068 438.017 96.4662C442.008 95.8549 443.938 91.8818 445.01 88.8763C446.495 84.723 445.48 79.1764 442.946 75.1016C439.451 76.5581 438.384 80.8794 437.654 83.9369C436.821 87.4172 436.798 91.4796 437.666 95.1908Z" fill="white"/>
<path d="M434.797 100.538C437.611 102.545 439.771 106.215 440.235 109.982C440.276 106.207 441.302 102.31 442.952 99.1713C444.46 96.2995 446.565 92.4182 450.311 91.6445C451.781 96.1159 451.305 101.585 448.926 105.204C447.127 107.946 444.342 111.38 440.287 111.288C436.587 111.477 433.392 108.95 430.878 106.841C428.173 104.573 425.734 101.257 424.707 97.6733C428.485 96.5764 432.101 98.6157 434.797 100.538Z" fill="white"/>
<path d="M439.284 124.805C439.696 121.114 438.462 117.123 436.161 114.657C433.946 112.28 430.841 109.689 426.974 110.101C427.051 113.841 428.923 117.406 430.855 120.076C432.654 122.563 435.425 125.639 439.053 126.082C442.825 126.721 446.507 124.412 448.901 121.695C451.977 118.199 453.811 113.507 453.445 108.809C449.57 108.904 446.634 112.25 444.463 114.78C442.121 117.508 440.204 121.1 439.284 124.805Z" fill="white"/>
<path d="M433.793 128.165C435.627 131.811 435.976 136.148 434.56 139.966C436.647 136.037 439.701 132.86 442.934 129.924C445.872 127.256 450.105 124.446 454.364 124.978C453.551 130.245 450.33 135.707 446.01 138.514C442.539 140.769 438.331 143.002 433.911 141.316C430.275 140.033 427.965 136.371 426.546 133.01C425.044 129.454 424.043 125.355 424.744 121.465C428.732 121.822 432.039 124.679 433.793 128.165Z" fill="white"/>
<path d="M426.085 154.02C428.392 150.507 429.197 146.111 428.254 141.984C427.36 138.075 424.641 134.505 420.676 133.395C419.024 137.161 418.995 141.542 419.595 145.515C420.154 149.191 421.521 153.48 424.918 155.531C429.113 158.192 434.013 156.618 438.035 155.026C443.226 152.973 447.912 148.005 450.103 142.666C445.567 141.228 440.93 143.6 437.15 145.567C433.24 147.602 429.157 150.504 426.085 154.02Z" fill="white"/>
<path d="M408.737 156.912C408.232 160.745 408.241 165.608 411.217 168.562C414.931 172.372 420.69 171.641 425.13 170.807C431.094 169.686 437.807 165.625 441.408 160.214C437.019 157.793 431.644 159.335 427.296 160.584L427.045 160.656C422.192 162.048 417.019 164.293 412.69 167.361C416.145 164.244 418.662 159.67 418.789 155.056C418.905 150.929 417.117 146.512 413.264 144.541C410.568 148.072 409.305 152.607 408.737 156.912Z" fill="white"/>
<path d="M405.407 184.994C400.643 184.893 394.106 184.325 391.442 179.403L391.404 179.336C389.276 175.176 391.439 170.313 393.163 166.715C395.213 162.437 398.013 158.078 402.016 154.949C405.857 158.263 405.485 163 404.34 167.116C402.976 172.011 398.264 176.181 393.385 178.555C399.034 176.453 405.202 175.194 411.07 174.825L411.667 174.787C416.382 174.484 422.518 174.089 426.27 177.541C420.586 182.364 412.518 185.144 405.407 184.994Z" fill="white"/>
</svg>
