<svg width="525" height="250" viewBox="0 0 525 250" fill="none" xmlns="http://www.w3.org/2000/svg">
<path d="M44.1277 86.1862C43.0118 81.5024 45.2914 77.1344 47.6659 73.5942C50.2797 69.6967 54.6408 66.2422 59.5114 65C58.6265 69.4188 56.0476 73.2303 53.5653 76.8138C51.0997 80.3739 47.99 83.9796 44.1277 86.1862Z" fill="white"/>
<path d="M40.7293 95.171C41.6004 91.4619 41.5811 87.4012 40.7518 83.9221C40.0226 80.8646 38.9615 76.5424 35.4692 75.084C32.9307 79.1559 31.9102 84.7009 33.3897 88.8559C34.4594 91.8612 36.3832 95.8348 40.373 96.4498C44.034 97.2938 47.736 95.3409 50.6597 93.7285C53.9107 91.9359 57.0951 89.0839 59.0299 85.6934C55.4807 83.9019 51.4388 85.3557 48.398 86.749C45.1202 88.2509 42.109 91.4734 40.7293 95.171Z" fill="white"/>
<path d="M29.4561 105.181C31.2565 107.927 34.0424 111.368 38.1045 111.27C41.7984 111.454 44.9898 108.933 47.5029 106.829C50.2095 104.563 52.6526 101.25 53.684 97.667C49.9059 96.5678 46.2887 98.6041 43.5913 100.525C40.7746 102.531 38.6083 106.202 38.1429 109.971C38.108 106.195 37.0858 102.294 35.438 99.1525C33.9314 96.2801 31.832 92.3973 28.0865 91.6211C26.6108 96.0906 27.0817 101.559 29.4561 105.181Z" fill="white"/>
<path d="M39.3056 126.063C35.5356 126.695 31.8582 124.385 29.4699 121.668C26.395 118.17 24.5655 113.477 24.9386 108.779C28.8116 108.878 31.7448 112.226 33.9129 114.757C36.2478 117.484 38.1609 121.071 39.0787 124.771C38.675 121.084 39.9132 117.101 42.2115 114.641C44.43 112.265 47.5377 109.677 51.4043 110.092C51.321 113.832 49.4465 117.394 47.5132 120.063C45.7111 122.549 42.9349 125.625 39.3056 126.063Z" fill="white"/>
<path d="M32.3419 138.487C35.8141 140.748 40.0252 142.985 44.4509 141.292C48.0817 140.007 50.3901 136.353 51.8099 132.998C53.3139 129.444 54.3184 125.345 53.623 121.455C49.6332 121.809 46.3249 124.664 44.5677 128.148C42.7307 131.791 42.3784 136.127 43.7895 139.946C41.7045 136.017 38.6554 132.838 35.4254 129.9C32.4892 127.23 28.2599 124.417 24 124.946C24.8105 130.213 28.0243 135.676 32.3419 138.487Z" fill="white"/>
<path d="M53.3943 155.53C56.8111 153.488 58.1862 149.19 58.7482 145.507C59.354 141.535 59.328 137.155 57.6784 133.387C53.7144 134.494 50.9933 138.062 50.0949 141.97C49.1456 146.098 49.9466 150.499 52.2557 154.014C49.1863 150.493 45.1049 147.585 41.1936 145.546C37.4155 143.577 32.7804 141.202 28.2432 142.636C30.4311 147.976 35.1114 152.947 40.2986 155.004C44.3157 156.596 49.2027 158.171 53.3943 155.53Z" fill="white"/>
<path d="M69.5932 156.912C70.0946 160.746 70.0804 165.608 67.1039 168.559C63.3844 172.367 57.628 171.632 53.1882 170.794C47.2276 169.669 40.518 165.604 36.9219 160.191C41.3138 157.772 46.6853 159.319 51.0334 160.572L51.2817 160.643C56.1353 162.039 61.3075 164.288 65.6331 167.361C62.1811 164.242 59.666 159.664 59.5428 155.049C59.4321 150.922 61.2236 146.506 65.0786 144.539C67.77 148.071 69.0303 152.607 69.5932 156.912Z" fill="white"/>
<path d="M86.8678 179.416C89.0598 175.243 86.888 170.346 85.1574 166.727C83.1114 162.448 80.3159 158.087 76.3152 154.955C72.4737 158.266 72.839 163.003 73.9811 167.12C75.3392 172.015 80.0475 176.188 84.923 178.566C79.2765 176.46 73.1098 175.196 67.2427 174.823L66.6484 174.785C61.935 174.478 55.7989 174.078 52.043 177.527C57.7218 182.355 65.788 185.14 72.8973 184.996C77.6615 184.899 84.1981 184.335 86.8678 179.416Z" fill="white"/>
<path d="M169.338 36.5661C169.338 38.2397 169.036 39.686 168.432 40.905C167.827 42.124 166.998 43.064 165.944 43.7252C164.891 44.3864 163.687 44.7169 162.334 44.7169C160.981 44.7169 159.777 44.3864 158.723 43.7252C157.67 43.064 156.841 42.124 156.236 40.905C155.632 39.686 155.33 38.2397 155.33 36.5661C155.33 34.8926 155.632 33.4463 156.236 32.2273C156.841 31.0083 157.67 30.0682 158.723 29.407C159.777 28.7459 160.981 28.4153 162.334 28.4153C163.687 28.4153 164.891 28.7459 165.944 29.407C166.998 30.0682 167.827 31.0083 168.432 32.2273C169.036 33.4463 169.338 34.8926 169.338 36.5661ZM167.479 36.5661C167.479 35.1921 167.249 34.0325 166.789 33.0873C166.334 32.142 165.717 31.4267 164.937 30.9411C164.162 30.4556 163.295 30.2128 162.334 30.2128C161.373 30.2128 160.503 30.4556 159.723 30.9411C158.948 31.4267 158.331 32.142 157.871 33.0873C157.417 34.0325 157.189 35.1921 157.189 36.5661C157.189 37.9401 157.417 39.0997 157.871 40.0449C158.331 40.9902 158.948 41.7056 159.723 42.1911C160.503 42.6767 161.373 42.9194 162.334 42.9194C163.295 42.9194 164.162 42.6767 164.937 42.1911C165.717 41.7056 166.334 40.9902 166.789 40.0449C167.249 39.0997 167.479 37.9401 167.479 36.5661ZM172.133 44.5V28.6322H181.647V30.3368H174.054V35.6983H180.934V37.4029H174.054V44.5H172.133ZM184.502 44.5V28.6322H194.016V30.3368H186.423V35.6983H193.303V37.4029H186.423V44.5H184.502ZM198.792 28.6322V44.5H196.871V28.6322H198.792ZM214.977 33.5909H213.056C212.942 33.0382 212.743 32.5527 212.459 32.1343C212.18 31.7159 211.839 31.3647 211.436 31.0806C211.039 30.7913 210.597 30.5744 210.111 30.4298C209.626 30.2851 209.12 30.2128 208.593 30.2128C207.632 30.2128 206.762 30.4556 205.982 30.9411C205.207 31.4267 204.59 32.142 204.13 33.0873C203.675 34.0325 203.448 35.1921 203.448 36.5661C203.448 37.9401 203.675 39.0997 204.13 40.0449C204.59 40.9902 205.207 41.7056 205.982 42.1911C206.762 42.6767 207.632 42.9194 208.593 42.9194C209.12 42.9194 209.626 42.8471 210.111 42.7025C210.597 42.5579 211.039 42.3435 211.436 42.0594C211.839 41.7701 212.18 41.4163 212.459 40.9979C212.743 40.5744 212.942 40.0888 213.056 39.5413H214.977C214.832 40.3523 214.569 41.078 214.187 41.7185C213.805 42.359 213.329 42.9039 212.761 43.3533C212.193 43.7975 211.555 44.1358 210.847 44.3683C210.145 44.6007 209.393 44.7169 208.593 44.7169C207.239 44.7169 206.036 44.3864 204.982 43.7252C203.928 43.064 203.099 42.124 202.495 40.905C201.891 39.686 201.589 38.2397 201.589 36.5661C201.589 34.8926 201.891 33.4463 202.495 32.2273C203.099 31.0083 203.928 30.0682 204.982 29.407C206.036 28.7459 207.239 28.4153 208.593 28.4153C209.393 28.4153 210.145 28.5315 210.847 28.7639C211.555 28.9964 212.193 29.3373 212.761 29.7867C213.329 30.2309 213.805 30.7732 214.187 31.4137C214.569 32.0491 214.832 32.7748 214.977 33.5909ZM219.567 28.6322V44.5H217.646V28.6322H219.567ZM223.634 44.5H221.62L227.446 28.6322H229.43L235.256 44.5H233.242L228.5 31.1426H228.376L223.634 44.5ZM224.378 38.3017H232.498V40.0062H224.378V38.3017ZM237.291 44.5V28.6322H239.213V42.7955H246.589V44.5H237.291ZM263.505 32.5992C263.412 31.814 263.035 31.2045 262.374 30.7707C261.713 30.3368 260.902 30.1198 259.941 30.1198C259.239 30.1198 258.624 30.2335 258.097 30.4607C257.576 30.688 257.168 31.0005 256.873 31.3982C256.584 31.796 256.439 32.2479 256.439 32.7541C256.439 33.1777 256.54 33.5418 256.742 33.8466C256.948 34.1462 257.212 34.3967 257.532 34.5981C257.852 34.7944 258.188 34.9571 258.539 35.0863C258.89 35.2102 259.213 35.311 259.508 35.3884L261.119 35.8223C261.532 35.9308 261.992 36.0806 262.498 36.2717C263.01 36.4628 263.498 36.7237 263.963 37.0542C264.433 37.3796 264.82 37.798 265.125 38.3094C265.43 38.8208 265.582 39.4483 265.582 40.1921C265.582 41.0496 265.357 41.8244 264.908 42.5165C264.464 43.2087 263.813 43.7588 262.955 44.1668C262.103 44.5749 261.067 44.7789 259.848 44.7789C258.712 44.7789 257.728 44.5956 256.896 44.2288C256.07 43.8621 255.419 43.3507 254.944 42.6947C254.474 42.0387 254.208 41.2769 254.146 40.4091H256.129C256.181 41.0083 256.383 41.5041 256.734 41.8967C257.09 42.2841 257.54 42.5733 258.082 42.7645C258.629 42.9504 259.218 43.0434 259.848 43.0434C260.582 43.0434 261.24 42.9246 261.824 42.687C262.408 42.4442 262.87 42.1085 263.211 41.6798C263.552 41.2459 263.722 40.7397 263.722 40.1612C263.722 39.6343 263.575 39.2056 263.281 38.875C262.986 38.5444 262.599 38.2758 262.119 38.0692C261.638 37.8626 261.119 37.6818 260.561 37.5269L258.609 36.969C257.369 36.6126 256.388 36.1038 255.665 35.4427C254.941 34.7815 254.58 33.9163 254.58 32.8471C254.58 31.9587 254.82 31.1839 255.3 30.5227C255.786 29.8564 256.437 29.3399 257.253 28.9731C258.074 28.6012 258.991 28.4153 260.003 28.4153C261.026 28.4153 261.935 28.5987 262.731 28.9654C263.526 29.327 264.156 29.8228 264.621 30.453C265.091 31.0832 265.339 31.7986 265.365 32.5992H263.505ZM268.305 44.5V28.6322H277.881V30.3368H270.226V35.6983H277.385V37.4029H270.226V42.7955H278.005V44.5H268.305ZM280.908 44.5V28.6322H282.83V42.7955H290.206V44.5H280.908ZM292.745 44.5V28.6322H302.321V30.3368H294.666V35.6983H301.825V37.4029H294.666V42.7955H302.445V44.5H292.745ZM318.117 33.5909H316.195C316.081 33.0382 315.883 32.5527 315.598 32.1343C315.32 31.7159 314.979 31.3647 314.576 31.0806C314.178 30.7913 313.736 30.5744 313.251 30.4298C312.765 30.2851 312.259 30.2128 311.732 30.2128C310.771 30.2128 309.901 30.4556 309.121 30.9411C308.346 31.4267 307.729 32.142 307.269 33.0873C306.815 34.0325 306.588 35.1921 306.588 36.5661C306.588 37.9401 306.815 39.0997 307.269 40.0449C307.729 40.9902 308.346 41.7056 309.121 42.1911C309.901 42.6767 310.771 42.9194 311.732 42.9194C312.259 42.9194 312.765 42.8471 313.251 42.7025C313.736 42.5579 314.178 42.3435 314.576 42.0594C314.979 41.7701 315.32 41.4163 315.598 40.9979C315.883 40.5744 316.081 40.0888 316.195 39.5413H318.117C317.972 40.3523 317.708 41.078 317.326 41.7185C316.944 42.359 316.469 42.9039 315.901 43.3533C315.332 43.7975 314.695 44.1358 313.987 44.3683C313.284 44.6007 312.533 44.7169 311.732 44.7169C310.379 44.7169 309.175 44.3864 308.122 43.7252C307.068 43.064 306.239 42.124 305.635 40.905C305.03 39.686 304.728 38.2397 304.728 36.5661C304.728 34.8926 305.03 33.4463 305.635 32.2273C306.239 31.0083 307.068 30.0682 308.122 29.407C309.175 28.7459 310.379 28.4153 311.732 28.4153C312.533 28.4153 313.284 28.5315 313.987 28.7639C314.695 28.9964 315.332 29.3373 315.901 29.7867C316.469 30.2309 316.944 30.7732 317.326 31.4137C317.708 32.0491 317.972 32.7748 318.117 33.5909ZM319.917 30.3368V28.6322H331.818V30.3368H326.829V44.5H324.907V30.3368H319.917ZM336.269 28.6322V44.5H334.347V28.6322H336.269ZM353.074 36.5661C353.074 38.2397 352.771 39.686 352.167 40.905C351.563 42.124 350.734 43.064 349.68 43.7252C348.626 44.3864 347.423 44.7169 346.069 44.7169C344.716 44.7169 343.513 44.3864 342.459 43.7252C341.405 43.064 340.576 42.124 339.972 40.905C339.367 39.686 339.065 38.2397 339.065 36.5661C339.065 34.8926 339.367 33.4463 339.972 32.2273C340.576 31.0083 341.405 30.0682 342.459 29.407C343.513 28.7459 344.716 28.4153 346.069 28.4153C347.423 28.4153 348.626 28.7459 349.68 29.407C350.734 30.0682 351.563 31.0083 352.167 32.2273C352.771 33.4463 353.074 34.8926 353.074 36.5661ZM351.214 36.5661C351.214 35.1921 350.984 34.0325 350.525 33.0873C350.07 32.142 349.453 31.4267 348.673 30.9411C347.898 30.4556 347.03 30.2128 346.069 30.2128C345.109 30.2128 344.238 30.4556 343.458 30.9411C342.684 31.4267 342.066 32.142 341.607 33.0873C341.152 34.0325 340.925 35.1921 340.925 36.5661C340.925 37.9401 341.152 39.0997 341.607 40.0449C342.066 40.9902 342.684 41.7056 343.458 42.1911C344.238 42.6767 345.109 42.9194 346.069 42.9194C347.03 42.9194 347.898 42.6767 348.673 42.1911C349.453 41.7056 350.07 40.9902 350.525 40.0449C350.984 39.0997 351.214 37.9401 351.214 36.5661ZM368.451 28.6322V44.5H366.591L357.945 32.0413H357.79V44.5H355.868V28.6322H357.728L366.405 41.1219H366.56V28.6322H368.451Z" fill="white"/>
<path d="M198.507 70.3545H193.23C193.08 69.4892 192.802 68.7226 192.398 68.0548C191.994 67.3776 191.49 66.8039 190.888 66.3336C190.286 65.8633 189.6 65.5106 188.829 65.2754C188.067 65.0309 187.244 64.9086 186.359 64.9086C184.789 64.9086 183.397 65.3036 182.183 66.0937C180.97 66.8744 180.02 68.0219 179.333 69.5362C178.647 71.0412 178.303 72.88 178.303 75.0527C178.303 77.2631 178.647 79.1254 179.333 80.6398C180.029 82.1447 180.979 83.2828 182.183 84.0541C183.397 84.8159 184.784 85.1969 186.345 85.1969C187.211 85.1969 188.02 85.084 188.772 84.8582C189.534 84.6231 190.216 84.2798 190.818 83.8283C191.429 83.3768 191.942 82.8219 192.356 82.1635C192.779 81.5051 193.071 80.7526 193.23 79.9061L198.507 79.9343C198.31 81.3076 197.882 82.5962 197.223 83.8001C196.574 85.004 195.723 86.0669 194.669 86.9887C193.616 87.901 192.384 88.6159 190.973 89.1332C189.562 89.6411 187.996 89.895 186.275 89.895C183.735 89.895 181.468 89.3072 179.474 88.1315C177.48 86.9557 175.91 85.258 174.762 83.0382C173.615 80.8185 173.041 78.1566 173.041 75.0527C173.041 71.9394 173.619 69.2776 174.776 67.0672C175.933 64.8475 177.509 63.1497 179.503 61.974C181.497 60.7983 183.754 60.2104 186.275 60.2104C187.883 60.2104 189.379 60.4361 190.761 60.8876C192.144 61.3391 193.376 62.0022 194.458 62.8769C195.54 63.7423 196.428 64.8051 197.124 66.0655C197.83 67.3165 198.291 68.7462 198.507 70.3545ZM202.506 89.5V60.6055H207.74V72.8377H221.129V60.6055H226.378V89.5H221.129V77.2255H207.74V89.5H202.506ZM236.51 60.6055V89.5H231.276V60.6055H236.51ZM266.116 70.3545H260.84C260.689 69.4892 260.412 68.7226 260.007 68.0548C259.603 67.3776 259.1 66.8039 258.498 66.3336C257.896 65.8633 257.209 65.5106 256.438 65.2754C255.676 65.0309 254.853 64.9086 253.969 64.9086C252.398 64.9086 251.006 65.3036 249.793 66.0937C248.579 66.8744 247.629 68.0219 246.943 69.5362C246.256 71.0412 245.913 72.88 245.913 75.0527C245.913 77.2631 246.256 79.1254 246.943 80.6398C247.639 82.1447 248.589 83.2828 249.793 84.0541C251.006 84.8159 252.393 85.1969 253.955 85.1969C254.82 85.1969 255.629 85.084 256.381 84.8582C257.143 84.6231 257.825 84.2798 258.427 83.8283C259.038 83.3768 259.551 82.8219 259.965 82.1635C260.388 81.5051 260.68 80.7526 260.84 79.9061L266.116 79.9343C265.919 81.3076 265.491 82.5962 264.832 83.8001C264.183 85.004 263.332 86.0669 262.279 86.9887C261.225 87.901 259.993 88.6159 258.582 89.1332C257.171 89.6411 255.605 89.895 253.884 89.895C251.345 89.895 249.078 89.3072 247.084 88.1315C245.09 86.9557 243.519 85.258 242.371 83.0382C241.224 80.8185 240.65 78.1566 240.65 75.0527C240.65 71.9394 241.229 69.2776 242.386 67.0672C243.542 64.8475 245.118 63.1497 247.112 61.974C249.106 60.7983 251.363 60.2104 253.884 60.2104C255.493 60.2104 256.988 60.4361 258.371 60.8876C259.753 61.3391 260.985 62.0022 262.067 62.8769C263.149 63.7423 264.038 64.8051 264.734 66.0655C265.439 67.3165 265.9 68.7462 266.116 70.3545ZM273.477 89.5H267.89L278.062 60.6055H284.524L294.71 89.5H289.123L281.406 66.5311H281.18L273.477 89.5ZM273.66 78.1707H288.897V82.3751H273.66V78.1707ZM315.72 69.8325C315.485 69.0707 315.161 68.3887 314.747 67.7868C314.342 67.1754 313.853 66.6534 313.28 66.2207C312.715 65.788 312.066 65.4635 311.333 65.2472C310.599 65.0215 309.799 64.9086 308.934 64.9086C307.382 64.9086 306 65.2989 304.786 66.0796C303.573 66.8603 302.618 68.0078 301.922 69.5221C301.236 71.0271 300.892 72.8612 300.892 75.0245C300.892 77.2066 301.236 79.0549 301.922 80.5692C302.609 82.0835 303.563 83.2358 304.786 84.0258C306.009 84.8065 307.429 85.1969 309.047 85.1969C310.514 85.1969 311.784 84.9147 312.856 84.3503C313.938 83.786 314.77 82.9865 315.354 81.9519C315.937 80.9078 316.228 79.6851 316.228 78.2836L317.413 78.467H309.569V74.3755H321.293V77.8462C321.293 80.32 320.767 82.4598 319.713 84.2657C318.66 86.0716 317.211 87.4636 315.368 88.4419C313.524 89.4106 311.408 89.895 309.019 89.895C306.357 89.895 304.02 89.2978 302.007 88.1032C300.003 86.8993 298.437 85.1922 297.309 82.9818C296.189 80.762 295.63 78.1284 295.63 75.0809C295.63 72.7483 295.959 70.6649 296.617 68.8308C297.285 66.9967 298.216 65.44 299.411 64.1608C300.605 62.8722 302.007 61.894 303.615 61.2262C305.224 60.549 306.973 60.2104 308.864 60.2104C310.463 60.2104 311.953 60.4456 313.336 60.9158C314.719 61.3767 315.946 62.0351 317.018 62.8911C318.1 63.747 318.989 64.7628 319.685 65.9385C320.381 67.1143 320.837 68.4122 321.053 69.8325H315.72ZM351.379 75.0527C351.379 78.166 350.796 80.8326 349.63 83.0523C348.473 85.2627 346.893 86.9557 344.889 88.1315C342.895 89.3072 340.633 89.895 338.103 89.895C335.573 89.895 333.306 89.3072 331.302 88.1315C329.308 86.9463 327.728 85.2486 326.562 83.0382C325.405 80.8185 324.827 78.1566 324.827 75.0527C324.827 71.9394 325.405 69.2776 326.562 67.0672C327.728 64.8475 329.308 63.1497 331.302 61.974C333.306 60.7983 335.573 60.2104 338.103 60.2104C340.633 60.2104 342.895 60.7983 344.889 61.974C346.893 63.1497 348.473 64.8475 349.63 67.0672C350.796 69.2776 351.379 71.9394 351.379 75.0527ZM346.117 75.0527C346.117 72.8612 345.773 71.0129 345.087 69.508C344.409 67.9937 343.469 66.8509 342.265 66.0796C341.061 65.2989 339.674 64.9086 338.103 64.9086C336.532 64.9086 335.145 65.2989 333.941 66.0796C332.737 66.8509 331.792 67.9937 331.105 69.508C330.428 71.0129 330.089 72.8612 330.089 75.0527C330.089 77.2443 330.428 79.0972 331.105 80.6115C331.792 82.1165 332.737 83.2593 333.941 84.0399C335.145 84.8112 336.532 85.1969 338.103 85.1969C339.674 85.1969 341.061 84.8112 342.265 84.0399C343.469 83.2593 344.409 82.1165 345.087 80.6115C345.773 79.0972 346.117 77.2443 346.117 75.0527ZM115.124 104.605V133.5H109.89V104.605H115.124ZM143.743 104.605V133.5H139.087L125.472 113.818H125.232V133.5H119.998V104.605H124.682L138.283 124.301H138.537V104.605H143.743ZM147.382 108.993V104.605H170.435V108.993H161.505V133.5H156.313V108.993H147.382ZM174.085 133.5V104.605H192.878V108.993H179.319V116.838H191.904V121.225H179.319V129.112H192.991V133.5H174.085ZM197.423 133.5V104.605H208.259C210.478 104.605 212.341 104.991 213.846 105.762C215.36 106.534 216.503 107.615 217.274 109.007C218.055 110.39 218.445 112.003 218.445 113.847C218.445 115.7 218.05 117.308 217.26 118.672C216.479 120.026 215.327 121.075 213.803 121.818C212.28 122.552 210.408 122.919 208.188 122.919H200.471V118.573H207.483C208.781 118.573 209.844 118.394 210.671 118.037C211.499 117.67 212.11 117.139 212.505 116.443C212.91 115.737 213.112 114.872 213.112 113.847C213.112 112.821 212.91 111.947 212.505 111.222C212.101 110.489 211.485 109.934 210.657 109.558C209.829 109.172 208.762 108.979 207.454 108.979H202.658V133.5H197.423ZM212.35 120.407L219.503 133.5H213.662L206.636 120.407H212.35ZM246.214 104.605V133.5H241.558L227.943 113.818H227.703V133.5H222.469V104.605H227.153L240.753 124.301H241.007V104.605H246.214ZM254.833 133.5H249.246L259.418 104.605H265.88L276.066 133.5H270.479L262.762 110.531H262.536L254.833 133.5ZM255.016 122.171H270.254V126.375H255.016V122.171ZM274.316 108.993V104.605H297.37V108.993H288.439V133.5H283.247V108.993H274.316ZM306.254 104.605V133.5H301.019V104.605H306.254ZM336.946 119.053C336.946 122.166 336.363 124.833 335.196 127.052C334.04 129.263 332.459 130.956 330.456 132.131C328.462 133.307 326.2 133.895 323.67 133.895C321.14 133.895 318.873 133.307 316.869 132.131C314.875 130.946 313.295 129.249 312.129 127.038C310.972 124.818 310.393 122.157 310.393 119.053C310.393 115.939 310.972 113.278 312.129 111.067C313.295 108.847 314.875 107.15 316.869 105.974C318.873 104.798 321.14 104.21 323.67 104.21C326.2 104.21 328.462 104.798 330.456 105.974C332.459 107.15 334.04 108.847 335.196 111.067C336.363 113.278 336.946 115.939 336.946 119.053ZM331.683 119.053C331.683 116.861 331.34 115.013 330.653 113.508C329.976 111.994 329.036 110.851 327.832 110.08C326.628 109.299 325.24 108.909 323.67 108.909C322.099 108.909 320.712 109.299 319.508 110.08C318.304 110.851 317.358 111.994 316.672 113.508C315.995 115.013 315.656 116.861 315.656 119.053C315.656 121.244 315.995 123.097 316.672 124.612C317.358 126.116 318.304 127.259 319.508 128.04C320.712 128.811 322.099 129.197 323.67 129.197C325.24 129.197 326.628 128.811 327.832 128.04C329.036 127.259 329.976 126.116 330.653 124.612C331.34 123.097 331.683 121.244 331.683 119.053ZM364.845 104.605V133.5H360.189L346.574 113.818H346.334V133.5H341.1V104.605H345.784L359.385 124.301H359.639V104.605H364.845ZM373.464 133.5H367.877L378.05 104.605H384.511L394.698 133.5H389.111L381.393 110.531H381.168L373.464 133.5ZM373.648 122.171H388.885V126.375H373.648V122.171ZM397.709 133.5V104.605H402.943V129.112H415.669V133.5H397.709ZM126.571 158.355H121.294C121.144 157.489 120.866 156.723 120.462 156.055C120.057 155.378 119.554 154.804 118.952 154.334C118.35 153.863 117.664 153.511 116.892 153.275C116.13 153.031 115.307 152.909 114.423 152.909C112.853 152.909 111.461 153.304 110.247 154.094C109.034 154.874 108.084 156.022 107.397 157.536C106.711 159.041 106.367 160.88 106.367 163.053C106.367 165.263 106.711 167.125 107.397 168.64C108.093 170.145 109.043 171.283 110.247 172.054C111.461 172.816 112.848 173.197 114.409 173.197C115.275 173.197 116.083 173.084 116.836 172.858C117.598 172.623 118.28 172.28 118.882 171.828C119.493 171.377 120.006 170.822 120.42 170.163C120.843 169.505 121.134 168.753 121.294 167.906L126.571 167.934C126.373 169.308 125.945 170.596 125.287 171.8C124.638 173.004 123.787 174.067 122.733 174.989C121.68 175.901 120.448 176.616 119.037 177.133C117.626 177.641 116.06 177.895 114.339 177.895C111.799 177.895 109.532 177.307 107.538 176.131C105.544 174.956 103.974 173.258 102.826 171.038C101.679 168.818 101.105 166.157 101.105 163.053C101.105 159.939 101.683 157.278 102.84 155.067C103.997 152.847 105.573 151.15 107.567 149.974C109.561 148.798 111.818 148.21 114.339 148.21C115.947 148.21 117.443 148.436 118.825 148.888C120.208 149.339 121.44 150.002 122.522 150.877C123.603 151.742 124.492 152.805 125.188 154.066C125.894 155.316 126.355 156.746 126.571 158.355ZM130.57 177.5V148.605H135.804V160.838H149.193V148.605H154.442V177.5H149.193V165.225H135.804V177.5H130.57ZM164.574 148.605V177.5H159.34V148.605H164.574ZM169.448 177.5V148.605H174.682V173.112H187.408V177.5H169.448ZM200.948 177.5H191.156V148.605H201.145C204.014 148.605 206.478 149.184 208.538 150.341C210.608 151.488 212.197 153.139 213.307 155.293C214.417 157.447 214.972 160.024 214.972 163.025C214.972 166.034 214.412 168.621 213.293 170.784C212.183 172.948 210.579 174.608 208.482 175.765C206.394 176.922 203.882 177.5 200.948 177.5ZM196.391 172.971H200.694C202.707 172.971 204.386 172.604 205.731 171.871C207.076 171.128 208.087 170.022 208.764 168.555C209.441 167.078 209.78 165.235 209.78 163.025C209.78 160.814 209.441 158.98 208.764 157.522C208.087 156.055 207.085 154.959 205.759 154.235C204.442 153.501 202.805 153.134 200.849 153.134H196.391V172.971ZM219.151 177.5V148.605H229.986C232.206 148.605 234.068 148.991 235.573 149.762C237.087 150.534 238.23 151.615 239.001 153.007C239.782 154.39 240.172 156.003 240.172 157.847C240.172 159.7 239.777 161.308 238.987 162.672C238.207 164.026 237.054 165.075 235.531 165.818C234.007 166.552 232.135 166.919 229.915 166.919H222.198V162.573H229.21C230.508 162.573 231.571 162.394 232.399 162.037C233.226 161.67 233.838 161.139 234.233 160.443C234.637 159.737 234.839 158.872 234.839 157.847C234.839 156.821 234.637 155.947 234.233 155.222C233.828 154.489 233.212 153.934 232.384 153.558C231.557 153.172 230.489 152.979 229.182 152.979H224.385V177.5H219.151ZM234.078 164.407L241.231 177.5H235.39L228.364 164.407H234.078ZM244.196 177.5V148.605H262.989V152.993H249.43V160.838H262.015V165.225H249.43V173.112H263.102V177.5H244.196ZM291.279 148.605V177.5H286.623L273.008 157.818H272.769V177.5H267.534V148.605H272.218L285.819 168.301H286.073V148.605H291.279ZM300.294 148.605V151.484C300.294 152.311 300.134 153.172 299.814 154.066C299.503 154.95 299.076 155.796 298.53 156.605C297.984 157.405 297.364 158.091 296.668 158.665L294.297 157.127C294.815 156.346 295.266 155.505 295.652 154.602C296.037 153.689 296.23 152.659 296.23 151.512V148.605H300.294ZM319.593 156.549C319.462 155.316 318.907 154.357 317.928 153.67C316.96 152.984 315.699 152.641 314.147 152.641C313.056 152.641 312.12 152.805 311.34 153.134C310.559 153.464 309.962 153.91 309.548 154.475C309.134 155.039 308.922 155.683 308.913 156.408C308.913 157.01 309.049 157.532 309.322 157.974C309.604 158.416 309.985 158.792 310.465 159.102C310.945 159.403 311.476 159.657 312.059 159.864C312.642 160.071 313.23 160.245 313.823 160.386L316.532 161.063C317.623 161.317 318.671 161.661 319.678 162.093C320.694 162.526 321.601 163.072 322.401 163.73C323.21 164.388 323.849 165.183 324.32 166.114C324.79 167.045 325.025 168.137 325.025 169.388C325.025 171.081 324.592 172.571 323.727 173.86C322.862 175.139 321.611 176.141 319.974 176.865C318.347 177.58 316.376 177.937 314.063 177.937C311.815 177.937 309.863 177.589 308.208 176.893C306.562 176.197 305.273 175.181 304.342 173.846C303.42 172.51 302.921 170.883 302.846 168.964H307.996C308.071 169.971 308.382 170.808 308.927 171.476C309.473 172.143 310.183 172.642 311.057 172.971C311.942 173.3 312.929 173.465 314.02 173.465C315.158 173.465 316.155 173.296 317.011 172.957C317.877 172.609 318.554 172.129 319.043 171.518C319.532 170.897 319.781 170.173 319.791 169.345C319.781 168.593 319.56 167.972 319.128 167.483C318.695 166.984 318.088 166.57 317.308 166.241C316.536 165.903 315.633 165.602 314.599 165.338L311.311 164.492C308.932 163.88 307.051 162.954 305.668 161.712C304.295 160.461 303.608 158.801 303.608 156.732C303.608 155.03 304.069 153.539 304.991 152.26C305.922 150.98 307.187 149.988 308.786 149.283C310.385 148.568 312.196 148.21 314.218 148.21C316.268 148.21 318.065 148.568 319.607 149.283C321.159 149.988 322.377 150.971 323.261 152.231C324.146 153.482 324.602 154.921 324.63 156.549H319.593ZM337.957 177.5V148.605H356.468V152.993H343.192V160.838H355.198V165.225H343.192V177.5H337.957ZM365.676 148.605V177.5H360.442V148.605H365.676ZM370.55 177.5V148.605H375.784V173.112H388.51V177.5H370.55ZM392.259 148.605H398.664L407.242 169.543H407.581L416.159 148.605H422.564V177.5H417.541V157.649H417.273L409.288 177.415H405.535L397.549 157.607H397.281V177.5H392.259V148.605ZM174.346 221.5V192.605H192.857V196.993H179.581V204.838H191.587V209.225H179.581V221.5H174.346ZM196.831 221.5V192.605H215.624V196.993H202.065V204.838H214.65V209.225H202.065V217.112H215.737V221.5H196.831ZM235.872 200.549C235.741 199.316 235.186 198.357 234.208 197.67C233.239 196.984 231.978 196.641 230.426 196.641C229.335 196.641 228.399 196.805 227.619 197.134C226.838 197.464 226.241 197.91 225.827 198.475C225.413 199.039 225.202 199.683 225.192 200.408C225.192 201.01 225.328 201.532 225.601 201.974C225.883 202.416 226.264 202.792 226.744 203.102C227.224 203.403 227.755 203.657 228.338 203.864C228.921 204.071 229.509 204.245 230.102 204.386L232.811 205.063C233.902 205.317 234.951 205.661 235.957 206.093C236.973 206.526 237.88 207.072 238.68 207.73C239.489 208.388 240.128 209.183 240.599 210.114C241.069 211.045 241.304 212.137 241.304 213.388C241.304 215.081 240.872 216.571 240.006 217.86C239.141 219.139 237.89 220.141 236.253 220.865C234.626 221.58 232.656 221.937 230.342 221.937C228.094 221.937 226.142 221.589 224.487 220.893C222.841 220.197 221.552 219.181 220.621 217.846C219.699 216.51 219.201 214.883 219.125 212.964H224.275C224.35 213.971 224.661 214.808 225.206 215.476C225.752 216.143 226.462 216.642 227.337 216.971C228.221 217.3 229.208 217.465 230.299 217.465C231.438 217.465 232.435 217.296 233.29 216.957C234.156 216.609 234.833 216.129 235.322 215.518C235.811 214.897 236.06 214.173 236.07 213.345C236.06 212.593 235.839 211.972 235.407 211.483C234.974 210.984 234.367 210.57 233.587 210.241C232.815 209.903 231.913 209.602 230.878 209.338L227.591 208.492C225.211 207.88 223.33 206.954 221.947 205.712C220.574 204.461 219.887 202.801 219.887 200.732C219.887 199.03 220.348 197.539 221.27 196.26C222.201 194.98 223.466 193.988 225.065 193.283C226.664 192.568 228.475 192.21 230.497 192.21C232.547 192.21 234.344 192.568 235.886 193.283C237.438 193.988 238.656 194.971 239.541 196.231C240.425 197.482 240.881 198.921 240.909 200.549H235.872ZM243.906 196.993V192.605H266.96V196.993H258.029V221.5H252.837V196.993H243.906ZM275.844 192.605V221.5H270.609V192.605H275.844ZM284.583 192.605L292.103 215.349H292.399L299.905 192.605H305.661L295.475 221.5H289.013L278.841 192.605H284.583ZM309.008 221.5H303.421L313.593 192.605H320.055L330.241 221.5H324.654L316.937 198.531H316.711L309.008 221.5ZM309.191 210.171H324.429V214.375H309.191V210.171ZM333.252 221.5V192.605H338.487V217.112H351.213V221.5H333.252Z" fill="white"/>
<path d="M476.838 73.6038C479.208 77.1463 481.484 81.5164 480.365 86.1997C476.504 83.9897 473.398 80.3814 470.935 76.8193C468.455 73.2333 465.88 69.42 464.998 65C469.868 66.2457 474.228 69.7037 476.838 73.6038Z" fill="white"/>
<path d="M483.756 95.1908C482.38 91.4902 479.37 88.2635 476.094 86.7585C473.052 85.3629 469.012 83.9064 465.462 85.6948C467.394 89.0871 470.575 91.9415 473.824 93.7369C476.745 95.3511 480.445 97.3068 484.107 96.4662C488.098 95.8549 490.027 91.8818 491.1 88.8763C492.585 84.723 491.57 79.1764 489.035 75.1016C485.54 76.5581 484.474 80.8794 483.744 83.9369C482.911 87.4172 482.888 91.4796 483.756 95.1908Z" fill="white"/>
<path d="M480.887 100.538C483.701 102.545 485.861 106.215 486.325 109.982C486.365 106.207 487.392 102.31 489.041 99.1713C490.55 96.2995 492.655 92.4182 496.4 91.6445C497.871 96.1159 497.395 101.585 495.016 105.204C493.217 107.946 490.431 111.38 486.377 111.288C482.677 111.477 479.482 108.95 476.968 106.841C474.263 104.573 471.823 101.257 470.797 97.6733C474.574 96.5764 478.19 98.6157 480.887 100.538Z" fill="white"/>
<path d="M485.374 124.805C485.786 121.114 484.552 117.123 482.251 114.657C480.036 112.28 476.93 109.689 473.063 110.101C473.141 113.841 475.013 117.406 476.945 120.076C478.744 122.563 481.515 125.639 485.143 126.082C488.915 126.721 492.597 124.412 494.99 121.695C498.067 118.199 499.901 113.507 499.535 108.809C495.659 108.904 492.724 112.25 490.553 114.78C488.211 117.508 486.293 121.1 485.374 124.805Z" fill="white"/>
<path d="M479.882 128.165C481.716 131.811 482.065 136.148 480.65 139.966C482.737 136.037 485.791 132.86 489.024 129.924C491.962 127.256 496.195 124.446 500.454 124.978C499.641 130.245 496.42 135.707 492.1 138.514C488.628 140.769 484.421 143.002 480.001 141.316C476.364 140.033 474.055 136.371 472.636 133.01C471.134 129.454 470.133 125.355 470.834 121.465C474.822 121.822 478.129 124.679 479.882 128.165Z" fill="white"/>
<path d="M472.175 154.02C474.482 150.507 475.287 146.111 474.344 141.984C473.45 138.075 470.731 134.505 466.766 133.395C465.113 137.161 465.085 141.542 465.684 145.515C466.244 149.191 467.611 153.48 471.007 155.531C475.203 158.192 480.102 156.618 484.125 155.026C489.315 152.973 494.001 148.005 496.193 142.666C491.657 141.228 487.02 143.6 483.24 145.567C479.33 147.602 475.246 150.504 472.175 154.02Z" fill="white"/>
<path d="M454.827 156.912C454.322 160.745 454.331 165.608 457.307 168.562C461.021 172.372 466.779 171.641 471.22 170.807C477.183 169.686 483.896 165.625 487.498 160.214C483.109 157.793 477.734 159.335 473.386 160.584L473.135 160.656C468.282 162.048 463.109 164.293 458.78 167.361C462.235 164.244 464.752 159.67 464.879 155.056C464.994 150.929 463.207 146.512 459.354 144.541C456.658 148.072 455.395 152.607 454.827 156.912Z" fill="white"/>
<path d="M451.497 184.994C446.733 184.893 440.196 184.325 437.531 179.403L437.494 179.336C435.366 175.176 437.529 170.313 439.253 166.715C441.303 162.437 444.103 158.078 448.106 154.949C451.947 158.263 451.575 163 450.43 167.116C449.066 172.011 444.354 176.181 439.475 178.555C445.124 176.453 451.292 175.194 457.16 174.825L457.757 174.787C462.472 174.484 468.608 174.089 472.36 177.541C466.676 182.364 458.608 185.144 451.497 184.994Z" fill="white"/>
</svg>
