<svg width="416" height="250" viewBox="0 0 416 250" fill="none" xmlns="http://www.w3.org/2000/svg">
<path d="M44.1277 86.1862C43.0118 81.5024 45.2914 77.1344 47.6659 73.5942C50.2797 69.6967 54.6408 66.2422 59.5114 65C58.6265 69.4188 56.0476 73.2303 53.5653 76.8138C51.0997 80.3739 47.99 83.9796 44.1277 86.1862Z" fill="white"/>
<path d="M40.7293 95.171C41.6004 91.4619 41.5811 87.4012 40.7518 83.9221C40.0226 80.8646 38.9615 76.5424 35.4692 75.084C32.9307 79.1559 31.9102 84.7009 33.3897 88.8559C34.4594 91.8612 36.3832 95.8348 40.373 96.4498C44.034 97.2938 47.736 95.3409 50.6597 93.7285C53.9107 91.9359 57.0951 89.0839 59.0299 85.6934C55.4807 83.9019 51.4388 85.3557 48.398 86.749C45.1202 88.2509 42.109 91.4734 40.7293 95.171Z" fill="white"/>
<path d="M29.4561 105.181C31.2565 107.927 34.0424 111.368 38.1045 111.27C41.7984 111.454 44.9898 108.933 47.5029 106.829C50.2095 104.563 52.6526 101.25 53.684 97.667C49.9059 96.5678 46.2887 98.6041 43.5913 100.525C40.7746 102.531 38.6083 106.202 38.1429 109.971C38.108 106.195 37.0858 102.294 35.438 99.1525C33.9314 96.2801 31.832 92.3973 28.0865 91.6211C26.6108 96.0906 27.0817 101.559 29.4561 105.181Z" fill="white"/>
<path d="M39.3056 126.063C35.5356 126.695 31.8582 124.385 29.4699 121.668C26.395 118.17 24.5655 113.477 24.9386 108.779C28.8116 108.878 31.7448 112.226 33.9129 114.757C36.2478 117.484 38.1609 121.071 39.0787 124.771C38.675 121.084 39.9132 117.101 42.2115 114.641C44.43 112.265 47.5377 109.677 51.4043 110.092C51.321 113.832 49.4465 117.394 47.5132 120.063C45.7111 122.549 42.9349 125.625 39.3056 126.063Z" fill="white"/>
<path d="M32.3419 138.487C35.8141 140.748 40.0252 142.985 44.4509 141.292C48.0817 140.007 50.3901 136.353 51.8099 132.998C53.3139 129.444 54.3184 125.345 53.623 121.455C49.6332 121.809 46.3249 124.664 44.5677 128.148C42.7307 131.791 42.3784 136.127 43.7895 139.946C41.7045 136.017 38.6554 132.838 35.4254 129.9C32.4892 127.23 28.2599 124.417 24 124.946C24.8105 130.213 28.0243 135.676 32.3419 138.487Z" fill="white"/>
<path d="M53.3943 155.53C56.8111 153.488 58.1862 149.19 58.7482 145.507C59.354 141.535 59.328 137.155 57.6784 133.387C53.7144 134.494 50.9933 138.062 50.0949 141.97C49.1456 146.098 49.9466 150.499 52.2557 154.014C49.1863 150.493 45.1049 147.585 41.1936 145.546C37.4155 143.577 32.7804 141.202 28.2432 142.636C30.4311 147.976 35.1114 152.947 40.2986 155.004C44.3157 156.596 49.2027 158.171 53.3943 155.53Z" fill="white"/>
<path d="M69.5932 156.912C70.0946 160.746 70.0804 165.608 67.1039 168.559C63.3844 172.367 57.628 171.632 53.1882 170.794C47.2276 169.669 40.518 165.604 36.9219 160.191C41.3138 157.772 46.6853 159.319 51.0334 160.572L51.2817 160.643C56.1353 162.039 61.3075 164.288 65.6331 167.361C62.1811 164.242 59.666 159.664 59.5428 155.049C59.4321 150.922 61.2236 146.506 65.0786 144.539C67.77 148.071 69.0303 152.607 69.5932 156.912Z" fill="white"/>
<path d="M86.8678 179.416C89.0598 175.243 86.888 170.346 85.1574 166.727C83.1114 162.448 80.3159 158.087 76.3152 154.955C72.4737 158.266 72.839 163.003 73.9811 167.12C75.3392 172.015 80.0475 176.188 84.923 178.566C79.2765 176.46 73.1098 175.196 67.2427 174.823L66.6484 174.785C61.935 174.478 55.7989 174.078 52.043 177.527C57.7218 182.355 65.788 185.14 72.8973 184.996C77.6615 184.899 84.1981 184.335 86.8678 179.416Z" fill="white"/>
<path d="M185.272 55.5V54.1054L190.509 48.3719C191.124 47.7004 191.63 47.1167 192.028 46.6209C192.426 46.1198 192.72 45.6498 192.911 45.2107C193.107 44.7665 193.206 44.3017 193.206 43.8161C193.206 43.2583 193.071 42.7753 192.803 42.3673C192.539 41.9592 192.178 41.6441 191.718 41.422C191.258 41.1999 190.742 41.0888 190.168 41.0888C189.559 41.0888 189.027 41.2154 188.572 41.4685C188.123 41.7164 187.774 42.0651 187.526 42.5145C187.284 42.9638 187.162 43.4907 187.162 44.095H185.334C185.334 43.1653 185.548 42.3492 185.977 41.6467C186.405 40.9442 186.989 40.3967 187.728 40.0041C188.472 39.6116 189.306 39.4153 190.23 39.4153C191.16 39.4153 191.984 39.6116 192.702 40.0041C193.42 40.3967 193.983 40.9261 194.391 41.5925C194.799 42.2588 195.003 43 195.003 43.8161C195.003 44.3998 194.897 44.9706 194.685 45.5284C194.479 46.0811 194.117 46.6983 193.601 47.3802C193.089 48.0568 192.379 48.8833 191.47 49.8595L187.906 53.6715V53.7955H195.282V55.5H185.272ZM203.221 55.7169C202.054 55.7169 201.06 55.3993 200.238 54.7639C199.417 54.1235 198.789 53.1963 198.355 51.9824C197.922 50.7634 197.705 49.2913 197.705 47.5661C197.705 45.8512 197.922 44.3869 198.355 43.173C198.795 41.954 199.425 41.0243 200.246 40.3838C201.072 39.7381 202.064 39.4153 203.221 39.4153C204.378 39.4153 205.367 39.7381 206.189 40.3838C207.015 41.0243 207.645 41.954 208.079 43.173C208.518 44.3869 208.738 45.8512 208.738 47.5661C208.738 49.2913 208.521 50.7634 208.087 51.9824C207.653 53.1963 207.025 54.1235 206.204 54.7639C205.383 55.3993 204.389 55.7169 203.221 55.7169ZM203.221 54.0124C204.378 54.0124 205.277 53.4545 205.917 52.3388C206.558 51.2231 206.878 49.6322 206.878 47.5661C206.878 46.1921 206.731 45.0222 206.437 44.0563C206.147 43.0904 205.729 42.3543 205.181 41.8481C204.639 41.3419 203.986 41.0888 203.221 41.0888C202.075 41.0888 201.178 41.6544 200.533 42.7856C199.887 43.9117 199.564 45.5052 199.564 47.5661C199.564 48.9401 199.709 50.1074 199.998 51.0682C200.287 52.0289 200.703 52.7598 201.245 53.2608C201.793 53.7619 202.452 54.0124 203.221 54.0124ZM216.824 39.6322V55.5H214.903V41.6467H214.81L210.936 44.219V42.2665L214.903 39.6322H216.824ZM221.447 55.5L228.544 41.4607V41.3368H220.362V39.6322H230.528V41.4298L223.462 55.5H221.447Z" fill="white"/>
<path d="M144.666 86.0527C144.666 89.166 144.083 91.8326 142.916 94.0523C141.759 96.2627 140.179 97.9557 138.176 99.1315C136.182 100.307 133.92 100.895 131.39 100.895C128.859 100.895 126.593 100.307 124.589 99.1315C122.595 97.9463 121.015 96.2486 119.849 94.0382C118.692 91.8185 118.113 89.1566 118.113 86.0527C118.113 82.9394 118.692 80.2776 119.849 78.0672C121.015 75.8475 122.595 74.1497 124.589 72.974C126.593 71.7983 128.859 71.2104 131.39 71.2104C133.92 71.2104 136.182 71.7983 138.176 72.974C140.179 74.1497 141.759 75.8475 142.916 78.0672C144.083 80.2776 144.666 82.9394 144.666 86.0527ZM139.403 86.0527C139.403 83.8612 139.06 82.0129 138.373 80.508C137.696 78.9937 136.756 77.8509 135.552 77.0796C134.348 76.2989 132.96 75.9086 131.39 75.9086C129.819 75.9086 128.431 76.2989 127.228 77.0796C126.024 77.8509 125.078 78.9937 124.392 80.508C123.714 82.0129 123.376 83.8612 123.376 86.0527C123.376 88.2443 123.714 90.0972 124.392 91.6115C125.078 93.1165 126.024 94.2593 127.228 95.0399C128.431 95.8112 129.819 96.1969 131.39 96.1969C132.96 96.1969 134.348 95.8112 135.552 95.0399C136.756 94.2593 137.696 93.1165 138.373 91.6115C139.06 90.0972 139.403 88.2443 139.403 86.0527ZM148.82 100.5V71.6055H167.33V75.9933H154.054V83.8377H166.061V88.2255H154.054V100.5H148.82ZM171.305 100.5V71.6055H189.815V75.9933H176.539V83.8377H188.545V88.2255H176.539V100.5H171.305ZM199.024 71.6055V100.5H193.789V71.6055H199.024ZM228.63 81.3545H223.353C223.202 80.4892 222.925 79.7226 222.521 79.0548C222.116 78.3776 221.613 77.8039 221.011 77.3336C220.409 76.8633 219.722 76.5106 218.951 76.2754C218.189 76.0309 217.366 75.9086 216.482 75.9086C214.911 75.9086 213.519 76.3036 212.306 77.0937C211.093 77.8744 210.143 79.0219 209.456 80.5362C208.769 82.0412 208.426 83.88 208.426 86.0527C208.426 88.2631 208.769 90.1254 209.456 91.6398C210.152 93.1447 211.102 94.2828 212.306 95.0541C213.519 95.8159 214.907 96.1969 216.468 96.1969C217.333 96.1969 218.142 96.084 218.895 95.8582C219.657 95.6231 220.338 95.2798 220.94 94.8283C221.552 94.3768 222.064 93.8219 222.478 93.1635C222.901 92.5051 223.193 91.7526 223.353 90.9061L228.63 90.9343C228.432 92.3076 228.004 93.5962 227.346 94.8001C226.697 96.004 225.846 97.0669 224.792 97.9887C223.739 98.901 222.506 99.6159 221.096 100.133C219.685 100.641 218.119 100.895 216.397 100.895C213.858 100.895 211.591 100.307 209.597 99.1315C207.603 97.9557 206.032 96.258 204.885 94.0382C203.737 91.8185 203.163 89.1566 203.163 86.0527C203.163 82.9394 203.742 80.2776 204.899 78.0672C206.056 75.8475 207.631 74.1497 209.625 72.974C211.619 71.7983 213.877 71.2104 216.397 71.2104C218.006 71.2104 219.501 71.4361 220.884 71.8876C222.267 72.3391 223.499 73.0022 224.58 73.8769C225.662 74.7423 226.551 75.8051 227.247 77.0655C227.952 78.3165 228.413 79.7462 228.63 81.3545ZM237.863 71.6055V100.5H232.628V71.6055H237.863ZM246.447 100.5H240.86L251.032 71.6055H257.494L267.68 100.5H262.093L254.376 77.5311H254.15L246.447 100.5ZM246.63 89.1707H261.868V93.3751H246.63V89.1707ZM270.692 100.5V71.6055H275.926V96.1122H288.652V100.5H270.692ZM117.711 123.549C117.58 122.316 117.025 121.357 116.046 120.67C115.078 119.984 113.817 119.641 112.265 119.641C111.174 119.641 110.238 119.805 109.458 120.134C108.677 120.464 108.08 120.91 107.666 121.475C107.252 122.039 107.04 122.683 107.031 123.408C107.031 124.01 107.167 124.532 107.44 124.974C107.722 125.416 108.103 125.792 108.583 126.102C109.063 126.403 109.594 126.657 110.177 126.864C110.76 127.071 111.348 127.245 111.941 127.386L114.65 128.063C115.741 128.317 116.789 128.661 117.796 129.093C118.812 129.526 119.719 130.072 120.519 130.73C121.328 131.388 121.967 132.183 122.438 133.114C122.908 134.045 123.143 135.137 123.143 136.388C123.143 138.081 122.71 139.571 121.845 140.86C120.98 142.139 119.729 143.141 118.092 143.865C116.465 144.58 114.494 144.937 112.181 144.937C109.933 144.937 107.981 144.589 106.326 143.893C104.68 143.197 103.391 142.181 102.46 140.846C101.538 139.51 101.04 137.883 100.964 135.964H106.114C106.189 136.971 106.5 137.808 107.045 138.476C107.591 139.143 108.301 139.642 109.176 139.971C110.06 140.3 111.047 140.465 112.138 140.465C113.276 140.465 114.273 140.296 115.129 139.957C115.995 139.609 116.672 139.129 117.161 138.518C117.65 137.897 117.899 137.173 117.909 136.345C117.899 135.593 117.678 134.972 117.246 134.483C116.813 133.984 116.206 133.57 115.426 133.241C114.654 132.903 113.751 132.602 112.717 132.338L109.429 131.492C107.05 130.88 105.169 129.954 103.786 128.712C102.413 127.461 101.726 125.801 101.726 123.732C101.726 122.03 102.187 120.539 103.109 119.26C104.04 117.98 105.305 116.988 106.904 116.283C108.503 115.568 110.314 115.21 112.336 115.21C114.386 115.21 116.183 115.568 117.725 116.283C119.277 116.988 120.495 117.971 121.379 119.231C122.264 120.482 122.72 121.921 122.748 123.549H117.711ZM127.015 144.5V115.605H145.808V119.993H132.249V127.838H144.834V132.225H132.249V140.112H145.921V144.5H127.015ZM150.353 144.5V115.605H155.588V140.112H168.314V144.5H150.353ZM172.062 144.5V115.605H190.855V119.993H177.296V127.838H189.881V132.225H177.296V140.112H190.968V144.5H172.062ZM220.133 125.355H214.856C214.706 124.489 214.428 123.723 214.024 123.055C213.619 122.378 213.116 121.804 212.514 121.334C211.912 120.863 211.225 120.511 210.454 120.275C209.692 120.031 208.869 119.909 207.985 119.909C206.414 119.909 205.022 120.304 203.809 121.094C202.596 121.874 201.646 123.022 200.959 124.536C200.272 126.041 199.929 127.88 199.929 130.053C199.929 132.263 200.272 134.125 200.959 135.64C201.655 137.145 202.605 138.283 203.809 139.054C205.022 139.816 206.41 140.197 207.971 140.197C208.836 140.197 209.645 140.084 210.398 139.858C211.16 139.623 211.841 139.28 212.443 138.828C213.055 138.377 213.567 137.822 213.981 137.163C214.405 136.505 214.696 135.753 214.856 134.906L220.133 134.934C219.935 136.308 219.507 137.596 218.849 138.8C218.2 140.004 217.349 141.067 216.295 141.989C215.242 142.901 214.01 143.616 212.599 144.133C211.188 144.641 209.622 144.895 207.9 144.895C205.361 144.895 203.094 144.307 201.1 143.131C199.106 141.956 197.535 140.258 196.388 138.038C195.24 135.818 194.667 133.157 194.667 130.053C194.667 126.939 195.245 124.278 196.402 122.067C197.559 119.847 199.134 118.15 201.128 116.974C203.122 115.798 205.38 115.21 207.9 115.21C209.509 115.21 211.004 115.436 212.387 115.888C213.77 116.339 215.002 117.002 216.083 117.877C217.165 118.742 218.054 119.805 218.75 121.066C219.455 122.316 219.916 123.746 220.133 125.355ZM222.862 119.993V115.605H245.915V119.993H236.984V144.5H231.792V119.993H222.862ZM254.799 115.605V144.5H249.565V115.605H254.799ZM285.492 130.053C285.492 133.166 284.908 135.833 283.742 138.052C282.585 140.263 281.005 141.956 279.002 143.131C277.008 144.307 274.746 144.895 272.215 144.895C269.685 144.895 267.418 144.307 265.415 143.131C263.421 141.946 261.841 140.249 260.674 138.038C259.518 135.818 258.939 133.157 258.939 130.053C258.939 126.939 259.518 124.278 260.674 122.067C261.841 119.847 263.421 118.15 265.415 116.974C267.418 115.798 269.685 115.21 272.215 115.21C274.746 115.21 277.008 115.798 279.002 116.974C281.005 118.15 282.585 119.847 283.742 122.067C284.908 124.278 285.492 126.939 285.492 130.053ZM280.229 130.053C280.229 127.861 279.886 126.013 279.199 124.508C278.522 122.994 277.581 121.851 276.377 121.08C275.173 120.299 273.786 119.909 272.215 119.909C270.645 119.909 269.257 120.299 268.053 121.08C266.849 121.851 265.904 122.994 265.217 124.508C264.54 126.013 264.202 127.861 264.202 130.053C264.202 132.244 264.54 134.097 265.217 135.612C265.904 137.116 266.849 138.259 268.053 139.04C269.257 139.811 270.645 140.197 272.215 140.197C273.786 140.197 275.173 139.811 276.377 139.04C277.581 138.259 278.522 137.116 279.199 135.612C279.886 134.097 280.229 132.244 280.229 130.053ZM313.391 115.605V144.5H308.735L295.12 124.818H294.88V144.5H289.646V115.605H294.33L307.93 135.301H308.184V115.605H313.391Z" fill="white"/>
<path d="M167.556 164.599C167.463 163.814 167.086 163.205 166.425 162.771C165.764 162.337 164.953 162.12 163.992 162.12C163.29 162.12 162.675 162.233 162.148 162.461C161.627 162.688 161.219 163.001 160.924 163.398C160.635 163.796 160.49 164.248 160.49 164.754C160.49 165.178 160.591 165.542 160.793 165.847C160.999 166.146 161.263 166.397 161.583 166.598C161.903 166.794 162.239 166.957 162.59 167.086C162.941 167.21 163.264 167.311 163.559 167.388L165.17 167.822C165.583 167.931 166.043 168.081 166.549 168.272C167.061 168.463 167.549 168.724 168.014 169.054C168.484 169.38 168.871 169.798 169.176 170.309C169.481 170.821 169.633 171.448 169.633 172.192C169.633 173.05 169.408 173.824 168.959 174.517C168.515 175.209 167.864 175.759 167.006 176.167C166.154 176.575 165.118 176.779 163.899 176.779C162.763 176.779 161.779 176.596 160.947 176.229C160.121 175.862 159.47 175.351 158.995 174.695C158.525 174.039 158.259 173.277 158.197 172.409H160.18C160.232 173.008 160.434 173.504 160.785 173.897C161.141 174.284 161.591 174.573 162.133 174.764C162.68 174.95 163.269 175.043 163.899 175.043C164.633 175.043 165.291 174.925 165.875 174.687C166.459 174.444 166.921 174.108 167.262 173.68C167.603 173.246 167.773 172.74 167.773 172.161C167.773 171.634 167.626 171.206 167.332 170.875C167.037 170.544 166.65 170.276 166.17 170.069C165.689 169.863 165.17 169.682 164.612 169.527L162.66 168.969C161.42 168.613 160.439 168.104 159.716 167.443C158.992 166.782 158.631 165.916 158.631 164.847C158.631 163.959 158.871 163.184 159.351 162.523C159.837 161.856 160.488 161.34 161.304 160.973C162.125 160.601 163.042 160.415 164.054 160.415C165.077 160.415 165.986 160.599 166.782 160.965C167.577 161.327 168.207 161.823 168.672 162.453C169.142 163.083 169.39 163.799 169.416 164.599H167.556ZM175.61 176.779C174.856 176.779 174.171 176.637 173.557 176.353C172.942 176.064 172.454 175.648 172.092 175.105C171.731 174.558 171.55 173.897 171.55 173.122C171.55 172.44 171.684 171.887 171.953 171.464C172.221 171.035 172.58 170.699 173.03 170.457C173.479 170.214 173.975 170.033 174.517 169.914C175.065 169.79 175.615 169.692 176.168 169.62C176.891 169.527 177.477 169.457 177.927 169.411C178.381 169.359 178.712 169.274 178.918 169.155C179.13 169.036 179.236 168.83 179.236 168.535V168.473C179.236 167.709 179.027 167.115 178.608 166.691C178.195 166.268 177.568 166.056 176.726 166.056C175.853 166.056 175.168 166.247 174.672 166.629C174.177 167.011 173.828 167.419 173.626 167.853L171.891 167.233C172.201 166.51 172.614 165.947 173.131 165.544C173.652 165.136 174.22 164.852 174.835 164.692C175.455 164.527 176.064 164.444 176.664 164.444C177.046 164.444 177.485 164.491 177.981 164.584C178.482 164.671 178.965 164.855 179.43 165.134C179.9 165.413 180.29 165.834 180.6 166.397C180.909 166.96 181.064 167.714 181.064 168.659V176.5H179.236V174.888H179.143C179.019 175.147 178.812 175.423 178.523 175.717C178.234 176.012 177.849 176.262 177.369 176.469C176.888 176.676 176.302 176.779 175.61 176.779ZM175.889 175.136C176.612 175.136 177.221 174.994 177.717 174.71C178.218 174.426 178.595 174.059 178.849 173.61C179.107 173.161 179.236 172.688 179.236 172.192V170.519C179.158 170.612 178.988 170.697 178.725 170.774C178.466 170.847 178.167 170.911 177.826 170.968C177.49 171.02 177.162 171.066 176.842 171.107C176.527 171.144 176.271 171.175 176.075 171.2C175.6 171.262 175.155 171.363 174.742 171.503C174.334 171.637 174.003 171.841 173.75 172.115C173.502 172.383 173.378 172.75 173.378 173.215C173.378 173.85 173.614 174.331 174.084 174.656C174.559 174.976 175.161 175.136 175.889 175.136ZM185.794 169.341V176.5H183.965V164.599H185.732V166.459H185.887C186.166 165.854 186.589 165.369 187.158 165.002C187.726 164.63 188.459 164.444 189.358 164.444C190.164 164.444 190.869 164.61 191.473 164.94C192.078 165.265 192.548 165.761 192.883 166.428C193.219 167.089 193.387 167.926 193.387 168.938V176.5H191.558V169.062C191.558 168.127 191.316 167.399 190.83 166.877C190.345 166.35 189.678 166.087 188.831 166.087C188.248 166.087 187.726 166.213 187.266 166.466C186.812 166.72 186.453 167.089 186.189 167.574C185.926 168.06 185.794 168.649 185.794 169.341ZM207.137 176.5H202.24V160.632H207.353C208.893 160.632 210.21 160.95 211.305 161.585C212.4 162.215 213.239 163.122 213.823 164.305C214.407 165.482 214.699 166.893 214.699 168.535C214.699 170.188 214.404 171.611 213.815 172.804C213.226 173.992 212.369 174.907 211.243 175.547C210.117 176.182 208.748 176.5 207.137 176.5ZM204.161 174.795H207.013C208.325 174.795 209.412 174.542 210.274 174.036C211.137 173.53 211.78 172.809 212.204 171.874C212.627 170.94 212.839 169.826 212.839 168.535C212.839 167.254 212.63 166.151 212.211 165.227C211.793 164.297 211.168 163.584 210.336 163.088C209.505 162.587 208.469 162.337 207.23 162.337H204.161V174.795ZM217.237 176.5V164.599H219.066V176.5H217.237ZM218.167 162.616C217.811 162.616 217.503 162.494 217.245 162.252C216.992 162.009 216.865 161.717 216.865 161.376C216.865 161.035 216.992 160.743 217.245 160.501C217.503 160.258 217.811 160.136 218.167 160.136C218.524 160.136 218.828 160.258 219.081 160.501C219.34 160.743 219.469 161.035 219.469 161.376C219.469 161.717 219.34 162.009 219.081 162.252C218.828 162.494 218.524 162.616 218.167 162.616ZM226.968 176.748C225.822 176.748 224.832 176.495 224.001 175.989C223.174 175.477 222.536 174.764 222.087 173.85C221.643 172.931 221.421 171.862 221.421 170.643C221.421 169.424 221.643 168.349 222.087 167.419C222.536 166.485 223.161 165.756 223.962 165.235C224.768 164.708 225.708 164.444 226.782 164.444C227.402 164.444 228.014 164.548 228.619 164.754C229.223 164.961 229.773 165.296 230.269 165.761C230.765 166.221 231.16 166.831 231.454 167.59C231.749 168.349 231.896 169.284 231.896 170.395V171.169H222.722V169.589H230.036C230.036 168.917 229.902 168.318 229.634 167.791C229.37 167.264 228.993 166.849 228.502 166.544C228.017 166.239 227.443 166.087 226.782 166.087C226.054 166.087 225.424 166.268 224.892 166.629C224.365 166.986 223.959 167.45 223.675 168.024C223.391 168.597 223.249 169.212 223.249 169.868V170.921C223.249 171.82 223.404 172.582 223.714 173.207C224.029 173.827 224.466 174.3 225.024 174.625C225.581 174.945 226.23 175.105 226.968 175.105C227.449 175.105 227.882 175.038 228.27 174.904C228.662 174.764 229.001 174.558 229.285 174.284C229.569 174.005 229.788 173.659 229.943 173.246L231.71 173.742C231.524 174.341 231.212 174.868 230.772 175.322C230.333 175.772 229.791 176.123 229.145 176.376C228.5 176.624 227.774 176.748 226.968 176.748ZM239.045 181.211C238.162 181.211 237.402 181.097 236.767 180.87C236.132 180.648 235.602 180.353 235.179 179.987C234.76 179.625 234.427 179.238 234.179 178.824L235.636 177.802C235.801 178.019 236.01 178.267 236.263 178.545C236.516 178.83 236.862 179.075 237.301 179.282C237.746 179.493 238.327 179.599 239.045 179.599C240.006 179.599 240.798 179.367 241.423 178.902C242.048 178.437 242.361 177.709 242.361 176.717V174.3H242.206C242.072 174.517 241.881 174.785 241.633 175.105C241.39 175.42 241.039 175.702 240.579 175.95C240.124 176.193 239.51 176.314 238.735 176.314C237.774 176.314 236.912 176.087 236.147 175.632C235.388 175.178 234.786 174.517 234.342 173.649C233.903 172.781 233.683 171.727 233.683 170.488C233.683 169.269 233.898 168.207 234.326 167.303C234.755 166.394 235.352 165.692 236.116 165.196C236.881 164.695 237.764 164.444 238.766 164.444C239.541 164.444 240.155 164.573 240.61 164.832C241.07 165.085 241.421 165.374 241.664 165.699C241.912 166.02 242.103 166.283 242.237 166.49H242.423V164.599H244.189V176.841C244.189 177.864 243.957 178.695 243.492 179.336C243.032 179.981 242.413 180.454 241.633 180.754C240.858 181.058 239.995 181.211 239.045 181.211ZM238.983 174.671C239.716 174.671 240.336 174.504 240.842 174.168C241.348 173.832 241.733 173.349 241.997 172.719C242.26 172.089 242.392 171.335 242.392 170.457C242.392 169.599 242.263 168.842 242.004 168.186C241.746 167.53 241.364 167.017 240.858 166.645C240.352 166.273 239.727 166.087 238.983 166.087C238.208 166.087 237.562 166.283 237.046 166.676C236.534 167.068 236.15 167.595 235.891 168.256C235.638 168.917 235.512 169.651 235.512 170.457C235.512 171.283 235.641 172.014 235.899 172.649C236.163 173.279 236.55 173.775 237.061 174.137C237.578 174.493 238.218 174.671 238.983 174.671ZM251.935 176.748C250.86 176.748 249.918 176.492 249.107 175.981C248.301 175.47 247.671 174.754 247.216 173.835C246.767 172.915 246.542 171.841 246.542 170.612C246.542 169.372 246.767 168.29 247.216 167.365C247.671 166.441 248.301 165.723 249.107 165.211C249.918 164.7 250.86 164.444 251.935 164.444C253.009 164.444 253.949 164.7 254.755 165.211C255.566 165.723 256.196 166.441 256.646 167.365C257.1 168.29 257.327 169.372 257.327 170.612C257.327 171.841 257.1 172.915 256.646 173.835C256.196 174.754 255.566 175.47 254.755 175.981C253.949 176.492 253.009 176.748 251.935 176.748ZM251.935 175.105C252.751 175.105 253.422 174.896 253.949 174.478C254.476 174.059 254.866 173.509 255.119 172.827C255.372 172.146 255.499 171.407 255.499 170.612C255.499 169.816 255.372 169.075 255.119 168.388C254.866 167.701 254.476 167.146 253.949 166.722C253.422 166.299 252.751 166.087 251.935 166.087C251.119 166.087 250.447 166.299 249.92 166.722C249.394 167.146 249.004 167.701 248.75 168.388C248.497 169.075 248.371 169.816 248.371 170.612C248.371 171.407 248.497 172.146 248.75 172.827C249.004 173.509 249.394 174.059 249.92 174.478C250.447 174.896 251.119 175.105 251.935 175.105ZM117.58 193.632H119.502V204.975C119.502 205.988 119.316 206.848 118.944 207.555C118.572 208.263 118.048 208.8 117.371 209.167C116.695 209.534 115.897 209.717 114.977 209.717C114.109 209.717 113.337 209.559 112.66 209.244C111.984 208.924 111.452 208.47 111.064 207.881C110.677 207.292 110.483 206.592 110.483 205.781H112.374C112.374 206.23 112.485 206.623 112.707 206.959C112.934 207.289 113.244 207.548 113.637 207.733C114.029 207.919 114.476 208.012 114.977 208.012C115.53 208.012 116 207.896 116.387 207.664C116.775 207.431 117.069 207.09 117.27 206.641C117.477 206.186 117.58 205.631 117.58 204.975V193.632ZM127.658 209.748C126.511 209.748 125.522 209.495 124.691 208.989C123.864 208.477 123.226 207.764 122.777 206.85C122.333 205.931 122.11 204.862 122.11 203.643C122.11 202.424 122.333 201.349 122.777 200.419C123.226 199.485 123.851 198.756 124.652 198.235C125.458 197.708 126.398 197.444 127.472 197.444C128.092 197.444 128.704 197.548 129.308 197.754C129.913 197.961 130.463 198.296 130.959 198.761C131.454 199.221 131.85 199.831 132.144 200.59C132.438 201.349 132.586 202.284 132.586 203.395V204.169H123.412V202.589H130.726C130.726 201.917 130.592 201.318 130.323 200.791C130.06 200.264 129.683 199.849 129.192 199.544C128.707 199.239 128.133 199.087 127.472 199.087C126.744 199.087 126.114 199.268 125.582 199.629C125.055 199.986 124.649 200.45 124.365 201.024C124.081 201.597 123.939 202.212 123.939 202.868V203.921C123.939 204.82 124.094 205.582 124.404 206.207C124.719 206.827 125.155 207.3 125.713 207.625C126.271 207.945 126.919 208.105 127.658 208.105C128.138 208.105 128.572 208.038 128.96 207.904C129.352 207.764 129.691 207.558 129.975 207.284C130.259 207.005 130.478 206.659 130.633 206.246L132.4 206.742C132.214 207.341 131.901 207.868 131.462 208.322C131.023 208.772 130.481 209.123 129.835 209.376C129.19 209.624 128.464 209.748 127.658 209.748ZM137.627 209.5L134.001 197.599H135.923L138.495 206.711H138.619L141.16 197.599H143.113L145.623 206.68H145.747L148.319 197.599H150.241L146.615 209.5H144.817L142.214 200.357H142.028L139.425 209.5H137.627ZM152.222 209.5V197.599H154.05V209.5H152.222ZM153.151 195.616C152.795 195.616 152.488 195.494 152.229 195.252C151.976 195.009 151.85 194.717 151.85 194.376C151.85 194.035 151.976 193.743 152.229 193.501C152.488 193.258 152.795 193.136 153.151 193.136C153.508 193.136 153.813 193.258 154.066 193.501C154.324 193.743 154.453 194.035 154.453 194.376C154.453 194.717 154.324 195.009 154.066 195.252C153.813 195.494 153.508 195.616 153.151 195.616ZM165.393 200.264L163.75 200.729C163.647 200.456 163.494 200.19 163.293 199.931C163.097 199.668 162.828 199.451 162.487 199.28C162.146 199.11 161.71 199.025 161.178 199.025C160.45 199.025 159.843 199.193 159.357 199.528C158.877 199.859 158.636 200.28 158.636 200.791C158.636 201.246 158.802 201.605 159.132 201.868C159.463 202.132 159.979 202.351 160.682 202.527L162.448 202.961C163.513 203.219 164.305 203.614 164.827 204.146C165.349 204.673 165.61 205.352 165.61 206.184C165.61 206.866 165.413 207.475 165.021 208.012C164.633 208.55 164.091 208.973 163.394 209.283C162.696 209.593 161.885 209.748 160.961 209.748C159.747 209.748 158.742 209.485 157.947 208.958C157.151 208.431 156.648 207.661 156.436 206.649L158.172 206.215C158.337 206.855 158.649 207.336 159.109 207.656C159.574 207.976 160.181 208.136 160.93 208.136C161.782 208.136 162.459 207.956 162.96 207.594C163.466 207.227 163.719 206.788 163.719 206.277C163.719 205.864 163.575 205.518 163.285 205.239C162.996 204.955 162.552 204.743 161.953 204.603L159.969 204.138C158.879 203.88 158.079 203.48 157.567 202.937C157.061 202.39 156.808 201.706 156.808 200.884C156.808 200.213 156.997 199.619 157.374 199.102C157.756 198.586 158.275 198.18 158.931 197.886C159.592 197.591 160.341 197.444 161.178 197.444C162.355 197.444 163.28 197.702 163.952 198.219C164.628 198.736 165.109 199.417 165.393 200.264ZM169.754 202.341V209.5H167.926V193.632H169.754V199.459H169.909C170.188 198.844 170.607 198.356 171.164 197.994C171.727 197.628 172.476 197.444 173.411 197.444C174.222 197.444 174.932 197.607 175.542 197.932C176.151 198.253 176.624 198.746 176.96 199.412C177.301 200.073 177.471 200.915 177.471 201.938V209.5H175.643V202.062C175.643 201.117 175.397 200.386 174.907 199.869C174.421 199.348 173.747 199.087 172.884 199.087C172.285 199.087 171.748 199.213 171.273 199.466C170.803 199.72 170.431 200.089 170.157 200.574C169.889 201.06 169.754 201.649 169.754 202.341ZM186.328 209.5V193.632H195.842V195.337H188.249V200.698H195.13V202.403H188.249V209.5H186.328ZM198.449 209.5V197.599H200.278V209.5H198.449ZM199.379 195.616C199.022 195.616 198.715 195.494 198.457 195.252C198.204 195.009 198.077 194.717 198.077 194.376C198.077 194.035 198.204 193.743 198.457 193.501C198.715 193.258 199.022 193.136 199.379 193.136C199.735 193.136 200.04 193.258 200.293 193.501C200.551 193.743 200.68 194.035 200.68 194.376C200.68 194.717 200.551 195.009 200.293 195.252C200.04 195.494 199.735 195.616 199.379 195.616ZM205.019 193.632V209.5H203.19V193.632H205.019ZM207.931 209.5V197.599H209.698V199.459H209.853C210.101 198.823 210.501 198.33 211.054 197.979C211.607 197.622 212.27 197.444 213.045 197.444C213.83 197.444 214.484 197.622 215.005 197.979C215.532 198.33 215.943 198.823 216.237 199.459H216.361C216.666 198.844 217.123 198.356 217.733 197.994C218.342 197.628 219.073 197.444 219.925 197.444C220.989 197.444 221.86 197.777 222.536 198.444C223.213 199.105 223.551 200.135 223.551 201.535V209.5H221.723V201.535C221.723 200.657 221.483 200.029 221.002 199.652C220.522 199.275 219.956 199.087 219.305 199.087C218.469 199.087 217.82 199.34 217.361 199.846C216.901 200.347 216.671 200.982 216.671 201.752V209.5H214.812V201.349C214.812 200.673 214.592 200.128 214.153 199.714C213.714 199.296 213.148 199.087 212.456 199.087C211.981 199.087 211.537 199.213 211.124 199.466C210.715 199.72 210.385 200.071 210.132 200.52C209.884 200.964 209.76 201.478 209.76 202.062V209.5H207.931ZM232.406 209.5V193.632H241.921V195.337H234.328V200.698H241.208V202.403H234.328V209.5H232.406ZM248.643 209.748C247.497 209.748 246.507 209.495 245.676 208.989C244.849 208.477 244.211 207.764 243.762 206.85C243.318 205.931 243.096 204.862 243.096 203.643C243.096 202.424 243.318 201.349 243.762 200.419C244.211 199.485 244.836 198.756 245.637 198.235C246.443 197.708 247.383 197.444 248.457 197.444C249.077 197.444 249.689 197.548 250.294 197.754C250.898 197.961 251.448 198.296 251.944 198.761C252.44 199.221 252.835 199.831 253.129 200.59C253.424 201.349 253.571 202.284 253.571 203.395V204.169H244.397V202.589H251.711C251.711 201.917 251.577 201.318 251.309 200.791C251.045 200.264 250.668 199.849 250.177 199.544C249.692 199.239 249.118 199.087 248.457 199.087C247.729 199.087 247.099 199.268 246.567 199.629C246.04 199.986 245.634 200.45 245.35 201.024C245.066 201.597 244.924 202.212 244.924 202.868V203.921C244.924 204.82 245.079 205.582 245.389 206.207C245.704 206.827 246.141 207.3 246.699 207.625C247.256 207.945 247.905 208.105 248.643 208.105C249.124 208.105 249.557 208.038 249.945 207.904C250.337 207.764 250.676 207.558 250.96 207.284C251.244 207.005 251.463 206.659 251.618 206.246L253.385 206.742C253.199 207.341 252.887 207.868 252.447 208.322C252.008 208.772 251.466 209.123 250.82 209.376C250.175 209.624 249.449 209.748 248.643 209.748ZM264.346 200.264L262.703 200.729C262.6 200.456 262.448 200.19 262.246 199.931C262.05 199.668 261.781 199.451 261.44 199.28C261.099 199.11 260.663 199.025 260.131 199.025C259.403 199.025 258.796 199.193 258.31 199.528C257.83 199.859 257.59 200.28 257.59 200.791C257.59 201.246 257.755 201.605 258.085 201.868C258.416 202.132 258.933 202.351 259.635 202.527L261.402 202.961C262.466 203.219 263.259 203.614 263.78 204.146C264.302 204.673 264.563 205.352 264.563 206.184C264.563 206.866 264.366 207.475 263.974 208.012C263.587 208.55 263.044 208.973 262.347 209.283C261.65 209.593 260.839 209.748 259.914 209.748C258.7 209.748 257.696 209.485 256.9 208.958C256.105 208.431 255.601 207.661 255.389 206.649L257.125 206.215C257.29 206.855 257.603 207.336 258.062 207.656C258.527 207.976 259.134 208.136 259.883 208.136C260.735 208.136 261.412 207.956 261.913 207.594C262.419 207.227 262.672 206.788 262.672 206.277C262.672 205.864 262.528 205.518 262.238 205.239C261.949 204.955 261.505 204.743 260.906 204.603L258.922 204.138C257.832 203.88 257.032 203.48 256.52 202.937C256.014 202.39 255.761 201.706 255.761 200.884C255.761 200.213 255.95 199.619 256.327 199.102C256.709 198.586 257.228 198.18 257.884 197.886C258.545 197.591 259.294 197.444 260.131 197.444C261.309 197.444 262.233 197.702 262.905 198.219C263.581 198.736 264.062 199.417 264.346 200.264ZM272.054 197.599V199.149H265.887V197.599H272.054ZM267.685 194.748H269.513V206.091C269.513 206.607 269.588 206.995 269.738 207.253C269.893 207.506 270.089 207.677 270.327 207.764C270.569 207.847 270.825 207.888 271.094 207.888C271.295 207.888 271.46 207.878 271.59 207.857C271.719 207.832 271.822 207.811 271.9 207.795L272.271 209.438C272.147 209.485 271.974 209.531 271.752 209.577C271.53 209.629 271.249 209.655 270.908 209.655C270.391 209.655 269.885 209.544 269.389 209.322C268.898 209.1 268.49 208.761 268.165 208.307C267.845 207.852 267.685 207.279 267.685 206.587V194.748ZM274.369 209.5V197.599H276.197V209.5H274.369ZM275.298 195.616C274.942 195.616 274.635 195.494 274.376 195.252C274.123 195.009 273.997 194.717 273.997 194.376C273.997 194.035 274.123 193.743 274.376 193.501C274.635 193.258 274.942 193.136 275.298 193.136C275.655 193.136 275.96 193.258 276.213 193.501C276.471 193.743 276.6 194.035 276.6 194.376C276.6 194.717 276.471 195.009 276.213 195.252C275.96 195.494 275.655 195.616 275.298 195.616ZM288.841 197.599L284.44 209.5H282.581L278.18 197.599H280.164L283.449 207.083H283.573L286.858 197.599H288.841ZM293.958 209.779C293.204 209.779 292.52 209.637 291.905 209.353C291.29 209.064 290.802 208.648 290.441 208.105C290.079 207.558 289.898 206.897 289.898 206.122C289.898 205.44 290.033 204.887 290.301 204.464C290.57 204.035 290.929 203.699 291.378 203.457C291.828 203.214 292.323 203.033 292.866 202.914C293.413 202.79 293.963 202.692 294.516 202.62C295.239 202.527 295.825 202.457 296.275 202.411C296.729 202.359 297.06 202.274 297.267 202.155C297.478 202.036 297.584 201.83 297.584 201.535V201.473C297.584 200.709 297.375 200.115 296.957 199.691C296.543 199.268 295.916 199.056 295.074 199.056C294.201 199.056 293.517 199.247 293.021 199.629C292.525 200.011 292.176 200.419 291.975 200.853L290.239 200.233C290.549 199.51 290.962 198.947 291.479 198.544C292.001 198.136 292.569 197.852 293.183 197.692C293.803 197.527 294.413 197.444 295.012 197.444C295.394 197.444 295.833 197.491 296.329 197.584C296.83 197.671 297.313 197.855 297.778 198.134C298.248 198.413 298.638 198.834 298.948 199.397C299.258 199.96 299.413 200.714 299.413 201.659V209.5H297.584V207.888H297.491C297.367 208.147 297.161 208.423 296.871 208.717C296.582 209.012 296.197 209.262 295.717 209.469C295.237 209.676 294.65 209.779 293.958 209.779ZM294.237 208.136C294.96 208.136 295.57 207.994 296.066 207.71C296.567 207.426 296.944 207.059 297.197 206.61C297.455 206.161 297.584 205.688 297.584 205.192V203.519C297.507 203.612 297.336 203.697 297.073 203.774C296.815 203.847 296.515 203.911 296.174 203.968C295.838 204.02 295.51 204.066 295.19 204.107C294.875 204.144 294.619 204.175 294.423 204.2C293.948 204.262 293.504 204.363 293.09 204.503C292.682 204.637 292.352 204.841 292.099 205.115C291.851 205.383 291.727 205.75 291.727 206.215C291.727 206.85 291.962 207.331 292.432 207.656C292.907 207.976 293.509 208.136 294.237 208.136ZM304.142 193.632V209.5H302.314V193.632H304.142Z" fill="white"/>
<path d="M367.838 73.6038C370.208 77.1463 372.484 81.5164 371.365 86.1997C367.504 83.9897 364.398 80.3814 361.935 76.8193C359.455 73.2333 356.88 69.42 355.998 65C360.868 66.2457 365.228 69.7037 367.838 73.6038Z" fill="white"/>
<path d="M374.756 95.1908C373.38 91.4902 370.37 88.2635 367.094 86.7585C364.052 85.3629 360.012 83.9064 356.462 85.6948C358.394 89.0871 361.575 91.9415 364.824 93.7369C367.745 95.3511 371.445 97.3068 375.107 96.4662C379.098 95.8549 381.027 91.8818 382.1 88.8763C383.585 84.723 382.57 79.1764 380.035 75.1016C376.54 76.5581 375.474 80.8794 374.744 83.9369C373.911 87.4172 373.888 91.4796 374.756 95.1908Z" fill="white"/>
<path d="M371.887 100.538C374.701 102.545 376.861 106.215 377.325 109.982C377.365 106.207 378.392 102.31 380.041 99.1713C381.55 96.2995 383.655 92.4182 387.4 91.6445C388.871 96.1159 388.395 101.585 386.016 105.204C384.217 107.946 381.431 111.38 377.377 111.288C373.677 111.477 370.482 108.95 367.968 106.841C365.263 104.573 362.823 101.257 361.797 97.6733C365.574 96.5764 369.19 98.6157 371.887 100.538Z" fill="white"/>
<path d="M376.374 124.805C376.786 121.114 375.552 117.123 373.251 114.657C371.036 112.28 367.93 109.689 364.063 110.101C364.141 113.841 366.013 117.406 367.945 120.076C369.744 122.563 372.515 125.639 376.143 126.082C379.915 126.721 383.597 124.412 385.99 121.695C389.067 118.199 390.901 113.507 390.535 108.809C386.659 108.904 383.724 112.25 381.553 114.78C379.211 117.508 377.293 121.1 376.374 124.805Z" fill="white"/>
<path d="M370.882 128.165C372.716 131.811 373.065 136.148 371.65 139.966C373.737 136.037 376.791 132.86 380.024 129.924C382.962 127.256 387.195 124.446 391.454 124.978C390.641 130.245 387.42 135.707 383.1 138.514C379.628 140.769 375.421 143.002 371.001 141.316C367.364 140.033 365.055 136.371 363.636 133.01C362.134 129.454 361.133 125.355 361.834 121.465C365.822 121.822 369.129 124.679 370.882 128.165Z" fill="white"/>
<path d="M363.175 154.02C365.482 150.507 366.287 146.111 365.344 141.984C364.45 138.075 361.731 134.505 357.766 133.395C356.113 137.161 356.085 141.542 356.684 145.515C357.244 149.191 358.611 153.48 362.007 155.531C366.203 158.192 371.102 156.618 375.125 155.026C380.315 152.973 385.001 148.005 387.193 142.666C382.657 141.228 378.02 143.6 374.24 145.567C370.33 147.602 366.246 150.504 363.175 154.02Z" fill="white"/>
<path d="M345.827 156.912C345.322 160.745 345.331 165.608 348.307 168.562C352.021 172.372 357.779 171.641 362.22 170.807C368.183 169.686 374.896 165.625 378.498 160.214C374.109 157.793 368.734 159.335 364.386 160.584L364.135 160.656C359.282 162.048 354.109 164.293 349.78 167.361C353.235 164.244 355.752 159.67 355.879 155.056C355.994 150.929 354.207 146.512 350.354 144.541C347.658 148.072 346.395 152.607 345.827 156.912Z" fill="white"/>
<path d="M342.497 184.994C337.733 184.893 331.196 184.325 328.531 179.403L328.494 179.336C326.366 175.176 328.529 170.313 330.253 166.715C332.303 162.437 335.103 158.078 339.106 154.949C342.947 158.263 342.575 163 341.43 167.116C340.066 172.011 335.354 176.181 330.475 178.555C336.124 176.453 342.292 175.194 348.16 174.825L348.757 174.787C353.472 174.484 359.608 174.089 363.36 177.541C357.676 182.364 349.608 185.144 342.497 184.994Z" fill="white"/>
</svg>
